<?xml version="1.0" encoding="utf-8" ?>
<svg baseProfile="full" height="200mm" version="1.1" viewBox="0,0,200,200" width="200mm" xmlns="http://www.w3.org/2000/svg" xmlns:ev="http://www.w3.org/2001/xml-events" xmlns:xlink="http://www.w3.org/1999/xlink"><defs /><rect fill="#1a1a1a" height="200" width="200" x="0" y="0" /><text alignment-baseline="middle" fill="#e1ed5e" style="dominant-baseline: central; font-size:9.0px; font-family:Arial;" text-anchor="middle" x="100.0" y="100.0">2023</text><line stroke="#e1ed5e" stroke-width="0.3" x1="100.0" x2="100.0" y1="15.0" y2="10.0" /><path d="M 100.0 14.0 a86.0,86.0 0 0,1 42.46469731375804,11.215312516191453" fill="none" id="id73" stroke="none" /><text fill="#e1ed5e" style="font-size:6.75px; font-family:Arial;" text-anchor="middle"><textPath startOffset="22.20632615414155" xlink:href="#id73">January</textPath></text><path d="M 102.52436894288641 79.15227682838746 l 0.004599667025831953 -0.03798675510818706 a21.03826421958433,21.03826421958433 0 0,0 0.35913846954673123,0.04662648069025713 l -0.0052528650804093005 0.037901951253793226" fill="#ff0000" stroke="none" /><path d="M 103.59715602781102 79.31037775812273 l 0.010661445632408324 -0.061321021657509384 a21.062240936047697,21.062240936047697 0 0,0 0.35665883987451263,0.06517712328113476 l -0.011715406609821821 0.061128417025636095" fill="#ff0100" stroke="none" /><path d="M 105.36241919743992 79.69619591428918 l 0.012545435700439759 -0.04750096164679128 a21.049129719257124,21.049129719257124 0 0,0 0.34951790300518465,0.09553644600659349 l -0.013361227929335263 0.04727797481390416" fill="#ff0000" stroke="none" /><path d="M 106.74666289553966 80.11325718540242 l 0.10110053844648674 -0.29800813196578063 a21.314690587072292,21.314690587072292 0 0,0 0.34643273691385335,0.12086357952414041 l -0.10621527942361372 0.29622369926943276" fill="#ff0400" stroke="none" /><path d="M 107.4271985657038 80.35727306442388 l 0.009980048028990936 -0.02639425302867572 a21.028218043015112,21.028218043015112 0 0,0 0.3374696900263737,0.13093299682403206 l -0.010432903055031716 0.02621855231409685" fill="#ff0000" stroke="none" /><line stroke="#e1ed5e" stroke-width="0.3" x1="143.23703022742887" x2="145.7803849466894" y1="26.81831364943548" y2="22.513508569990506" /><path d="M 143.74570117128098 25.957352633546492 a86.0,86.0 0 0,1 28.547481713284135,27.462654790039103" fill="none" id="id74" stroke="none" /><text fill="#e1ed5e" style="font-size:6.75px; font-family:Arial;" text-anchor="middle"><textPath startOffset="19.985693538727396" xlink:href="#id74">February</textPath></text><path d="M 113.89432698308785 84.25364557470407 l 0.9928661100423428 -1.1252089924629902 a22.500625999105104,22.500625999105104 0 0,0 0.2882105317129177,0.2587582610521524 l -1.0120876293512506 1.1079517226415403" fill="#ff1502" stroke="none" /><path d="M 114.16331599549186 84.49514656593476 l 11.285085475596047 -12.353999327961667 a37.732437168170875,37.732437168170875 0 0,0 0.47577389939704495,0.4421799877768396 l -11.496067258787939 12.157914754110188" fill="#ffdf14" stroke="none" /><path d="M 114.68862486808459 84.99185889309783 l 0.014503236209183205 -0.014818719756884806 a21.020734953961185,21.020734953961185 0 0,0 0.2564171309226791,0.25531599427340124 l -0.014756167299184837 0.014566874833364876" fill="#ff0000" stroke="none" /><path d="M 115.4437574822437 85.77008943001954 l 0.01981549240089255 -0.018258036302954365 a21.026944565847863,21.026944565847863 0 0,0 0.2429677055865274,0.2682910089836494 l -0.020126838603455592 0.017914240049755937" fill="#ff0000" stroke="none" /><path d="M 115.9244219780498 86.31012108654704 l 0.04358612175047054 -0.03747004003620569 a21.057478290767573,21.057478290767573 0 0,0 0.23392791390292927,0.27689686539880204 l -0.044224649140517026 0.036714225008297054" fill="#ff0100" stroke="none" /><path d="M 116.15771136456269 86.58626213691792 l 1.5142980157295451 -1.257133276568541 a22.968116499473137,22.968116499473137 0 0,0 0.24991663115687263,0.30636823932322843 l -1.5357131389628267 1.2308808676372116" fill="#ff1c02" stroke="none" /><path d="M 116.60985879189232 87.15038557335679 l 0.10164407158669078 -0.07863324697742946 a21.128509551469662,21.128509551469662 0 0,0 0.22006254219576377,0.2895765100883792 l -0.10298255400656806 0.07687196100801667" fill="#ff0200" stroke="none" /><path d="M 117.04232023915458 87.72973835380427 l 0.9209628828947283 -0.6630819853737018 a22.13483494438482,22.13483494438482 0 0,0 0.21996479598176827,0.3111246045291517 l -0.9322402986803794 0.6471308805127569" fill="#ff1001" stroke="none" /><path d="M 117.2510076193507 88.02491185347247 l 1.0806158274732225 -0.7501283445037215 a22.315455472379636,22.315455472379636 0 0,0 0.21632765579215582,0.31743414144430815 l -1.0933679489341117 0.7314161797890069" fill="#ff1302" stroke="none" /><path d="M 117.45458315368197 88.32363383020206 l 0.04219931314627216 -0.028229527343705225 a21.05077093897168,21.05077093897168 0 0,0 0.19888303726674267,0.3029125103381419 l -0.04267898577093973 0.027498953027889326" fill="#ff0000" stroke="none" /><path d="M 117.65298651832404 88.62581576622439 l 0.03794412654853581 -0.024448185325738118 a21.045138348499396,21.045138348499396 0 0,0 0.19358761724362128,0.30620912031256936 l -0.03835934003811277 0.023791417298962576" fill="#ff0000" stroke="none" /><line stroke="#e1ed5e" stroke-width="0.3" x1="172.23445277983987" x2="176.4835382374775" y1="55.19839476539836" y2="52.563006222186495" /><path d="M 173.08426987136738 54.67131705675599 a86.0,86.0 0 0,1 12.851231095245387,41.99856678651699" fill="none" id="id75" stroke="none" /><text fill="#e1ed5e" style="font-size:6.75px; font-family:Arial;" text-anchor="middle"><textPath startOffset="22.20632615414155" xlink:href="#id75">March</textPath></text><path d="M 117.84615892207809 88.93136811851018 l 0.024866529371565863 -0.015422840342613452 a21.02926103701547,21.02926103701547 0 0,0 0.18814599631286982,0.30926254827957367 l -0.025128323970659616 0.01499251885595833" fill="#ff0000" stroke="none" /><path d="M 118.03404312379186 89.2402003453031 l 0.060474553908750915 -0.036081431091116924 a21.070420461089412,21.070420461089412 0 0,0 0.18315244809592085,0.3130669035342679 l -0.06108667647499905 0.03503511520295369" fill="#ff0100" stroke="none" /><path d="M 118.21658344932153 89.55222093294921 l 0.0578229624526751 -0.03316327336509542 a21.06665806543166,21.06665806543166 0 0,0 0.17770464284744547,0.3161167308086995 l -0.05838524659255356 0.03216303262160201" fill="#ff0100" stroke="none" /><path d="M 118.3937258080291 89.86733742301442 l 0.21299189725748127 -0.11733212993747946 a21.24317149712293,21.24317149712293 0 0,0 0.1736800234747222,0.3218027060745089 l -0.2149800199506683 0.11364844053051183" fill="#ff0300" stroke="none" /><path d="M 118.56541770881063 90.18545643968196 l 0.030889493975052865 -0.016329623654546908 a21.03494019814961,21.03494019814961 0 0,0 0.16646707785588277,0.32156140901087676 l -0.03116600499105198 0.015795492383325324" fill="#ff0000" stroke="none" /><path d="M 118.73160827565052 90.50648371742162 l 0.022267541952996763 -0.011285591124525624 a21.02496413410592,21.02496413410592 0 0,0 0.16083095076942067,0.32422538271350865 l -0.022458505675825555 0.010900619912067096" fill="#ff0000" stroke="none" /><path d="M 118.89224826269711 90.83032412892265 l 0.06331377089662761 -0.030730421770079026 a21.07037749929713,21.07037749929713 0 0,0 0.1555613992346213,0.32765197989106587 l -0.06383336397300511 0.029636026238472814" fill="#ff0100" stroke="none" /><path d="M 119.04729006885535 91.15688171328212 l 0.0703214102644692 -0.032648242705892117 a21.077530693879048,21.077530693879048 0 0,0 0.1499492499904508,0.33039329582766036 l -0.07087297721826699 0.03143293803616897" fill="#ff0100" stroke="none" /><path d="M 119.196687751892 91.48605970444005 l 0.04146680901062857 -0.018390981857226013 a21.045362147912073,21.045362147912073 0 0,0 0.14401971692286475,0.3324173631879602 l -0.04177723577617406 0.017674474082662987" fill="#ff0000" stroke="none" /><path d="M 119.61058180528143 92.48833698450437 l 0.02497649759004209 -0.009567030446450468 a21.026746093236746,21.026746093236746 0 0,0 0.12655639166316676,0.3391082097780068 l -0.025137477754834103 0.009135683639110374" fill="#ff0000" stroke="none" /><path d="M 119.7369772167798 92.82701384747503 l 0.034898333977218504 -0.012683060005356881 a21.037131573162,21.037131573162 0 0,0 0.12076006665444589,0.3414049701575818 l -0.03511148144147395 0.012080463421160526" fill="#ff0000" stroke="none" /><path d="M 119.85752413597 93.16781622104841 l 0.04439065269684435 -0.015273056963988854 a21.046944609018258,21.046944609018258 0 0,0 0.11491902984312802,0.34359327206074575 l -0.04464697631174243 0.014506681980929116" fill="#ff0000" stroke="none" /><path d="M 119.97218684219823 93.5106431181261 l 0.13397409642053365 -0.043530822712037905 a21.140868701412646,21.140868701412646 0 0,0 0.10947397807880903,0.3470624269720445 l -0.13470355826754887 0.04121822931357427" fill="#ff0200" stroke="none" /><path d="M 120.18372546131832 94.20196356495316 l 0.07039442021097417 -0.020221708524000487 a21.073241326397525,21.073241326397525 0 0,0 0.09715088321156774,0.34950341687185105 l -0.070732073988905 0.019006988233197575" fill="#ff0100" stroke="none" /><path d="M 120.37134235888165 94.90015583598534 l 0.031210046734929966 -0.007813249215281214 a21.032173185737452,21.032173185737452 0 0,0 0.08489706787544972,0.35195315560786555 l -0.03133991487119913 0.007274861948009513" fill="#ff0000" stroke="none" /><path d="M 120.53481517161879 95.60439243477599 l 0.04650992535406348 -0.009955744818530524 a21.047563536573012,21.047563536573012 0 0,0 0.07278518491903667,0.35492641079751513 l -0.046674406188097046 0.009153677857603596" fill="#ff0000" stroke="none" /><path d="M 120.6074358757038 95.95851677861258 l 0.0290100680004664 -0.005689388227742777 a21.029562699196752,21.029562699196752 0 0,0 0.06660791140139512,0.3558221261142937 l -0.02910370331172081 0.005189184650886301" fill="#ff0000" stroke="none" /><path d="M 120.67395015179393 96.31383870115 l 0.06296085696342527 -0.011225908574654742 a21.06395381562421,21.06395381562421 0 0,0 0.060572045711882926,0.3574996425784429 l -0.06314476419553121 0.010140477680373936" fill="#ff0100" stroke="none" /><path d="M 120.73433829027371 96.67025291283417 l 0.10515892488544647 -0.016887571666131206 a21.106506288827664,21.106506288827664 0 0,0 0.0545192179169169,0.35921352771090986 l -0.10543403624166325 0.015074931563139196" fill="#ff0100" stroke="none" /><path d="M 120.78858239683441 97.02765380044208 l 0.040266404335911145 -0.005757280203768628 a21.040675909252133,21.040675909252133 0 0,0 0.04817713715448776,0.35897563089747286 l -0.040359540548235096 0.005063307241631408" fill="#ff0000" stroke="none" /><path d="M 120.83666639777658 97.38593545837742 l 0.0626586644790813 -0.007860844432277827 a21.06314983063707,21.06314983063707 0 0,0 0.04203567495402455,0.36013599225200277 l -0.06278469243669477 0.006781113855422358" fill="#ff0100" stroke="none" /><path d="M 120.87857604477298 97.74499172005257 l 0.10800996114768514 -0.011665707286862935 a21.108638116854202,21.108638116854202 0 0,0 0.03590767745084285,0.3615854116255959 l -0.10819476428075667 0.009804764956832109" fill="#ff0100" stroke="none" /><path d="M 120.91429891909075 98.10471618934814 l 0.033359873443146955 -0.003023119651621592 a21.03349657308697,21.03349657308697 0 0,0 0.029572611590537198,0.3608607660829202 l -0.0334069688531789 0.0024484363609326145" fill="#ff0000" stroke="none" /><path d="M 120.96714384426684 98.82574320788733 l 0.06470920325728233 -0.0036240139334876554 a21.06481060455807,21.06481060455807 0 0,0 0.0171591858423223,0.3622032928759987 l -0.0647619973331011 0.0025096144344892036" fill="#ff0100" stroke="none" /><path d="M 120.98425023603335 99.18683210126433 l 0.03852413556263664 -0.00149286202812643 a21.03855304991675,21.03855304991675 0 0,0 0.010908294943743525,0.361993203424655 l -0.03854412496202523 0.000829511178472336" fill="#ff0000" stroke="none" /><line stroke="#e1ed5e" stroke-width="0.3" x1="184.98032266829074" x2="189.97916517819016" y1="98.17113171792111" y2="98.06355123074" /><path d="M 185.9800911702706 98.14961562048488 a86.0,86.0 0 0,1 -9.607161424134198,41.387399972396054" fill="none" id="id76" stroke="none" /><text fill="#e1ed5e" style="font-size:6.75px; font-family:Arial;" text-anchor="middle"><textPath startOffset="21.466115282336823" xlink:href="#id76">April</textPath></text><path d="M 120.99513854157772 99.54816195383933 l 0.04661868013485266 -0.0010032843224638255 a21.04662947476594,21.04662947476594 0 0,0 0.004677355712133844,0.3622663545316121 l -0.04662904296470206 0.0002006717303889782" fill="#ff0000" stroke="none" /><path d="M 120.99980553446 99.90962569577887 l 0.04996904036419339 -0.00021504567021352026 a21.049969503094974,21.049969503094974 0 0,0 -0.0015594045053258935,0.362350688546206 l -0.049965338569364484 -0.0006451210796771903" fill="#ff0000" stroke="none" /><path d="M 120.99824983174949 100.27111621757518 l 0.058143831760713985 0.0007507166487017324 a21.05814867794976,21.05814867794976 0 0,0 -0.007799474304137445,0.3624109234674749 l -0.058122294771569084 -0.001751455906291441" fill="#ff0100" stroke="none" /><path d="M 120.9904718944345 100.63252640178507 l 0.027107612284298845 0.000816860170910143 a21.02711991711445,21.02711991711445 0 0,0 -0.01401594433912321,0.3616892449441288 l -0.027089535093972442 -0.0012833521290450925" fill="#ff0000" stroke="none" /><path d="M 120.9764740272857 100.99374915477107 l 0.018702700333628815 0.0008860303511593117 a21.01872367617624,21.01872367617624 0 0,0 -0.020231671675343177,0.3612500886315377 l -0.018684677770756337 -0.0012078353181203404" fill="#ff0000" stroke="none" /><path d="M 120.95626037817324 101.35467743843564 l 0.024025280029511313 0.0015530683538354868 a21.02407542526744,21.02407542526744 0 0,0 -0.026453734458861625,0.3609401891012858 l -0.02399498690631201 -0.0019663939518915242" fill="#ff0000" stroke="none" /><path d="M 120.92983693683757 101.71520430193887 l 0.027114576008033933 0.002222044899565058 a21.027205472163356,21.027205472163356 0 0,0 -0.03266766989020096,0.3604850150853405 l -0.027072309840757633 -0.0026884485334761014" fill="#ff0000" stroke="none" /><path d="M 120.89721153311464 102.0752229133903 l 0.04428334657495144 0.004397611391755199 a21.044501165937874,21.044501165937874 0 0,0 -0.038899957205720884,0.36016529157799365 l -0.044201087868178675 -0.005159224854540293" fill="#ff0000" stroke="none" /><path d="M 120.8583938346157 102.4346265915055 l 0.13266497964184834 0.015484878162649372 a21.13356563283676,21.13356563283676 0 0,0 -0.045284693224301585,0.3609635610047915 l -0.13237877717069865 -0.017766193454835766" fill="#ff0200" stroke="none" /><path d="M 120.76222939487914 103.15116336523771 l 0.02433976332839456 0.0036941394423621095 a21.024618504119907,21.024618504119907 0 0,0 -0.05738544037520693,0.357339191995094 l -0.0242725685918992 -0.004112561130661071" fill="#ff0000" stroke="none" /><path d="M 120.70491114924044 103.5080841355445 l 0.033660716862140345 0.005703218234745321 a21.03414045339339,21.03414045339339 0 0,0 -0.06355671638595242,0.35645981818126615 l -0.03355755813699921 -0.006281787149229814" fill="#ff0000" stroke="none" /><path d="M 120.64145759157962 103.86396538481128 l 0.04530983213727415 0.00848174709529508 a21.046096864558194,21.046096864558194 0 0,0 -0.06972277949847518,0.3555149505476373 l -0.045157119663134855 -0.009260424710877346" fill="#ff0000" stroke="none" /><path d="M 120.49622156327973 104.57218783832717 l 0.04226791674120462 0.009428901530894493 a21.043306823593063,21.043306823593063 0 0,0 -0.08190799955763015,0.35285751836275864 l -0.042099351253021645 -0.01015507724221803" fill="#ff0000" stroke="none" /><path d="M 120.32669344350535 105.2749913415812 l 0.023085833150253202 0.0059910171971272385 a21.0238505341512,21.0238505341512 0 0,0 -0.09391846958627041,0.3495055638587751 l -0.022979287222205567 -0.006387514231450595" fill="#ff0000" stroke="none" /><path d="M 120.23288151984713 105.62410040840565 l 0.09212202261682645 0.025607005335064284 a21.095614778006567,21.095614778006567 0 0,0 -0.10026179448854614,0.3490244597263547 l -0.0916675912421809 -0.02718894056600098" fill="#ff0100" stroke="none" /><path d="M 120.13307415673323 105.97154293290107 l 0.06711735376051695 0.019907250944565583 a21.070007412578843,21.070007412578843 0 0,0 -0.10612584225467488,0.3468253928884155 l -0.06676473899970937 -0.021059616385038237" fill="#ff0100" stroke="none" /><path d="M 120.02730092923936 106.31721596034902 l 0.07785869935869198 0.0245589867540591 a21.08164019167183,21.08164019167183 0 0,0 -0.11214202717605122,0.3451376708651952 l -0.07742442116639377 -0.025895557597049527" fill="#ff0100" stroke="none" /><path d="M 119.9155931802556 106.66101706037122 l 0.03612399141080091 0.01208211680657358 a21.038090947769454,21.038090947769454 0 0,0 -0.11782249499561447,0.34244732194464245 l -0.035910665471955656 -0.012702141840516401" fill="#ff0000" stroke="none" /><path d="M 119.67450827220406 107.3425965602758 l 0.021869549122281607 0.008161793623422453 a21.023342922995273,21.023342922995273 0 0,0 -0.12944945247669787,0.33795167224706724 l -0.02172581705207699 -0.008537032703633535" fill="#ff0000" stroke="none" /><path d="M 119.54520255179757 107.68017299344265 l 0.024432193767839814 0.009600487600424668 a21.026250741979517,21.026250741979517 0 0,0 -0.135266262248095,0.3357197697943449 l -0.02426331726235236 -0.010019625237583108" fill="#ff0000" stroke="none" /><line stroke="#e1ed5e" stroke-width="0.3" x1="174.80103733775053" x2="179.2010983576182" y1="140.37084112569926" y2="142.7455964860345" /><path d="M 175.68104954172406 140.8457921977663 a86.0,86.0 0 0,1 -30.038265399797805,32.042727171017184" fill="none" id="id77" stroke="none" /><text fill="#e1ed5e" style="font-size:6.75px; font-family:Arial;" text-anchor="middle"><textPath startOffset="22.206326154141568" xlink:href="#id77">May</textPath></text><path d="M 118.48025628344425 109.97397251340804 l 0.15974010178698045 0.0862132732401375 a21.18152032558833,21.18152032558833 0 0,0 -0.17593127754594984,0.3193663714398757 l -0.15823241478952105 -0.0889501630778182" fill="#ff0200" stroke="none" /><path d="M 118.30583269289576 110.29060199501025 l 0.2360703295241425 0.1327066539238418 a21.27081406255455,21.27081406255455 0 0,0 -0.18216730711258713,0.3176240548788083 l -0.23375102625917582 -0.1367505546609652" fill="#ff0400" stroke="none" /><path d="M 118.12598468904814 110.60418214915192 l 0.0257028761313806 0.015036864751349535 a21.02977826628559,21.02977826628559 0 0,0 -0.18548176736866048,0.31087811100120066 l -0.02544023306449289 -0.015477069638654316" fill="#ff0000" stroke="none" /><path d="M 117.94076556474637 110.91462005526583 l 0.027283355466308872 0.016598369655566655 a21.031935675360383,21.031935675360383 0 0,0 -0.19082511630404841,0.30767084752191876 l -0.026993599494297554 -0.017065548542758914" fill="#ff0000" stroke="none" /><path d="M 111.45004920935366 117.60387380957326 l 0.01147362044989326 0.017640113404391342 a21.02104323091039,21.02104323091039 0 0,0 -0.3050235434484088,0.19468045711823875 l -0.011168274954554004 -0.017834999346438948" fill="#ff0000" stroke="none" /><path d="M 111.1453310114006 117.79835938074945 l 0.06231207982544167 0.09950828641703906 a21.11740823803221,21.11740823803221 0 0,0 -0.3097429038492731,0.19026938996805295 l -0.06058997604385983 -0.10056614321347014" fill="#ff0100" stroke="none" /><line stroke="#e1ed5e" stroke-width="0.3" x1="143.8653032363475" x2="146.44561519142675" y1="172.8068346515853" y2="177.08958963109032" /><path d="M 144.38136562736335 173.6633856474863 a86.0,86.0 0 0,1 -40.68145358897372,12.25698825130547" fill="none" id="id78" stroke="none" /><text fill="#e1ed5e" style="font-size:6.75px; font-family:Arial;" text-anchor="middle"><textPath startOffset="21.466115282336833" xlink:href="#id78">June</textPath></text><path d="M 110.8373102113329 117.98757091392108 l 0.03151602469837685 0.05230972613426903 a21.061070183076776,21.061070183076776 0 0,0 -0.31213722435712604,0.18441617401360474 l -0.030610929312868688 -0.0528444724416233" fill="#ff0100" stroke="none" /><path d="M 110.5260780823613 118.17145234162733 l 0.00869954077953516 0.015018251758389401 a21.017355975790867,21.017355975790867 0 0,0 -0.3146110365259983,0.1786443573831437 l -0.008439737332337787 -0.015165774936161537" fill="#ff0000" stroke="none" /><path d="M 110.21172684928248 118.3499491758327 l 0.029964312321414555 0.053844331747413356 a21.061620386839266,21.061620386839266 0 0,0 -0.31830846932690426,0.17356715700140637 l -0.029033031125861586 -0.05435214050859022" fill="#ff0100" stroke="none" /><path d="M 109.89434966115114 118.52300852407294 l 0.3005276502402638 0.5626116336859243 a21.63784694003944,21.63784694003944 0 0,0 -0.3300380583158982,0.17266031354893768 l -0.29079868939786996 -0.5677013661795787" fill="#ff0901" stroke="none" /><path d="M 107.2578585660854 119.70592522655815 l 0.014478775616311066 0.039311549966042955 a21.04189311284782,21.04189311284782 0 0,0 -0.34095926826771494,0.12225586285109001 l -0.013799946718861339 -0.039554953857093095" fill="#ff0000" stroke="none" /><path d="M 106.57524785965236 119.94407469862006 l 0.00869220250365479 0.026365232114244425 a21.02776112117337,21.02776112117337 0 0,0 -0.3447337768831708,0.11037286902412559 l -0.008237080529543589 -0.02651094779807659" fill="#ff0000" stroke="none" /><path d="M 106.2309692047433 120.05430185196036 l 0.024975893831741862 0.08038462355791731 a21.084175310972057,21.084175310972057 0 0,0 -0.34751241516269243,0.10470264000070927 l -0.0235885042288036 -0.08080263266435217" fill="#ff0100" stroke="none" /><path d="M 105.18746579009965 120.34920634021253 l 0.015613103454878138 0.061246527046166184 a21.06320526935873,21.06320526935873 0 0,0 -0.3521032867898985,0.08653842126255071 l -0.014556531921768501 -0.06150620662274685" fill="#ff0100" stroke="none" /><path d="M 104.83641907484287 120.43548508189849 l 0.0062979375869554426 0.026610888678859423 a21.027345994480505,21.027345994480505 0 0,0 -0.35293884641900425,0.08032773237473428 l -0.0058389417750891485 -0.026715354631278124" fill="#ff0000" stroke="none" /><path d="M 103.06178313531738 120.77559828337769 l 0.003935117230370005 0.0267015693675805 a21.02698997877562,21.02698997877562 0 0,0 -0.3585316154666945,0.04968921495616341 l -0.003474910576845047 -0.02676534981634648" fill="#ff0000" stroke="none" /><path d="M 101.26447882468166 120.96189622390904 l 0.004525055715428218 0.07501410578235071 a21.075150463708173,21.075150463708173 0 0,0 -0.36230384654189707,0.018726970484212613 l -0.0032331407600515397 -0.07508088302876521" fill="#ff0100" stroke="none" /><line stroke="#e1ed5e" stroke-width="0.3" x1="102.19456741930631" x2="102.32365962044197" y1="184.97166512339345" y2="189.96999836594603" /><path d="M 102.22038585953345 185.97133177190398 a86.0,86.0 0 0,1 -42.740103519485714,-10.115201625700543" fill="none" id="id79" stroke="none" /><text fill="#e1ed5e" style="font-size:6.75px; font-family:Arial;" text-anchor="middle"><textPath startOffset="22.20632615414155" xlink:href="#id79">July</textPath></text><path d="M 100.54218724476979 120.99299961872073 l 0.007843073106416147 0.3036766953130759 a21.303777960148565,21.303777960148565 0 0,0 -0.3666687672558973,0.006312535352226768 l -0.0026146159578509004 -0.3037667079444623" fill="#ff0400" stroke="none" /><path d="M 99.81925306533755 120.99922214144158 l -0.1520432265072064 17.664418456052946 a38.66507278596017,38.66507278596017 0 0,0 -0.6654817094323814,-0.011456871138742032 l 0.45608462583225573 -17.659184107635042" fill="#ffea16" stroke="none" /><path d="M 99.09653310690486 120.98055641714683 l -0.002087269975523558 0.04847115684478909 a21.04851607714792,21.04851607714792 0 0,0 -0.3618459736209954,-0.01870330368421335 l 0.0029213120100078705 -0.04842804639837384" fill="#ff0000" stroke="none" /><path d="M 98.37488393609728 120.93702456842531 l -0.14068044097550872 1.8124427629665294 a22.817894319123862,22.817894319123862 0 0,0 -0.3913330617240693,-0.033765863209200594 l 0.1718578204411197 -1.8097526474786654" fill="#ff1a02" stroke="none" /><path d="M 98.01472825383883 120.90594882070398 l -0.23074985101456497 2.4299165013674244 a23.4408481512296,23.4408481512296 0 0,0 -0.4013602334809621,-0.041602629263282884 l 0.27254268110112045 -2.425584503648381" fill="#ff2303" stroke="none" /><path d="M 95.86986931433489 120.58985236759428 l -0.009894105246852108 0.0493248717405461 a21.05030741785122,21.05030741785122 0 0,0 -0.35465611923676565,-0.07432163804292352 l 0.010741685913004529 -0.0491472529710814" fill="#ff0000" stroke="none" /><path d="M 95.51606077576429 120.51570834832081 l -0.004196929200133234 0.019202529544356396 a21.01965582243542,21.01965582243542 0 0,0 -0.3528097687669277,-0.08029835472136022 l 0.004526847359923602 -0.01912744124530942" fill="#ff0000" stroke="none" /><path d="M 94.11515582081647 120.15858648285463 l -0.017142103099426022 0.05872042781525831 a21.06117140133656,21.06117140133656 0 0,0 -0.34713326140980855,-0.10458840408521101 l 0.018150338949480416 -0.05841665462432171" fill="#ff0100" stroke="none" /><path d="M 93.76903079525671 120.05430185196036 l -0.4745598448746478 1.5273653364697954 a22.599391108333712,22.599391108333712 0 0,0 -0.37049942726385204,-0.11862221662359829 l 0.5007806172294402 -1.5189702731864905" fill="#ff1702" stroke="none" /><path d="M 93.42475214034765 119.94407469862007 l -12.798905868031396 38.82170530163424 a61.87709375610826,61.87709375610826 0 0,0 -1.0086858109808028,-0.3422009927742483 l 13.465261411949426 -38.59564132196187" fill="#32ff49" stroke="none" /><path d="M 93.08242187328487 119.8279376855182 l -2.352085510915671 6.741811091563651 a28.1403307377873,28.1403307377873 0 0,0 -0.45598114797519385,-0.16349861663172793 l 2.4677862195205913 -6.700324933891966" fill="#ff6309" stroke="none" /><path d="M 92.7421414339146 119.70592522655815 l -1.202108505691249 3.2638635916734358 a24.4781993048856,24.4781993048856 0 0,0 -0.39413372034032207,-0.14902764835086754 l 1.2581124467918539 -3.242687693215935" fill="#ff3104" stroke="none" /><path d="M 92.40401165467489 119.57807347666478 l -2.301997386437724 5.933220527188562 a27.36414155966206,27.36414155966206 0 0,0 -0.43766849629036014,-0.17415732712228255 l 2.4037869587699423 -5.8927163556602125" fill="#ff5908" stroke="none" /><path d="M 92.06813273071674 119.44442032107085 l -1.3780621272641733 3.3782233516238516 a24.648485746176974,24.648485746176974 0 0,0 -0.39147492745333384,-0.16363655142505082 l 1.4360085142149694 -3.3540017571788274" fill="#ff3304" stroke="none" /><path d="M 91.7346041902142 119.30500536409082 l -0.14064736344665862 0.3285018852416388 a21.357344608818725,21.357344608818725 0 0,0 -0.33671310686618033,-0.1476051309640585 l 0.14628114497058223 -0.32603220098312813" fill="#ff0500" stroke="none" /><path d="M 91.40352486487194 119.15986991738527 l -25.269808809478914 56.321485494484634 a82.73064851087392,82.73064851087392 0 0,0 -1.2942697984161222,-0.5941357845279449 l 26.235546603662456 -55.87816263962261" fill="#4bddff" stroke="none" /><path d="M 90.42595943632237 118.69057910512821 l -0.032650307195072746 0.06374039731473943 a21.071616204938362,21.071616204938362 0 0,0 -0.3214014461386608,-0.16814204624930681 l 0.033742655860229134 -0.06316893212071582" fill="#ff0100" stroke="none" /><line stroke="#e1ed5e" stroke-width="0.3" x1="58.666819895761336" x2="56.23545636021788" y1="174.27360380694188" y2="178.64263932499728" /><path d="M 58.180547188652646 175.14741091055294 a86.0,86.0 0 0,1 -31.652253787137756,-30.449443065178592" fill="none" id="id80" stroke="none" /><text fill="#e1ed5e" style="font-size:6.75px; font-family:Arial;" text-anchor="middle"><textPath startOffset="22.20632615414155" xlink:href="#id80">August</textPath></text><path d="M 88.54995079064634 117.60387380957326 l -0.025146801955863045 0.03866194111931955 a21.04612057393096,21.04612057393096 0 0,0 -0.30198707725213497,-0.20014056795070143 l 0.02580857794795982 -0.0382233520772997" fill="#ff0000" stroke="none" /><path d="M 87.65650970185807 116.9893568818739 l -0.01010165344326784 0.013903733166179235 a21.017185959334416,21.017185959334416 0 0,0 -0.2908528628233574,-0.2151659946068172 l 0.010339486685189582 -0.013727789819595314" fill="#ff0000" stroke="none" /><path d="M 87.07902340077011 116.55440617244103 l -0.06485968955624453 0.08309849003182154 a21.105414127966327,21.105414127966327 0 0,0 -0.2844633015246706,-0.22599485086936222 l 0.06628048379827323 -0.08196972515732867" fill="#ff0100" stroke="none" /><path d="M 86.79598089348748 116.32954008644616 l -0.05799145685458086 0.07171860414161489 a21.09223105359985,21.09223105359985 0 0,0 -0.28035579727128807,-0.2307137346287636 l 0.05921738267055772 -0.07070975065567058" fill="#ff0100" stroke="none" /><path d="M 86.51685102203217 116.09983520530335 l -0.04517285884097561 0.053939594102278596 a21.0703567124572,21.0703567124572 0 0,0 -0.2760563120206347,-0.2352611780177776 l 0.046094647438666904 -0.05315402586154952" fill="#ff0100" stroke="none" /><path d="M 86.24171649860922 115.8653595955263 l -0.1099582837138817 0.12679835471127537 a21.167835177822734,21.167835177822734 0 0,0 -0.27322398082675203,-0.2410883958720793 l 0.11212461744722145 -0.12488681706690723" fill="#ff0200" stroke="none" /><path d="M 85.97065885151581 115.62618273729859 l -15.401649950398918 17.154689876996997 a44.05415810587249,44.05415810587249 0 0,0 -0.5599083164912279,-0.5114629718166829 l 15.694657816357001 -16.887034138593737" fill="#d4ff1c" stroke="none" /><path d="M 85.70375840098266 115.38237550388516 l -0.5358551710734863 0.5765659037069966 a21.787127058157488,21.787127058157488 0 0,0 -0.2725094071310567,-0.2576746536219926 l 0.5457004125953601 -0.5672566133390732" fill="#ff0b01" stroke="none" /><path d="M 84.9287848128048 114.62390073753433 l -45.21364556158558 43.871702212602976 a84.0,84.0 0 0,0 -0.99797379448417,-1.0463715336699995 l 45.9621259074487 -43.08692356235048" fill="#4dd2ff" stroke="none" /><path d="M 84.67929136418377 114.36230785411682 l -0.6745109170588577 0.6323162767494178 a21.924547917132383,21.924547917132383 0 0,0 -0.25573794120815885,-0.2775530263246404 l 0.6852952662627455 -0.6206119956234334" fill="#ff0d01" stroke="none" /><path d="M 84.43433777217949 114.09645910891817 l -0.22394955180445822 0.20281152534774763 a21.302135593016278,21.302135593016278 0 0,0 -0.2437990368272671,-0.2739108023712814 l 0.22740743828006363 -0.19892655323560207" fill="#ff0400" stroke="none" /><path d="M 83.95833913139862 113.55231037782056 l -0.26091533721012156 0.22042640479492775 a21.341562019437596,21.341562019437596 0 0,0 -0.23465962089563422,-0.28266263006262254 l 0.26467095799929213 -0.21590251761854404" fill="#ff0500" stroke="none" /><path d="M 83.50135304334701 112.99209946851258 l -0.12134496198537593 0.09555485490773272 a21.154451707972655,21.154451707972655 0 0,0 -0.22282002396634,-0.2880249174179938 l 0.12297180316978436 -0.09345194337648625" fill="#ff0200" stroke="none" /><path d="M 83.28015986056508 112.70617746262583 l -0.1754979566915445 0.1333689893835523 a21.220424182276123,21.220424182276123 0 0,0 -0.2185084593032559,-0.2927277893787913 l 0.17776768268988546 -0.130328320495453" fill="#ff0300" stroke="none" /><path d="M 83.06392112726016 112.41649034213515 l -0.028090680978804742 0.020594357861590622 a21.034831220673187,21.034831220673187 0 0,0 -0.21157054370355452,-0.2938529807215584 l 0.02844101705796672 -0.02010777168889402" fill="#ff0000" stroke="none" /><path d="M 82.85270091963577 112.12312394758628 l -0.03648783714539216 0.025796865746598736 a21.044686021772996,21.044686021772996 0 0,0 -0.2065777374088575,-0.2975906380331585 l 0.036926481716383526 -0.02516496552642766" fill="#ff0000" stroke="none" /><path d="M 82.6465618267979 111.8261652097733 l -0.036474743655634335 0.02485711131997926 a21.04413935781044,21.04413935781044 0 0,0 -0.20141936477255834,-0.3010946213966886 l 0.03689721383892306 -0.02422557571746982" fill="#ff0000" stroke="none" /><path d="M 82.44556493220864 111.52570212397912 l -0.03663832523346349 0.02405559742205352 a21.043829654838305,21.043829654838305 0 0,0 -0.1962037858256783,-0.30451263271608786 l 0.03704697443618744 -0.02342136478451736" fill="#ff0000" stroke="none" /><path d="M 82.24976979558568 111.22182372390057 l -0.25237007796811284 0.15955018585848527 a21.29857481149807,21.29857481149807 0 0,0 -0.19324436315560872,-0.31157144375159923 l 0.25507908079167746 -0.15518241074162184" fill="#ff0400" stroke="none" /><path d="M 82.05923443525364 110.91462005526583 l -0.09894996540349485 0.060198171196386915 a21.115822776122585,21.115822776122585 0 0,0 -0.1862406763573693,-0.3121500861186409 l 0.09997151745909602 -0.05848599119163487" fill="#ff0100" stroke="none" /><line stroke="#e1ed5e" stroke-width="0.3" x1="26.63291911575756" x2="22.317208475507996" y1="142.92168965132927" y2="145.44649492493687" /><path d="M 25.769776987707644 143.4266507060508 a86.0,86.0 0 0,1 -11.730757126820373,-40.83630448921669" fill="none" id="id81" stroke="none" /><text fill="#e1ed5e" style="font-size:6.75px; font-family:Arial;" text-anchor="middle"><textPath startOffset="21.46611528233685" xlink:href="#id81">September</textPath></text><path d="M 81.87401531095188 110.60418214915194 l -0.06562586695990738 0.03839287403565687 a21.07603135662973,21.07603135662973 0 0,0 -0.18049915088189344,-0.3147154838812908 l 0.06627701399417804 -0.03725754429605911" fill="#ff0100" stroke="none" /><path d="M 81.69416730710424 110.29060199501025 l -3.7961984963032047 2.134028452836965 a25.354905333167697,25.354905333167697 0 0,0 -0.2105949345822858,-0.38229097770062725 l 3.832369840337007 -2.0683669567385152" fill="#ff3d05" stroke="none" /><path d="M 81.51974371655577 109.97397251340807 l -3.1028199429465064 1.6746218423782082 a24.525882855869824,24.525882855869824 0 0,0 -0.19731363771759403,-0.3732430429758378 l 3.1311860888889864 -1.6209637843162443" fill="#ff3204" stroke="none" /><path d="M 81.35079622478065 109.6543875284942 l -0.39626644066438066 0.20514064990777248 a21.446217187299414,21.446217187299414 0 0,0 -0.1668937781333857,-0.32929725747400884 l 0.39973888858403306 -0.19828918073107865" fill="#ff0601" stroke="none" /><path d="M 81.18737489456691 109.33194174019688 l -46.28234420388212 22.95820691104044 a72.66366856483157,72.66366856483157 0 0,0 -0.5461773069231467,-1.1252870246362567 l 46.67067476741998 -22.158130930438897" fill="#3fffbf" stroke="none" /><path d="M 80.73074385275274 108.34839909993369 l -0.07352322142639642 0.03185391230932589 a21.08012699806136,21.08012699806136 0 0,0 -0.14138643828659572,-0.33419577523081856 l 0.07406064090529872 -0.030583611412348513" fill="#ff0100" stroke="none" /><path d="M 80.45479744820244 107.68017299344265 l -0.03365576552680813 0.013224836160567572 a21.036160846846684,21.036160846846684 0 0,0 -0.12952837775658707,-0.3381577212477372 l 0.033878422876904284 -0.012643548079672521" fill="#ff0000" stroke="none" /><path d="M 80.32549172779594 107.34259656027581 l -0.03313042489419545 0.01236439256844226 a21.035362455475497,21.035362455475497 0 0,0 -0.12368366305775211,-0.34032432071536256 l 0.033338348957171964 -0.01179227484696259" fill="#ff0000" stroke="none" /><path d="M 79.67330655649465 105.27499134158121 l -0.10774768512481209 0.027961660743715488 a21.111316746814225,21.111316746814225 0 0,0 -0.08825403574778769,-0.3525310027033985 l 0.1082130351676583 -0.026102818642925116" fill="#ff0100" stroke="none" /><path d="M 79.58551787078972 104.9243191809786 l -0.07239670628273032 0.01746331291341526 a21.07447315206502,21.07447315206502 0 0,0 -0.082029309941024,-0.3533801203194324 l 0.07268658215430948 -0.016214535245408602" fill="#ff0100" stroke="none" /><path d="M 79.50377843672027 104.57218783832718 l -0.03155842623275089 0.007039885481948314 a21.03233410357327,21.03233410357327 0 0,0 -0.07578246561026662,-0.35403045004929895 l 0.031674930567458265 -0.006495616016485588" fill="#ff0000" stroke="none" /><path d="M 79.35854240842038 103.8639653848113 l -0.029674401743307172 0.005554881996216056 a21.030189846518574,21.030189846518574 0 0,0 -0.06354477924018449,-0.35639286832841505 l 0.029765623322680384 -0.005043262934587352" fill="#ff0000" stroke="none" /><path d="M 79.29508885075956 103.50808413554451 l -0.13579656304165316 0.023008346427285668 a21.13773195177316,21.13773195177316 0 0,0 -0.05769417677413937,-0.35926169384596407 l 0.1361724941770833 -0.020667422888107908" fill="#ff0200" stroke="none" /><path d="M 79.23777060512086 103.15116336523772 l -0.08782454829441502 0.013329469292067936 a21.08883032159531,21.08883032159531 0 0,0 -0.05138238173115931,-0.3593682581533289 l 0.08804098104217335 -0.011815739158338463" fill="#ff0100" stroke="none" /><path d="M 79.18660465613746 102.79330883721812 l -0.14447430569274447 0.01938950124067566 a21.14576960507514,21.14576960507514 0 0,0 -0.045310843716297795,-0.3611720061556861 l 0.1447866586558904 -0.01689974079758093" fill="#ff0200" stroke="none" /><path d="M 79.1416061653843 102.43462659150553 l -0.2090136968793659 0.024396428049358324 a21.210432676133596,21.210432676133596 0 0,0 -0.039206675269256724,-0.36300511991512474 l 0.20940267364967452 -0.02079498624945152" fill="#ff0300" stroke="none" /><path d="M 79.10278846688536 102.07522291339032 l -0.03904061920247263 0.0038769759971818444 a21.039232650822946,21.039232650822946 0 0,0 -0.03268635520255415,-0.3606912059501403 l 0.03910157068210211 -0.003204381498475371" fill="#ff0000" stroke="none" /><path d="M 79.07016306316243 101.71520430193888 l -0.11896510788886826 0.009749214265137083 a21.119363914454066,21.119363914454066 0 0,0 -0.026573632068577623,-0.3625760967267438 l 0.11911529862178122 -0.007699981041632634" fill="#ff0100" stroke="none" /><path d="M 79.04373962182676 101.35467743843564 l -0.13241785814243284 0.008559899602047318 a21.132694238896143,21.132694238896143 0 0,0 -0.020341374578387066,-0.36320890765965574 l 0.13254558360835156 -0.006279275606953974" fill="#ff0200" stroke="none" /><path d="M 79.0235259727143 100.99374915477108 l -0.7921498485895877 0.03752767226102784 a21.793038277011796,21.793038277011796 0 0,0 -0.01452647878906217,-0.37486387058816883 l 0.7926784602298507 -0.02388655465886225" fill="#ff0b01" stroke="none" /><path d="M 79.0095281055655 100.63252640178507 l -0.6436930453005342 0.019397031560113645 a21.643985233838183,21.643985233838183 0 0,0 -0.00801645525692465,-0.3724931757331995 l 0.6439315632424663 -0.008314040036785321" fill="#ff0901" stroke="none" /><line stroke="#e1ed5e" stroke-width="0.3" x1="15.007084014347285" x2="10.007500721073583" y1="101.09737516637583" y2="101.16192664675087" /><path d="M 14.007167355692545 101.11028546245083 a86.0,86.0 0 0,1 10.666146001902534,-42.60595125391555" fill="none" id="id82" stroke="none" /><text fill="#e1ed5e" style="font-size:6.75px; font-family:Arial;" text-anchor="middle"><textPath startOffset="22.20632615414155" xlink:href="#id82">October</textPath></text><path d="M 79.00175016825051 100.2711162175752 l -1.2188470351611271 0.01573698763579789 a22.218948623979255,22.218948623979255 0 0,0 -0.0016460037427960866,-0.38247330151657094 l 1.2189373361934264 0.0052457920844484335" fill="#ff1101" stroke="none" /><path d="M 79.00019446554 99.90962569577889 l -2.564947740430481 -0.011038453047793908 a23.56497149274317,23.56497149274317 0 0,0 0.005237026391803253,-0.40561346545072624 l 2.5643777069209626 0.05518817655899213" fill="#ff2403" stroke="none" /><path d="M 79.00486145842228 99.54816195383935 l -1.2588247567700768 -0.027091267696626623 a22.25911623968665,22.25911623968665 0 0,0 0.0115411456554772,-0.38299443758742335 l 1.2581719166589547 0.048755852709044395" fill="#ff1202" stroke="none" /><path d="M 79.01574976396665 99.18683210126434 l -0.07763435089858885 -0.00300843543513925 a21.077692619489966,21.077692619489966 0 0,0 0.01716967940394696,-0.3624247953767619 l 0.07757106326114308 0.0043443374349102695" fill="#ff0100" stroke="none" /><path d="M 79.03285615573316 98.82574320788736 l -0.148859454627222 -0.008336816257117238 a21.149092721945838,21.149092721945838 0 0,0 0.023484968717554455,-0.36330207136736 l 0.14869389490525436 0.010897951877489001" fill="#ff0200" stroke="none" /><path d="M 79.05617556472873 98.46500227214037 l -0.10963091736217341 -0.008034979932829244 a21.10992496961197,21.10992496961197 0 0,0 0.029680068155213374,-0.36217200834948593 l 0.10947636538746296 0.00992090549009357" fill="#ff0100" stroke="none" /><path d="M 79.08570108090925 98.10471618934814 l -0.03331946061929032 -0.0030194573834721864 a21.033455994662408,21.033455994662408 0 0,0 0.03577978595074757,-0.36029756167293586 l 0.033262548986314075 0.0035925497608383754" fill="#ff0000" stroke="none" /><path d="M 79.12142395522702 97.74499172005258 l -0.08002528072404053 -0.0086431981879821 a21.080490685360967,21.080490685360967 0 0,0 0.04207028205402905,-0.36043248475063244 l 0.07986464566642257 0.010019421263476323" fill="#ff0100" stroke="none" /><path d="M 79.16333360222342 97.38593545837743 l -0.04311910108428299 -0.005409507982672831 a21.043457101317635,21.043457101317635 0 0,0 0.048183505289818566,-0.35902308090244284 l 0.04301959673663056 0.006150930949775041" fill="#ff0000" stroke="none" /><path d="M 79.21141760316559 97.0276538004421 l -0.02682911326968714 -0.003836019760385697 a21.027101962409386,21.027101962409386 0 0,0 0.054314112357694865,-0.35786213834224273 l 0.026759107472690054 0.0042972704947204935" fill="#ff0000" stroke="none" /><path d="M 79.26566170972629 96.67025291283419 l -0.027088701899705053 -0.004350200376925323 a21.02743577981269,21.02743577981269 0 0,0 0.06046703351171171,-0.3568798546286426 l 0.027009806867770315 0.004815843321395843" fill="#ff0000" stroke="none" /><path d="M 79.32604984820605 96.31383870115002 l -0.03206929449772158 -0.005717948983671431 a21.032575060861976,21.032575060861976 0 0,0 0.06661745259451107,-0.35587309554943924 l 0.031966117993348885 0.006269121995683391" fill="#ff0000" stroke="none" /><path d="M 79.3925641242962 95.95851677861259 l -0.049074664786840555 -0.009624411087701807 a21.050009519221103,21.050009519221103 0 0,0 0.07279364344199539,-0.3549676575594431 l 0.04890172542985059 0.010467724810547367" fill="#ff0000" stroke="none" /><path d="M 79.46518482838121 95.60439243477599 l -0.05957983152300286 -0.012753441216224884 a21.06092952147494,21.06092952147494 0 0,0 0.07893396991878897,-0.35384550974981377 l 0.05935147460217631 0.013777120515997894" fill="#ff0100" stroke="none" /><path d="M 79.54389044137918 95.25157060432595 l -0.06486035513480982 -0.015055884211677726 a21.06658487303892,21.06658487303892 0 0,0 0.08503597179787563,-0.3525290020422204 l 0.06459158307611942 0.016170117913294896" fill="#ff0100" stroke="none" /><path d="M 79.62865764111835 94.90015583598534 l -0.11741180497761983 -0.029393345703626624 a21.12103512184385,21.12103512184385 0 0,0 0.0913270220837853,-0.35192027072576915 l 0.11688845102352717 0.03141004197825956" fill="#ff0200" stroke="none" /><path d="M 79.81627453868168 94.20196356495316 l -0.129754729021944 -0.037273725701960816 a21.135002297503647,21.135002297503647 0 0,0 0.10345493336732857,-0.34879860511234007 l 0.12909389854290845 0.0395017175608401" fill="#ff0200" stroke="none" /><path d="M 79.91906864156998 93.8553929516997 l -0.01881047500909039 -0.005755857398228273 a21.019671397115008,21.019671397115008 0 0,0 0.1088463808300283,-0.3450727721869931 l 0.01870861041085824 0.006078796011635843" fill="#ff0000" stroke="none" /><path d="M 80.02781315780177 93.51064311812611 l -0.022932945510150488 -0.0074513656888838846 a21.024113125894438,21.024113125894438 0 0,0 0.1147943670030218,-0.34322054603621277 l 0.022801284735356288 0.007845014647418814" fill="#ff0000" stroke="none" /><path d="M 80.14247586403 93.16781622104843 l -0.2247699219038525 -0.07733438488668357 a21.237701756153516,21.237701756153516 0 0,0 0.12191140558973351,-0.34465996036861185 l 0.22340543550430947 0.08119197168190648" fill="#ff0300" stroke="none" /><path d="M 80.38941819471856 92.48833698450439 l -0.11309182360125056 -0.04331884067160529 a21.12110442817085,21.12110442817085 0 0,0 0.1329688685250744,-0.33839126678850384 l 0.11232940519448505 0.04525911235587251" fill="#ff0200" stroke="none" /><path d="M 80.52162464483688 92.15188598940014 l -0.019870833192084346 -0.00800624084573627 a21.02142311611852,21.02142311611852 0 0,0 0.13811907146730856,-0.33446628706456155 l 0.019730074838576042 0.00834709836360908" fill="#ff0000" stroke="none" /><path d="M 80.65960295795068 91.81776055985345 l -0.2980424971352392 -0.12609126222164233 a21.323617577562246,21.323617577562246 0 0,0 0.1459239021741717,-0.3368124852850297 l 0.29582788511838676 0.13120289209327135" fill="#ff0400" stroke="none" /><path d="M 81.10775173730289 90.83032412892265 l -0.020651921736077463 -0.010023763492913784 a21.022955994989434,21.022955994989434 0 0,0 0.16081558946267027,-0.32419441525645726 l 0.020476319319994402 0.010377767248332557" fill="#ff0000" stroke="none" /><path d="M 81.26839172434947 90.50648371742162 l -0.0391600253626869 -0.01984700581690653 a21.043902291811506,21.043902291811506 0 0,0 0.16653800239996808,-0.3216984126552255 l 0.0388125898026048 0.020518140732467483" fill="#ff0000" stroke="none" /><path d="M 81.43458229118936 90.18545643968196 l -0.0554583385319799 -0.02931785795730695 a21.06273088639524,21.06273088639524 0 0,0 0.17220477626357147,-0.3190692970434671 l 0.05494546304993662 0.030268138333246767" fill="#ff0100" stroke="none" /><path d="M 81.6062741919709 89.86733742301443 l -0.07551508235578852 -0.04159944847337428 a21.08621509019012,21.08621509019012 0 0,0 0.17786961320435332,-0.31641019466575665 l 0.07478782785900454 0.04289315307391554" fill="#ff0100" stroke="none" /><line stroke="#e1ed5e" stroke-width="0.3" x1="26.266209847984243" x2="21.928928074336255" y1="57.711370442889674" y2="55.22380399835377" /><path d="M 25.398753493254645 57.213857153982495 a86.0,86.0 0 0,1 29.58750427330803,-30.492523968695096" fill="none" id="id83" stroke="none" /><text fill="#e1ed5e" style="font-size:6.75px; font-family:Arial;" text-anchor="middle"><textPath startOffset="21.46611528233685" xlink:href="#id83">November</textPath></text><path d="M 81.78341655067845 89.55222093294921 l -0.027573866309174057 -0.015814472786518874 a21.03178703592271,21.03178703592271 0 0,0 0.18281663104800622,-0.31249288334268593 l 0.02729756079084286 0.016286768483096608" fill="#ff0000" stroke="none" /><path d="M 81.96595687620814 89.24020034530311 l -0.043221951085364835 -0.025787868597812826 a21.050330420447715,21.050330420447715 0 0,0 0.18833450127891344,-0.30957240087970134 l 0.042771651520234454 0.02652804268458863" fill="#ff0000" stroke="none" /><path d="M 82.15384107792192 88.93136811851018 l -0.017248971781077215 -0.010698241555091883 a21.020297275676196,21.020297275676196 0 0,0 0.19335911201746728,-0.3058476799204442 l 0.01706226351764726 0.010993569189751631" fill="#ff0000" stroke="none" /><path d="M 82.7489923806493 88.02491185347247 l -0.027219924131562843 -0.018895185603629405 a21.0331353634162,21.0331353634162 0 0,0 0.20901666268103478,-0.2956392463911823 l 0.026890641646649834 0.019360932326597875" fill="#ff0000" stroke="none" /><path d="M 82.95767976084542 87.72973835380427 l -0.014907850305961892 -0.010733469461288905 a21.01836984941205,21.01836984941205 0 0,0 0.21392435527788325,-0.2917925801860094 l 0.014720882514445248 0.010988493318798979" fill="#ff0000" stroke="none" /><path d="M 83.17141714833178 87.43820079747576 l -0.04125899941073109 -0.030798033943974783 a21.051486152771293,21.051486152771293 0 0,0 0.21926031026905207,-0.28852086690939693 l 0.04072274891757019 0.03150367673439828" fill="#ff0100" stroke="none" /><path d="M 85.05521093208273 85.24692304244772 l -0.017965859117794233 -0.017735392648823695 a21.025245123217136,21.025245123217136 0 0,0 0.25647214729881035,-0.2553707743917293 l 0.01765791165167065 0.01804201769066236" fill="#ff0000" stroke="none" /><path d="M 85.57189188830299 84.74124197986013 l -0.04774635081473361 -0.05049518674150252 a21.069494445103064,21.069494445103064 0 0,0 0.26566838197577924,-0.24690980746026447 l 0.046870085044098245 0.05130958027641448" fill="#ff0100" stroke="none" /><path d="M 85.83668400450813 84.49514656593479 l -0.01619478498424616 -0.017728741465406855 a21.024012066438214,21.024012066438214 0 0,0 0.26929658297721887,-0.24177713112816535 l 0.01588721441105592 0.01800488136285098" fill="#ff0000" stroke="none" /><path d="M 86.10567301691215 84.25364557470407 l -0.050706504067264443 -0.057465365949910294 a21.07663822700507,21.07663822700507 0 0,0 0.2741028858796932,-0.23769932158017892 l 0.049709819540797735 0.058329680949769806" fill="#ff0100" stroke="none" /><path d="M 86.37877921826538 84.01681056812374 l -0.017074753658862026 -0.020035577324917273 a21.02632435319725,21.02632435319725 0 0,0 0.27748987237817746,-0.23238978793520848 l 0.01672734432157421 0.02032652265393814" fill="#ff0000" stroke="none" /><path d="M 86.65592168130627 83.78471172551755 l -0.031834667754880364 -0.03868444881986337 a21.050099228053536,21.050099228053536 0 0,0 0.28176720728028004,-0.22783615269150104 l 0.031164061910099832 0.039226698775498725" fill="#ff0000" stroke="none" /><path d="M 86.93701828274178 83.55741782278169 l -0.013993674528834868 -0.01761405997358372 a21.022496178243692,21.022496178243692 0 0,0 0.28527271524213543,-0.22265987916731556 l 0.013688404127273771 0.01785232836412103" fill="#ff0000" stroke="none" /><path d="M 87.22198572758235 83.33499621200491 l -0.020188664430695218 -0.026329925921145563 a21.03317901702143,21.03317901702143 0 0,0 0.2892100638025364,-0.21782702410265345 l 0.019732446869768872 0.026673539529653352" fill="#ff0000" stroke="none" /><path d="M 87.51073957382395 83.11751280151077 l -0.2199843207388996 -0.29736608510132073 a21.36989145697007,21.36989145697007 0 0,0 0.29760594502867643,-0.21622337565055966 l 0.21483305935644148 0.30110869556854825" fill="#ff0500" stroke="none" /><path d="M 87.80319425747018 82.90503203632743 l -0.00980238645922764 -0.01373896461298211 a21.016877379208065,21.016877379208065 0 0,0 0.2963068064367657,-0.20758185362949425 l 0.00956444043880163 0.013905661006418938" fill="#ff0000" stroke="none" /><path d="M 88.39885842347998 82.49532879139004 l -0.02705992930001082 -0.04083004781905334 a21.048982982541162,21.048982982541162 0 0,0 0.3037398055912083,-0.19756081862888109 l 0.026353097924515363 0.04128979060746942" fill="#ff0000" stroke="none" /><path d="M 88.70189139769569 82.29822771554957 l -0.025642277605430887 -0.04017608389190223 a21.047661767882477,21.047661767882477 0 0,0 0.30707621204886587,-0.19229109581377485 l 0.02494691318432275 0.04061152102860729" fill="#ff0000" stroke="none" /><path d="M 89.00827224532344 82.1063720568725 l -0.00946207151642705 -0.015403473508900782 a21.01807754943352,21.01807754943352 0 0,0 0.30990448116589575,-0.18671398235754755 l 0.009195524132882112 0.015564065325067579" fill="#ff0000" stroke="none" /><line stroke="#e1ed5e" stroke-width="0.3" x1="56.762969772571076" x2="54.21961505331055" y1="26.818313649435495" y2="22.513508569990535" /><path d="M 56.25429882871897 25.957352633546506 a86.0,86.0 0 0,1 42.265352541879196,-11.944610805530505" fill="none" id="id84" stroke="none" /><text fill="#e1ed5e" style="font-size:6.75px; font-family:Arial;" text-anchor="middle"><textPath startOffset="22.20632615414155" xlink:href="#id84">December</textPath></text><path d="M 89.3179101791058 81.91981866633112 l -0.02693572947511645 -0.045590598977381346 a21.052953151346006,21.052953151346006 0 0,0 0.31359202557121746,-0.18165274217552385 l 0.026146971438578866 0.04604749854295239" fill="#ff0100" stroke="none" /><path d="M 89.63071344664047 81.73862282372117 l -0.008421182304784757 -0.014830565781602 a21.01705467656723,21.01705467656723 0 0,0 0.3161324424277761,-0.17592736194172542 l 0.008164650804963062 0.014973325283512013" fill="#ff0000" stroke="none" /><path d="M 89.94658935756843 81.56283822128135 l -0.009176483899322305 -0.016828947332314624 a21.01916823740119,21.01916823740119 0 0,0 0.31914599573096564,-0.17047673819372136 l 0.008885441640051327 0.01698441202778545" fill="#ff0000" stroke="none" /><path d="M 90.26544431104013 81.39251694778311 l -0.008802684976519445 -0.01682622368685542 a21.018989709485822,21.018989709485822 0 0,0 0.3220304524050839,-0.1649565054525142 l 0.008511744982671847 0.016975254451874828" fill="#ff0000" stroke="none" /><path d="M 90.58718382345135 81.22770947309562 l -0.039019517765226906 -0.07781791442326076 a21.087052573608233,21.087052573608233 0 0,0 0.3258740216284579,-0.15990496715774624 l 0.03767422912634303 0.07847804171583667" fill="#ff0100" stroke="none" /><path d="M 90.91171255644093 81.06846463323043 l -0.008682936236505604 -0.018087160586597536 a21.020063368604813,21.020063368604813 0 0,0 0.3275344159081164,-0.15378180002589242 l 0.00837030902878074 0.018233943252497553" fill="#ff0000" stroke="none" /><path d="M 91.23893434514133 80.91482961587045 l -0.03314440819052918 -0.07220202456154205 a21.07944610843261,21.07944610843261 0 0,0 0.33106563139890666,-0.14853949847716658 l 0.03189665832484813 0.07276185355523757" fill="#ff0100" stroke="none" /><path d="M 91.56875222667455 80.76684994638697 l -1.2188944361612541 -2.7805112861671955 a24.035942466353408,24.035942466353408 0 0,0 0.3803587656374721,-0.16284977333200365 l 1.1708519127334738 2.801080587461985" fill="#ff2b04" stroke="none" /><path d="M 91.90106846888425 80.62456947434976 l -0.22406886730131334 -0.5360498177664724 a21.580995924616655,21.580995924616655 0 0,0 0.3439765450626961,-0.14031666946776167 l 0.21480845265023676 0.5398273734178111" fill="#ff0801" stroke="none" /><path d="M 92.23578459929587 80.48803036053334 l -0.1501524135966667 -0.3773426140553881 a21.406119681486945,21.406119681486945 0 0,0 0.3435344145091841,-0.13328601570221346 l 0.14363483408780622 0.379871333648153" fill="#ff0600" stroke="none" /><path d="M 92.57280143429618 80.3572730644239 l -0.005913674150543575 -0.015639905880730262 a21.016720592032488,21.016720592032488 0 0,0 0.3394877656722385,-0.12503620915219585 l 0.0056435827057356525 0.015739382839248486" fill="#ff0000" stroke="none" /><path d="M 92.91201910852362 80.23233633223022 l -0.008242550549902906 -0.02298764197163813 a21.024420715038342,21.024420715038342 0 0,0 0.3417149116279637,-0.11921762291882307 l 0.007845634858653925 0.02312611806267101" fill="#ff0000" stroke="none" /><path d="M 93.94186890950719 79.89281104454417 l -0.005667174554335295 -0.01880958795797557 a21.019644782171817,21.019644782171817 0 0,0 0.3473343980663079,-0.10139643533187417 l 0.005342558764606109 0.018904352208548577" fill="#ff0000" stroke="none" /><path d="M 95.692805502759 79.44645832069477 l -0.006621890741632753 -0.03159906232261761 a21.032285448373266,21.032285448373266 0 0,0 0.3549784975513826,-0.07120534714448518 l 0.00607698372311371 0.03170836554431345" fill="#ff0000" stroke="none" /><path d="M 97.47563105711357 79.15227682838746 l -0.005399472416595778 -0.04459201834627033 a21.04491772926776,21.04491772926776 0 0,0 0.3600016747738875,-0.0404503827824567 l 0.004631094132990298 0.044678354599325516" fill="#ff0000" stroke="none" /><path d="M 97.83486435360386 79.11191278185805 l -0.005622770972596695 -0.05424552991805831 a21.054536162951763,21.054536162951763 0 0,0 0.3608094536102995,-0.034263205183538877 l 0.004688190272060894 0.05433427961677773" fill="#ff0100" stroke="none" /><path d="M 98.19473922651362 79.07773832637324 l -0.0017317617349003624 -0.020070436751354243 a21.020145010054517,21.020145010054517 0 0,0 0.3607555467928583,-0.028001573591275232 l 0.001386025579707876 0.020097272531091667" fill="#ff0000" stroke="none" /><path d="M 98.55514903715128 79.0497635885617 l -0.0021749661870709563 -0.03153685534193891 a21.03161176557507,21.03161176557507 0 0,0 0.36138112852812326,-0.021799496561869084 l 0.001631788819324719 0.03156962128411441" fill="#ff0000" stroke="none" /><path d="M 98.91598698831166 79.02799685794201 l -0.003890916857945893 -0.07527614492674413 a21.075376635829862,21.075376635829862 0 0,0 0.36245549918465714,-0.015608096240289106 l 0.002594585283964655 0.07533196769122566" fill="#ff0100" stroke="none" /><path d="M 99.27714615592234 79.0124445844662 l -0.000730377063116309 -0.02120598681459245 a21.021218560918097,21.021218560918097 0 0,0 0.3617384992220398,-0.00934263820237791 l 0.0003652426461974916 0.02121541715933" fill="#ff0000" stroke="none" /><path d="M 99.63851952072746 79.00311137660856 l -0.0031169834084917186 -0.18105252488534912 a21.181079353745613,21.181079353745613 0 0,0 0.3645974626810274,-0.0031382054688225383 l 4.43516501912472e-17 0.1810793537456128" fill="#ff0200" stroke="none" /></svg>