<?xml version="1.0" encoding="utf-8" ?>
<svg baseProfile="full" height="200mm" version="1.1" viewBox="0,0,200,200" width="200mm" xmlns="http://www.w3.org/2000/svg" xmlns:ev="http://www.w3.org/2001/xml-events" xmlns:xlink="http://www.w3.org/1999/xlink"><defs /><rect fill="#1a1a1a" height="200" width="200" x="0" y="0" /><text alignment-baseline="middle" fill="#e1ed5e" style="dominant-baseline: central; font-size:9.0px; font-family:Arial;" text-anchor="middle" x="100.0" y="100.0">2026</text><line stroke="#e1ed5e" stroke-width="0.3" x1="100.0" x2="100.0" y1="15.0" y2="10.0" /><path d="M 100.0 14.0 a86.0,86.0 0 0,1 42.46469731375804,11.215312516191453" fill="none" id="id109" stroke="none" /><text fill="#e1ed5e" style="font-size:6.75px; font-family:Arial;" text-anchor="middle"><textPath startOffset="22.20632615414155" xlink:href="#id109">January</textPath></text><path d="M 102.16513564639614 79.11191278185805 l 0.03889459260142681 -0.37523452349278774 a21.377244929660414,21.377244929660414 0 0,0 0.3656865793315201,0.04108914804815122 l -0.04534787544267215 0.3745094219740357" fill="#ff0000" stroke="none" /><path d="M 103.2404852339499 79.25152402106235 l 9.421267663900956 -60.323356442923675 a82.05462813689792,82.05462813689792 0 0,0 1.3936423503603224,0.22996292899789836 l -10.458239220400154 60.15224725098615" fill="#4be4ff" stroke="none" /><path d="M 103.59715602781102 79.31037775812273 l 0.2535599062088281 -1.4583906382117264 a22.480268853843867,22.480268853843867 0 0,0 0.3806711087307323,0.06956521193204898 l -0.2786261360424613 1.453809944928939" fill="#ff1001" stroke="none" /><path d="M 103.95276090670814 79.375362276772 l 11.230454949084091 -58.59804583647072 a80.66451285493355,80.66451285493355 0 0,0 1.3614387104647296,0.2730917975688071 l -12.237460069015947 58.3960500828247" fill="#49f1ff" stroke="none" /><path d="M 105.71112130821622 79.79150937346287 l 1.3007236244148088 -4.602539458212277 a25.78280790033551,25.78280790033551 0 0,0 0.42604221695114897,0.12437340597485909 l -1.379756059089385 4.579467723318715" fill="#ff3f05" stroke="none" /><path d="M 106.0581310904928 79.89281104454417 l 0.5167997335672844 -1.7152798015998927 a22.791442648368008,22.791442648368008 0 0,0 0.37466377996387634,0.11640986020460574 l -0.5462488862418788 1.7061298065127664" fill="#ff1402" stroke="none" /><path d="M 106.40334571778207 80.00007090966166 l 1.20690664047348 -3.769599252012397 a24.958093247965667,24.958093247965667 0 0,0 0.40802581600486426,0.1345196963965684 l -1.271615278720762 3.7482658313565924" fill="#ff3304" stroke="none" /><path d="M 108.43124777332544 80.76684994638697 l 0.4453800385292219 -1.0159897256272747 a22.109323443050076,22.109323443050076 0 0,0 0.3472404866723585,0.15579668455265036 l -0.46280264366836066 1.008172710558093" fill="#ff0b01" stroke="none" /><path d="M 109.08828744355905 81.06846463323043 l 2.5677291810978056 -5.348758619941144 a26.93316542175051,26.93316542175051 0 0,0 0.41621838331995914,0.20423655307851143 l -2.6594188314281966 5.303766906727801" fill="#ff4e07" stroke="none" /><path d="M 110.36928655335952 81.73862282372117 l 10.0202941049165 -17.64676567915261 a41.293216425296976,41.293216425296976 0 0,0 0.6150787154690128,0.35629329258365394 l -10.32256955285084 17.47166822917891" fill="#f7ff18" stroke="none" /><line stroke="#e1ed5e" stroke-width="0.3" x1="143.23703022742887" x2="145.7803849466894" y1="26.81831364943548" y2="22.513508569990506" /><path d="M 143.74570117128098 25.957352633546492 a86.0,86.0 0 0,1 28.547481713284135,27.462654790039103" fill="none" id="id110" stroke="none" /><text fill="#e1ed5e" style="font-size:6.75px; font-family:Arial;" text-anchor="middle"><textPath startOffset="19.985693538727396" xlink:href="#id110">February</textPath></text><path d="M 110.68208982089419 81.91981866633111 l 10.143307608145587 -17.168254897065044 a40.94080403203597,40.94080403203597 0 0,0 0.6036583794222968,0.36369741922222537 l -10.43732805378552 16.991110868384204" fill="#fbff18" stroke="none" /><path d="M 113.34407831869373 83.78471172551755 l 15.735704528307853 -19.121514355258117 a45.76377814955849,45.76377814955849 0 0,0 0.6039564854488174,0.5057961877046926 l -16.062518550715787 18.847817010159606" fill="#c3ff1e" stroke="none" /><path d="M 113.6212207817346 84.01681056812373 l 1.0970312049655926 -1.2872603595969065 a22.691306210612915,22.691306210612915 0 0,0 0.2951017353773134,0.25590931693841734 l -1.1190267389896702 1.268186049238818" fill="#ff1302" stroke="none" /><path d="M 115.9244219780498 86.31012108654704 l 1.5902139675701268 -1.3670723303190628 a23.097061567760736,23.097061567760736 0 0,0 0.25658568206634214,0.3037165162763164 l -1.613510263123586 1.3394968644136398" fill="#ff1902" stroke="none" /><path d="M 116.82858285166822 87.43820079747576 l 50.48574855500462 -37.68539760757273 a84.0,84.0 0 0,0 0.8549495499454944,1.1661502253140252 l -51.126960717463746 36.81078493858721" fill="#4dd2ff" stroke="none" /><line stroke="#e1ed5e" stroke-width="0.3" x1="172.23445277983987" x2="176.4835382374775" y1="55.19839476539836" y2="52.563006222186495" /><path d="M 173.08426987136738 54.67131705675599 a86.0,86.0 0 0,1 12.851231095245387,41.99856678651699" fill="none" id="id111" stroke="none" /><text fill="#e1ed5e" style="font-size:6.75px; font-family:Arial;" text-anchor="middle"><textPath startOffset="22.20632615414155" xlink:href="#id111">March</textPath></text><line stroke="#e1ed5e" stroke-width="0.3" x1="184.98032266829074" x2="189.97916517819016" y1="98.17113171792111" y2="98.06355123074" /><path d="M 185.9800911702706 98.14961562048488 a86.0,86.0 0 0,1 -9.607161424134198,41.387399972396054" fill="none" id="id112" stroke="none" /><text fill="#e1ed5e" style="font-size:6.75px; font-family:Arial;" text-anchor="middle"><textPath startOffset="21.466115282336823" xlink:href="#id112">April</textPath></text><line stroke="#e1ed5e" stroke-width="0.3" x1="174.80103733775053" x2="179.2010983576182" y1="140.37084112569926" y2="142.7455964860345" /><path d="M 175.68104954172406 140.8457921977663 a86.0,86.0 0 0,1 -30.038265399797805,32.042727171017184" fill="none" id="id113" stroke="none" /><text fill="#e1ed5e" style="font-size:6.75px; font-family:Arial;" text-anchor="middle"><textPath startOffset="22.206326154141568" xlink:href="#id113">May</textPath></text><line stroke="#e1ed5e" stroke-width="0.3" x1="143.8653032363475" x2="146.44561519142675" y1="172.8068346515853" y2="177.08958963109032" /><path d="M 144.38136562736335 173.6633856474863 a86.0,86.0 0 0,1 -40.68145358897372,12.25698825130547" fill="none" id="id114" stroke="none" /><text fill="#e1ed5e" style="font-size:6.75px; font-family:Arial;" text-anchor="middle"><textPath startOffset="21.466115282336833" xlink:href="#id114">June</textPath></text><line stroke="#e1ed5e" stroke-width="0.3" x1="102.19456741930631" x2="102.32365962044197" y1="184.97166512339345" y2="189.96999836594603" /><path d="M 102.22038585953345 185.97133177190398 a86.0,86.0 0 0,1 -42.740103519485714,-10.115201625700543" fill="none" id="id115" stroke="none" /><text fill="#e1ed5e" style="font-size:6.75px; font-family:Arial;" text-anchor="middle"><textPath startOffset="22.20632615414155" xlink:href="#id115">July</textPath></text><line stroke="#e1ed5e" stroke-width="0.3" x1="58.666819895761336" x2="56.23545636021788" y1="174.27360380694188" y2="178.64263932499728" /><path d="M 58.180547188652646 175.14741091055294 a86.0,86.0 0 0,1 -31.652253787137756,-30.449443065178592" fill="none" id="id116" stroke="none" /><text fill="#e1ed5e" style="font-size:6.75px; font-family:Arial;" text-anchor="middle"><textPath startOffset="22.20632615414155" xlink:href="#id116">August</textPath></text><line stroke="#e1ed5e" stroke-width="0.3" x1="26.63291911575756" x2="22.317208475507996" y1="142.92168965132927" y2="145.44649492493687" /><path d="M 25.769776987707644 143.4266507060508 a86.0,86.0 0 0,1 -11.730757126820373,-40.83630448921669" fill="none" id="id117" stroke="none" /><text fill="#e1ed5e" style="font-size:6.75px; font-family:Arial;" text-anchor="middle"><textPath startOffset="21.46611528233685" xlink:href="#id117">September</textPath></text><line stroke="#e1ed5e" stroke-width="0.3" x1="15.007084014347285" x2="10.007500721073583" y1="101.09737516637583" y2="101.16192664675087" /><path d="M 14.007167355692545 101.11028546245083 a86.0,86.0 0 0,1 10.666146001902534,-42.60595125391555" fill="none" id="id118" stroke="none" /><text fill="#e1ed5e" style="font-size:6.75px; font-family:Arial;" text-anchor="middle"><textPath startOffset="22.20632615414155" xlink:href="#id118">October</textPath></text><line stroke="#e1ed5e" stroke-width="0.3" x1="26.266209847984243" x2="21.928928074336255" y1="57.711370442889674" y2="55.22380399835377" /><path d="M 25.398753493254645 57.213857153982495 a86.0,86.0 0 0,1 29.58750427330803,-30.492523968695096" fill="none" id="id119" stroke="none" /><text fill="#e1ed5e" style="font-size:6.75px; font-family:Arial;" text-anchor="middle"><textPath startOffset="21.46611528233685" xlink:href="#id119">November</textPath></text><line stroke="#e1ed5e" stroke-width="0.3" x1="56.762969772571076" x2="54.21961505331055" y1="26.818313649435495" y2="22.513508569990535" /><path d="M 56.25429882871897 25.957352633546506 a86.0,86.0 0 0,1 42.265352541879196,-11.944610805530505" fill="none" id="id120" stroke="none" /><text fill="#e1ed5e" style="font-size:6.75px; font-family:Arial;" text-anchor="middle"><textPath startOffset="22.20632615414155" xlink:href="#id120">December</textPath></text></svg>