<?xml version="1.0" encoding="utf-8" ?>
<svg baseProfile="full" height="200mm" version="1.1" viewBox="0,0,200,200" width="200mm" xmlns="http://www.w3.org/2000/svg" xmlns:ev="http://www.w3.org/2001/xml-events" xmlns:xlink="http://www.w3.org/1999/xlink"><defs /><rect fill="#1a1a1a" height="200" width="200" x="0" y="0" /><text alignment-baseline="middle" fill="#e1ed5e" style="dominant-baseline: central; font-size:9.0px; font-family:Arial;" text-anchor="middle" x="100.0" y="100.0">2023</text><line stroke="#e1ed5e" stroke-width="0.3" x1="100.0" x2="100.0" y1="15.0" y2="10.0" /><path d="M 100.0 14.0 a86.0,86.0 0 0,1 42.46469731375804,11.215312516191453" fill="none" id="id49" stroke="none" /><text fill="#e1ed5e" style="font-size:6.75px; font-family:Arial;" text-anchor="middle"><textPath startOffset="22.20632615414155" xlink:href="#id49">January</textPath></text><line stroke="#e1ed5e" stroke-width="0.3" x1="143.23703022742887" x2="145.7803849466894" y1="26.81831364943548" y2="22.513508569990506" /><path d="M 143.74570117128098 25.957352633546492 a86.0,86.0 0 0,1 28.547481713284135,27.462654790039103" fill="none" id="id50" stroke="none" /><text fill="#e1ed5e" style="font-size:6.75px; font-family:Arial;" text-anchor="middle"><textPath startOffset="19.985693538727396" xlink:href="#id50">February</textPath></text><path d="M 117.04232023915458 87.72973835380427 l 0.2802350365049048 -0.201765790813292 a21.345313060898974,21.345313060898974 0 0,0 0.212118926768808,0.30002717893804925 l -0.2836665830775957 0.19691211154344956" fill="#ff0500" stroke="none" /><line stroke="#e1ed5e" stroke-width="0.3" x1="172.23445277983987" x2="176.4835382374775" y1="55.19839476539836" y2="52.563006222186495" /><path d="M 173.08426987136738 54.67131705675599 a86.0,86.0 0 0,1 12.851231095245387,41.99856678651699" fill="none" id="id51" stroke="none" /><text fill="#e1ed5e" style="font-size:6.75px; font-family:Arial;" text-anchor="middle"><textPath startOffset="22.20632615414155" xlink:href="#id51">March</textPath></text><line stroke="#e1ed5e" stroke-width="0.3" x1="184.98032266829074" x2="189.97916517819016" y1="98.17113171792111" y2="98.06355123074" /><path d="M 185.9800911702706 98.14961562048488 a86.0,86.0 0 0,1 -9.607161424134198,41.387399972396054" fill="none" id="id52" stroke="none" /><text fill="#e1ed5e" style="font-size:6.75px; font-family:Arial;" text-anchor="middle"><textPath startOffset="21.466115282336823" xlink:href="#id52">April</textPath></text><line stroke="#e1ed5e" stroke-width="0.3" x1="174.80103733775053" x2="179.2010983576182" y1="140.37084112569926" y2="142.7455964860345" /><path d="M 175.68104954172406 140.8457921977663 a86.0,86.0 0 0,1 -30.038265399797805,32.042727171017184" fill="none" id="id53" stroke="none" /><text fill="#e1ed5e" style="font-size:6.75px; font-family:Arial;" text-anchor="middle"><textPath startOffset="22.206326154141568" xlink:href="#id53">May</textPath></text><line stroke="#e1ed5e" stroke-width="0.3" x1="143.8653032363475" x2="146.44561519142675" y1="172.8068346515853" y2="177.08958963109032" /><path d="M 144.38136562736335 173.6633856474863 a86.0,86.0 0 0,1 -40.68145358897372,12.25698825130547" fill="none" id="id54" stroke="none" /><text fill="#e1ed5e" style="font-size:6.75px; font-family:Arial;" text-anchor="middle"><textPath startOffset="21.466115282336833" xlink:href="#id54">June</textPath></text><line stroke="#e1ed5e" stroke-width="0.3" x1="102.19456741930631" x2="102.32365962044197" y1="184.97166512339345" y2="189.96999836594603" /><path d="M 102.22038585953345 185.97133177190398 a86.0,86.0 0 0,1 -42.740103519485714,-10.115201625700543" fill="none" id="id55" stroke="none" /><text fill="#e1ed5e" style="font-size:6.75px; font-family:Arial;" text-anchor="middle"><textPath startOffset="22.20632615414155" xlink:href="#id55">July</textPath></text><path d="M 93.08242187328487 119.8279376855182 l -2.3519740589657845 6.741491635494374 a28.139992398139412,28.139992398139412 0 0,0 -0.4559756655769063,-0.16349665083875642 l 2.4676692851724176 -6.70000744361566" fill="#ff6309" stroke="none" /><path d="M 92.7421414339146 119.70592522655815 l -1.2020515446087063 3.263708935747974 a24.478034492810178,24.478034492810178 0 0,0 -0.3941310666321945,-0.14902664494552248 l 1.258052832001184 -3.2425340406958183" fill="#ff3104" stroke="none" /><path d="M 92.40401165467489 119.57807347666478 l -2.3018883078790737 5.932939385625556 a27.3638399992031,27.3638399992031 0 0,0 -0.4376636730616714,-0.1741554078600472 l 2.4036730569826035 -5.892437133359442" fill="#ff5908" stroke="none" /><path d="M 92.06813273071674 119.44442032107085 l -1.3779968287406144 3.3780632768400305 a24.648312865195965,24.648312865195965 0 0,0 -0.39147218170374926,-0.16363540370150176 l 1.435940469941826 -3.3538428301185554" fill="#ff3304" stroke="none" /><path d="M 91.7346041902142 119.30500536409082 l -0.14064069896833517 0.3284863194063487 a21.35732767629087,21.35732767629087 0 0,0 -0.336712839913328,-0.14760501393977304 l 0.14627421353940645 -0.32601675217212345" fill="#ff0500" stroke="none" /><path d="M 91.40352486487194 119.15986991738527 l -25.268611417015077 56.31881673973498 a82.72772344666501,82.72772344666501 0 0,0 -1.2942240375967382,-0.5941147779801922 l 26.234303450379237 -55.875514891420714" fill="#4bddff" stroke="none" /><line stroke="#e1ed5e" stroke-width="0.3" x1="58.666819895761336" x2="56.23545636021788" y1="174.27360380694188" y2="178.64263932499728" /><path d="M 58.180547188652646 175.14741091055294 a86.0,86.0 0 0,1 -31.652253787137756,-30.449443065178592" fill="none" id="id56" stroke="none" /><text fill="#e1ed5e" style="font-size:6.75px; font-family:Arial;" text-anchor="middle"><textPath startOffset="22.20632615414155" xlink:href="#id56">August</textPath></text><path d="M 85.97065885151581 115.62618273729859 l -13.436773758083646 14.966168398167374 a41.113007869242956,41.113007869242956 0 0,0 -0.5225276344320807,-0.47731660504306933 l 13.69240094198258 -14.732659026537728" fill="#f6ff19" stroke="none" /><path d="M 84.9287848128048 114.62390073753433 l -45.21364556158558 43.871702212602976 a84.0,84.0 0 0,0 -0.99797379448417,-1.0463715336699995 l 45.9621259074487 -43.08692356235048" fill="#4dd2ff" stroke="none" /><path d="M 84.67929136418377 114.36230785411682 l -0.6744789558242115 0.6322863148787042 a21.92450410806692,21.92450410806692 0 0,0 -0.25573743019920897,-0.2775524717253508 l 0.6852627940191495 -0.6205825883520094" fill="#ff0d01" stroke="none" /><path d="M 83.95833913139862 113.55231037782056 l -0.0899983968626688 0.07603241446005583 a21.11781612574888,21.11781612574888 0 0,0 -0.23219943890229516,-0.27969918236754937 l 0.09129383565850037 -0.07447197497874533" fill="#ff0100" stroke="none" /><path d="M 83.50135304334701 112.99209946851258 l -0.12133921213803353 0.09555032710682894 a21.154444389384985,21.154444389384985 0 0,0 -0.22281994687959236,-0.28802481777298106 l 0.12296597623569433 -0.0934475152205952" fill="#ff0200" stroke="none" /><path d="M 82.05923443525364 110.91462005526583 l -0.0437512707256325 0.02661695205714619 a21.051211676665776,21.051211676665776 0 0,0 -0.18567080915443768,-0.3111949559078272 l 0.04420295557830204 -0.025859902263207852" fill="#ff0000" stroke="none" /><line stroke="#e1ed5e" stroke-width="0.3" x1="26.63291911575756" x2="22.317208475507996" y1="142.92168965132927" y2="145.44649492493687" /><path d="M 25.769776987707644 143.4266507060508 a86.0,86.0 0 0,1 -11.730757126820373,-40.83630448921669" fill="none" id="id57" stroke="none" /><text fill="#e1ed5e" style="font-size:6.75px; font-family:Arial;" text-anchor="middle"><textPath startOffset="21.46611528233685" xlink:href="#id57">September</textPath></text><path d="M 81.87401531095188 110.60418214915194 l -0.01687598464541793 0.009872898945701402 a21.019551802764564,21.019551802764564 0 0,0 -0.1800154492142337,-0.3138721092523911 l 0.01704343001202885 -0.00958094383500331" fill="#ff0000" stroke="none" /><path d="M 81.69416730710424 110.29060199501025 l -3.7960186160553997 2.1339273333704005 a25.354698978981723,25.354698978981723 0 0,0 -0.2105932206280933,-0.3822878663759163 l 3.8321882461350096 -2.0682689485966614" fill="#ff3d05" stroke="none" /><path d="M 81.51974371655577 109.97397251340807 l -3.129951784742643 1.6892651590163672 a24.556714066702614,24.556714066702614 0 0,0 -0.1975616784670507,-0.37371224259721275 l 3.1585659714345797 -1.6351379013330283" fill="#ff3204" stroke="none" /><path d="M 81.35079622478065 109.6543875284942 l -0.41031600960722037 0.21241388177425605 a21.46203775268954,21.46203775268954 0 0,0 -0.16701689326866132,-0.3295401753158435 l 0.4139115726621484 -0.20531949475572756" fill="#ff0601" stroke="none" /><path d="M 81.18737489456691 109.33194174019688 l -46.280151146919316 22.95711905223843 a72.661220517525,72.661220517525 0 0,0 -0.5461589061471945,-1.1252491135876654 l 46.66846330968123 -22.15708098268548" fill="#3fffbf" stroke="none" /><path d="M 79.67330655649465 105.27499134158121 l -0.10774257957505819 0.02796033579970427 a21.111311472146944,21.111311472146944 0 0,0 -0.08825401369749683,-0.3525309146234475 l 0.10820790756761355 -0.026101581778864937" fill="#ff0100" stroke="none" /><path d="M 79.58551787078972 104.9243191809786 l -0.07239327581473087 0.017462485426376278 a21.07446962320607,21.07446962320607 0 0,0 -0.08202929620545574,-0.3533800611469638 l 0.07268313795074177 -0.016213766930838213" fill="#ff0100" stroke="none" /><path d="M 79.50377843672027 104.57218783832718 l -0.019926203251220655 0.004445031192114418 a21.020415971157597,21.020415971157597 0 0,0 -0.0757395228985599,-0.35382983599657 l 0.019999764874221306 -0.004101375779380671" fill="#ff0000" stroke="none" /><path d="M 79.29508885075956 103.50808413554451 l -0.13579012841515997 0.02300725619265697 a21.137725425439605,21.137725425439605 0 0,0 -0.05769415896090176,-0.3592615829229165 l 0.1361660417373525 -0.020666443576526798" fill="#ff0200" stroke="none" /><path d="M 79.23777060512086 103.15116336523772 l -0.08782038678876132 0.01332883768435805 a21.088826112431782,21.088826112431782 0 0,0 -0.05138237147564282,-0.35936818642627044 l 0.08803680928100316 -0.011815179277687039" fill="#ff0100" stroke="none" /><path d="M 79.18660465613746 102.79330883721812 l -0.14446745987740048 0.019388582482530607 a21.14576269788293,21.14576269788293 0 0,0 -0.04531082891566804,-0.3611718881801045 l 0.14477979803991667 -0.016898940015017506" fill="#ff0200" stroke="none" /><path d="M 79.1416061653843 102.43462659150553 l -0.20897584393497756 0.024392009790421162 a21.210394566208237,21.210394566208237 0 0,0 -0.03920660482451423,-0.36300446768429867 l 0.20936475026054369 -0.0207912202213404" fill="#ff0300" stroke="none" /><path d="M 79.10278846688536 102.07522291339032 l -0.03903876928965693 0.003876792289348059 a21.039230791810844,21.039230791810844 0 0,0 -0.03268635231441032,-0.36069117407971385 l 0.03909971788114259 -0.0032042296610680374" fill="#ff0000" stroke="none" /><path d="M 79.07016306316243 101.71520430193888 l -0.11895947080927449 0.009748752305342615 a21.1193582584773,21.1193582584773 0 0,0 -0.02657362495189332,-0.36257599962524073 l 0.11910965442550316 -0.00769961618334122" fill="#ff0100" stroke="none" /><path d="M 79.04373962182676 101.35467743843564 l -0.13140475794181755 0.00849440967398374 a21.13167902416656,21.13167902416656 0 0,0 -0.020340397378657657,-0.3631914591020415 l 0.13153150620800685 -0.006231234236504671" fill="#ff0200" stroke="none" /><path d="M 79.0235259727143 100.99374915477108 l -0.7921123131152963 0.03752589403815767 a21.793000699439936,21.793000699439936 0 0,0 -0.014526453741164139,-0.37486322421321844 l 0.7926408997076613 -0.023885422810942435" fill="#ff0b01" stroke="none" /><path d="M 79.0095281055655 100.63252640178507 l -0.6436625443494891 0.019396112445149837 a21.643954719041986,21.643954719041986 0 0,0 -0.008016443954916458,-0.3724926505732893 l 0.643901050989413 -0.008313646081731744" fill="#ff0901" stroke="none" /><line stroke="#e1ed5e" stroke-width="0.3" x1="15.007084014347285" x2="10.007500721073583" y1="101.09737516637583" y2="101.16192664675087" /><path d="M 14.007167355692545 101.11028546245083 a86.0,86.0 0 0,1 10.666146001902534,-42.60595125391555" fill="none" id="id58" stroke="none" /><text fill="#e1ed5e" style="font-size:6.75px; font-family:Arial;" text-anchor="middle"><textPath startOffset="22.20632615414155" xlink:href="#id58">October</textPath></text><path d="M 79.00175016825051 100.2711162175752 l -2.0292271978200076 0.026200107479521995 a23.029396330440257,23.029396330440257 0 0,0 -0.0017060425853512031,-0.39642421410215295 l 2.029377537694862 0.008733584826306325" fill="#ff1d02" stroke="none" /><path d="M 79.00019446554 99.90962569577889 l -3.946476705259325 -0.01698397091236883 a24.946513251013158,24.946513251013158 0 0,0 0.005544057132394909,-0.42939333466929697 l 3.9455996410092142 0.08491356364213778" fill="#ff3805" stroke="none" /><path d="M 79.00486145842228 99.54816195383935 l -1.2587651082270892 -0.027089983995589526 a22.259056577331947,22.259056577331947 0 0,0 0.011541114721098747,-0.3829934110260029 l 1.2581122990503453 0.048753542446586834" fill="#ff1202" stroke="none" /><path d="M 79.01574976396665 99.18683210126434 l -0.07763067224840864 -0.0030082928825007917 a21.07768893807877,21.07768893807877 0 0,0 0.017169676405105902,-0.3624247320759669 l 0.07756738760980393 0.004344131581476798" fill="#ff0100" stroke="none" /><path d="M 79.03285615573316 98.82574320788736 l -0.14885240102462158 -0.008336421222828164 a21.149085657290026,21.149085657290026 0 0,0 0.023484960872621204,-0.3633019500097148 l 0.14868684914758717 0.010897435485554777" fill="#ff0200" stroke="none" /><path d="M 79.05617556472873 98.46500227214037 l -0.10962572257675805 -0.008034599200846222 a21.109919760893092,21.109919760893092 0 0,0 0.029680060831874633,-0.362171918986204 l 0.10947117792538634 0.009920435394828593" fill="#ff0100" stroke="none" /><path d="M 79.08570108090925 98.10471618934814 l -0.03331788179962503 -0.003019314308566203 a21.03345440937317,21.03345440937317 0 0,0 0.03577978325402909,-0.36029753451734875 l 0.03326097286336727 0.0035923795303452787" fill="#ff0000" stroke="none" /><path d="M 79.12142395522702 97.74499172005258 l -0.07766361018485429 -0.008388123962184689 a21.07811528000686,21.07811528000686 0 0,0 0.04206554146355934,-0.36039187026651776 l 0.07750771571770604 0.009723732553564186" fill="#ff0100" stroke="none" /><path d="M 79.16333360222342 97.38593545837743 l -0.04311705791541448 -0.005409251656867649 a21.04345504213286,21.04345504213286 0 0,0 0.048183500574873674,-0.3590230457706268 l 0.043017558282706946 0.0061506394921538735" fill="#ff0000" stroke="none" /><path d="M 79.21141760316559 97.0276538004421 l -0.02682784199065757 -0.0038358379932348654 a21.027100678201588,21.027100678201588 0 0,0 0.054314109040518456,-0.3578621164861948 l 0.0267578395108369 0.004297066871521716" fill="#ff0000" stroke="none" /><path d="M 79.26566170972629 96.67025291283419 l -0.027087418320246692 -0.004349994245680487 a21.027434479787185,21.027434479787185 0 0,0 0.060467029773325034,-0.35687983256447275 l 0.027008527026698634 0.004815615125981204" fill="#ff0000" stroke="none" /><path d="M 79.32604984820605 96.31383870115002 l -0.0317046278336385 -0.005652928988254293 a21.03220464302264,21.03220464302264 0 0,0 0.06661627935287134,-0.3558668280456862 l 0.03160262457090553 0.0061978344965131745" fill="#ff0000" stroke="none" /><path d="M 79.3925641242962 95.95851677861259 l -0.04732663690629537 -0.009281591855248442 a21.048228192048093,21.048228192048093 0 0,0 0.07278748338325683,-0.35493761892533354 l 0.047159857608043976 0.010094866943984456" fill="#ff0000" stroke="none" /><path d="M 79.46518482838121 95.60439243477599 l -0.05957700837377406 -0.012752836903207982 a21.060926634371583,21.060926634371583 0 0,0 0.07893395909825375,-0.35384546124347616 l 0.05934866227348272 0.01377646769664333" fill="#ff0100" stroke="none" /><path d="M 79.54389044137918 95.25157060432595 l -0.06485728177160867 -0.015055170798986706 a21.066581717960627,21.066581717960627 0 0,0 0.08503595906229697,-0.35252894924502476 l 0.06458852244849692 0.01616935170340829" fill="#ff0100" stroke="none" /><path d="M 79.62865764111835 94.90015583598534 l -0.11740624150020859 -0.029391952920210223 a21.121029386678067,21.121029386678067 0 0,0 0.0913269972850191,-0.3519201751660069 l 0.11688291234488214 0.03140855363508091" fill="#ff0200" stroke="none" /><path d="M 79.81627453868168 94.20196356495316 l -0.12974858068359119 -0.037271959512173276 a21.13499590051288,21.13499590051288 0 0,0 0.10345490205433204,-0.3487984995404823 l 0.1290877815175522 0.0394998457991948" fill="#ff0200" stroke="none" /><path d="M 79.91906864156998 93.8553929516997 l -0.018809583687704173 -0.005755584660894816 a21.01967046499942,21.01967046499942 0 0,0 0.10884637600324457,-0.34507275688476957 l 0.018707723916255765 0.006078507972078895" fill="#ff0000" stroke="none" /><path d="M 80.02781315780177 93.51064311812611 l -0.022931858848339832 -0.007451012611058458 a21.024111983310593,21.024111983310593 0 0,0 0.11479436076436678,-0.3432205273834283 l 0.022800204312200666 0.00784464291680891" fill="#ff0000" stroke="none" /><path d="M 80.14247586403 93.16781622104843 l -0.22475927133611107 -0.07733072045018777 a21.237690492819727,21.237690492819727 0 0,0 0.12191134093448645,-0.3446597775795219 l 0.22339484959181505 0.0811881244563207" fill="#ff0300" stroke="none" /><path d="M 80.38941819471856 92.48833698450439 l -0.113086464823181 -0.04331678803821414 a21.121098689721038,21.121098689721038 0 0,0 0.13296883239840399,-0.33839117485006814 l 0.1123240825430859 0.04525696778404568" fill="#ff0200" stroke="none" /><path d="M 80.52162464483688 92.15188598940014 l -0.019869891626353945 -0.008005861475533884 a21.021422100998933,21.021422100998933 0 0,0 0.13811906479757105,-0.3344662709132631 l 0.019729139942583174 0.008346702842108221" fill="#ff0000" stroke="none" /><path d="M 80.65960295795068 91.81776055985345 l -0.2980283745970508 -0.12608528747413797 a21.32360224316651,21.32360224316651 0 0,0 0.14592379723630855,-0.3368122430739734 l 0.2958138675180615 0.13119667513471064" fill="#ff0400" stroke="none" /><path d="M 81.10775173730289 90.83032412892265 l -0.020650943159009477 -0.010023288523793989 a21.022954907235444,21.022954907235444 0 0,0 0.16081558114187092,-0.32419439848223347 l 0.020475349063725792 0.010377275504988966" fill="#ff0000" stroke="none" /><path d="M 81.26839172434947 90.50648371742162 l -0.03915816979188852 -0.019846065380221715 a21.043900211531682,21.043900211531682 0 0,0 0.16653798593697364,-0.32169838085396024 l 0.03881075069480085 0.02051716849451749" fill="#ff0000" stroke="none" /><path d="M 81.43458229118936 90.18545643968196 l -0.05545571067685232 -0.029316468750825074 a21.062727913935447,21.062727913935447 0 0,0 0.17220475196132043,-0.3190692520150868 l 0.054942859497060084 0.030266704098384584" fill="#ff0100" stroke="none" /><path d="M 81.6062741919709 89.86733742301443 l -0.07551150412568694 -0.04159747731219571 a21.086211004947526,21.086211004947526 0 0,0 0.1778695787439005,-0.31641013336445634 l 0.07478428408935577 0.04289112061143662" fill="#ff0100" stroke="none" /><line stroke="#e1ed5e" stroke-width="0.3" x1="26.266209847984243" x2="21.928928074336255" y1="57.711370442889674" y2="55.22380399835377" /><path d="M 25.398753493254645 57.213857153982495 a86.0,86.0 0 0,1 29.58750427330803,-30.492523968695096" fill="none" id="id59" stroke="none" /><text fill="#e1ed5e" style="font-size:6.75px; font-family:Arial;" text-anchor="middle"><textPath startOffset="21.46611528233685" xlink:href="#id59">November</textPath></text><path d="M 81.78341655067845 89.55222093294921 l -0.02492642529948121 -0.01429608275255502 a21.02873507717544,21.02873507717544 0 0,0 0.18279010221261432,-0.3124475369635528 l 0.024676648616541914 0.014723032069999649" fill="#ff0000" stroke="none" /><path d="M 81.96595687620814 89.24020034530311 l -0.041037686755686996 -0.024484652983937066 a21.04778692254165,21.04778692254165 0 0,0 0.18831174494207337,-0.30953499544531216 l 0.04061014352739669 0.025187421636323683" fill="#ff0000" stroke="none" /><path d="M 82.15384107792192 88.93136811851018 l -0.01724815445044415 -0.010697734626293235 a21.020296313903785,21.020296313903785 0 0,0 0.19335910317042498,-0.30584766592654794 l 0.017061455034056504 0.010993048267056669" fill="#ff0000" stroke="none" /><path d="M 82.7489923806493 88.02491185347247 l -0.027218634334229417 -0.018894290268290176 a21.033133793319855,21.033133793319855 0 0,0 0.2090166470782113,-0.295639224322095 l 0.026889367452139875 0.019360014922171365" fill="#ff0000" stroke="none" /><path d="M 82.95767976084542 87.72973835380427 l -0.014907143907754626 -0.010732960863239584 a21.018368978969402,21.018368978969402 0 0,0 0.21392434641854338,-0.29179256810187976 l 0.014720184975577864 0.010987972636620017" fill="#ff0000" stroke="none" /><path d="M 83.17141714833178 87.43820079747576 l -0.04125704438149746 -0.030796574600375593 a21.05148371313545,21.05148371313545 0 0,0 0.21926028485919224,-0.28852083347299995 l 0.040720819298196355 0.031502183954402095" fill="#ff0100" stroke="none" /><path d="M 85.05521093208273 85.24692304244772 l -0.017965007817949175 -0.017734552269473344 a21.02524392699438,21.02524392699438 0 0,0 0.25647213270693203,-0.2553707598625131 l 0.017657074943703915 0.01804116278209585" fill="#ff0000" stroke="none" /><path d="M 85.57189188830299 84.74124197986013 l -0.04774408838682707 -0.050492794061901235 a21.069491152156708,21.069491152156708 0 0,0 0.26566834045452997,-0.24690976887078844 l 0.04686786413744096 0.051307149007337176" fill="#ff0100" stroke="none" /><path d="M 85.83668400450813 84.49514656593479 l -0.016194017605527807 -0.017727901401218472 a21.024010928643005,21.024010928643005 0 0,0 0.2692965684031994,-0.24177711804346674 l 0.01588646160635707 0.018004028213963987" fill="#ff0000" stroke="none" /><path d="M 86.10567301691215 84.25364557470407 l -0.050704101374538374 -0.057462642993175085 a21.076634595555536,21.076634595555536 0 0,0 0.27410283865248425,-0.23769928062520873 l 0.0497074640752806 0.05832691703806439" fill="#ff0100" stroke="none" /><path d="M 86.37877921826538 84.01681056812374 l -0.017073944583435422 -0.02003462795290317 a21.026323105835928,21.026323105835928 0 0,0 0.2774898559164256,-0.23238977414896472 l 0.016726551707899464 0.02032555949568027" fill="#ff0000" stroke="none" /><path d="M 86.65592168130627 83.78471172551755 l -0.03183315929110254 -0.03868261578393351 a21.050096854136164,21.050096854136164 0 0,0 0.2817671755040846,-0.22783612699736083 l 0.031162585222517504 0.039224840045428665" fill="#ff0000" stroke="none" /><path d="M 86.93701828274178 83.55741782278169 l -0.013993011448219182 -0.01761322534350082 a21.022495112277802,21.022495112277802 0 0,0 0.28527270077710803,-0.2226598678771322 l 0.013687755511685508 0.017851482443854788" fill="#ff0000" stroke="none" /><path d="M 87.22198572758235 83.33499621200491 l -0.020187707804755636 -0.02632867829576599 a21.03317744485659,21.03317744485659 0 0,0 0.2892100421849819,-0.2178270078207596 l 0.019731511861383753 0.026672275622379935" fill="#ff0000" stroke="none" /><path d="M 87.51073957382395 83.11751280151077 l -0.21997389693356703 -0.2973519946144479 a21.369873929918466,21.369873929918466 0 0,0 0.29760570093970823,-0.21622319830954365 l 0.21482287964007712 0.3010944277406594" fill="#ff0500" stroke="none" /><path d="M 87.80319425747018 82.90503203632743 l -0.009801921979904584 -0.013738313601617739 a21.01687657948509,21.01687657948509 0 0,0 0.29630679516185765,-0.20758184573070057 l 0.009563987234386673 0.013905002096260909" fill="#ff0000" stroke="none" /><path d="M 88.39885842347998 82.49532879139004 l -0.027058647083922117 -0.04082811311539481 a21.048980661516314,21.048980661516314 0 0,0 0.303739772098491,-0.1975607968442861 l 0.02635184920114394 0.04128783411921592" fill="#ff0000" stroke="none" /><path d="M 88.70189139769569 82.29822771554957 l -0.025641062563789285 -0.04017418017587215 a21.047659509462473,21.047659509462473 0 0,0 0.3070761790995023,-0.1922910751808864 l 0.024945731092044725 0.04060959667968876" fill="#ff0000" stroke="none" /><path d="M 89.00827224532344 82.1063720568725 l -0.009461623162693998 -0.015402743625931954 a21.01807669284131,21.01807669284131 0 0,0 0.30990446853573184,-0.1867139747480151 l 0.009195088409312999 0.015563327832566297" fill="#ff0000" stroke="none" /><line stroke="#e1ed5e" stroke-width="0.3" x1="56.762969772571076" x2="54.21961505331055" y1="26.818313649435495" y2="22.513508569990535" /><path d="M 56.25429882871897 25.957352633546506 a86.0,86.0 0 0,1 42.265352541879196,-11.944610805530505" fill="none" id="id60" stroke="none" /><text fill="#e1ed5e" style="font-size:6.75px; font-family:Arial;" text-anchor="middle"><textPath startOffset="22.20632615414155" xlink:href="#id60">December</textPath></text><path d="M 89.3179101791058 81.91981866633112 l -0.026934453144151053 -0.04558843869828961 a21.052950642197448,21.052950642197448 0 0,0 0.31359198819646183,-0.18165272052565304 l 0.02614573248236908 0.046045316613989834" fill="#ff0100" stroke="none" /><path d="M 89.63071344664047 81.73862282372117 l -0.008420783272868344 -0.014829863045469334 a21.017053868443142,21.017053868443142 0 0,0 0.3161324302722079,-0.17592735517716487 l 0.008164263928614867 0.014972615782818792" fill="#ff0000" stroke="none" /><path d="M 89.94658935756843 81.56283822128135 l -0.009176049077961868 -0.016828149904252413 a21.01916732912748,21.01916732912748 0 0,0 0.31914598194012894,-0.170476730827134 l 0.008885020609527611 0.016983607233135866" fill="#ff0000" stroke="none" /><path d="M 90.26544431104013 81.39251694778311 l -0.008802267867362082 -0.016825426387849226 a21.018988809671534,21.018988809671534 0 0,0 0.3220304386190929,-0.16495649839079418 l 0.008511341659505465 0.016974450091148605" fill="#ff0000" stroke="none" /><path d="M 90.58718382345135 81.22770947309562 l -0.0390176688522876 -0.07781422707505332 a21.08704844868207,21.08704844868207 0 0,0 0.32587395788288354,-0.15990493587806975 l 0.03767244395897809 0.07847432308795273" fill="#ff0100" stroke="none" /><path d="M 90.91171255644093 81.06846463323043 l -0.008682524801559705 -0.01808630353896587 a21.020062417915927,21.020062417915927 0 0,0 0.3275344010944917,-0.15378179307069703 l 0.008369912407459493 0.01823307924967048" fill="#ff0000" stroke="none" /><path d="M 91.23893434514133 80.91482961587045 l -0.03314283766560467 -0.07219860331840136 a21.07944234393355,21.07944234393355 0 0,0 0.3310655722751398,-0.1485394719500558 l 0.031895146923690505 0.07275840578498607" fill="#ff0100" stroke="none" /><path d="M 91.56875222667455 80.76684994638697 l -1.2188366796889734 -2.7803795335574026 a24.035798610313293,24.035798610313293 0 0,0 0.3803564891756307,-0.16284879866984683 l 1.1707964327230345 2.8009478601900355" fill="#ff2b04" stroke="none" /><path d="M 91.90106846888425 80.62456947434976 l -0.2240582499525592 -0.5360244174155296 a21.580968394525435,21.580968394525435 0 0,0 0.343976106264334,-0.14031649047089223 l 0.2147982740998447 0.5398017940699988" fill="#ff0801" stroke="none" /><path d="M 92.23578459929587 80.48803036053334 l -0.15014529872809623 -0.37732473393584337 a21.406100437785906,21.406100437785906 0 0,0 0.3435341056781737,-0.1332858958805794 l 0.14362802805024616 0.3798533337069742" fill="#ff0600" stroke="none" /><path d="M 92.57280143429618 80.3572730644239 l -0.005913393935172287 -0.01563916479457609 a21.016719799738766,21.016719799738766 0 0,0 0.3394877528741416,-0.12503620443854876 l 0.005643315288461211 0.015738637039447237" fill="#ff0000" stroke="none" /><path d="M 92.91201910852362 80.23233633223022 l -0.008242159982328962 -0.022986552718075023 a21.0244195578796,21.0244195578796 0 0,0 0.34171489282038736,-0.11921761635722898 l 0.007845263098656305 0.023125022247513817" fill="#ff0000" stroke="none" /><path d="M 93.94186890950719 79.89281104454417 l -0.005666906019177503 -0.018808696678622536 a21.019643851317362,21.019643851317362 0 0,0 0.3473343826846126,-0.10139643084153552 l 0.005342305611143636 0.018903456438856887" fill="#ff0000" stroke="none" /><path d="M 95.692805502759 79.44645832069477 l -0.006621576967906659 -0.03159756502284133 a21.03228391854956,21.03228391854956 0 0,0 0.35497847173133934,-0.0712053419652274 l 0.006076695769430901 0.03170686306527939" fill="#ff0000" stroke="none" /><path d="M 97.47563105711357 79.15227682838746 l -0.005399216566318915 -0.04458990538423265 a21.044915600872134,21.044915600872134 0 0,0 0.3600016383648124,-0.04045037869147288 l 0.004630874691788513 0.04467623754630402" fill="#ff0000" stroke="none" /><path d="M 97.83486435360386 79.11191278185805 l -0.005622504541471657 -0.054242959531031205 a21.05453357879329,21.05453357879329 0 0,0 0.36080940932583744,-0.03426320097819561 l 0.004687968125397858 0.05433170502440736" fill="#ff0100" stroke="none" /><path d="M 98.19473922651362 79.07773832637324 l -0.0017316796765649571 -0.02006948572755144 a21.02014405549711,21.02014405549711 0 0,0 0.36075553041038905,-0.02800157231968032 l 0.0013859599038417289 0.020096320235693948" fill="#ff0000" stroke="none" /><path d="M 98.55514903715128 79.0497635885617 l -0.0021748631277981813 -0.03153536098979842 a21.03161026767336,21.03161026767336 0 0,0 0.36138110279003827,-0.02179949500927751 l 0.0016317114981369042 0.03156812537938235" fill="#ff0000" stroke="none" /><path d="M 98.91598698831166 79.02799685794201 l -0.0038907324895338428 -0.07527257801852888 a21.075373064159955,21.075373064159955 0 0,0 0.3624554377588795,-0.015608093595165908 l 0.0025944623413302584 0.07532839813788722" fill="#ff0100" stroke="none" /><path d="M 99.27714615592234 79.0124445844662 l -0.0007303424547028079 -0.02120498198352992 a21.02121755549122,21.02121755549122 0 0,0 0.3617384819203972,-0.009342637755527527 l 0.0003652253394265562 0.021214411881417088" fill="#ff0000" stroke="none" /><path d="M 99.63851952072746 79.00311137660856 l -0.0031168357123824396 -0.18104394583631478 a21.18107077342531,21.18107077342531 0 0,0 0.36459731498491815,-0.0031382041975554966 l 4.434954861888865e-17 0.18107077342531142" fill="#ff0200" stroke="none" /></svg>