<?xml version="1.0" encoding="utf-8" ?>
<svg baseProfile="full" height="200mm" version="1.1" viewBox="0,0,200,200" width="200mm" xmlns="http://www.w3.org/2000/svg" xmlns:ev="http://www.w3.org/2001/xml-events" xmlns:xlink="http://www.w3.org/1999/xlink"><defs /><rect fill="#222222" height="200" width="200" x="0" y="0" /><text alignment-baseline="middle" fill="#e1ed5e" style="dominant-baseline: central; font-size:9.0px; font-family:Arial;" text-anchor="middle" x="100.0" y="100.0">2022</text><line stroke="#e1ed5e" stroke-width="0.3" x1="100.0" x2="100.0" y1="15.0" y2="10.0" /><path d="M 100.0 14.0 a86.0,86.0 0 0,1 42.46469731375804,11.215312516191453" fill="none" id="id61" stroke="none" /><text fill="#e1ed5e" style="font-size:6.75px; font-family:Arial;" text-anchor="middle"><textPath startOffset="22.20632615414155" xlink:href="#id61">January</textPath></text><path d="M 100.36148047927253 79.00311137660856 l 0.14059022415872535 -8.16629789840697 a29.167508002852223,29.167508002852223 0 0,0 0.5019219290462538,0.012963162613333733 l -0.28113878839984696 8.162667943651277" fill="#ff710a" stroke="none" /><path d="M 110.05341064243156 81.56283822128135 l 0.05127524315831447 -0.09403474969608222 a21.10710595086805,21.10710595086805 0 0,0 0.3174869675849292,0.1766811537251667 l -0.05288629981527881 0.0931381984107356" fill="#ff0100" stroke="none" /><line stroke="#e1ed5e" stroke-width="0.3" x1="143.23703022742887" x2="145.7803849466894" y1="26.81831364943548" y2="22.513508569990506" /><path d="M 143.74570117128098 25.957352633546492 a86.0,86.0 0 0,1 28.547481713284135,27.462654790039103" fill="none" id="id62" stroke="none" /><text fill="#e1ed5e" style="font-size:6.75px; font-family:Arial;" text-anchor="middle"><textPath startOffset="19.985693538727396" xlink:href="#id62">February</textPath></text><path d="M 110.68208982089419 81.91981866633111 l 0.3014386159863058 -0.5102058613420614 a21.592600422000807,21.592600422000807 0 0,0 0.3183756276026904,0.19181775330140954 l -0.3101763098066337 0.5049414985820372" fill="#ff0801" stroke="none" /><path d="M 110.99172775467656 82.1063720568725 l 0.11764929650104569 -0.19152336978731424 a21.22477223614557,21.22477223614557 0 0,0 0.3096601765912349,0.19390917417315212 l -0.12092862546454385 0.1894698542912179" fill="#ff0200" stroke="none" /><path d="M 111.60114157652 82.49532879139004 l 0.10485366543649502 -0.1582110627973225 a21.189802612065606,21.189802612065606 0 0,0 0.3023031137631835,0.20411641186492363 l -0.10756147360622034 0.15638273863372876" fill="#ff0200" stroke="none" /><path d="M 112.77801427241765 83.33499621200491 l 5.896318687567079 -7.689940797424079 a30.69029223157073,30.69029223157073 0 0,0 0.4164635313638617,0.3250563920645683 l -6.027814774090371 7.587306016136287" fill="#ff850c" stroke="none" /><path d="M 117.45458315368197 88.32363383020206 l 2.0427744592587254 -1.3665283426481798 a23.45770771302459,23.45770771302459 0 0,0 0.22162324462163976,0.337547406255601 l -2.06599433923829 1.331162872414905" fill="#ff2203" stroke="none" /><line stroke="#e1ed5e" stroke-width="0.3" x1="172.23445277983987" x2="176.4835382374775" y1="55.19839476539836" y2="52.563006222186495" /><path d="M 173.08426987136738 54.67131705675599 a86.0,86.0 0 0,1 12.851231095245387,41.99856678651699" fill="none" id="id63" stroke="none" /><text fill="#e1ed5e" style="font-size:6.75px; font-family:Arial;" text-anchor="middle"><textPath startOffset="22.20632615414155" xlink:href="#id63">March</textPath></text><line stroke="#e1ed5e" stroke-width="0.3" x1="184.98032266829074" x2="189.97916517819016" y1="98.17113171792111" y2="98.06355123074" /><path d="M 185.9800911702706 98.14961562048488 a86.0,86.0 0 0,1 -9.607161424134198,41.387399972396054" fill="none" id="id64" stroke="none" /><text fill="#e1ed5e" style="font-size:6.75px; font-family:Arial;" text-anchor="middle"><textPath startOffset="21.466115282336823" xlink:href="#id64">April</textPath></text><line stroke="#e1ed5e" stroke-width="0.3" x1="174.80103733775053" x2="179.2010983576182" y1="140.37084112569926" y2="142.7455964860345" /><path d="M 175.68104954172406 140.8457921977663 a86.0,86.0 0 0,1 -30.038265399797805,32.042727171017184" fill="none" id="id65" stroke="none" /><text fill="#e1ed5e" style="font-size:6.75px; font-family:Arial;" text-anchor="middle"><textPath startOffset="22.206326154141568" xlink:href="#id65">May</textPath></text><line stroke="#e1ed5e" stroke-width="0.3" x1="143.8653032363475" x2="146.44561519142675" y1="172.8068346515853" y2="177.08958963109032" /><path d="M 144.38136562736335 173.6633856474863 a86.0,86.0 0 0,1 -40.68145358897372,12.25698825130547" fill="none" id="id66" stroke="none" /><text fill="#e1ed5e" style="font-size:6.75px; font-family:Arial;" text-anchor="middle"><textPath startOffset="21.466115282336833" xlink:href="#id66">June</textPath></text><path d="M 106.91757812671514 119.82793768551818 l 0.041541722004416026 0.11907153922435193 a21.126110055587763,21.126110055587763 0 0,0 -0.34438604272985207,0.1168344438246424 l -0.03948594633733698 -0.11976896994711737" fill="#ff0100" stroke="none" /><path d="M 106.57524785965236 119.94407469862006 l 0.07241076092511604 0.21963668225136482 a21.231265195150808,21.231265195150808 0 0,0 -0.3480700677811454,0.111441044013063 l -0.06861934805303027 -0.2208505729241344" fill="#ff0200" stroke="none" /><path d="M 105.88484417918355 120.15858648285463 l 0.0251531002273905 0.08616217028130536 a21.08975855412513,21.08975855412513 0 0,0 -0.34935569872282896,0.09873141007882531 l -0.023666233399955817 -0.08658237369864971" fill="#ff0000" stroke="none" /><path d="M 102.70371172650421 120.8252237178851 l 0.012051466070158015 0.09282590099353608 a21.09360494500667,21.09360494500667 0 0,0 -0.360472207797652,0.04364816429340896 l -0.010451835221125734 -0.09301959401229597" fill="#ff0000" stroke="none" /><path d="M 101.62511606390274 120.93702456842531 l 0.9761604339957985 12.576267900652551 a33.61409542939495,33.61409542939495 0 0,0 -0.5772616464081224,0.039811342900791656 l -0.7595360268087458 -12.591207588069627" fill="#ffab0f" stroke="none" /><line stroke="#e1ed5e" stroke-width="0.3" x1="102.19456741930631" x2="102.32365962044197" y1="184.97166512339345" y2="189.96999836594603" /><path d="M 102.22038585953345 185.97133177190398 a86.0,86.0 0 0,1 -42.740103519485714,-10.115201625700543" fill="none" id="id67" stroke="none" /><text fill="#e1ed5e" style="font-size:6.75px; font-family:Arial;" text-anchor="middle"><textPath startOffset="22.20632615414155" xlink:href="#id67">July</textPath></text><path d="M 96.93821686468263 120.77559828337769 l -0.011531813623156736 0.07824862726231373 a21.079093807557076,21.079093807557076 0 0,0 -0.3585093493186275,-0.055991787246413086 l 0.01287702655030136 -0.07803853266879487" fill="#ff0000" stroke="none" /><path d="M 95.51606077576429 120.51570834832081 l -0.05321486861717331 0.2434780378920557 a21.249225554824758,21.249225554824758 0 0,0 -0.356663040432476,-0.08117534680726352 l 0.05739805844251195 -0.24252595750710543" fill="#ff0300" stroke="none" /><path d="M 90.7491055286396 118.85261126421891 l -0.03758782020795188 0.07660108596457282 a21.085326259726635,21.085326259726635 0 0,0 -0.3244590850507018,-0.16269052090453792 l 0.03890081294141416 -0.0759427241507328" fill="#ff0000" stroke="none" /><line stroke="#e1ed5e" stroke-width="0.3" x1="58.666819895761336" x2="56.23545636021788" y1="174.27360380694188" y2="178.64263932499728" /><path d="M 58.180547188652646 175.14741091055294 a86.0,86.0 0 0,1 -31.652253787137756,-30.449443065178592" fill="none" id="id68" stroke="none" /><text fill="#e1ed5e" style="font-size:6.75px; font-family:Arial;" text-anchor="middle"><textPath startOffset="22.20632615414155" xlink:href="#id68">August</textPath></text><path d="M 89.1626897886671 117.98757091392108 l -0.169919670053239 0.28202958623040003 a21.329261874167496,21.329261874167496 0 0,0 -0.31285030034925604,-0.1921782066966787 l 0.17474917033480375 -0.27906291270534317" fill="#ff0400" stroke="none" /><path d="M 88.24862548938628 117.40417183066458 l -0.1594462798302064 0.23614518024412914 a21.284934487740998,21.284934487740998 0 0,0 -0.30188434278221254,-0.20763880369400745 l 0.16348750723530922 -0.2333655871850206" fill="#ff0300" stroke="none" /><path d="M 87.65650970185807 116.9893568818739 l -0.5388118633979083 0.7416109073162649 a21.9166814942982,21.9166814942982 0 0,0 -0.3033008114663036,-0.2243746894244465 l 0.5514976452827761 -0.7322262691520517" fill="#ff0c01" stroke="none" /><path d="M 86.79598089348748 116.32954008644616 l -0.10140411124627895 0.12540746012021742 a21.16127561759749,21.16127561759749 0 0,0 -0.28127353061763805,-0.23146896669384148 l 0.10354777040860577 -0.12364337456919523" fill="#ff0100" stroke="none" /><path d="M 85.18274418774928 114.88116024355367 l -0.11392643268603053 0.11441777899086746 a21.161464114321937,21.161464114321937 0 0,0 -0.2559120094944268,-0.2592375145093502 l 0.11587906723599058 -0.11243977050085265" fill="#ff0100" stroke="none" /><path d="M 84.9287848128048 114.62390073753433 l -45.21364556158558 43.871702212602976 a84.0,84.0 0 0,0 -0.99797379448417,-1.0463715336699995 l 45.9621259074487 -43.08692356235048" fill="#4dd2ff" stroke="none" /><path d="M 84.67929136418377 114.36230785411682 l -0.6587284163020374 0.6175210645979788 a21.902914941545443,21.902914941545443 0 0,0 -0.2554856042997892,-0.27727916444774986 l 0.6692604285975556 -0.6060906453488848" fill="#ff0c01" stroke="none" /><path d="M 84.19399662182784 113.82643327865904 l -0.2632202026115879 0.23025406751653488 a21.349716757778054,21.349716757778054 0 0,0 -0.23958193678631742,-0.2786879185581813 l 0.2671446489686841 -0.22568904979682322" fill="#ff0400" stroke="none" /><path d="M 83.95833913139862 113.55231037782056 l -0.04817848704704309 0.040702132736974025 a21.063070042202938,21.063070042202938 0 0,0 -0.23159748225082274,-0.27897408680300584 l 0.04887196919140223 -0.039866788820207014" fill="#ff0000" stroke="none" /><path d="M 83.28015986056508 112.70617746262583 l -0.0948684030454075 0.07209487379295006 a21.119154037798168,21.119154037798168 0 0,0 -0.2174656722668979,-0.29133080573376774 l 0.09609534200739045 -0.07045118854987432" fill="#ff0100" stroke="none" /><line stroke="#e1ed5e" stroke-width="0.3" x1="26.63291911575756" x2="22.317208475507996" y1="142.92168965132927" y2="145.44649492493687" /><path d="M 25.769776987707644 143.4266507060508 a86.0,86.0 0 0,1 -11.730757126820373,-40.83630448921669" fill="none" id="id69" stroke="none" /><text fill="#e1ed5e" style="font-size:6.75px; font-family:Arial;" text-anchor="middle"><textPath startOffset="21.46611528233685" xlink:href="#id69">September</textPath></text><path d="M 80.87730276802145 108.67885076344099 l -0.6231223534051835 0.28280455664612253 a21.684295173571336,21.684295173571336 0 0,0 -0.15133460852406466,-0.34121959105190736 l 0.6278980466605281 -0.2720366291015193" fill="#ff0901" stroke="none" /><path d="M 80.73074385275274 108.34839909993369 l -0.46182736048188616 0.20008655710991294 a21.50330819705799,21.50330819705799 0 0,0 -0.1442247552702404,-0.3409047181548717 l 0.4652030969444332 -0.19210731328888236" fill="#ff0601" stroke="none" /><path d="M 80.58989483394504 108.01547362559985 l -0.20028742711718245 0.08270942253340301 a21.216693105651817,21.216693105651817 0 0,0 -0.13649141774651735,-0.3387605052671546 l 0.2016814591210876 -0.07924954942344299" fill="#ff0200" stroke="none" /><path d="M 80.45479744820244 107.68017299344265 l -1.7765742465121022 0.6980944563121504 a22.908809032696514,22.908809032696514 0 0,0 -0.14105905026797852,-0.3682606686360964 l 1.7883275763735897 -0.6674102208428961" fill="#ff1a02" stroke="none" /><path d="M 80.20201598880116 107.00284435728193 l -0.4277570248285029 0.15130408560354217 a21.45372789049215,21.45372789049215 0 0,0 -0.12015024335099363,-0.3492128482602235 l 0.430298099122725 -0.14391853425402182" fill="#ff0600" stroke="none" /><path d="M 80.0844068197444 106.66101706037122 l -0.3523009325519665 0.11783141485536323 a21.371483767348995,21.371483767348995 0 0,0 -0.11368382590920591,-0.34988283944386206 l 0.3542770094774217 -0.11174967543369779" fill="#ff0400" stroke="none" /><path d="M 79.97269907076064 106.31721596034903 l -0.3340720666009527 0.10537642583465569 a21.350297497571304,21.350297497571304 0 0,0 -0.10753761306059073,-0.3514391415666624 l 0.33583645216767377 -0.09961031171594548" fill="#ff0400" stroke="none" /><path d="M 79.86692584326677 105.97154293290107 l -0.5628941595229183 0.16695645255676064 a21.58713226097307,21.58713226097307 0 0,0 -0.10259784515041126,-0.3571565585413649 l 0.5656846415594337 -0.15724241851079976" fill="#ff0801" stroke="none" /><path d="M 79.76711848015287 105.62410040840567 l -1.0173924721963017 0.2828028925477201 a22.055966343457527,22.055966343457527 0 0,0 -0.09852917289622952,-0.3666637060988656 l 1.0221097214343062 -0.2652482532733155" fill="#ff0e01" stroke="none" /><path d="M 79.67330655649465 105.27499134158121 l -0.5943752176576652 0.1542466380726773 a21.6140634533355,21.6140634533355 0 0,0 -0.09035572491959677,-0.3609262062182395 l 0.5969422568723205 -0.14399259245704593" fill="#ff0801" stroke="none" /><path d="M 79.58551787078972 104.9243191809786 l -0.20867715012111085 0.05033646636095632 a21.21466232279647,21.21466232279647 0 0,0 -0.08257497582094084,-0.35573083464871125 l 0.20951269187260685 -0.04673697436367084" fill="#ff0200" stroke="none" /><path d="M 79.50377843672027 104.57218783832718 l -0.2116467030092209 0.0472130181913372 a21.216848785980943,21.216848785980943 0 0,0 -0.07644729802997287,-0.35713632578005744 l 0.2124280397636345 -0.04356287299511599" fill="#ff0200" stroke="none" /><path d="M 79.4281124754447 104.21870165774334 l -0.12061467363587991 0.024734595841460507 a21.123124732396583,21.123124732396583 0 0,0 -0.06997796206648514,-0.3568161209642413 l 0.1210225686780315 -0.022654747809264346" fill="#ff0100" stroke="none" /><path d="M 79.35854240842038 103.8639653848113 l -0.13607825429743645 0.025473087929862876 a21.13844193548676,21.13844193548676 0 0,0 -0.06387187353395812,-0.3582273868359263 l 0.13649657017058328 -0.023126950360722872" fill="#ff0100" stroke="none" /><path d="M 79.23777060512086 103.15116336523772 l -0.2929437367205805 0.04446119699734256 a21.296298550320877,21.296298550320877 0 0,0 -0.05188787262671402,-0.3629036602995027 l 0.2936656603638936 -0.03941206471743927" fill="#ff0300" stroke="none" /><path d="M 79.18660465613746 102.79330883721812 l -0.29388229722640746 0.03944113895797186 a21.296517129463666,21.296517129463666 0 0,0 -0.045633863291643394,-0.3637467899929856 l 0.294517669764899 -0.03437659467757763" fill="#ff0300" stroke="none" /><path d="M 79.1416061653843 102.43462659150553 l -0.155829270399791 0.01818865289716719 a21.15688718433175,21.15688718433175 0 0,0 -0.03910769847131663,-0.3620887176913118 l 0.15611927037215953 -0.015503613321073311" fill="#ff0100" stroke="none" /><path d="M 79.10278846688536 102.07522291339032 l -0.17324573246775427 0.017204377392383435 a21.17409788746492,21.17409788746492 0 0,0 -0.03289588057367949,-0.3630033009610409 l 0.17351620931850908 -0.014219687882776349" fill="#ff0200" stroke="none" /><path d="M 79.07016306316243 101.71520430193888 l -0.1927957637607738 0.01579965120588448 a21.193442072730644,21.193442072730644 0 0,0 -0.02666684158617168,-0.36384786653900814 l 0.1930391640112808 -0.012478648170115694" fill="#ff0200" stroke="none" /><path d="M 79.04373962182676 101.35467743843564 l -0.11055108501558264 0.007146363805499014 a21.110781825737632,21.110781825737632 0 0,0 -0.02032028268168261,-0.36283229767526287 l 0.1106577185847969 -0.005242349794798525" fill="#ff0100" stroke="none" /><path d="M 79.0235259727143 100.99374915477108 l -0.29093498556019226 0.01378288818309985 a21.291261281034018,21.291261281034018 0 0,0 -0.014192011754394529,-0.3662327625942574 l 0.2911291301657876 -0.008772878574845665" fill="#ff0300" stroke="none" /><path d="M 79.0095281055655 100.63252640178507 l -0.18430264375992228 0.005553771667603612 a21.184386303386756,21.184386303386756 0 0,0 -0.007846229939253753,-0.3645834741085752 l 0.1843709363841835 -0.002380481768899585" fill="#ff0200" stroke="none" /><line stroke="#e1ed5e" stroke-width="0.3" x1="15.007084014347285" x2="10.007500721073583" y1="101.09737516637583" y2="101.16192664675087" /><path d="M 14.007167355692545 101.11028546245083 a86.0,86.0 0 0,1 10.666146001902534,-42.60595125391555" fill="none" id="id70" stroke="none" /><text fill="#e1ed5e" style="font-size:6.75px; font-family:Arial;" text-anchor="middle"><textPath startOffset="22.20632615414155" xlink:href="#id70">October</textPath></text><path d="M 79.00175016825051 100.2711162175752 l -0.3385526711485937 0.004371179521495454 a21.338580888935358,21.338580888935358 0 0,0 -0.001580785148908378,-0.36731879713972965 l 0.33857775358700515 0.0014570958219095875" fill="#ff0400" stroke="none" /><path d="M 79.00019446554 99.90962569577889 l -1.3123521127075835 -0.005647809875402966 a22.312364265546897,22.312364265546897 0 0,0 0.0049586497721069165,-0.3840528894734472 l 1.3120604558177609 0.0282369574093221" fill="#ff1202" stroke="none" /><path d="M 79.01574976396665 99.18683210126434 l -0.20629204942243357 -0.007994094164329871 a21.206446882263734,21.206446882263734 0 0,0 0.017274561349690538,-0.3646386874845024 l 0.20612387983924424 0.011543888271841374" fill="#ff0200" stroke="none" /><path d="M 79.03285615573316 98.82574320788736 l -0.30858127788623174 -0.017281975273698864 a21.30906483418736,21.30906483418736 0 0,0 0.023662609437232928,-0.3660500946751423 l 0.30823807744458565 0.022591134201852967" fill="#ff0400" stroke="none" /><path d="M 79.05617556472873 98.46500227214037 l -0.1519853925932405 -0.011139189646069853 a21.152393048095025,21.152393048095025 0 0,0 0.029739777295137482,-0.3629006110942656 l 0.15177113147860594 0.013753717948113812" fill="#ff0100" stroke="none" /><path d="M 79.08570108090925 98.10471618934814 l -0.13924248521600066 -0.012618354026867343 a21.139813062864224,21.139813062864224 0 0,0 0.035960708816470434,-0.362119430240304 l 0.13900465071730153 0.015013314971601686" fill="#ff0100" stroke="none" /><path d="M 79.12142395522702 97.74499172005258 l -0.1393297845730236 -0.015048431328922808 a21.14014008760746,21.14014008760746 0 0,0 0.042189324215538455,-0.3614523652926221 l 0.13905010735389622 0.017444534946406656" fill="#ff0100" stroke="none" /><path d="M 79.16333360222342 97.38593545837743 l -0.24421099288194528 -0.030637496659986514 a21.24612530395304,21.24612530395304 0 0,0 0.04864755757774561,-0.36248080945725175 l 0.2436474362463658 0.03483664818189769" fill="#ff0300" stroke="none" /><path d="M 79.21141760316559 97.0276538004421 l -0.07821382228621938 -0.011182992326631282 a21.079009248281437,21.079009248281437 0 0,0 0.05444819161227201,-0.3587455531062422 l 0.07800973723464515 0.012527657824965533" fill="#ff0000" stroke="none" /><path d="M 79.26566170972629 96.67025291283419 l -0.2388183539723578 -0.03835206638227828 a21.241878248691066,21.241878248691066 0 0,0 0.06108368977392945,-0.36051939479516126 l 0.23812280267820532 0.04245724949326753" fill="#ff0300" stroke="none" /><path d="M 79.32604984820605 96.31383870115002 l -0.1635787657516309 -0.02916606217970332 a21.166158574223232,21.166158574223232 0 0,0 0.06704055786540637,-0.35813334082500237 l 0.16305248397636293 0.0319774804672784" fill="#ff0100" stroke="none" /><path d="M 79.46518482838121 95.60439243477599 l -0.10881037110985362 -0.023291550784754405 a21.111275303634827,21.111275303634827 0 0,0 0.0791226601876821,-0.3546913712268181 l 0.10839332392013393 0.025161091561531717" fill="#ff0100" stroke="none" /><path d="M 79.54389044137918 95.25157060432595 l -0.23825514451367727 -0.05530561559798321 a21.24458991190134,21.24458991190134 0 0,0 0.0857544950685343,-0.35550774487532977 l 0.2372678491843282 0.059398592132709774" fill="#ff0300" stroke="none" /><path d="M 79.62865764111835 94.90015583598534 l -1.6068307187011406 -0.40226049510943224 a22.656417358182203,22.656417358182203 0 0,0 0.09796599060953261,-0.3775029246611772 l 1.5996683962213005 0.4298598453194732" fill="#ff1702" stroke="none" /><path d="M 79.71946130924805 94.55025226153421 l -0.219080877063145 -0.05887099610723937 a21.22685287055141,21.22685287055141 0 0,0 0.09785905605289512,-0.3520510913715347 l 0.2180350504438891 0.06263339089771663" fill="#ff0200" stroke="none" /><path d="M 79.81627453868168 94.20196356495316 l -0.16485358594155042 -0.04735632673804736 a21.171520629895966,21.171520629895966 0 0,0 0.10363368904434023,-0.34940128039101626 l 0.16401399978550324 0.05018699387560282" fill="#ff0200" stroke="none" /><path d="M 79.91906864156998 93.8553929516997 l -0.06648542933328001 -0.02034401843214527 a21.069528349610774,21.069528349610774 0 0,0 0.1091045556005018,-0.3458912567620122 l 0.06612538996457436 0.02148544162057196" fill="#ff0000" stroke="none" /><path d="M 80.02781315780177 93.51064311812611 l -0.5681972422942869 -0.18461847536663464 a21.5974379361888,21.5974379361888 0 0,0 0.1179247943504569,-0.3525801253567301 l 0.5649351541720576 0.19437170364568693" fill="#ff0801" stroke="none" /><path d="M 80.2630227832202 92.82701384747504 l -0.14206159802465276 -0.05162927758613775 a21.151152505561054,21.151152505561054 0 0,0 0.12730517260024857,-0.34111457041892396 l 0.14115183692277658 0.054066985034403124" fill="#ff0100" stroke="none" /><path d="M 80.38941819471856 92.48833698450439 l -1.3299375993673483 -0.5094210450907817 a22.42416425295412,22.42416425295412 0 0,0 0.14117234060728306,-0.35926820844225066 l 1.3209717088783741 0.5322382584287958" fill="#ff1302" stroke="none" /><path d="M 80.65960295795068 91.81776055985345 l -0.16385108162598855 -0.06931961011327693 a21.177911172488585,21.177911172488585 0 0,0 0.14492678960062358,-0.3345110119896895 l 0.1626335821826842 0.07212976668956574" fill="#ff0200" stroke="none" /><path d="M 80.803312248108 91.48605970444005 l -0.218462684797201 -0.09689058233432912 a21.23898478946135,21.23898478946135 0 0,0 0.15109786274267345,-0.3329241117727952 l 0.21676250509117587 0.10063670294919523" fill="#ff0300" stroke="none" /><path d="M 80.95270993114464 91.15688171328213 l -0.29744036774692156 -0.13809315370965827 a21.32793366930967,21.32793366930967 0 0,0 0.15746292179586147,-0.33165707135374883 l 0.29501925210930857 0.14319264070393933" fill="#ff0400" stroke="none" /><path d="M 81.10775173730289 90.83032412892265 l -0.09208935911016082 -0.04469714575383548 a21.102363493980324,21.102363493980324 0 0,0 0.16142301896787495,-0.32541895607309906 l 0.09130632718887308 0.04627569032589606" fill="#ff0100" stroke="none" /><path d="M 81.43458229118936 90.18545643968196 l -0.1765858679215248 -0.09335150547298957 a21.199742515062947,21.199742515062947 0 0,0 0.1733249565947682,-0.3211448210712665 l 0.17495281210828478 0.0963773098767288" fill="#ff0200" stroke="none" /><path d="M 81.6062741919709 89.86733742301443 l -0.17476708718505057 -0.09627499846908308 a21.19953047409699,21.19953047409699 0 0,0 0.1788254681749779,-0.31811055400133403 l 0.17308397771764197 0.09926906240520171" fill="#ff0200" stroke="none" /><line stroke="#e1ed5e" stroke-width="0.3" x1="26.266209847984243" x2="21.928928074336255" y1="57.711370442889674" y2="55.22380399835377" /><path d="M 25.398753493254645 57.213857153982495 a86.0,86.0 0 0,1 29.58750427330803,-30.492523968695096" fill="none" id="id71" stroke="none" /><text fill="#e1ed5e" style="font-size:6.75px; font-family:Arial;" text-anchor="middle"><textPath startOffset="21.46611528233685" xlink:href="#id71">November</textPath></text><path d="M 81.78341655067845 89.55222093294921 l -0.17056153440337266 -0.09782236245018755 a21.1966226121619,21.1966226121619 0 0,0 0.18424944722636685,-0.31494203064569243 l 0.16885241270668086 0.10074380544977177" fill="#ff0200" stroke="none" /><path d="M 81.96595687620814 89.24020034530311 l -0.1522738604747984 -0.09085240731151134 a21.17731747939274,21.17731747939274 0 0,0 0.18947063757404997,-0.3114399102219812 l 0.1506874246145315 0.093460090740567" fill="#ff0200" stroke="none" /><path d="M 82.15384107792192 88.93136811851018 l -0.252447749018042 -0.15657437633453877 a21.2970612753437,21.2970612753437 0 0,0 0.19590497711691268,-0.3098746271169408 l 0.24971517565516668 0.1608966511656951" fill="#ff0300" stroke="none" /><path d="M 82.34701348167596 88.62581576622439 l -0.1323868731659879 -0.08529959981334582 a21.157487478597456,21.157487478597456 0 0,0 0.199891271577448,-0.3044481203643261 l 0.13089896623061967 0.08756578415533893" fill="#ff0100" stroke="none" /><path d="M 82.54541684631803 88.32363383020206 l -0.31888967715159666 -0.21332349248370563 a21.3836633141692,21.3836633141692 0 0,0 0.2072947945305595,-0.30417953213945315 l 0.3151704169522968 0.21878104789357455" fill="#ff0500" stroke="none" /><path d="M 82.7489923806493 88.02491185347247 l -1.2977318718400532 -0.9008432376095435 a22.579755218360216,22.579755218360216 0 0,0 0.22438618866615728,-0.3173783509264285 l 1.2820330633700177 0.9230480888677582" fill="#ff1602" stroke="none" /><path d="M 82.95767976084542 87.72973835380427 l -0.08579078570409189 -0.06176831397660299 a21.105713686546434,21.105713686546434 0 0,0 0.21481333830465174,-0.29300515203546235 l 0.08471483488580678 0.06323590968356606" fill="#ff0100" stroke="none" /><path d="M 83.39014120810768 87.1503855733568 l -0.20861165064781764 -0.16138483230444478 a21.263749663286877,21.263749663286877 0 0,0 0.2264548020697825,-0.28757460178341876 l 0.20580276798406413 0.1649518280409112" fill="#ff0300" stroke="none" /><path d="M 83.6137871275137 86.86637796730984 l -0.15252524610164486 -0.12224965880344402 a21.195471045876175,21.195471045876175 0 0,0 0.23062843310161274,-0.28272318916968836 l 0.1503983209236396 0.12485701758121456" fill="#ff0200" stroke="none" /><path d="M 83.84228863543731 86.58626213691792 l -0.08025356525155743 -0.06662455236223239 a21.104304677330664,21.104304677330664 0 0,0 0.23444810909310884,-0.27751261242596437 l 0.07909484267132438 0.06799611441731264" fill="#ff0100" stroke="none" /><path d="M 84.07557802195018 86.31012108654704 l -0.11320024629243278 -0.09731578746484845 a21.149280468416237,21.149280468416237 0 0,0 0.23970003956939337,-0.27401858156938047 l 0.11150834314519587 0.09924992523717206" fill="#ff0100" stroke="none" /><path d="M 84.5562425177563 85.77008943001954 l -0.10418624462084426 -0.095997424543948 a21.14166961243423,21.14166961243423 0 0,0 0.2489005522046642,-0.26550975500280416 l 0.10251837044572414 0.0977765964248023" fill="#ff0100" stroke="none" /><path d="M 84.80347519578584 85.50635884689758 l -0.06856246045675346 -0.06539124643539487 a21.094746113874177,21.094746113874177 0 0,0 0.2528714973796142,-0.26060630608185 l 0.06742669937402089 0.06656174806736852" fill="#ff0000" stroke="none" /><path d="M 85.05521093208273 85.24692304244772 l -0.10563703271743721 -0.10428191834393088 a21.148438206587237,21.148438206587237 0 0,0 0.25797489290006864,-0.2568670667258048 l 0.10382633965005539 0.10608483571984502" fill="#ff0100" stroke="none" /><path d="M 85.31137513191541 84.99185889309783 l -0.0662199730721931 -0.06766043172102156 a21.094673221421672,21.094673221421672 0 0,0 0.26169123070002653,-0.2517467565957325 l 0.06504549875973897 0.06879027507906763" fill="#ff0000" stroke="none" /><path d="M 85.57189188830299 84.74124197986013 l -0.0428930387141333 -0.045362461482863846 a21.06243048679865,21.06243048679865 0 0,0 0.265579311477293,-0.24682702613917512 l 0.04210584344198417 0.04609407369668647" fill="#ff0000" stroke="none" /><path d="M 86.10567301691215 84.25364557470407 l -0.06034085937242415 -0.06838392094569608 a21.091199670798254,21.091199670798254 0 0,0 0.2742922582892444,-0.237863543467635 l 0.05915480243640625 0.06941245783301167" fill="#ff0000" stroke="none" /><path d="M 86.37877921826538 84.01681056812374 l -0.07702768145937461 -0.0903845583293324 a21.118754503474165,21.118754503474165 0 0,0 0.27870969711660526,-0.2334113560733603 l 0.075460447383659 0.09169707179650506" fill="#ff0100" stroke="none" /><path d="M 86.65592168130627 83.78471172551755 l -0.20738130555794726 -0.25200299129313175 a21.326362549192773,21.326362549192773 0 0,0 0.28546514445520976,-0.23082629404600147 l 0.20301276253823705 0.2555353826032675" fill="#ff0400" stroke="none" /><path d="M 86.93701828274178 83.55741782278169 l -0.06409270188180029 -0.08067449993129494 a21.103035185124664,21.103035185124664 0 0,0 0.2863656197659863,-0.22351290848354546 l 0.06269452695638833 0.08176579763806215" fill="#ff0100" stroke="none" /><path d="M 87.22198572758235 83.33499621200491 l -0.13552045654619063 -0.1767449052368121 a21.22272080205867,21.22272080205867 0 0,0 0.29181629806220327,-0.2197899857141319 l 0.13245800472559743 0.17905148045679836" fill="#ff0200" stroke="none" /><path d="M 87.51073957382395 83.11751280151077 l -0.40788560956411374 -0.5513635993594633 a21.6858370718969,21.6858370718969 0 0,0 0.30200593430785905,-0.21942015498465353 l 0.398334358902473 0.5583029891607847" fill="#ff0901" stroke="none" /><path d="M 87.80319425747018 82.90503203632743 l -0.34750652580868496 -0.48706301069893393 a21.598323626368483,21.598323626368483 0 0,0 0.3045043363315344,-0.21332474719040345 l 0.33907104989349024 0.49297260065327997" fill="#ff0801" stroke="none" /><path d="M 88.09926311788651 82.69761687909137 l -0.08360782102245738 -0.12155672086231416 a21.14753407783601,21.14753407783601 0 0,0 0.30170009212368565,-0.20370924896210724 l 0.0815030344922322 0.12297788212308684" fill="#ff0100" stroke="none" /><path d="M 88.39885842347998 82.49532879139004 l -0.24269380577811536 -0.3661945892558016 a21.439316242089102,21.439316242089102 0 0,0 0.3093723698091191,-0.201224395076177 l 0.23635441018470912 0.3703179084915136" fill="#ff0500" stroke="none" /><line stroke="#e1ed5e" stroke-width="0.3" x1="56.762969772571076" x2="54.21961505331055" y1="26.818313649435495" y2="22.513508569990535" /><path d="M 56.25429882871897 25.957352633546506 a86.0,86.0 0 0,1 42.265352541879196,-11.944610805530505" fill="none" id="id72" stroke="none" /><text fill="#e1ed5e" style="font-size:6.75px; font-family:Arial;" text-anchor="middle"><textPath startOffset="22.20632615414155" xlink:href="#id72">December</textPath></text><path d="M 90.91171255644093 81.06846463323043 l -0.15215648098370732 -0.31695254126977745 a21.351582860962697,21.351582860962697 0 0,0 0.33270014930232555,-0.15620718111939622 l 0.14667812038177327 0.3195247050291813" fill="#ff0400" stroke="none" /><path d="M 91.90106846888425 80.62456947434976 l -0.030795206650410318 -0.07367272888845702 a21.079849957636267,21.079849957636267 0 0,0 0.3359888479751216,-0.1370582872666104 l 0.029522489086908275 0.0741919023386444" fill="#ff0000" stroke="none" /><path d="M 92.23578459929587 80.48803036053334 l -0.07127835564490864 -0.17912706429659775 a21.19278773079986,21.19278773079986 0 0,0 0.3401107736127552,-0.13195769622385167 l 0.06818441703247705 0.1803274644110009" fill="#ff0200" stroke="none" /><path d="M 95.692805502759 79.44645832069477 l -12.471908170258622 -59.51481516845339 a81.80757944485649,81.80757944485649 0 0,0 1.3807311483544271,-0.2769616791156474 l 11.445610612437058 59.720680803646246" fill="#4ae6ff" stroke="none" /></svg>