<?xml version="1.0" encoding="utf-8" ?>
<svg baseProfile="full" height="200mm" version="1.1" viewBox="0,0,200,200" width="200mm" xmlns="http://www.w3.org/2000/svg" xmlns:ev="http://www.w3.org/2001/xml-events" xmlns:xlink="http://www.w3.org/1999/xlink"><defs /><rect fill="#1a1a1a" height="200" width="200" x="0" y="0" /><text alignment-baseline="middle" fill="#e1ed5e" style="dominant-baseline: central; font-size:9.0px; font-family:Arial;" text-anchor="middle" x="100.0" y="100.0">2023</text><line stroke="#e1ed5e" stroke-width="0.3" x1="100.0" x2="100.0" y1="15.0" y2="10.0" /><path d="M 100.0 14.0 a86.0,86.0 0 0,1 42.46469731375804,11.215312516191453" fill="none" id="id1" stroke="none" /><text fill="#e1ed5e" style="font-size:6.75px; font-family:Arial;" text-anchor="middle"><textPath startOffset="22.20632615414155" xlink:href="#id1">January</textPath></text><line stroke="#e1ed5e" stroke-width="0.3" x1="143.23703022742887" x2="145.7803849466894" y1="26.81831364943548" y2="22.513508569990506" /><path d="M 143.74570117128098 25.957352633546492 a86.0,86.0 0 0,1 28.547481713284135,27.462654790039103" fill="none" id="id2" stroke="none" /><text fill="#e1ed5e" style="font-size:6.75px; font-family:Arial;" text-anchor="middle"><textPath startOffset="19.985693538727396" xlink:href="#id2">February</textPath></text><line stroke="#e1ed5e" stroke-width="0.3" x1="172.23445277983987" x2="176.4835382374775" y1="55.19839476539836" y2="52.563006222186495" /><path d="M 173.08426987136738 54.67131705675599 a86.0,86.0 0 0,1 12.851231095245387,41.99856678651699" fill="none" id="id3" stroke="none" /><text fill="#e1ed5e" style="font-size:6.75px; font-family:Arial;" text-anchor="middle"><textPath startOffset="22.20632615414155" xlink:href="#id3">March</textPath></text><line stroke="#e1ed5e" stroke-width="0.3" x1="184.98032266829074" x2="189.97916517819016" y1="98.17113171792111" y2="98.06355123074" /><path d="M 185.9800911702706 98.14961562048488 a86.0,86.0 0 0,1 -9.607161424134198,41.387399972396054" fill="none" id="id4" stroke="none" /><text fill="#e1ed5e" style="font-size:6.75px; font-family:Arial;" text-anchor="middle"><textPath startOffset="21.466115282336823" xlink:href="#id4">April</textPath></text><line stroke="#e1ed5e" stroke-width="0.3" x1="174.80103733775053" x2="179.2010983576182" y1="140.37084112569926" y2="142.7455964860345" /><path d="M 175.68104954172406 140.8457921977663 a86.0,86.0 0 0,1 -30.038265399797805,32.042727171017184" fill="none" id="id5" stroke="none" /><text fill="#e1ed5e" style="font-size:6.75px; font-family:Arial;" text-anchor="middle"><textPath startOffset="22.206326154141568" xlink:href="#id5">May</textPath></text><line stroke="#e1ed5e" stroke-width="0.3" x1="143.8653032363475" x2="146.44561519142675" y1="172.8068346515853" y2="177.08958963109032" /><path d="M 144.38136562736335 173.6633856474863 a86.0,86.0 0 0,1 -40.68145358897372,12.25698825130547" fill="none" id="id6" stroke="none" /><text fill="#e1ed5e" style="font-size:6.75px; font-family:Arial;" text-anchor="middle"><textPath startOffset="21.466115282336833" xlink:href="#id6">June</textPath></text><line stroke="#e1ed5e" stroke-width="0.3" x1="102.19456741930631" x2="102.32365962044197" y1="184.97166512339345" y2="189.96999836594603" /><path d="M 102.22038585953345 185.97133177190398 a86.0,86.0 0 0,1 -42.740103519485714,-10.115201625700543" fill="none" id="id7" stroke="none" /><text fill="#e1ed5e" style="font-size:6.75px; font-family:Arial;" text-anchor="middle"><textPath startOffset="22.20632615414155" xlink:href="#id7">July</textPath></text><path d="M 93.08242187328487 119.8279376855182 l -2.3482522669946784 6.730823818242472 a28.128693988499283,28.128693988499283 0 0,0 -0.45579258806278583,-0.1634310057557788 l 2.4637644156871907 -6.689405271446735" fill="#ff6008" stroke="none" /><path d="M 92.7421414339146 119.70592522655815 l -1.1998236399798132 3.2576599170699274 a24.47158823916928,24.47158823916928 0 0,0 -0.3940272728074078,-0.1489873990022727 l 1.2557211335475038 -3.2365242679610216" fill="#ff2e04" stroke="none" /><path d="M 92.40401165467489 119.57807347666478 l -2.2992902087304175 5.9262429856681536 a27.356657249619847,27.356657249619847 0 0,0 -0.4375487904806674,-0.17410969371015944 l 2.400960075252943 -5.8857864475519275" fill="#ff5607" stroke="none" /><path d="M 92.06813273071674 119.44442032107085 l -1.3731362775405926 3.366147974009472 a24.635444322173853,24.635444322173853 0 0,0 -0.39126779949553214,-0.16354997192189114 l 1.4308755365335872 -3.3420129590676075" fill="#ff3004" stroke="none" /><path d="M 91.7346041902142 119.30500536409082 l -0.13389412850033908 0.3127287462578637 a21.34018657584167,21.34018657584167 0 0,0 -0.3364425987717878,-0.14748654816497692 l 0.13925740192987016 -0.31037764479843455" fill="#ff0100" stroke="none" /><path d="M 91.40352486487194 119.15986991738527 l -0.10602597259757311 0.23631125675366665 a21.259006789358423,21.259006789358423 0 0,0 -0.33258400516676,-0.1526730045567118 l 0.11007797353175257 -0.23445118186288053" fill="#ff0000" stroke="none" /><path d="M 91.07499286063937 119.00905698771935 l -11.832555986031918 25.20174242291683 a48.841285931393784,48.841285931393784 0 0,0 -0.7579407792199635,-0.3638576340108879 l 12.264609433252124 -24.99433051240638" fill="#a0ff22" stroke="none" /><line stroke="#e1ed5e" stroke-width="0.3" x1="58.666819895761336" x2="56.23545636021788" y1="174.27360380694188" y2="178.64263932499728" /><path d="M 58.180547188652646 175.14741091055294 a86.0,86.0 0 0,1 -31.652253787137756,-30.449443065178592" fill="none" id="id8" stroke="none" /><text fill="#e1ed5e" style="font-size:6.75px; font-family:Arial;" text-anchor="middle"><textPath startOffset="22.20632615414155" xlink:href="#id8">August</textPath></text><path d="M 85.97065885151581 115.62618273729859 l -13.434408873290437 14.963534338482019 a41.109467960979856,41.109467960979856 0 0,0 -0.5224826438077823,-0.47727550717449013 l 13.689991066565074 -14.730066064720953" fill="#f8ff18" stroke="none" /><path d="M 84.9287848128048 114.62390073753433 l -45.21364556158558 43.871702212602976 a84.0,84.0 0 0,0 -0.99797379448417,-1.0463715336699995 l 45.9621259074487 -43.08692356235048" fill="#4dd2ff" stroke="none" /><path d="M 84.67929136418377 114.36230785411682 l -0.6709728219767171 0.6289995104042864 a21.919698272217705,21.919698272217705 0 0,0 -0.25568137273474,-0.2774916324191534 l 0.6817006027071861 -0.6173566231837888" fill="#ff0a01" stroke="none" /><line stroke="#e1ed5e" stroke-width="0.3" x1="26.63291911575756" x2="22.317208475507996" y1="142.92168965132927" y2="145.44649492493687" /><path d="M 25.769776987707644 143.4266507060508 a86.0,86.0 0 0,1 -11.730757126820373,-40.83630448921669" fill="none" id="id9" stroke="none" /><text fill="#e1ed5e" style="font-size:6.75px; font-family:Arial;" text-anchor="middle"><textPath startOffset="21.46611528233685" xlink:href="#id9">September</textPath></text><path d="M 81.69416730710424 110.29060199501025 l -3.7904864418266015 2.13081742823193 a25.348352605082553,25.348352605082553 0 0,0 -0.210540508374643,-0.38219217832459496 l 3.826603359652761 -2.0652547315095124" fill="#ff3a05" stroke="none" /><path d="M 81.51974371655577 109.97397251340807 l -3.0943908797217765 1.6700725956779583 a24.516304507766616,24.516304507766616 0 0,0 -0.19723657877057565,-0.3730972764885015 l 3.1226799667172385 -1.6165603041033305" fill="#ff2e04" stroke="none" /><path d="M 81.35079622478065 109.6543875284942 l -0.39255937495446075 0.2032215626701331 a21.442042833217243,21.442042833217243 0 0,0 -0.16686129344305753,-0.329233162098168 l 0.395999338183785 -0.19643418886928013" fill="#ff0300" stroke="none" /><path d="M 81.18737489456691 109.33194174019688 l -46.26988441829509 22.952026274763373 a72.64976005946025,72.64976005946025 0 0,0 -0.5460727634813267,-1.125071634181363 l 46.65811043839114 -22.152165684616726" fill="#3fffbf" stroke="none" /><line stroke="#e1ed5e" stroke-width="0.3" x1="15.007084014347285" x2="10.007500721073583" y1="101.09737516637583" y2="101.16192664675087" /><path d="M 14.007167355692545 101.11028546245083 a86.0,86.0 0 0,1 10.666146001902534,-42.60595125391555" fill="none" id="id10" stroke="none" /><text fill="#e1ed5e" style="font-size:6.75px; font-family:Arial;" text-anchor="middle"><textPath startOffset="22.20632615414155" xlink:href="#id10">October</textPath></text><path d="M 79.00175016825051 100.2711162175752 l -1.2135759328340416 0.01566893047213797 a22.213677082314796,22.213677082314796 0 0,0 -0.001645613221288663,-0.38238255807147775 l 1.2136658433448333 0.005223105803015187" fill="#ff0e01" stroke="none" /><path d="M 79.00019446554 99.90962569577889 l -2.554754372257599 -0.010994585091265345 a23.554778030176134,23.554778030176134 0 0,0 0.0052347610195534345,-0.40543800987345 l 2.5541866041203303 0.05496885302518734" fill="#ff2103" stroke="none" /><line stroke="#e1ed5e" stroke-width="0.3" x1="26.266209847984243" x2="21.928928074336255" y1="57.711370442889674" y2="55.22380399835377" /><path d="M 25.398753493254645 57.213857153982495 a86.0,86.0 0 0,1 29.58750427330803,-30.492523968695096" fill="none" id="id11" stroke="none" /><text fill="#e1ed5e" style="font-size:6.75px; font-family:Arial;" text-anchor="middle"><textPath startOffset="21.46611528233685" xlink:href="#id11">November</textPath></text><line stroke="#e1ed5e" stroke-width="0.3" x1="56.762969772571076" x2="54.21961505331055" y1="26.818313649435495" y2="22.513508569990535" /><path d="M 56.25429882871897 25.957352633546506 a86.0,86.0 0 0,1 42.265352541879196,-11.944610805530505" fill="none" id="id12" stroke="none" /><text fill="#e1ed5e" style="font-size:6.75px; font-family:Arial;" text-anchor="middle"><textPath startOffset="22.20632615414155" xlink:href="#id12">December</textPath></text></svg>