<?xml version="1.0" encoding="utf-8" ?>
<svg baseProfile="full" height="200mm" version="1.1" viewBox="0,0,200,200" width="200mm" xmlns="http://www.w3.org/2000/svg" xmlns:ev="http://www.w3.org/2001/xml-events" xmlns:xlink="http://www.w3.org/1999/xlink"><defs /><rect fill="#1a1a1a" height="200" width="200" x="0" y="0" /><text alignment-baseline="middle" fill="#e1ed5e" style="dominant-baseline: central; font-size:9.0px; font-family:Arial;" text-anchor="middle" x="100.0" y="100.0">2023</text><line stroke="#e1ed5e" stroke-width="0.3" x1="100.0" x2="100.0" y1="15.0" y2="10.0" /><path d="M 100.0 14.0 a86.0,86.0 0 0,1 42.46469731375804,11.215312516191453" fill="none" id="id73" stroke="none" /><text fill="#e1ed5e" style="font-size:6.75px; font-family:Arial;" text-anchor="middle"><textPath startOffset="22.20632615414155" xlink:href="#id73">January</textPath></text><path d="M 101.80526077348638 79.07773832637324 l 0.674013714854205 -7.811553610927311 a28.840578059314446,28.840578059314446 0 0,0 0.4942380649399846,0.04693385957355092 l -0.8083769068844339 7.798794206838583" fill="#ff6d0a" stroke="none" /><path d="M 102.52436894288641 79.15227682838746 l 0.0022823272867309647 -0.01884880084381779 a21.01898647705852,21.01898647705852 0 0,0 0.35880938446277305,0.04658375600155421 l -0.00260644025735014 0.01880672167812688" fill="#ff0000" stroke="none" /><path d="M 103.59715602781102 79.31037775812273 l 0.005290145601016143 -0.03042712444034764 a21.030883580462575,21.030883580462575 0 0,0 0.3561278480347326,0.06508008791642939 l -0.005813114738649611 0.030331555173179727" fill="#ff0000" stroke="none" /><path d="M 105.36241919743992 79.69619591428918 l 0.006224970212460793 -0.023569693263355798 a21.024377873054775,21.024377873054775 0 0,0 0.3491069020044052,0.09542410390742771 l -0.006629761440576808 0.02345904852963446" fill="#ff0000" stroke="none" /><path d="M 106.74666289553966 80.11325718540242 l 0.05016548291512032 -0.1478698539336592 a21.156147588449098,21.156147588449098 0 0,0 0.34385589983957393,0.11996457166644661 l -0.05270338681796788 0.1469844290950051" fill="#ff0200" stroke="none" /><path d="M 107.4271985657038 80.35727306442388 l 0.0049520401828062575 -0.013096670598525496 a21.01400162428929,21.01400162428929 0 0,0 0.33724153895761105,0.13084447775389166 l -0.005176744140084353 0.013009488954087026" fill="#ff0000" stroke="none" /><line stroke="#e1ed5e" stroke-width="0.3" x1="143.23703022742887" x2="145.7803849466894" y1="26.81831364943548" y2="22.513508569990506" /><path d="M 143.74570117128098 25.957352633546492 a86.0,86.0 0 0,1 28.547481713284135,27.462654790039103" fill="none" id="id74" stroke="none" /><text fill="#e1ed5e" style="font-size:6.75px; font-family:Arial;" text-anchor="middle"><textPath startOffset="19.985693538727396" xlink:href="#id74">February</textPath></text><path d="M 113.89432698308785 84.25364557470407 l 10.617882228554718 -12.033179946058612 a37.047954468831385,37.047954468831385 0 0,0 0.47454727067427055,0.426053225109177 l -10.823440486824978 11.848627712180138" fill="#ffd714" stroke="none" /><path d="M 114.16331599549186 84.49514656593476 l 5.599591963808732 -6.129980628622475 a29.302535315699544,29.302535315699544 0 0,0 0.3694800160200152,0.3433914075037878 l -5.704279863623594 6.032684635044046" fill="#ff730a" stroke="none" /><path d="M 114.68862486808459 84.99185889309783 l 0.00719641912343433 -0.007352960174208306 a21.01028856022598,21.01028856022598 0 0,0 0.25628970272780693,0.2551891132956944 l -0.007321922018563786 0.007227996228395226" fill="#ff0000" stroke="none" /><path d="M 115.4437574822437 85.77008943001954 l 0.00983232889523997 -0.009059528488113297 a21.013369732530276,21.013369732530276 0 0,0 0.24281084750880882,0.26811780237647187 l -0.009986817020084448 0.008888938842092393" fill="#ff0000" stroke="none" /><path d="M 115.9244219780498 86.31012108654704 l 0.021627173105185724 -0.018592409913426436 a21.028520384340162,21.028520384340162 0 0,0 0.23360621998744602,0.2765160812703541 l -0.02194400657974896 0.018217379013965775" fill="#ff0000" stroke="none" /><path d="M 116.15771136456269 86.58626213691792 l 0.7513856246837881 -0.6237820181453209 a21.976567643915615,21.976567643915615 0 0,0 0.23912756407712002,0.2931421187971031 l -0.762011680837317 0.6107557297401168" fill="#ff0e01" stroke="none" /><path d="M 116.60985879189232 87.15038557335679 l 0.05043518081067662 -0.03901734717164298 a21.063765671357856,21.063765671357856 0 0,0 0.21938820675273055,0.28868916369005965 l -0.05109932778752068 0.038143407600549746" fill="#ff0100" stroke="none" /><path d="M 117.04232023915458 87.72973835380427 l 0.5960338173805496 -0.4291370415888273 a21.73444871293021,21.73444871293021 0 0,0 0.21598596009087023,0.3054968233311792 l -0.6033323972753027 0.4188137179258549" fill="#ff0a01" stroke="none" /><path d="M 117.2510076193507 88.02491185347247 l 0.536195114921271 -0.37220920114354195 a21.65272114312419,21.65272114312419 0 0,0 0.20990306078273435,0.3080068410213677 l -0.5425226413727386 0.3629243368517678" fill="#ff0901" stroke="none" /><path d="M 117.45458315368197 88.32363383020206 l 0.02093904696451948 -0.0140073227444994 a21.025192236467827,21.025192236467827 0 0,0 0.19864137533150727,0.30254444263130603 l -0.021177057653951656 0.013644816135519386" fill="#ff0000" stroke="none" /><path d="M 117.65298651832404 88.62581576622439 l 0.0188276488073024 -0.012131043435669848 a21.022397378740585,21.022397378740585 0 0,0 0.19337843020590664,0.3058782366552806 l -0.019033675259164717 0.011805159066183101" fill="#ff0000" stroke="none" /><line stroke="#e1ed5e" stroke-width="0.3" x1="172.23445277983987" x2="176.4835382374775" y1="55.19839476539836" y2="52.563006222186495" /><path d="M 173.08426987136738 54.67131705675599 a86.0,86.0 0 0,1 12.851231095245387,41.99856678651699" fill="none" id="id75" stroke="none" /><text fill="#e1ed5e" style="font-size:6.75px; font-family:Arial;" text-anchor="middle"><textPath startOffset="22.20632615414155" xlink:href="#id75">March</textPath></text><path d="M 117.84615892207809 88.93136811851018 l 0.012338623250832851 -0.007652721198111858 a21.014519151678456,21.014519151678456 0 0,0 0.1880141026291412,0.30904574974263294 l -0.012468524166197995 0.007439198248397485" fill="#ff0000" stroke="none" /><path d="M 118.03404312379186 89.2402003453031 l 0.03000711220261867 -0.01790339045436974 a21.03494221190054,21.03494221190054 0 0,0 0.18284405708848467,0.3125397633361457 l -0.03031084376143063 0.017384214764328748" fill="#ff0000" stroke="none" /><path d="M 118.21658344932153 89.55222093294921 l 0.028691408370259207 -0.01645541803208793 a21.03307533366241,21.03307533366241 0 0,0 0.17742136073709078,0.3156128035438458 l -0.028970410399782973 0.015959104553448206" fill="#ff0000" stroke="none" /><path d="M 118.3937258080291 89.86733742301442 l 0.10568530640007097 -0.05821950159927927 a21.120660243474582,21.120660243474582 0 0,0 0.17267839537919774,0.31994684133444606 l -0.10667180099773353 0.056391676932374506" fill="#ff0200" stroke="none" /><path d="M 118.56541770881063 90.18545643968196 l 0.01532718228877048 -0.008102661657792031 a21.017337117489763,21.017337117489763 0 0,0 0.16632776995335952,0.3212923104840167 l -0.015464385402246357 0.007837628913430544" fill="#ff0000" stroke="none" /><path d="M 118.73160827565052 90.50648371742162 l 0.011049021227478943 -0.005599842863785428 a21.012387054136653,21.012387054136653 0 0,0 0.16073474210449937,0.3240314319157596 l -0.011143776285386434 0.00540882244907593" fill="#ff0000" stroke="none" /><path d="M 118.89224826269711 90.83032412892265 l 0.03141591470244935 -0.015248251611412368 a21.034920894515984,21.034920894515984 0 0,0 0.15529962513721618,0.32710061688121256 l -0.03167373368142172 0.014705219089659445" fill="#ff0000" stroke="none" /><path d="M 119.04729006885535 91.15688171328212 l 0.03489306347321232 -0.016199862897248077 a21.03847026691401,21.03847026691401 0 0,0 0.1496713672624985,0.32978101807136884 l -0.03516674769905779 0.015596835983816466" fill="#ff0000" stroke="none" /><path d="M 119.196687751892 91.48605970444005 l 0.02057558279047447 -0.009125495277547805 a21.022508426671543,21.022508426671543 0 0,0 0.14386332206301095,0.33205638228868106 l -0.020729614696166156 0.008769968402263973" fill="#ff0000" stroke="none" /><path d="M 119.61058180528143 92.48833698450437 l 0.012393188823577945 -0.0047471033268912406 a21.013271251606877,21.013271251606877 0 0,0 0.1264752888939914,0.3388908946783768 l -0.012473066219194598 0.004533071619181166" fill="#ff0000" stroke="none" /><path d="M 119.7369772167798 92.82701384747503 l 0.01731634473763955 -0.006293258570002172 a21.01842446467341,21.01842446467341 0 0,0 0.12065268168800511,0.34110137839683863 l -0.017422107235454214 0.005994253746548998" fill="#ff0000" stroke="none" /><path d="M 119.85752413597 93.16781622104841 l 0.022026376552221973 -0.007578399580870984 a21.023293634414312,21.023293634414312 0 0,0 0.11478989247393642,0.34320716776377747 l -0.02215356279792845 0.007198128894779528" fill="#ff0000" stroke="none" /><path d="M 119.97218684219823 93.5106431181261 l 0.06647714590175316 -0.02159973405282823 a21.06989820769087,21.06989820769087 0 0,0 0.10910647084040397,0.3458973285958913 l -0.0668391005103633 0.020452239030517814" fill="#ff0100" stroke="none" /><path d="M 120.18372546131832 94.20196356495316 l 0.034929290572299626 -0.010033890907635427 a21.036341908406555,21.036341908406555 0 0,0 0.09698077122014262,0.34889143352915225 l -0.03509683235880535 0.009431153959531282" fill="#ff0000" stroke="none" /><path d="M 120.37134235888165 94.90015583598534 l 0.015486238652328323 -0.003876887562060018 a21.01596414246885,21.01596414246885 0 0,0 0.08483163953219588,0.35168191288475803 l -0.01555067844534364 0.0036097430178958765" fill="#ff0000" stroke="none" /><path d="M 120.53481517161879 95.60439243477599 l 0.023077946978174144 -0.004939981075033178 a21.023600742567748,21.023600742567748 0 0,0 0.07270231849177447,0.354522324668772 l -0.02315956138494551 0.004542000242849373" fill="#ff0000" stroke="none" /><path d="M 120.6074358757038 95.95851677861258 l 0.014394622353214318 -0.0028230404340266937 a21.01466883464982,21.01466883464982 0 0,0 0.06656073737194161,0.35557012056263526 l -0.014441083635015216 0.0025748424088286753" fill="#ff0000" stroke="none" /><path d="M 120.67395015179393 96.31383870115 l 0.031240800918105036 -0.005570228739252496 a21.03173350107083,21.03173350107083 0 0,0 0.06047939214916333,0.3569527960064544 l -0.03133205458749139 0.005031644416960219" fill="#ff0000" stroke="none" /><path d="M 120.73433829027371 96.67025291283417 l 0.05217923000979519 -0.008379512126373136 a21.05284778394494,21.05284778394494 0 0,0 0.05438061517135755,0.35830030879315755 l -0.052315738620452634 0.007480090941133454" fill="#ff0100" stroke="none" /><path d="M 120.78858239683441 97.02765380044208 l 0.01997994916551168 -0.002856728026751461 a21.020183143057395,21.020183143057395 0 0,0 0.04813021457405845,0.3586260031713809 l -0.02002616279740633 0.0025123827907062505" fill="#ff0000" stroke="none" /><path d="M 120.83666639777658 97.38593545837742 l 0.031090854813530737 -0.0039005040242645903 a21.0313345685255,21.0313345685255 0 0,0 0.04197218131572959,0.359592017534003 l -0.031153389132849242 0.0033647481654088614" fill="#ff0000" stroke="none" /><path d="M 120.87857604477298 97.74499172005257 l 0.053593897162922476 -0.005788454231642754 a21.053905584270108,21.053905584270108 0 0,0 0.03581457252786214,0.36064785775716657 l -0.05368559537301329 0.004865065770041229" fill="#ff0100" stroke="none" /><path d="M 120.91429891909075 98.10471618934814 l 0.01655296981576871 -0.0015000539024235826 a21.016620799362002,21.016620799362002 0 0,0 0.029548884641481237,0.36057123720627937 l -0.016576338276744696 0.0012148994883754247" fill="#ff0000" stroke="none" /><path d="M 120.96714384426684 98.82574320788733 l 0.03210831989952574 -0.0017982140536348678 a21.032158634618916,21.032158634618916 0 0,0 0.017132587871382908,0.3616418517478126 l -0.032134516004405124 0.0012452556828224952" fill="#ff0000" stroke="none" /><path d="M 120.98425023603335 99.18683210126433 l 0.019115445813477402 -0.0007407492157546458 a21.019129792943172,21.019129792943172 0 0,0 0.010898224164858056,0.3616590033018555 l -0.01912536443398052 0.00041159848890004485" fill="#ff0000" stroke="none" /><line stroke="#e1ed5e" stroke-width="0.3" x1="184.98032266829074" x2="189.97916517819016" y1="98.17113171792111" y2="98.06355123074" /><path d="M 185.9800911702706 98.14961562048488 a86.0,86.0 0 0,1 -9.607161424134198,41.387399972396054" fill="none" id="id76" stroke="none" /><text fill="#e1ed5e" style="font-size:6.75px; font-family:Arial;" text-anchor="middle"><textPath startOffset="21.466115282336823" xlink:href="#id76">April</textPath></text><path d="M 120.99513854157772 99.54816195383933 l 0.02313191045039057 -0.000497823684333858 a21.023137266681818,21.023137266681818 0 0,0 0.004672134856518713,0.3618619935106355 l -0.023137052424624834 9.957211323562142e-05" fill="#ff0000" stroke="none" /><path d="M 120.99980553446 99.90962569577887 l 0.024794339171612254 -0.00010670437626577712 a21.02479456877586,21.02479456877586 0 0,0 -0.0015575395189660443,0.3619173313965296 l -0.024792502363143197 -0.0003201052239485238" fill="#ff0000" stroke="none" /><path d="M 120.99824983174949 100.27111621757518 l 0.028850621803123522 0.0003725011141703961 a21.028853026453163,21.028853026453163 0 0,0 -0.007788623840283046,0.36190674504823994 l -0.02883993527783302 -0.0008690619525251738" fill="#ff0000" stroke="none" /><path d="M 120.9904718944345 100.63252640178507 l 0.013450635197530142 0.0004053211345607325 a21.013456740780708,21.013456740780708 0 0,0 -0.01400683694259224,0.36145422350747125 l -0.013441665403734707 -0.000636791656038165" fill="#ff0000" stroke="none" /><path d="M 120.9764740272857 100.99374915477107 l 0.009280168122445713 0.0004396429645810746 a21.00929057621018,21.00929057621018 0 0,0 -0.020222591800449996,0.361087961365805 l -0.009271225434466415 -0.0005993206658094187" fill="#ff0000" stroke="none" /><path d="M 120.95626037817324 101.35467743843564 l 0.011921200355322776 0.0007706232347278392 a21.011946082122673,21.011946082122673 0 0,0 -0.026438472602336584,0.36073195319460305 l -0.011906169088648517 -0.0009757129261011413" fill="#ff0000" stroke="none" /><path d="M 120.92983693683757 101.71520430193887 l 0.013454090555628122 0.0011025653983511288 a21.013499192684627,21.013499192684627 0 0,0 -0.03264637594250892,0.3602500381469549 l -0.01343311833604386 -0.0013339920938765884" fill="#ff0000" stroke="none" /><path d="M 120.89721153311464 102.0752229133903 l 0.02197313189589067 0.002182068488757035 a21.0220812125619,21.0220812125619 0 0,0 -0.038858514777601404,0.3597815861633986 l -0.021932315617237384 -0.0025599765369470734" fill="#ff0000" stroke="none" /><path d="M 120.8583938346157 102.4346265915055 l 0.06582756998055644 0.0076835039936240255 a21.06627446871281,21.06627446871281 0 0,0 -0.04514050270874918,0.3598142207255251 l -0.06568555802495915 -0.00881547900654403" fill="#ff0100" stroke="none" /><path d="M 120.76222939487914 103.15116336523771 l 0.01207724508861031 0.0018330099120093708 a21.01221555460337,21.01221555460337 0 0,0 -0.05735158726534819,0.35712838864768837 l -0.012043903461973692 -0.002040628252902663" fill="#ff0000" stroke="none" /><path d="M 120.70491114924044 103.5080841355445 l 0.016702246522180848 0.00282990280084179 a21.016940288921678,21.016940288921678 0 0,0 -0.06350474440366284,0.3561683317041334 l -0.016651059779329302 -0.0031169852381935457" fill="#ff0000" stroke="none" /><path d="M 120.64145759157962 103.86396538481128 l 0.02248246789677208 0.004208592214616477 a21.022872988680064,21.022872988680064 0 0,0 -0.06964584204126535,0.3551226481108733 l -0.022406692879842607 -0.004594967393434708" fill="#ff0000" stroke="none" /><path d="M 120.49622156327973 104.57218783832717 l 0.02097308765828932 0.004678564584567049 a21.0214885870288,21.0214885870288 0 0,0 -0.08182307525719412,0.3524916666991557 l -0.020889446470542365 -0.005038888632287672" fill="#ff0000" stroke="none" /><path d="M 120.32669344350535 105.2749913415812 l 0.011455052428761409 0.002972706925846904 a21.011834492494934,21.011834492494934 0 0,0 -0.09386479111091175,0.34930580628308255 l -0.011402184976072429 -0.003169446384477733" fill="#ff0000" stroke="none" /><path d="M 120.23288151984713 105.62410040840565 l 0.045710397023619044 0.012706042998212697 a21.04744348137236,21.04744348137236 0 0,0 -0.10003284924593481,0.3482274713020306 l -0.04548491089158483 -0.013490989804825246" fill="#ff0100" stroke="none" /><path d="M 120.13307415673323 105.97154293290107 l 0.033303229786095394 0.009877858936183809 a21.03473725969832,21.03473725969832 0 0,0 -0.10594819283065703,0.3462448242919983 l -0.03312826444930568 -0.010449655780239243" fill="#ff0000" stroke="none" /><path d="M 120.02730092923936 106.31721596034902 l 0.03863302127257455 0.012186022442160424 a21.04050937515697,21.04050937515697 0 0,0 -0.1119232352271589,0.3444642984860228 l -0.03841753502916868 -0.012849220905978426" fill="#ff0000" stroke="none" /><path d="M 119.9155931802556 106.66101706037122 l 0.0179245086306227 0.005995074146509387 a21.018900500619598,21.018900500619598 0 0,0 -0.11771502011260863,0.3421349496267499 l -0.017818657574783278 -0.006302726862559676" fill="#ff0000" stroke="none" /><path d="M 119.67450827220406 107.3425965602758 l 0.010851539563619141 0.004049833214184849 a21.011582618873273,21.011582618873273 0 0,0 -0.12937703940066478,0.3377626245557119 l -0.010780220569447595 -0.004236024603040596" fill="#ff0000" stroke="none" /><path d="M 119.54520255179757 107.68017299344265 l 0.012123108520220334 0.0047637045667253824 a21.013025461273678,21.013025461273678 0 0,0 -0.13518118125528208,0.3355086057476247 l -0.01203931300754579 -0.004971678157163626" fill="#ff0000" stroke="none" /><line stroke="#e1ed5e" stroke-width="0.3" x1="174.80103733775053" x2="179.2010983576182" y1="140.37084112569926" y2="142.7455964860345" /><path d="M 175.68104954172406 140.8457921977663 a86.0,86.0 0 0,1 -30.038265399797805,32.042727171017184" fill="none" id="id77" stroke="none" /><text fill="#e1ed5e" style="font-size:6.75px; font-family:Arial;" text-anchor="middle"><textPath startOffset="22.206326154141568" xlink:href="#id77">May</textPath></text><path d="M 118.48025628344425 109.97397251340804 l 0.07926208376521993 0.04277851089857342 a21.090069300638476,21.090069300638476 0 0,0 -0.1751716958254216,0.31798750998169173 l -0.07851397848828877 -0.04413653927807022" fill="#ff0100" stroke="none" /><path d="M 118.30583269289576 110.29060199501025 l 0.11713668655462624 0.06584824851019905 a21.134376319226483,21.134376319226483 0 0,0 -0.18099882826558586,0.31558671351768647 l -0.11598586213666083 -0.06785480788620062" fill="#ff0200" stroke="none" /><path d="M 118.12598468904814 110.60418214915192 l 0.01275361351434097 0.007461202416642851 a21.014775797750893,21.014775797750893 0 0,0 -0.18534944622178615,0.3106563331479411 l -0.012623291594327611 -0.007679629450688074" fill="#ff0000" stroke="none" /><path d="M 117.94076556474637 110.91462005526583 l 0.013537837914054829 0.008236011817245426 a21.01584629123931,21.01584629123931 0 0,0 -0.19067913551352322,0.3074354800062965 l -0.01339406273256872 -0.00846782318881544" fill="#ff0000" stroke="none" /><path d="M 111.45004920935366 117.60387380957326 l 0.005693141891211782 0.008752918839074994 a21.010441525405653,21.010441525405653 0 0,0 -0.3048697085628549,0.19458227241583254 l -0.005541631281426454 -0.008849620078716385" fill="#ff0000" stroke="none" /><path d="M 111.1453310114006 117.79835938074945 l 0.03091888157987781 0.04937541697474847 a21.058257265981,21.058257265981 0 0,0 -0.30887529767136856,0.1897364353913672 l -0.030064383976200506 -0.04990031919449379" fill="#ff0100" stroke="none" /><line stroke="#e1ed5e" stroke-width="0.3" x1="143.8653032363475" x2="146.44561519142675" y1="172.8068346515853" y2="177.08958963109032" /><path d="M 144.38136562736335 173.6633856474863 a86.0,86.0 0 0,1 -40.68145358897372,12.25698825130547" fill="none" id="id78" stroke="none" /><text fill="#e1ed5e" style="font-size:6.75px; font-family:Arial;" text-anchor="middle"><textPath startOffset="21.466115282336833" xlink:href="#id78">June</textPath></text><path d="M 110.8373102113329 117.98757091392108 l 0.01563806308900898 0.025955773460813764 a21.03030265983581,21.03030265983581 0 0,0 -0.3116812318922942,0.18414676562786506 l -0.015188960168332679 -0.02622111138242833" fill="#ff0000" stroke="none" /><path d="M 110.5260780823613 118.17145234162733 l 0.004316660139016506 0.0074519667607809105 a21.008611931453487,21.008611931453487 0 0,0 -0.3144801459964959,0.17857003432445923 l -0.004187747221321566 -0.0075251668798685814" fill="#ff0000" stroke="none" /><path d="M 110.21172684928248 118.3499491758327 l 0.014868112681901965 0.02671723559396073 a21.03057566765428,21.03057566765428 0 0,0 -0.3178392842944634,0.17331131991243234 l -0.014406016518789876 -0.026969207266163562" fill="#ff0000" stroke="none" /><path d="M 109.89434966115114 118.52300852407294 l 0.1491200238426922 0.2791645299936559 a21.31649583933667,21.31649583933667 0 0,0 -0.3251365496950305,0.1700960758981035 l -0.1442925716211661 -0.2816900248364761" fill="#ff0400" stroke="none" /><path d="M 107.2578585660854 119.70592522655815 l 0.007184281923447538 0.01950615613419555 a21.020787112206538,21.020787112206538 0 0,0 -0.3406172702119261,0.12213323451599216 l -0.006847451081786602 -0.019626931690147835" fill="#ff0000" stroke="none" /><path d="M 106.57524785965236 119.94407469862006 l 0.004313018930385155 0.013082270594239134 a21.013774902402368,21.013774902402368 0 0,0 -0.3445044837124211,0.1102994565916912 l -0.004087190127023693 -0.013154573845636914" fill="#ff0000" stroke="none" /><path d="M 106.2309692047433 120.05430185196036 l 0.012392889242318862 0.039886369763179295 a21.041767286201733,21.041767286201733 0 0,0 -0.34681343998852254,0.10449204451451267 l -0.011704474813550468 -0.04009378338341754" fill="#ff0000" stroke="none" /><path d="M 105.18746579009965 120.34920634021253 l 0.007747128617245382 0.030390160659442753 a21.03136207688784,21.03136207688784 0 0,0 -0.35157097973655593,0.08640759313980537 l -0.007222864137478352 -0.03051901211327807" fill="#ff0000" stroke="none" /><path d="M 104.83641907484287 120.43548508189849 l 0.0031249989888645874 0.013204163913352565 a21.013568919018518,21.013568919018518 0 0,0 -0.3527076015856402,0.08027510180352918 l -0.0028972480103623298 -0.013255999294566154" fill="#ff0000" stroke="none" /><path d="M 103.06178313531738 120.77559828337769 l 0.0019525816501323812 0.013249159129109938 a21.013392266153602,21.013392266153602 0 0,0 -0.35829976060406576,0.049657081984869386 l -0.0017242298592361354 -0.0132808066065819" fill="#ff0000" stroke="none" /><path d="M 101.26447882468166 120.96189622390904 l 0.0022453056004487584 0.03722155094168353 a21.037289210929487,21.037289210929487 0 0,0 -0.3616529720658057,0.01869332770835188 l -0.0016042651211634644 -0.0372546854122373" fill="#ff0000" stroke="none" /><line stroke="#e1ed5e" stroke-width="0.3" x1="102.19456741930631" x2="102.32365962044197" y1="184.97166512339345" y2="189.96999836594603" /><path d="M 102.22038585953345 185.97133177190398 a86.0,86.0 0 0,1 -42.740103519485714,-10.115201625700543" fill="none" id="id79" stroke="none" /><text fill="#e1ed5e" style="font-size:6.75px; font-family:Arial;" text-anchor="middle"><textPath startOffset="22.20632615414155" xlink:href="#id79">July</textPath></text><path d="M 100.54218724476979 120.99299961872073 l 0.0038916859985885714 0.15068256118647466 a21.1507328081926,21.1507328081926 0 0,0 -0.3640346392947836,0.006267186450542936 l -0.0012973568111370227 -0.15072722491617727" fill="#ff0200" stroke="none" /><path d="M 99.81925306533755 120.99922214144158 l -0.0754429402544101 8.764978860440964 a29.765303535030103,29.765303535030103 0 0,0 -0.512303835244769,-0.008819775120925433 l 0.22630646539184696 -8.76238160804088" fill="#ff790b" stroke="none" /><path d="M 99.09653310690486 120.98055641714683 l -0.0010356908865702052 0.02405109832189817 a21.02407338750783,21.02407338750783 0 0,0 -0.36142577825908406,-0.01868158438364499 l 0.0014495375591431687 -0.02402970717605129" fill="#ff0000" stroke="none" /><path d="M 98.37488393609728 120.93702456842531 l -0.06980479398716492 0.899323266298491 a21.902028295880665,21.902028295880665 0 0,0 -0.3756257116069981,-0.03241056694801729 l 0.08527482333570471 -0.8979884470718104" fill="#ff0d01" stroke="none" /><path d="M 98.01472825383883 120.90594882070398 l -0.11449669691783843 1.205710044749538 a22.211134264074396,22.211134264074396 0 0,0 -0.38030475589417934,-0.03942014292075927 l 0.13523404941761108 -1.2035605333730177" fill="#ff1101" stroke="none" /><path d="M 95.86986931433489 120.58985236759428 l -0.004909395887975792 0.024474706550651874 a21.024962240058244,21.024962240058244 0 0,0 -0.3542291030313016,-0.07423215264526772 l 0.005329960348664177 -0.024386573178842963" fill="#ff0000" stroke="none" /><path d="M 95.51606077576429 120.51570834832081 l -0.0020824911847199964 0.009528180389409 a21.009753101612695,21.009753101612695 0 0,0 -0.3526435540261563,-0.0802605247875094 l 0.0022461946037389954 -0.009490922024212851" fill="#ff0000" stroke="none" /><path d="M 94.11515582081647 120.15858648285463 l -0.008505809102279521 0.02913672531916434 a21.03035288373135,21.03035288373135 0 0,0 -0.34662530616248394,-0.10443536133601254 l 0.00900608970500932 -0.028985994877426213" fill="#ff0000" stroke="none" /><path d="M 93.76903079525671 120.05430185196036 l -0.23547375865720183 0.7578695511337775 a21.793608308645936,21.793608308645936 0 0,0 -0.3572892454340728,-0.11439273356549565 l 0.248484349182215 -0.7537039709085753" fill="#ff0b01" stroke="none" /><path d="M 93.42475214034765 119.94407469862007 l -6.350740594668619 19.263098139440565 a41.28296960581686,41.28296960581686 0 0,0 -0.672971905252556,-0.2283086086664353 l 6.681382232858401 -19.150926543876007" fill="#f4ff19" stroke="none" /><path d="M 93.08242187328487 119.8279376855182 l -1.1670907724709725 3.3452463688887093 a24.5429894354556,24.5429894354556 0 0,0 -0.39769043945508614,-0.1425976424404893 l 1.2245007725557853 -3.324661185408262" fill="#ff3204" stroke="none" /><path d="M 92.7421414339146 119.70592522655815 l -0.5964790557104145 1.6195096065887067 a22.725861706433715,22.725861706433715 0 0,0 -0.3659186000870844,-0.13835910414296215 l 0.6242678765577817 -1.6090022523391114" fill="#ff1902" stroke="none" /><path d="M 92.40401165467489 119.57807347666478 l -1.142237344473862 2.9440285636644936 a24.157849004430567,24.157849004430567 0 0,0 -0.38638630136911467,-0.15375108341923371 l 1.1927447218848348 -2.923930635839193" fill="#ff2d04" stroke="none" /><path d="M 92.06813273071674 119.44442032107085 l -0.683786191087761 1.6762542359657937 a22.810356820827202,22.810356820827202 0 0,0 -0.36228119137107634,-0.15143356737498503 l 0.7125388419562996 -1.6642356255708355" fill="#ff1a02" stroke="none" /><path d="M 91.7346041902142 119.30500536409082 l -0.06978838111504787 0.16300067205276758 a21.177312259103292,21.177312259103292 0 0,0 -0.33387477406220095,-0.14636088927370616 l 0.07258382983499213 -0.1617752294846092" fill="#ff0200" stroke="none" /><path d="M 91.40352486487194 119.15986991738527 l -12.538728097588253 27.946384477697446 a51.63037883671271,51.63037883671271 0 0,0 -0.8077253256434589,-0.3707870805774404 l 13.017921418999132 -27.72641032678593" fill="#81ff25" stroke="none" /><path d="M 90.7491055286396 118.85261126421891 l -8.126153715150291 16.560476129016745 a39.44678139464943,39.44678139464943 0 0,0 -0.6070034886749214,-0.3043641504073247 l 8.410011111507973 -16.418144137700118" fill="#fff417" stroke="none" /><path d="M 90.42595943632237 118.69057910512821 l -0.016200887284440867 0.03162760418123747 a21.035535532851615,21.035535532851615 0 0,0 -0.3208511143523587,-0.1678541386690001 l 0.01674290416329519 -0.03134404656752061" fill="#ff0000" stroke="none" /><line stroke="#e1ed5e" stroke-width="0.3" x1="58.666819895761336" x2="56.23545636021788" y1="174.27360380694188" y2="178.64263932499728" /><path d="M 58.180547188652646 175.14741091055294 a86.0,86.0 0 0,1 -31.652253787137756,-30.449443065178592" fill="none" id="id80" stroke="none" /><text fill="#e1ed5e" style="font-size:6.75px; font-family:Arial;" text-anchor="middle"><textPath startOffset="22.20632615414155" xlink:href="#id80">August</textPath></text><path d="M 88.54995079064634 117.60387380957326 l -0.012477692832015608 0.019183824107059762 a21.02288475312912,21.02288475312912 0 0,0 -0.3016536705519855,-0.19991960416995405 l 0.012806062123962918 -0.018966198845787298" fill="#ff0000" stroke="none" /><path d="M 87.65650970185807 116.9893568818739 l -0.005012380062555717 0.006898949296631862 a21.00852757030396,21.00852757030396 0 0,0 -0.2907330410145854,-0.21507735329722252 l 0.005130391495705408 -0.006811647259642628" fill="#ff0000" stroke="none" /><path d="M 87.07902340077011 116.55440617244103 l -0.03218299030163817 0.041232974087175654 a21.052305860253217,21.052305860253217 0 0,0 -0.2837474968936727,-0.22542617237914248 l 0.032887979912668924 -0.04067288770290254" fill="#ff0100" stroke="none" /><path d="M 86.79598089348748 116.32954008644616 l -0.02877501428542132 0.035586342724246094 a21.045764497545736,21.045764497545736 0 0,0 -0.279738168518033,-0.23020546821278615 l 0.02938331134814314 -0.03508575565427923" fill="#ff0100" stroke="none" /><path d="M 86.51685102203217 116.09983520530335 l -0.022414502565815012 0.02676450420507484 a21.03491058021025,21.03491058021025 0 0,0 -0.27559190941573225,-0.2348654040428804 l 0.022871888558603868 -0.02637470993924297" fill="#ff0000" stroke="none" /><path d="M 86.24171649860922 115.8653595955263 l -0.05456064317545005 0.06291658575389944 a21.083278812111164,21.083278812111164 0 0,0 -0.2721325689440593,-0.2401253517818866 l 0.055635565026097025 -0.061968092199724004" fill="#ff0100" stroke="none" /><path d="M 85.97065885151581 115.62618273729859 l -14.309769419287173 15.938529793221841 a42.419762669147076,42.419762669147076 0 0,0 -0.539135893709736,-0.4924878561151806 l 14.582004862463764 -15.689849170520086" fill="#e7ff1a" stroke="none" /><path d="M 85.70375840098266 115.38237550388516 l -0.549620564236669 0.5913771004210507 a21.807347285580526,21.807347285580526 0 0,0 -0.272762318043652,-0.25791379667575465 l 0.559718716671138 -0.5818286669993653" fill="#ff0b01" stroke="none" /><path d="M 84.9287848128048 114.62390073753433 l -45.21364556158558 43.871702212602976 a84.0,84.0 0 0,0 -0.99797379448417,-1.0463715336699995 l 45.9621259074487 -43.08692356235048" fill="#4dd2ff" stroke="none" /><path d="M 84.67929136418377 114.36230785411682 l -0.33468828559887887 0.31375155726806747 a21.458755150603515,21.458755150603515 0 0,0 -0.25030472162288014,-0.27165633953872087 l 0.340039415217488 -0.30794396292800247" fill="#ff0601" stroke="none" /><path d="M 84.43433777217949 114.09645910891817 l -0.11112242909410329 0.10063386670494498 a21.14991787543773,21.14991787543773 0 0,0 -0.2420569329536132,-0.27195353020131485 l 0.11283821169605476 -0.098706166762766" fill="#ff0200" stroke="none" /><path d="M 83.95833913139862 113.55231037782056 l -0.17412341361631112 0.14710288197107457 a21.22794346021238,21.22794346021238 0 0,0 -0.2334103361427087,-0.2811577860992203 l 0.17662974965255623 -0.1440838387580931" fill="#ff0300" stroke="none" /><path d="M 83.50135304334701 112.99209946851258 l -0.06021064487738054 0.04741374788886991 a21.07663801436245,21.07663801436245 0 0,0 -0.222000411654261,-0.28696545801978013 l 0.06101787374970997 -0.04637029575583707" fill="#ff0100" stroke="none" /><path d="M 83.28015986056508 112.70617746262583 l -0.0870810371866431 0.0661768954066329 a21.109373161804722,21.109373161804722 0 0,0 -0.21736495777949622,-0.2911958822193669 l 0.08820726166122438 -0.06466813367795801" fill="#ff0100" stroke="none" /><path d="M 83.06392112726016 112.41649034213515 l -0.013938428008096741 0.010218797281680429 a21.017283043517303,21.017283043517303 0 0,0 -0.21139404229296901,-0.29360783569950477 l 0.014112262676673221 -0.00997735613103747" fill="#ff0000" stroke="none" /><path d="M 82.85270091963577 112.12312394758628 l -0.01810504670947759 0.012800250599651508 a21.022172936922434,21.022172936922434 0 0,0 -0.2063567456522824,-0.29727228292546803 l 0.018322699523893867 -0.012486705487170888" fill="#ff0000" stroke="none" /><path d="M 82.6465618267979 111.8261652097733 l -0.0180985497981178 0.012333950069927596 a21.02190168553154,21.02190168553154 0 0,0 -0.2012065217691796,-0.3007764499855553 l 0.0183081769780278 -0.01202058587855141" fill="#ff0000" stroke="none" /><path d="M 82.44556493220864 111.52570212397912 l -0.018179717999333104 0.011936243664297979 a21.02174801276781,21.02174801276781 0 0,0 -0.1959979059149139,-0.30419310252258835 l 0.01838248729129267 -0.01162154122026133" fill="#ff0000" stroke="none" /><path d="M 82.24976979558568 111.22182372390057 l -0.12522452431148895 0.07916784861659752 a21.148151036930624,21.148151036930624 0 0,0 -0.19187955134181278,-0.3093709325422181 l 0.12656871532125766 -0.07700058470911524" fill="#ff0200" stroke="none" /><path d="M 82.05923443525364 110.91462005526583 l -0.07080852918479515 0.04307777112047486 a21.082882701271267,21.082882701271267 0 0,0 -0.18595014627077902,-0.3116631409822563 l 0.07153955115380604 -0.04185253625210748" fill="#ff0100" stroke="none" /><line stroke="#e1ed5e" stroke-width="0.3" x1="26.63291911575756" x2="22.317208475507996" y1="142.92168965132927" y2="145.44649492493687" /><path d="M 25.769776987707644 143.4266507060508 a86.0,86.0 0 0,1 -11.730757126820373,-40.83630448921669" fill="none" id="id81" stroke="none" /><text fill="#e1ed5e" style="font-size:6.75px; font-family:Arial;" text-anchor="middle"><textPath startOffset="21.46611528233685" xlink:href="#id81">September</textPath></text><path d="M 81.87401531095188 110.60418214915194 l -0.040937322469735714 0.023949420217150408 a21.047428252126014,21.047428252126014 0 0,0 -0.18025418844147256,-0.3142883712184715 l 0.0413435070635855 -0.023241203140371997" fill="#ff0100" stroke="none" /><path d="M 81.69416730710424 110.29060199501025 l -1.8836510045839485 1.0588921635450796 a23.160877997733166,23.160877997733166 0 0,0 -0.19237159526761852,-0.3492103235177872 l 1.9015990093030837 -1.02631132162947" fill="#ff1f03" stroke="none" /><path d="M 81.51974371655577 109.97397251340807 l -1.5531369626833658 0.8382429949978419 a22.76490389073067,22.76490389073067 0 0,0 -0.18314635299240375,-0.3464438793564262 l 1.5673358239006556 -0.8113841005552895" fill="#ff1902" stroke="none" /><path d="M 81.35079622478065 109.6543875284942 l -0.20360599930267612 0.10540349304383284 a21.2292712352169,21.2292712352169 0 0,0 -0.1652055116536805,-0.325966147543668 l 0.20539018074262333 -0.10188313379747989" fill="#ff0300" stroke="none" /><path d="M 81.18737489456691 109.33194174019688 l -22.96502257166995 11.391725051664274 a46.63520355624323,46.63520355624323 0 0,0 -0.350534048022032,-0.7222039636808251 l 23.157709876306704 -10.994732132018164" fill="#b7ff1f" stroke="none" /><path d="M 80.73074385275274 108.34839909993369 l -0.036481783035041675 0.015805720902061237 a21.039758537531576,21.039758537531576 0 0,0 -0.141115683141053,-0.3335557900465326 l 0.03674844736840126 -0.015175405189369825" fill="#ff0000" stroke="none" /><path d="M 80.45479744820244 107.68017299344265 l -0.016699789699181476 0.006562084660106508 a21.017942796077627,21.017942796077627 0 0,0 -0.12941620165282064,-0.3378648648383148 l 0.016810270945511203 -0.006273652988633879" fill="#ff0000" stroke="none" /><path d="M 80.32549172779594 107.34259656027581 l -0.01643911881715902 0.006135137692430621 a21.017546639051105,21.017546639051105 0 0,0 -0.1235789096720951,-0.3400360843878234 l 0.01654228949447853 -0.005851256298490082" fill="#ff0000" stroke="none" /><path d="M 79.67330655649465 105.27499134158121 l -0.05346375736795335 0.013874408938580322 a21.05523470444652,21.05523470444652 0 0,0 -0.0880195896148777,-0.35159450694301325 l 0.05369466127788958 -0.012952062598175206" fill="#ff0100" stroke="none" /><path d="M 79.58551787078972 104.9243191809786 l -0.03592281295375736 0.008665191492160424 a21.03695313294034,21.03695313294034 0 0,0 -0.0818832687443799,-0.3527509786665428 l 0.036066647628692425 -0.008045555477043349" fill="#ff0000" stroke="none" /><path d="M 79.50377843672027 104.57218783832718 l -0.015659102476938302 0.00349314909985388 a21.016043988937202,21.016043988937202 0 0,0 -0.07572377003011295,-0.35375624383958576 l 0.01571691123149201 -0.0032230858441043126" fill="#ff0000" stroke="none" /><path d="M 79.35854240842038 103.8639653848113 l -0.014724260785795192 0.002756299245866051 a21.01498002140255,21.01498002140255 0 0,0 -0.06349882126327924,-0.35613511158729977 l 0.014769524388263141 -0.002502436925352583" fill="#ff0000" stroke="none" /><path d="M 79.29508885075956 103.50808413554451 l -0.06738144294655657 0.011416603979949183 a21.068341771267615,21.068341771267615 0 0,0 -0.05750478042122837,-0.3580823225755943 l 0.0675679777290757 -0.01025505171114121" fill="#ff0100" stroke="none" /><path d="M 79.23777060512086 103.15116336523772 l -0.04357801595016743 0.006614002994581213 a21.044077074650723,21.044077074650723 0 0,0 -0.051273341619254155,-0.3586056318646289 l 0.04368540858602059 -0.005862899149551737" fill="#ff0100" stroke="none" /><path d="M 79.18660465613746 102.79330883721812 l -0.07168728698452292 0.009620954627621957 a21.072330006796268,21.072330006796268 0 0,0 -0.04515347842658032,-0.35991764996354814 l 0.07184227465795137 -0.008385550376665184" fill="#ff0100" stroke="none" /><path d="M 79.1416061653843 102.43462659150553 l -0.10371134714953004 0.012105361784476031 a21.104415436174463,21.104415436174463 0 0,0 -0.039010706447522234,-0.3611906920110801 l 0.10390435509810415 -0.010318347888613801" fill="#ff0100" stroke="none" /><path d="M 79.10278846688536 102.07522291339032 l -0.019371721908623442 0.0019237323177255874 a21.01946700685096,21.01946700685096 0 0,0 -0.0326556474828194,-0.3603523488217004 l 0.01940196566851818 -0.001589994947459017" fill="#ff0000" stroke="none" /><path d="M 79.07016306316243 101.71520430193888 l -0.05902977549870851 0.004837501848839985 a21.059227660932756,21.059227660932756 0 0,0 -0.02649796507966967,-0.36154368078079746 l 0.05910429924271353 -0.0038206845712819046" fill="#ff0100" stroke="none" /><path d="M 79.04373962182676 101.35467743843564 l -0.06570494976954973 0.004247371021361353 a21.065842088247656,21.065842088247656 0 0,0 -0.02027702572526219,-0.36205991565999657 l 0.06576832638234355 -0.003115739025927199" fill="#ff0100" stroke="none" /><path d="M 79.0235259727143 100.99374915477108 l -0.39306002031502324 0.018621006678923736 a21.393500853188126,21.393500853188126 0 0,0 -0.01426016108526897,-0.3679913940093821 l 0.39332231425149305 -0.011852365655544882" fill="#ff0600" stroke="none" /><path d="M 79.0095281055655 100.63252640178507 l -0.31939664182597494 0.009624691127119762 a21.31954162403199,21.31954162403199 0 0,0 -0.007896288492195008,-0.36690949836244846 l 0.3195149930031774 -0.004125376974542455" fill="#ff0400" stroke="none" /><line stroke="#e1ed5e" stroke-width="0.3" x1="15.007084014347285" x2="10.007500721073583" y1="101.09737516637583" y2="101.16192664675087" /><path d="M 14.007167355692545 101.11028546245083 a86.0,86.0 0 0,1 10.666146001902534,-42.60595125391555" fill="none" id="id82" stroke="none" /><text fill="#e1ed5e" style="font-size:6.75px; font-family:Arial;" text-anchor="middle"><textPath startOffset="22.20632615414155" xlink:href="#id82">October</textPath></text><path d="M 79.00175016825051 100.2711162175752 l -1.0069381202547136 0.013000952778596362 a22.007022046826805,22.007022046826805 0 0,0 -0.001630303992772162,-0.37882523251860195 l 1.0070127215369888 0.0043337579436809924" fill="#ff0e01" stroke="none" /><path d="M 79.00019446554 99.90962569577889 l -1.9583109468924658 -0.008427744199039832 a22.958329081536387,22.958329081536387 0 0,0 0.0051022075434606845,-0.39517159707101096 l 1.9578757322312896 0.042135599330522765" fill="#ff1c02" stroke="none" /><path d="M 79.00486145842228 99.54816195383935 l -0.6246213205116111 -0.013442525110817487 a21.624765952592668,21.624765952592668 0 0,0 0.011212240905571077,-0.37207969017234804 l 0.6242973851503949 0.024192362708159946" fill="#ff0901" stroke="none" /><path d="M 79.01574976396665 99.18683210126434 l -0.038521700907566785 -0.0014927676819703562 a21.038550613434346,21.038550613434346 0 0,0 0.017137794713941522,-0.361751759964801 l 0.03849029796012646 0.0021556342697804562" fill="#ff0000" stroke="none" /><path d="M 79.03285615573316 98.82574320788736 l -0.07386317167646553 -0.0041366783989412155 a21.07397891752576,21.07397891752576 0 0,0 0.023401558740102725,-0.3620117559343117 l 0.07378102193194962 0.005407498586264651" fill="#ff0100" stroke="none" /><path d="M 79.05617556472873 98.46500227214037 l -0.054398205948350216 -0.003986909018857828 a21.054544112917196,21.054544112917196 0 0,0 0.02960220394662139,-0.36122186778185555 l 0.05432151818223175 0.004922694008491779" fill="#ff0100" stroke="none" /><path d="M 79.08570108090925 98.10471618934814 l -0.016532917214111847 -0.0014982367068566216 a21.016600664590264,21.016600664590264 0 0,0 0.035751113529902255,-0.36000883430793573 l 0.01650467800198092 0.001782601719222646" fill="#ff0000" stroke="none" /><path d="M 79.12142395522702 97.74499172005258 l -0.03970806599674316 -0.004288703281839553 a21.039938996995936,21.039938996995936 0 0,0 0.04198935315191063,-0.35973913533972945 l 0.03962835984124362 0.004971576946430758" fill="#ff0000" stroke="none" /><path d="M 79.16333360222342 97.38593545837743 l -0.021395440241930703 -0.0026841655292232126 a21.021563153937546,21.021563153937546 0 0,0 0.04813337440474943,-0.35864954758024814 l 0.021346066779347417 0.0030520551741307785" fill="#ff0000" stroke="none" /><path d="M 79.21141760316559 97.0276538004421 l -0.013312445651026449 -0.0019034100778163212 a21.01344783176337,21.01344783176337 0 0,0 0.05427884301875409,-0.3576297574654617 l 0.013277709192970139 0.0021322799353701194" fill="#ff0000" stroke="none" /><path d="M 79.26566170972629 96.67025291283419 l -0.013441251977721658 -0.002158543426566692 a21.013613469963715,21.013613469963715 0 0,0 0.060427285723079795,-0.35664526093014365 l 0.013402104734418843 0.0023895926725382996" fill="#ff0000" stroke="none" /><path d="M 79.32604984820605 96.31383870115002 l -0.015912592256637603 -0.0028372121104155643 a21.016163550503695,21.016163550503695 0 0,0 0.06656547165493837,-0.3555954112917132 l 0.015861396691837622 0.003110700864701451" fill="#ff0000" stroke="none" /><path d="M 79.3925641242962 95.95851677861259 l -0.024350555355673577 -0.00477557525812556 a21.024814424538476,21.024814424538476 0 0,0 0.07270651556031249,-0.35454279106551995 l 0.02426474388036651 0.005194022487047977" fill="#ff0000" stroke="none" /><path d="M 79.46518482838121 95.60439243477599 l -0.029563156302425838 -0.006328181306177239 a21.030232864389692,21.030232864389692 0 0,0 0.07881892233722312,-0.35332977400021787 l 0.029449846963165122 0.006836124856354335" fill="#ff0000" stroke="none" /><path d="M 79.54389044137918 95.25157060432595 l -0.032183320557745754 -0.007470639759181272 a21.033039016034593,21.033039016034593 0 0,0 0.08490056282829907,-0.35196764444374595 l 0.03204995746863192 0.00802351586232403" fill="#ff0000" stroke="none" /><path d="M 79.62865764111835 94.90015583598534 l -0.05825903587799227 -0.014584802458732525 a21.06005690405102,21.06005690405102 0 0,0 0.09106335323370911,-0.3509042470891324 l 0.05799935077397581 0.015585475096728758" fill="#ff0100" stroke="none" /><path d="M 79.81627453868168 94.20196356495316 l -0.06438352101706994 -0.018494999914113658 a21.0669873331338,21.0669873331338 0 0,0 0.10312200302231057,-0.34767612949747956 l 0.06405562088305242 0.019600516158132446" fill="#ff0100" stroke="none" /><path d="M 79.91906864156998 93.8553929516997 l -0.009333645272256835 -0.0028560220391455025 a21.009760829675617,21.009760829675617 0 0,0 0.10879506083661024,-0.344910073783405 l 0.009283100667442742 0.003016262248964984" fill="#ff0000" stroke="none" /><path d="M 80.02781315780177 93.51064311812611 l -0.011379190495526782 -0.003697323119182934 a21.011964788948458,21.011964788948458 0 0,0 0.11472803551776474,-0.34302222333812493 l 0.011313861205989652 0.0038926493796300286" fill="#ff0000" stroke="none" /><path d="M 80.14247586403 93.16781622104843 l -0.1115294918341997 -0.03837285956531001 a21.117946190697342,21.117946190697342 0 0,0 0.12122396918632299,-0.34271648508498864 l 0.11085244183806717 0.04028697107690971" fill="#ff0200" stroke="none" /><path d="M 80.38941819471856 92.48833698450439 l -0.05611548693888743 -0.021494549831349012 a21.060091293436244,21.060091293436244 0 0,0 0.13258475757489097,-0.3374137463172711 l 0.05573717948230536 0.022457301044383534" fill="#ff0100" stroke="none" /><path d="M 80.52162464483688 92.15188598940014 l -0.009859788665066335 -0.003972648855611535 a21.010630022175413,21.010630022175413 0 0,0 0.13804815656752054,-0.3342945610098054 l 0.009789945211346063 0.004141780318728228" fill="#ff0000" stroke="none" /><path d="M 80.65960295795068 91.81776055985345 l -0.14788690572534927 -0.06256573068672475 a21.160577107774994,21.160577107774994 0 0,0 0.14480816740369354,-0.3342372156042948 l 0.14678802847897499 0.06510209087761883" fill="#ff0200" stroke="none" /><path d="M 81.10775173730289 90.83032412892265 l -0.010247360132153112 -0.004973731534725746 a21.011390627509385,21.011390627509385 0 0,0 0.1607271199158996,-0.3240160660486525 l 0.010160227262840724 0.005149386082339765" fill="#ff0000" stroke="none" /><path d="M 81.26839172434947 90.50648371742162 l -0.01943097053164771 -0.00984796566391424 a21.02178405479977,21.02178405479977 0 0,0 0.16636296228823097,-0.32136029087349793 l 0.019258575083302712 0.010180978797747665" fill="#ff0000" stroke="none" /><path d="M 81.43458229118936 90.18545643968196 l -0.027518096113795888 -0.014547345890186839 a21.03112669089667,21.03112669089667 0 0,0 0.17194638653034192,-0.3185905401103922 l 0.027263610364982156 0.015018869333051733" fill="#ff0000" stroke="none" /><path d="M 81.6062741919709 89.86733742301443 l -0.03747013252316448 -0.020641397699123393 a21.042779412458295,21.042779412458295 0 0,0 0.17750321804218774,-0.31575841855573494 l 0.03710927318854609 0.021283326189642914" fill="#ff0000" stroke="none" /><line stroke="#e1ed5e" stroke-width="0.3" x1="26.266209847984243" x2="21.928928074336255" y1="57.711370442889674" y2="55.22380399835377" /><path d="M 25.398753493254645 57.213857153982495 a86.0,86.0 0 0,1 29.58750427330803,-30.492523968695096" fill="none" id="id83" stroke="none" /><text fill="#e1ed5e" style="font-size:6.75px; font-family:Arial;" text-anchor="middle"><textPath startOffset="21.46611528233685" xlink:href="#id83">November</textPath></text><path d="M 81.78341655067845 89.55222093294921 l -0.01368198765794715 -0.007847046876052454 a21.015772537238732,21.015772537238732 0 0,0 0.18267742667643633,-0.3122549379479129 l 0.013544886511185864 0.008081397177857181" fill="#ff0000" stroke="none" /><path d="M 81.96595687620814 89.24020034530311 l -0.02144647379775072 -0.012795786268197872 a21.024973653809145,21.024973653809145 0 0,0 0.18810763766663105,-0.30919949675087954 l 0.02122303784490274 0.013163056226151862" fill="#ff0000" stroke="none" /><path d="M 82.15384107792192 88.93136811851018 l -0.008558836703377377 -0.005308403517928371 a21.010071386876902,21.010071386876902 0 0,0 0.19326504727842533,-0.3056988920929758 l 0.008466193178989376 0.005454943325119684" fill="#ff0000" stroke="none" /><path d="M 82.7489923806493 88.02491185347247 l -0.013506363664874468 -0.009375678162967261 a21.01644156928226,21.01644156928226 0 0,0 0.20885076819706597,-0.29540460040845584 l 0.013342975663930275 0.009606778903209276" fill="#ff0000" stroke="none" /><path d="M 82.95767976084542 87.72973835380427 l -0.0073971862199402995 -0.005325883394431723 a21.009115009484557,21.009115009484557 0 0,0 0.21383015978704006,-0.2916640976423583 l 0.007304413919266842 0.005452424708290711" fill="#ff0000" stroke="none" /><path d="M 83.17141714833178 87.43820079747576 l -0.02047246890904903 -0.015281800367991233 a21.02554712128047,21.02554712128047 0 0,0 0.21899014406551268,-0.2881653598540655 l 0.02020638461942752 0.015631936103083305" fill="#ff0000" stroke="none" /><path d="M 85.05521093208273 85.24692304244772 l -0.008914551915133122 -0.008800195830691806 a21.01252647925421,21.01252647925421 0 0,0 0.25631700152482373,-0.2552162948630013 l 0.008761750222996207 0.008952341343802466" fill="#ff0000" stroke="none" /><path d="M 85.57189188830299 84.74124197986013 l -0.023691453901837408 -0.025055409859339905 a21.034482728302766,21.034482728302766 0 0,0 0.26522691404323034,-0.24649951112987367 l 0.02325665606375091 0.025459507063861082" fill="#ff0000" stroke="none" /><path d="M 85.83668400450813 84.49514656593479 l -0.008035755515497362 -0.0087968955532324 a21.011914643850293,21.011914643850293 0 0,0 0.26914162708414463,-0.2416380101973882 l 0.007883140835381358 0.00893391451989939" fill="#ff0000" stroke="none" /><path d="M 86.10567301691215 84.25364557470407 l -0.02516026425337313 -0.028513971122887054 a21.03802743018528,21.03802743018528 0 0,0 0.27360075025823255,-0.23726387451737482 l 0.02466571534836708 0.028942839059942466" fill="#ff0000" stroke="none" /><path d="M 86.37877921826538 84.01681056812374 l -0.00847239071240864 -0.009941533719127602 a21.013061986719954,21.013061986719954 0 0,0 0.27731484547764085,-0.23224320793951328 l 0.008300008275657427 0.010085899052453258" fill="#ff0000" stroke="none" /><path d="M 86.65592168130627 83.78471172551755 l -0.015796171869166514 -0.019194992293546365 a21.024858937524954,21.024858937524954 0 0,0 0.2814293520475739,-0.2275629639229092 l 0.015463421257092139 0.019464053480589882" fill="#ff0000" stroke="none" /><path d="M 86.93701828274178 83.55741782278169 l -0.006943577663214921 -0.008739991282424598 a21.0111624691884,21.0111624691884 0 0,0 0.28511891818927576,-0.22253983812807016 l 0.0067921043145135074 0.008858218633716495" fill="#ff0000" stroke="none" /><path d="M 87.22198572758235 83.33499621200491 l -0.010017494626037514 -0.013064751872244509 a21.016463229940264,21.016463229940264 0 0,0 0.2889802186686011,-0.2176539095129627 l 0.009791122199046499 0.013235250891061555" fill="#ff0000" stroke="none" /><path d="M 87.51073957382395 83.11751280151077 l -0.10915490513893616 -0.14755127411692753 a21.183537930165453,21.183537930165453 0 0,0 0.29501070875591445,-0.21433782612817598 l 0.10659888002924 0.14940833506177137" fill="#ff0300" stroke="none" /><path d="M 87.80319425747018 82.90503203632743 l -0.004863885573744902 -0.006817192125328706 a21.008374454689598,21.008374454689598 0 0,0 0.2961869278095091,-0.20749787099016262 l 0.004745818180575497 0.006899905879433905" fill="#ff0000" stroke="none" /><path d="M 88.39885842347998 82.49532879139004 l -0.013426975185721113 -0.02025962569303595 a21.024305063173337,21.024305063173337 0 0,0 0.30338369971961365,-0.19732919746426666 l 0.013076249681820301 0.020487747316837626" fill="#ff0000" stroke="none" /><path d="M 88.70189139769569 82.29822771554957 l -0.012723544887952153 -0.01993513270102356 a21.02364948435639,21.02364948435639 0 0,0 0.3067258832974278,-0.1920717199817635 l 0.01237850921828214 0.020151194005717292" fill="#ff0000" stroke="none" /><path d="M 89.00827224532344 82.1063720568725 l -0.00469502333313753 -0.007643111490977555 a21.008969971982243,21.008969971982243 0 0,0 0.30977019300095404,-0.1866330752407307 l 0.0045627641145343295 0.007722796190327487" fill="#ff0000" stroke="none" /><line stroke="#e1ed5e" stroke-width="0.3" x1="56.762969772571076" x2="54.21961505331055" y1="26.818313649435495" y2="22.513508569990535" /><path d="M 56.25429882871897 25.957352633546506 a86.0,86.0 0 0,1 42.265352541879196,-11.944610805530505" fill="none" id="id84" stroke="none" /><text fill="#e1ed5e" style="font-size:6.75px; font-family:Arial;" text-anchor="middle"><textPath startOffset="22.20632615414155" xlink:href="#id84">December</textPath></text><path d="M 89.3179101791058 81.91981866633112 l -0.013365347974932192 -0.02262178272473369 a21.026275037205227,21.026275037205227 0 0,0 0.313194644558127,-0.18142255344357228 l 0.01297397095148503 0.02284849355835317" fill="#ff0000" stroke="none" /><path d="M 89.63071344664047 81.73862282372117 l -0.004178540327550807 -0.007358838100869608 a21.008462428579538,21.008462428579538 0 0,0 0.31600320032491747,-0.17585543885141205 l 0.004051250930587747 0.0074296745124662455" fill="#ff0000" stroke="none" /><path d="M 89.94658935756843 81.56283822128135 l -0.0045533164644425165 -0.00835042308232276 a21.00951116483293,21.00951116483293 0 0,0 0.3189993669012311,-0.17039841415095514 l 0.004408903034906073 0.008427563735027345" fill="#ff0000" stroke="none" /><path d="M 90.26544431104013 81.39251694778311 l -0.0043678396730846515 -0.008349071625723814 a21.009422580348357,21.009422580348357 0 0,0 0.32188387509728084,-0.16488142286236396 l 0.004223476987040081 0.008423019800592992" fill="#ff0000" stroke="none" /><path d="M 90.58718382345135 81.22770947309562 l -0.01936125150158213 -0.03861278403138116 a21.043194966724858,21.043194966724858 0 0,0 0.3251962571716095,-0.15957239108226948 l 0.018693727319546653 0.03894033524848028" fill="#ff0100" stroke="none" /><path d="M 90.91171255644093 81.06846463323043 l -0.004308421064009495 -0.008974740978954888 a21.00995532358611,21.00995532358611 0 0,0 0.32737691245234096,-0.15370785004151508 l 0.004153297312060081 0.009047573660477561" fill="#ff0000" stroke="none" /><path d="M 91.23893434514133 80.91482961587045 l -0.016446057245222117 -0.035826213047284325 a21.039420684167357,21.039420684167357 0 0,0 0.3304370075589717,-0.14825745328413287 l 0.015826931219476016 0.03610399684794612" fill="#ff0000" stroke="none" /><path d="M 91.56875222667455 80.76684994638697 l -0.6048081340827623 -1.379673081517262 a22.506416506453647,22.506416506453647 0 0,0 0.35615465519194545,-0.1524868364002079 l 0.5809697211005087 1.389879445880256" fill="#ff1502" stroke="none" /><path d="M 91.90106846888425 80.62456947434976 l -0.1111816327305124 -0.2659847156902226 a21.288286705273467,21.288286705273467 0 0,0 0.33931109281344096,-0.13841351435276092 l 0.10658667032869097 0.2678591162265605" fill="#ff0400" stroke="none" /><path d="M 92.23578459929587 80.48803036053334 l -0.07450473018929156 -0.1872351497767917 a21.20151415864032,21.20151415864032 0 0,0 0.34025081899807197,-0.13201203165761896 l 0.07127074619154325 0.18848988532496214" fill="#ff0300" stroke="none" /><path d="M 92.57280143429618 80.3572730644239 l -0.002934329768399535 -0.0077604278207610376 a21.008296657830172,21.008296657830172 0 0,0 0.33935169198805015,-0.12498609206593624 l 0.002800312007779925 0.007809787693019647" fill="#ff0000" stroke="none" /><path d="M 92.91201910852362 80.23233633223022 l -0.004089904318432454 -0.01140633055280315 a21.01211741284325,21.01211741284325 0 0,0 0.3415149431304097,-0.11914785783651087 l 0.0038929571247374225 0.011475041561523827" fill="#ff0000" stroke="none" /><path d="M 93.94186890950719 79.89281104454417 l -0.002812018142049622 -0.009333205122796721 a21.00974762349988,21.00974762349988 0 0,0 0.34717085469126474,-0.10134869253604446 l 0.0026509457273635522 0.009380226577540018" fill="#ff0000" stroke="none" /><path d="M 95.692805502759 79.44645832069477 l -0.003285742607998096 -0.015679265861854374 a21.016019846517764,21.016019846517764 0 0,0 0.35470397013862914,-0.07115027952810664 l 0.003015363002232543 0.015733501467171677" fill="#ff0000" stroke="none" /><path d="M 97.47563105711357 79.15227682838746 l -0.0026791859413167925 -0.02212629298393393 a21.022287908796454,21.022287908796454 0 0,0 0.3596145612021308,-0.040406886062149275 l 0.0022979212294679933 0.0221691325166817" fill="#ff0000" stroke="none" /><path d="M 97.83486435360386 79.11191278185805 l -0.002789985350184155 -0.026916307728334442 a21.02706051810259,21.02706051810259 0 0,0 0.36033860626752756,-0.03421849255488103 l 0.0023262519924202416 0.02696034479839602" fill="#ff0000" stroke="none" /><path d="M 98.19473922651362 79.07773832637324 l -0.0008592898223898441 -0.009958830758175899 a21.009995833585492,21.009995833585492 0 0,0 0.3605813628514617,-0.02798805356505028 l 0.000687737608593994 0.009972146511688372" fill="#ff0000" stroke="none" /><path d="M 98.55514903715128 79.0497635885617 l -0.001079205222593671 -0.015648399129844143 a21.015685569139798,21.015685569139798 0 0,0 0.36110747252376696,-0.021782988884364186 l 0.0008096838592037132 0.015664657394514742" fill="#ff0000" stroke="none" /><path d="M 98.91598698831166 79.02799685794201 l -0.0019306496895143428 -0.037351573198965586 a21.037401436184474,21.037401436184474 0 0,0 0.36180239958971533,-0.015579972397899417 l 0.0012874177104748872 0.03737927212105744" fill="#ff0000" stroke="none" /><path d="M 99.27714615592234 79.0124445844662 l -0.0003624087333694061 -0.010522283912550714 a21.010528523107556,21.010528523107556 0 0,0 0.3615545423204451,-0.009337887138335443 l 0.00018123121804530744 0.0105269631932458" fill="#ff0000" stroke="none" /><path d="M 99.63851952072746 79.00311137660856 l -0.0015466285375736854 -0.08983718072562683 a21.089850493045738,21.089850493045738 0 0,0 0.3630271078101094,-0.0031246889286698208 l 2.2007023742054857e-17 0.08985049304573778" fill="#ff0100" stroke="none" /></svg>