<?xml version="1.0" encoding="utf-8" ?>
<svg baseProfile="full" height="200mm" version="1.1" viewBox="0,0,200,200" width="200mm" xmlns="http://www.w3.org/2000/svg" xmlns:ev="http://www.w3.org/2001/xml-events" xmlns:xlink="http://www.w3.org/1999/xlink"><defs /><rect fill="#1a1a1a" height="200" width="200" x="0" y="0" /><text alignment-baseline="middle" fill="#e1ed5e" style="dominant-baseline: central; font-size:9.0px; font-family:Arial;" text-anchor="middle" x="100.0" y="100.0">2025</text><line stroke="#e1ed5e" stroke-width="0.3" x1="100.0" x2="100.0" y1="15.0" y2="10.0" /><path d="M 100.0 14.0 a86.0,86.0 0 0,1 42.46469731375804,11.215312516191453" fill="none" id="id37" stroke="none" /><text fill="#e1ed5e" style="font-size:6.75px; font-family:Arial;" text-anchor="middle"><textPath startOffset="22.20632615414155" xlink:href="#id37">January</textPath></text><path d="M 100.0 79.0 l 0.0 -0.10922023914229939 a21.1092202391423,21.1092202391423 0 0,0 0.3633605261483102,0.003127558765570705 l -0.0018800468757818355 0.10920405698528755" fill="#ff0000" stroke="none" /><path d="M 100.72285384407766 79.0124445844662 l 0.030879511958265046 -0.896565016204159 a21.897096635006477,21.897096635006477 0 0,0 0.3765874854185385,0.016216649294940728 l -0.04630782976613509 0.8959006403850234" fill="#ff0b01" stroke="none" /><path d="M 101.08401301168833 79.027996857942 l 0.028999126906647413 -0.561035498693817 a21.561784460586058,21.561784460586058 0 0,0 0.3704909584818937,0.022349026382548674 l -0.03865213422815297 0.5604532029309642" fill="#ff0701" stroke="none" /><path d="M 101.44485096284872 79.0497635885617 l 0.011472695058834071 -0.16635326406608777 a21.16674840688101,21.16674840688101 0 0,0 0.3632716088161405,0.028196868428820594 l -0.014334493237315773 0.16613113344880268" fill="#ff0100" stroke="none" /><path d="M 102.16513564639614 79.11191278185805 l 0.022487078297617282 -0.21694347582501464 a21.21810580091644,21.21810580091644 0 0,0 0.3629642901020302,0.040783267133995514 l -0.026218071909372732 0.2165242552204183" fill="#ff0200" stroke="none" /><path d="M 102.52436894288641 79.15227682838746 l 0.05969362628181815 -0.49298506834349043 a21.496585950897032,21.496585950897032 0 0,0 0.3669623547981783,0.04764224554290518 l -0.06817070958784252 0.49188449963644854" fill="#ff0600" stroke="none" /><path d="M 102.88285421437855 79.19881850522331 l 6.587972113488121 -47.53539146437007 a68.9897365927237,68.9897365927237 0 0,0 1.1748985636959168,0.17314950736754187 l -7.405239657612693 47.41494747284156" fill="#3bff98" stroke="none" /><path d="M 103.2404852339499 79.25152402106235 l 0.06515074501366458 -0.4171531639038503 a21.422210115618785,21.422210115618785 0 0,0 0.36384174705702715,0.060037005780797174 l -0.07232169820956694 0.4159698951834285" fill="#ff0500" stroke="none" /><path d="M 103.59715602781102 79.31037775812273 l 0.06159570860371427 -0.35427763846738153 a21.359592375386935,21.359592375386935 0 0,0 0.3616940599971844,0.06609727757423597 l -0.06768488970379957 0.35316487954240705" fill="#ff0400" stroke="none" /><path d="M 103.95276090670814 79.375362276772 l 0.06274729440172272 -0.3274015923786365 a21.333360204053818,21.333360204053818 0 0,0 0.36005997405971113,0.07222464352800696 l -0.06837367792855922 0.3262729927734212" fill="#ff0300" stroke="none" /><path d="M 105.01212808612495 79.60689891045804 l 0.08930911625368215 -0.3633765547654024 a21.374190644991543,21.374190644991543 0 0,0 0.3565328092615347,0.09088815161491233 l -0.09555081420024192 0.3617854069816222" fill="#ff0400" stroke="none" /><path d="M 106.40334571778207 80.00007090966166 l 1.8515210538332347 -5.782959630478833 a27.07212914063392,27.07212914063392 0 0,0 0.44258699868815454,0.14591397494292177 l -1.9507908747638067 5.750231931276675" fill="#ff5407" stroke="none" /><path d="M 106.74666289553966 80.11325718540242 l 0.037332803073762334 -0.11004371565189106 a21.116203948038862,21.116203948038862 0 0,0 0.34320668634932444,0.11973807382733961 l -0.03922149348636043 0.10938478865234398" fill="#ff0000" stroke="none" /><path d="M 107.4271985657038 80.35727306442388 l 0.2849430197208595 -0.7535893754639297 a21.80566089100797,21.80566089100797 0 0,0 0.349946419932288,0.13577377418989772 l -0.2978726046528145 0.7485728973834852" fill="#ff0a01" stroke="none" /><path d="M 107.76421540070413 80.48803036053334 l 11.995400610881056 -30.1452085566205 a53.44415563298992,53.44415563298992 0 0,0 0.8518390936471605,0.34748655470453865 l -12.512523574116603 29.934261115732383" fill="#6eff28" stroke="none" /><path d="M 108.09893153111575 80.62456947434976 l 0.26744725827746046 -0.639825852598199 a21.69347325659548,21.69347325659548 0 0,0 0.34329016729086204,0.14697893405118945 l -0.27842118335863775 0.6351273905842187" fill="#ff0801" stroke="none" /><path d="M 108.43124777332544 80.76684994638697 l 1.0671496994950664 -2.434355015042024 a23.657986610273397,23.657986610273397 0 0,0 0.37156319167341195,0.16670957329678984 l -1.1088950096352588 2.415625111228703" fill="#ff2403" stroke="none" /><path d="M 108.76106565485865 80.91482961587045 l 1.535553480782921 -3.345061088365749 a24.680673603736576,24.680673603736576 0 0,0 0.38457400775930856,0.18056265321745193 l -1.5929056998418276 3.318133452508294" fill="#ff3304" stroke="none" /><path d="M 109.41281617654863 81.2277094730956 l 0.3463566800194736 -0.6907505789243685 a21.77272201474946,21.77272201474946 0 0,0 0.333578331661479,0.17087177772970397 l -0.3581954992697082 0.684686275882164" fill="#ff0a01" stroke="none" /><path d="M 109.73455568895987 81.39251694778311 l 2.1043810854151315 -4.022498471776865 a25.539704143234466,25.539704143234466 0 0,0 0.3877838655367488,0.20714071116400576 l -2.173309997480191 3.9856790341111052" fill="#ff3f05" stroke="none" /><path d="M 110.05341064243156 81.56283822128135 l 1.6182405745986437 -2.967725514447466 a24.380251068542073,24.380251068542073 0 0,0 0.36672066737753417,0.20407965435555558 l -1.6690853310482128 2.9394304625317305" fill="#ff2e04" stroke="none" /><path d="M 110.36928655335952 81.73862282372117 l 16.764278904970833 -29.52361462832 a54.951213055282736,54.951213055282736 0 0,0 0.8185199523183976,0.47413958819004126 l -17.269995589754558 29.23067088273991" fill="#5fff29" stroke="none" /><line stroke="#e1ed5e" stroke-width="0.3" x1="143.23703022742887" x2="145.7803849466894" y1="26.81831364943548" y2="22.513508569990506" /><path d="M 143.74570117128098 25.957352633546492 a86.0,86.0 0 0,1 28.547481713284135,27.462654790039103" fill="none" id="id38" stroke="none" /><text fill="#e1ed5e" style="font-size:6.75px; font-family:Arial;" text-anchor="middle"><textPath startOffset="19.985693538727396" xlink:href="#id38">February</textPath></text><path d="M 110.68208982089419 81.91981866633111 l 0.31904338480709926 -0.5400031592448252 a21.62720976824629,21.62720976824629 0 0,0 0.3188859307675003,0.19212520524838644 l -0.3282913817922371 0.5344313445378241" fill="#ff0701" stroke="none" /><path d="M 110.99172775467656 82.1063720568725 l 0.18821317193003187 -0.30639555015170405 a21.35958647254969,21.35958647254969 0 0,0 0.31162705754465303,0.19514083484574055 l -0.19345938184694816 0.3031103739830193" fill="#ff0400" stroke="none" /><path d="M 111.60114157652 82.49532879139004 l 6.441188917954198 -9.718948213642289 a32.65962559674352,32.65962559674352 0 0,0 0.465936691010681,0.3146025336669834 l -6.607530303371422 9.606633767676636" fill="#ff9e0e" stroke="none" /><path d="M 111.90073688211348 82.69761687909136 l 6.4540802192217415 -9.38353395695114 a32.38884809791598,32.38884809791598 0 0,0 0.4566347307880105,0.31990181052020233 l -6.614646089593403 9.271047303667002" fill="#ff9b0e" stroke="none" /><path d="M 112.19680574252982 82.90503203632743 l 4.535584765562382 -6.357047730410776 a28.8091987432977,28.8091987432977 0 0,0 0.4012088145034265,0.2914952663473516 l -4.6443388964195975 6.278033229246749" fill="#ff6b09" stroke="none" /><path d="M 112.48926042617603 83.11751280151076 l 37.46778127852809 -50.647461595467746 a84.0,84.0 0 0,0 1.1550153849664682,0.8699336419766106 l -38.33404281725294 49.995011363985284" fill="#4dd2ff" stroke="none" /><line stroke="#e1ed5e" stroke-width="0.3" x1="172.23445277983987" x2="176.4835382374775" y1="55.19839476539836" y2="52.563006222186495" /><path d="M 173.08426987136738 54.67131705675599 a86.0,86.0 0 0,1 12.851231095245387,41.99856678651699" fill="none" id="id39" stroke="none" /><text fill="#e1ed5e" style="font-size:6.75px; font-family:Arial;" text-anchor="middle"><textPath startOffset="22.20632615414155" xlink:href="#id39">March</textPath></text><line stroke="#e1ed5e" stroke-width="0.3" x1="184.98032266829074" x2="189.97916517819016" y1="98.17113171792111" y2="98.06355123074" /><path d="M 185.9800911702706 98.14961562048488 a86.0,86.0 0 0,1 -9.607161424134198,41.387399972396054" fill="none" id="id40" stroke="none" /><text fill="#e1ed5e" style="font-size:6.75px; font-family:Arial;" text-anchor="middle"><textPath startOffset="21.466115282336823" xlink:href="#id40">April</textPath></text><line stroke="#e1ed5e" stroke-width="0.3" x1="174.80103733775053" x2="179.2010983576182" y1="140.37084112569926" y2="142.7455964860345" /><path d="M 175.68104954172406 140.8457921977663 a86.0,86.0 0 0,1 -30.038265399797805,32.042727171017184" fill="none" id="id41" stroke="none" /><text fill="#e1ed5e" style="font-size:6.75px; font-family:Arial;" text-anchor="middle"><textPath startOffset="22.206326154141568" xlink:href="#id41">May</textPath></text><line stroke="#e1ed5e" stroke-width="0.3" x1="143.8653032363475" x2="146.44561519142675" y1="172.8068346515853" y2="177.08958963109032" /><path d="M 144.38136562736335 173.6633856474863 a86.0,86.0 0 0,1 -40.68145358897372,12.25698825130547" fill="none" id="id42" stroke="none" /><text fill="#e1ed5e" style="font-size:6.75px; font-family:Arial;" text-anchor="middle"><textPath startOffset="21.466115282336833" xlink:href="#id42">June</textPath></text><line stroke="#e1ed5e" stroke-width="0.3" x1="102.19456741930631" x2="102.32365962044197" y1="184.97166512339345" y2="189.96999836594603" /><path d="M 102.22038585953345 185.97133177190398 a86.0,86.0 0 0,1 -42.740103519485714,-10.115201625700543" fill="none" id="id43" stroke="none" /><text fill="#e1ed5e" style="font-size:6.75px; font-family:Arial;" text-anchor="middle"><textPath startOffset="22.20632615414155" xlink:href="#id43">July</textPath></text><line stroke="#e1ed5e" stroke-width="0.3" x1="58.666819895761336" x2="56.23545636021788" y1="174.27360380694188" y2="178.64263932499728" /><path d="M 58.180547188652646 175.14741091055294 a86.0,86.0 0 0,1 -31.652253787137756,-30.449443065178592" fill="none" id="id44" stroke="none" /><text fill="#e1ed5e" style="font-size:6.75px; font-family:Arial;" text-anchor="middle"><textPath startOffset="22.20632615414155" xlink:href="#id44">August</textPath></text><line stroke="#e1ed5e" stroke-width="0.3" x1="26.63291911575756" x2="22.317208475507996" y1="142.92168965132927" y2="145.44649492493687" /><path d="M 25.769776987707644 143.4266507060508 a86.0,86.0 0 0,1 -11.730757126820373,-40.83630448921669" fill="none" id="id45" stroke="none" /><text fill="#e1ed5e" style="font-size:6.75px; font-family:Arial;" text-anchor="middle"><textPath startOffset="21.46611528233685" xlink:href="#id45">September</textPath></text><line stroke="#e1ed5e" stroke-width="0.3" x1="15.007084014347285" x2="10.007500721073583" y1="101.09737516637583" y2="101.16192664675087" /><path d="M 14.007167355692545 101.11028546245083 a86.0,86.0 0 0,1 10.666146001902534,-42.60595125391555" fill="none" id="id46" stroke="none" /><text fill="#e1ed5e" style="font-size:6.75px; font-family:Arial;" text-anchor="middle"><textPath startOffset="22.20632615414155" xlink:href="#id46">October</textPath></text><line stroke="#e1ed5e" stroke-width="0.3" x1="26.266209847984243" x2="21.928928074336255" y1="57.711370442889674" y2="55.22380399835377" /><path d="M 25.398753493254645 57.213857153982495 a86.0,86.0 0 0,1 29.58750427330803,-30.492523968695096" fill="none" id="id47" stroke="none" /><text fill="#e1ed5e" style="font-size:6.75px; font-family:Arial;" text-anchor="middle"><textPath startOffset="21.46611528233685" xlink:href="#id47">November</textPath></text><line stroke="#e1ed5e" stroke-width="0.3" x1="56.762969772571076" x2="54.21961505331055" y1="26.818313649435495" y2="22.513508569990535" /><path d="M 56.25429882871897 25.957352633546506 a86.0,86.0 0 0,1 42.265352541879196,-11.944610805530505" fill="none" id="id48" stroke="none" /><text fill="#e1ed5e" style="font-size:6.75px; font-family:Arial;" text-anchor="middle"><textPath startOffset="22.20632615414155" xlink:href="#id48">December</textPath></text></svg>