<?xml version="1.0" encoding="utf-8" ?>
<svg baseProfile="full" height="200mm" version="1.1" viewBox="0,0,200,200" width="200mm" xmlns="http://www.w3.org/2000/svg" xmlns:ev="http://www.w3.org/2001/xml-events" xmlns:xlink="http://www.w3.org/1999/xlink"><defs /><rect fill="#1a1a1a" height="200" width="200" x="0" y="0" /><text alignment-baseline="middle" fill="#e1ed5e" style="dominant-baseline: central; font-size:9.0px; font-family:Arial;" text-anchor="middle" x="100.0" y="100.0">2022</text><line stroke="#e1ed5e" stroke-width="0.3" x1="100.0" x2="100.0" y1="15.0" y2="10.0" /><path d="M 100.0 14.0 a86.0,86.0 0 0,1 42.46469731375804,11.215312516191453" fill="none" id="id37" stroke="none" /><text fill="#e1ed5e" style="font-size:6.75px; font-family:Arial;" text-anchor="middle"><textPath startOffset="22.20632615414155" xlink:href="#id37">January</textPath></text><path d="M 100.36148047927253 79.00311137660856 l 0.14060573915037847 -8.167199099358095 a29.16840933734578,29.16840933734578 0 0,0 0.50193743944048,0.012963563201056476 l -0.2811698137857263 8.163568744014679" fill="#ff710a" stroke="none" /><path d="M 110.05341064243156 81.56283822128135 l 0.051280901695202795 -0.09404512700620628 a21.10711777066522,21.10711777066522 0 0,0 0.31748714537489103,0.17668125266508797 l -0.05289213614212894 0.09314847678093839" fill="#ff0100" stroke="none" /><line stroke="#e1ed5e" stroke-width="0.3" x1="143.23703022742887" x2="145.7803849466894" y1="26.81831364943548" y2="22.513508569990506" /><path d="M 143.74570117128098 25.957352633546492 a86.0,86.0 0 0,1 28.547481713284135,27.462654790039103" fill="none" id="id38" stroke="none" /><text fill="#e1ed5e" style="font-size:6.75px; font-family:Arial;" text-anchor="middle"><textPath startOffset="19.985693538727396" xlink:href="#id38">February</textPath></text><path d="M 110.68208982089419 81.91981866633111 l 0.3014718815823953 -0.5102621656813391 a21.59266581908411,21.59266581908411 0 0,0 0.31837659186067846,0.19181833425605818 l -0.31021053966071127 0.5049972219666663" fill="#ff0801" stroke="none" /><path d="M 110.99172775467656 82.1063720568725 l 0.11766227982093118 -0.19154450556329802 a21.22479704113744,21.22479704113744 0 0,0 0.3096605384852556,0.19390940079115468 l -0.12094197067845003 0.18949076344919913" fill="#ff0200" stroke="none" /><path d="M 111.60114157652 82.49532879139004 l 0.10486523668018372 -0.15822852235635892 a21.189823557945445,21.189823557945445 0 0,0 0.3023034125863869,0.20411661363168448 l -0.10757334367311244 0.15639999642600433" fill="#ff0200" stroke="none" /><path d="M 112.77801427241765 83.33499621200491 l 5.896969382419934 -7.6907894294537895 a30.69136161462342,30.69136161462342 0 0,0 0.41647804276177036,0.32506771844081195 l -6.028479980341134 7.588143321789754" fill="#ff850c" stroke="none" /><path d="M 117.45458315368197 88.32363383020206 l 2.0429998919221575 -1.3666791474139937 a23.45797893611198,23.45797893611198 0 0,0 0.221625807077502,0.3375513090516791 l -2.0662223343575845 1.3313097743846405" fill="#ff2203" stroke="none" /><line stroke="#e1ed5e" stroke-width="0.3" x1="172.23445277983987" x2="176.4835382374775" y1="55.19839476539836" y2="52.563006222186495" /><path d="M 173.08426987136738 54.67131705675599 a86.0,86.0 0 0,1 12.851231095245387,41.99856678651699" fill="none" id="id39" stroke="none" /><text fill="#e1ed5e" style="font-size:6.75px; font-family:Arial;" text-anchor="middle"><textPath startOffset="22.20632615414155" xlink:href="#id39">March</textPath></text><line stroke="#e1ed5e" stroke-width="0.3" x1="184.98032266829074" x2="189.97916517819016" y1="98.17113171792111" y2="98.06355123074" /><path d="M 185.9800911702706 98.14961562048488 a86.0,86.0 0 0,1 -9.607161424134198,41.387399972396054" fill="none" id="id40" stroke="none" /><text fill="#e1ed5e" style="font-size:6.75px; font-family:Arial;" text-anchor="middle"><textPath startOffset="21.466115282336823" xlink:href="#id40">April</textPath></text><line stroke="#e1ed5e" stroke-width="0.3" x1="174.80103733775053" x2="179.2010983576182" y1="140.37084112569926" y2="142.7455964860345" /><path d="M 175.68104954172406 140.8457921977663 a86.0,86.0 0 0,1 -30.038265399797805,32.042727171017184" fill="none" id="id41" stroke="none" /><text fill="#e1ed5e" style="font-size:6.75px; font-family:Arial;" text-anchor="middle"><textPath startOffset="22.206326154141568" xlink:href="#id41">May</textPath></text><line stroke="#e1ed5e" stroke-width="0.3" x1="143.8653032363475" x2="146.44561519142675" y1="172.8068346515853" y2="177.08958963109032" /><path d="M 144.38136562736335 173.6633856474863 a86.0,86.0 0 0,1 -40.68145358897372,12.25698825130547" fill="none" id="id42" stroke="none" /><text fill="#e1ed5e" style="font-size:6.75px; font-family:Arial;" text-anchor="middle"><textPath startOffset="21.466115282336833" xlink:href="#id42">June</textPath></text><path d="M 106.57524785965236 119.94407469862006 l 0.07241875189574062 0.21966092050343575 a21.231290716680444,21.231290716680444 0 0,0 -0.3480704861867594,0.1114411779733278 l -0.06862692061804082 -0.22087494513647013" fill="#ff0200" stroke="none" /><path d="M 105.88484417918355 120.15858648285463 l 0.02515587602593912 0.08617167880411372 a21.089768459530905,21.089768459530905 0 0,0 -0.34935586280768305,0.0987314564508441 l -0.023668845113650312 -0.08659192859347684" fill="#ff0000" stroke="none" /><path d="M 102.70371172650421 120.8252237178851 l 0.012052765274456962 0.09283590805897712 a21.093615036056693,21.093615036056693 0 0,0 -0.36047238024532463,0.043648185174420547 l -0.010452961977752034 -0.09302962195874859" fill="#ff0000" stroke="none" /><path d="M 101.62511606390274 120.93702456842531 l 0.9758891649630165 12.572773032482722 a33.610590049185525,33.610590049185525 0 0,0 -0.577201447806163,0.039807191252748404 l -0.7593249563779231 -12.587708568251756" fill="#ffab0f" stroke="none" /><line stroke="#e1ed5e" stroke-width="0.3" x1="102.19456741930631" x2="102.32365962044197" y1="184.97166512339345" y2="189.96999836594603" /><path d="M 102.22038585953345 185.97133177190398 a86.0,86.0 0 0,1 -42.740103519485714,-10.115201625700543" fill="none" id="id43" stroke="none" /><text fill="#e1ed5e" style="font-size:6.75px; font-family:Arial;" text-anchor="middle"><textPath startOffset="22.20632615414155" xlink:href="#id43">July</textPath></text><path d="M 96.93821686468263 120.77559828337769 l -0.011533086229365165 0.07825726247721654 a21.079102536042797,21.079102536042797 0 0,0 -0.35850949777110674,-0.05599181043163727 l 0.012878447608989051 -0.0780471446984735" fill="#ff0000" stroke="none" /><path d="M 95.51606077576429 120.51570834832081 l -0.05172391909577892 0.23665638308958462 a21.242242868757103,21.242242868757103 0 0,0 -0.35654583775904913,-0.08114867186037071 l 0.05578990624769072 -0.23573097765152717" fill="#ff0300" stroke="none" /><path d="M 90.7491055286396 118.85261126421891 l -0.03759196825395026 0.07660953936320965 a21.085335676001595,21.085335676001595 0 0,0 -0.3244592299474855,-0.16269059355879326 l 0.03890510588419623 -0.07595110489511428" fill="#ff0000" stroke="none" /><line stroke="#e1ed5e" stroke-width="0.3" x1="58.666819895761336" x2="56.23545636021788" y1="174.27360380694188" y2="178.64263932499728" /><path d="M 58.180547188652646 175.14741091055294 a86.0,86.0 0 0,1 -31.652253787137756,-30.449443065178592" fill="none" id="id44" stroke="none" /><text fill="#e1ed5e" style="font-size:6.75px; font-family:Arial;" text-anchor="middle"><textPath startOffset="22.20632615414155" xlink:href="#id44">August</textPath></text><path d="M 89.1626897886671 117.98757091392108 l -0.16567660149194144 0.27498701799615716 a21.321039867225767,21.321039867225767 0 0,0 -0.31272970277038203,-0.19210412581386002 l 0.1703855041946322 -0.272094425353919" fill="#ff0400" stroke="none" /><path d="M 88.24862548938628 117.40417183066458 l -0.15946387570300125 0.23617124030998404 a21.284965932005527,21.284965932005527 0 0,0 -0.30188478875638913,-0.2076391104391127 l 0.16350554908228065 -0.2333913405057702" fill="#ff0300" stroke="none" /><path d="M 87.65650970185807 116.9893568818739 l -0.5388713245845829 0.7416927486185735 a21.91678265571122,21.91678265571122 0 0,0 -0.30330221141997205,-0.22437572507670225 l 0.5515585064231192 -0.7323070748021046" fill="#ff0c01" stroke="none" /><path d="M 86.79598089348748 116.32954008644616 l -0.10141530181055203 0.12542129960094017 a21.161293415348904,21.161293415348904 0 0,0 -0.28127376718354585,-0.2314691613714783 l 0.10355919753878669 -0.12365701937228114" fill="#ff0100" stroke="none" /><path d="M 85.18274418774928 114.88116024355367 l -0.11393900516510926 0.11443040569301798 a21.161481932875116,21.161481932875116 0 0,0 -0.25591222497959953,-0.2592377327946925 l 0.11589185520024206 -0.11245217891766084" fill="#ff0100" stroke="none" /><path d="M 84.9287848128048 114.62390073753433 l -45.21364556158558 43.871702212602976 a84.0,84.0 0 0,0 -0.99797379448417,-1.0463715336699995 l 45.9621259074487 -43.08692356235048" fill="#4dd2ff" stroke="none" /><path d="M 84.67929136418377 114.36230785411682 l -0.6588011110142175 0.6175892118267079 a21.903014583735114,21.903014583735114 0 0,0 -0.25548676657180236,-0.27728042586446855 l 0.6693342855817488 -0.6061575311608952" fill="#ff0c01" stroke="none" /><path d="M 84.19399662182784 113.82643327865904 l -0.26324925057186505 0.23027947746205013 a21.349755351162557,21.349755351162557 0 0,0 -0.23958236987299072,-0.2786884223358248 l 0.26717413001563456 -0.22571395596469498" fill="#ff0400" stroke="none" /><path d="M 83.95833913139862 113.55231037782056 l -0.048183803837940256 0.04070662446641791 a21.063077002368082,21.063077002368082 0 0,0 -0.23159755878082147,-0.2789741789883194 l 0.048877362512298114 -0.039871188364337395" fill="#ff0000" stroke="none" /><path d="M 83.28015986056508 112.70617746262583 l -0.0948788723542824 0.07210282990349692 a21.119167187175467,21.119167187175467 0 0,0 -0.21746580766712126,-0.29133098712449373 l 0.09610594671648871 -0.0704589632696952" fill="#ff0100" stroke="none" /><line stroke="#e1ed5e" stroke-width="0.3" x1="26.63291911575756" x2="22.317208475507996" y1="142.92168965132927" y2="145.44649492493687" /><path d="M 25.769776987707644 143.4266507060508 a86.0,86.0 0 0,1 -11.730757126820373,-40.83630448921669" fill="none" id="id45" stroke="none" /><text fill="#e1ed5e" style="font-size:6.75px; font-family:Arial;" text-anchor="middle"><textPath startOffset="21.46611528233685" xlink:href="#id45">September</textPath></text><path d="M 80.87730276802145 108.67885076344099 l -0.6231911187704136 0.2828357658597227 a21.68437068973165,21.68437068973165 0 0,0 -0.1513351355510428,-0.341220779358612 l 0.6279673390527362 -0.27206665000841485" fill="#ff0901" stroke="none" /><path d="M 80.73074385275274 108.34839909993369 l -0.4618681006077276 0.20010420775648208 a21.503352596418097,21.503352596418097 0 0,0 -0.1442250530610169,-0.3409054220443014 l 0.4652441348610511 -0.19212426004602184" fill="#ff0601" stroke="none" /><path d="M 80.58989483394504 108.01547362559985 l -0.2003095300605301 0.0827185500243638 a21.216717019062195,21.216717019062195 0 0,0 -0.1364915715864805,-0.33876088708532687 l 0.2017037159043984 -0.07925829509623157" fill="#ff0200" stroke="none" /><path d="M 80.45479744820244 107.68017299344265 l -1.7767703023529033 0.6981714953077678 a22.909019681455252,22.909019681455252 0 0,0 -0.14106034731985953,-0.36826405482926905 l 1.788524929266272 -0.6674838736453409" fill="#ff1a02" stroke="none" /><path d="M 80.20201598880116 107.00284435728193 l -0.4197314168657462 0.14846530750351156 a21.44521501528614,21.44521501528614 0 0,0 -0.1201025675329335,-0.34907428001638496 l 0.4222248153419082 -0.1412183243978297" fill="#ff0500" stroke="none" /><path d="M 80.0844068197444 106.66101706037122 l -0.35233981111596707 0.11784441827312472 a21.371524762856215,21.371524762856215 0 0,0 -0.11368404398138829,-0.3498835106010277 l 0.35431610611360465 -0.11176200769429366" fill="#ff0400" stroke="none" /><path d="M 79.97269907076064 106.31721596034903 l -0.20243664113913026 0.06385463447530736 a21.212268716535593,21.212268716535593 0 0,0 -0.10684238688643874,-0.3491671022040165 l 0.20350580053169937 -0.06036055971924308" fill="#ff0200" stroke="none" /><path d="M 79.86692584326677 105.97154293290107 l -0.25591845770516186 0.07590634423790207 a21.26693825145481,21.26693825145481 0 0,0 -0.10107604897065492,-0.35185898639873014 l 0.25718714356192085 -0.07148988233457597" fill="#ff0300" stroke="none" /><path d="M 79.76711848015287 105.62410040840567 l -1.0175047476820842 0.2828341015776758 a22.056082875806077,22.056082875806077 0 0,0 -0.09852969347355266,-0.36666564336074453 l 1.0222225174974118 -0.26527752504139235" fill="#ff0e01" stroke="none" /><path d="M 79.58551787078972 104.9243191809786 l -0.20870017892173962 0.05034202129808053 a21.214686012097534,21.214686012097534 0 0,0 -0.08257506802808667,-0.3557312318746822 l 0.20953581288038142 -0.046742132074824104" fill="#ff0200" stroke="none" /><path d="M 79.50377843672027 104.57218783832718 l -0.21167005951818202 0.047218228436839677 a21.216872716571597,21.216872716571597 0 0,0 -0.07644738425526552,-0.35713672859591883 l 0.2124514824978883 -0.043567680424757074" fill="#ff0200" stroke="none" /><path d="M 79.4281124754447 104.21870165774334 l -0.12062798420328402 0.02473732545548869 a21.123138319964333,21.123138319964333 0 0,0 -0.06997800708019938,-0.35681635048820043 l 0.12103592425914984 -0.022657247899333394" fill="#ff0100" stroke="none" /><path d="M 79.35854240842038 103.8639653848113 l -0.1342515431428877 0.025131137821063174 a21.136583494333788,21.136583494333788 0 0,0 -0.0638662580719172,-0.35819589234263066 l 0.1346642435539936 -0.022816494745218817" fill="#ff0100" stroke="none" /><path d="M 79.23777060512086 103.15116336523772 l -0.2929180986761894 0.04445730581279272 a21.296272618667683,21.296272618667683 0 0,0 -0.051887809444921426,-0.3629032184061925 l 0.29363995913770985 -0.03940861542619965" fill="#ff0300" stroke="none" /><path d="M 79.18660465613746 102.79330883721812 l -0.2938769880681293 0.03944042643036685 a21.29651177270558,21.29651177270558 0 0,0 -0.04563385181326105,-0.3637466984989846 l 0.2945123491282384 -0.034375973643973594" fill="#ff0300" stroke="none" /><path d="M 79.1416061653843 102.43462659150553 l -0.15584286836466638 0.01819024007435535 a21.15690087461225,21.15690087461225 0 0,0 -0.03910772377727762,-0.3620889519930816 l 0.15613289364299587 -0.015504966196491648" fill="#ff0100" stroke="none" /><path d="M 79.10278846688536 102.07522291339032 l -0.1732648511946015 0.01720627600072002 a21.174117100232287,21.174117100232287 0 0,0 -0.03289591042245529,-0.3630036303397947 l 0.17353535789413213 -0.014221257112359156" fill="#ff0200" stroke="none" /><path d="M 79.07016306316243 101.71520430193888 l -0.19281703995322064 0.01580139479408939 a21.19346342024724,21.19346342024724 0 0,0 -0.02666686844687894,-0.3638482330320178 l 0.19306046706443492 -0.012480025265310968" fill="#ff0200" stroke="none" /><path d="M 79.04373962182676 101.35467743843564 l -0.11056328500439021 0.00714715245048092 a21.11079405119009,21.11079405119009 0 0,0 -0.020320294449349574,-0.3628325077948616 l 0.11066993034127141 -0.005242928320181726" fill="#ff0100" stroke="none" /><path d="M 79.0235259727143 100.99374915477108 l -0.2909670920163786 0.013784409209162494 a21.291293423498907,21.291293423498907 0 0,0 -0.014192033179439926,-0.36623331547947907 l 0.29116125804701937 -0.008773846715686647" fill="#ff0300" stroke="none" /><path d="M 79.0095281055655 100.63252640178507 l -0.18429192140922707 0.005553448560532078 a21.184375576168915,21.184375576168915 0 0,0 -0.007846225966128613,-0.36458328949306207 l 0.18436021006036313 -0.002380343277341195" fill="#ff0200" stroke="none" /><line stroke="#e1ed5e" stroke-width="0.3" x1="15.007084014347285" x2="10.007500721073583" y1="101.09737516637583" y2="101.16192664675087" /><path d="M 14.007167355692545 101.11028546245083 a86.0,86.0 0 0,1 10.666146001902534,-42.60595125391555" fill="none" id="id46" stroke="none" /><text fill="#e1ed5e" style="font-size:6.75px; font-family:Arial;" text-anchor="middle"><textPath startOffset="22.20632615414155" xlink:href="#id46">October</textPath></text><path d="M 79.00175016825051 100.2711162175752 l -0.33859003250780684 0.004371661907907392 a21.338618253408576,21.338618253408576 0 0,0 -0.001580787916908962,-0.367319440325583 l 0.3386151177142188 0.0014572566213510024" fill="#ff0400" stroke="none" /><path d="M 79.00019446554 99.90962569577889 l -1.2792671474794206 -0.00550542614200274 a22.27927899394039,22.27927899394039 0 0,0 0.0049512969755785355,-0.38348340727925795 l 1.2789828433861266 0.02752509148173267" fill="#ff1101" stroke="none" /><path d="M 79.01574976396665 99.18683210126434 l -0.20631481501260385 -0.007994976361545118 a21.206469664940656,21.206469664940656 0 0,0 0.017274579908233247,-0.3646390792260071 l 0.2061466268708718 0.011545162210561281" fill="#ff0200" stroke="none" /><path d="M 79.03285615573316 98.82574320788736 l -0.13313159474787573 -0.007455983539705025 a21.133340216028987,21.133340216028987 0 0,0 0.023467476378117292,-0.3630314726185598 l 0.13298352736534527 0.009746520411276566" fill="#ff0100" stroke="none" /><path d="M 79.05617556472873 98.46500227214037 l -0.15199498215292973 -0.01113989247627069 a21.15240266337585,21.15240266337585 0 0,0 0.029739790814000796,-0.36290077605864 l 0.15178070751943185 0.013754585742689078" fill="#ff0100" stroke="none" /><path d="M 79.08570108090925 98.10471618934814 l -0.1392578514764127 -0.012619746539458937 a21.13982849209137,21.13982849209137 0 0,0 0.03596073506296292,-0.3621196945389015 l 0.1390199907312211 0.015014971782790768" fill="#ff0100" stroke="none" /><path d="M 79.12142395522702 97.74499172005258 l -0.13934516046745535 -0.015050092015416983 a21.14015555292379,21.14015555292379 0 0,0 0.04218935507963122,-0.3614526297173205 l 0.1390654523842352 0.017446460057599276" fill="#ff0100" stroke="none" /><path d="M 79.16333360222342 97.38593545837743 l -0.2442379430595888 -0.03064087769524539 a21.246152465386626,21.246152465386626 0 0,0 0.04864761976966933,-0.36248127285932114 l 0.2436743242320856 0.03484049261922595" fill="#ff0300" stroke="none" /><path d="M 79.21141760316559 97.0276538004421 l -0.07822245366018127 -0.011184226438275014 a21.079017967435526,21.079017967435526 0 0,0 0.054448214134306464,-0.35874570149830937 l 0.07801834608657258 0.012529040328676426" fill="#ff0000" stroke="none" /><path d="M 79.26566170972629 96.67025291283419 l -0.23884470903929433 -0.0383562987675194 a21.24190494143611,21.24190494143611 0 0,0 0.06108376653227156,-0.36051984782724145 l 0.23814908098679977 0.0424619349105888" fill="#ff0300" stroke="none" /><path d="M 79.32604984820605 96.31383870115002 l -0.16359681766953862 -0.029169280833162038 a21.166176910838793,21.166176910838793 0 0,0 0.06704061594382113,-0.3581336510822164 l 0.16307047781585587 0.03198100937795111" fill="#ff0100" stroke="none" /><path d="M 79.46518482838121 95.60439243477599 l -0.10882237900022697 -0.0232941211499282 a21.11128758354559,21.11128758354559 0 0,0 0.07912270621139182,-0.3546915775420844 l 0.10840528578679756 0.025163868241971855" fill="#ff0100" stroke="none" /><path d="M 80.95270993114464 91.15688171328213 l -0.0756875754292154 -0.03513960148324949 a21.083446993155864,21.083446993155864 0 0,0 0.15565789056478943,-0.3278552152407554 l 0.07507149102267445 0.0364372323645371" fill="#ff0000" stroke="none" /><line stroke="#e1ed5e" stroke-width="0.3" x1="26.266209847984243" x2="21.928928074336255" y1="57.711370442889674" y2="55.22380399835377" /><path d="M 25.398753493254645 57.213857153982495 a86.0,86.0 0 0,1 29.58750427330803,-30.492523968695096" fill="none" id="id47" stroke="none" /><text fill="#e1ed5e" style="font-size:6.75px; font-family:Arial;" text-anchor="middle"><textPath startOffset="21.46611528233685" xlink:href="#id47">November</textPath></text><line stroke="#e1ed5e" stroke-width="0.3" x1="56.762969772571076" x2="54.21961505331055" y1="26.818313649435495" y2="22.513508569990535" /><path d="M 56.25429882871897 25.957352633546506 a86.0,86.0 0 0,1 42.265352541879196,-11.944610805530505" fill="none" id="id48" stroke="none" /><text fill="#e1ed5e" style="font-size:6.75px; font-family:Arial;" text-anchor="middle"><textPath startOffset="22.20632615414155" xlink:href="#id48">December</textPath></text></svg>