<?xml version="1.0" encoding="utf-8" ?>
<svg baseProfile="full" height="200mm" version="1.1" viewBox="0,0,200,200" width="200mm" xmlns="http://www.w3.org/2000/svg" xmlns:ev="http://www.w3.org/2001/xml-events" xmlns:xlink="http://www.w3.org/1999/xlink"><defs /><rect fill="#1a1a1a" height="200" width="200" x="0" y="0" /><text alignment-baseline="middle" fill="#e1ed5e" style="dominant-baseline: central; font-size:9.0px; font-family:Arial;" text-anchor="middle" x="100.0" y="100.0">2022</text><line stroke="#e1ed5e" stroke-width="0.3" x1="100.0" x2="100.0" y1="15.0" y2="10.0" /><path d="M 100.0 14.0 a86.0,86.0 0 0,1 42.46469731375804,11.215312516191453" fill="none" id="id37" stroke="none" /><text fill="#e1ed5e" style="font-size:6.75px; font-family:Arial;" text-anchor="middle"><textPath startOffset="22.20632615414155" xlink:href="#id37">January</textPath></text><path d="M 100.36148047927253 79.00311137660856 l 0.005881027572584634 -0.34160428574500373 a21.341654905606028,21.341654905606028 0 0,0 0.36725264970232413,0.009485052440954813 l -0.011760312469776539 0.34145244116168927" fill="#ff0500" stroke="none" /><path d="M 110.05341064243156 81.56283822128135 l 0.0011874588757385283 -0.002177705872787407 a21.002480415580088,21.002480415580088 0 0,0 0.3159132206199097,0.175805365242993 l -0.0012247685676832995 0.002156943069614488" fill="#ff0000" stroke="none" /><line stroke="#e1ed5e" stroke-width="0.3" x1="143.23703022742887" x2="145.7803849466894" y1="26.81831364943548" y2="22.513508569990506" /><path d="M 143.74570117128098 25.957352633546492 a86.0,86.0 0 0,1 28.547481713284135,27.462654790039103" fill="none" id="id38" stroke="none" /><text fill="#e1ed5e" style="font-size:6.75px; font-family:Arial;" text-anchor="middle"><textPath startOffset="19.985693538727396" xlink:href="#id38">February</textPath></text><path d="M 110.68208982089419 81.91981866633111 l 0.008159983576824565 -0.013811340779045996 a21.016041772535758,21.016041772535758 0 0,0 0.3098744643205615,0.18669589754409205 l -0.008396514115023547 0.013668833776339366" fill="#ff0000" stroke="none" /><path d="M 110.99172775467656 82.1063720568725 l 0.004918859897722314 -0.00800749899184555 a21.009397617932105,21.009397617932105 0 0,0 0.3065179547776282,0.19194151516173957 l -0.005055967047613746 0.007921642507161769" fill="#ff0000" stroke="none" /><path d="M 112.77801427241765 83.33499621200491 l 0.24663923065761803 -0.3216652936481442 a21.405338711742573,21.405338711742573 0 0,0 0.29046784183962915,0.22671475788039336 l -0.2521396276566775 0.3173721465445268" fill="#ff0600" stroke="none" /><path d="M 117.45458315368197 88.32363383020206 l 0.08544573706635912 -0.05715952680454737 a21.102801680372128,21.102801680372128 0 0,0 0.19937461222667935,0.30366121272714497 l -0.08641698465096337 0.055680250099728414" fill="#ff0100" stroke="none" /><line stroke="#e1ed5e" stroke-width="0.3" x1="172.23445277983987" x2="176.4835382374775" y1="55.19839476539836" y2="52.563006222186495" /><path d="M 173.08426987136738 54.67131705675599 a86.0,86.0 0 0,1 12.851231095245387,41.99856678651699" fill="none" id="id39" stroke="none" /><text fill="#e1ed5e" style="font-size:6.75px; font-family:Arial;" text-anchor="middle"><textPath startOffset="22.20632615414155" xlink:href="#id39">March</textPath></text><line stroke="#e1ed5e" stroke-width="0.3" x1="184.98032266829074" x2="189.97916517819016" y1="98.17113171792111" y2="98.06355123074" /><path d="M 185.9800911702706 98.14961562048488 a86.0,86.0 0 0,1 -9.607161424134198,41.387399972396054" fill="none" id="id40" stroke="none" /><text fill="#e1ed5e" style="font-size:6.75px; font-family:Arial;" text-anchor="middle"><textPath startOffset="21.466115282336823" xlink:href="#id40">April</textPath></text><line stroke="#e1ed5e" stroke-width="0.3" x1="174.80103733775053" x2="179.2010983576182" y1="140.37084112569926" y2="142.7455964860345" /><path d="M 175.68104954172406 140.8457921977663 a86.0,86.0 0 0,1 -30.038265399797805,32.042727171017184" fill="none" id="id41" stroke="none" /><text fill="#e1ed5e" style="font-size:6.75px; font-family:Arial;" text-anchor="middle"><textPath startOffset="22.206326154141568" xlink:href="#id41">May</textPath></text><line stroke="#e1ed5e" stroke-width="0.3" x1="143.8653032363475" x2="146.44561519142675" y1="172.8068346515853" y2="177.08958963109032" /><path d="M 144.38136562736335 173.6633856474863 a86.0,86.0 0 0,1 -40.68145358897372,12.25698825130547" fill="none" id="id42" stroke="none" /><text fill="#e1ed5e" style="font-size:6.75px; font-family:Arial;" text-anchor="middle"><textPath startOffset="21.466115282336833" xlink:href="#id42">June</textPath></text><path d="M 105.88484417918355 120.15858648285463 l 0.0010521380572288555 0.003604108345565932 a21.003754542776164,21.003754542776164 0 0,0 -0.3479310265815774,0.09832878350104224 l -0.0009899433710457337 -0.0036216851851272112" fill="#ff0000" stroke="none" /><path d="M 101.62511606390274 120.93702456842531 l 0.0407978146772614 0.5256146728280757 a21.527195642977638,21.527195642977638 0 0,0 -0.3696908764216807,0.02549604731250795 l -0.03174417747665035 -0.5262390646568689" fill="#ff0801" stroke="none" /><line stroke="#e1ed5e" stroke-width="0.3" x1="102.19456741930631" x2="102.32365962044197" y1="184.97166512339345" y2="189.96999836594603" /><path d="M 102.22038585953345 185.97133177190398 a86.0,86.0 0 0,1 -42.740103519485714,-10.115201625700543" fill="none" id="id43" stroke="none" /><text fill="#e1ed5e" style="font-size:6.75px; font-family:Arial;" text-anchor="middle"><textPath startOffset="22.20632615414155" xlink:href="#id43">July</textPath></text><path d="M 95.51606077576429 120.51570834832081 l -0.001894937504510235 0.008670051764016324 a21.008874716093302,21.008874716093302 0 0,0 -0.3526288105406015,-0.0802571692181978 l 0.002043897437974426 -0.008636148968131781" fill="#ff0000" stroke="none" /><line stroke="#e1ed5e" stroke-width="0.3" x1="58.666819895761336" x2="56.23545636021788" y1="174.27360380694188" y2="178.64263932499728" /><path d="M 58.180547188652646 175.14741091055294 a86.0,86.0 0 0,1 -31.652253787137756,-30.449443065178592" fill="none" id="id44" stroke="none" /><text fill="#e1ed5e" style="font-size:6.75px; font-family:Arial;" text-anchor="middle"><textPath startOffset="22.20632615414155" xlink:href="#id44">August</textPath></text><path d="M 87.65650970185807 116.9893568818739 l -0.022565305501548134 0.031058478522239568 a21.038390390731205,21.038390390731205 0 0,0 -0.29114630694038773,-0.21538307754933816 l 0.02309658286050014 -0.030665452233134702" fill="#ff0100" stroke="none" /><path d="M 86.79598089348748 116.32954008644616 l -0.0039832721015048015 0.004926151721839272 a21.006335094902305,21.006335094902305 0 0,0 -0.279214076894632,-0.2297741764867032 l 0.004067477540825635 -0.004856856377955349" fill="#ff0000" stroke="none" /><path d="M 85.18274418774928 114.88116024355367 l -0.004048284938954491 0.0040657445380904 a21.00573749854867,21.00573749854867 0 0,0 -0.25402876025614124,-0.25732979297373615 l 0.004117670250629001 -0.00399545758368958" fill="#ff0000" stroke="none" /><path d="M 84.9287848128048 114.62390073753433 l -1.8903076792253202 1.834203249110037 a23.633925716717165,23.633925716717165 0 0,0 -0.28078617292939567,-0.294403179748145 l 1.9216004035336733 -1.801392952779392" fill="#ff2503" stroke="none" /><path d="M 84.67929136418377 114.36230785411682 l -0.022175979460136348 0.020788741013485188 a21.030396477064656,21.030396477064656 0 0,0 -0.2453081503967121,-0.2662335483075177 l 0.02253053785257744 -0.020403937904623356" fill="#ff0000" stroke="none" /><path d="M 84.19399662182784 113.82643327865904 l -0.004650101389602841 0.004067714972852197 a21.00617816704484,21.00617816704484 0 0,0 -0.2357268204930898,-0.2742035473657171 l 0.004719431453471394 -0.003987068445604754" fill="#ff0000" stroke="none" /><path d="M 83.50135304334701 112.99209946851258 l -49.49594086995897 38.976298405537754 a84.0,84.0 0 0,0 -0.8847727311277263,-1.1436880235469893 l 50.159520418304766 -38.118532387877515" fill="#4dd2ff" stroke="none" /><line stroke="#e1ed5e" stroke-width="0.3" x1="26.63291911575756" x2="22.317208475507996" y1="142.92168965132927" y2="145.44649492493687" /><path d="M 25.769776987707644 143.4266507060508 a86.0,86.0 0 0,1 -11.730757126820373,-40.83630448921669" fill="none" id="id45" stroke="none" /><text fill="#e1ed5e" style="font-size:6.75px; font-family:Arial;" text-anchor="middle"><textPath startOffset="21.46611528233685" xlink:href="#id45">September</textPath></text><path d="M 80.87730276802145 108.67885076344099 l -0.019357830269618403 0.008785566072399517 a21.02125821638708,21.02125821638708 0 0,0 -0.1467072762751124,-0.3307861784105569 l 0.019506191276010686 -0.008451051169146741" fill="#ff0000" stroke="none" /><path d="M 80.73074385275274 108.34839909993369 l -0.012533621612112668 0.005430187578902402 a21.013659378018698,21.013659378018698 0 0,0 -0.14094063356919134,-0.3331420245674593 l 0.012625236373610618 -0.005213637345284297" fill="#ff0000" stroke="none" /><path d="M 80.58989483394504 108.01547362559985 l -0.005603907560260757 0.0023141540380792864 a21.006062927416348,21.006062927416348 0 0,0 -0.13513638982089296,-0.3353974370807863 l 0.005642911638541512 -0.0022173491144876325" fill="#ff0000" stroke="none" /><path d="M 80.45479744820244 107.68017299344265 l -0.07225794993182036 0.02839333868028189 a21.077636286681955,21.077636286681955 0 0,0 -0.1297837592626383,-0.3388244417736237 l 0.07273598878796775 -0.027145330073500333" fill="#ff0100" stroke="none" /><path d="M 80.20201598880116 107.00284435728193 l -0.006821395205414272 0.0024128299576363153 a21.007235549803084,21.007235549803084 0 0,0 -0.11764969129486724,-0.3419450735026484 l 0.0068619174435099696 -0.002295053365691023" fill="#ff0000" stroke="none" /><path d="M 80.0844068197444 106.66101706037122 l -0.006712131168903143 0.002244955489040546 a21.007077607644984,21.007077607644984 0 0,0 -0.11174539772747503,-0.34391697094095236 l 0.006749779912627492 -0.002129084570284786" fill="#ff0000" stroke="none" /><path d="M 79.86692584326677 105.97154293290107 l -0.0044619535677328445 0.0013234316372602666 a21.00465408432875,21.00465408432875 0 0,0 -0.0998294827274465,-0.34751952577199424 l 0.004484073181283422 -0.0012464303606700292" fill="#ff0000" stroke="none" /><path d="M 79.76711848015287 105.62410040840567 l -0.01935864730177435 0.005381090977540265 a21.020092619676465,21.020092619676465 0 0,0 -0.09390168210123379,-0.34944309138185675 l 0.019448405744783032 -0.005047066420144577" fill="#ff0000" stroke="none" /><path d="M 79.10278846688536 102.07522291339032 l -0.002571152107911056 0.0002553313756571599 a21.002583799000195,21.002583799000195 0 0,0 -0.032629417888901814,-0.36006290743849667 l 0.0025751662738882114 -0.0002110353885943061" fill="#ff0000" stroke="none" /><path d="M 79.07016306316243 101.71520430193888 l -0.0029777399960029495 0.0002440263852323849 a21.002987722269637,21.002987722269637 0 0,0 -0.026427200664432226,-0.3605781565574723 l 0.0029814993247705215 -0.00019273333099947875" fill="#ff0000" stroke="none" /><path d="M 79.04373962182676 101.35467743843564 l -0.004140434254263298 0.0002676504666557079 a21.004149076112363,21.004149076112363 0 0,0 -0.020217642825262474,-0.36099959408932564 l 0.004144427967057404 -0.00019634004189243812" fill="#ff0000" stroke="none" /><path d="M 79.0235259727143 100.99374915477108 l -0.006806797240526494 0.0003224683517197666 a21.006814431341756,21.006814431341756 0 0,0 -0.014002409410923733,-0.361339968588351 l 0.0068113395026510905 -0.0002052527493720031" fill="#ff0000" stroke="none" /><line stroke="#e1ed5e" stroke-width="0.3" x1="15.007084014347285" x2="10.007500721073583" y1="101.09737516637583" y2="101.16192664675087" /><path d="M 14.007167355692545 101.11028546245083 a86.0,86.0 0 0,1 10.666146001902534,-42.60595125391555" fill="none" id="id46" stroke="none" /><text fill="#e1ed5e" style="font-size:6.75px; font-family:Arial;" text-anchor="middle"><textPath startOffset="22.20632615414155" xlink:href="#id46">October</textPath></text><path d="M 79.00175016825051 100.2711162175752 l -0.0039844213598714895 5.1444346884609325e-05 a21.003984753454585,21.003984753454585 0 0,0 -0.001555997905342223,-0.3615591146823021 l 0.003984716554716726 1.7148539092896123e-05" fill="#ff0000" stroke="none" /><path d="M 79.00019446554 99.90962569577889 l -0.05013876743643284 -0.00021577610393279763 a21.050139231738946,21.050139231738946 0 0,0 0.0046781357126486805,-0.36232676643106765 l 0.05012762460606861 0.0010788005954724433" fill="#ff0100" stroke="none" /><path d="M 79.01574976396665 99.18683210126434 l -0.006796515044191172 -0.00026337409223799397 a21.006801616179878,21.006801616179878 0 0,0 0.017111932295597307,-0.3612058451893512 l 0.006790974515095059 0.00038032590459833714" fill="#ff0000" stroke="none" /><path d="M 79.08570108090925 98.10471618934814 l -0.0028173781459830947 -0.00025531485464673845 a21.00282892299161,21.00282892299161 0 0,0 0.035727686568270564,-0.3597729280013714 l 0.0028125658954838576 0.0003037735604484228" fill="#ff0000" stroke="none" /><path d="M 79.16333360222342 97.38593545837743 l -0.0029585385955517495 -0.00037116353883166726 a21.002981729866022,21.002981729866022 0 0,0 0.04809082825177029,-0.35833252932200316 l 0.0029517112859476025 0.000422034925494223" fill="#ff0000" stroke="none" /><path d="M 79.21141760316559 97.0276538004421 l -31.184398529738978 -4.458737334080232 a52.50154044290386,52.50154044290386 0 0,0 0.13561424544693623,-0.893528435956015 l 31.10302839085274 4.994864882428339" fill="#77ff27" stroke="none" /><path d="M 79.32604984820605 96.31383870115002 l -0.004466085569223899 -0.0007963021900387533 a21.00453652041652,21.00453652041652 0 0,0 0.06652864482211328,-0.35539868087819054 l 0.004451716837249 0.0008730605308019769" fill="#ff0000" stroke="none" /><line stroke="#e1ed5e" stroke-width="0.3" x1="26.266209847984243" x2="21.928928074336255" y1="57.711370442889674" y2="55.22380399835377" /><path d="M 25.398753493254645 57.213857153982495 a86.0,86.0 0 0,1 29.58750427330803,-30.492523968695096" fill="none" id="id47" stroke="none" /><text fill="#e1ed5e" style="font-size:6.75px; font-family:Arial;" text-anchor="middle"><textPath startOffset="21.46611528233685" xlink:href="#id47">November</textPath></text><line stroke="#e1ed5e" stroke-width="0.3" x1="56.762969772571076" x2="54.21961505331055" y1="26.818313649435495" y2="22.513508569990535" /><path d="M 56.25429882871897 25.957352633546506 a86.0,86.0 0 0,1 42.265352541879196,-11.944610805530505" fill="none" id="id48" stroke="none" /><text fill="#e1ed5e" style="font-size:6.75px; font-family:Arial;" text-anchor="middle"><textPath startOffset="22.20632615414155" xlink:href="#id48">December</textPath></text></svg>