<?xml version="1.0" encoding="utf-8" ?>
<svg baseProfile="full" height="200mm" version="1.1" viewBox="0,0,200,200" width="200mm" xmlns="http://www.w3.org/2000/svg" xmlns:ev="http://www.w3.org/2001/xml-events" xmlns:xlink="http://www.w3.org/1999/xlink"><defs /><rect fill="#1a1a1a" height="200" width="200" x="0" y="0" /><text alignment-baseline="middle" fill="#e1ed5e" style="dominant-baseline: central; font-size:9.0px; font-family:Arial;" text-anchor="middle" x="100.0" y="100.0">2024</text><line stroke="#e1ed5e" stroke-width="0.3" x1="100.0" x2="100.0" y1="15.0" y2="10.0" /><path d="M 100.0 14.0 a86.0,86.0 0 0,1 42.35913384403234,11.155469271406648" fill="none" id="id85" stroke="none" /><text fill="#e1ed5e" style="font-size:6.75px; font-family:Arial;" text-anchor="middle"><textPath startOffset="22.145653131862478" xlink:href="#id85">January</textPath></text><path d="M 100.0 79.0 l 0.0 -0.13275978546625922 a21.13275978546626,21.13275978546626 0 0,0 0.3627719231043328,0.0031139606535034994 l -0.002278998255478013 0.13274022300719063" fill="#ff0100" stroke="none" /><path d="M 100.36049292484886 79.00309439819443 l 0.0012729167534385377 -0.07414101933376875 a21.074151945793158,21.074151945793158 0 0,0 0.36165922754828733,0.009315058808045194 l -0.0025454583724672177 0.07410824317567845" fill="#ff0100" stroke="none" /><path d="M 101.08105385017728 79.02784411241856 l 0.0017164041366794218 -0.033297781710529537 a21.033341990192586,21.033341990192586 0 0,0 0.3604269956523922,0.0216823930392634 l -0.002287751921533995 0.033263410846574394" fill="#ff0000" stroke="none" /><path d="M 101.44090949804482 79.04949213459386 l 0.007181124070856165 -0.10441196795015519 a21.10465862407917,21.10465862407917 0 0,0 0.3612223173418245,0.027960891891856247 l -0.008972436187914138 0.10427330906324529" fill="#ff0100" stroke="none" /><path d="M 101.80034050326958 79.07731436759882 l 0.009882831449889667 -0.11485348199883652 a21.1152778933045,21.1152778933045 0 0,0 0.3608705931025605,0.034174820362553475 l -0.01185298793746307 0.11466690613109934" fill="#ff0100" stroke="none" /><path d="M 102.15924093988457 79.11130261209362 l 0.011932531097303443 -0.1154364140468173 a21.11605150143956,21.11605150143956 0 0,0 0.36024395966258993,0.040366087077187016 l -0.013912392360690017 0.11521456646265943" fill="#ff0100" stroke="none" /><path d="M 102.51750503828377 79.15144685158666 l 0.00845735379292447 -0.07003902171608917 a21.07054779511881,21.07054779511881 0 0,0 0.358723244841193,0.04644390593425207 l -0.00965842052490918 0.06988351958144007" fill="#ff0100" stroke="none" /><path d="M 102.87502721639298 79.19773525538626 l 0.008145659599946191 -0.05893793510941973 a21.059498167747254,21.059498167747254 0 0,0 0.3576854421398317,0.05256744241987921 l -0.009156207347459915 0.058789419390658106" fill="#ff0000" stroke="none" /><path d="M 103.23170211078529 79.25015418208739 l 0.007277049095687834 -0.046723875397107956 a21.04728716502039,21.04728716502039 0 0,0 0.3565235021095292,0.05866580659901921 l -0.008078054258287566 0.04659207030242038" fill="#ff0000" stroke="none" /><path d="M 103.58742460773223 79.30868818359171 l 0.008663826674139624 -0.04997064993409314 a21.050716148783945,21.050716148783945 0 0,0 0.3555218024690283,0.06478791546420903 l -0.009520362694221633 0.04981456053851815" fill="#ff0000" stroke="none" /><path d="M 103.94208987418118 79.37332000966035 l 0.006357709721132459 -0.033266223773376055 a21.033868305494053,21.033868305494053 0 0,0 0.3540736366129125,0.07082464373311662 l -0.006927831865001935 0.03315218337740029" fill="#ff0000" stroke="none" /><path d="M 104.29559338865022 79.4440306129975 l 0.02711158995604174 -0.1297387724457035 a21.132541266727245,21.132541266727245 0 0,0 0.3544607269756394,0.07725306566550792 l -0.029334733550815235 0.1292542486464768" fill="#ff0100" stroke="none" /><path d="M 104.64783097203109 79.52079915486377 l 0.02892399678005793 -0.12744446664849984 a21.13068546081739,21.13068546081739 0 0,0 0.35305133798271066,0.08331915445496536 l -0.03110748850265355 0.12692916854730701" fill="#ff0100" stroke="none" /><path d="M 105.3480935250658 79.69241777938227 l 0.045169760809149195 -0.1715169391145132 a21.177365068981373,21.177365068981373 0 0,0 0.3507562595327464,0.09560017827945434 l -0.04810742127658838 0.1707162666909168" fill="#ff0200" stroke="none" /><path d="M 105.69591212413111 79.78721728523813 l 0.023684440660843444 -0.08404772446719018 a21.087321089763755,21.087321089763755 0 0,0 0.34757928861504556,0.1011752652410114 l -0.025123741657493485 0.08362876492366283" fill="#ff0100" stroke="none" /><path d="M 106.72888874123014 80.10723608172694 l 12.82788627658979 -37.92336641072247 a61.034190215952094,61.034190215952094 0 0,0 0.9896090226875288,0.3442373883849603 l -13.477001071322338 37.69757058976892" fill="#31ff3f" stroke="none" /><path d="M 107.40779381753099 80.34994680014964 l 0.05373129050517679 -0.1425286317263138 a21.152320262739817,21.152320262739817 0 0,0 0.33866651356920746,0.13100348283390387 l -0.05617006656791015 0.14158526075437172" fill="#ff0200" stroke="none" /><path d="M 107.74402155503746 80.48000691201159 l 0.06730506157325707 -0.16965272208494722 a21.18251580047824,21.18251580047824 0 0,0 0.3368479358253681,0.13699312301978142 l -0.07020745858906485 0.1684723424858722" fill="#ff0200" stroke="none" /><path d="M 108.73861861582097 80.90454125486305 l 0.10075206577343729 -0.2201614465678626 a21.242119890369356,21.242119890369356 0 0,0 0.33027580407143725,0.15458575290841758 l -0.1045165837163796 0.21839946208891145" fill="#ff0300" stroke="none" /><path d="M 109.06512990194946 81.05736502329252 l 0.04283444453754746 -0.08950751462814584 a21.099228951489714,21.099228951489714 0 0,0 0.3253699544958575,0.1591547492402679 l -0.044364648295472 0.08875901529065677" fill="#ff0100" stroke="none" /><path d="M 109.3889696526874 81.21577127319529 l 0.036252367349054626 -0.07252901919625175 a21.08108447918055,21.08108447918055 0 0,0 0.3223124934772024,0.16457505573689946 l -0.037492082539835894 0.07189601178651837" fill="#ff0100" stroke="none" /><path d="M 109.71004243097381 81.37971332152246 l 0.06275409214186659 -0.12033924611923275 a21.135718864706035,21.135718864706035 0 0,0 0.32026772043526003,0.17052452198068244 l -0.06481062836368617 0.11924425641597718" fill="#ff0100" stroke="none" /><path d="M 110.02825361518725 81.54914285379988 l 0.06131115799068608 -0.11280562508321958 a21.128390681689034,21.128390681689034 0 0,0 0.31718323606242677,0.17593619429030694 l -0.06323858220921313 0.11173651535976661" fill="#ff0100" stroke="none" /><line stroke="#e1ed5e" stroke-width="0.3" x1="143.13028292997686" x2="145.6673583964461" y1="26.7553504044142" y2="22.446841604673864" /><path d="M 143.63769802327073 25.89364864446614 a86.0,86.0 0 0,1 29.32050498858742,28.57503671076993" fill="none" id="id86" stroke="none" /><text fill="#e1ed5e" style="font-size:6.75px; font-family:Arial;" text-anchor="middle"><textPath startOffset="20.669276256404974" xlink:href="#id86">February</textPath></text><path d="M 110.65571695917076 81.90426304109057 l 2.8415659483938436 -4.825600206025988 a26.60008164114323,26.60008164114323 0 0,0 0.39148637657977803,0.23507632081893637 l -2.9239850815310557 4.77610988467113" fill="#ff4e07" stroke="none" /><path d="M 110.96478420261332 82.08984904055464 l 0.05249122685893574 -0.0857404742052255 a21.10053237197089,21.10053237197089 0 0,0 0.3072999857610757,0.1917779189235905 l -0.053955341409723995 0.08482675844008965" fill="#ff0100" stroke="none" /><path d="M 112.16784306229584 82.88440491214696 l 0.1141332264623612 -0.16054267631484617 a21.19697802999584,21.19697802999584 0 0,0 0.2947581003545041,0.213382133560143 l -0.11687233719083318 0.15855977138162847" fill="#ff0200" stroke="none" /><path d="M 112.7482090630111 83.31218511350987 l 0.3869992608468857 -0.5065944552917401 a21.63750009413989,21.63750009413989 0 0,0 0.29322939760697975,0.2280169531613427 l -0.3956386030890914 0.4998764505096065" fill="#ff0901" stroke="none" /><path d="M 113.03279911837588 83.53348406188908 l 0.09212892072630183 -0.11640188172329147 a21.148449102735302,21.148449102735302 0 0,0 0.2827338473225685,0.22775037372413587 l -0.09411353840412988 0.11480321420574736" fill="#ff0200" stroke="none" /><path d="M 113.31354834802062 83.75963576809568 l 1.13849234796584 -1.3887755482519517 a22.79579017421281,22.79579017421281 0 0,0 0.30049808539439266,0.25068619042075974 l -1.1621647675221252 1.3690271739193216" fill="#ff1902" stroke="none" /><path d="M 113.59037401385872 83.9905735841838 l 0.09202263121468252 -0.10840242818328112 a21.14219441301157,21.14219441301157 0 0,0 0.27466783231964603,0.23725153171418054 l -0.09386994329718877 0.10680676400438058" fill="#ff0200" stroke="none" /><path d="M 114.13192950727249 84.46653392183569 l 0.04571326097507596 -0.050246881596260055 a21.067929752974113,21.067929752974113 0 0,0 0.2654260472707468,0.24567438677300468 l -0.046569079559787716 0.04945474869088044" fill="#ff0000" stroke="none" /><path d="M 115.8921839302757 86.27271002978787 l 0.07180635507650526 -0.06202461928227257 a21.094885225543727,21.094885225543727 0 0,0 0.2343595907291833,0.276075008590171 l -0.07286050931280076 0.06078282824254959" fill="#ff0100" stroke="none" /><path d="M 116.1254893667686 86.54754324733833 l 4.014737236523499 -3.3492365917857136 a26.228336334445665,26.228336334445665 0 0,0 0.2854556997769825,0.34820953928037646 l -4.071639755539109 3.279824770806842" fill="#ff4906" stroke="none" /><path d="M 116.35404254752997 86.82634096563983 l 28.103971780519174 -22.6385702906073 a57.08792172795471,57.08792172795471 0 0,0 0.608213547402409,0.7684579483739379 l -28.48845175856314 22.152792398318685" fill="#49ff2c" stroke="none" /><path d="M 117.21940702142032 87.97951657250589 l 0.059003893001345 -0.04118929978819918 a21.071958444996792,21.071958444996792 0 0,0 0.20450863792815863,0.29838421455187597 l -0.059702267744828626 0.040170350166274495" fill="#ff0100" stroke="none" /><path d="M 117.42321728460499 88.27688183743584 l 0.075897373324085 -0.05106713996459611 a21.091478216323118,21.091478216323118 0 0,0 0.19954101279139597,0.3021305258592102 l -0.07676282503620532 0.04975673576632724" fill="#ff0100" stroke="none" /><path d="M 117.81537515405839 88.88188828441811 l 0.09304757586756524 -0.05806856911031747 a21.109680490942328,21.109680490942328 0 0,0 0.18921514897648362,0.30906872578258826 l -0.09403068929945119 0.05646272720317448" fill="#ff0100" stroke="none" /><line stroke="#e1ed5e" stroke-width="0.3" x1="172.87174338648825" x2="177.1583165268699" y1="56.24261187166439" y2="53.66864786411523" /><path d="M 173.72905801456457 55.72781907015455 a86.0,86.0 0 0,1 12.242430191666344,42.057860355516425" fill="none" id="id87" stroke="none" /><text fill="#e1ed5e" style="font-size:6.75px; font-family:Arial;" text-anchor="middle"><textPath startOffset="22.145653131862474" xlink:href="#id87">March</textPath></text><path d="M 118.00360718960297 89.18935116829356 l 0.03676500090317872 -0.02207632669808323 a21.042883907143487,21.042883907143487 0 0,0 0.18329984196684648,0.31128320483278316 l -0.03713855299979289 0.021441953571743614" fill="#ff0000" stroke="none" /><path d="M 118.36410011445183 89.81374322990088 l 0.03938644919300331 -0.021846999430517468 a21.045039801999454,21.045039801999454 0 0,0 0.17252387949735445,0.31742450650561516 l -0.03975567830569904 0.021167659450298987" fill="#ff0000" stroke="none" /><path d="M 118.53625476483649 90.13048839642627 l 0.0663876762380209 -0.03534769829601133 a21.075211590404074,21.075211590404074 0 0,0 0.16728893889362306,0.32079859820191836 l -0.06698468410658855 0.03420285698959477" fill="#ff0100" stroke="none" /><path d="M 118.70294669586156 90.45014215332178 l 0.04654715469265056 -0.02376730884767553 a21.05226397018829,21.05226397018829 0 0,0 0.16158122541925576,0.323270689810351 l -0.04694829332364331 0.022964762873574074" fill="#ff0000" stroke="none" /><path d="M 118.8641267826498 90.77261029715802 l 0.03175314666262972 -0.015532055203162889 a21.035348367173217,21.035348367173217 0 0,0 0.15588269152244047,0.3257348716052366 l -0.03201509614498217 0.01498468153282277" fill="#ff0000" stroke="none" /><path d="M 119.0197475246899 91.09779779509293 l 0.03260235696227037 -0.01525954924785064 a21.035996771004395,21.035996771004395 0 0,0 0.15027268156712548,0.32837292912531274 l -0.03285950338444725 0.014697637907853698" fill="#ff0000" stroke="none" /><path d="M 119.16976305983485 91.42560881287824 l 0.13543112376060726 -0.06057661904376985 a21.14836143723298,21.14836143723298 0 0,0 0.1453860401140634,0.33267171165751364 l -0.13645104589164098 0.058242837610406877" fill="#ff0200" stroke="none" /><path d="M 119.4528033332814 92.08871423366111 l 0.10655128757100728 -0.04333348105686098 a21.115025942567513,21.115025942567513 0 0,0 0.13366950128236108,0.3369344626125501 l -0.10727946381949278 0.041498001230745526" fill="#ff0100" stroke="none" /><path d="M 119.58574465831526 92.42381321644754 l 0.12260781606214671 -0.04742733716871443 a21.131461130644933,21.131461130644933 0 0,0 0.12796540295170683,0.33944343453384584 l -0.12340390282829417 0.04531562244071083" fill="#ff0100" stroke="none" /><path d="M 119.71291397450082 92.76114493625339 l 0.12435033414837655 -0.045663165130884836 a21.132469355900085,21.132469355900085 0 0,0 0.12212537559921975,0.34160641103236006 l -0.12511587979153954 0.04352179771760797" fill="#ff0100" stroke="none" /><path d="M 119.83427380445688 93.10060997987247 l 0.11139966197462742 -0.03875058515631751 a21.11794699037287,21.11794699037287 0 0,0 0.11616336875476505,0.3434163588455121 l -0.11204845230175745 0.03683255183664381" fill="#ff0100" stroke="none" /><path d="M 119.94978838288452 93.4421083053983 l 0.2468968759438289 -0.08115990711782334 a21.259894205157014,21.259894205157014 0 0,0 0.11099212112989677,0.34768123859504546 l -0.24825371285098286 0.07690963483139085" fill="#ff0300" stroke="none" /><path d="M 120.05942366710727 93.78553927170692 l 0.16162284093153867 -0.05007116926351097 a21.169201255025477,21.169201255025477 0 0,0 0.10455940270262254,0.3480442454943029 l -0.16245856363778854 0.04728932017848461" fill="#ff0200" stroke="none" /><path d="M 120.16314734710363 94.1308016681162 l 0.061724415717029364 -0.017967077833953838 a21.06428623010801,21.06428623010801 0 0,0 0.09808084147393231,0.3480543052612548 l -0.06202374926554373 0.016904848669685887" fill="#ff0000" stroke="none" /><path d="M 120.26092885502905 94.47779374421319 l 0.07635344810705927 -0.020810471810281266 a21.07913864274047,21.07913864274047 0 0,0 0.09215650776090838,0.34993327056609685 l -0.07669943667269791 0.019496696871385822" fill="#ff0100" stroke="none" /><path d="M 120.35273937422433 94.82641323984039 l 0.2193910664993029 -0.05576835118203091 a21.22636817146689,21.22636817146689 0 0,0 0.08673748361283062,0.35391853237920257 l -0.22031607662842473 0.05199399419473339" fill="#ff0300" stroke="none" /><path d="M 120.43855184770803 95.1765574152323 l 0.0891952433933477 -0.021049834574773905 a21.091645441674007,21.091645441674007 0 0,0 0.08013734372011151,0.3530999227630487 l -0.08954344867112561 0.01951557787269893" fill="#ff0100" stroke="none" /><path d="M 120.51834098615036 95.52812308129327 l 0.08690223903084385 -0.01893993852467298 a21.08894223080119,21.08894223080119 0 0,0 0.0740546131615221,0.3543781320496297 l -0.08721456301673278 0.017445355189638845" fill="#ff0100" stroke="none" /><path d="M 120.592083275326 95.88100663000786 l 0.0398804631326225 -0.007977209544034702 a21.040670471005164,21.040670471005164 0 0,0 0.06780477064963121,0.3547832116077243 l -0.04001152606441062 0.0072914329029958634" fill="#ff0000" stroke="none" /><path d="M 120.65975698304385 96.23510406497455 l 0.2728157039431562 -0.049716109227697584 a21.277308672483823,21.277308672483823 0 0,0 0.06239842561280865,0.35989753719835 l -0.2736289470481991 0.04502553910875494" fill="#ff0400" stroke="none" /><path d="M 120.77682067341334 96.94652285012252 l 0.043457958410945095 -0.006386823329420713 a21.04392477275398,21.04392477275398 0 0,0 0.04945871813023865,0.3578586465575382 l -0.043561193096396285 0.005639868571796898" fill="#ff0000" stroke="none" /><path d="M 120.82617615685814 97.30363454192243 l 0.25552101720877884 -0.03308231138665909 a21.25765370085076,21.25765370085076 0 0,0 0.043748163998348084,0.36229755587175705 l -0.2560512674667906 0.028691078591489068" fill="#ff0300" stroke="none" /><path d="M 120.86939407059847 97.66154086499901 l 0.0902591603820711 -0.010113727183403571 a21.090824024962654,21.090824024962654 0 0,0 0.037227923199788744,0.36014638650848146 l -0.0904194760635259 0.008562818391990724" fill="#ff0100" stroke="none" /><path d="M 120.9064616781168 98.02013634271609 l 0.06208502524012711 -0.005879516439797407 a21.062362801994723,21.062362801994723 0 0,0 0.03099815864931039,0.3602455910006801 l -0.0621768065871783 0.0048128780634553265" fill="#ff0000" stroke="none" /><path d="M 120.93736805541906 98.37931529534042 l 0.050285479291459906 -0.0038924141247568002 a21.050435903038316,21.050435903038316 0 0,0 0.024795447618563952,0.36052036652121083 l -0.05034488807508994 0.0030286234492118065" fill="#ff0000" stroke="none" /><path d="M 120.96210409425399 98.7389718711861 l 0.13045388582810225 -0.007847781825842988 a21.1306897241838,21.1306897241838 0 0,0 0.018673905474627817,0.36226877743383995 l -0.13056938075930274 0.005607211015272368" fill="#ff0100" stroke="none" /><path d="M 120.98066250479742 99.09900007780936 l 1.8045155781796947 -0.07749366327969558 a22.80617876738204,22.80617876738204 0 0,0 0.013439695269151855,0.39128206376754904 l -1.8055799604456946 0.046505334948026604" fill="#ff1902" stroke="none" /><path d="M 120.99303781780057 99.45929381324524 l 0.03853663273120022 -0.0009925669603085146 a21.03854941311395,21.03854941311395 0 0,0 0.00619992867180478,0.361114762833053 l -0.03854799300167103 0.00033088815818916266" fill="#ff0000" stroke="none" /><line stroke="#e1ed5e" stroke-width="0.3" x1="184.99686870605535" x2="189.99668451229388" y1="99.2704041080226" y2="99.22748670261217" /><path d="M 185.99683186730306 99.26182062694052 a86.0,86.0 0 0,1 -10.086455211305974,41.156179273409016" fill="none" id="id88" stroke="none" /><text fill="#e1ed5e" style="font-size:6.75px; font-family:Arial;" text-anchor="middle"><textPath startOffset="21.40746469413373" xlink:href="#id88">April</textPath></text><path d="M 120.99922638620191 99.81974689727618 l 0.03900151399849476 -0.0003347810904964974 a21.03900295081854,21.03900295081854 0 0,0 0.0,0.3611757676286467 l -0.03900151399849476 -0.0003347810904964927" fill="#ff0000" stroke="none" /><path d="M 120.99922638620191 100.18025310272382 l 0.055774241975521784 0.000478754787593658 a21.0557762967047,21.0557762967047 0 0,0 -0.006205005326442592,0.3614104525148829 l -0.05575780505041083 -0.0014361232715476182" fill="#ff0000" stroke="none" /><path d="M 120.9064616781168 101.97986365728391 l 0.04346643509639617 0.004116316595510893 a21.04366090977412,21.04366090977412 0 0,0 -0.037144674445353,0.3593410303264977 l -0.04338936816937709 -0.004861869204940026" fill="#ff0000" stroke="none" /><path d="M 120.82617615685814 102.69636545807757 l 0.04999543398418559 0.00647290987271149 a21.05041271646606,21.05041271646606 0 0,0 -0.04947396649207301,0.35796897610779227 l -0.049876950936902385 -0.00733019418058882" fill="#ff0000" stroke="none" /><path d="M 120.592083275326 104.11899336999214 l 5.498204931436713 1.0997949724971352 a26.607121048239012,26.607121048239012 0 0,0 -0.09343190545097046,0.44710549031339375 l -5.478515315161378 -1.194016914095938" fill="#ff4e07" stroke="none" /><path d="M 120.51834098615036 104.47187691870673 l 5.25906616120064 1.1461889923799893 a26.382520422082827,26.382520422082827 0 0,0 -0.1002399321150153,0.4416756364074779 l -5.23861536752796 -1.2362989627264842" fill="#ff4b07" stroke="none" /><path d="M 120.43855184770803 104.8234425847677 l 0.13576976537536778 0.03204129494668219 a21.139499368356788,21.139499368356788 0 0,0 -0.08638251090504272,0.3524701225967089 l -0.1351997279540292 -0.03436724215149069" fill="#ff0200" stroke="none" /><path d="M 119.83427380445688 106.89939002012753 l 14.570977418797002 5.0685423211290805 a36.42736219190334,36.42736219190334 0 0,0 -0.2105151657789086,0.5888483854953543 l -14.48182208297415 -5.317925663005356" fill="#ffcf13" stroke="none" /><path d="M 119.71291397450082 107.23885506374661 l 0.08271487872921893 0.03037404918982075 a21.088115458504028,21.088115458504028 0 0,0 -0.12770291535714673,0.33874715500387176 l -0.08218127955763159 -0.03178948438785141" fill="#ff0100" stroke="none" /><path d="M 119.58574465831526 107.57618678355244 l 0.15117383414841745 0.05847728663244549 a21.162089855274864,21.162089855274864 0 0,0 -0.1339674412307703,0.3376854659113219 l -0.1501477179515227 -0.06106376975733157" fill="#ff0200" stroke="none" /><path d="M 119.4528033332814 107.91128576633889 l 0.08746455138927886 0.03557107161420601 a21.09442112520782,21.09442112520782 0 0,0 -0.13929766831094825,0.3342636944106811 l -0.08684103854184509 -0.037067275466164916" fill="#ff0100" stroke="none" /><path d="M 119.16976305983485 108.57439118712176 l 0.031447023404700854 0.014065853578933168 a21.034449434217702,21.034449434217702 0 0,0 -0.15026162801683007,0.3283487751230746 l -0.031200930532814707 -0.014603610916696649" fill="#ff0000" stroke="none" /><path d="M 119.0197475246899 108.90220220490707 l 0.03192925313756398 0.014944502670883503 a21.03525358656935,21.03525358656935 0 0,0 -0.1558819891496831,0.32573340391631167 l -0.03166800602796889 -0.015490408652298662" fill="#ff0000" stroke="none" /><path d="M 118.70294669586154 109.54985784667822 l 0.1385410905160028 0.07074006796182346 a21.15555639162891,21.15555639162891 0 0,0 -0.16792669270618943,0.3220215752285109 l -0.13730632883486413 -0.0731078862948372" fill="#ff0200" stroke="none" /><line stroke="#e1ed5e" stroke-width="0.3" x1="174.33088141563837" x2="178.70328620479359" y1="141.23008692659167" y2="143.65538615756765" /><path d="M 175.20536237346943 141.71514677278685 a86.0,86.0 0 0,1 -30.301960400862466,31.631185727798858" fill="none" id="id89" stroke="none" /><text fill="#e1ed5e" style="font-size:6.75px; font-family:Arial;" text-anchor="middle"><textPath startOffset="22.145653131862474" xlink:href="#id89">May</textPath></text><path d="M 118.00360718960297 110.81064883170644 l 0.08660485050358696 0.05200372436793654 a21.101018748155404,21.101018748155404 0 0,0 -0.18913751004904575,0.3089419084294119 l -0.08569937599913656 -0.05348274892190547" fill="#ff0100" stroke="none" /><path d="M 117.62189284568427 111.42229804090321 l 0.04396608964561632 0.028498288125063095 a21.05239436481899,21.05239436481899 0 0,0 -0.19917125059488308,0.3015706587656626 l -0.043470400130006547 -0.029248825229786734" fill="#ff0000" stroke="none" /><path d="M 117.423217284605 111.72311816256416 l 0.09391193423126358 0.0631881405072551 a21.11319095587467,21.11319095587467 0 0,0 -0.20490880978024834,0.29896807724335345 l -0.0928133876356949 -0.06479095282065256" fill="#ff0100" stroke="none" /><path d="M 117.21940702142032 112.02048342749411 l 0.043649175778882415 0.03047051465948539 a21.05323253525608,21.05323253525608 0 0,0 -0.2094144001787044,0.2945675795351734 l -0.04311967707021735 -0.03121532090416278" fill="#ff0000" stroke="none" /><path d="M 117.01052211995028 112.31430620078461 l 0.05158168939441521 0.037341165255099736 a21.063679143393976,21.063679143393976 0 0,0 -0.21454659185267683,0.2910736567141748 l -0.05093307795791029 -0.038221131238151844" fill="#ff0000" stroke="none" /><path d="M 116.79662413953412 112.60449989151573 l 0.16769287168270666 0.12583985718640156 a21.209658219180376,21.209658219180376 0 0,0 -0.22103294105993573,0.2893392151001864 l -0.1655079532684665 -0.12869998552746528" fill="#ff0300" stroke="none" /><path d="M 116.57777611688842 112.89097897827486 l 0.10118098395492456 0.07867894511105956 a21.128171634607178,21.128171634607178 0 0,0 -0.2250991073251607,0.2844053686976649 l -0.0998154459882022 -0.08040425772340737" fill="#ff0100" stroke="none" /><path d="M 116.35404254752997 113.17365903436017 l 0.04262491206237738 0.03433561189824319 a21.05473406044459,21.05473406044459 0 0,0 -0.22914887807616274,0.27952437216652276 l -0.04202921474758707 -0.035062265763258854" fill="#ff0000" stroke="none" /><path d="M 116.1254893667686 113.45245675266167 l 0.2596781553622483 0.2166327529768253 a21.338175241605086,21.338175241605086 0 0,0 -0.2370624899383027,0.27925901706216827 l -0.2559211019168311 -0.22105855248855025" fill="#ff0400" stroke="none" /><path d="M 115.89218393027572 113.72728997021213 l 0.28495924787974947 0.24614101136136354 a21.376546372212225,21.376546372212225 0 0,0 -0.2422562632077498,0.275643157161553 l -0.28069192071341414 -0.2509964463342097" fill="#ff0500" stroke="none" /><path d="M 115.6541949942343 113.99807769240083 l 0.03173940217495393 0.028381569139709864 a21.04257820002367,21.04257820002367 0 0,0 -0.24309418340668,0.2672030913969331 l -0.031247517926394096 -0.028922236094314727" fill="#ff0000" stroke="none" /><path d="M 115.41159269507618 114.26474011684316 l 0.10765451646669859 0.09964341325296597 a21.14669118828471,21.14669118828471 0 0,0 -0.24887054109359058,0.26429189029913197 l -0.10592814163684804 -0.1014767634965951" fill="#ff0200" stroke="none" /><path d="M 115.16444852881244 114.52719865689866 l 0.11217684883242336 0.10746288363848092 a21.15534450995729,21.15534450995729 0 0,0 -0.25347447166224113,0.2600871378076355 l -0.1103155760193751 -0.10937271351385373" fill="#ff0200" stroke="none" /><path d="M 114.91283532996324 114.78537596483092 l 0.030103261790267073 0.029845970500495343 a21.04239089908848,21.04239089908848 0 0,0 -0.2565248614262069,0.25433235441767327 l -0.02958648023409534 -0.030358335146830395" fill="#ff0000" stroke="none" /><path d="M 114.39649973595853 115.28858382429668 l 0.030004468181256294 0.03186370543576002 a21.043767154750302,21.043767154750302 0 0,0 -0.26512163278799583,0.24539262527241218 l -0.029453064079293222 -0.032374076840551776" fill="#ff0000" stroke="none" /><path d="M 114.13192950727249 115.5334660781643 l 0.10897880232314199 0.11978679402938927 a21.161942135899295,21.161942135899295 0 0,0 -0.2708073310598155,0.24215758531455744 l -0.10690644443994855 -0.12163990922733368" fill="#ff0200" stroke="none" /><path d="M 113.86319453409587 115.77377054828091 l 0.114242426157681 0.12998690977452337 a21.17305469842545,21.17305469842545 0 0,0 -0.27506875227780697,0.23759783682521118 l -0.11199419411701847 -0.13192887906445222" fill="#ff0200" stroke="none" /><path d="M 113.59037401385872 116.0094264158162 l 0.1154857928814283 0.1360419736294268 a21.178449956420398,21.178449956420398 0 0,0 -0.27917802431452676,0.23290023719368924 l -0.11313343440500652 -0.13800439473498624" fill="#ff0200" stroke="none" /><path d="M 113.31354834802062 116.24036423190432 l 0.024212560417560338 0.029535386802169165 a21.03819145395933,21.03819145395933 0 0,0 -0.28125981161037106,0.22656299489590181 l -0.023701978451936754 -0.029946675491474572" fill="#ff0000" stroke="none" /><path d="M 113.03279911837588 116.46651593811092 l 0.04460023379522099 0.05635093842557444 a21.07186521492371,21.07186521492371 0 0,0 -0.285563966102576,0.22205626725957173 l -0.04362632305741432 -0.057108257305939346" fill="#ff0100" stroke="none" /><path d="M 112.7482090630111 116.68781488649013 l 0.03862972540609456 0.0505675505874224 a21.06363436852332,21.06363436852332 0 0,0 -0.28922076251619794,0.2170366520960097 l -0.03775597397913026 -0.05122322994744698" fill="#ff0000" stroke="none" /><path d="M 112.45986205192187 116.90419585922612 l 0.7419974656183834 1.0066620668507218 a22.25057137174184,22.25057137174184 0 0,0 -0.3094090176465699,0.22398826783307238 l -0.7246074375978456 -1.0192511060568714" fill="#ff1101" stroke="none" /><path d="M 111.5731344415666 117.5232005979908 l 0.023894340758579668 0.036179077360883126 a21.043357411811268,21.043357411811268 0 0,0 -0.303138950601136,0.1964910053587593 l -0.02326975790043404 -0.03658392442353711" fill="#ff0000" stroke="none" /><path d="M 111.27062007382361 117.71928675628689 l 0.04547438829966848 0.0714932915022129 a21.08473022318541,21.08473022318541 0 0,0 -0.30706984938293996,0.19163429680282 l -0.04424041012701363 -0.07226338514658057" fill="#ff0100" stroke="none" /><path d="M 110.96478420261333 117.91015095944535 l 0.03252725973581818 0.0531308342599888 a21.062296935519203,21.062296935519203 0 0,0 -0.3099840978299843,0.18613654418035663 l -0.031610405348397264 -0.05368137897626883" fill="#ff0000" stroke="none" /><line stroke="#e1ed5e" stroke-width="0.3" x1="143.1302829299769" x2="145.66735839644613" y1="173.24464959558577" y2="177.55315839532614" /><path d="M 143.63769802327073 174.10635135553383 a86.0,86.0 0 0,1 -40.68552437913181,11.842963189579606" fill="none" id="id90" stroke="none" /><text fill="#e1ed5e" style="font-size:6.75px; font-family:Arial;" text-anchor="middle"><textPath startOffset="21.407464694133747" xlink:href="#id90">June</textPath></text><path d="M 110.34350942703117 118.27599006163325 l 0.032609050312585645 0.05761706736348669 a21.066204808087157,21.066204808087157 0 0,0 -0.3162496904401668,0.17541837227040435 l -0.03161517171632437 -0.05816835506703476" fill="#ff0000" stroke="none" /><path d="M 110.02825361518725 118.45085714620011 l 0.0816247190297186 0.15018028943097664 a21.17092897381735,21.17092897381735 0 0,0 -0.32080125617415145,0.17080859971012366 l -0.07903464706901345 -0.15155935686366878" fill="#ff0200" stroke="none" /><path d="M 108.73861861582097 119.09545874513695 l 0.08160900424761397 0.17833040236138228 a21.196116705001536,21.196116705001536 0 0,0 -0.3321599009106646,0.14857089877396618 l -0.07853570048132243 -0.17970505204519874" fill="#ff0200" stroke="none" /><path d="M 108.4095320186766 119.2426549942271 l 0.03363314603928272 0.07695922010488061 a21.08398755902901,21.08398755902901 0 0,0 -0.33289098810081036,0.14209136789849286 l -0.03230708276804119 -0.07752523766277737" fill="#ff0100" stroke="none" /><path d="M 108.07796709384702 119.3841803445677 l 0.014269596078626717 0.03424183592465058 a21.037096154783722,21.037096154783722 0 0,0 -0.3345354481141788,0.1360526543993533 l -0.01367968677400706 -0.034481746903295175" fill="#ff0000" stroke="none" /><path d="M 107.74402155503746 119.51999308798841 l 0.012436765585633804 0.03134877357238056 a21.033725639248566,21.033725639248566 0 0,0 -0.3367677134769708,0.13026898616735394 l -0.011896789615133583 -0.03155764787777506" fill="#ff0000" stroke="none" /><path d="M 107.407793817531 119.65005319985036 l 0.022655472630360537 0.06009633278409962 a21.064224914590852,21.064224914590852 0 0,0 -0.33944582014737923,0.12464920697264442 l -0.021620500828854274 -0.06047638876546593" fill="#ff0000" stroke="none" /><path d="M 107.06938296918513 119.77432235084164 l 0.028596832298644893 0.07999042951149474 a21.08494849987463,21.08494849987463 0 0,0 -0.34187158385406136,0.11892068331122374 l -0.027219476399561744 -0.08046954539130893" fill="#ff0100" stroke="none" /><path d="M 106.72888874123015 119.89276391827305 l 0.023347178452721447 0.06902178457372926 a21.07286355390348,21.07286355390348 0 0,0 -0.34366555332684295,0.11296969344378212 l -0.022158887478144255 -0.0694123994195306" fill="#ff0100" stroke="none" /><path d="M 106.38641147887787 120.00534299687104 l 0.023840895304972947 0.07468126498048283 a21.07839438518177,21.07839438518177 0 0,0 -0.34564488336016674,0.1070816684080219 l -0.022555379073181874 -0.07507952119514909" fill="#ff0100" stroke="none" /><path d="M 106.0420521117495 120.11202640906438 l 0.011462161732120306 0.0381538085401618 a21.039838351593566,21.039838351593566 0 0,0 -0.3467966374530282,0.10094744689422673 l -0.010805511897485343 -0.03834494973690681" fill="#ff0000" stroke="none" /><path d="M 104.9986988182912 120.39639698878246 l 0.05174421531770617 0.2111340562530148 a21.217382275102402,21.217382275102402 0 0,0 -0.35449986772108777,0.08366100352908133 l -0.04811219385673927 -0.21199120342832128" fill="#ff0300" stroke="none" /><path d="M 104.64783097203109 120.47920084513623 l 0.04973267446512443 0.21913133998760456 a21.224703989893854,21.224703989893854 0 0,0 -0.3560065924463998,0.07758997984988537 l -0.04596366539958875 -0.21995277797120869" fill="#ff0300" stroke="none" /><path d="M 103.94208987418118 120.62667999033965 l 0.022736676403956626 0.1189678985504443 a21.121121085445132,21.121121085445132 0 0,0 -0.3567108589271325,0.06500460116043325 l -0.02069108392576696 -0.11934067364224117" fill="#ff0100" stroke="none" /><path d="M 101.80034050326958 120.92268563240118 l 4.484059810330014 52.111572004316066 a73.30413682629353,73.30413682629353 0 0,0 -1.2546561707908732,0.09711832261940986 l -3.588834644763905 -52.18086809393053" fill="#40ffc6" stroke="none" /><path d="M 101.44090949804482 120.95050786540614 l 0.30401241099342974 4.420273734291695 a25.43071590514525,25.43071590514525 0 0,0 -0.43578032132291744,0.026215461992788035 l -0.22808773753804712 -4.424841174109174" fill="#ff3e05" stroke="none" /><path d="M 101.08105385017728 120.97215588758144 l 0.10346603420342668 2.0072134223732294 a23.00987834039502,23.00987834039502 0 0,0 -0.3946459728532963,0.01694779613142929 l -0.06899430074930081 -2.0086937869304897" fill="#ff1c02" stroke="none" /><path d="M 100.72087961077811 120.9876233191556 l 0.24869783395398082 7.24056608243101 a28.24483594063135,28.24483594063135 0 0,0 -0.48471727710760365,0.012484597647740235 l -0.12436724277563331 -7.243768397428795" fill="#ff6509" stroke="none" /><line stroke="#e1ed5e" stroke-width="0.3" x1="101.45913802915013" x2="101.54496967792366" y1="184.9874750549273" y2="189.98673829345242" /><path d="M 101.47630435890484 185.9873277026323 a86.0,86.0 0 0,1 -42.54439059252881,-10.42667462771756" fill="none" id="id91" stroke="none" /><text fill="#e1ed5e" style="font-size:6.75px; font-family:Arial;" text-anchor="middle"><textPath startOffset="22.145653131862474" xlink:href="#id91">July</textPath></text><path d="M 100.36049292484886 120.99690560180557 l 0.013850780088244353 0.8067385015841004 a21.806857393872804,21.806857393872804 0 0,0 -0.3743437049370965,0.0032132904831380757 l -9.881153247747042e-17 -0.8068573938728036" fill="#ff0b01" stroke="none" /><path d="M 100.0 121.0 l 3.653929703204823e-16 2.983660028139404 a23.983660028139404,23.983660028139404 0 0,0 -0.4117114167678323,-0.003534047347000729 l 0.05121849191897975 -2.983220378986838" fill="#ff2a04" stroke="none" /><path d="M 99.63950707515114 120.99690560180557 l -0.0051141144414604146 0.29787152746256623 a21.297915425984293,21.297915425984293 0 0,0 -0.3654992932177171,-0.00941396527803672 l 0.010226721729921458 -0.29773984483448207" fill="#ff0400" stroke="none" /><path d="M 99.27912038922189 120.98762331915562 l -2.1626388323343173 62.962869957466836 a84.0,84.0 0 0,0 -1.440696957596645,-0.061869726296685634 l 3.2431615505318008 -62.916467662744324" fill="#4dd2ff" stroke="none" /><path d="M 97.48249496171623 120.84855314841334 l -0.004053379357842821 0.033567795769051424 a21.03381163700579,21.03381163700579 0 0,0 -0.3580978166857654,-0.04636293173802438 l 0.004629017934402249 -0.033493267830630016" fill="#ff0000" stroke="none" /><path d="M 97.12497278360702 120.80226474461374 l -0.0067644065141826675 0.048943875851289974 a21.049409110281765,21.049409110281765 0 0,0 -0.3575140843538278,-0.0525422587263665 l 0.007603596475695369 -0.048820543826041056" fill="#ff0000" stroke="none" /><path d="M 96.76829788921471 120.74984581791261 l -0.005819532669579446 0.03736557438975589 a21.03781604302368,21.03781604302368 0 0,0 -0.35636306919689054,-0.05863940742429525 l 0.006460104919533523 -0.037260168469792285" fill="#ff0000" stroke="none" /><path d="M 96.41257539226777 120.69131181640829 l -0.010967722090850134 0.06325890646129742 a21.06420264927977,21.06420264927977 0 0,0 -0.35574957357815895,-0.06482942294774813 l 0.012052029220066231 -0.06306130958218334" fill="#ff0000" stroke="none" /><path d="M 95.70440661134978 120.55596938700252 l -0.030614579578010767 0.14650184588334328 a21.14966644022614,21.14966644022614 0 0,0 -0.35474797124840984,-0.0773156692178278 l 0.03312496744555708 -0.14595471853179673" fill="#ff0200" stroke="none" /><path d="M 95.35216902796893 120.47920084513623 l -0.18670696863579397 0.8226653535569691 a21.84358625882608,21.84358625882608 0 0,0 -0.3649624792967279,-0.0861301513727178 l 0.20080160167240976 -0.8193390585380238" fill="#ff0c01" stroke="none" /><path d="M 95.00130118170881 120.39639698878247 l -1.3611548072990027 5.5539761089968716 a26.71833831009859,26.71833831009859 0 0,0 -0.4445355228267633,-0.11299919155992462 l 1.4562956233511446 -5.529791685601684" fill="#ff5007" stroke="none" /><path d="M 94.6519064749342 120.30758222061772 l -0.011099017044158067 0.042144775542141244 a21.04358176550857,21.04358176550857 0 0,0 -0.348540434714066,-0.09499624537178601 l 0.011820852692919182 -0.041948036026210854" fill="#ff0000" stroke="none" /><path d="M 94.30408787586889 120.21278271476187 l -0.9190611970785375 3.261423960425166 a24.38844503181191,24.38844503181191 0 0,0 -0.40199124101634465,-0.11701379157673938 l 0.974912450476489 -3.2451664745459103" fill="#ff3004" stroke="none" /><path d="M 93.95794788825049 120.11202640906438 l -0.5104465961325296 1.6991107047671343 a22.77412877620469,22.77412877620469 0 0,0 -0.37345164629875066,-0.11569627464649052 l 0.5395388753029139 -1.690097842313995" fill="#ff1902" stroke="none" /><path d="M 93.61358852112213 120.00534299687104 l -0.06521327440176615 0.20427965324051267 a21.21443634926538,21.21443634926538 0 0,0 -0.34597438491631455,-0.11372865224646467 l 0.06871039696582423 -0.20313007959202645" fill="#ff0300" stroke="none" /><path d="M 93.27111125876986 119.89276391827306 l -0.09795175784830586 0.2895769671917597 a21.305694891670683,21.305694891670683 0 0,0 -0.3454507682468444,-0.12016570943737385 l 0.10290829814017204 -0.28785282518579536" fill="#ff0400" stroke="none" /><path d="M 92.59220618246901 119.65005319985036 l -14.234816207823963 37.759541189155534 a61.35359888889789,61.35359888889789 0 0,0 -0.9823229401092247,-0.379983615934469 l 14.880911410426716 -37.50961768508302" fill="#31ff42" stroke="none" /><path d="M 91.26138138417905 119.09545874513695 l -0.019490751583074426 0.042590809729638884 a21.04683872832069,21.04683872832069 0 0,0 -0.3272395420058726,-0.153164628951874 l 0.020219007460436922 -0.042249949207238305" fill="#ff0000" stroke="none" /><path d="M 90.93487009805054 118.94263497670748 l -0.17337740161377477 0.3622920870966752 a21.401640734691103,21.401640734691103 0 0,0 -0.330033428614529,-0.16143588812137954 l 0.17957107949037315 -0.3592624488780745" fill="#ff0500" stroke="none" /><path d="M 90.6110303473126 118.78422872680471 l -0.2356093298768782 0.4713764881868253 a21.526979648506824,21.526979648506824 0 0,0 -0.3291298649457741,-0.1680560541844465 l 0.24366641653623464 -0.4672624823295426" fill="#ff0701" stroke="none" /><path d="M 90.28995756902619 118.62028667847754 l -0.3481011755761471 0.6675299030277105 a21.752841683140407,21.752841683140407 0 0,0 -0.3296189291428356,-0.17550351390854257 l 0.3595089205055446 -0.6614559213965949" fill="#ff0a01" stroke="none" /><path d="M 89.97174638481275 118.45085714620012 l -0.2459346182583002 0.45249199740192514 a21.51500761564334,21.51500761564334 0 0,0 -0.32298719965225126,-0.17915555505624575 l 0.25366600606665407 -0.448203526912531" fill="#ff0701" stroke="none" /><line stroke="#e1ed5e" stroke-width="0.3" x1="58.13341422392154" x2="55.67067388415222" y1="173.97424548756322" y2="178.32567169271397" /><path d="M 57.64086615596768 174.84453072859336 a86.0,86.0 0 0,1 -31.369924170532247,-30.572349798747897" fill="none" id="id92" stroke="none" /><text fill="#e1ed5e" style="font-size:6.75px; font-family:Arial;" text-anchor="middle"><textPath startOffset="22.145653131862474" xlink:href="#id92">August</textPath></text><path d="M 88.72937992617639 117.7192867562869 l -0.12421455869249523 0.19528591775441295 a21.231442965467423,21.231442965467423 0 0,0 -0.3058484069033208,-0.1982472421991132 l 0.1275485978528257 -0.19312483385140508" fill="#ff0300" stroke="none" /><path d="M 87.83215693770417 117.11559508785305 l -0.04985067929274571 0.07012122339684991 a21.086035319471826,21.086035319471826 0 0,0 -0.2932153680576802,-0.21226531434936394 l 0.05104705772437984 -0.06925513767442058" fill="#ff0100" stroke="none" /><path d="M 87.54013794807813 116.9041958592261 l -0.17950104698823346 0.24352764441378533 a21.302533203902644,21.302533203902644 0 0,0 -0.292501037046404,-0.2194982312571941 l 0.1836550729454038 -0.24041038589257635" fill="#ff0400" stroke="none" /><path d="M 86.68645165197938 116.24036423190432 l -0.15029851097668825 0.1833397451955164 a21.23707193965159,21.23707193965159 0 0,0 -0.2799507895307541,-0.23354490542141146 l 0.15342363466933506 -0.18073265586223475" fill="#ff0300" stroke="none" /><path d="M 84.58840730492382 114.26474011684316 l -0.0406420557879305 0.03761768008664621 a21.05537929715851,21.05537929715851 0 0,0 -0.24324206795890183,-0.2673656424253831 l 0.04128182458871218 -0.03691446210358906" fill="#ff0000" stroke="none" /><path d="M 83.4222238831116 112.89097897827486 l -4.709849432980344 3.6624074063551344 a26.966230777590674,26.966230777590674 0 0,0 -0.28102410875635564,-0.3678695793571482 l 4.772025519090995 -3.5810169137571157" fill="#ff5307" stroke="none" /><path d="M 83.20337586046588 112.60449989151573 l -7.972107799479092 5.98241831566477 a30.967137586595094,30.967137586595094 0 0,0 -0.3154194375734451,-0.42792704512535373 l 8.073629256636368 -5.844684961270537" fill="#ff890c" stroke="none" /><path d="M 82.98947788004972 112.3143062007846 l -3.674890472236823 2.6603373024274015 a25.536762562182826,25.536762562182826 0 0,0 -0.25401162531739757,-0.3572991617562605 l 3.7200171960841812 -2.596860913961637" fill="#ff4006" stroke="none" /><path d="M 82.78059297857968 112.02048342749411 l -2.867309727469279 2.00160487626909 a24.496839595112156,24.496839595112156 0 0,0 -0.23774796786059885,-0.3468813902927138 l 2.901247432145203 -1.9520887509063252" fill="#ff3104" stroke="none" /><path d="M 81.99639281039703 110.81064883170644 l -0.15700603980908862 0.09427761575542412 a21.18313701255907,21.18313701255907 0 0,0 -0.18452155531048464,-0.31335794118233085 l 0.1586013052493433 -0.09156850627953447" fill="#ff0200" stroke="none" /><line stroke="#e1ed5e" stroke-width="0.3" x1="26.387840678322732" x2="22.057713659400548" y1="142.50000000000003" y2="145.00000000000006" /><path d="M 25.521815274538298 143.00000000000003 a86.0,86.0 0 0,1 -11.493303480769221,-40.785679425670985" fill="none" id="id93" stroke="none" /><text fill="#e1ed5e" style="font-size:6.75px; font-family:Arial;" text-anchor="middle"><textPath startOffset="21.40746469413373" xlink:href="#id93">September</textPath></text><path d="M 81.1358732173502 109.22738970284198 l -37.3650592089235 18.27712284607909 a62.59568330027798,62.59568330027798 0 0,0 -0.4638660325569336,-0.96930160161631 l 37.67330449944034 -17.633008742397674" fill="#33ff51" stroke="none" /><path d="M 80.68587082218212 108.24405325689762 l -0.3341569617436616 0.14263173676718083 a21.363324493276984,21.363324493276984 0 0,0 -0.14107338009515233,-0.3385247562675901 l 0.3365561863752995 -0.13687447105830938" fill="#ff0500" stroke="none" /><path d="M 80.5471966667186 107.91128576633889 l -0.2605729041247405 0.10597273165090453 a21.281297810545258,21.281297810545258 0 0,0 -0.1347220918749715,-0.339587678508995 l 0.26235367096583645 -0.10148403592834418" fill="#ff0400" stroke="none" /><path d="M 80.41425534168474 107.57618678355246 l -0.23698680692089108 0.091671587973454 a21.254099245760656,21.254099245760656 0 0,0 -0.12870806034397594,-0.34141342149984616 l 0.238525551079303 -0.0875898862794629" fill="#ff0300" stroke="none" /><path d="M 80.16572619554312 106.89939002012753 l -0.16634389912771663 0.057863042976293876 a21.176120482964045,21.176120482964045 0 0,0 -0.1164833633486833,-0.3443623660031252 l 0.16731268404876723 -0.05499900249900705" fill="#ff0200" stroke="none" /><path d="M 80.05021161711548 106.5578916946017 l -0.09390936405674291 0.030869873242434676 a21.09885301073587,21.09885301073587 0 0,0 -0.1101513688859976,-0.345047594165729 l 0.09442544871999535 -0.029253245385313972" fill="#ff0100" stroke="none" /><path d="M 79.94057633289273 106.21446072829308 l -0.04814759040579528 0.014916246583364793 a21.050405206814574,21.050405206814574 0 0,0 -0.10397264254597918,-0.3460911117662434 l 0.048396552955404126 -0.014087531226397889" fill="#ff0000" stroke="none" /><path d="M 79.64726062577567 105.17358676015961 l -0.3486814406471726 0.08863345870434405 a21.359770255932425,21.359770255932425 0 0,0 -0.08728260565263159,-0.35614281632494765 l 0.3501515728160977 -0.08263481777129682" fill="#ff0500" stroke="none" /><path d="M 79.48165901384964 104.47187691870673 l -0.20236380938864365 0.044104250387371556 a21.207114210648413,21.207114210648413 0 0,0 -0.07446957850963407,-0.3563638914594877 l 0.20309109872264453 -0.04062390764247473" fill="#ff0200" stroke="none" /><path d="M 79.34024301695615 103.76489593502545 l -0.089022941959646 0.01622294553527212 a21.090489049928657,21.090489049928657 0 0,0 -0.061850553205613806,-0.3567375547450766 l 0.08928831265749412 -0.014692357869602827" fill="#ff0100" stroke="none" /><path d="M 79.2786578344484 103.40968896794605 l -0.25994417108816925 0.04277371443220006 a21.263439865489342,21.263439865489342 0 0,0 -0.05617447217833458,-0.36068040823224967 l 0.2606401354047714 -0.0383051242685004" fill="#ff0300" stroke="none" /><path d="M 79.22317932658666 103.0534771498775 l -0.2494337214081693 0.03665816732506011 a21.252113075042054,21.252113075042054 0 0,0 -0.04994801500199949,-0.3613989549786356 l 0.25002625296538133 -0.03237090414633884" fill="#ff0300" stroke="none" /><path d="M 79.17382384314188 102.69636545807758 l -0.20005296429228142 0.025900861427511943 a21.201722688720967,21.201722688720967 0 0,0 -0.04363305820512972,-0.36134431478142204 l 0.20046810875707247 -0.022462869722690664" fill="#ff0200" stroke="none" /><path d="M 79.0935383218832 101.97986365728391 l -0.2940771713423165 0.027849413876999612 a21.295392912166136,21.295392912166136 0 0,0 -0.031341116578250616,-0.36423128199598015 l 0.2945119106183079 -0.022797084505357428" fill="#ff0400" stroke="none" /><path d="M 79.03789590574601 101.26102812881392 l -0.03766835698352424 0.0022660348173468388 a21.037736454942557,21.037736454942557 0 0,0 -0.018591759525488163,-0.36067516796599725 l 0.03770170596558508 -0.001619073474618807" fill="#ff0000" stroke="none" /><path d="M 79.01933749520258 100.90099992219065 l -0.07771003455549402 0.003337203249512393 a21.077781658481577,21.077781658481577 0 0,0 -0.012421149782657284,-0.361628223258867 l 0.07775587133499945 -0.00200271542652548" fill="#ff0100" stroke="none" /><line stroke="#e1ed5e" stroke-width="0.3" x1="15.003131293944662" x2="10.003315487706104" y1="100.72959589197737" y2="100.7725132973878" /><path d="M 14.003168132696942 100.73817937305945 a86.0,86.0 0 0,1 10.791469493833604,-42.45332614584628" fill="none" id="id94" stroke="none" /><text fill="#e1ed5e" style="font-size:6.75px; font-family:Arial;" text-anchor="middle"><textPath startOffset="22.145653131862435" xlink:href="#id94">October</textPath></text><path d="M 79.00077361379809 100.18025310272382 l -0.22809669383683284 0.001957935784346344 a21.228105096943995,21.228105096943995 0 0,0 0.0,-0.3644220770163277 l 0.22809669383683284 0.00195793578434626" fill="#ff0300" stroke="none" /><path d="M 79.00077361379809 99.81974689727619 l -4.9317919479657695 -0.04233350239955852 a25.931973635720837,25.931973635720837 0 0,0 0.007641990125059409,-0.4451076129526096 l 4.930338526242044 0.12698803132122047" fill="#ff4506" stroke="none" /><path d="M 79.00696218219943 99.45929381324524 l -0.36020395934050764 -0.009277576261203454 a21.360323418259014,21.360323418259014 0 0,0 0.012587651816640967,-0.3664757483086976 l 0.3599916205270162 0.015459589134039576" fill="#ff0500" stroke="none" /><path d="M 79.01933749520258 99.09900007780938 l -2.635755839539161 -0.1131906967091835 a23.638185167778467,23.638185167778467 0 0,0 0.02088986404024964,-0.4052577816087851 l 2.633424386042341 0.15842027169468062" fill="#ff2503" stroke="none" /><path d="M 79.03789590574601 98.7389718711861 l -28.207703119169874 -1.6969053737432556 a49.25869783105132,49.25869783105132 0 0,0 0.05802214583367978,-0.8436292663110808 l 28.174417012171133 2.1808780642086614" fill="#9aff23" stroke="none" /><path d="M 79.0935383218832 98.0201363427161 l -0.21909864179599228 -0.02074886917407938 a21.220078918592517,21.220078918592517 0 0,0 0.03745607413630995,-0.36235353985747504 l 0.2187101751780186 0.024506931314467163" fill="#ff0300" stroke="none" /><path d="M 79.13060592940154 97.66154086499901 l -0.6919100293677845 -0.07752996197687409 a21.696240176766512,21.696240176766512 0 0,0 0.044650773164238745,-0.3697724545834532 l 0.6904771699438774 0.08939609348376357" fill="#ff0a01" stroke="none" /><path d="M 79.22317932658666 96.9465228501225 l -0.20350668179950332 -0.029908474087055048 a21.205692698847724,21.205692698847724 0 0,0 0.056021913766976496,-0.35970087379331067 l 0.2029632758942593 0.033397529811815735" fill="#ff0200" stroke="none" /><path d="M 79.2786578344484 96.59031103205396 l -0.34649616740764033 -0.05701581248967155 a21.35115580146431,21.35115580146431 0 0,0 0.06261499175166282,-0.36114663313704903 l 0.34546635816374316 0.06295547854731325" fill="#ff0500" stroke="none" /><path d="M 79.407916724674 95.88100663000787 l -1.4859767537290776 -0.2972369679519763 a22.515413055157072,22.515413055157072 0 0,0 0.07906371906772475,-0.3783485171275551 l 1.4806553238369862 0.3227019363649405" fill="#ff1502" stroke="none" /><path d="M 79.56144815229197 95.17655741523228 l -0.5916751078905538 -0.1396337144143784 a21.60792845590452,21.60792845590452 0 0,0 0.08829665655523963,-0.3602804900533085 l 0.589190924819016 0.14977002907580453" fill="#ff0801" stroke="none" /><path d="M 79.83685265289637 94.1308016681162 l -0.13933296405803644 -0.04055779517691829 a21.145115848971816,21.145115848971816 0 0,0 0.10444043951452053,-0.3476482557317992 l 0.13861620453988624 0.04294365449944095" fill="#ff0200" stroke="none" /><path d="M 80.28708602549916 92.7611449362534 l -0.2060785332698031 -0.0756748919017875 a21.219533712989556,21.219533712989556 0 0,0 0.12849874247892404,-0.34085818099433757 l 0.20474910697644313 0.07920135309026996" fill="#ff0300" stroke="none" /><path d="M 80.41425534168474 92.42381321644754 l -6.163130216133649 -2.3840311667169973 a27.608160005999977,27.608160005999977 0 0,0 0.17477454156879496,-0.44054601593405895 l 6.121296999598723 2.489478199864639" fill="#ff5c08" stroke="none" /><path d="M 80.5471966667186 92.08871423366112 l -5.342490596542919 -2.17274441575818 a26.767410516892124,26.767410516892124 0 0,0 0.1767594308273999,-0.42415828697436736 l 5.304405321179041 2.2641352121738114" fill="#ff5007" stroke="none" /><path d="M 80.68587082218212 91.75594674310238 l -1.2773229055700281 -0.5452131940728911 a22.388816486107874,22.388816486107874 0 0,0 0.15391364392065202,-0.3521845380089917 l 1.2677753796323987 0.5670598018577496" fill="#ff1302" stroke="none" /><path d="M 80.83023694016515 91.42560881287825 l -1.9644110888927806 -0.8786560937614213 a23.151963628240264,23.151963628240264 0 0,0 0.1653882958736646,-0.36140327431915953 l 1.9490383281640693 0.9122483502952522" fill="#ff1e03" stroke="none" /><path d="M 80.9802524753101 91.09779779509293 l -0.0694112289086559 -0.03248795990766026 a21.07663802083543,21.07663802083543 0 0,0 0.15618866897680425,-0.32637424680358695 l 0.06884330197194669 0.03367470877633439" fill="#ff0100" stroke="none" /><path d="M 81.1358732173502 90.77261029715801 l -0.4579999209314523 -0.22403071199629035 a21.50985653618521,21.50985653618521 0 0,0 0.16509335920501278,-0.33029731006701135 l 0.4540866485146956 0.231859878227072" fill="#ff0701" stroke="none" /><path d="M 81.29705330413844 90.45014215332179 l -0.9088738076104702 -0.4640774421481785 a22.020499618065166,22.020499618065166 0 0,0 0.17479236207008955,-0.33518740150622617 l 0.9007733765654408 0.4796110867588912" fill="#ff0e01" stroke="none" /><path d="M 81.46374523516351 90.13048839642627 l -0.03784491017515028 -0.020150283045224742 a21.042875064232813,21.042875064232813 0 0,0 0.17250613332242173,-0.3173918555425332 l 0.03749342723737793 0.020796972062377544" fill="#ff0000" stroke="none" /><path d="M 81.63589988554816 89.8137432299009 l -0.04269762470827091 -0.02368365267239548 a21.04882624867461,21.04882624867461 0 0,0 0.177979487963192,-0.3144727015658051 l 0.042284771723709924 0.02441312433730581" fill="#ff0000" stroke="none" /><line stroke="#e1ed5e" stroke-width="0.3" x1="26.387840678322718" x2="22.05771365940052" y1="57.49999999999999" y2="54.99999999999999" /><path d="M 25.521815274538284 56.99999999999999 a86.0,86.0 0 0,1 29.574782752854787,-30.34633250058573" fill="none" id="id95" stroke="none" /><text fill="#e1ed5e" style="font-size:6.75px; font-family:Arial;" text-anchor="middle"><textPath startOffset="21.40746469413373" xlink:href="#id95">November</textPath></text><path d="M 81.81346652052679 89.5 l -0.642239381605475 -0.3707970798540999 a21.7415941597082,21.7415941597082 0 0,0 0.1893861502618799,-0.32161908691183966 l 0.6357795212138158 0.3817673350595124" fill="#ff0a01" stroke="none" /><path d="M 81.99639281039701 89.18935116829357 l -0.19261370982060477 -0.11565899850588109 a21.224670970857918,21.224670970857918 0 0,0 0.1902458581242436,-0.31075231171465095 l 0.19059988724096813 0.11894842634507509" fill="#ff0300" stroke="none" /><path d="M 82.18462484594161 88.88188828441811 l -0.6622688213488476 -0.4133047257119299 a21.78065407705757,21.78065407705757 0 0,0 0.20067482041557477,-0.3154941488950069 l 0.6550763093073829 0.42461254928560865" fill="#ff0b01" stroke="none" /><path d="M 82.37810715431573 88.57770195909679 l -0.49877962565504874 -0.3233029272651257 a21.59439540522012,21.59439540522012 0 0,0 0.20429898206189231,-0.3093346977615589 l 0.49315620467242743 0.3318175033657457" fill="#ff0801" stroke="none" /><path d="M 82.576782715395 88.27688183743585 l -0.5127284360383219 -0.3449865741096526 a21.61798558675605,21.61798558675605 0 0,0 0.20980796818854824,-0.3061160957741849 l 0.5067307310344602 0.35373740495387224" fill="#ff0801" stroke="none" /><path d="M 82.78059297857968 87.97951657250589 l -0.14091273289843798 -0.098368031397452 a21.17185071397558,21.17185071397558 0 0,0 0.21059428334890118,-0.29622723297487275 l 0.1392033510195645 0.10077249108184504" fill="#ff0200" stroke="none" /><path d="M 82.98947788004972 87.6856937992154 l -0.12142471583907535 -0.08790213026042044 a21.149902455353207,21.149902455353207 0 0,0 0.21542482958091827,-0.29226515486297505 l 0.11989786667433833 0.08997359439225885" fill="#ff0200" stroke="none" /><path d="M 83.2033758604659 87.39550010848427 l -1.1455599738744469 -0.8596495609162175 a22.43223776703684,22.43223776703684 0 0,0 0.23377385137305015,-0.3060174756887647 l 1.1306341451470898 0.8791879498458665" fill="#ff1402" stroke="none" /><path d="M 83.42222388311158 87.10902102172516 l -0.5997409627694118 -0.4663622001502777 a21.759725558443698,21.759725558443698 0 0,0 0.23182766987860223,-0.2929066876791415 l 0.5916468622492479 0.47658883174410216" fill="#ff0a01" stroke="none" /><path d="M 83.64595745247003 86.82634096563983 l -0.6376730709326747 -0.513664287435108 a21.818827176868798,21.818827176868798 0 0,0 0.23746487389314233,-0.289668534901235 l 0.6287613778009025 0.5245351040348358" fill="#ff0b01" stroke="none" /><path d="M 83.8745106332314 86.54754324733833 l -0.4966097232867238 -0.4142894937026439 a21.646727919495756,21.646727919495756 0 0,0 0.240490443138128,-0.28329713731209677 l 0.48942471664148124 0.4227534134642974" fill="#ff0901" stroke="none" /><path d="M 84.10781606972428 86.27271002978789 l -0.6406140588935703 -0.5533471663811793 a21.84651016473175,21.84651016473175 0 0,0 0.24758227192010965,-0.2817031773942852 l 0.631020723014868 0.5642626215867645" fill="#ff0c01" stroke="none" /><path d="M 84.34580500576568 86.00192230759919 l -0.46108986179146116 -0.41230939763510527 a21.618549027988156,21.618549027988156 0 0,0 0.24974808088822725,-0.2745168903204268 l 0.45394408006136805 0.4201638635131898" fill="#ff0801" stroke="none" /><path d="M 84.58840730492382 85.73525988315684 l -0.6868785296902319 -0.6357645125802532 a21.935947984668925,21.935947984668925 0 0,0 0.25815912266073876,-0.27415604203758803 l 0.6758635732932216 0.6474620145623524" fill="#ff0d01" stroke="none" /><path d="M 85.08716467003674 85.21462403516908 l -0.4168775840137463 -0.41331454915011223 a21.58703989352709,21.58703989352709 0 0,0 0.2631646015818794,-0.26091534499848884 l 0.4097210623018904 0.4204099043772745" fill="#ff0801" stroke="none" /><path d="M 85.34317274990677 84.96080404539775 l -0.5060089237872571 -0.5192097327588785 a21.724999156926327,21.724999156926327 0 0,0 0.2693150011952893,-0.2579976789932941 l 0.49702143672666743 0.5278195420577412" fill="#ff0a01" stroke="none" /><path d="M 85.60350026404147 84.71141617570332 l -0.14785369902935513 -0.15701550465746764 a21.215672402081264,21.215672402081264 0 0,0 0.26728739519747097,-0.24739722262566805 l 0.14513653251793088 0.1595304734155013" fill="#ff0300" stroke="none" /><path d="M 85.86807049272753 84.46653392183569 l -0.5264398860715594 -0.578649653486952 a21.782287910636235,21.782287910636235 0 0,0 0.2787458360661897,-0.24925624544250677 l 0.5164290231819778 0.5876014288128597" fill="#ff0b01" stroke="none" /><path d="M 86.40962598614128 83.9905735841838 l -0.48028236020013665 -0.5657714126629443 a21.742137747932308,21.742137747932308 0 0,0 0.2866086551816597,-0.2390991337425963 l 0.47049937085656796 0.5739327303174225" fill="#ff0a01" stroke="none" /><path d="M 86.68645165197937 83.75963576809568 l -0.5136330533219555 -0.6265488094865304 a21.810174255412885,21.810174255412885 0 0,0 0.2915804581250011,-0.23487657716785282 l 0.5028018248417089 0.6352736804477821" fill="#ff0b01" stroke="none" /><path d="M 86.96720088162412 83.53348406188908 l -0.4373012417151621 -0.5525158334026226 a21.70463190544157,21.70463190544157 0 0,0 0.29413916169720244,-0.22872439122055935 l 0.427752135382715 0.5599412762439867" fill="#ff0a01" stroke="none" /><path d="M 87.54013794807813 83.09580414077388 l -0.4047695839532934 -0.5491476788820905 a21.682203480873053,21.682203480873053 0 0,0 0.30150548349288503,-0.21826671860897603 l 0.39528309008644047 0.5560151688641459" fill="#ff0901" stroke="none" /><path d="M 87.83215693770416 82.88440491214696 l -0.8891885538915268 -1.2507550571817965 a22.53461542330238,22.53461542330238 0 0,0 0.31720680655426475,-0.2214349864969617 l 0.8675866561634967 1.2658348594838849" fill="#ff1502" stroke="none" /><path d="M 88.12776184653039 82.6780497279521 l -0.024262437666136075 -0.035399621646626786 a21.04291618685563,21.04291618685563 0 0,0 0.2997149686072603,-0.20166160673302963 l 0.02365118096188643 0.03581090243676592" fill="#ff0000" stroke="none" /><path d="M 88.4268655584334 82.4767994020092 l -0.3538349592513718 -0.5357512263293454 a21.642050274434812,21.642050274434812 0 0,0 0.31176338835391926,-0.2020812617126115 l 0.3445859386404266 0.5417463297458632" fill="#ff0901" stroke="none" /><path d="M 88.72937992617638 82.28071324371311 l -0.021513205699885848 -0.03382233260870971 a21.040084513251127,21.040084513251127 0 0,0 0.30641964654516807,-0.19122852214325783 l 0.02092943036501921 0.034186651593503585" fill="#ff0000" stroke="none" /><path d="M 89.03521579738668 82.08984904055464 l -0.01931005837018867 -0.031541529140477954 a21.036983055779366,21.036983055779366 0 0,0 0.3096115411141758,-0.1859128345769361 l 0.018765760698578604 0.03186836425333745" fill="#ff0000" stroke="none" /><line stroke="#e1ed5e" stroke-width="0.3" x1="56.869717070023135" x2="54.33264160355391" y1="26.7553504044142" y2="22.446841604673864" /><path d="M 56.362301976729285 25.89364864446614 a86.0,86.0 0 0,1 42.16139366436587,-11.88097634709845" fill="none" id="id96" stroke="none" /><text fill="#e1ed5e" style="font-size:6.75px; font-family:Arial;" text-anchor="middle"><textPath startOffset="22.145653131862474" xlink:href="#id96">December</textPath></text><path d="M 89.34428304082924 81.90426304109057 l -0.2893369976909181 -0.49135747718874234 a21.57021756253388,21.57021756253388 0 0,0 0.3206849710910937,-0.1851475543845093 l 0.2808595587394247 0.4962519288494256" fill="#ff0801" stroke="none" /><path d="M 89.65649057296885 81.72400993836675 l -0.3104416166398793 -0.5485205906614877 a21.630276792942283,21.630276792942283 0 0,0 0.32471764146510634,-0.1801154019598046 l 0.3009797870186704 0.5537689080544385" fill="#ff0901" stroke="none" /><path d="M 89.97174638481275 81.54914285379989 l -0.4793581528043815 -0.8819650099260931 a22.003815977853492,22.003815977853492 0 0,0 0.3334219209298729,-0.1775283928307732 l 0.46414741608794674 0.8900638704794417" fill="#ff0e01" stroke="none" /><path d="M 90.28995756902619 81.37971332152246 l -0.08635383646902209 -0.16559486760948172 a21.18675825350308,21.18675825350308 0 0,0 0.32392815882547255,-0.16540002597579936 l 0.08349845592996719 0.16705284525811498" fill="#ff0200" stroke="none" /><path d="M 90.93487009805054 81.0573650232925 l -0.3028071065820548 -0.6327503908248799 a21.701473592436404,21.701473592436404 0 0,0 0.33741790731188576,-0.15792861785087997 l 0.2919004853986465 0.6378552402463028" fill="#ff0a01" stroke="none" /><path d="M 91.26138138417902 80.90454125486306 l -0.28891150526000686 -0.6313237792183443 a21.694290697098943,21.694290697098943 0 0,0 0.33996668109377604,-0.15206277225163786 l 0.27803142131061204 0.6361903023798278" fill="#ff0901" stroke="none" /><path d="M 91.92203290615298 80.6158196554323 l -0.20118756778104732 -0.4827769229121114 a21.523020071054773,21.523020071054773 0 0,0 0.3422626921160639,-0.13919525726423454 l 0.19287041447454256 0.4861594367556372" fill="#ff0701" stroke="none" /><path d="M 92.25597844496254 80.48000691201159 l -0.26613080479472734 -0.6708234775915127 a21.721685349268405,21.721685349268405 0 0,0 0.3477825295148555,-0.1345297536360064 l 0.2545760127863424 0.6752931193655597" fill="#ff0a01" stroke="none" /><path d="M 92.592206182469 80.34994680014964 l -0.12685027702777474 -0.3364854305356886 a21.359601776615204,21.359601776615204 0 0,0 0.3442057598835413,-0.12639712277579843 l 0.12105536549010643 0.3386134023202089" fill="#ff0500" stroke="none" /><path d="M 92.93061703081487 80.22567764915836 l -0.22393816101555572 -0.6263948921537507 a21.665220911333474,21.665220911333474 0 0,0 0.35128012703232947,-0.12219346302315184 l 0.21315226193822193 0.6301467877454884" fill="#ff0901" stroke="none" /><path d="M 93.27111125876988 80.10723608172694 l -0.23106127456778075 -0.6830916013617788 a21.72111264616278,21.72111264616278 0 0,0 0.3542374854429727,-0.1164448975156072 l 0.21930105147704704 0.6869574202794145" fill="#ff0a01" stroke="none" /><path d="M 94.30408787586887 79.78721728523814 l -0.18584131169271978 -0.6594852537765029 a21.685169900886144,21.685169900886144 0 0,0 0.3591669245437959,-0.09789254242878005 l 0.17449298621424622 0.6625782903494227" fill="#ff0901" stroke="none" /><path d="M 94.6519064749342 79.69241777938228 l -0.19444254960144947 -0.738330031947111 a21.76350451286848,21.76350451286848 0 0,0 0.3620977751267544,-0.09204383846488673 l 0.18173948124931694 0.7415591022472607" fill="#ff0a01" stroke="none" /><path d="M 95.35216902796891 79.52079915486377 l -0.31513578708006185 -1.3885464243297145 a22.423858046582385,22.423858046582385 0 0,0 0.3761202651621008,-0.08197366120251008 l 0.29125310529884274 1.3937515436659387" fill="#ff1402" stroke="none" /><path d="M 96.05791012581881 79.37332000966035 l -0.043735102504215854 -0.22884053699727996 a21.232982296675644,21.232982296675644 0 0,0 0.35860006303602615,-0.06534887708177263 l 0.039800305917151176 0.22955758801041387" fill="#ff0300" stroke="none" /><path d="M 96.41257539226777 79.30868818359171 l -0.05752846183402503 -0.33180888026483796 a21.336759048792448,21.336759048792448 0 0,0 0.361426914551971,-0.05947266125045613 l 0.05182404422898114 0.33274754001096246" fill="#ff0400" stroke="none" /><path d="M 96.76829788921471 79.25015418208739 l -0.23639708817517557 -1.5178388859134146 a22.53613751561785,22.53613751561785 0 0,0 0.3827654508758898,-0.05625334002654408 l 0.21030653169160082 1.5216732992388433" fill="#ff1502" stroke="none" /><path d="M 97.12497278360702 79.19773525538626 l -0.1960018570040072 -1.418171799065141 a22.43165218527849,22.43165218527849 0 0,0 0.38189586418423316,-0.049444065440212834 l 0.17162817092898006 1.4213274607057487" fill="#ff1402" stroke="none" /><path d="M 97.48249496171623 79.15144685158666 l -0.05328424269933301 -0.4412699672876592 a21.444475415012004,21.444475415012004 0 0,0 0.3658469357239572,-0.04099391223155321 l 0.04570140537457652 0.44211964002618326" fill="#ff0601" stroke="none" /><path d="M 97.84075906011542 79.11130261209362 l -0.10651544922980971 -1.0304403482722666 a22.03593091095502,22.03593091095502 0 0,0 0.37660501072187563,-0.035664886070115205 l 0.0888108751229185 1.0321169898475655" fill="#ff0e01" stroke="none" /><path d="M 98.5590905019552 79.04949213459386 l -0.06226470272306336 -0.9053151123694978 a21.90745377066261,21.90745377066261 0 0,0 0.3754057604652121,-0.022583478334847314 l 0.04671459012536746 0.9062505685290393" fill="#ff0d01" stroke="none" /><path d="M 98.9189461498227 79.02784411241856 l -0.016393980870349184 -0.3180388491975723 a21.31846109999134,21.31846109999134 0 0,0 0.36563621485001835,-0.01570199230146433 l 0.010932005419510773 0.31827340992486525" fill="#ff0400" stroke="none" /><path d="M 99.63950707515114 79.00309439819443 l -0.018028404619354406 -1.0500641867033849 a22.050218938874252,22.050218938874252 0 0,0 0.3785213294682063,-0.003249150365302236 l 2.5722945237925655e-16 1.0502189388742522" fill="#ff0f01" stroke="none" /></svg>