<?xml version="1.0" encoding="utf-8" ?>
<svg baseProfile="full" height="200mm" version="1.1" viewBox="0,0,200,200" width="200mm" xmlns="http://www.w3.org/2000/svg" xmlns:ev="http://www.w3.org/2001/xml-events" xmlns:xlink="http://www.w3.org/1999/xlink"><defs /><rect fill="#1a1a1a" height="200" width="200" x="0" y="0" /><text alignment-baseline="middle" fill="#e1ed5e" style="dominant-baseline: central; font-size:9.0px; font-family:Arial;" text-anchor="middle" x="100.0" y="100.0">2025</text><line stroke="#e1ed5e" stroke-width="0.3" x1="100.0" x2="100.0" y1="15.0" y2="10.0" /><path d="M 100.0 14.0 a86.0,86.0 0 0,1 42.46469731375804,11.215312516191453" fill="none" id="id37" stroke="none" /><text fill="#e1ed5e" style="font-size:6.75px; font-family:Arial;" text-anchor="middle"><textPath startOffset="22.20632615414155" xlink:href="#id37">January</textPath></text><path d="M 100.0 79.0 l 0.0 -0.14338222200219874 a21.1433822220022,21.1433822220022 0 0,0 0.36394856852626717,0.003132620231969385 l -0.002468089253738803 0.14336097837878822" fill="#ff0000" stroke="none" /><path d="M 100.72285384407766 79.0124445844662 l 0.040538027326152644 -1.1769932496238424 a22.177691148527316,22.177691148527316 0 0,0 0.3814131654632674,0.016424453228754375 l -0.060792025178751576 1.1761210698708935" fill="#ff0f01" stroke="none" /><path d="M 101.08401301168833 79.027996857942 l 0.03806949412170337 -0.7365165747350572 a21.737499797452273,21.737499797452273 0 0,0 0.37351023286962043,0.022531157258897056 l -0.050741775830935726 0.735752148095856" fill="#ff0901" stroke="none" /><path d="M 101.44485096284872 79.0497635885617 l 0.01506113265093738 -0.21838535445832588 a21.218904090319523,21.218904090319523 0 0,0 0.36416672405384304,0.028266346598800302 l -0.018818046067121577 0.21809374567106105" fill="#ff0100" stroke="none" /><path d="M 102.16513564639614 79.11191278185805 l 0.029520602389901195 -0.2847992080675058 a21.286325086014728,21.286325086014728 0 0,0 0.3641312728958429,0.040914391248181685 l -0.03441857879546938 0.2842488633487233" fill="#ff0200" stroke="none" /><path d="M 102.52436894288641 79.15227682838746 l 0.07836464049950075 -0.6471812831402133 a21.651908452259693,21.651908452259693 0 0,0 0.36961382284912275,0.047986482193560366 l -0.0894931918564696 0.6457364777825162" fill="#ff0701" stroke="none" /><path d="M 102.88285421437855 79.19881850522331 l 8.648562643135682 -62.40354448433004 a84.0,84.0 0 0,0 1.430524078285377,0.2108220633561242 l -9.721455701849713 62.245427936812945" fill="#4dd2ff" stroke="none" /><path d="M 103.2404852339499 79.25152402106235 l 0.0855286406486174 -0.5476306225428899 a21.554269291155403,21.554269291155403 0 0,0 0.36608468281775536,0.06040710939953251 l -0.0949425296052479 0.5460772502037327" fill="#ff0601" stroke="none" /><path d="M 103.59715602781102 79.31037775812273 l 0.08086165746161608 -0.4650888462436196 a21.472065930297518,21.472065930297518 0 0,0 0.3635986383244751,0.06644532708979003 l -0.08885541688899204 0.4636280378030911" fill="#ff0500" stroke="none" /><path d="M 103.95276090670814 79.375362276772 l 0.08237343707170662 -0.4298064916443269 a21.43762884205067,21.43762884205067 0 0,0 0.3618197982380539,0.0725776477026162 l -0.08975964477688585 0.42832488786450235" fill="#ff0400" stroke="none" /><path d="M 105.01212808612495 79.60689891045804 l 0.11724328415745183 -0.477033727951142 a21.491230256888752,21.491230256888752 0 0,0 0.3584850919148369,0.09138583193262562 l -0.12543726475731382 0.47494489984964855" fill="#ff0500" stroke="none" /><line stroke="#e1ed5e" stroke-width="0.3" x1="143.23703022742887" x2="145.7803849466894" y1="26.81831364943548" y2="22.513508569990506" /><path d="M 143.74570117128098 25.957352633546492 a86.0,86.0 0 0,1 28.547481713284135,27.462654790039103" fill="none" id="id38" stroke="none" /><text fill="#e1ed5e" style="font-size:6.75px; font-family:Arial;" text-anchor="middle"><textPath startOffset="19.985693538727396" xlink:href="#id38">February</textPath></text><line stroke="#e1ed5e" stroke-width="0.3" x1="172.23445277983987" x2="176.4835382374775" y1="55.19839476539836" y2="52.563006222186495" /><path d="M 173.08426987136738 54.67131705675599 a86.0,86.0 0 0,1 12.851231095245387,41.99856678651699" fill="none" id="id39" stroke="none" /><text fill="#e1ed5e" style="font-size:6.75px; font-family:Arial;" text-anchor="middle"><textPath startOffset="22.20632615414155" xlink:href="#id39">March</textPath></text><line stroke="#e1ed5e" stroke-width="0.3" x1="184.98032266829074" x2="189.97916517819016" y1="98.17113171792111" y2="98.06355123074" /><path d="M 185.9800911702706 98.14961562048488 a86.0,86.0 0 0,1 -9.607161424134198,41.387399972396054" fill="none" id="id40" stroke="none" /><text fill="#e1ed5e" style="font-size:6.75px; font-family:Arial;" text-anchor="middle"><textPath startOffset="21.466115282336823" xlink:href="#id40">April</textPath></text><line stroke="#e1ed5e" stroke-width="0.3" x1="174.80103733775053" x2="179.2010983576182" y1="140.37084112569926" y2="142.7455964860345" /><path d="M 175.68104954172406 140.8457921977663 a86.0,86.0 0 0,1 -30.038265399797805,32.042727171017184" fill="none" id="id41" stroke="none" /><text fill="#e1ed5e" style="font-size:6.75px; font-family:Arial;" text-anchor="middle"><textPath startOffset="22.206326154141568" xlink:href="#id41">May</textPath></text><line stroke="#e1ed5e" stroke-width="0.3" x1="143.8653032363475" x2="146.44561519142675" y1="172.8068346515853" y2="177.08958963109032" /><path d="M 144.38136562736335 173.6633856474863 a86.0,86.0 0 0,1 -40.68145358897372,12.25698825130547" fill="none" id="id42" stroke="none" /><text fill="#e1ed5e" style="font-size:6.75px; font-family:Arial;" text-anchor="middle"><textPath startOffset="21.466115282336833" xlink:href="#id42">June</textPath></text><line stroke="#e1ed5e" stroke-width="0.3" x1="102.19456741930631" x2="102.32365962044197" y1="184.97166512339345" y2="189.96999836594603" /><path d="M 102.22038585953345 185.97133177190398 a86.0,86.0 0 0,1 -42.740103519485714,-10.115201625700543" fill="none" id="id43" stroke="none" /><text fill="#e1ed5e" style="font-size:6.75px; font-family:Arial;" text-anchor="middle"><textPath startOffset="22.20632615414155" xlink:href="#id43">July</textPath></text><line stroke="#e1ed5e" stroke-width="0.3" x1="58.666819895761336" x2="56.23545636021788" y1="174.27360380694188" y2="178.64263932499728" /><path d="M 58.180547188652646 175.14741091055294 a86.0,86.0 0 0,1 -31.652253787137756,-30.449443065178592" fill="none" id="id44" stroke="none" /><text fill="#e1ed5e" style="font-size:6.75px; font-family:Arial;" text-anchor="middle"><textPath startOffset="22.20632615414155" xlink:href="#id44">August</textPath></text><line stroke="#e1ed5e" stroke-width="0.3" x1="26.63291911575756" x2="22.317208475507996" y1="142.92168965132927" y2="145.44649492493687" /><path d="M 25.769776987707644 143.4266507060508 a86.0,86.0 0 0,1 -11.730757126820373,-40.83630448921669" fill="none" id="id45" stroke="none" /><text fill="#e1ed5e" style="font-size:6.75px; font-family:Arial;" text-anchor="middle"><textPath startOffset="21.46611528233685" xlink:href="#id45">September</textPath></text><line stroke="#e1ed5e" stroke-width="0.3" x1="15.007084014347285" x2="10.007500721073583" y1="101.09737516637583" y2="101.16192664675087" /><path d="M 14.007167355692545 101.11028546245083 a86.0,86.0 0 0,1 10.666146001902534,-42.60595125391555" fill="none" id="id46" stroke="none" /><text fill="#e1ed5e" style="font-size:6.75px; font-family:Arial;" text-anchor="middle"><textPath startOffset="22.20632615414155" xlink:href="#id46">October</textPath></text><line stroke="#e1ed5e" stroke-width="0.3" x1="26.266209847984243" x2="21.928928074336255" y1="57.711370442889674" y2="55.22380399835377" /><path d="M 25.398753493254645 57.213857153982495 a86.0,86.0 0 0,1 29.58750427330803,-30.492523968695096" fill="none" id="id47" stroke="none" /><text fill="#e1ed5e" style="font-size:6.75px; font-family:Arial;" text-anchor="middle"><textPath startOffset="21.46611528233685" xlink:href="#id47">November</textPath></text><line stroke="#e1ed5e" stroke-width="0.3" x1="56.762969772571076" x2="54.21961505331055" y1="26.818313649435495" y2="22.513508569990535" /><path d="M 56.25429882871897 25.957352633546506 a86.0,86.0 0 0,1 42.265352541879196,-11.944610805530505" fill="none" id="id48" stroke="none" /><text fill="#e1ed5e" style="font-size:6.75px; font-family:Arial;" text-anchor="middle"><textPath startOffset="22.20632615414155" xlink:href="#id48">December</textPath></text></svg>