<?xml version="1.0" encoding="utf-8" ?>
<svg baseProfile="full" height="200mm" version="1.1" viewBox="0,0,200,200" width="200mm" xmlns="http://www.w3.org/2000/svg" xmlns:ev="http://www.w3.org/2001/xml-events" xmlns:xlink="http://www.w3.org/1999/xlink"><defs /><rect fill="#1a1a1a" height="200" width="200" x="0" y="0" /><text alignment-baseline="middle" fill="#e1ed5e" style="dominant-baseline: central; font-size:9.0px; font-family:Arial;" text-anchor="middle" x="100.0" y="100.0">2023</text><line stroke="#e1ed5e" stroke-width="0.3" x1="100.0" x2="100.0" y1="15.0" y2="10.0" /><path d="M 100.0 14.0 a86.0,86.0 0 0,1 42.46469731375804,11.215312516191453" fill="none" id="id49" stroke="none" /><text fill="#e1ed5e" style="font-size:6.75px; font-family:Arial;" text-anchor="middle"><textPath startOffset="22.20632615414155" xlink:href="#id49">January</textPath></text><line stroke="#e1ed5e" stroke-width="0.3" x1="143.23703022742887" x2="145.7803849466894" y1="26.81831364943548" y2="22.513508569990506" /><path d="M 143.74570117128098 25.957352633546492 a86.0,86.0 0 0,1 28.547481713284135,27.462654790039103" fill="none" id="id50" stroke="none" /><text fill="#e1ed5e" style="font-size:6.75px; font-family:Arial;" text-anchor="middle"><textPath startOffset="19.985693538727396" xlink:href="#id50">February</textPath></text><path d="M 117.04232023915458 87.72973835380427 l 0.2800896592101543 -0.20166112094328764 a21.345133923132114,21.345133923132114 0 0,0 0.2121171465882718,0.300024660998927 l -0.283519425602309 0.19680995961256748" fill="#ff0500" stroke="none" /><line stroke="#e1ed5e" stroke-width="0.3" x1="172.23445277983987" x2="176.4835382374775" y1="55.19839476539836" y2="52.563006222186495" /><path d="M 173.08426987136738 54.67131705675599 a86.0,86.0 0 0,1 12.851231095245387,41.99856678651699" fill="none" id="id51" stroke="none" /><text fill="#e1ed5e" style="font-size:6.75px; font-family:Arial;" text-anchor="middle"><textPath startOffset="22.20632615414155" xlink:href="#id51">March</textPath></text><line stroke="#e1ed5e" stroke-width="0.3" x1="184.98032266829074" x2="189.97916517819016" y1="98.17113171792111" y2="98.06355123074" /><path d="M 185.9800911702706 98.14961562048488 a86.0,86.0 0 0,1 -9.607161424134198,41.387399972396054" fill="none" id="id52" stroke="none" /><text fill="#e1ed5e" style="font-size:6.75px; font-family:Arial;" text-anchor="middle"><textPath startOffset="21.466115282336823" xlink:href="#id52">April</textPath></text><line stroke="#e1ed5e" stroke-width="0.3" x1="174.80103733775053" x2="179.2010983576182" y1="140.37084112569926" y2="142.7455964860345" /><path d="M 175.68104954172406 140.8457921977663 a86.0,86.0 0 0,1 -30.038265399797805,32.042727171017184" fill="none" id="id53" stroke="none" /><text fill="#e1ed5e" style="font-size:6.75px; font-family:Arial;" text-anchor="middle"><textPath startOffset="22.206326154141568" xlink:href="#id53">May</textPath></text><line stroke="#e1ed5e" stroke-width="0.3" x1="143.8653032363475" x2="146.44561519142675" y1="172.8068346515853" y2="177.08958963109032" /><path d="M 144.38136562736335 173.6633856474863 a86.0,86.0 0 0,1 -40.68145358897372,12.25698825130547" fill="none" id="id54" stroke="none" /><text fill="#e1ed5e" style="font-size:6.75px; font-family:Arial;" text-anchor="middle"><textPath startOffset="21.466115282336833" xlink:href="#id54">June</textPath></text><line stroke="#e1ed5e" stroke-width="0.3" x1="102.19456741930631" x2="102.32365962044197" y1="184.97166512339345" y2="189.96999836594603" /><path d="M 102.22038585953345 185.97133177190398 a86.0,86.0 0 0,1 -42.740103519485714,-10.115201625700543" fill="none" id="id55" stroke="none" /><text fill="#e1ed5e" style="font-size:6.75px; font-family:Arial;" text-anchor="middle"><textPath startOffset="22.20632615414155" xlink:href="#id55">July</textPath></text><path d="M 93.08242187328487 119.8279376855182 l -2.347282650187021 6.728044593882603 a28.125750479573497,28.125750479573497 0 0,0 -0.45574489194323553,-0.1634139036242547 l 2.462747102759983 -6.686643149218391" fill="#ff6309" stroke="none" /><path d="M 92.7421414339146 119.70592522655815 l -1.1993282208189757 3.2563147967633834 a24.470154785722528,24.470154785722528 0 0,0 -0.3940041921741935,-0.14897867188172234 l 1.2552026337534523 -3.235187874775028" fill="#ff3104" stroke="none" /><path d="M 92.40401165467489 119.57807347666478 l -2.2983408088454884 5.923795980767558 a27.354032522372105,27.354032522372105 0 0,0 -0.4375068099776362,-0.1740929888016245 l 2.3999686948649828 -5.8833561475598675" fill="#ff5908" stroke="none" /><path d="M 92.06813273071674 119.44442032107085 l -1.37256929586123 3.3647580579009957 a24.633943210914374,24.633943210914374 0 0,0 -0.39124395837898424,-0.16354000633324053 l 1.4302847137376766 -3.340633008547782" fill="#ff3304" stroke="none" /><path d="M 91.7346041902142 119.30500536409082 l -0.1338388422777869 0.3125996174360271 a21.34004610940784,21.34004610940784 0 0,0 -0.336440384222638,-0.14748557737170923 l 0.13919990115816816 -0.31024948676986563" fill="#ff0500" stroke="none" /><path d="M 91.40352486487194 119.15986991738527 l -0.10598219341484849 0.2362136814762526 a21.25889984286899,21.25889984286899 0 0,0 -0.3325823320551162,-0.15267223651321707 l 0.11003252123738415 -0.23435437462896117" fill="#ff0300" stroke="none" /><path d="M 91.07499286063937 119.00905698771935 l -13.796663148743791 29.385024789305213 a53.4627108527305,53.4627108527305 0 0,0 -0.8296581048224213,-0.3982863085547677 l 14.300433921566455 -29.143184204250883" fill="#6eff28" stroke="none" /><line stroke="#e1ed5e" stroke-width="0.3" x1="58.666819895761336" x2="56.23545636021788" y1="174.27360380694188" y2="178.64263932499728" /><path d="M 58.180547188652646 175.14741091055294 a86.0,86.0 0 0,1 -31.652253787137756,-30.449443065178592" fill="none" id="id56" stroke="none" /><text fill="#e1ed5e" style="font-size:6.75px; font-family:Arial;" text-anchor="middle"><textPath startOffset="22.20632615414155" xlink:href="#id56">August</textPath></text><path d="M 85.97065885151581 115.62618273729859 l -13.428861671727992 14.957355745747122 a41.10116456087158,41.10116456087158 0 0,0 -0.5223771113682654,-0.4771791057931414 l 13.684338332563112 -14.723983873367406" fill="#f6ff19" stroke="none" /><path d="M 84.9287848128048 114.62390073753433 l -45.21364556158558 43.871702212602976 a84.0,84.0 0 0,0 -0.99797379448417,-1.0463715336699995 l 45.9621259074487 -43.08692356235048" fill="#4dd2ff" stroke="none" /><path d="M 84.67929136418377 114.36230785411682 l -0.671464725953076 0.6294606428826246 a21.92037252193742,21.92037252193742 0 0,0 -0.2556892374914425,-0.27750016805924566 l 0.6822003714402475 -0.6178092200220348" fill="#ff0d01" stroke="none" /><path d="M 83.95833913139862 113.55231037782056 l -0.08965154982273166 0.07573939126393174 a21.11736207127794,21.11736207127794 0 0,0 -0.2321944463787901,-0.27969316855137083 l 0.09094199609505817 -0.07418496559879975" fill="#ff0100" stroke="none" /><path d="M 83.50135304334701 112.99209946851258 l -0.11733851931745819 0.09239992336739264 a21.149352180947965,21.149352180947965 0 0,0 -0.22276631060380314,-0.28795548565628076 l 0.11891164713932978 -0.0903664435978592" fill="#ff0200" stroke="none" /><path d="M 82.05923443525364 110.91462005526583 l -0.018614907300940908 0.011324747532123291 a21.021789095449076,21.021789095449076 0 0,0 -0.18541130321502552,-0.3107600090266187 l 0.018807086214198313 -0.01100264461939344" fill="#ff0000" stroke="none" /><line stroke="#e1ed5e" stroke-width="0.3" x1="26.63291911575756" x2="22.317208475507996" y1="142.92168965132927" y2="145.44649492493687" /><path d="M 25.769776987707644 143.4266507060508 a86.0,86.0 0 0,1 -11.730757126820373,-40.83630448921669" fill="none" id="id57" stroke="none" /><text fill="#e1ed5e" style="font-size:6.75px; font-family:Arial;" text-anchor="middle"><textPath startOffset="21.46611528233685" xlink:href="#id57">September</textPath></text><path d="M 81.69416730710424 110.29060199501025 l -3.8131253799582585 2.1435438802765265 a25.374323436824575,25.374323436824575 0 0,0 -0.2107562191233084,-0.3825837559908451 l 3.8494580085330834 -2.0775896058878587" fill="#ff3d05" stroke="none" /><path d="M 81.51974371655577 109.97397251340807 l -3.1674095958427877 1.7094815008568196 a24.599279170835274,24.599279170835274 0 0,0 -0.19790411978040112,-0.3743600125096934 l 3.196366223848075 -1.654706473261" fill="#ff3304" stroke="none" /><path d="M 81.35079622478065 109.6543875284942 l -0.42568441986494837 0.22036985620154745 a21.47934340387456,21.47934340387456 0 0,0 -0.1671515652942266,-0.3298058959986222 l 0.4294146549454417 -0.2130097485002403" fill="#ff0701" stroke="none" /><path d="M 81.18737489456691 109.33194174019688 l -46.25077912102747 22.94254915394523 a72.6284333578239,72.6284333578239 0 0,0 -0.5459124610813054,-1.1247413637573165 l 46.63884483872349 -22.143018834222627" fill="#3fffbf" stroke="none" /><path d="M 79.67330655649465 105.27499134158121 l -0.06197420278116813 0.016082959286057092 a21.06402705201521,21.06402705201521 0 0,0 -0.08805634526427372,-0.3517413274915219 l 0.06224186234050037 -0.015013792397143328" fill="#ff0100" stroke="none" /><path d="M 79.58551787078972 104.9243191809786 l -0.019165846147949934 0.004623127013885494 a21.01971555127186,21.01971555127186 0 0,0 -0.08181617397436527,-0.3524619361533531 l 0.019242586052870367 -0.004292533511958177" fill="#ff0000" stroke="none" /><path d="M 79.50377843672027 104.57218783832718 l -0.018752562236421896 0.004183221611365223 a21.01921348311683,21.01921348311683 0 0,0 -0.07573519016458241,-0.3538095949058686 l 0.018821791125445065 -0.0038598072893328483" fill="#ff0000" stroke="none" /><path d="M 79.29508885075956 103.50808413554451 l -0.09546316115961934 0.016174558720831556 a21.09682371346112,21.09682371346112 0 0,0 -0.0575825201811767,-0.3585664081350009 l 0.09572743570208679 -0.014528920892616959" fill="#ff0100" stroke="none" /><path d="M 79.23777060512086 103.15116336523772 l -0.07203468279068709 0.010932980708349154 a21.072859629369933,21.072859629369933 0 0,0 -0.051343469558605345,-0.35909610650911655 l 0.07221220336589144 -0.00969140221883199" fill="#ff0100" stroke="none" /><path d="M 79.18660465613746 102.79330883721812 l -0.1287487776092783 0.017279021146498194 a21.12990308813752,21.12990308813752 0 0,0 -0.04527684517745483,-0.36090100434964695 l 0.12902713203358127 -0.015060262509442635" fill="#ff0200" stroke="none" /><path d="M 79.1416061653843 102.43462659150553 l -0.16283225631539439 0.01900605311816464 a21.163937713025078,21.163937713025078 0 0,0 -0.03912073110451071,-0.3622093836886946 l 0.16313528892095697 -0.016200347544687972" fill="#ff0200" stroke="none" /><path d="M 79.07016306316243 101.71520430193888 l -0.07004923334920489 0.005740548612522101 a21.07028405929643,21.07028405929643 0 0,0 -0.026511876893648065,-0.36173349642954494 l 0.0701376689071883 -0.004533915686216501" fill="#ff0100" stroke="none" /><path d="M 79.04373962182676 101.35467743843564 l -0.07322879377371153 0.004733735551044474 a21.07338163591676,21.07338163591676 0 0,0 -0.02028428295245505,-0.3621894983266545 l 0.0732994276136982 -0.0034725208889523707" fill="#ff0100" stroke="none" /><path d="M 79.0235259727143 100.99374915477108 l -0.752184896378776 0.035634354183437675 a21.753028502474123,21.753028502474123 0 0,0 -0.014499809669603516,-0.3741756591165094 l 0.7526868388995803 -0.02268144805293148" fill="#ff0b01" stroke="none" /><path d="M 79.0095281055655 100.63252640178507 l -0.6330707479550087 0.019076939493939668 a21.633358114763496,21.633358114763496 0 0,0 -0.008012519206162656,-0.3723102829207041 l 0.6333053298461788 -0.008176840783106725" fill="#ff0901" stroke="none" /><line stroke="#e1ed5e" stroke-width="0.3" x1="15.007084014347285" x2="10.007500721073583" y1="101.09737516637583" y2="101.16192664675087" /><path d="M 14.007167355692545 101.11028546245083 a86.0,86.0 0 0,1 10.666146001902534,-42.60595125391555" fill="none" id="id58" stroke="none" /><text fill="#e1ed5e" style="font-size:6.75px; font-family:Arial;" text-anchor="middle"><textPath startOffset="22.20632615414155" xlink:href="#id58">October</textPath></text><path d="M 79.00175016825051 100.2711162175752 l -2.0138527331861695 0.026001602045394458 a23.014020584371057,23.014020584371057 0 0,0 -0.001704903533454262,-0.3961595385559833 l 2.014001934009127 0.008667414714264203" fill="#ff1c02" stroke="none" /><path d="M 79.00019446554 99.90962569577889 l -3.935760871225066 -0.016937854483175904 a24.93579731774653,24.93579731774653 0 0,0 0.005541675647429081,-0.4292088860342051 l 3.934886188459921 0.08468299857785297" fill="#ff3705" stroke="none" /><path d="M 79.00486145842228 99.54816195383935 l -1.2431580841007466 -0.026754103988240987 a22.243445939373824,22.243445939373824 0 0,0 0.01153302074986873,-0.382724811525431 l 1.2425133688952328 0.04814906293866638" fill="#ff1201" stroke="none" /><path d="M 79.01574976396665 99.18683210126434 l -0.07390822944501216 -0.0028640432210378444 a21.073963701389726,21.073963701389726 0 0,0 0.01716664186423801,-0.36236067771436625 l 0.07384797934727534 0.004135827558413192" fill="#ff0100" stroke="none" /><path d="M 79.03285615573316 98.82574320788736 l -0.14564768687077717 -0.00815694244451281 a21.14587592125108,21.14587592125108 0 0,0 0.023481396627504057,-0.3632468127153248 l 0.14548569923885996 0.010662819412849394" fill="#ff0200" stroke="none" /><path d="M 79.05617556472873 98.46500227214037 l -0.05884089531993839 -0.004312518991002615 a21.058998718478453,21.058998718478453 0 0,0 0.029608467019410754,-0.36129829313366746 l 0.05875794448103056 0.0053247293324484605" fill="#ff0100" stroke="none" /><path d="M 79.12142395522702 97.74499172005258 l -0.028463003791488233 -0.0030741708191373337 a21.028628536655923,21.028628536655923 0 0,0 0.041966780894757444,-0.3595457500250861 l 0.028405869893141873 0.003563659169085203" fill="#ff0000" stroke="none" /><path d="M 79.26566170972629 96.67025291283419 l -0.027073366202974024 -0.00434773760281578 a21.027420247625127,21.027420247625127 0 0,0 0.06046698884695488,-0.3568795910147194 l 0.026994515835796123 0.004813116933363131" fill="#ff0000" stroke="none" /><path d="M 79.3925641242962 95.95851677861259 l -0.03915336539188173 -0.007678668527543642 a21.039899222697517,21.039899222697517 0 0,0 0.07275868073475486,-0.35479716698218555 l 0.0390153887421323 0.008351491673131673" fill="#ff0000" stroke="none" /><path d="M 79.46518482838121 95.60439243477599 l -0.0415327092268289 -0.008890340105618122 a21.04247356922739,21.04247356922739 0 0,0 0.07886479910759352,-0.35353543056625764 l 0.041373523117197795 0.00960394022183499" fill="#ff0000" stroke="none" /><path d="M 79.62865764111835 94.90015583598534 l -0.05851636734775058 -0.014649223858714155 a21.060322176744872,21.060322176744872 0 0,0 0.09106450026864513,-0.3509086670826459 l 0.0582555352087981 0.01565431649022387" fill="#ff0100" stroke="none" /><path d="M 79.81627453868168 94.20196356495316 l -0.11290099499799806 -0.03243227241700098 a21.1174669611664,21.1174669611664 0 0,0 0.10336909864506039,-0.3485092130995779 l 0.11232599924123074 0.034370872263118114" fill="#ff0100" stroke="none" /><path d="M 80.02781315780177 93.51064311812611 l -0.022876936120105627 -0.007433167134884317 a21.024054234136603,21.024054234136603 0 0,0 0.11479404544643476,-0.343219584622946 l 0.02274559690189847 0.007825854680152487" fill="#ff0000" stroke="none" /><path d="M 80.14247586403 93.16781622104843 l -0.3132801505404335 -0.10778723209066879 a21.331304301397378,21.331304301397378 0 0,0 0.12244871504009103,-0.3461790065396413 l 0.31137835469053293 0.11316386505692116" fill="#ff0400" stroke="none" /><path d="M 80.38941819471856 92.48833698450439 l -0.06586547831914222 -0.0252291993373997 a21.070532075918802,21.070532075918802 0 0,0 0.13265048799338983,-0.3375810230627913 l 0.06542144044406127 0.02635922729595439" fill="#ff0100" stroke="none" /><path d="M 80.65960295795068 91.81776055985345 l -0.24312555442305891 -0.10285784185209561 a21.263988202092424,21.263988202092424 0 0,0 0.1455158404969673,-0.33587062267307227 l 0.24131900408341087 0.10702760911176717" fill="#ff0400" stroke="none" /><path d="M 81.26839172434947 90.50648371742162 l -0.03895980864274961 -0.019745532378918827 a21.04367782891132,21.04367782891132 0 0,0 0.16653622603727208,-0.32169498128790164 l 0.03861414944536352 0.020413235927155972" fill="#ff0000" stroke="none" /><path d="M 81.6062741919709 89.86733742301443 l -0.06292532338344017 -0.03466405208202994 a21.071841442285468,21.071841442285468 0 0,0 0.17774836644754083,-0.31619451021446393 l 0.06231931564346868 0.03574207223127848" fill="#ff0100" stroke="none" /><line stroke="#e1ed5e" stroke-width="0.3" x1="26.266209847984243" x2="21.928928074336255" y1="57.711370442889674" y2="55.22380399835377" /><path d="M 25.398753493254645 57.213857153982495 a86.0,86.0 0 0,1 29.58750427330803,-30.492523968695096" fill="none" id="id59" stroke="none" /><text fill="#e1ed5e" style="font-size:6.75px; font-family:Arial;" text-anchor="middle"><textPath startOffset="21.46611528233685" xlink:href="#id59">November</textPath></text><path d="M 83.17141714833178 87.43820079747576 l -0.02102825056500043 -0.015696667004359 a21.02624066837697,21.02624066837697 0 0,0 0.21899736765773134,-0.28817486525468533 l 0.020754942683160242 0.016056308140070887" fill="#ff0000" stroke="none" /><path d="M 85.57189188830299 84.74124197986013 l -0.031227221028422524 -0.03302502349062856 a21.045450979194232,21.045450979194232 0 0,0 0.2653652143463075,-0.24662804618907236 l 0.030654122887258873 0.03355765575434842" fill="#ff0000" stroke="none" /><path d="M 86.10567301691215 84.25364557470407 l -0.02555492683864181 -0.0289612397781885 a21.038623926460396,21.038623926460396 0 0,0 0.2736085077264144,-0.23727060171733874 l 0.02505262046545395 0.029396834915207812" fill="#ff0000" stroke="none" /><path d="M 86.65592168130627 83.78471172551755 l -0.027505202465310557 -0.03342342396163904 a21.04328581097747,21.04328581097747 0 0,0 0.28167600592864933,-0.2277624075411112 l 0.026925797972160746 0.033891928766884565" fill="#ff0000" stroke="none" /><path d="M 87.51073957382395 83.11751280151077 l -0.21985978125962957 -0.2971977375697026 a21.369682050730194,21.369682050730194 0 0,0 0.297603028750789,-0.21622125685065097 l 0.2147114361550589 0.3009382292370214" fill="#ff0500" stroke="none" /><line stroke="#e1ed5e" stroke-width="0.3" x1="56.762969772571076" x2="54.21961505331055" y1="26.818313649435495" y2="22.513508569990535" /><path d="M 56.25429882871897 25.957352633546506 a86.0,86.0 0 0,1 42.265352541879196,-11.944610805530505" fill="none" id="id60" stroke="none" /><text fill="#e1ed5e" style="font-size:6.75px; font-family:Arial;" text-anchor="middle"><textPath startOffset="22.20632615414155" xlink:href="#id60">December</textPath></text><path d="M 89.3179101791058 81.91981866633112 l -0.01464208795794819 -0.024782754107292446 a21.028784989854277,21.028784989854277 0 0,0 0.3132320312909832,-0.18144421025238922 l 0.014213324201644839 0.025031121749728855" fill="#ff0000" stroke="none" /><path d="M 90.58718382345135 81.22770947309562 l -0.03454048488674796 -0.06888523105865335 a21.077059847873038,21.077059847873038 0 0,0 0.32571959655122196,-0.1598291914430073 l 0.03334962132510004 0.0694695826364903" fill="#ff0100" stroke="none" /><path d="M 91.23893434514133 80.91482961587045 l -0.018847106811847033 -0.04105667722653218 a21.04517592478368,21.04517592478368 0 0,0 0.33052739714315216,-0.14829800845576152 l 0.01813759120192046 0.041375016198822626" fill="#ff0000" stroke="none" /><path d="M 91.56875222667455 80.76684994638697 l -1.2125944540570988 -2.7661399256756143 a24.020250883358322,24.020250883358322 0 0,0 0.38011045288055556,-0.16274345876840593 l 1.164800243386235 2.7866029124068064" fill="#ff2b04" stroke="none" /><path d="M 91.90106846888425 80.62456947434976 l -0.22052777465465712 -0.5275783059014096 a21.571814102879543,21.571814102879543 0 0,0 0.34383019726069725,-0.14025697052475186 l 0.2114137078055794 0.5312961626097384" fill="#ff0801" stroke="none" /><path d="M 92.23578459929587 80.48803036053334 l -0.15006740797745724 -0.3771289895002207 a21.40588976540254,21.40588976540254 0 0,0 0.3435307247191326,-0.1332845841209978 l 0.14355351825864826 0.37965627751177" fill="#ff0600" stroke="none" /><path d="M 97.47563105711357 79.15227682838746 l -0.0028037562949441907 -0.023155068217099492 a21.023324198453537,21.023324198453537 0 0,0 0.3596322883330657,-0.040408877911860534 l 0.0024047644521604968 0.023199899599558517" fill="#ff0000" stroke="none" /><path d="M 97.83486435360386 79.11191278185805 l -0.00310891225841554 -0.02999314639497318 a21.030153841647472,21.030153841647472 0 0,0 0.36039161623979343,-0.034223526490489826 l 0.0025921689283857716 0.030042217400643553" fill="#ff0000" stroke="none" /><path d="M 98.91598698831166 79.02799685794201 l -0.0031127602742793015 -0.060221434197533 a21.06030182761188,21.06030182761188 0 0,0 0.3621962417947573,-0.015596932071717612 l 0.0020756860901979127 0.06026609279344305" fill="#ff0100" stroke="none" /><path d="M 99.63851952072746 79.00311137660856 l -0.002756818785609332 -0.16013206885417966 a21.160155797663826,21.160155797663826 0 0,0 0.36423729805814503,-0.00313510541820536 l 3.922685699477917e-17 0.16015579766382615" fill="#ff0200" stroke="none" /></svg>