<?xml version="1.0" encoding="utf-8" ?>
<svg baseProfile="full" height="200mm" version="1.1" viewBox="0,0,200,200" width="200mm" xmlns="http://www.w3.org/2000/svg" xmlns:ev="http://www.w3.org/2001/xml-events" xmlns:xlink="http://www.w3.org/1999/xlink"><defs /><rect fill="#1a1a1a" height="200" width="200" x="0" y="0" /><text alignment-baseline="middle" fill="#e1ed5e" style="dominant-baseline: central; font-size:9.0px; font-family:Arial;" text-anchor="middle" x="100.0" y="100.0">2024</text><line stroke="#e1ed5e" stroke-width="0.3" x1="100.0" x2="100.0" y1="15.0" y2="10.0" /><path d="M 100.0 14.0 a86.0,86.0 0 0,1 42.35913384403234,11.155469271406648" fill="none" id="id61" stroke="none" /><text fill="#e1ed5e" style="font-size:6.75px; font-family:Arial;" text-anchor="middle"><textPath startOffset="22.145653131862478" xlink:href="#id61">January</textPath></text><path d="M 100.0 79.0 l 0.0 -0.06753234552507692 a21.067532345525077,21.067532345525077 0 0,0 0.3616522073612471,0.0031043492405329466 l -0.0011592825123923072 0.06752239447897888" fill="#ff0100" stroke="none" /><path d="M 100.36049292484886 79.00309439819443 l 0.0006475082323759613 -0.03771410836229407 a21.03771966644171,21.03771966644171 0 0,0 0.36103400333798646,0.009298955250210801 l -0.0012948256411038134 0.03769743576203817" fill="#ff0000" stroke="none" /><path d="M 101.08105385017728 79.02784411241856 l 0.0008731017213669534 -0.016937940143518966 a21.016960428146756,21.016960428146756 0 0,0 0.3601462814798644,0.02166550597171891 l -0.0011637353336937072 0.016920456347108315" fill="#ff0000" stroke="none" /><path d="M 101.44090949804482 79.04949213459386 l 0.003652899485399827 -0.05311235681647708 a21.05323782603799,21.05323782603799 0 0,0 0.36034221119280535,0.02789276610974186 l -0.004564105453438672 0.05304182371168157" fill="#ff0100" stroke="none" /><path d="M 101.80034050326958 79.07731436759882 l 0.0050272059863312605 -0.05842375387895406 a21.058639643734743,21.058639643734743 0 0,0 0.35990261726924166,0.03408315204473751 l -0.0060293866405858616 0.05832884632903285" fill="#ff0100" stroke="none" /><path d="M 102.15924093988457 79.11130261209362 l 0.006069848713762892 -0.0587202801827868 a21.059033163291094,21.059033163291094 0 0,0 0.35927121568597176,0.04025708908565718 l -0.0070769660005313055 0.058607430590158764" fill="#ff0100" stroke="none" /><path d="M 102.51750503828377 79.15144685158666 l 0.004302092961100511 -0.0356275011906486 a21.03588630442015,21.03588630442015 0 0,0 0.3581331376197122,0.04636750474007323 l -0.0049130524716044085 0.03554840025017835" fill="#ff0000" stroke="none" /><path d="M 102.87502721639298 79.19773525538626 l 0.0041435401292737 -0.0299805922732179 a21.030265571824366,21.030265571824366 0 0,0 0.35718894056537415,0.05249447378640467 l -0.00465758630232983 0.02990504518793081" fill="#ff0000" stroke="none" /><path d="M 103.23170211078529 79.25015418208739 l 0.0037016946977352053 -0.023767535376063968 a21.024054069956822,21.024054069956822 0 0,0 0.3561299528434427,0.05860104821704772 l -0.004109150594248391 0.023700488663347875" fill="#ff0000" stroke="none" /><path d="M 103.58742460773223 79.30868818359171 l 0.0044071217385035074 -0.02541910704066119 a21.025798327945093,21.025798327945093 0 0,0 0.3551009698229741,0.06471122573742494 l -0.004842825112531308 0.02533970737187029" fill="#ff0000" stroke="none" /><path d="M 103.94208987418118 79.37332000966035 l 0.0032340444670633764 -0.016921887228788995 a21.017228154602243,21.017228154602243 0 0,0 0.35379352462141017,0.07076861348982229 l -0.003524054619430472 0.01686387707610756" fill="#ff0000" stroke="none" /><path d="M 104.29559338865022 79.4440306129975 l 0.013791143562151368 -0.06599561439506267 a21.06742118925185,21.06742118925185 0 0,0 0.35336845370328185,0.0770150097896029 l -0.014922013884567339 0.065749146471741" fill="#ff0100" stroke="none" /><path d="M 104.64783097203109 79.52079915486377 l 0.014713080001273821 -0.06482854523106113 a21.066477176533752,21.066477176533752 0 0,0 0.3519785464389651,0.08306597857170134 l -0.01582378018012387 0.06456642301313231" fill="#ff0100" stroke="none" /><path d="M 105.3480935250658 79.69241777938227 l 0.02297698722196018 -0.08724736300984902 a21.09022219402104,21.09022219402104 0 0,0 0.3493129303571642,0.09520679249444966 l -0.024471318513817182 0.0868400763712573" fill="#ff0100" stroke="none" /><path d="M 105.69591212413111 79.78721728523813 l 0.01204781873259918 -0.04275345843156121 a21.044418556303338,21.044418556303338 0 0,0 0.3468721323102462,0.10096942234689073 l -0.012779963424449864 0.04254034178215454" fill="#ff0000" stroke="none" /><path d="M 106.72888874123014 80.10723608172694 l 6.525298646307379 -19.290885978223066 a41.36462138730559,41.36462138730559 0 0,0 0.6706864201867019,0.23329955206282288 l -6.8554908385391 19.176027993591653" fill="#f3ff19" stroke="none" /><path d="M 107.40779381753099 80.34994680014964 l 0.027332072458236507 -0.07250156944102412 a21.077482383522153,21.077482383522153 0 0,0 0.33746829591162947,0.1305399865033057 l -0.028572630863391853 0.0720216947996802" fill="#ff0100" stroke="none" /><path d="M 107.74402155503746 80.48000691201159 l 0.03423678833005394 -0.08629907171718117 a21.09284227191535,21.09284227191535 0 0,0 0.3354219322628496,0.13641317978519377 l -0.03571318178334326 0.08569863535269377" fill="#ff0100" stroke="none" /><path d="M 108.73861861582097 80.90454125486305 l 0.051250635079597144 -0.11199188691593617 a21.12316172429393,21.12316172429393 0 0,0 0.328426223890448,0.1537200559929364 l -0.05316557284155019 0.1110955993524662" fill="#ff0200" stroke="none" /><path d="M 109.06512990194946 81.05736502329252 l 0.021789056819616025 -0.04553074851491814 a21.050475856183102,21.050475856183102 0 0,0 0.324618135913391,0.15878699709747396 l -0.022567441995074093 0.04515000132022304" fill="#ff0000" stroke="none" /><path d="M 109.3889696526874 81.21577127319529 l 0.01844088094388018 -0.036894114944175015 a21.041246112635015,21.041246112635015 0 0,0 0.3217033975234325,0.16426404700292405 l -0.01907150018089156 0.03657211626841704" fill="#ff0000" stroke="none" /><path d="M 109.71004243097381 81.37971332152246 l 0.03192179784528276 -0.06121425641514529 a21.069037572133833,21.069037572133833 0 0,0 0.3192573045745799,0.16998653244676992 l -0.032967918206422184 0.06065725624580222" fill="#ff0100" stroke="none" /><path d="M 110.02825361518725 81.54914285379988 l 0.031187805037707274 -0.057382048513691504 a21.065309866595314,21.065309866595314 0 0,0 0.3162362554160389,0.1754109200889955 l -0.032168248609846434 0.05683821299154995" fill="#ff0100" stroke="none" /><line stroke="#e1ed5e" stroke-width="0.3" x1="143.13028292997686" x2="145.6673583964461" y1="26.7553504044142" y2="22.446841604673864" /><path d="M 143.63769802327073 25.89364864446614 a86.0,86.0 0 0,1 29.32050498858742,28.57503671076993" fill="none" id="id62" stroke="none" /><text fill="#e1ed5e" style="font-size:6.75px; font-family:Arial;" text-anchor="middle"><textPath startOffset="20.669276256404974" xlink:href="#id62">February</textPath></text><path d="M 110.65571695917076 81.90426304109057 l 1.445449861080058 -2.4546898696371198 a23.848653656904514,23.848653656904514 0 0,0 0.3509922688359973,0.2107607726090136 l -1.4873748864734895 2.4295150964921852" fill="#ff2803" stroke="none" /><path d="M 110.96478420261332 82.08984904055464 l 0.02670127596864643 -0.04361452761599168 a21.051138881074188,21.051138881074188 0 0,0 0.30658063807914665,0.19132899276734225 l -0.027446042837505645 0.04314973800710407" fill="#ff0000" stroke="none" /><path d="M 112.16784306229584 82.88440491214696 l 0.058057373761776936 -0.08166496692004734 a21.100198929486133,21.100198929486133 0 0,0 0.293412322490325,0.21240789416990682 l -0.05945070662606982 0.0806563013770658" fill="#ff0100" stroke="none" /><path d="M 112.7482090630111 83.31218511350987 l 0.19685906925559873 -0.2576948409165974 a21.324284017773326,21.324284017773326 0 0,0 0.2889847223443941,0.22471626800346733 l -0.20125373623521886 0.2542775212923392" fill="#ff0400" stroke="none" /><path d="M 113.03279911837588 83.53348406188908 l 0.04686420730110526 -0.05921139499207982 a21.07551319899772,21.07551319899772 0 0,0 0.2817587664279128,0.22696491757775614 l -0.047873744084277615 0.05839818362091544" fill="#ff0100" stroke="none" /><path d="M 113.31354834802062 83.75963576809568 l 0.579129126719056 -0.7064433695184249 a21.913483869453053,21.913483869453053 0 0,0 0.2888673696663793,0.2409834336997118 l -0.591170830547328 0.6963977519068428" fill="#ff0d01" stroke="none" /><path d="M 113.59037401385872 83.9905735841838 l 0.046810139873991546 -0.05514222706913955 a21.072331558818867,21.072331558818867 0 0,0 0.27376021230887915,0.2364675511659295 l -0.0477498319457309 0.05433054343849006" fill="#ff0100" stroke="none" /><path d="M 114.13192950727249 84.46653392183569 l 0.023253455286966967 -0.025559620766175607 a21.03455455681229,21.03455455681229 0 0,0 0.26500556711450995,0.24528519661779605 l -0.023688793715441813 0.025156678016004647" fill="#ff0000" stroke="none" /><path d="M 115.8921839302757 86.27271002978787 l 0.03652650962708298 -0.03155072905338656 a21.04826628646724,21.04826628646724 0 0,0 0.23384166444679877,0.27546489273182906 l -0.03706273758099393 0.030919053872005463" fill="#ff0000" stroke="none" /><path d="M 116.1254893667686 86.54754324733833 l 2.0422194966426703 -1.7036921381526624 a23.65955398028892,23.65955398028892 0 0,0 0.2574983960757344,0.31410617455884937 l -2.071164711957032 1.668383681895318" fill="#ff2603" stroke="none" /><path d="M 116.35404254752997 86.82634096563983 l 14.295949080087633 -11.515804621781042 a39.35723062412988,39.35723062412988 0 0,0 0.41931112798094805,0.5297859123900942 l -14.491526638710141 11.26869876547627" fill="#fff316" stroke="none" /><path d="M 117.21940702142032 87.97951657250589 l 0.030014143782299368 -0.020952203375920676 a21.036603874839837,21.036603874839837 0 0,0 0.20416551296394575,0.29788358497467565 l -0.03036939356157014 0.02043388333119634" fill="#ff0000" stroke="none" /><path d="M 117.42321728460499 88.27688183743584 l 0.038607531804655676 -0.025976870397572696 a21.046533206505675,21.046533206505675 0 0,0 0.199115799694101,0.3014866990343847 l -0.03904777041948105 0.025310293024129325" fill="#ff0000" stroke="none" /><path d="M 117.81537515405839 88.88188828441811 l 0.04733150947548236 -0.029538362536006314 a21.05579235297544,21.05579235297544 0 0,0 0.1887321264097591,0.30827974472039893 l -0.04783160034064379 0.028721501691052698" fill="#ff0100" stroke="none" /><line stroke="#e1ed5e" stroke-width="0.3" x1="172.87174338648825" x2="177.1583165268699" y1="56.24261187166439" y2="53.66864786411523" /><path d="M 173.72905801456457 55.72781907015455 a86.0,86.0 0 0,1 12.242430191666344,42.057860355516425" fill="none" id="id63" stroke="none" /><text fill="#e1ed5e" style="font-size:6.75px; font-family:Arial;" text-anchor="middle"><textPath startOffset="22.145653131862474" xlink:href="#id63">March</textPath></text><path d="M 118.00360718960297 89.18935116829356 l 0.018701647758041288 -0.011229802136719081 a21.021814217494462,21.021814217494462 0 0,0 0.1831163086260744,0.3109715250959314 l -0.0188916665138834 0.010907108747231222" fill="#ff0000" stroke="none" /><path d="M 118.36410011445183 89.81374322990088 l 0.020035128006318834 -0.011113147773223168 a21.022910879678857,21.022910879678857 0 0,0 0.17234247012185483,0.3170907336872597 l -0.020222947743514963 0.010767580611360168" fill="#ff0000" stroke="none" /><path d="M 118.53625476483649 90.13048839642627 l 0.033770132081544585 -0.017980693223168562 a21.03825868724343,21.03825868724343 0 0,0 0.1669956174276788,0.32023611561508525 l -0.03407381848416797 0.0173983345035851" fill="#ff0000" stroke="none" /><path d="M 118.70294669586156 90.45014215332178 l 0.02367764095786365 -0.012089972182956474 a21.026585674877914,21.026585674877914 0 0,0 0.1613841382827462,0.32287638351389314 l -0.02388169245234683 0.011681732505312901" fill="#ff0000" stroke="none" /><path d="M 118.8641267826498 90.77261029715802 l 0.016152214048840225 -0.0079008572890556 a21.017981033468118,21.017981033468118 0 0,0 0.15575399069584783,0.3254659363769813 l -0.016285462704600042 0.007622418846970796" fill="#ff0000" stroke="none" /><path d="M 119.0197475246899 91.09779779509293 l 0.01658419096999467 -0.007762238758849857 a21.018310864006885,21.018310864006885 0 0,0 0.15014634057651807,0.328096851259917 l -0.01671499640156416 0.007476405284248641" fill="#ff0000" stroke="none" /><path d="M 119.16976305983485 91.42560881287824 l 0.06889120385762582 -0.03081415922477888 a21.07546860524538,21.07546860524538 0 0,0 0.1448849327244044,0.3315250798838488 l -0.06941001859900055 0.029627009565080676" fill="#ff0100" stroke="none" /><path d="M 119.4528033332814 92.08871423366111 l 0.05420058749805593 -0.022042907084088834 a21.058511481248146,21.058511481248146 0 0,0 0.13331173426467668,0.3360326560172719 l -0.05457099672885705 0.021109233853251624" fill="#ff0100" stroke="none" /><path d="M 119.58574465831526 92.42381321644754 l 0.06236823424581606 -0.024125372828550897 a21.066871744833357,21.066871744833357 0 0,0 0.12757427018854,0.33840590841017815 l -0.06277318824879669 0.023051184224215007" fill="#ff0100" stroke="none" /><path d="M 119.71291397450082 92.76114493625339 l 0.06325461963028908 -0.02322797249601849 a21.067384609599287,21.067384609599287 0 0,0 0.12174924827808652,0.34055431597322017 l -0.06364403795231882 0.022138700141881493" fill="#ff0100" stroke="none" /><path d="M 119.83427380445688 93.10060997987247 l 0.05666686216331073 -0.019711676219455816 a21.05999736199881,21.05999736199881 0 0,0 0.11584460556944753,0.342473992128627 l -0.05699688930512325 0.018736009616667177" fill="#ff0100" stroke="none" /><path d="M 119.94978838288452 93.4421083053983 l 0.12559168483695765 -0.04128448137374335 a21.132203175841145,21.132203175841145 0 0,0 0.11032548102076631,0.3455929979480507 l -0.12628188163498114 0.03912244973430564" fill="#ff0200" stroke="none" /><path d="M 120.05942366710727 93.78553927170692 l 0.08221442585343046 -0.025470239287237968 a21.086069419120605,21.086069419120605 0 0,0 0.1041487960385793,0.34667746945228295 l -0.08263954189563709 0.02405516624423156" fill="#ff0100" stroke="none" /><path d="M 120.16314734710363 94.1308016681162 l 0.03139802128254599 -0.00913950639568392 a21.032701166915203,21.032701166915203 0 0,0 0.09793377313550793,0.3475324116112107 l -0.03155028649263596 0.008599170881460094" fill="#ff0000" stroke="none" /><path d="M 120.26092885502905 94.47779374421319 l 0.03883952826141876 -0.01058588613936021 a21.040256303120444,21.040256303120444 0 0,0 0.09198651691385877,0.34928778763147117 l -0.03901552598000781 0.009917594135090456" fill="#ff0000" stroke="none" /><path d="M 120.35273937422433 94.82641323984039 l 0.11160000941483121 -0.02836828598480804 a21.115149128312403,21.115149128312403 0 0,0 0.08628300831799357,0.3520641180861928 l -0.11207054424911599 0.026448343290520277" fill="#ff0100" stroke="none" /><path d="M 120.43855184770803 95.1765574152323 l 0.04537190215303167 -0.01070764536683102 a21.04661827082042,21.04661827082042 0 0,0 0.07996626375968753,0.35234611289104956 l -0.04554902747038561 0.009927198536755208" fill="#ff0000" stroke="none" /><path d="M 120.51834098615036 95.52812308129327 l 0.0442054950037935 -0.009634381888911124 a21.045243199521163,21.045243199521163 0 0,0 0.07390116237098178,0.35364381446708276 l -0.04436436819914209 0.008874116136423953" fill="#ff0000" stroke="none" /><path d="M 120.592083275326 95.88100663000786 l 0.020286423381247858 -0.004057852830671914 a21.02068828516815,21.02068828516815 0 0,0 0.06774037690658846,0.35444627633391884 l -0.020353092569993222 0.0037090114634385474" fill="#ff0000" stroke="none" /><path d="M 120.65975698304385 96.23510406497455 l 0.13877609336781013 -0.025289627086513927 a21.141061579916737,21.141061579916737 0 0,0 0.061998863609861204,0.3575929697448194 l -0.13918977446990566 0.022903624421101845" fill="#ff0200" stroke="none" /><path d="M 120.77682067341334 96.94652285012252 l 0.022106226316313884 -0.0032488539987862984 a21.022343685780406,21.022343685780406 0 0,0 0.049407996940674624,0.35749165329658517 l -0.022158739812201043 0.0028688925021155133" fill="#ff0000" stroke="none" /><path d="M 120.82617615685814 97.30363454192243 l 0.12997861937226063 -0.01682833454035511 a21.131063474459214,21.131063474459214 0 0,0 0.043487641832416685,0.360140058611508 l -0.13024834746434097 0.014594599005434179" fill="#ff0200" stroke="none" /><path d="M 120.86939407059847 97.66154086499901 l 0.04591309623104533 -0.005144658198242949 a21.046200431962244,21.046200431962244 0 0,0 0.03714915701734126,0.3593843951442227 l -0.045994645730052665 0.004355740771088855" fill="#ff0000" stroke="none" /><path d="M 120.9064616781168 98.02013634271609 l 0.03158145640055099 -0.0029907967562485998 a21.03172275608482,21.03172275608482 0 0,0 0.030953064705527063,0.3597215310198096 l -0.03162814380381885 0.002448218360777" fill="#ff0000" stroke="none" /><path d="M 120.93736805541906 98.37931529534042 l 0.025579254670219757 -0.0019799960859878704 a21.025655772332644,21.025655772332644 0 0,0 0.024766258938779654,0.3600959695231818 l -0.025609474774065496 0.0015406024084719235" fill="#ff0000" stroke="none" /><path d="M 120.96210409425399 98.7389718711861 l 0.06635937879751384 -0.003992015443584242 a21.06647934522612,21.06647934522612 0 0,0 0.018617160590158974,0.36116794183466217 l -0.06641812884424549 0.0028522802321914106" fill="#ff0100" stroke="none" /><path d="M 120.98066250479742 99.09900007780936 l 0.9179223143742138 -0.03941953375586249 a21.91876834668356,21.91876834668356 0 0,0 0.012916743758751743,0.37605690113239754 l -0.9184637451298137 0.02365636805934499" fill="#ff0d01" stroke="none" /><path d="M 120.99303781780057 99.45929381324524 l 0.019602842742148564 -0.0005048996929673944 a21.019609343876667,21.019609343876667 0 0,0 0.006194347152090449,0.36078966729170353 l -0.01960862149290504 0.00016831643219750812" fill="#ff0000" stroke="none" /><line stroke="#e1ed5e" stroke-width="0.3" x1="184.99686870605535" x2="189.99668451229388" y1="99.2704041080226" y2="99.22748670261217" /><path d="M 185.99683186730306 99.26182062694052 a86.0,86.0 0 0,1 -10.086455211305974,41.156179273409016" fill="none" id="id64" stroke="none" /><text fill="#e1ed5e" style="font-size:6.75px; font-family:Arial;" text-anchor="middle"><textPath startOffset="21.40746469413373" xlink:href="#id64">April</textPath></text><path d="M 120.99922638620191 99.81974689727618 l 0.01983931888784686 -0.00017029669187297364 a21.019840049770526,21.019840049770526 0 0,0 0.0,0.3608467988313997 l -0.01983931888784686 -0.00017029669187297122" fill="#ff0000" stroke="none" /><path d="M 120.99922638620191 100.18025310272382 l 0.028371282517983598 0.00024353333823197746 a21.028372327719136,21.028372327719136 0 0,0 -0.006196929548512348,0.36094007893700036 l -0.02836292137080289 -0.000730528244303354" fill="#ff0000" stroke="none" /><path d="M 120.9064616781168 101.97986365728391 l 0.022110538242915027 0.0020938909598439887 a21.02220946376532,21.02220946376532 0 0,0 -0.0371068099795742,0.3589747259679622 l -0.02207133578167476 -0.002473139210737577" fill="#ff0000" stroke="none" /><path d="M 120.82617615685814 102.69636545807757 l 0.025431714209528836 0.003292644565079833 a21.025643977769978,21.025643977769978 0 0,0 -0.04941575348861287,0.35754777581353 l -0.025371444165705758 -0.0037287285786948843" fill="#ff0000" stroke="none" /><path d="M 120.592083275326 104.11899336999214 l 2.7967149989773175 0.5594213263671233 a23.852116232887266,23.852116232887266 0 0,0 -0.08375760250935442,0.40081044860067416 l -2.7866996856435984 -0.6073482262532066" fill="#ff2803" stroke="none" /><path d="M 120.51834098615036 104.47187691870673 l 2.675185651212869 0.5830442614726599 a23.737984455633637,23.737984455633637 0 0,0 -0.09019206324155098,0.3974028721947667 l -2.664782726413654 -0.6288814676064436" fill="#ff2703" stroke="none" /><path d="M 120.43855184770803 104.8234425847677 l 0.06906346432382567 0.016298789530359136 a21.070960641517416,21.070960641517416 0 0,0 -0.08610244053935175,0.35132733993044307 l -0.06877349726817805 -0.017481954068901805" fill="#ff0100" stroke="none" /><path d="M 119.83427380445688 106.89939002012753 l 7.411975533316616 2.5782698438146507 a28.847601970921318,28.847601970921318 0 0,0 -0.1667114318967152,0.46632154577926765 l -7.366623931375957 -2.7051263459748403" fill="#ff6d0a" stroke="none" /><path d="M 119.71291397450082 107.23885506374661 l 0.04207546547915994 0.015450693729871312 a21.04482263637965,21.04482263637965 0 0,0 -0.12744074780546577,0.3380517244256591 l -0.04180403385925356 -0.016170698349689358" fill="#ff0000" stroke="none" /><path d="M 119.58574465831526 107.57618678355244 l 0.07689921738127688 0.029746269266418133 a21.08245198705382,21.08245198705382 0 0,0 -0.133463290577238,0.3364146769288385 l -0.07637725183791447 -0.031061963408820756" fill="#ff0100" stroke="none" /><path d="M 119.4528033332814 107.91128576633889 l 0.04449153246875054 0.01809431892730989 a21.048030207566292,21.048030207566292 0 0,0 -0.13899132443832365,0.3335285806369531 l -0.044174363493941354 -0.01885540900554082" fill="#ff0000" stroke="none" /><path d="M 119.16976305983485 108.57439118712176 l 0.01599649504436176 0.00715502876614032 a21.017523763589725,21.017523763589725 0 0,0 -0.15014071784840421,0.3280845645842529 l -0.015871312340901465 -0.007428575565082086" fill="#ff0000" stroke="none" /><path d="M 119.0197475246899 108.90220220490707 l 0.016241796020312234 0.007601980633863953 a21.01793282040068,21.01793282040068 0 0,0 -0.1557536334123559,0.3254651897918971 l -0.016108904648044348 -0.007879672490864584" fill="#ff0000" stroke="none" /><path d="M 118.70294669586154 109.54985784667822 l 0.07047318403904403 0.03598410991165268 a21.079128539950734,21.079128539950734 0 0,0 -0.16732003050712602,0.32085822047039747 l -0.06984508455696875 -0.037188573486553037" fill="#ff0100" stroke="none" /><line stroke="#e1ed5e" stroke-width="0.3" x1="174.33088141563837" x2="178.70328620479359" y1="141.23008692659167" y2="143.65538615756765" /><path d="M 175.20536237346943 141.71514677278685 a86.0,86.0 0 0,1 -30.301960400862466,31.631185727798858" fill="none" id="id65" stroke="none" /><text fill="#e1ed5e" style="font-size:6.75px; font-family:Arial;" text-anchor="middle"><textPath startOffset="22.145653131862474" xlink:href="#id65">May</textPath></text><path d="M 118.00360718960297 110.81064883170644 l 0.0440542191885533 0.02645329284219825 a21.051386291270223,21.051386291270223 0 0,0 -0.18869263298292302,0.3082152351757099 l -0.0435936217502256 -0.027205644142465214" fill="#ff0000" stroke="none" /><path d="M 117.62189284568427 111.42229804090321 l 0.022364702887298273 0.014496530208872122 a21.026652004114773,21.026652004114773 0 0,0 -0.1989277087874347,0.30120190542857295 l -0.022112555179136864 -0.014878313976506114" fill="#ff0000" stroke="none" /><path d="M 117.423217284605 111.72311816256416 l 0.04777119192502646 0.032142589887715574 a21.057578058864706,21.057578058864706 0 0,0 -0.20436907267662627,0.29818058467893005 l -0.04721238243307986 -0.032957909636689674" fill="#ff0100" stroke="none" /><path d="M 117.21940702142032 112.02048342749411 l 0.022203494907976955 0.015499763856082673 a21.027078365270505,21.027078365270505 0 0,0 -0.2091542472634441,0.2942016418800176 l -0.021934149114572234 -0.015878632445604234" fill="#ff0000" stroke="none" /><path d="M 117.01052211995028 112.31430620078461 l 0.026238611780796763 0.01899473146525558 a21.03239235359804,21.03239235359804 0 0,0 -0.21422791655976942,0.2906413124759838 l -0.02590867563719926 -0.019442353210116683" fill="#ff0000" stroke="none" /><path d="M 116.79662413953412 112.60449989151573 l 0.08530213357000949 0.06401231130716173 a21.10664909746679,21.10664909746679 0 0,0 -0.21995944855510297,0.28793397895178796 l -0.0841907076606021 -0.06546720349982699" fill="#ff0100" stroke="none" /><path d="M 116.57777611688842 112.89097897827486 l 0.05146881749630121 0.040022463791483345 a21.06519844156426,21.06519844156426 0 0,0 -0.22442819221785643,0.2835576893766533 l -0.050774194636883145 -0.04090009708281954" fill="#ff0100" stroke="none" /><path d="M 116.35404254752997 113.17365903436017 l 0.021682471685703607 0.017465864368364937 a21.027842162210135,21.027842162210135 0 0,0 -0.22885620051053435,0.27916735312516266 l -0.021379451936541685 -0.01783549919202046" fill="#ff0000" stroke="none" /><path d="M 116.1254893667686 113.45245675266167 l 0.13209327547229777 0.11019690845913231 a21.17202323116065,21.17202323116065 0 0,0 -0.2352165772087356,0.2770845365082198 l -0.13018213475644766 -0.11244822741690876" fill="#ff0200" stroke="none" /><path d="M 115.89218393027572 113.72728997021213 l 0.14495328024819631 0.12520719108401926 a21.191541886160344,21.191541886160344 0 0,0 -0.2401596431697319,0.2732575884295206 l -0.14278257311987888 -0.12767705732483298" fill="#ff0300" stroke="none" /><path d="M 115.6541949942343 113.99807769240083 l 0.01614522249271685 0.014437157509369733 a21.021658710171423,21.021658710171423 0 0,0 -0.2428525112002338,0.26693745130730945 l -0.01589501045060321 -0.014712184374350934" fill="#ff0000" stroke="none" /><path d="M 115.41159269507618 114.26474011684316 l 0.05476177878588005 0.050686684898323696 a21.074618981779274,21.074618981779274 0 0,0 -0.2480223398846585,0.26339113000875125 l -0.05388360516496159 -0.0516192748515721" fill="#ff0100" stroke="none" /><path d="M 115.16444852881244 114.52719865689866 l 0.0570622021469793 0.0546642988575724 a21.079020759825838,21.079020759825838 0 0,0 -0.25255999247563443,0.25914880160095777 l -0.05611540852053774 -0.055635792526267484" fill="#ff0100" stroke="none" /><path d="M 114.91283532996324 114.78537596483092 l 0.015312949395876409 0.015182070272951992 a21.02156343379366,21.02156343379366 0 0,0 -0.2562709566929361,0.25408061979728785 l -0.01505007257297549 -0.015442700298901586" fill="#ff0000" stroke="none" /><path d="M 114.39649973595853 115.28858382429668 l 0.015262694990024434 0.016208453167045143 a21.022263508538117,21.022263508538117 0 0,0 -0.2648507173310462,0.24514186996999257 l -0.014982206345010955 -0.016468069269417292" fill="#ff0000" stroke="none" /><path d="M 114.13192950727249 115.5334660781643 l 0.0554354174914347 0.060933234678883744 a21.082376845052973,21.082376845052973 0 0,0 -0.2697891417121309,0.2412471141213908 l -0.05438124895592586 -0.06187587868366151" fill="#ff0100" stroke="none" /><path d="M 113.86319453409587 115.77377054828091 l 0.058112921543280904 0.06612183707438296 a21.088029591549585,21.088029591549585 0 0,0 -0.2739641525687073,0.236643709905063 l -0.05696928921171799 -0.06710967944416363" fill="#ff0100" stroke="none" /><path d="M 113.59037401385872 116.0094264158162 l 0.05874539824477351 0.0692019314191404 a21.090774055363173,21.090774055363173 0 0,0 -0.27802226528175905,0.23193606190256 l -0.05754879880111944 -0.0702001772335706" fill="#ff0100" stroke="none" /><path d="M 113.31354834802062 116.24036423190432 l 0.012316463079711697 0.015024082328364276 a21.019427256950053,21.019427256950053 0 0,0 -0.2810089528553588,0.22636092084022347 l -0.01205673986910037 -0.015233296961991341" fill="#ff0000" stroke="none" /><path d="M 113.03279911837588 116.46651593811092 l 0.022687279800731826 0.02866463689326684 a21.036556450497546,21.036556450497546 0 0,0 -0.28508546499672344,0.2216841819054727 l -0.02219187016877773 -0.029049870419532716" fill="#ff0000" stroke="none" /><path d="M 112.7482090630111 116.68781488649013 l 0.019650197192629035 0.025722738904955446 a21.03236957748383,21.03236957748383 0 0,0 -0.2887914716091234,0.21671450419612817 l -0.019205736672739327 -0.0260562703650985" fill="#ff0000" stroke="none" /><path d="M 112.45986205192187 116.90419585922612 l 0.37743981771954693 0.5120696021524325 a21.63614156714423,21.63614156714423 0 0,0 -0.3008649618972978,0.2178030303693902 l -0.3685938454482813 -0.5184734038948997" fill="#ff0901" stroke="none" /><path d="M 111.5731344415666 117.5232005979908 l 0.012154590869028653 0.018403599738677643 a21.02205508019788,21.02205508019788 0 0,0 -0.3028320810116371,0.19629209619833934 l -0.011836877600381858 -0.018609537640911684" fill="#ff0000" stroke="none" /><path d="M 111.27062007382361 117.71928675628689 l 0.02313194535837087 0.036367260217359 a21.043100632382597,21.043100632382597 0 0,0 -0.3064635721366873,0.19125593496108706 l -0.02250424443196869 -0.03675899201999375" fill="#ff0000" stroke="none" /><path d="M 110.96478420261333 117.91015095944535 l 0.016545990457489522 0.02702663193285192 a21.031689251077506,21.031689251077506 0 0,0 -0.3095336296081484,0.18586605095614742 l -0.016079604291904574 -0.027306683424922727" fill="#ff0000" stroke="none" /><line stroke="#e1ed5e" stroke-width="0.3" x1="143.1302829299769" x2="145.66735839644613" y1="173.24464959558577" y2="177.55315839532614" /><path d="M 143.63769802327073 174.10635135553383 a86.0,86.0 0 0,1 -40.68552437913181,11.842963189579606" fill="none" id="id66" stroke="none" /><text fill="#e1ed5e" style="font-size:6.75px; font-family:Arial;" text-anchor="middle"><textPath startOffset="21.407464694133747" xlink:href="#id66">June</textPath></text><path d="M 110.34350942703117 118.27599006163325 l 0.01658759574836585 0.029308692294636122 a21.033677110575773,21.033677110575773 0 0,0 -0.31576137874081617,0.17514751400223824 l -0.016082028851455255 -0.02958912173001808" fill="#ff0000" stroke="none" /><path d="M 110.02825361518725 118.45085714620011 l 0.04152092223968806 0.0763938203220903 a21.086948276389116,21.086948276389116 0 0,0 -0.3195287039274986,0.17013103731557136 l -0.040203402525635756 -0.07709532536023014" fill="#ff0100" stroke="none" /><path d="M 108.73861861582097 119.09545874513695 l 0.0415129284327437 0.090713240516311 a21.099760790053168,21.099760790053168 0 0,0 -0.33064992756946976,0.14789550690453526 l -0.03994959800764698 -0.09141249833069653" fill="#ff0100" stroke="none" /><path d="M 108.4095320186766 119.2426549942271 l 0.017108533517459425 0.03914767280777303 a21.04272285343212,21.04272285343212 0 0,0 -0.3322394676717939,0.1418132725691452 l -0.016433990675234385 -0.039435595036322116" fill="#ff0000" stroke="none" /><path d="M 108.07796709384702 119.3841803445677 l 0.007258668651057774 0.017418162336999037 a21.018870099358082,21.018870099358082 0 0,0 -0.3342456143094413,0.13593478151415836 l -0.006958593151175644 -0.017540200430448682" fill="#ff0000" stroke="none" /><path d="M 107.74402155503746 119.51999308798841 l 0.006326343084946322 0.015946517247238987 a21.017155583031332,21.017155583031332 0 0,0 -0.3365024128811482,0.13016636219758382 l -0.006051667710268737 -0.016052767582863378" fill="#ff0000" stroke="none" /><path d="M 107.407793817531 119.65005319985036 l 0.01152440251642518 0.030569846856202225 a21.03266997689274,21.03266997689274 0 0,0 -0.3389373185647164,0.1244624781480098 l -0.010997932297581722 -0.030763174012933922" fill="#ff0000" stroke="none" /><path d="M 107.06938296918513 119.77432235084164 l 0.014546657731723225 0.040689590642960315 a21.043211665529757,21.043211665529757 0 0,0 -0.34119486236894025,0.11868528445029841 l -0.013846023317761162 -0.04093330766184918" fill="#ff0000" stroke="none" /><path d="M 106.72888874123015 119.89276391827305 l 0.011876259943983499 0.03511005225128987 a21.037064286305625,21.037064286305625 0 0,0 -0.3430817230810749,0.11277777684565597 l -0.011271799215174395 -0.035308750498965064" fill="#ff0000" stroke="none" /><path d="M 106.38641147887787 120.00534299687104 l 0.012127404196294257 0.037988920916067856 a21.039877713636912,21.039877713636912 0 0,0 -0.3450132844726868,0.10688599745817733 l -0.011473486851983133 -0.03819150618088953" fill="#ff0000" stroke="none" /><path d="M 106.0420521117495 120.11202640906438 l 0.005830580878383238 0.01940810745047927 a21.020265002052522,21.020265002052522 0 0,0 -0.3464740127402764,0.10085353554232764 l -0.005496555756500064 -0.01950533729532517" fill="#ff0000" stroke="none" /><path d="M 104.9986988182912 120.39639698878246 l 0.026321285587248187 0.10739982735670334 a21.110578175926424,21.110578175926424 0 0,0 -0.3527153856139626,0.08323987061069267 l -0.02447374623340642 -0.10783584161362116" fill="#ff0100" stroke="none" /><path d="M 104.64783097203109 120.47920084513623 l 0.025298053503697668 0.11146789154142295 a21.114302591203202,21.114302591203202 0 0,0 -0.3541548056903683,0.0771863915452435 l -0.023380831194193534 -0.11188574122038521" fill="#ff0100" stroke="none" /><path d="M 103.94208987418118 120.62667999033965 l 0.01156570931183126 0.06051667832306522 a21.06161196301972,21.06161196301972 0 0,0 -0.3557058199385062,0.06482144957709532 l -0.010525155822267889 -0.06070630183152415" fill="#ff0100" stroke="none" /><path d="M 101.80034050326958 120.92268563240118 l 2.2809548494131406 26.508152857363143 a47.606106872941616,47.606106872941616 0 0,0 -0.8148148022942362,0.06307181894654093 l -1.8255710523436686 -26.54340244330474" fill="#acff21" stroke="none" /><path d="M 101.44090949804482 120.95050786540614 l 0.15464525730449824 2.2485081012387607 a23.253819832405224,23.253819832405224 0 0,0 -0.3984770667231006,0.023971390828215772 l -0.11602383844893249 -2.250831469891668" fill="#ff2003" stroke="none" /><path d="M 101.08105385017728 120.97215588758144 l 0.05263117854096665 1.0210308031623714 a22.022386395625944,22.022386395625944 0 0,0 -0.3777093461809149,0.016220464508297918 l -0.03509607175922219 -1.0217838360965004" fill="#ff0e01" stroke="none" /><path d="M 100.72087961077811 120.9876233191556 l 0.1265077974850044 3.683136491661077 a24.685308486277638,24.685308486277638 0 0,0 -0.42363126269099716,0.010911238603379015 l -0.06326322072326339 -3.684765447614501" fill="#ff3404" stroke="none" /><line stroke="#e1ed5e" stroke-width="0.3" x1="101.45913802915013" x2="101.54496967792366" y1="184.9874750549273" y2="189.98673829345242" /><path d="M 101.47630435890484 185.9873277026323 a86.0,86.0 0 0,1 -42.54439059252881,-10.42667462771756" fill="none" id="id67" stroke="none" /><text fill="#e1ed5e" style="font-size:6.75px; font-family:Arial;" text-anchor="middle"><textPath startOffset="22.145653131862474" xlink:href="#id67">July</textPath></text><path d="M 100.36049292484886 120.99690560180557 l 0.007045625024370687 0.41037233561367714 a21.410432813830727,21.410432813830727 0 0,0 -0.3675385498732229,0.003154876411485132 l -5.0263523172284184e-17 -0.4104328138307274" fill="#ff0600" stroke="none" /><path d="M 100.0 121.0 l 1.8586836546514242e-16 1.5177303822992165 a22.517730382299217,22.517730382299217 0 0,0 -0.3865467850701384,-0.0033180392494170873 l 0.02605386022128606 -1.5175067412442345" fill="#ff1502" stroke="none" /><path d="M 99.63950707515114 120.99690560180557 l -0.0026014515035749485 0.1515215081437198 a21.15154383847611,21.15154383847611 0 0,0 -0.3629873707731324,-0.009349267066266567 l 0.0052021363474512895 -0.1514545237274058" fill="#ff0200" stroke="none" /><path d="M 99.27912038922189 120.98762331915562 l -2.1626388323343173 62.962869957466836 a84.0,84.0 0 0,0 -1.440696957596645,-0.061869726296685634 l 3.2431615505318008 -62.916467662744324" fill="#4dd2ff" stroke="none" /><path d="M 98.91894614982273 120.97215588758144 l -0.13174424018646175 2.5558030638606835 a23.559196328158894,23.559196328158894 0 0,0 -0.4037099932337386,-0.024286190692591646 l 0.17559858555264665 -2.5531648953434" fill="#ff2403" stroke="none" /><path d="M 97.48249496171623 120.84855314841334 l -0.0020618759993977034 0.017075291093830748 a21.017199328433865,21.017199328433865 0 0,0 -0.35781499436461983,-0.04632631472625196 l 0.0023546922548115566 -0.017037380167181763" fill="#ff0000" stroke="none" /><path d="M 97.12497278360702 120.80226474461374 l -0.003440923291518501 0.024896806843407542 a21.025133462636415,21.025133462636415 0 0,0 -0.35710177416048444,-0.05248166332662632 l 0.0038678030596878557 -0.024834070217898803" fill="#ff0000" stroke="none" /><path d="M 96.76829788921471 120.74984581791261 l -0.0029602841678015366 0.01900714792186199 a21.019236292638595,21.019236292638595 0 0,0 -0.35604834371119376,-0.058587619465390935 l 0.003286130932058828 -0.01895352996080269" fill="#ff0000" stroke="none" /><path d="M 96.41257539226777 120.69131181640829 l -0.0055790689572221665 0.03217858716537639 a21.032658650957888,21.032658650957888 0 0,0 -0.3552168325986496,-0.06473233979474578 l 0.006130635106928948 -0.03207807343926466" fill="#ff0000" stroke="none" /><path d="M 95.70440661134978 120.55596938700252 l -0.015573046905025352 0.07452266694698616 a21.07613243512983,21.07613243512983 0 0,0 -0.3535145693316746,-0.07704685501074057 l 0.016850032855836358 -0.07424435380252681" fill="#ff0100" stroke="none" /><path d="M 95.35216902796893 120.47920084513623 l -0.09497423842294818 0.4184740184145419 a21.429116079927137,21.429116079927137 0 0,0 -0.3580375145819986,-0.08449587855574303 l 0.1021439067448347 -0.41678199621257145" fill="#ff0601" stroke="none" /><path d="M 95.00130118170881 120.39639698878247 l -0.6923932306518837 2.8252006608290072 a23.908808546432923,23.908808546432923 0 0,0 -0.397791007210071,-0.10111691848316773 l 0.7407895310873334 -2.8128985105105766" fill="#ff2904" stroke="none" /><path d="M 94.6519064749342 120.30758222061772 l -0.005645856170844986 0.021438235486692554 a21.022169204601987,21.022169204601987 0 0,0 -0.34818578295516467,-0.09489958345783113 l 0.006013040060704755 -0.021338157884717043" fill="#ff0000" stroke="none" /><path d="M 94.30408787586889 120.21278271476187 l -0.46750872714818936 1.6590235441075643 a22.7236367163248,22.7236367163248 0 0,0 -0.37455044436350154,-0.10902617559755212 l 0.4959191838932977 -1.6507536742074962" fill="#ff1802" stroke="none" /><path d="M 93.95794788825049 120.11202640906438 l -0.2596543507588124 0.8643048856752734 a21.902465133548176,21.902465133548176 0 0,0 -0.35915804913998856,-0.11126808170918182 l 0.2744530327704346 -0.8597202161594425" fill="#ff0d01" stroke="none" /><path d="M 93.61358852112213 120.00534299687104 l -0.03317273648985353 0.10391312458008785 a21.109079640200278,21.109079640200278 0 0,0 -0.3442561812357879,-0.11316384456881398 l 0.034951655373384974 -0.10332835860925231" fill="#ff0100" stroke="none" /><path d="M 93.27111125876986 119.89276391827306 l -0.04982617238020123 0.14730222511144087 a21.15550110281552,21.15550110281552 0 0,0 -0.34301552452399336,-0.11931860525782778 l 0.05234746894921639 -0.14642518728502263" fill="#ff0200" stroke="none" /><path d="M 92.59220618246901 119.65005319985036 l -7.240976800742365 19.207551243764694 a41.52709842648824,41.52709842648824 0 0,0 -0.6648839213879383,-0.2571913841262695 l 7.569632984623832 -19.080419971500387" fill="#f1ff19" stroke="none" /><path d="M 91.26138138417905 119.09545874513695 l -0.009914569881451441 0.021665124485953705 a21.02382595884589,21.02382595884589 0 0,0 -0.3268817358649871,-0.1529971576112484 l 0.010285019617928421 -0.02149173530417873" fill="#ff0000" stroke="none" /><path d="M 90.93487009805054 118.94263497670748 l -0.0881937444452789 0.1842910059012693 a21.20430690496256,21.20430690496256 0 0,0 -0.3269903553654122,-0.15994736850489136 l 0.09134434907276051 -0.18274988729915678" fill="#ff0300" stroke="none" /><path d="M 90.6110303473126 118.78422872680471 l -0.11984992758383714 0.2397801394513394 a21.26806439602669,21.26806439602669 0 0,0 -0.3251712630669872,-0.16603476385898278 l 0.12394841236440668 -0.23768742391952039" fill="#ff0400" stroke="none" /><path d="M 90.28995756902619 118.62028667847754 l -0.1770723625692212 0.33955960309264555 a21.382956062281668,21.382956062281668 0 0,0 -0.3240140843125031,-0.17251924973053104 l 0.1828752626682862 -0.33646988563954133" fill="#ff0500" stroke="none" /><path d="M 89.97174638481275 118.45085714620012 l -0.12510220288822368 0.23017396275956253 a21.26197445352539,21.26197445352539 0 0,0 -0.31918861989287395,-0.17704854689632682 l 0.12903501093720027 -0.2279925004300873" fill="#ff0400" stroke="none" /><line stroke="#e1ed5e" stroke-width="0.3" x1="58.13341422392154" x2="55.67067388415222" y1="173.97424548756322" y2="178.32567169271397" /><path d="M 57.64086615596768 174.84453072859336 a86.0,86.0 0 0,1 -31.369924170532247,-30.572349798747897" fill="none" id="id68" stroke="none" /><text fill="#e1ed5e" style="font-size:6.75px; font-family:Arial;" text-anchor="middle"><textPath startOffset="22.145653131862474" xlink:href="#id68">August</textPath></text><path d="M 88.72937992617639 117.7192867562869 l -0.06318555327131305 0.09933818458394787 a21.117730578265107,21.117730578265107 0 0,0 -0.30421032924050867,-0.19718546004877122 l 0.0648815147688314 -0.09823888283128199" fill="#ff0100" stroke="none" /><path d="M 87.83215693770417 117.11559508785305 l -0.025358080286390215 0.03566931560220443 a21.043764509723527,21.043764509723527 0 0,0 -0.292627564288472,-0.21183978975059126 l 0.0259666549488161 -0.035228754478547786" fill="#ff0000" stroke="none" /><path d="M 87.54013794807813 116.9041958592261 l -0.09130872488795286 0.12387782165887393 a21.15389281315127,21.15389281315127 0 0,0 -0.2904600840749614,-0.21796666209821125 l 0.0934217978736806 -0.12229213229664779" fill="#ff0200" stroke="none" /><path d="M 86.68645165197938 116.24036423190432 l -0.07645395734510005 0.09326139672144595 a21.12059392900209,21.12059392900209 0 0,0 -0.27841535606153767,-0.2322639922118074 l 0.0780436475685304 -0.09193522059776835" fill="#ff0100" stroke="none" /><path d="M 84.58840730492382 114.26474011684316 l -0.020673830894502754 0.01913538923357765 a21.02817038169736,21.02817038169736 0 0,0 -0.24292773722326022,-0.26702013788427276 l 0.020999268959642832 -0.018777675791630793" fill="#ff0000" stroke="none" /><path d="M 83.4222238831116 112.89097897827486 l -2.395809681087103 1.8629960989386383 a24.03490666951247,24.03490666951247 0 0,0 -0.25047579995699376,-0.3278808625248975 l 2.427437458398392 -1.8215943231728704" fill="#ff2b04" stroke="none" /><path d="M 83.20337586046588 112.60449989151573 l -4.055257671491199 3.0431409583114535 a26.070090894090654,26.070090894090654 0 0,0 -0.2655399900719983,-0.3602559949643781 l 4.106899681147028 -2.9730786540781957" fill="#ff4706" stroke="none" /><path d="M 82.98947788004972 112.3143062007846 l -1.869345994092308 1.3532623398704973 a23.30776372407158,23.30776372407158 0 0,0 -0.23183999661855476,-0.32611198936220626 l 1.8923010892408234 -1.320973123798787" fill="#ff2103" stroke="none" /><path d="M 82.78059297857968 112.02048342749411 l -1.4585452255952804 1.0181778437961906 a22.77877494267944,22.77877494267944 0 0,0 -0.22107371981390364,-0.32255316407664547 l 1.4758086822245091 -0.992989944649494" fill="#ff1902" stroke="none" /><path d="M 81.99639281039703 110.81064883170644 l -0.07986594805552719 0.04795720707227079 a21.09315827053451,21.09315827053451 0 0,0 -0.18373777067021116,-0.3120269035114573 l 0.08067742885550838 -0.0465791352672547" fill="#ff0100" stroke="none" /><line stroke="#e1ed5e" stroke-width="0.3" x1="26.387840678322732" x2="22.057713659400548" y1="142.50000000000003" y2="145.00000000000006" /><path d="M 25.521815274538298 143.00000000000003 a86.0,86.0 0 0,1 -11.493303480769221,-40.785679425670985" fill="none" id="id69" stroke="none" /><text fill="#e1ed5e" style="font-size:6.75px; font-family:Arial;" text-anchor="middle"><textPath startOffset="21.40746469413373" xlink:href="#id69">September</textPath></text><path d="M 81.1358732173502 109.22738970284198 l -19.00688585929693 9.297220320978637 a42.15892284038012,42.15892284038012 0 0,0 -0.31241918362051285,-0.6528359349568343 l 19.163684300877353 -8.969571883956698" fill="#eaff1a" stroke="none" /><path d="M 80.68587082218212 108.24405325689762 l -0.16997920959896126 0.07255401698921024 a21.18481617103803,21.18481617103803 0 0,0 -0.13989459481754776,-0.33569610072305184 l 0.17119964895299455 -0.06962540682487708" fill="#ff0200" stroke="none" /><path d="M 80.5471966667186 107.91128576633889 l -0.24637388240837443 0.10019811313057864 a21.265969456531955,21.265969456531955 0 0,0 -0.13462505512768022,-0.33934308251672607 l 0.24805761250217911 -0.09595401340028725" fill="#ff0400" stroke="none" /><path d="M 80.41425534168474 107.57618678355246 l -0.12055062362189181 0.04663157093929693 a21.129255391624078,21.129255391624078 0 0,0 -0.12795204569823695,-0.3394080028320803 l 0.12133335313456474 -0.044555287913071714" fill="#ff0200" stroke="none" /><path d="M 80.16572619554312 106.89939002012753 l -0.08461593721644046 0.029433815350661526 a21.089589097088393,21.089589097088393 0 0,0 -0.11600738065534116,-0.34295520774684113 l 0.08510873944414893 -0.027976933129658772" fill="#ff0100" stroke="none" /><path d="M 80.05021161711548 106.5578916946017 l -0.047769884526756054 0.01570290987441542 a21.05028462236334,21.05028462236334 0 0,0 -0.10989780654964221,-0.3442533137585466 l 0.048032406853653106 -0.014880562424477087" fill="#ff0000" stroke="none" /><path d="M 79.94057633289273 106.21446072829308 l -0.02449175177607153 0.00758760730643902 a21.025640157754925,21.025640157754925 0 0,0 -0.10385032244960977,-0.345683947947885 l 0.02461839422931097 -0.0071660557678305805" fill="#ff0000" stroke="none" /><path d="M 79.64726062577567 105.17358676015961 l -0.17736753223324891 0.04508613310335236 a21.183008198965855,21.183008198965855 0 0,0 -0.08656030139899495,-0.35319556848317923 l 0.1781153601485374 -0.0420347400120735" fill="#ff0200" stroke="none" /><path d="M 79.48165901384964 104.47187691870673 l -0.10293857171739661 0.02243498259524879 a21.105355009331625,21.105355009331625 0 0,0 -0.07411224725012053,-0.3546539320273434 l 0.10330852979188396 -0.020664599282496286" fill="#ff0100" stroke="none" /><path d="M 79.34024301695615 103.76489593502545 l -0.0452842557327407 0.008252299892432223 a21.04603003661505,21.04603003661505 0 0,0 -0.06172017146994554,-0.35598554754134 l 0.045419244694920556 -0.007473719430499548" fill="#ff0000" stroke="none" /><path d="M 79.2786578344484 103.40968896794605 l -0.13222859254783292 0.021758164584865188 a21.134006784952415,21.134006784952415 0 0,0 -0.05583253150328048,-0.35848490380671294 l 0.13258261618938091 -0.01948507884670228" fill="#ff0200" stroke="none" /><path d="M 79.22317932658666 103.0534771498775 l -0.1268821292576057 0.018647303574779922 a21.12824506483898,21.12824506483898 0 0,0 -0.04965689283405108,-0.35929253999370664 l 0.12718353864686932 -0.016466455380987673" fill="#ff0200" stroke="none" /><path d="M 79.17382384314188 102.69636545807758 l -0.10176308933050819 0.013175269281859404 a21.102612445983606,21.102612445983606 0 0,0 -0.04342908973268175,-0.3596551632310716 l 0.10197426532285127 -0.01142642912738851" fill="#ff0100" stroke="none" /><path d="M 79.0935383218832 101.97986365728391 l -0.14959139227573892 0.014166460378096617 a21.1502606842878,21.1502606842878 0 0,0 -0.031127520797606556,-0.36174897525305744 l 0.14981253577108627 -0.011596437749377157" fill="#ff0200" stroke="none" /><path d="M 79.03789590574601 101.26102812881392 l -0.019161167594835715 0.0011526882611287538 a21.01919580771483,21.01919580771483 0 0,0 -0.018575374528202782,-0.360357303395948 l 0.019178131579611166 -0.0008235914884499275" fill="#ff0000" stroke="none" /><path d="M 79.01933749520258 100.90099992219065 l -0.03952959765591639 0.001697571008735514 a21.03956603136743,21.03956603136743 0 0,0 -0.012398629289935887,-0.3609725636852965 l 0.03955291394270041 -0.0010187427593191334" fill="#ff0000" stroke="none" /><line stroke="#e1ed5e" stroke-width="0.3" x1="15.003131293944662" x2="10.003315487706104" y1="100.72959589197737" y2="100.7725132973878" /><path d="M 14.003168132696942 100.73817937305945 a86.0,86.0 0 0,1 10.791469493833604,-42.45332614584628" fill="none" id="id70" stroke="none" /><text fill="#e1ed5e" style="font-size:6.75px; font-family:Arial;" text-anchor="middle"><textPath startOffset="22.145653131862435" xlink:href="#id70">October</textPath></text><path d="M 79.00077361379809 100.18025310272382 l -0.11602839434559893 0.0009959642179294618 a21.116032668844344,21.116032668844344 0 0,0 0.0,-0.362498133883494 l 0.11602839434559893 0.000995964217929419" fill="#ff0100" stroke="none" /><path d="M 79.00077361379809 99.81974689727619 l -2.50870756319847 -0.02153423720363115 a23.508799984259635,23.508799984259635 0 0,0 0.006927896035041416,-0.4035152121996704 l 2.5079682355647623 0.06459636537235393" fill="#ff2303" stroke="none" /><path d="M 79.00696218219943 99.45929381324524 l -0.20727404330198104 -0.005338644103809717 a21.207342784170606,21.207342784170606 0 0,0 0.012497500234247427,-0.36385108335131383 l 0.20715185607088313 0.008895992019262068" fill="#ff0300" stroke="none" /><path d="M 79.01933749520258 99.09900007780938 l -1.462635139200712 -0.06281184620894488 a22.46398322341783,22.46398322341783 0 0,0 0.019852182052424023,-0.38512702826394046 l 1.4613413676917175 0.08791066784959736" fill="#ff1502" stroke="none" /><path d="M 79.03789590574601 98.7389718711861 l -14.348715213890388 -0.8631830762645504 a35.37465524151724,35.37465524151724 0 0,0 0.04166804027745959,-0.6058441607564453 l 14.331783212447865 1.1093706611753207" fill="#ffc212" stroke="none" /><path d="M 79.0935383218832 98.0201363427161 l -0.11145125860121256 -0.010554550064971458 a21.111949906524607,21.111949906524607 0 0,0 0.03726521300389667,-0.36050713153663844 l 0.11125365311565216 0.012466203884522643" fill="#ff0100" stroke="none" /><path d="M 79.13060592940154 97.66154086499901 l -0.35196130372932777 -0.03943799820389817 a21.35416396629976,21.35416396629976 0 0,0 0.04394678172821153,-0.3639423955977332 l 0.3512324357414479 0.04547407072506768" fill="#ff0500" stroke="none" /><path d="M 79.22317932658666 96.9465228501225 l -0.10351992889773735 -0.015213864643432632 a21.104631913661088,21.104631913661088 0 0,0 0.05575492797814365,-0.3579866335063218 l 0.10324350878132618 0.01698868008120442" fill="#ff0100" stroke="none" /><path d="M 79.2786578344484 96.59031103205396 l -0.17625592583105326 -0.029002845522253812 a21.178626191917505,21.178626191917505 0 0,0 0.06210902663299933,-0.35822836078759596 l 0.1757320817058196 0.032024239230442446" fill="#ff0200" stroke="none" /><path d="M 79.407916724674 95.88100663000787 l -0.7558877503652386 -0.15119871994415263 a21.770861429872433,21.770861429872433 0 0,0 0.07644919805544248,-0.36583708761652367 l 0.7531808414854293 0.1641522588460854" fill="#ff0b01" stroke="none" /><path d="M 79.56144815229197 95.17655741523228 l -0.30097372999149946 -0.07102898076901543 a21.309241495039203,21.309241495039203 0 0,0 0.08707612955956427,-0.35530032340509443 l 0.299710073915637 0.07618512878222754" fill="#ff0400" stroke="none" /><path d="M 79.83685265289637 94.1308016681162 l -0.07087599485607747 -0.020630969144787282 a21.073817637016447,21.073817637016447 0 0,0 0.10408828175636949,-0.3464760370880179 l 0.07051139309607833 0.02184460982352864" fill="#ff0100" stroke="none" /><path d="M 80.28708602549916 92.7611449362534 l -0.1048281801992985 -0.03849435979077508 a21.111672570936637,21.111672570936637 0 0,0 0.12784556973235908,-0.3391255626824835 l 0.10415192665250345 0.040288202667403517" fill="#ff0100" stroke="none" /><path d="M 80.41425534168474 92.42381321644754 l -3.135065621040432 -1.2127107310986096 a24.361443702570572,24.361443702570572 0 0,0 0.15422107645512978,-0.38873785733047467 l 3.113785869619171 1.266349605642667" fill="#ff2f04" stroke="none" /><path d="M 80.5471966667186 92.08871423366112 l -2.717622054472959 -1.10523323088641 a23.93377063275462,23.93377063275462 0 0,0 0.15804740140737517,-0.37925622824143473 l 2.6982488085291054 1.1517219685691085" fill="#ff2904" stroke="none" /><path d="M 80.68587082218212 91.75594674310238 l -0.6497495570898741 -0.27733944942475236 a21.706464193817148,21.706464193817148 0 0,0 0.1492227605142316,-0.34145087877475305 l 0.6448929145586652 0.28845239797537225" fill="#ff0a01" stroke="none" /><path d="M 80.83023694016515 91.42560881287825 l -0.9992580806189493 -0.4469554294111927 a22.09466244457477,22.09466244457477 0 0,0 0.15783536240333262,-0.3448987515990158 l 0.9914382533605699 0.4640431632248799" fill="#ff0f01" stroke="none" /><path d="M 80.9802524753101 91.09779779509293 l -0.035308155082629925 -0.016525999391935334 a21.038984284926638,21.038984284926638 0 0,0 0.15590963553286577,-0.3257911742241545 l 0.035019261589859164 0.017129675681177008" fill="#ff0000" stroke="none" /><path d="M 81.1358732173502 90.77261029715801 l -0.2329757373603259 -0.11396010770601475 a21.259354198629893,21.259354198629893 0 0,0 0.16317069308559243,-0.3264506898851971 l 0.23098513106298946 0.11794265375498211" fill="#ff0300" stroke="none" /><path d="M 81.29705330413844 90.45014215332179 l -0.4623265983646872 -0.23606725533244488 a21.519108497903527,21.519108497903527 0 0,0 0.17081246425968186,-0.3275554226855729 l 0.4582060651300654 0.24396892112250437" fill="#ff0701" stroke="none" /><path d="M 81.46374523516351 90.13048839642627 l -0.019250976802482497 -0.01025006083174136 a21.021809719276142,21.021809719276142 0 0,0 0.17233344298450518,-0.3170741247712848 l 0.01907218420262671 0.010579019077645807" fill="#ff0000" stroke="none" /><path d="M 81.63589988554816 89.8137432299009 l -0.02171945920801356 -0.012047417898054922 a21.024836972164476,21.024836972164476 0 0,0 0.17777664533912166,-0.3141142980850777 l 0.021509448847522903 0.012418486082237837" fill="#ff0000" stroke="none" /><line stroke="#e1ed5e" stroke-width="0.3" x1="26.387840678322718" x2="22.05771365940052" y1="57.49999999999999" y2="54.99999999999999" /><path d="M 25.521815274538284 56.99999999999999 a86.0,86.0 0 0,1 29.574782752854787,-30.34633250058573" fill="none" id="id71" stroke="none" /><text fill="#e1ed5e" style="font-size:6.75px; font-family:Arial;" text-anchor="middle"><textPath startOffset="21.40746469413373" xlink:href="#id71">November</textPath></text><path d="M 81.81346652052679 89.5 l -0.3266948020145383 -0.18861733188594526 a21.37723466377189,21.37723466377189 0 0,0 0.18621229641566026,-0.3162291892102322 l 0.3234087954690987 0.19419768938975024" fill="#ff0500" stroke="none" /><path d="M 81.99639281039701 89.18935116829357 l -0.09797888388255815 -0.058833504609485686 a21.114285795055668,21.114285795055668 0 0,0 0.18925642829875758,-0.30913615245325765 l 0.09695449112840757 0.06050677318728641" fill="#ff0100" stroke="none" /><path d="M 82.18462484594161 88.88188828441811 l -0.3368833921864231 -0.21024015251228673 a21.39710369131931,21.39710369131931 0 0,0 0.19714100070079293,-0.3099383973515164 l 0.33322469985974024 0.21599222454247508" fill="#ff0500" stroke="none" /><path d="M 82.37810715431573 88.57770195909679 l -0.25371958761687907 -0.16445797134016765 a21.30235749284217,21.30235749284217 0 0,0 0.20153608700960143,-0.30515132250769506 l 0.2508590616865486 0.16878917218692374" fill="#ff0400" stroke="none" /><path d="M 82.576782715395 88.27688183743585 l -0.26081507876398047 -0.17548802479954476 a21.31435736377363,21.31435736377363 0 0,0 0.2068611801868175,-0.30181664401383346 l 0.25776416176184963 0.17993940388341292" fill="#ff0400" stroke="none" /><path d="M 82.78059297857968 87.97951657250589 l -0.0716795928342215 -0.05003792271600628 a21.087417147852197,21.087417147852197 0 0,0 0.209754431104118,-0.2950458756150071 l 0.07081006320013117 0.051261025040533724" fill="#ff0100" stroke="none" /><path d="M 82.98947788004972 87.6856937992154 l -0.061766413952306816 -0.04471412041145172 a21.076252491478623,21.076252491478623 0 0,0 0.21467465917470407,-0.29124740463254745 l 0.06098973519378398 0.04576783431286249" fill="#ff0100" stroke="none" /><path d="M 83.2033758604659 87.39550010848427 l -0.5827242918756257 -0.43728717227422803 a21.728551763004894,21.728551763004894 0 0,0 0.22644050420420062,-0.29641788884113407 l 0.5751318103171184 0.4472259743562464" fill="#ff0a01" stroke="none" /><path d="M 83.42222388311158 87.10902102172516 l -0.30507667499642843 -0.23722946771699482 a21.386457757044887,21.386457757044887 0 0,0 0.22785088237700543,-0.28788214658227207 l 0.30095936197786133 0.24243155821394982" fill="#ff0500" stroke="none" /><path d="M 83.64595745247003 86.82634096563983 l -0.32437200773577657 -0.26129112834229207 a21.416521611867772,21.416521611867772 0 0,0 0.2330863873922383,-0.28432749330207857 l 0.31983880110490837 0.2668209033428635" fill="#ff0600" stroke="none" /><path d="M 83.8745106332314 86.54754324733833 l -0.25261580008077567 -0.21074108501965114 a21.32897803477696,21.32897803477696 0 0,0 0.23696031096908596,-0.27913865049335634 l 0.2489609256045752 0.21504651796256413" fill="#ff0400" stroke="none" /><path d="M 84.10781606972428 86.27271002978789 l -0.3258680316594578 -0.2814770444538916 a21.430603414538375,21.430603414538375 0 0,0 0.24286888120720676,-0.2763402039882009 l 0.3209880864936585 0.2870295262533927" fill="#ff0601" stroke="none" /><path d="M 84.34580500576568 86.00192230759919 l -0.23454753075451648 -0.2097338482925345 a21.31464397547488,21.31464397547488 0 0,0 0.24623722067558468,-0.2706578399345474 l 0.23091260923706594 0.21372926378473966" fill="#ff0400" stroke="none" /><path d="M 84.58840730492382 85.73525988315684 l -0.3494018767647517 -0.3234011608663142 a21.47609871070652,21.47609871070652 0 0,0 0.2527472624026236,-0.2684088339856952 l 0.34379878062585656 0.3293514547965206" fill="#ff0701" stroke="none" /><path d="M 85.08716467003674 85.21462403516908 l -0.21205759670672386 -0.21024514950606174 a21.298615885732588,21.298615885732588 0 0,0 0.2596484646093133,-0.25742926029809804 l 0.20841721196743404 0.2138544200328332" fill="#ff0400" stroke="none" /><path d="M 85.34317274990677 84.96080404539775 l -0.2573969923193165 -0.26411198955700504 a21.36879310552502,21.36879310552502 0 0,0 0.26489927567714455,-0.25376751383466384 l 0.2528252307768715 0.2684916336972374" fill="#ff0500" stroke="none" /><path d="M 85.60350026404147 84.71141617570332 l -0.07521032860171876 -0.07987076264157739 a21.109708396457727,21.109708396457727 0 0,0 0.26595239894983724,-0.24616157002919498 l 0.07382815833792827 0.08115007880313797" fill="#ff0100" stroke="none" /><path d="M 85.86807049272753 84.46653392183569 l -0.26778982927327344 -0.29434793224472044 a21.397934790988362,21.397934790988362 0 0,0 0.2738273062900508,-0.24485806578752373 l 0.2626974961598308 0.29890152791564506" fill="#ff0500" stroke="none" /><path d="M 86.40962598614128 83.9905735841838 l -0.2443103849913791 -0.2877970192101197 a21.377511176630396,21.377511176630396 0 0,0 0.2818020840681877,-0.2350893211681124 l 0.2393339667612824 0.291948524290114" fill="#ff0500" stroke="none" /><path d="M 86.68645165197937 83.75963576809568 l -0.2612752401505934 -0.3187133102239238 a21.412120037403717,21.412120037403717 0 0,0 0.2862588669315288,-0.23058987999806674 l 0.25576560286381905 0.32315148401538946" fill="#ff0600" stroke="none" /><path d="M 86.96720088162412 83.53348406188908 l -0.22244671796007556 -0.28105416138160466 a21.358432677027537,21.358432677027537 0 0,0 0.28944750181236506,-0.22507612811685868 l 0.21758927151246585 0.28483134111926817" fill="#ff0500" stroke="none" /><path d="M 87.54013794807813 83.09580414077388 l -0.20589849031145208 -0.27934084605751297 a21.34702376948656,21.34702376948656 0 0,0 0.2968445863184932,-0.21489258849285708 l 0.201072893618991 0.28283420592344943" fill="#ff0500" stroke="none" /><path d="M 87.83215693770416 82.88440491214696 l -0.4523130889934026 -0.6362350043892183 a21.7806293046542,21.7806293046542 0 0,0 0.30659337808477705,-0.2140259891448654 l 0.44132461973486015 0.6439058093392104" fill="#ff0b01" stroke="none" /><path d="M 88.12776184653039 82.6780497279521 l -0.012341834675278775 -0.018007105631429564 a21.02183063756223,21.02183063756223 0 0,0 0.2994146464138712,-0.20145953655836382 l 0.012030900164418214 0.018216316246902876" fill="#ff0000" stroke="none" /><path d="M 88.4268655584334 82.4767994020092 l -0.17998902787537102 -0.2725263286987743 a21.32659860683958,21.32659860683958 0 0,0 0.3072191663645841,-0.19913575192085695 l 0.17528422925376097 0.27557592232353756" fill="#ff0400" stroke="none" /><path d="M 88.72937992617638 82.28071324371311 l -0.010943353332293394 -0.017204769081040436 a21.02039021974593,21.02039021974593 0 0,0 0.3061328264779284,-0.19104952520817983 l 0.010646398064666432 0.017390091130756298" fill="#ff0000" stroke="none" /><path d="M 89.03521579738668 82.08984904055464 l -0.00982265472473485 -0.016044568291693394 a21.018812568073184,21.018812568073184 0 0,0 0.3093441171833493,-0.1857522541901884 l 0.009545780983951304 0.016210823017805194" fill="#ff0000" stroke="none" /><line stroke="#e1ed5e" stroke-width="0.3" x1="56.869717070023135" x2="54.33264160355391" y1="26.7553504044142" y2="22.446841604673864" /><path d="M 56.362301976729285 25.89364864446614 a86.0,86.0 0 0,1 42.16139366436587,-11.88097634709845" fill="none" id="id72" stroke="none" /><text fill="#e1ed5e" style="font-size:6.75px; font-family:Arial;" text-anchor="middle"><textPath startOffset="22.145653131862474" xlink:href="#id72">December</textPath></text><path d="M 89.34428304082924 81.90426304109057 l -0.14718015724887687 -0.24994408366434948 a21.29005869000362,21.29005869000362 0 0,0 0.31651984203396577,-0.182742816002167 l 0.14286784735451138 0.25243379694269047" fill="#ff0400" stroke="none" /><path d="M 89.65649057296885 81.72400993836675 l -0.15791567037154938 -0.2790218583592438 a21.320609663596002,21.320609663596002 0 0,0 0.3200688623097048,-0.17753680252671075 l 0.15310261990574192 0.28169157631910063" fill="#ff0400" stroke="none" /><path d="M 89.97174638481275 81.54914285379989 l -0.24384025849209293 -0.44863861132476 a21.510621851503537,21.510621851503537 0 0,0 0.3259485929778286,-0.17354926663318054 l 0.2361028497277025 0.45275834568051604" fill="#ff0701" stroke="none" /><path d="M 90.28995756902619 81.37971332152246 l -0.0439265331844331 -0.08423491931165242 a21.09500032604704,21.09500032604704 0 0,0 0.3225252553636576,-0.1646836934721137 l 0.042474056107193174 0.08497656445660005" fill="#ff0100" stroke="none" /><path d="M 90.93487009805054 81.0573650232925 l -0.1540321421681181 -0.32186793519015183 a21.35682610404015,21.35682610404015 0 0,0 0.3320592742310662,-0.1554205069958103 l 0.1484841540655294 0.324464673756505" fill="#ff0500" stroke="none" /><path d="M 91.26138138417902 80.90454125486306 l -0.14696371744550035 -0.3211422453466192 a21.35317230354555,21.35317230354555 0 0,0 0.33462108626721204,-0.14967175567893695 l 0.14142922832266952 0.3236177519354018" fill="#ff0500" stroke="none" /><path d="M 91.92203290615298 80.6158196554323 l -0.1023402402694628 -0.24557932099038865 a21.26605023524987,21.26605023524987 0 0,0 0.338176314483889,-0.1375333630558044 l 0.09810946459513288 0.24729994062548435" fill="#ff0400" stroke="none" /><path d="M 92.25597844496254 80.48000691201159 l -0.13537561394170583 -0.3412349810293754 a21.36710743540306,21.36710743540306 0 0,0 0.34210543762205986,-0.1323337325340489 l 0.1294979138261166 0.34350860170146486" fill="#ff0500" stroke="none" /><path d="M 92.592206182469 80.34994680014964 l -0.06452629241682806 -0.17116365682034815 a21.182922496782588,21.182922496782588 0 0,0 0.34135860821814634,-0.1253516092471056 l 0.06157853254455468 0.17224611507617563" fill="#ff0200" stroke="none" /><path d="M 92.93061703081487 80.22567764915836 l -0.11391302880491685 -0.3186350154416352 a21.338385063495718,21.338385063495718 0 0,0 0.345980807047685,-0.12035008444645284 l 0.1084264497122275 0.32054353245667383" fill="#ff0500" stroke="none" /><path d="M 93.27111125876988 80.10723608172694 l -0.11753641945694096 -0.3474755392713779 a21.366816112365164,21.366816112365164 0 0,0 0.3484594613022158,-0.11454554621439812 l 0.11155422050696416 0.3494420068878046" fill="#ff0500" stroke="none" /><path d="M 94.30408787586887 79.78721728523814 l -0.09453389541108996 -0.3354674449820208 a21.3485327302053,21.3485327302053 0 0,0 0.3535912736342947,-0.09637287397957724 l 0.08876122084211761 0.33704081310573775" fill="#ff0500" stroke="none" /><path d="M 94.6519064749342 79.69241777938228 l -0.09890917945027165 -0.3755742648564675 a21.388380038367064,21.388380038367064 0 0,0 0.355856512947116,-0.09045733402508853 l 0.09244737327777752 0.37721683071681905" fill="#ff0500" stroke="none" /><path d="M 95.35216902796891 79.52079915486377 l -0.1603035044510241 -0.7063268185927805 a21.72428916062763,21.72428916062763 0 0,0 0.36438624355271226,-0.07941628580680682 l 0.14815484427919343 0.7089745625333014" fill="#ff0a01" stroke="none" /><path d="M 96.05791012581881 79.37332000966035 l -0.022247204177954238 -0.11640677303272408 a21.118513606398707,21.118513606398707 0 0,0 0.35666682167711505,-0.06499657610652101 l 0.02024564894980067 0.11677152307060638" fill="#ff0100" stroke="none" /><path d="M 96.41257539226777 79.30868818359171 l -0.029263620368601105 -0.1687847857815995 a21.171302841156876,21.171302841156876 0 0,0 0.3586242242988522,-0.05901147963585415 l 0.026361893016676016 0.16926226391312202" fill="#ff0200" stroke="none" /><path d="M 96.76829788921471 79.25015418208739 l -0.12025064505565304 -0.7720954032495934 a21.781403563695132,21.781403563695132 0 0,0 0.3699466578951122,-0.054369418897749794 l 0.1069788815528559 0.7740458954462279" fill="#ff0b01" stroke="none" /><path d="M 97.12497278360702 79.19773525538626 l -0.09970236908913292 -0.7213966760493579 a21.72825388884444,21.72825388884444 0 0,0 0.3699206027071185,-0.04789362808891313 l 0.08730394449122039 0.7230019003386656" fill="#ff0a01" stroke="none" /><path d="M 97.48249496171623 79.15144685158666 l -0.027104667850852315 -0.22446553220954732 a21.226096081720627,21.226096081720627 0 0,0 0.362121341678688,-0.040576451647935254 l 0.02324742457136506 0.22489774436445342" fill="#ff0300" stroke="none" /><path d="M 97.84075906011542 79.11130261209362 l -0.05418235722423889 -0.5241651558723547 a21.52695809934478,21.52695809934478 0 0,0 0.36790641242130084,-0.034841119767152214 l 0.04517638141792249 0.5250180311446906" fill="#ff0701" stroke="none" /><path d="M 98.5590905019552 79.04949213459386 l -0.031672854875008136 -0.4605163586464814 a21.461604252923376,21.461604252923376 0 0,0 0.3677656906053325,-0.022123870704044056 l 0.02376281213719184 0.46099220717521955" fill="#ff0601" stroke="none" /><path d="M 98.9189461498227 79.02784411241856 l -0.008339302272744823 -0.16178023622873555 a21.16199502707374,21.16199502707374 0 0,0 0.3629526410974053,-0.015586748097819937 l 0.005560900574519405 0.1618995527523841" fill="#ff0200" stroke="none" /><path d="M 99.63950707515114 79.00309439819443 l -0.009170702150084002 -0.5341474244697635 a21.534226143918104,21.534226143918104 0 0,0 0.369663626998936,-0.003173117642775868 l 1.3084766743402795e-16 0.5342261439181044" fill="#ff0701" stroke="none" /></svg>