<?xml version="1.0" encoding="utf-8" ?>
<svg baseProfile="full" height="200mm" version="1.1" viewBox="0,0,200,200" width="200mm" xmlns="http://www.w3.org/2000/svg" xmlns:ev="http://www.w3.org/2001/xml-events" xmlns:xlink="http://www.w3.org/1999/xlink"><defs /><rect fill="#1a1a1a" height="200" width="200" x="0" y="0" /><text alignment-baseline="middle" fill="#e1ed5e" style="dominant-baseline: central; font-size:9.0px; font-family:Arial;" text-anchor="middle" x="100.0" y="100.0">2022</text><line stroke="#e1ed5e" stroke-width="0.3" x1="100.0" x2="100.0" y1="15.0" y2="10.0" /><path d="M 100.0 14.0 a86.0,86.0 0 0,1 42.46469731375804,11.215312516191453" fill="none" id="id37" stroke="none" /><text fill="#e1ed5e" style="font-size:6.75px; font-family:Arial;" text-anchor="middle"><textPath startOffset="22.20632615414155" xlink:href="#id37">January</textPath></text><path d="M 100.36148047927253 79.00311137660856 l 0.14066635771893282 -8.17072017838014 a29.17193093813098,29.17193093813098 0 0,0 0.5019980400464442,0.01296512833591933 l -0.2812910329602449 8.167088257901861" fill="#ff710a" stroke="none" /><path d="M 110.05341064243156 81.56283822128135 l 0.02840243697713988 -0.05208782810951948 a21.059328241701632,21.059328241701632 0 0,0 0.3167683091370724,0.17628122107700936 l -0.029294835186247377 0.051591209472330195" fill="#ff0000" stroke="none" /><line stroke="#e1ed5e" stroke-width="0.3" x1="143.23703022742887" x2="145.7803849466894" y1="26.81831364943548" y2="22.513508569990506" /><path d="M 143.74570117128098 25.957352633546492 a86.0,86.0 0 0,1 28.547481713284135,27.462654790039103" fill="none" id="id38" stroke="none" /><text fill="#e1ed5e" style="font-size:6.75px; font-family:Arial;" text-anchor="middle"><textPath startOffset="19.985693538727396" xlink:href="#id38">February</textPath></text><path d="M 110.68208982089419 81.91981866633111 l 0.19517595430924325 -0.33034890223265273 a21.383697863359757,21.383697863359757 0 0,0 0.3152954296684302,0.1899619685105877 l -0.200833450195311 0.32694032426345043" fill="#ff0500" stroke="none" /><path d="M 110.99172775467656 82.1063720568725 l 0.11765258662749298 -0.19152872584232647 a21.22477852202318,21.22477852202318 0 0,0 0.3096602682994497,0.1939092316008278 l -0.1209320072992059 0.18947515291855446" fill="#ff0200" stroke="none" /><path d="M 112.77801427241765 83.33499621200491 l 5.8992823650305315 -7.693806006454363 a30.69516288090682,30.69516288090682 0 0,0 0.4165296254827198,0.3251079795727046 l -6.030844545672681 7.591119637658434" fill="#ff850c" stroke="none" /><path d="M 117.45458315368197 88.32363383020206 l 2.04374838706155 -1.3671798585021304 a23.458879467381553,23.458879467381553 0 0,0 0.22163431509816145,0.3375642673508452 l -2.0669793375176364 1.3317975271736113" fill="#ff2203" stroke="none" /><line stroke="#e1ed5e" stroke-width="0.3" x1="172.23445277983987" x2="176.4835382374775" y1="55.19839476539836" y2="52.563006222186495" /><path d="M 173.08426987136738 54.67131705675599 a86.0,86.0 0 0,1 12.851231095245387,41.99856678651699" fill="none" id="id39" stroke="none" /><text fill="#e1ed5e" style="font-size:6.75px; font-family:Arial;" text-anchor="middle"><textPath startOffset="22.20632615414155" xlink:href="#id39">March</textPath></text><line stroke="#e1ed5e" stroke-width="0.3" x1="184.98032266829074" x2="189.97916517819016" y1="98.17113171792111" y2="98.06355123074" /><path d="M 185.9800911702706 98.14961562048488 a86.0,86.0 0 0,1 -9.607161424134198,41.387399972396054" fill="none" id="id40" stroke="none" /><text fill="#e1ed5e" style="font-size:6.75px; font-family:Arial;" text-anchor="middle"><textPath startOffset="21.466115282336823" xlink:href="#id40">April</textPath></text><line stroke="#e1ed5e" stroke-width="0.3" x1="174.80103733775053" x2="179.2010983576182" y1="140.37084112569926" y2="142.7455964860345" /><path d="M 175.68104954172406 140.8457921977663 a86.0,86.0 0 0,1 -30.038265399797805,32.042727171017184" fill="none" id="id41" stroke="none" /><text fill="#e1ed5e" style="font-size:6.75px; font-family:Arial;" text-anchor="middle"><textPath startOffset="22.206326154141568" xlink:href="#id41">May</textPath></text><line stroke="#e1ed5e" stroke-width="0.3" x1="143.8653032363475" x2="146.44561519142675" y1="172.8068346515853" y2="177.08958963109032" /><path d="M 144.38136562736335 173.6633856474863 a86.0,86.0 0 0,1 -40.68145358897372,12.25698825130547" fill="none" id="id42" stroke="none" /><text fill="#e1ed5e" style="font-size:6.75px; font-family:Arial;" text-anchor="middle"><textPath startOffset="21.466115282336833" xlink:href="#id42">June</textPath></text><path d="M 105.88484417918355 120.15858648285463 l 0.025165742976236583 0.08620547813079717 a21.08980366963162,21.08980366963162 0 0,0 -0.34935644606942623,0.09873162128643875 l -0.023678128802204584 -0.08662589275575495" fill="#ff0000" stroke="none" /><path d="M 101.62511606390274 120.93702456842531 l 0.9758294656354104 12.572003902008554 a33.60981860528218,33.60981860528218 0 0,0 -0.5771881996442813,0.03980627758193941 l -0.7592785052121988 -12.58693852410678" fill="#ffab0f" stroke="none" /><line stroke="#e1ed5e" stroke-width="0.3" x1="102.19456741930631" x2="102.32365962044197" y1="184.97166512339345" y2="189.96999836594603" /><path d="M 102.22038585953345 185.97133177190398 a86.0,86.0 0 0,1 -42.740103519485714,-10.115201625700543" fill="none" id="id43" stroke="none" /><text fill="#e1ed5e" style="font-size:6.75px; font-family:Arial;" text-anchor="middle"><textPath startOffset="22.20632615414155" xlink:href="#id43">July</textPath></text><path d="M 95.51606077576429 120.51570834832081 l -0.045324384824701684 0.20737610695183592 a21.212271405503042,21.212271405503042 0 0,0 -0.3560427740976078,-0.08103417620886133 l 0.04888730831517213 -0.20656519716528787" fill="#ff0200" stroke="none" /><line stroke="#e1ed5e" stroke-width="0.3" x1="58.666819895761336" x2="56.23545636021788" y1="174.27360380694188" y2="178.64263932499728" /><path d="M 58.180547188652646 175.14741091055294 a86.0,86.0 0 0,1 -31.652253787137756,-30.449443065178592" fill="none" id="id44" stroke="none" /><text fill="#e1ed5e" style="font-size:6.75px; font-family:Arial;" text-anchor="middle"><textPath startOffset="22.20632615414155" xlink:href="#id44">August</textPath></text><path d="M 87.65650970185807 116.9893568818739 l -0.5397320955464722 0.7428774982081845 a21.918247086740294,21.918247086740294 0 0,0 -0.303322477404107,-0.22439071736727403 l 0.5524395433691435 -0.7334768321011438" fill="#ff0c01" stroke="none" /><path d="M 86.79598089348748 116.32954008644616 l -0.09527457088183916 0.11782699736223479 a21.15152704433242,21.15152704433242 0 0,0 -0.28114395356990696,-0.23136233360511932 l 0.09728865299643494 -0.11616954489993475" fill="#ff0100" stroke="none" /><path d="M 85.18274418774928 114.88116024355367 l -0.09682959148597571 0.09724720187588953 a21.137233334361703,21.137233334361703 0 0,0 -0.2556189793166593,-0.25894067648634855 l 0.09848919585816825 -0.09556603140887629" fill="#ff0100" stroke="none" /><path d="M 84.9287848128048 114.62390073753433 l -45.21364556158558 43.871702212602976 a84.0,84.0 0 0,0 -0.99797379448417,-1.0463715336699995 l 45.9621259074487 -43.08692356235048" fill="#4dd2ff" stroke="none" /><path d="M 84.67929136418377 114.36230785411682 l -0.5304199344429321 0.497239035838109 a21.72704330381048,21.72704330381048 0 0,0 -0.25343415718574863,-0.2750527237711845 l 0.5389004996244097 -0.4880350572655804" fill="#ff0a01" stroke="none" /><path d="M 84.19399662182784 113.82643327865904 l -0.11122424056442241 0.09729433205469465 a21.14777353869723,21.14777353869723 0 0,0 -0.23731577334737528,-0.276051858509653 l 0.11288252348257645 -0.09536537438351128" fill="#ff0100" stroke="none" /><line stroke="#e1ed5e" stroke-width="0.3" x1="26.63291911575756" x2="22.317208475507996" y1="142.92168965132927" y2="145.44649492493687" /><path d="M 25.769776987707644 143.4266507060508 a86.0,86.0 0 0,1 -11.730757126820373,-40.83630448921669" fill="none" id="id45" stroke="none" /><text fill="#e1ed5e" style="font-size:6.75px; font-family:Arial;" text-anchor="middle"><textPath startOffset="21.46611528233685" xlink:href="#id45">September</textPath></text><path d="M 80.87730276802145 108.67885076344099 l -0.46301355396836336 0.21013905557328583 a21.508468262368112,21.508468262368112 0 0,0 -0.1501075132202078,-0.3384528150854094 l 0.466562151919851 -0.20213790399518056" fill="#ff0601" stroke="none" /><path d="M 80.73074385275274 108.34839909993369 l -0.2997875591370927 0.12988286469111865 a21.326714155116896,21.326714155116896 0 0,0 -0.1430403220543029,-0.3381050679083113 l 0.3019788623837022 -0.12470327111664851" fill="#ff0400" stroke="none" /><path d="M 80.58989483394504 108.01547362559985 l -0.13403801559613454 0.05535148674606185 a21.145017160053385,21.145017160053385 0 0,0 -0.13603031141932795,-0.33761607717812514 l 0.13497094127285025 -0.05303604172513132" fill="#ff0100" stroke="none" /><path d="M 80.45479744820244 107.68017299344265 l -1.7283140586737444 0.679130897847491 a22.856956720502783,22.856956720502783 0 0,0 -0.14073977404974267,-0.3674271391788672 l 1.7397481123169962 -0.6492801918354659" fill="#ff1a02" stroke="none" /><path d="M 80.20201598880116 107.00284435728193 l -0.1631587007991462 0.057711683502039805 a21.173064727946237,21.173064727946237 0 0,0 -0.11857840709709502,-0.34464435634615304 l 0.1641279388394697 -0.05489462406658988" fill="#ff0200" stroke="none" /><path d="M 80.0844068197444 106.66101706037122 l -0.1605452503679348 0.0536963494877263 a21.169286961588927,21.169286961588927 0 0,0 -0.11260825686048391,-0.3465725782895151 l 0.16144575824466803 -0.0509248712204078" fill="#ff0200" stroke="none" /><path d="M 79.86692584326677 105.97154293290107 l -0.10672399490348497 0.031654724587786696 a21.11131950717142,21.11131950717142 0 0,0 -0.10033643485074915,-0.3492842926190813 l 0.1072530666403382 -0.029812956464109447" fill="#ff0100" stroke="none" /><path d="M 79.76711848015287 105.62410040840567 l -0.4630330962909435 0.12870853928545692 a21.480588739303965,21.480588739303965 0 0,0 -0.09595882623549111,-0.3570984899818302 l 0.4651799988682095 -0.12071911612808779" fill="#ff0601" stroke="none" /><path d="M 79.10278846688536 102.07522291339032 l -0.061498538766810995 0.006107186912793191 a21.061801035609776,21.061801035609776 0 0,0 -0.032721417234222935,-0.3610781125479334 l 0.06159455227810927 -0.0050476858162935715" fill="#ff0000" stroke="none" /><path d="M 79.07016306316243 101.71520430193888 l -0.07122358028459894 0.005836786577568614 a21.071462342993417,21.071462342993417 0 0,0 -0.026513359479845403,-0.3617537251402874 l 0.07131349842877968 -0.004609924940520548" fill="#ff0000" stroke="none" /><path d="M 79.04373962182676 101.35467743843564 l -0.09903368054874565 0.0064018431849777865 a21.099240382300735,21.099240382300735 0 0,0 -0.020309173410830952,-0.3626339341814205 l 0.09912920484710823 -0.004696192668119724" fill="#ff0100" stroke="none" /><path d="M 79.0235259727143 100.99374915477108 l -0.16280953689448008 0.007713014087453655 a21.162992134442458,21.162992134442458 0 0,0 -0.014106512017571743,-0.36402639429640177 l 0.16291818176325268 -0.004909372777055109" fill="#ff0100" stroke="none" /><line stroke="#e1ed5e" stroke-width="0.3" x1="15.007084014347285" x2="10.007500721073583" y1="101.09737516637583" y2="101.16192664675087" /><path d="M 14.007167355692545 101.11028546245083 a86.0,86.0 0 0,1 10.666146001902534,-42.60595125391555" fill="none" id="id46" stroke="none" /><text fill="#e1ed5e" style="font-size:6.75px; font-family:Arial;" text-anchor="middle"><textPath startOffset="22.20632615414155" xlink:href="#id46">October</textPath></text><path d="M 79.00175016825051 100.2711162175752 l -0.09530205961343413 0.0012304803560558542 a21.09531000287729,21.09531000287729 0 0,0 -0.0015627633785833524,-0.363131172399778 l 0.0953091202815205 0.00041017024739753" fill="#ff0100" stroke="none" /><path d="M 79.00019446554 99.90962569577889 l -1.1992526320872254 -0.005161077421997047 a22.199263737585813,22.199263737585813 0 0,0 0.004933514564536583,-0.3821061399471543 l 1.1989861104049733 0.02580347542962334" fill="#ff1001" stroke="none" /><path d="M 79.01574976396665 99.18683210126434 l -0.162563600433583 -0.006299557996524694 a21.16268561281466,21.16268561281466 0 0,0 0.017238913853528857,-0.3638862251817339 l 0.16243107834655535 0.00909688980126769" fill="#ff0100" stroke="none" /><path d="M 79.08570108090925 98.10471618934814 l -0.06738793811476072 -0.006106791752198385 a21.06766407546744,21.06766407546744 0 0,0 0.03583797694937854,-0.3608835370878507 l 0.0672728354831535 0.007265859544479364" fill="#ff0000" stroke="none" /><path d="M 79.16333360222342 97.38593545837743 l -0.0707643083237653 -0.008877738198147673 a21.071319012668823,21.071319012668823 0 0,0 0.04824730110751671,-0.3594984338449262 l 0.07060100815841472 0.01009451410773327" fill="#ff0000" stroke="none" /><path d="M 79.32604984820605 96.31383870115002 l -0.10682282688359215 -0.01904648929696102 a21.10850753475193,21.10850753475193 0 0,0 0.06685795704844076,-0.3571578799592298 l 0.10647914592528976 0.02088244671876351" fill="#ff0100" stroke="none" /><line stroke="#e1ed5e" stroke-width="0.3" x1="26.266209847984243" x2="21.928928074336255" y1="57.711370442889674" y2="55.22380399835377" /><path d="M 25.398753493254645 57.213857153982495 a86.0,86.0 0 0,1 29.58750427330803,-30.492523968695096" fill="none" id="id47" stroke="none" /><text fill="#e1ed5e" style="font-size:6.75px; font-family:Arial;" text-anchor="middle"><textPath startOffset="21.46611528233685" xlink:href="#id47">November</textPath></text><line stroke="#e1ed5e" stroke-width="0.3" x1="56.762969772571076" x2="54.21961505331055" y1="26.818313649435495" y2="22.513508569990535" /><path d="M 56.25429882871897 25.957352633546506 a86.0,86.0 0 0,1 42.265352541879196,-11.944610805530505" fill="none" id="id48" stroke="none" /><text fill="#e1ed5e" style="font-size:6.75px; font-family:Arial;" text-anchor="middle"><textPath startOffset="22.20632615414155" xlink:href="#id48">December</textPath></text></svg>