<?xml version="1.0" encoding="utf-8" ?>
<svg baseProfile="full" height="200mm" version="1.1" viewBox="0,0,200,200" width="200mm" xmlns="http://www.w3.org/2000/svg" xmlns:ev="http://www.w3.org/2001/xml-events" xmlns:xlink="http://www.w3.org/1999/xlink"><defs /><rect fill="#1a1a1a" height="200" width="200" x="0" y="0" /><text alignment-baseline="middle" fill="#e1ed5e" style="dominant-baseline: central; font-size:9.0px; font-family:Arial;" text-anchor="middle" x="100.0" y="100.0">2023</text><line stroke="#e1ed5e" stroke-width="0.3" x1="100.0" x2="100.0" y1="15.0" y2="10.0" /><path d="M 100.0 14.0 a86.0,86.0 0 0,1 42.46469731375804,11.215312516191453" fill="none" id="id1" stroke="none" /><text fill="#e1ed5e" style="font-size:6.75px; font-family:Arial;" text-anchor="middle"><textPath startOffset="22.20632615414155" xlink:href="#id1">January</textPath></text><line stroke="#e1ed5e" stroke-width="0.3" x1="143.23703022742887" x2="145.7803849466894" y1="26.81831364943548" y2="22.513508569990506" /><path d="M 143.74570117128098 25.957352633546492 a86.0,86.0 0 0,1 28.547481713284135,27.462654790039103" fill="none" id="id2" stroke="none" /><text fill="#e1ed5e" style="font-size:6.75px; font-family:Arial;" text-anchor="middle"><textPath startOffset="19.985693538727396" xlink:href="#id2">February</textPath></text><line stroke="#e1ed5e" stroke-width="0.3" x1="172.23445277983987" x2="176.4835382374775" y1="55.19839476539836" y2="52.563006222186495" /><path d="M 173.08426987136738 54.67131705675599 a86.0,86.0 0 0,1 12.851231095245387,41.99856678651699" fill="none" id="id3" stroke="none" /><text fill="#e1ed5e" style="font-size:6.75px; font-family:Arial;" text-anchor="middle"><textPath startOffset="22.20632615414155" xlink:href="#id3">March</textPath></text><line stroke="#e1ed5e" stroke-width="0.3" x1="184.98032266829074" x2="189.97916517819016" y1="98.17113171792111" y2="98.06355123074" /><path d="M 185.9800911702706 98.14961562048488 a86.0,86.0 0 0,1 -9.607161424134198,41.387399972396054" fill="none" id="id4" stroke="none" /><text fill="#e1ed5e" style="font-size:6.75px; font-family:Arial;" text-anchor="middle"><textPath startOffset="21.466115282336823" xlink:href="#id4">April</textPath></text><line stroke="#e1ed5e" stroke-width="0.3" x1="174.80103733775053" x2="179.2010983576182" y1="140.37084112569926" y2="142.7455964860345" /><path d="M 175.68104954172406 140.8457921977663 a86.0,86.0 0 0,1 -30.038265399797805,32.042727171017184" fill="none" id="id5" stroke="none" /><text fill="#e1ed5e" style="font-size:6.75px; font-family:Arial;" text-anchor="middle"><textPath startOffset="22.206326154141568" xlink:href="#id5">May</textPath></text><line stroke="#e1ed5e" stroke-width="0.3" x1="143.8653032363475" x2="146.44561519142675" y1="172.8068346515853" y2="177.08958963109032" /><path d="M 144.38136562736335 173.6633856474863 a86.0,86.0 0 0,1 -40.68145358897372,12.25698825130547" fill="none" id="id6" stroke="none" /><text fill="#e1ed5e" style="font-size:6.75px; font-family:Arial;" text-anchor="middle"><textPath startOffset="21.466115282336833" xlink:href="#id6">June</textPath></text><line stroke="#e1ed5e" stroke-width="0.3" x1="102.19456741930631" x2="102.32365962044197" y1="184.97166512339345" y2="189.96999836594603" /><path d="M 102.22038585953345 185.97133177190398 a86.0,86.0 0 0,1 -42.740103519485714,-10.115201625700543" fill="none" id="id7" stroke="none" /><text fill="#e1ed5e" style="font-size:6.75px; font-family:Arial;" text-anchor="middle"><textPath startOffset="22.20632615414155" xlink:href="#id7">July</textPath></text><path d="M 93.08242187328487 119.8279376855182 l -2.341273418115205 6.710820259458733 a28.107507986146384,28.107507986146384 0 0,0 -0.4554492936728266,-0.16330791260136876 l 2.456442272417758 -6.669524805817407" fill="#ff6008" stroke="none" /><path d="M 92.7421414339146 119.70592522655815 l -1.1859229672473988 3.2199179832791787 a24.43136781812873,24.43136781812873 0 0,0 -0.39337966699372356,-0.14874252989696404 l 1.2411728550014054 -3.1990272032755813" fill="#ff2d04" stroke="none" /><path d="M 92.40401165467489 119.57807347666478 l -2.2925188297697883 5.908790279212762 a27.33793697890475,27.33793697890475 0 0,0 -0.4372493740814297,-0.1739905497456525 l 2.3938892798930764 -5.868452885061043" fill="#ff5607" stroke="none" /><path d="M 92.06813273071674 119.44442032107085 l -1.3599654020682543 3.3338604898665642 a24.60057379603807,24.60057379603807 0 0,0 -0.390713974938931,-0.16331847321231535 l 1.4171508365046475 -3.3099569736342755" fill="#ff3004" stroke="none" /><path d="M 91.7346041902142 119.30500536409082 l -0.12010074884490864 0.2805123498063153 a21.30514155447426,21.30514155447426 0 0,0 -0.3358900901036484,-0.14724434460159766 l 0.12491151360630035 -0.27840345191026544" fill="#ff0100" stroke="none" /><path d="M 91.40352486487194 119.15986991738527 l -0.10490849831467218 0.23382062407459173 a21.25627695421413,21.25627695421413 0 0,0 -0.33254129858527526,-0.15265340005977768 l 0.10891779266736691 -0.23198015368073965" fill="#ff0000" stroke="none" /><path d="M 91.07499286063937 119.00905698771935 l -11.827011826353516 25.189934113340136 a48.82824086023267,48.82824086023267 0 0,0 -0.7577383400087043,-0.3637604508872729 l 12.258862834362462 -24.982619385953303" fill="#a0ff22" stroke="none" /><line stroke="#e1ed5e" stroke-width="0.3" x1="58.666819895761336" x2="56.23545636021788" y1="174.27360380694188" y2="178.64263932499728" /><path d="M 58.180547188652646 175.14741091055294 a86.0,86.0 0 0,1 -31.652253787137756,-30.449443065178592" fill="none" id="id8" stroke="none" /><text fill="#e1ed5e" style="font-size:6.75px; font-family:Arial;" text-anchor="middle"><textPath startOffset="22.20632615414155" xlink:href="#id8">August</textPath></text><path d="M 85.97065885151581 115.62618273729859 l -13.41457314038861 14.941440871385334 a41.07977658869589,41.07977658869589 0 0,0 -0.5221052799678043,-0.4769307942538805 l 13.669777969823269 -14.708317310544878" fill="#f9ff18" stroke="none" /><path d="M 84.9287848128048 114.62390073753433 l -45.21364556158558 43.871702212602976 a84.0,84.0 0 0,0 -0.99797379448417,-1.0463715336699995 l 45.9621259074487 -43.08692356235048" fill="#4dd2ff" stroke="none" /><path d="M 84.67929136418377 114.36230785411682 l -0.6612495063227212 0.6198844455528489 a21.9063705839503,21.9063705839503 0 0,0 -0.255525912491206,-0.27732291102856826 l 0.6718218268096562 -0.6084102797229366" fill="#ff0901" stroke="none" /><line stroke="#e1ed5e" stroke-width="0.3" x1="26.63291911575756" x2="22.317208475507996" y1="142.92168965132927" y2="145.44649492493687" /><path d="M 25.769776987707644 143.4266507060508 a86.0,86.0 0 0,1 -11.730757126820373,-40.83630448921669" fill="none" id="id9" stroke="none" /><text fill="#e1ed5e" style="font-size:6.75px; font-family:Arial;" text-anchor="middle"><textPath startOffset="21.46611528233685" xlink:href="#id9">September</textPath></text><path d="M 81.69416730710424 110.29060199501025 l -3.787165696127673 2.1289506750015468 a25.344543127477934,25.344543127477934 0 0,0 -0.21050886729074245,-0.38213474056654134 l 3.823250972869932 -2.063445416037183" fill="#ff3a05" stroke="none" /><path d="M 81.51974371655577 109.97397251340807 l -3.061594741370589 1.652372203570641 a24.47903668556699,24.47903668556699 0 0,0 -0.19693675471893052,-0.37253012237443284 l 3.089584004314405 -1.599427066110082" fill="#ff2e04" stroke="none" /><path d="M 81.35079622478065 109.6543875284942 l -0.38846321725921973 0.20110104888067964 a21.437430340767868,21.437430340767868 0 0,0 -0.16682539917393002,-0.32916233929988925 l 0.39186728621941647 -0.19438449787810544" fill="#ff0300" stroke="none" /><path d="M 81.18737489456691 109.33194174019688 l -46.28101881656812 22.95754945695691 a72.66218907255242,72.66218907255242 0 0,0 -0.5461661863022835,-1.1252641128634595 l 46.66933825948512 -22.157496388128166" fill="#3fffbf" stroke="none" /><line stroke="#e1ed5e" stroke-width="0.3" x1="15.007084014347285" x2="10.007500721073583" y1="101.09737516637583" y2="101.16192664675087" /><path d="M 14.007167355692545 101.11028546245083 a86.0,86.0 0 0,1 10.666146001902534,-42.60595125391555" fill="none" id="id10" stroke="none" /><text fill="#e1ed5e" style="font-size:6.75px; font-family:Arial;" text-anchor="middle"><textPath startOffset="22.20632615414155" xlink:href="#id10">October</textPath></text><path d="M 79.00175016825051 100.2711162175752 l -1.200525850126388 0.01550043599802265 a22.200625911905043,22.200625911905043 0 0,0 -0.001644646376470491,-0.3821578973856933 l 1.2006147937923615 0.005166939591346011" fill="#ff0e01" stroke="none" /><path d="M 79.00019446554 99.90962569577889 l -2.5372909478456296 -0.010919429879567788 a23.53731444404675,23.53731444404675 0 0,0 0.005230879951355101,-0.4051374168644019 l 2.536727060776559 0.05459310480444166" fill="#ff2103" stroke="none" /><line stroke="#e1ed5e" stroke-width="0.3" x1="26.266209847984243" x2="21.928928074336255" y1="57.711370442889674" y2="55.22380399835377" /><path d="M 25.398753493254645 57.213857153982495 a86.0,86.0 0 0,1 29.58750427330803,-30.492523968695096" fill="none" id="id11" stroke="none" /><text fill="#e1ed5e" style="font-size:6.75px; font-family:Arial;" text-anchor="middle"><textPath startOffset="21.46611528233685" xlink:href="#id11">November</textPath></text><line stroke="#e1ed5e" stroke-width="0.3" x1="56.762969772571076" x2="54.21961505331055" y1="26.818313649435495" y2="22.513508569990535" /><path d="M 56.25429882871897 25.957352633546506 a86.0,86.0 0 0,1 42.265352541879196,-11.944610805530505" fill="none" id="id12" stroke="none" /><text fill="#e1ed5e" style="font-size:6.75px; font-family:Arial;" text-anchor="middle"><textPath startOffset="22.20632615414155" xlink:href="#id12">December</textPath></text></svg>