<?xml version="1.0" encoding="utf-8" ?>
<svg baseProfile="full" height="200mm" version="1.1" viewBox="0,0,200,200" width="200mm" xmlns="http://www.w3.org/2000/svg" xmlns:ev="http://www.w3.org/2001/xml-events" xmlns:xlink="http://www.w3.org/1999/xlink"><defs /><rect fill="#1a1a1a" height="200" width="200" x="0" y="0" /><text alignment-baseline="middle" fill="#e1ed5e" style="dominant-baseline: central; font-size:9.0px; font-family:Arial;" text-anchor="middle" x="100.0" y="100.0">2019</text><line stroke="#e1ed5e" stroke-width="0.3" x1="100.0" x2="100.0" y1="15.0" y2="10.0" /><path d="M 100.0 14.0 a86.0,86.0 0 0,1 42.46469731375804,11.215312516191453" fill="none" id="id25" stroke="none" /><text fill="#e1ed5e" style="font-size:6.75px; font-family:Arial;" text-anchor="middle"><textPath startOffset="22.20632615414155" xlink:href="#id25">January</textPath></text><line stroke="#e1ed5e" stroke-width="0.3" x1="143.23703022742887" x2="145.7803849466894" y1="26.81831364943548" y2="22.513508569990506" /><path d="M 143.74570117128098 25.957352633546492 a86.0,86.0 0 0,1 28.547481713284135,27.462654790039103" fill="none" id="id26" stroke="none" /><text fill="#e1ed5e" style="font-size:6.75px; font-family:Arial;" text-anchor="middle"><textPath startOffset="19.985693538727396" xlink:href="#id26">February</textPath></text><line stroke="#e1ed5e" stroke-width="0.3" x1="172.23445277983987" x2="176.4835382374775" y1="55.19839476539836" y2="52.563006222186495" /><path d="M 173.08426987136738 54.67131705675599 a86.0,86.0 0 0,1 12.851231095245387,41.99856678651699" fill="none" id="id27" stroke="none" /><text fill="#e1ed5e" style="font-size:6.75px; font-family:Arial;" text-anchor="middle"><textPath startOffset="22.20632615414155" xlink:href="#id27">March</textPath></text><line stroke="#e1ed5e" stroke-width="0.3" x1="184.98032266829074" x2="189.97916517819016" y1="98.17113171792111" y2="98.06355123074" /><path d="M 185.9800911702706 98.14961562048488 a86.0,86.0 0 0,1 -9.607161424134198,41.387399972396054" fill="none" id="id28" stroke="none" /><text fill="#e1ed5e" style="font-size:6.75px; font-family:Arial;" text-anchor="middle"><textPath startOffset="21.466115282336823" xlink:href="#id28">April</textPath></text><path d="M 120.70491114924044 103.5080841355445 l 5.924973330046982 1.0038828369193264 a27.00941675306591,27.00941675306591 0 0,0 -0.08161159920597857,0.4577211893356304 l -5.906815288501815 -1.1057227769881752" fill="#ff5307" stroke="none" /><line stroke="#e1ed5e" stroke-width="0.3" x1="174.80103733775053" x2="179.2010983576182" y1="140.37084112569926" y2="142.7455964860345" /><path d="M 175.68104954172406 140.8457921977663 a86.0,86.0 0 0,1 -30.038265399797805,32.042727171017184" fill="none" id="id29" stroke="none" /><text fill="#e1ed5e" style="font-size:6.75px; font-family:Arial;" text-anchor="middle"><textPath startOffset="22.206326154141568" xlink:href="#id29">May</textPath></text><path d="M 118.48025628344425 109.97397251340804 l 4.457367118606314 2.405684014402772 a26.065119663659072,26.065119663659072 0 0,0 -0.21649389332435603,0.39299930128588334 l -4.415296815830448 -2.48205383408646" fill="#ff4606" stroke="none" /><line stroke="#e1ed5e" stroke-width="0.3" x1="143.8653032363475" x2="146.44561519142675" y1="172.8068346515853" y2="177.08958963109032" /><path d="M 144.38136562736335 173.6633856474863 a86.0,86.0 0 0,1 -40.68145358897372,12.25698825130547" fill="none" id="id30" stroke="none" /><text fill="#e1ed5e" style="font-size:6.75px; font-family:Arial;" text-anchor="middle"><textPath startOffset="21.466115282336833" xlink:href="#id30">June</textPath></text><line stroke="#e1ed5e" stroke-width="0.3" x1="102.19456741930631" x2="102.32365962044197" y1="184.97166512339345" y2="189.96999836594603" /><path d="M 102.22038585953345 185.97133177190398 a86.0,86.0 0 0,1 -42.740103519485714,-10.115201625700543" fill="none" id="id31" stroke="none" /><text fill="#e1ed5e" style="font-size:6.75px; font-family:Arial;" text-anchor="middle"><textPath startOffset="22.20632615414155" xlink:href="#id31">July</textPath></text><path d="M 97.2962882734958 120.8252237178851 l -0.012516630976426503 0.09640881375150114 a21.09721792746182,21.09721792746182 0 0,0 -0.3597290735868904,-0.04985517174035706 l 0.014174295750147945 -0.09617907651853917" fill="#ff0000" stroke="none" /><path d="M 93.42475214034765 119.94407469862007 l -0.21805595702372602 0.6614084196044614 a21.696426232932968,21.696426232932968 0 0,0 -0.35368301841084393,-0.11998848274657348 l 0.22940870837179575 -0.6575569499597649" fill="#ff0901" stroke="none" /><path d="M 93.08242187328487 119.8279376855182 l -0.305206685243064 0.8748176060104293 a21.926529527053983,21.926529527053983 0 0,0 -0.3552937667300572,-0.12739570400265846 l 0.3202200126028478 -0.8694343609678131" fill="#ff0c01" stroke="none" /><path d="M 92.7421414339146 119.70592522655815 l -7.885012060945156 21.40871948229504 a43.81461560212772,43.81461560212772 0 0,0 -0.7054774429057385,-0.26675120360177335 l 8.252359724611178 -21.269820028586633" fill="#d7ff1c" stroke="none" /><path d="M 92.40401165467489 119.57807347666478 l -2.817400143165213 7.261631338600157 a28.7890328837698,28.7890328837698 0 0,0 -0.4604585422283887,-0.1832259567339691 l 2.94197976143546 -7.212058537460122" fill="#ff6b09" stroke="none" /><path d="M 92.06813273071674 119.44442032107085 l -3.3443565937204656 8.198457324629649 a29.854344895571614,29.854344895571614 0 0,0 -0.47415600384187556,-0.19819724806109523 l 3.4849840570598034 -8.139675033548581" fill="#ff790b" stroke="none" /><line stroke="#e1ed5e" stroke-width="0.3" x1="58.666819895761336" x2="56.23545636021788" y1="174.27360380694188" y2="178.64263932499728" /><path d="M 58.180547188652646 175.14741091055294 a86.0,86.0 0 0,1 -31.652253787137756,-30.449443065178592" fill="none" id="id32" stroke="none" /><text fill="#e1ed5e" style="font-size:6.75px; font-family:Arial;" text-anchor="middle"><textPath startOffset="22.20632615414155" xlink:href="#id32">August</textPath></text><path d="M 89.4739219176387 118.17145234162733 l -3.820159595970384 6.594844489317508 a28.62139050154013,28.62139050154013 0 0,0 -0.42418553809154175,-0.2506162927791103 l 3.933113005090308 -6.528109624244649" fill="#ff6909" stroke="none" /><path d="M 89.1626897886671 117.98757091392108 l -1.4335384611563995 2.3793611352860378 a23.777839435914956,23.777839435914956 0 0,0 -0.3487651965205536,-0.21424006929419626 l 1.4742828576092617 -2.3543325991634636" fill="#ff2603" stroke="none" /><path d="M 88.54995079064634 117.60387380957326 l -1.88012709198415 2.8906006837255496 a24.448253209201347,24.448253209201347 0 0,0 -0.3508036792163948,-0.2324935498446683 l 1.9296054699405065 -2.8578091127895626" fill="#ff3004" stroke="none" /><path d="M 88.24862548938628 117.40417183066458 l -0.11702937657271482 0.1733243525910493 a21.209134421322997,21.209134421322997 0 0,0 -0.30080927002374924,-0.2068993588476996 l 0.11999553121935437 -0.1712842043782486" fill="#ff0200" stroke="none" /><path d="M 87.95078237400918 117.19931262002967 l -0.2762013634967256 0.3942557719773943 a21.481378029136085,21.481378029136085 0 0,0 -0.3010182149581946,-0.21476850384336366 l 0.28294690630380714 -0.3894430062898114" fill="#ff0600" stroke="none" /><path d="M 87.36589467227662 116.77436683061367 l -37.902315983170105 50.323100491841 a84.0,84.0 0 0,0 -1.147485086026053,-0.8798426326905329 l 38.76292979768965 -49.663218517323095" fill="#4dd2ff" stroke="none" /><line stroke="#e1ed5e" stroke-width="0.3" x1="26.63291911575756" x2="22.317208475507996" y1="142.92168965132927" y2="145.44649492493687" /><path d="M 25.769776987707644 143.4266507060508 a86.0,86.0 0 0,1 -11.730757126820373,-40.83630448921669" fill="none" id="id33" stroke="none" /><text fill="#e1ed5e" style="font-size:6.75px; font-family:Arial;" text-anchor="middle"><textPath startOffset="21.46611528233685" xlink:href="#id33">September</textPath></text><line stroke="#e1ed5e" stroke-width="0.3" x1="15.007084014347285" x2="10.007500721073583" y1="101.09737516637583" y2="101.16192664675087" /><path d="M 14.007167355692545 101.11028546245083 a86.0,86.0 0 0,1 10.666146001902534,-42.60595125391555" fill="none" id="id34" stroke="none" /><text fill="#e1ed5e" style="font-size:6.75px; font-family:Arial;" text-anchor="middle"><textPath startOffset="22.20632615414155" xlink:href="#id34">October</textPath></text><line stroke="#e1ed5e" stroke-width="0.3" x1="26.266209847984243" x2="21.928928074336255" y1="57.711370442889674" y2="55.22380399835377" /><path d="M 25.398753493254645 57.213857153982495 a86.0,86.0 0 0,1 29.58750427330803,-30.492523968695096" fill="none" id="id35" stroke="none" /><text fill="#e1ed5e" style="font-size:6.75px; font-family:Arial;" text-anchor="middle"><textPath startOffset="21.46611528233685" xlink:href="#id35">November</textPath></text><line stroke="#e1ed5e" stroke-width="0.3" x1="56.762969772571076" x2="54.21961505331055" y1="26.818313649435495" y2="22.513508569990535" /><path d="M 56.25429882871897 25.957352633546506 a86.0,86.0 0 0,1 42.265352541879196,-11.944610805530505" fill="none" id="id36" stroke="none" /><text fill="#e1ed5e" style="font-size:6.75px; font-family:Arial;" text-anchor="middle"><textPath startOffset="22.20632615414155" xlink:href="#id36">December</textPath></text></svg>