<?xml version="1.0" encoding="utf-8" ?>
<svg baseProfile="full" height="200mm" version="1.1" viewBox="0,0,200,200" width="200mm" xmlns="http://www.w3.org/2000/svg" xmlns:ev="http://www.w3.org/2001/xml-events" xmlns:xlink="http://www.w3.org/1999/xlink"><defs /><rect fill="#1a1a1a" height="200" width="200" x="0" y="0" /><text alignment-baseline="middle" fill="#e1ed5e" style="dominant-baseline: central; font-size:9.0px; font-family:Arial;" text-anchor="middle" x="100.0" y="100.0">2024</text><line stroke="#e1ed5e" stroke-width="0.3" x1="100.0" x2="100.0" y1="15.0" y2="10.0" /><path d="M 100.0 14.0 a86.0,86.0 0 0,1 42.35913384403234,11.155469271406648" fill="none" id="id25" stroke="none" /><text fill="#e1ed5e" style="font-size:6.75px; font-family:Arial;" text-anchor="middle"><textPath startOffset="22.145653131862478" xlink:href="#id25">January</textPath></text><line stroke="#e1ed5e" stroke-width="0.3" x1="143.13028292997686" x2="145.6673583964461" y1="26.7553504044142" y2="22.446841604673864" /><path d="M 143.63769802327073 25.89364864446614 a86.0,86.0 0 0,1 29.32050498858742,28.57503671076993" fill="none" id="id26" stroke="none" /><text fill="#e1ed5e" style="font-size:6.75px; font-family:Arial;" text-anchor="middle"><textPath startOffset="20.669276256404974" xlink:href="#id26">February</textPath></text><line stroke="#e1ed5e" stroke-width="0.3" x1="172.87174338648825" x2="177.1583165268699" y1="56.24261187166439" y2="53.66864786411523" /><path d="M 173.72905801456457 55.72781907015455 a86.0,86.0 0 0,1 12.242430191666344,42.057860355516425" fill="none" id="id27" stroke="none" /><text fill="#e1ed5e" style="font-size:6.75px; font-family:Arial;" text-anchor="middle"><textPath startOffset="22.145653131862474" xlink:href="#id27">March</textPath></text><line stroke="#e1ed5e" stroke-width="0.3" x1="184.99686870605535" x2="189.99668451229388" y1="99.2704041080226" y2="99.22748670261217" /><path d="M 185.99683186730306 99.26182062694052 a86.0,86.0 0 0,1 -10.086455211305974,41.156179273409016" fill="none" id="id28" stroke="none" /><text fill="#e1ed5e" style="font-size:6.75px; font-family:Arial;" text-anchor="middle"><textPath startOffset="21.40746469413373" xlink:href="#id28">April</textPath></text><path d="M 119.83427380445688 106.89939002012753 l 59.50282141337066 20.698170060382587 a84.0,84.0 0 0,0 -0.48543931982422706,1.3578601744763141 l -59.13874192350249 -21.716565191239823" fill="#4dd2ff" stroke="none" /><line stroke="#e1ed5e" stroke-width="0.3" x1="174.33088141563837" x2="178.70328620479359" y1="141.23008692659167" y2="143.65538615756765" /><path d="M 175.20536237346943 141.71514677278685 a86.0,86.0 0 0,1 -30.301960400862466,31.631185727798858" fill="none" id="id29" stroke="none" /><text fill="#e1ed5e" style="font-size:6.75px; font-family:Arial;" text-anchor="middle"><textPath startOffset="22.145653131862474" xlink:href="#id29">May</textPath></text><path d="M 112.45986205192187 116.90419585922612 l 2.5200384046500184 3.4189160832968373 a25.247302761228212,25.247302761228212 0 0,0 -0.3510805639579235,0.25415525374447745 l -2.4609768303181268 -3.4616721084143918" fill="#ff3905" stroke="none" /><line stroke="#e1ed5e" stroke-width="0.3" x1="143.1302829299769" x2="145.66735839644613" y1="173.24464959558577" y2="177.55315839532614" /><path d="M 143.63769802327073 174.10635135553383 a86.0,86.0 0 0,1 -40.68552437913181,11.842963189579606" fill="none" id="id30" stroke="none" /><text fill="#e1ed5e" style="font-size:6.75px; font-family:Arial;" text-anchor="middle"><textPath startOffset="21.407464694133747" xlink:href="#id30">June</textPath></text><line stroke="#e1ed5e" stroke-width="0.3" x1="101.45913802915013" x2="101.54496967792366" y1="184.9874750549273" y2="189.98673829345242" /><path d="M 101.47630435890484 185.9873277026323 a86.0,86.0 0 0,1 -42.54439059252881,-10.42667462771756" fill="none" id="id31" stroke="none" /><text fill="#e1ed5e" style="font-size:6.75px; font-family:Arial;" text-anchor="middle"><textPath startOffset="22.145653131862474" xlink:href="#id31">July</textPath></text><line stroke="#e1ed5e" stroke-width="0.3" x1="58.13341422392154" x2="55.67067388415222" y1="173.97424548756322" y2="178.32567169271397" /><path d="M 57.64086615596768 174.84453072859336 a86.0,86.0 0 0,1 -31.369924170532247,-30.572349798747897" fill="none" id="id32" stroke="none" /><text fill="#e1ed5e" style="font-size:6.75px; font-family:Arial;" text-anchor="middle"><textPath startOffset="22.145653131862474" xlink:href="#id32">August</textPath></text><line stroke="#e1ed5e" stroke-width="0.3" x1="26.387840678322732" x2="22.057713659400548" y1="142.50000000000003" y2="145.00000000000006" /><path d="M 25.521815274538298 143.00000000000003 a86.0,86.0 0 0,1 -11.493303480769221,-40.785679425670985" fill="none" id="id33" stroke="none" /><text fill="#e1ed5e" style="font-size:6.75px; font-family:Arial;" text-anchor="middle"><textPath startOffset="21.40746469413373" xlink:href="#id33">September</textPath></text><line stroke="#e1ed5e" stroke-width="0.3" x1="15.003131293944662" x2="10.003315487706104" y1="100.72959589197737" y2="100.7725132973878" /><path d="M 14.003168132696942 100.73817937305945 a86.0,86.0 0 0,1 10.791469493833604,-42.45332614584628" fill="none" id="id34" stroke="none" /><text fill="#e1ed5e" style="font-size:6.75px; font-family:Arial;" text-anchor="middle"><textPath startOffset="22.145653131862435" xlink:href="#id34">October</textPath></text><path d="M 79.01933749520258 99.09900007780938 l -6.057836885378985 -0.26014958112604414 a27.063420283504865,27.063420283504865 0 0,0 0.023916860206222135,-0.46398069856012253 l 6.052478435716193 0.3641020730628787" fill="#ff5207" stroke="none" /><path d="M 79.03789590574601 98.7389718711861 l -16.416333884786805 -0.987565881155588 a37.446011814005914,37.446011814005914 0 0,0 0.04410790487832056,-0.6413192565762886 l 16.396962018743423 1.2692285618862016" fill="#ffd914" stroke="none" /><path d="M 79.0935383218832 98.0201363427161 l -1.5884910231208098 -0.15043175143742984 a22.59559814564192,22.59559814564192 0 0,0 0.03988403636689054,-0.3858418719685616 l 1.5856745942722557 0.17767814568890425" fill="#ff1302" stroke="none" /><path d="M 79.13060592940154 97.66154086499901 l -4.648001345027054 -0.5208182455133313 a25.6770897092351,25.6770897092351 0 0,0 0.05284334515030861,-0.43761870310187656 l 4.638375913617077 0.6005306255386442" fill="#ff3e05" stroke="none" /><path d="M 79.407916724674 95.88100663000787 l -5.592525070639819 -1.1186616419273152 a26.70330961239651,26.70330961239651 0 0,0 0.0937696752087528,-0.4487218408784251 l 5.572497684606699 1.2144999340911493" fill="#ff4d07" stroke="none" /><path d="M 79.56144815229197 95.17655741523228 l -4.17142324808451 -0.9844445283513177 a25.2860124759572,25.2860124759572 0 0,0 0.1033264416715062,-0.421607142254423 l 4.153909279896705 1.0559074952138583" fill="#ff3905" stroke="none" /><path d="M 80.41425534168474 92.42381321644754 l -25.011355816146462 -9.674929734804188 a47.81738587437787,47.81738587437787 0 0,0 0.3027098398950278,-0.7630265412385533 l 24.8415873012853 10.102857293256324" fill="#abff21" stroke="none" /><path d="M 80.5471966667186 92.08871423366112 l -33.93963652222207 -13.80295470697474 a57.63905683697857,57.63905683697857 0 0,0 0.3806213108848531,-0.9133525858006535 l 33.69768936680073 14.383539802216657" fill="#45ff2d" stroke="none" /><path d="M 80.68587082218212 91.75594674310238 l -4.675957732767387 -1.9958883064844348 a26.084107674960123,26.084107674960123 0 0,0 0.17931720790881717,-0.4103128638614168 l 4.641006642841592 2.0758632401217185" fill="#ff4406" stroke="none" /><path d="M 80.83023694016515 91.42560881287825 l -14.01603455499961 -6.269193979689064 a36.35421824131443,36.35421824131443 0 0,0 0.25969988115462883,-0.5674911086892972 l 13.906350208989934 6.5088740705930315" fill="#ffcc13" stroke="none" /><path d="M 80.9802524753101 91.09779779509293 l -0.4029812167747587 -0.18861555716507233 a21.444937849005854,21.444937849005854 0 0,0 0.15891795909838144,-0.3320774134518059 l 0.3996839997164723 0.19550547268196544" fill="#ff0300" stroke="none" /><path d="M 81.1358732173502 90.77261029715801 l -3.268227621925695 -1.598653902858512 a24.63826965600996,24.63826965600996 0 0,0 0.18910468768895905,-0.3783360515861921 l 3.240303021024992 1.6545218106084745" fill="#ff3004" stroke="none" /><path d="M 81.29705330413844 90.45014215332179 l -4.990060879739984 -2.547960640786699 a26.602928788634525,26.602928788634525 0 0,0 0.2111663605095072,-0.40493933960527795 l 4.9455864502555364 2.6332462234964633" fill="#ff4b07" stroke="none" /><path d="M 81.46374523516351 90.13048839642627 l -0.27150901511140607 -0.14456325774073026 a21.307596620227496,21.307596620227496 0 0,0 0.17467627841392389,-0.32138467808236143 l 0.2689873870821316 0.1492027692977113" fill="#ff0100" stroke="none" /><line stroke="#e1ed5e" stroke-width="0.3" x1="26.387840678322718" x2="22.05771365940052" y1="57.49999999999999" y2="54.99999999999999" /><path d="M 25.521815274538284 56.99999999999999 a86.0,86.0 0 0,1 29.574782752854787,-30.34633250058573" fill="none" id="id35" stroke="none" /><text fill="#e1ed5e" style="font-size:6.75px; font-family:Arial;" text-anchor="middle"><textPath startOffset="21.40746469413373" xlink:href="#id35">November</textPath></text><path d="M 81.81346652052679 89.5 l -4.514029997885597 -2.606176434409296 a26.21235286881859,26.21235286881859 0 0,0 0.2283299266220009,-0.38775413309405293 l 4.4686263611338175 2.683281735796922" fill="#ff4606" stroke="none" /><path d="M 82.18462484594161 88.88188828441811 l -4.3460747700066005 -2.7122720907843356 a26.122966503983367,26.122966503983367 0 0,0 0.24068246956048847,-0.3783928184447067 l 4.298874608820222 2.7864785839077144" fill="#ff4506" stroke="none" /><path d="M 82.37810715431573 88.57770195909679 l -3.575373056341558 -2.317513618688816 a25.260770102319686,25.260770102319686 0 0,0 0.23898560349394463,-0.3618546635918485 l 3.5350630139268846 2.3785481606197254" fill="#ff3905" stroke="none" /><path d="M 82.576782715395 88.27688183743585 l -3.6344066286595673 -2.4453909781765346 a25.380507799170296,25.380507799170296 0 0,0 0.2463241892528519,-0.35939435360749167 l 3.591892702591402 2.5074200668540607" fill="#ff3a05" stroke="none" /><path d="M 82.78059297857968 87.97951657250589 l -0.976996059709458 -0.6820191270149738 a22.191499639237072,22.191499639237072 0 0,0 0.2207366293149615,-0.3104937127369198 l 0.9651443318645242 0.698690066461414" fill="#ff0d01" stroke="none" /><path d="M 82.98947788004972 87.6856937992154 l -0.7065158859804733 -0.5114630164983786 a21.872215062005004,21.872215062005004 0 0,0 0.22278202995196433,-0.30224661015754234 l 0.6976318364446902 0.5235159359247842" fill="#ff0901" stroke="none" /><path d="M 83.2033758604659 87.39550010848427 l -6.909733888863175 -5.185193127444372 a29.638903297514133,29.638903297514133 0 0,0 0.30887692285942314,-0.40432980710540917 l 6.819704988649446 5.303043847790666" fill="#ff750a" stroke="none" /><path d="M 83.42222388311158 87.10902102172516 l -4.2430344710968315 -3.2994092684894576 a26.37489004947172,26.37489004947172 0 0,0 0.28099753772403174,-0.35503120944898753 l 4.185770502731238 3.371760421853128" fill="#ff4806" stroke="none" /><path d="M 83.64595745247003 86.82634096563983 l -3.4500252663000204 -2.7790961400567316 a25.43012976037799,25.43012976037799 0 0,0 0.2767684306623223,-0.33761248349069695 l 3.4018100163990685 2.8379109052459213" fill="#ff3b05" stroke="none" /><path d="M 83.8745106332314 86.54754324733833 l -3.5980491914595367 -3.0016206045694815 a25.68568930232668,25.68568930232668 0 0,0 0.28536242639523646,-0.3361562207599735 l 3.5459922015571856 3.0629436077790118" fill="#ff3f05" stroke="none" /><path d="M 84.10781606972428 86.27271002978789 l -4.504568091747033 -3.890938631044637 a26.952355594530708,26.952355594530708 0 0,0 0.30544583008343046,-0.3475412847172777 l 4.43711119770501 3.967692193573215" fill="#ff5007" stroke="none" /><path d="M 84.34580500576568 86.00192230759919 l -3.3572761874992385 -3.002097068854113 a25.503764004693394,25.503764004693394 0 0,0 0.2946319897488133,-0.3238521686617562 l 3.3052464969085595 3.0592868130735273" fill="#ff3c05" stroke="none" /><path d="M 84.58840730492382 85.73525988315684 l -4.16860523896039 -3.8583987755190874 a26.68018580234971,26.68018580234971 0 0,0 0.31399296551824196,-0.33344964829018503 l 4.101756439705876 3.929389883753784" fill="#ff4c07" stroke="none" /><path d="M 85.08716467003674 85.21462403516908 l -2.9732270771835076 -2.9478150326415387 a25.18684758728624,25.18684758728624 0 0,0 0.30704935660952787,-0.3044250189036645 l 2.922185800444003 2.9984200617738765" fill="#ff3805" stroke="none" /><path d="M 85.34317274990677 84.96080404539775 l -3.611947779994909 -3.7061766175069355 a26.175124335275946,26.175124335275946 0 0,0 0.3244811928747175,-0.3108456427124448 l 3.547794101254891 3.7676343905249485" fill="#ff4506" stroke="none" /><path d="M 85.60350026404147 84.71141617570332 l -0.6166425972138451 -0.6548530691518251 a21.8994890965855,21.8994890965855 0 0,0 0.2759025161138673,-0.25537124992959725 l 0.6053103097860245 0.6653420652137879" fill="#ff0901" stroke="none" /><path d="M 85.86807049272753 84.46653392183569 l -3.7907215213224323 -4.166666988603885 a26.632999507024515,26.632999507024515 0 0,0 0.34081992419680235,-0.30476327781672236 l 3.7186365703022384 4.231125796304008" fill="#ff4c07" stroke="none" /><path d="M 86.40962598614128 83.9905735841838 l -3.318357246090738 -3.9090164920042807 a26.127563236805994,26.127563236805994 0 0,0 0.34441809951217367,-0.2873258282672466 l 3.250764812416655 3.965404504183409" fill="#ff4506" stroke="none" /><path d="M 86.68645165197937 83.75963576809568 l -3.562655836991325 -4.34586084139328 a26.61952160469233,26.61952160469233 0 0,0 0.35587667542996526,-0.28666905853831665 l 3.4875283912061144 4.406378193724995" fill="#ff4c07" stroke="none" /><path d="M 86.96720088162412 83.53348406188908 l -3.17485255157376 -4.011322484663319 a26.115701007701674,26.115701007701674 0 0,0 0.35391756169862937,-0.27520843662808897 l 3.1055250452398857 4.065231972912213" fill="#ff4506" stroke="none" /><path d="M 87.54013794807813 83.09580414077388 l -2.9515935379353286 -4.004403504161507 a25.97465092617789,25.97465092617789 0 0,0 0.36119482473101655,-0.2614771985546445 l 2.882417702830344 4.054481474089231" fill="#ff4306" stroke="none" /><path d="M 87.83215693770416 82.88440491214696 l -4.177356211397042 -5.8759746559805865 a28.209534178754105,28.209534178754105 0 0,0 0.3970893704257693,-0.2771992200718275 l 4.075871749797507 5.9468186918575405" fill="#ff6109" stroke="none" /><path d="M 88.12776184653039 82.6780497279521 l -0.16036796081955534 -0.23398164749030412 a21.283664051687378,21.283664051687378 0 0,0 0.303143948607446,-0.2039687775076698 l 0.15632772411512 0.23670009905508343" fill="#ff0000" stroke="none" /><path d="M 88.4268655584334 82.4767994020092 l -2.414869298601737 -3.656419905167838 a25.38189459620343,25.38189459620343 0 0,0 0.3656375140899662,-0.23700181912599572 l 2.3517461522547447 3.69733556599774" fill="#ff3a05" stroke="none" /><path d="M 89.03521579738668 82.08984904055464 l -0.13915880337729217 -0.22730544712672546 a21.26652005337475,21.26652005337475 0 0,0 0.31298974907202765,-0.1879413513918277 l 0.13523629774783025 0.22966079905447653" fill="#ff0000" stroke="none" /><line stroke="#e1ed5e" stroke-width="0.3" x1="56.869717070023135" x2="54.33264160355391" y1="26.7553504044142" y2="22.446841604673864" /><path d="M 56.362301976729285 25.89364864446614 a86.0,86.0 0 0,1 42.16139366436587,-11.88097634709845" fill="none" id="id36" stroke="none" /><text fill="#e1ed5e" style="font-size:6.75px; font-family:Arial;" text-anchor="middle"><textPath startOffset="22.145653131862474" xlink:href="#id36">December</textPath></text></svg>