<?xml version="1.0" encoding="utf-8" ?>
<svg baseProfile="full" height="200mm" version="1.1" viewBox="0,0,200,200" width="200mm" xmlns="http://www.w3.org/2000/svg" xmlns:ev="http://www.w3.org/2001/xml-events" xmlns:xlink="http://www.w3.org/1999/xlink"><defs /><rect fill="#1a1a1a" height="200" width="200" x="0" y="0" /><text alignment-baseline="middle" fill="#e1ed5e" style="dominant-baseline: central; font-size:9.0px; font-family:Arial;" text-anchor="middle" x="100.0" y="100.0">2023</text><line stroke="#e1ed5e" stroke-width="0.3" x1="100.0" x2="100.0" y1="15.0" y2="10.0" /><path d="M 100.0 14.0 a86.0,86.0 0 0,1 42.46469731375804,11.215312516191453" fill="none" id="id49" stroke="none" /><text fill="#e1ed5e" style="font-size:6.75px; font-family:Arial;" text-anchor="middle"><textPath startOffset="22.20632615414155" xlink:href="#id49">January</textPath></text><line stroke="#e1ed5e" stroke-width="0.3" x1="143.23703022742887" x2="145.7803849466894" y1="26.81831364943548" y2="22.513508569990506" /><path d="M 143.74570117128098 25.957352633546492 a86.0,86.0 0 0,1 28.547481713284135,27.462654790039103" fill="none" id="id50" stroke="none" /><text fill="#e1ed5e" style="font-size:6.75px; font-family:Arial;" text-anchor="middle"><textPath startOffset="19.985693538727396" xlink:href="#id50">February</textPath></text><path d="M 117.04232023915458 87.72973835380427 l 0.20857257941573668 -0.15016970023677859 a21.257008676416454,21.257008676416454 0 0,0 0.2112414024517848,0.29878598302358483 l -0.21112660167140435 0.14655721688140055" fill="#ff0300" stroke="none" /><line stroke="#e1ed5e" stroke-width="0.3" x1="172.23445277983987" x2="176.4835382374775" y1="55.19839476539836" y2="52.563006222186495" /><path d="M 173.08426987136738 54.67131705675599 a86.0,86.0 0 0,1 12.851231095245387,41.99856678651699" fill="none" id="id51" stroke="none" /><text fill="#e1ed5e" style="font-size:6.75px; font-family:Arial;" text-anchor="middle"><textPath startOffset="22.20632615414155" xlink:href="#id51">March</textPath></text><line stroke="#e1ed5e" stroke-width="0.3" x1="184.98032266829074" x2="189.97916517819016" y1="98.17113171792111" y2="98.06355123074" /><path d="M 185.9800911702706 98.14961562048488 a86.0,86.0 0 0,1 -9.607161424134198,41.387399972396054" fill="none" id="id52" stroke="none" /><text fill="#e1ed5e" style="font-size:6.75px; font-family:Arial;" text-anchor="middle"><textPath startOffset="21.466115282336823" xlink:href="#id52">April</textPath></text><line stroke="#e1ed5e" stroke-width="0.3" x1="174.80103733775053" x2="179.2010983576182" y1="140.37084112569926" y2="142.7455964860345" /><path d="M 175.68104954172406 140.8457921977663 a86.0,86.0 0 0,1 -30.038265399797805,32.042727171017184" fill="none" id="id53" stroke="none" /><text fill="#e1ed5e" style="font-size:6.75px; font-family:Arial;" text-anchor="middle"><textPath startOffset="22.206326154141568" xlink:href="#id53">May</textPath></text><line stroke="#e1ed5e" stroke-width="0.3" x1="143.8653032363475" x2="146.44561519142675" y1="172.8068346515853" y2="177.08958963109032" /><path d="M 144.38136562736335 173.6633856474863 a86.0,86.0 0 0,1 -40.68145358897372,12.25698825130547" fill="none" id="id54" stroke="none" /><text fill="#e1ed5e" style="font-size:6.75px; font-family:Arial;" text-anchor="middle"><textPath startOffset="21.466115282336833" xlink:href="#id54">June</textPath></text><line stroke="#e1ed5e" stroke-width="0.3" x1="102.19456741930631" x2="102.32365962044197" y1="184.97166512339345" y2="189.96999836594603" /><path d="M 102.22038585953345 185.97133177190398 a86.0,86.0 0 0,1 -42.740103519485714,-10.115201625700543" fill="none" id="id55" stroke="none" /><text fill="#e1ed5e" style="font-size:6.75px; font-family:Arial;" text-anchor="middle"><textPath startOffset="22.20632615414155" xlink:href="#id55">July</textPath></text><path d="M 93.08242187328487 119.8279376855182 l -1.7479359943095065 5.010130039528852 a26.306287143869255,26.306287143869255 0 0,0 -0.4262626165484002,-0.15284260859678253 l 1.8339181714876334 -4.979299889892112" fill="#ff4a06" stroke="none" /><path d="M 92.7421414339146 119.70592522655815 l -0.8930960938997444 2.4248591628331875 a23.58409802300823,23.58409802300823 0 0,0 -0.3797374218136962,-0.14358420009039496 l 0.9347037364737236 -2.409126712636159" fill="#ff2503" stroke="none" /><path d="M 92.40401165467489 119.57807347666478 l -1.711490785590467 4.411235356297895 a25.731616856616107,25.731616856616107 0 0,0 -0.41155751340492397,-0.16376722816289488 l 1.787169375037249 -4.381121283728933" fill="#ff4206" stroke="none" /><path d="M 92.06813273071674 119.44442032107085 l -1.0221024198891198 2.5056129141837706 a23.70606530454601,23.70606530454601 0 0,0 -0.37650711248014657,-0.15738000355233275 l 1.0650809918667286 -2.487647867611465" fill="#ff2603" stroke="none" /><path d="M 91.7346041902142 119.30500536409082 l -0.09966491672207295 0.23278156257844668 a21.253219966633125,21.253219966633125 0 0,0 -0.3350715108525464,-0.14688550351374124 l 0.10365710223236266 -0.23103150577025322" fill="#ff0300" stroke="none" /><path d="M 91.40352486487194 119.15986991738527 l -25.789425405384158 57.479609752155824 a84.0,84.0 0 0,0 -1.3141280169303222,-0.6032517186637025 l 26.7750214180819 -57.02717096315804" fill="#4dd2ff" stroke="none" /><path d="M 91.07499286063937 119.00905698771935 l -10.273873117552071 21.881958919097936 a45.17379976281447,45.17379976281447 0 0,0 -0.7010270990949955,-0.3365356089122575 l 10.649012884647309 -21.70186903368612" fill="#c7ff1e" stroke="none" /><line stroke="#e1ed5e" stroke-width="0.3" x1="58.666819895761336" x2="56.23545636021788" y1="174.27360380694188" y2="178.64263932499728" /><path d="M 58.180547188652646 175.14741091055294 a86.0,86.0 0 0,1 -31.652253787137756,-30.449443065178592" fill="none" id="id56" stroke="none" /><text fill="#e1ed5e" style="font-size:6.75px; font-family:Arial;" text-anchor="middle"><textPath startOffset="22.20632615414155" xlink:href="#id56">August</textPath></text><path d="M 85.97065885151581 115.62618273729859 l -9.999984738415073 11.138198667979093 a35.96860595833512,35.96860595833512 0 0,0 -0.4571446254918486,-0.4175907765923469 l 10.190228913373776 -10.964415124800169" fill="#ffc912" stroke="none" /><path d="M 84.9287848128048 114.62390073753433 l -33.6689569552908 32.66966056385535 a67.91380802935049,67.91380802935049 0 0,0 -0.8068595321061952,-0.8459889936314452 l 34.22632303877596 -32.08526445364141" fill="#39ff8d" stroke="none" /><path d="M 84.67929136418377 114.36230785411682 l -0.500015353203856 0.46873644067026804 a21.685367933486685,21.685367933486685 0 0,0 -0.25294803663056187,-0.27452513591850497 l 0.5080097978301469 -0.46006004995041894" fill="#ff0a01" stroke="none" /><path d="M 83.95833913139862 113.55231037782056 l -0.0667602475859893 0.056400369238347764 a21.087395264791432,21.087395264791432 0 0,0 -0.23186494849840197,-0.2792962671283007 l 0.06772119597792764 -0.055242844996285914" fill="#ff0100" stroke="none" /><path d="M 83.50135304334701 112.99209946851258 l -0.0873777265032928 0.06880686137753235 a21.111217135646946,21.111217135646946 0 0,0 -0.22236463383972385,-0.2874362642921356 l 0.08854917756108507 -0.0672926029721441" fill="#ff0100" stroke="none" /><path d="M 82.05923443525364 110.91462005526583 l -0.013861844247627755 0.008433127487348008 a21.016225546683035,21.016225546683035 0 0,0 -0.18536223294690857,-0.31067776443473816 l 0.014004952892768196 -0.00819326916649874" fill="#ff0000" stroke="none" /><line stroke="#e1ed5e" stroke-width="0.3" x1="26.63291911575756" x2="22.317208475507996" y1="142.92168965132927" y2="145.44649492493687" /><path d="M 25.769776987707644 143.4266507060508 a86.0,86.0 0 0,1 -11.730757126820373,-40.83630448921669" fill="none" id="id57" stroke="none" /><text fill="#e1ed5e" style="font-size:6.75px; font-family:Arial;" text-anchor="middle"><textPath startOffset="21.46611528233685" xlink:href="#id57">September</textPath></text><path d="M 81.69416730710424 110.29060199501025 l -2.839495747098507 1.5962191444727307 a24.25739952338852,24.25739952338852 0 0,0 -0.20147917724945222,-0.3657432302908292 l 2.866551333799476 -1.547105395784079" fill="#ff2e04" stroke="none" /><path d="M 81.51974371655577 109.97397251340807 l -2.358654694122081 1.272988681919409 a23.680252254993743,23.680252254993743 0 0,0 -0.19051043919443705,-0.3603739552223287 l 2.3802176415414045 -1.2321997116109542" fill="#ff2603" stroke="none" /><path d="M 81.35079622478065 109.6543875284942 l -0.316991700867137 0.1641014147507139 a21.35694959411915,21.35694959411915 0 0,0 -0.16619910057040965,-0.3279265927381796 l 0.3197694712238134 -0.1586206103098493" fill="#ff0500" stroke="none" /><path d="M 81.18737489456691 109.33194174019688 l -34.44127258558371 17.08448169384323 a59.44581605404864,59.44581605404864 0 0,0 -0.4468251653339065,-0.9205921858301331 l 34.73025100753233 -16.489100552047812" fill="#32ff2f" stroke="none" /><path d="M 79.67330655649465 105.27499134158121 l -0.0461499341594869 0.011976394674443171 a21.047678616300423,21.047678616300423 0 0,0 -0.0879880020411912,-0.35146833028797064 l 0.046349250495736634 -0.011180224989080684" fill="#ff0000" stroke="none" /><path d="M 79.58551787078972 104.9243191809786 l -0.014272108363571652 0.0034426744956307033 a21.01468145377081,21.01468145377081 0 0,0 -0.08179657948480401,-0.3523775236051586 l 0.014329253778930826 -0.0031964935418978572" fill="#ff0000" stroke="none" /><path d="M 79.50377843672027 104.57218783832718 l -0.013964350870127326 0.003115092946346596 a21.01430758188124,21.01430758188124 0 0,0 -0.07571751351063415,-0.35372701546348334 l 0.014015903105202223 -0.002874258066699442" fill="#ff0000" stroke="none" /><path d="M 79.29508885075956 103.50808413554451 l -0.07108794311932425 0.012044605441088332 a21.072101096920697,21.072101096920697 0 0,0 -0.05751504127604833,-0.35814621692835297 l 0.07128473875666333 -0.010819158819521689" fill="#ff0100" stroke="none" /><path d="M 79.23777060512086 103.15116336523772 l -0.05364160761741901 0.008141392986350419 a21.054255915323026,21.054255915323026 0 0,0 -0.05129814209747078,-0.35877908635151334 l 0.053773800731488804 -0.007216834654436479" fill="#ff0100" stroke="none" /><path d="M 79.18660465613746 102.79330883721812 l -0.09587453074246444 0.01286705842860173 a21.096734103798468,21.096734103798468 0 0,0 -0.045205771166260914,-0.36033447455008805 l 0.09608181115557347 -0.011214829591105088" fill="#ff0100" stroke="none" /><path d="M 79.1416061653843 102.43462659150553 l -0.12125525736137269 0.014153116307638457 a21.12207845075602,21.12207845075602 0 0,0 -0.03904335585583697,-0.36149298498285226 l 0.12148091471826153 -0.012063809440004099" fill="#ff0200" stroke="none" /><path d="M 79.07016306316243 101.71520430193888 l -0.05216311564996346 0.0042747777077938075 a21.05233798198978,21.05233798198978 0 0,0 -0.026489296078366274,-0.3614253991455662 l 0.05222897039266508 -0.0033762420654669337" fill="#ff0100" stroke="none" /><path d="M 79.04373962182676 101.35467743843564 l -0.05453081862413757 0.003525040649260374 a21.054644634607595,21.054644634607595 0 0,0 -0.020266247563412984,-0.36186746433981937 l 0.054583417075082186 -0.002585859974003409" fill="#ff0100" stroke="none" /><path d="M 79.0235259727143 100.99374915477108 l -0.5601247274808068 0.02653560716526476 a21.560752930249212,21.560752930249212 0 0,0 -0.014371645483129056,-0.3708683109483646 l 0.5604985058151367 -0.0168900492029034" fill="#ff0801" stroke="none" /><path d="M 79.0095281055655 100.63252640178507 l -0.4714247545802948 0.01420590281279713 a21.47163874618803,21.47163874618803 0 0,0 -0.007952621915143602,-0.36952709116893445 l 0.4715994391804459 -0.0060889958537338465" fill="#ff0701" stroke="none" /><line stroke="#e1ed5e" stroke-width="0.3" x1="15.007084014347285" x2="10.007500721073583" y1="101.09737516637583" y2="101.16192664675087" /><path d="M 14.007167355692545 101.11028546245083 a86.0,86.0 0 0,1 10.666146001902534,-42.60595125391555" fill="none" id="id58" stroke="none" /><text fill="#e1ed5e" style="font-size:6.75px; font-family:Arial;" text-anchor="middle"><textPath startOffset="22.20632615414155" xlink:href="#id58">October</textPath></text><path d="M 79.00175016825051 100.2711162175752 l -1.4996428654615659 0.019362447092273038 a22.499767858132444,22.499767858132444 0 0,0 -0.001666807135354744,-0.3873072773015462 l 1.4997539698864237 0.006454308412948541" fill="#ff1502" stroke="none" /><path d="M 79.00019446554 99.90962569577889 l -2.930817935906064 -0.012613004026234734 a23.930845076304657,23.930845076304657 0 0,0 0.005318337316103127,-0.41191108614553384 l 2.9301665914722452 0.06306034823224058" fill="#ff2904" stroke="none" /><path d="M 79.00486145842228 99.54816195383935 l -0.9257345985339309 -0.01992280791272412 a21.925948953883477,21.925948953883477 0 0,0 0.011368401502848229,-0.3772619001463721 l 0.9252545025754376 0.03585485548409066" fill="#ff0d01" stroke="none" /><path d="M 79.01574976396665 99.18683210126434 l -0.055036769650356615 -0.00213274879142113 a21.05507807758949,21.05507807758949 0 0,0 0.017151257822357935,-0.36203594490490143 l 0.054991903594499875 0.0030798003193316286" fill="#ff0100" stroke="none" /><path d="M 79.03285615573316 98.82574320788736 l -0.10845853367896059 -0.006074178284894137 a21.108628491518694,21.108628491518694 0 0,0 0.023440035291886728,-0.36260697116028523 l 0.10833790738266068 0.007940213698191154" fill="#ff0100" stroke="none" /><path d="M 79.05617556472873 98.46500227214037 l -0.043816674084361545 -0.003211376001060806 a21.043934199248824,21.043934199248824 0 0,0 0.02958728665244571,-0.3610398390087917 l 0.04375490361241875 0.003965132217630887" fill="#ff0000" stroke="none" /><path d="M 79.12142395522702 97.74499172005258 l -0.021195363425595838 -0.0022892231691815593 a21.021318629727574,21.021318629727574 0 0,0 0.0419521925319506,-0.3594207658415201 l 0.02115281789005632 0.0026537273355634263" fill="#ff0000" stroke="none" /><path d="M 79.26566170972629 96.67025291283419 l -0.02016055086912077 -0.0032376020200076934 a21.020418860844483,21.020418860844483 0 0,0 0.06044685547959964,-0.3567607627409042 l 0.020101833869298105 0.0035841530767398476" fill="#ff0000" stroke="none" /><path d="M 79.3925641242962 95.95851677861259 l -0.029156086788853692 -0.005718025098765131 a21.02971149958971,21.02971149958971 0 0,0 0.07272345027641619,-0.35462537075548356 l 0.02905334059744293 0.006219052017651181" fill="#ff0000" stroke="none" /><path d="M 79.46518482838121 95.60439243477599 l -0.030927897581050405 -0.00662031284175525 a21.031628521794524,21.031628521794524 0 0,0 0.07882415310253657,-0.3533532224954681 l 0.030809357476476243 0.007151704887182527" fill="#ff0000" stroke="none" /><path d="M 79.62865764111835 94.90015583598534 l -0.043575009909956455 -0.010908744061693334 a21.04491973047177,21.04491973047177 0 0,0 0.09099790033437044,-0.35065203036806253 l 0.04338077770527866 0.011657199978619689" fill="#ff0000" stroke="none" /><path d="M 79.81627453868168 94.20196356495316 l -0.0840732635818838 -0.02415113336709151 a21.087473372475422,21.087473372475422 0 0,0 0.10322228130973231,-0.34801421803165866 l 0.08364508516044453 0.02559473814528939" fill="#ff0100" stroke="none" /><path d="M 80.02781315780177 93.51064311812611 l -0.017035622054579078 -0.00553520914311243 a21.01791231305679,21.01791231305679 0 0,0 0.11476050976584183,-0.34311931720647515 l 0.01693781851696485 0.0058276292719097325" fill="#ff0000" stroke="none" /><path d="M 80.14247586403 93.16781622104843 l -0.2332883308231737 -0.08026523038597921 a21.246710260238963,21.246710260238963 0 0,0 0.12196311737135317,-0.34480615653883406 l 0.23187213264201098 0.08426901335142432" fill="#ff0300" stroke="none" /><path d="M 80.38941819471856 92.48833698450439 l -0.049047625486120586 -0.018787266896015727 a21.052522670945496,21.052522670945496 0 0,0 0.13253710896956775,-0.3372924858140054 l 0.048716966634861726 0.019628757605784516" fill="#ff0100" stroke="none" /><path d="M 80.65960295795068 91.81776055985345 l -0.1810467553529022 -0.07659449280892898 a21.196582410079007,21.196582410079007 0 0,0 0.14505456247207493,-0.33480592939351667 l 0.17970148303814654 0.07969956678904491" fill="#ff0300" stroke="none" /><path d="M 81.26839172434947 90.50648371742162 l -0.029011952119462614 -0.014703779610506375 a21.032525290169595,21.032525290169595 0 0,0 0.16644796666892964,-0.32152449228065677 l 0.028754552290418962 0.015200994151498644" fill="#ff0000" stroke="none" /><path d="M 81.6062741919709 89.86733742301443 l -0.04685819906976971 -0.02581305849040871 a21.053497708443366,21.053497708443366 0 0,0 0.1775936306246697,-0.3159192524514633 l 0.046406927152669336 0.026615820876656607" fill="#ff0100" stroke="none" /><line stroke="#e1ed5e" stroke-width="0.3" x1="26.266209847984243" x2="21.928928074336255" y1="57.711370442889674" y2="55.22380399835377" /><path d="M 25.398753493254645 57.213857153982495 a86.0,86.0 0 0,1 29.58750427330803,-30.492523968695096" fill="none" id="id59" stroke="none" /><text fill="#e1ed5e" style="font-size:6.75px; font-family:Arial;" text-anchor="middle"><textPath startOffset="21.46611528233685" xlink:href="#id59">November</textPath></text><path d="M 83.17141714833178 87.43820079747576 l -0.015658973177770947 -0.011688736865764791 a21.01954047109205,21.01954047109205 0 0,0 0.21892758221242384,-0.2880830357888186 l 0.015455450741238254 0.011956548535609967" fill="#ff0000" stroke="none" /><path d="M 85.57189188830299 84.74124197986013 l -0.023253775438374022 -0.024592533527050698 a21.03384569067721,21.03384569067721 0 0,0 0.26521888154127926,-0.2464920457947238 l 0.022827010102238622 0.024989165396422014" fill="#ff0000" stroke="none" /><path d="M 86.10567301691215 84.25364557470407 l -0.019029824316066608 -0.021566381638825235 a21.028761832877823,21.028761832877823 0 0,0 0.27348025063518927,-0.2371593784316947 l 0.01865577503410382 0.021890753490200532" fill="#ff0000" stroke="none" /><path d="M 86.65592168130627 83.78471172551755 l -0.020482123623270232 -0.024889207863808896 a21.03223336867606,21.03223336867606 0 0,0 0.28152806288253085,-0.2276427812198993 l 0.020050662176238902 0.0252380863478425" fill="#ff0000" stroke="none" /><path d="M 87.51073957382395 83.11751280151077 l -0.16372158049824143 -0.2213123429698771 a21.27528877396592,21.27528877396592 0 0,0 0.29628846894629246,-0.21526617324707784 l 0.15988779519816723 0.22409775103362278" fill="#ff0400" stroke="none" /><line stroke="#e1ed5e" stroke-width="0.3" x1="56.762969772571076" x2="54.21961505331055" y1="26.818313649435495" y2="22.513508569990535" /><path d="M 56.25429882871897 25.957352633546506 a86.0,86.0 0 0,1 42.265352541879196,-11.944610805530505" fill="none" id="id60" stroke="none" /><text fill="#e1ed5e" style="font-size:6.75px; font-family:Arial;" text-anchor="middle"><textPath startOffset="22.20632615414155" xlink:href="#id60">December</textPath></text><path d="M 89.3179101791058 81.91981866633112 l -0.010903430216000924 -0.01845481537504978 a21.021435134732545,21.021435134732545 0 0,0 0.3131225523053649,-0.18138079295753953 l 0.010584145445315862 0.018639765722636516" fill="#ff0000" stroke="none" /><path d="M 90.58718382345135 81.22770947309562 l -0.025721042495516294 -0.051296325491159 a21.057383665236294,21.057383665236294 0 0,0 0.3254155257597375,-0.15967998522619084 l 0.024834249725352846 0.05173147085217949" fill="#ff0100" stroke="none" /><path d="M 91.23893434514133 80.91482961587045 l -0.014034754775867464 -0.030573413868706746 a21.033640867664285,21.033640867664285 0 0,0 0.33034623199541485,-0.14821672493480909 l 0.013506404313678217 0.030810469320044755" fill="#ff0000" stroke="none" /><path d="M 91.56875222667455 80.76684994638697 l -0.9029749751601547 -2.0598437691344045 a23.24907095464045,23.24907095464045 0 0,0 0.3679068521196479,-0.15751851380252005 l 0.8673843652501986 2.075081810899711" fill="#ff2003" stroke="none" /><path d="M 91.90106846888425 80.62456947434976 l -0.16421901087759455 -0.3928683708493444 a21.425809159539146,21.425809159539146 0 0,0 0.3415030444199417,-0.13930766644967973 l 0.15743209686927231 0.3956369234826011" fill="#ff0601" stroke="none" /><path d="M 92.23578459929587 80.48803036053334 l -0.11174973919550268 -0.28083423834470383 a21.302251341828143,21.302251341828143 0 0,0 0.3418674916954437,-0.1326392755476819 l 0.1068990825003826 0.2827162177829372" fill="#ff0400" stroke="none" /><path d="M 97.47563105711357 79.15227682838746 l -0.0020878553108268786 -0.017242736908627126 a21.01736868204266,21.01736868204266 0 0,0 0.35953041120008566,-0.04039743082893124 l 0.0017907406010232148 0.017276121208156858" fill="#ff0000" stroke="none" /><path d="M 97.83486435360386 79.11191278185805 l -0.0023150938551016443 -0.022334804955079387 a21.022454468863444,21.022454468863444 0 0,0 0.3602596728682631,-0.034210996877515124 l 0.0019302938966022116 0.022371346347775056" fill="#ff0000" stroke="none" /><path d="M 98.91598698831166 79.02799685794201 l -0.0023179593325227733 -0.04484471116183119 a21.044904577212744,21.044904577212744 0 0,0 0.361931439026298,-0.015585529107480333 l 0.0015456879169006787 0.04487796679350396" fill="#ff0000" stroke="none" /><path d="M 99.63851952072746 79.00311137660856 l -0.0020529026552346817 -0.11924452599313991 a21.119262195974418,21.119262195974418 0 0,0 0.3635333819277704,-0.003129046589836972 l 2.921081331187107e-17 0.119262195974418" fill="#ff0200" stroke="none" /></svg>