<?xml version="1.0" encoding="utf-8" ?>
<svg baseProfile="full" height="200mm" version="1.1" viewBox="0,0,200,200" width="200mm" xmlns="http://www.w3.org/2000/svg" xmlns:ev="http://www.w3.org/2001/xml-events" xmlns:xlink="http://www.w3.org/1999/xlink"><defs /><rect fill="#1a1a1a" height="200" width="200" x="0" y="0" /><text alignment-baseline="middle" fill="#e1ed5e" style="dominant-baseline: central; font-size:9.0px; font-family:Arial;" text-anchor="middle" x="100.0" y="100.0">2019</text><line stroke="#e1ed5e" stroke-width="0.3" x1="100.0" x2="100.0" y1="15.0" y2="10.0" /><path d="M 100.0 14.0 a86.0,86.0 0 0,1 42.46469731375804,11.215312516191453" fill="none" id="id1" stroke="none" /><text fill="#e1ed5e" style="font-size:6.75px; font-family:Arial;" text-anchor="middle"><textPath startOffset="22.20632615414155" xlink:href="#id1">January</textPath></text><line stroke="#e1ed5e" stroke-width="0.3" x1="143.23703022742887" x2="145.7803849466894" y1="26.81831364943548" y2="22.513508569990506" /><path d="M 143.74570117128098 25.957352633546492 a86.0,86.0 0 0,1 28.547481713284135,27.462654790039103" fill="none" id="id2" stroke="none" /><text fill="#e1ed5e" style="font-size:6.75px; font-family:Arial;" text-anchor="middle"><textPath startOffset="19.985693538727396" xlink:href="#id2">February</textPath></text><line stroke="#e1ed5e" stroke-width="0.3" x1="172.23445277983987" x2="176.4835382374775" y1="55.19839476539836" y2="52.563006222186495" /><path d="M 173.08426987136738 54.67131705675599 a86.0,86.0 0 0,1 12.851231095245387,41.99856678651699" fill="none" id="id3" stroke="none" /><text fill="#e1ed5e" style="font-size:6.75px; font-family:Arial;" text-anchor="middle"><textPath startOffset="22.20632615414155" xlink:href="#id3">March</textPath></text><line stroke="#e1ed5e" stroke-width="0.3" x1="184.98032266829074" x2="189.97916517819016" y1="98.17113171792111" y2="98.06355123074" /><path d="M 185.9800911702706 98.14961562048488 a86.0,86.0 0 0,1 -9.607161424134198,41.387399972396054" fill="none" id="id4" stroke="none" /><text fill="#e1ed5e" style="font-size:6.75px; font-family:Arial;" text-anchor="middle"><textPath startOffset="21.466115282336823" xlink:href="#id4">April</textPath></text><line stroke="#e1ed5e" stroke-width="0.3" x1="174.80103733775053" x2="179.2010983576182" y1="140.37084112569926" y2="142.7455964860345" /><path d="M 175.68104954172406 140.8457921977663 a86.0,86.0 0 0,1 -30.038265399797805,32.042727171017184" fill="none" id="id5" stroke="none" /><text fill="#e1ed5e" style="font-size:6.75px; font-family:Arial;" text-anchor="middle"><textPath startOffset="22.206326154141568" xlink:href="#id5">May</textPath></text><line stroke="#e1ed5e" stroke-width="0.3" x1="143.8653032363475" x2="146.44561519142675" y1="172.8068346515853" y2="177.08958963109032" /><path d="M 144.38136562736335 173.6633856474863 a86.0,86.0 0 0,1 -40.68145358897372,12.25698825130547" fill="none" id="id6" stroke="none" /><text fill="#e1ed5e" style="font-size:6.75px; font-family:Arial;" text-anchor="middle"><textPath startOffset="21.466115282336833" xlink:href="#id6">June</textPath></text><line stroke="#e1ed5e" stroke-width="0.3" x1="102.19456741930631" x2="102.32365962044197" y1="184.97166512339345" y2="189.96999836594603" /><path d="M 102.22038585953345 185.97133177190398 a86.0,86.0 0 0,1 -42.740103519485714,-10.115201625700543" fill="none" id="id7" stroke="none" /><text fill="#e1ed5e" style="font-size:6.75px; font-family:Arial;" text-anchor="middle"><textPath startOffset="22.20632615414155" xlink:href="#id7">July</textPath></text><path d="M 97.2962882734958 120.8252237178851 l -0.012867552972577054 0.09911177538965296 a21.099943573782365,21.099943573782365 0 0,0 -0.359775548635363,-0.04986161275859375 l 0.014571692794771076 -0.0988755971384543" fill="#ff0000" stroke="none" /><path d="M 93.42475214034765 119.94407469862007 l -0.22238267477682416 0.6745322415362779 a21.71024488657987,21.71024488657987 0 0,0 -0.3539082823819578,-0.12006490451608016 l 0.23396069009600778 -0.6706043501220746" fill="#ff0901" stroke="none" /><path d="M 93.08242187328487 119.8279376855182 l -0.3122319405298479 0.8949541800396055 a21.947856407404306,21.947856407404306 0 0,0 -0.3556393438832003,-0.1275196156747294 l 0.32759084504277486 -0.8894470233249183" fill="#ff0d01" stroke="none" /><path d="M 92.7421414339146 119.70592522655815 l -8.066289912421363 21.900909810047313 a44.339127735608656,44.339127735608656 0 0,0 -0.7139228320439509,-0.2699445271306229 l 8.442082965225596 -21.758817032810057" fill="#d1ff1c" stroke="none" /><path d="M 92.40401165467489 119.57807347666478 l -2.880348370107574 7.423875533335105 a28.96306063443152,28.96306063443152 0 0,0 -0.4632419828774894,-0.1843335452119145 l 3.0077114290269216 -7.3731951437171235" fill="#ff6e0a" stroke="none" /><path d="M 92.06813273071674 119.44442032107085 l -3.419821615518506 8.383454570998406 a30.054142169524493,30.054142169524493 0 0,0 -0.477329246374156,-0.19952366369694605 l 3.5636223213901244 -8.323345864281487" fill="#ff7c0b" stroke="none" /><line stroke="#e1ed5e" stroke-width="0.3" x1="58.666819895761336" x2="56.23545636021788" y1="174.27360380694188" y2="178.64263932499728" /><path d="M 58.180547188652646 175.14741091055294 a86.0,86.0 0 0,1 -31.652253787137756,-30.449443065178592" fill="none" id="id8" stroke="none" /><text fill="#e1ed5e" style="font-size:6.75px; font-family:Arial;" text-anchor="middle"><textPath startOffset="22.20632615414155" xlink:href="#id8">August</textPath></text><path d="M 89.4739219176387 118.17145234162733 l -3.9080921272534814 6.7466447884400305 a28.79681986302657,28.79681986302657 0 0,0 -0.42678550255152065,-0.2521523976101447 l 4.023645500833385 -6.678373818536136" fill="#ff6b09" stroke="none" /><path d="M 89.1626897886671 117.98757091392108 l -1.3805708616154622 2.291446474332026 a23.67520145945503,23.67520145945503 0 0,0 -0.34725973787167197,-0.21331529363288126 l 1.4198097994194427 -2.2673427138707667" fill="#ff2503" stroke="none" /><path d="M 88.54995079064634 117.60387380957326 l -1.8929687503728383 2.9103440865395256 a24.47180549454368,24.47180549454368 0 0,0 -0.3511416268104968,-0.23271752308232 l 1.942785075923297 -2.877328542365887" fill="#ff3004" stroke="none" /><path d="M 88.24862548938628 117.40417183066458 l -0.04172694803882357 0.061798981300526266 a21.074567099195406,21.074567099195406 0 0,0 -0.29890070095468085,-0.20558662763873245 l 0.04278453361639469 -0.06107156429669269" fill="#ff0000" stroke="none" /><path d="M 87.95078237400918 117.19931262002967 l -0.2600257236251624 0.3711663154155078 a21.453186286912914,21.453186286912914 0 0,0 -0.3006231645145466,-0.21448664584106064 l 0.26637621598859595 -0.3666354077302279" fill="#ff0500" stroke="none" /><path d="M 87.36589467227662 116.77436683061367 l -37.902315983170105 50.323100491841 a84.0,84.0 0 0,0 -1.147485086026053,-0.8798426326905329 l 38.76292979768965 -49.663218517323095" fill="#4dd2ff" stroke="none" /><line stroke="#e1ed5e" stroke-width="0.3" x1="26.63291911575756" x2="22.317208475507996" y1="142.92168965132927" y2="145.44649492493687" /><path d="M 25.769776987707644 143.4266507060508 a86.0,86.0 0 0,1 -11.730757126820373,-40.83630448921669" fill="none" id="id9" stroke="none" /><text fill="#e1ed5e" style="font-size:6.75px; font-family:Arial;" text-anchor="middle"><textPath startOffset="21.46611528233685" xlink:href="#id9">September</textPath></text><line stroke="#e1ed5e" stroke-width="0.3" x1="15.007084014347285" x2="10.007500721073583" y1="101.09737516637583" y2="101.16192664675087" /><path d="M 14.007167355692545 101.11028546245083 a86.0,86.0 0 0,1 10.666146001902534,-42.60595125391555" fill="none" id="id10" stroke="none" /><text fill="#e1ed5e" style="font-size:6.75px; font-family:Arial;" text-anchor="middle"><textPath startOffset="22.20632615414155" xlink:href="#id10">October</textPath></text><line stroke="#e1ed5e" stroke-width="0.3" x1="26.266209847984243" x2="21.928928074336255" y1="57.711370442889674" y2="55.22380399835377" /><path d="M 25.398753493254645 57.213857153982495 a86.0,86.0 0 0,1 29.58750427330803,-30.492523968695096" fill="none" id="id11" stroke="none" /><text fill="#e1ed5e" style="font-size:6.75px; font-family:Arial;" text-anchor="middle"><textPath startOffset="21.46611528233685" xlink:href="#id11">November</textPath></text><line stroke="#e1ed5e" stroke-width="0.3" x1="56.762969772571076" x2="54.21961505331055" y1="26.818313649435495" y2="22.513508569990535" /><path d="M 56.25429882871897 25.957352633546506 a86.0,86.0 0 0,1 42.265352541879196,-11.944610805530505" fill="none" id="id12" stroke="none" /><text fill="#e1ed5e" style="font-size:6.75px; font-family:Arial;" text-anchor="middle"><textPath startOffset="22.20632615414155" xlink:href="#id12">December</textPath></text></svg>