<?xml version="1.0" encoding="utf-8" ?>
<svg baseProfile="full" height="200mm" version="1.1" viewBox="0,0,200,200" width="200mm" xmlns="http://www.w3.org/2000/svg" xmlns:ev="http://www.w3.org/2001/xml-events" xmlns:xlink="http://www.w3.org/1999/xlink"><defs /><rect fill="#1a1a1a" height="200" width="200" x="0" y="0" /><text alignment-baseline="middle" fill="#e1ed5e" style="dominant-baseline: central; font-size:9.0px; font-family:Arial;" text-anchor="middle" x="100.0" y="100.0">2023</text><line stroke="#e1ed5e" stroke-width="0.3" x1="100.0" x2="100.0" y1="15.0" y2="10.0" /><path d="M 100.0 14.0 a86.0,86.0 0 0,1 42.46469731375804,11.215312516191453" fill="none" id="id49" stroke="none" /><text fill="#e1ed5e" style="font-size:6.75px; font-family:Arial;" text-anchor="middle"><textPath startOffset="22.20632615414155" xlink:href="#id49">January</textPath></text><line stroke="#e1ed5e" stroke-width="0.3" x1="143.23703022742887" x2="145.7803849466894" y1="26.81831364943548" y2="22.513508569990506" /><path d="M 143.74570117128098 25.957352633546492 a86.0,86.0 0 0,1 28.547481713284135,27.462654790039103" fill="none" id="id50" stroke="none" /><text fill="#e1ed5e" style="font-size:6.75px; font-family:Arial;" text-anchor="middle"><textPath startOffset="19.985693538727396" xlink:href="#id50">February</textPath></text><path d="M 117.04232023915458 87.72973835380427 l 0.20855336806182653 -0.15015586829747998 a21.25698500367551,21.25698500367551 0 0,0 0.2112411672040567,0.2987856502823567 l -0.21110715506976613 0.14654371768333013" fill="#ff0400" stroke="none" /><line stroke="#e1ed5e" stroke-width="0.3" x1="172.23445277983987" x2="176.4835382374775" y1="55.19839476539836" y2="52.563006222186495" /><path d="M 173.08426987136738 54.67131705675599 a86.0,86.0 0 0,1 12.851231095245387,41.99856678651699" fill="none" id="id51" stroke="none" /><text fill="#e1ed5e" style="font-size:6.75px; font-family:Arial;" text-anchor="middle"><textPath startOffset="22.20632615414155" xlink:href="#id51">March</textPath></text><line stroke="#e1ed5e" stroke-width="0.3" x1="184.98032266829074" x2="189.97916517819016" y1="98.17113171792111" y2="98.06355123074" /><path d="M 185.9800911702706 98.14961562048488 a86.0,86.0 0 0,1 -9.607161424134198,41.387399972396054" fill="none" id="id52" stroke="none" /><text fill="#e1ed5e" style="font-size:6.75px; font-family:Arial;" text-anchor="middle"><textPath startOffset="21.466115282336823" xlink:href="#id52">April</textPath></text><line stroke="#e1ed5e" stroke-width="0.3" x1="174.80103733775053" x2="179.2010983576182" y1="140.37084112569926" y2="142.7455964860345" /><path d="M 175.68104954172406 140.8457921977663 a86.0,86.0 0 0,1 -30.038265399797805,32.042727171017184" fill="none" id="id53" stroke="none" /><text fill="#e1ed5e" style="font-size:6.75px; font-family:Arial;" text-anchor="middle"><textPath startOffset="22.206326154141568" xlink:href="#id53">May</textPath></text><line stroke="#e1ed5e" stroke-width="0.3" x1="143.8653032363475" x2="146.44561519142675" y1="172.8068346515853" y2="177.08958963109032" /><path d="M 144.38136562736335 173.6633856474863 a86.0,86.0 0 0,1 -40.68145358897372,12.25698825130547" fill="none" id="id54" stroke="none" /><text fill="#e1ed5e" style="font-size:6.75px; font-family:Arial;" text-anchor="middle"><textPath startOffset="21.466115282336833" xlink:href="#id54">June</textPath></text><line stroke="#e1ed5e" stroke-width="0.3" x1="102.19456741930631" x2="102.32365962044197" y1="184.97166512339345" y2="189.96999836594603" /><path d="M 102.22038585953345 185.97133177190398 a86.0,86.0 0 0,1 -42.740103519485714,-10.115201625700543" fill="none" id="id55" stroke="none" /><text fill="#e1ed5e" style="font-size:6.75px; font-family:Arial;" text-anchor="middle"><textPath startOffset="22.20632615414155" xlink:href="#id55">July</textPath></text><path d="M 93.08242187328487 119.8279376855182 l -1.7503596898840128 5.017077107410079 a26.313644864466305,26.313644864466305 0 0,0 -0.4263818398054253,-0.15288535781499143 l 1.8364610903191647 -4.986204208555129" fill="#ff4b06" stroke="none" /><path d="M 92.7421414339146 119.70592522655815 l -0.894577285334124 2.4288807688463567 a23.588383725166622,23.588383725166622 0 0,0 -0.37980642769582496,-0.14361029221041746 l 0.9362539337902319 -2.413122226529306" fill="#ff2503" stroke="none" /><path d="M 92.40401165467489 119.57807347666478 l -1.7130854353464033 4.415345442921511 a25.736025452752944,25.736025452752944 0 0,0 -0.4116280255252386,-0.1637952863907724 l 1.7888345369135 -4.385203312124672" fill="#ff4306" stroke="none" /><path d="M 92.06813273071674 119.44442032107085 l -1.0255173064605054 2.5139842708377 a23.71510638094889,23.71510638094889 0 0,0 -0.376650705671443,-0.15744002551794042 l 1.0686394716294105 -2.4959592022997867" fill="#ff2603" stroke="none" /><path d="M 91.7346041902142 119.30500536409082 l -0.1046660397009369 0.2444623953123298 a21.265926385656858,21.265926385656858 0 0,0 -0.3352718362162556,-0.1469733202661716 l 0.1088585505749358 -0.242624521751706" fill="#ff0400" stroke="none" /><path d="M 91.40352486487194 119.15986991738527 l -25.789425405384158 57.479609752155824 a84.0,84.0 0 0,0 -1.3141280169303222,-0.6032517186637025 l 26.7750214180819 -57.02717096315804" fill="#4dd2ff" stroke="none" /><path d="M 91.07499286063937 119.00905698771935 l -7.853904065722776 16.72775244100254 a39.47975948980514,39.47975948980514 0 0,0 -0.6126644518154629,-0.2941161684288492 l 8.14068118553848 -16.59008199607413" fill="#fff417" stroke="none" /><line stroke="#e1ed5e" stroke-width="0.3" x1="58.666819895761336" x2="56.23545636021788" y1="174.27360380694188" y2="178.64263932499728" /><path d="M 58.180547188652646 175.14741091055294 a86.0,86.0 0 0,1 -31.652253787137756,-30.449443065178592" fill="none" id="id56" stroke="none" /><text fill="#e1ed5e" style="font-size:6.75px; font-family:Arial;" text-anchor="middle"><textPath startOffset="22.20632615414155" xlink:href="#id56">August</textPath></text><path d="M 85.97065885151581 115.62618273729859 l -9.999764690679811 11.137953574065863 a35.968276577048314,35.968276577048314 0 0,0 -0.457140439205475,-0.4175869525190005 l 10.19000467935214 -10.964173854960286" fill="#ffc912" stroke="none" /><path d="M 84.9287848128048 114.62390073753433 l -33.648390942926575 32.649704951806434 a67.88515166327221,67.88515166327221 0 0,0 -0.8065190761253468,-0.8456320268966507 l 34.20541657043088 -32.06566580832729" fill="#39ff8c" stroke="none" /><path d="M 84.67929136418377 114.36230785411682 l -0.5019531450397389 0.4705530121857058 a21.688024052698978,21.688024052698978 0 0,0 -0.2529790188182687,-0.2745587609642043 l 0.5099785718537365 -0.4618429964201573" fill="#ff0a01" stroke="none" /><path d="M 83.95833913139862 113.55231037782056 l -0.06697759502154929 0.056583988623563536 a21.087679792446277,21.087679792446277 0 0,0 -0.23186807700190884,-0.27930003561231187 l 0.06794167191699452 -0.0554226958974905" fill="#ff0100" stroke="none" /><path d="M 83.50135304334701 112.99209946851258 l -0.09030170418720086 0.07110939012506251 a21.11493886698185,21.11493886698185 0 0,0 -0.22240383486826795,-0.2874869369058807 l 0.09151235627353725 -0.06954445910592917" fill="#ff0100" stroke="none" /><path d="M 82.05923443525364 110.91462005526583 l -0.03256007878463847 0.01980856879386321 a21.038112178212785,21.038112178212785 0 0,0 -0.18555527212433026,-0.31100130919968966 l 0.03289622660720061 -0.019245165708062433" fill="#ff0000" stroke="none" /><line stroke="#e1ed5e" stroke-width="0.3" x1="26.63291911575756" x2="22.317208475507996" y1="142.92168965132927" y2="145.44649492493687" /><path d="M 25.769776987707644 143.4266507060508 a86.0,86.0 0 0,1 -11.730757126820373,-40.83630448921669" fill="none" id="id57" stroke="none" /><text fill="#e1ed5e" style="font-size:6.75px; font-family:Arial;" text-anchor="middle"><textPath startOffset="21.46611528233685" xlink:href="#id57">September</textPath></text><path d="M 81.87401531095188 110.60418214915194 l -0.012559255548688622 0.007347497848020923 a21.01455062282392,21.01455062282392 0 0,0 -0.17997261815569998,-0.31379742969159696 l 0.012683869856765832 -0.007130222298117018" fill="#ff0000" stroke="none" /><path d="M 81.69416730710424 110.29060199501025 l -2.82503029413273 1.5880874073567173 a24.24080511234055,24.24080511234055 0 0,0 -0.20134134597526057,-0.3654930264923715 l 2.851948049559507 -1.5392238624665233" fill="#ff2e04" stroke="none" /><path d="M 81.51974371655577 109.97397251340807 l -2.329337525815688 1.2571659234914925 a23.646937753019774,23.646937753019774 0 0,0 -0.19024242007309233,-0.35986696405038754 l 2.3506324541136667 -1.2168839443549788" fill="#ff2503" stroke="none" /><path d="M 81.35079622478065 109.6543875284942 l -0.3053607673063988 0.15808027083127518 a21.3438525414128,21.3438525414128 0 0,0 -0.1660971797239739,-0.32772549323892863 l 0.3080366168166394 -0.15280056588966157" fill="#ff0500" stroke="none" /><path d="M 81.18737489456691 109.33194174019688 l -34.44209373845196 17.08488902406341 a59.44673268371285,59.44673268371285 0 0,0 -0.44683205519140107,-0.9206063809772803 l 34.73107905025808 -16.489493687120845" fill="#32ff2f" stroke="none" /><path d="M 79.67330655649465 105.27499134158121 l -0.08018297117410679 0.020808326738494302 a21.082838972277326,21.082838972277326 0 0,0 -0.08813498687167359,-0.35205546162120765 l 0.08052927234083891 -0.019425025719894806" fill="#ff0100" stroke="none" /><path d="M 79.58551787078972 104.9243191809786 l -0.05387570977737683 0.012995734565608404 a21.055420945687672,21.055420945687672 0 0,0 -0.0819551520092593,-0.35306064989028346 l 0.0540914277171913 -0.012066427326750706" fill="#ff0100" stroke="none" /><path d="M 79.50377843672027 104.57218783832718 l -0.014829254944551147 0.003308031136353527 a21.01519374450916,21.01519374450916 0 0,0 -0.07572070647954308,-0.3537419319512319 l 0.014884000148534991 -0.00305227976895786" fill="#ff0000" stroke="none" /><path d="M 79.29508885075956 103.50808413554451 l -0.10105620262095369 0.01712220152299202 a21.10249646761309,21.10249646761309 0 0,0 -0.057598003624792435,-0.35866282355317625 l 0.10133596060703688 -0.015380148276602086" fill="#ff0100" stroke="none" /><path d="M 79.23777060512086 103.15116336523772 l -0.06535670085266987 0.009919437719464286 a21.066105170682903,21.066105170682903 0 0,0 -0.05132701249724386,-0.3589810058602844 l 0.06551776436651274 -0.008792959878779275" fill="#ff0100" stroke="none" /><path d="M 79.18660465613746 102.79330883721812 l -0.10751394867872316 0.014429152860782585 a21.108477876144267,21.108477876144267 0 0,0 -0.04523093554870423,-0.36053505943761793 l 0.1077463934742755 -0.012576339135756011" fill="#ff0100" stroke="none" /><path d="M 79.1416061653843 102.43462659150553 l -0.15552165296590043 0.018152747276125664 a21.156577478504786,21.156577478504786 0 0,0 -0.039107125991915945,-0.36208341724305726 l 0.15581108045886827 -0.015473008148286296" fill="#ff0200" stroke="none" /><path d="M 79.10278846688536 102.07522291339032 l -0.02905299395068466 0.002885142769096753 a21.02919589879241,21.02919589879241 0 0,0 -0.03267076219840828,-0.3605191384487348 l 0.02909835242616828 -0.0023846157717958157" fill="#ff0000" stroke="none" /><path d="M 79.07016306316243 101.71520430193888 l -0.08853067985199019 0.007255106831169183 a21.08882746112654,21.08882746112654 0 0,0 -0.026535209297953857,-0.36205184854861594 l 0.0886424478142794 -0.005730121785792614" fill="#ff0100" stroke="none" /><path d="M 79.04373962182676 101.35467743843564 l -0.09779257151393135 0.006321614061185609 a21.097996682840012,21.097996682840012 0 0,0 -0.02030797628204522,-0.36261255864276554 l 0.09788689868350821 -0.004637339082982461" fill="#ff0100" stroke="none" /><path d="M 79.0235259727143 100.99374915477108 l -0.5894969195993028 0.027927098940935032 a21.590158064481308,21.590158064481308 0 0,0 -0.014391245919437317,-0.37137411111689983 l 0.589890298369941 -0.0177757408100384" fill="#ff0801" stroke="none" /><path d="M 79.0095281055655 100.63252640178507 l -0.4790193017744992 0.014434756724900494 a21.4792367407391,21.4792367407391 0 0,0 -0.007955436044921596,-0.3696578527218072 l 0.47919680050442826 -0.006187088212964465" fill="#ff0701" stroke="none" /><line stroke="#e1ed5e" stroke-width="0.3" x1="15.007084014347285" x2="10.007500721073583" y1="101.09737516637583" y2="101.16192664675087" /><path d="M 14.007167355692545 101.11028546245083 a86.0,86.0 0 0,1 10.666146001902534,-42.60595125391555" fill="none" id="id58" stroke="none" /><text fill="#e1ed5e" style="font-size:6.75px; font-family:Arial;" text-anchor="middle"><textPath startOffset="22.20632615414155" xlink:href="#id58">October</textPath></text><path d="M 79.00175016825051 100.2711162175752 l -1.5101686496671107 0.019498349409070186 a22.51029451964412,22.51029451964412 0 0,0 -0.0016675869618236105,-0.38748848150929044 l 1.5102805339184373 0.0064996103038956355" fill="#ff1502" stroke="none" /><path d="M 79.00019446554 99.90962569577889 l -2.9370025216135613 -0.012639619874143124 a23.93702971928358,23.93702971928358 0 0,0 0.005319711777282275,-0.41201753967856825 l 2.9363498027185635 0.06319341761318331" fill="#ff2a04" stroke="none" /><path d="M 79.00486145842228 99.54816195383935 l -0.9367840159946383 -0.02016060330458459 a21.93700092985474,21.93700092985474 0 0,0 0.011374131850050323,-0.3774520624724845 l 0.936298189688943 0.03628281320206347" fill="#ff0d01" stroke="none" /><path d="M 79.01574976396665 99.18683210126434 l -0.05777342606489546 -0.002238797905453839 a21.057816788006058,21.057816788006058 0 0,0 0.017153488748706546,-0.3620830362341204 l 0.05772632908269011 0.003232940762583335" fill="#ff0100" stroke="none" /><path d="M 79.03285615573316 98.82574320788736 l -0.11077726027748577 -0.006204037672400317 a21.110950851632722,21.110950851632722 0 0,0 0.02344261415214073,-0.3626468649869841 l 0.11065405512093186 0.0081099669123962" fill="#ff0100" stroke="none" /><path d="M 79.05617556472873 98.46500227214037 l -0.08158442268582707 -0.005979419080718742 a21.081803248575607,21.081803248575607 0 0,0 0.029640529663333245,-0.36168953860122083 l 0.08146940920299674 0.007382874889717973" fill="#ff0100" stroke="none" /><path d="M 79.08570108090925 98.10471618934814 l -0.024795459385308034 -0.0022470001472415105 a21.024897064401053,21.024897064401053 0 0,0 0.03576522644646086,-0.3601509494516976 l 0.0247531072566185 0.0026734803033694288" fill="#ff0000" stroke="none" /><path d="M 79.12142395522702 97.74499172005258 l -0.05779793876561955 -0.006242515303767375 a21.05813407540223,21.05813407540223 0 0,0 0.04202566502396205,-0.36005023328417946 l 0.05768192073806859 0.007236486912808567" fill="#ff0100" stroke="none" /><path d="M 79.16333360222342 97.38593545837743 l -0.03208809205775061 -0.0040256124494769015 a21.03233962287195,21.03233962287195 0 0,0 0.048158049440101575,-0.3588334052543676 l 0.032014043559815165 0.004577359768503878" fill="#ff0000" stroke="none" /><path d="M 79.21141760316559 97.0276538004421 l -0.01996551492905362 -0.002854664223310666 a21.020168562026335,21.020168562026335 0 0,0 0.054296203019161236,-0.35774413817790734 l 0.019913418470590163 0.0031979147933100566" fill="#ff0000" stroke="none" /><path d="M 79.26566170972629 96.67025291283419 l -0.020158693906526696 -0.003237303808620282 a21.020416980089287,21.020416980089287 0 0,0 0.06044685007125177,-0.35676073082052895 l 0.020099982315051897 0.0035838229449771716" fill="#ff0000" stroke="none" /><path d="M 79.32604984820605 96.31383870115002 l -0.023594861657265546 -0.004206959253269971 a21.023966977339335,21.023966977339335 0 0,0 0.06659018781146193,-0.3557274459881713 l 0.023518949935941995 0.004612482704013938" fill="#ff0000" stroke="none" /><path d="M 79.3925641242962 95.95851677861259 l -0.03522089760419724 -0.006907441933491191 a21.035891842835245,21.035891842835245 0 0,0 0.07274482269917704,-0.3547295902791269 l 0.03509677899002563 0.0075126883760205845" fill="#ff0000" stroke="none" /><path d="M 79.46518482838121 95.60439243477599 l -0.044337731321403846 -0.00949077289434734 a21.045342134807054,21.045342134807054 0 0,0 0.07887555016532553,-0.3535836254499997 l 0.044167794154040735 0.010252567894306263" fill="#ff0000" stroke="none" /><path d="M 79.54389044137918 95.25157060432595 l -0.048267357021103366 -0.011204189940110677 a21.0495506975331,21.0495506975331 0 0,0 0.08496721278085209,-0.3522439515260656 l 0.048067343979436496 0.012033373125573036" fill="#ff0100" stroke="none" /><path d="M 79.62865764111835 94.90015583598534 l -0.08737475299924029 -0.02187374873561645 a21.09007112936689,21.09007112936689 0 0,0 0.09119313426964969,-0.3514043463616279 l 0.08698528685928325 0.023374520646108152" fill="#ff0100" stroke="none" /><path d="M 79.81627453868168 94.20196356495316 l -0.09656002989594246 -0.02773811864310403 a21.10046513126137,21.10046513126137 0 0,0 0.10328587541398672,-0.34822862573688185 l 0.0960682573702488 0.02939613112652509" fill="#ff0100" stroke="none" /><path d="M 79.91906864156998 93.8553929516997 l -0.013998256887633717 -0.004283356503759157 a21.014638932298173,21.014638932298173 0 0,0 0.10882032116564924,-0.34499015592946597 l 0.013922451953780631 0.004523678859639633" fill="#ff0000" stroke="none" /><path d="M 80.02781315780177 93.51064311812611 l -0.017066090159129705 -0.0055451088303878114 a21.01794434911777,21.01794434911777 0 0,0 0.1147606846868632,-0.3431198401980647 l 0.016968111700494108 0.005838051950774641" fill="#ff0000" stroke="none" /><path d="M 80.14247586403 93.16781622104843 l -0.167267817846349 -0.05755019931011293 a21.17689134610747,21.17689134610747 0 0,0 0.12156233379993622,-0.3436730874123422 l 0.1662524032366032 0.06042091314906617" fill="#ff0200" stroke="none" /><path d="M 80.38941819471856 92.48833698450439 l -0.08415993736981187 -0.03223673296408713 a21.090122705298324,21.090122705298324 0 0,0 0.13277382168700175,-0.3378948938603845 l 0.08359256580111901 0.033680631720235076" fill="#ff0100" stroke="none" /><path d="M 80.52162464483688 92.15188598940014 l -0.014787347340228156 -0.005958032213897602 a21.015942515147316,21.015942515147316 0 0,0 0.13808306174936302,-0.3343790866762912 l 0.0146825987046654 0.006211689343500054" fill="#ff0000" stroke="none" /><path d="M 80.65960295795068 91.81776055985345 l -0.22179532607843094 -0.09383377501162224 a21.240827623006933,21.240827623006933 0 0,0 0.1453573457169669,-0.335504794868571 l 0.2201472705187833 0.0976377144667925" fill="#ff0300" stroke="none" /><path d="M 81.10775173730289 90.83032412892265 l -0.015368612730156248 -0.007459419088934147 a21.01708324297064,21.01708324297064 0 0,0 0.16077066570989756,-0.324103851712152 l 0.01523793406684591 0.007722859300047663" fill="#ff0000" stroke="none" /><path d="M 81.26839172434947 90.50648371742162 l -0.029141852849981328 -0.01476961563922054 a21.032670921836708,21.032670921836708 0 0,0 0.16644911917413474,-0.321526718553878 l 0.02888330051573256 0.015269056453434047" fill="#ff0000" stroke="none" /><path d="M 81.43458229118936 90.18545643968196 l -0.04127062548696709 -0.021817572755779356 a21.046682662831497,21.046682662831497 0 0,0 0.17207356912034166,-0.31882619013397384 l 0.04088895714815362 0.022524746222225906" fill="#ff0000" stroke="none" /><path d="M 81.6062741919709 89.86733742301443 l -0.056196322591345806 -0.030957206866538134 a21.064158984793778,21.064158984793778 0 0,0 0.17768356222655282,-0.31607923073637556 l 0.055655119072362334 0.03191994753769827" fill="#ff0100" stroke="none" /><line stroke="#e1ed5e" stroke-width="0.3" x1="26.266209847984243" x2="21.928928074336255" y1="57.711370442889674" y2="55.22380399835377" /><path d="M 25.398753493254645 57.213857153982495 a86.0,86.0 0 0,1 29.58750427330803,-30.492523968695096" fill="none" id="id59" stroke="none" /><text fill="#e1ed5e" style="font-size:6.75px; font-family:Arial;" text-anchor="middle"><textPath startOffset="21.46611528233685" xlink:href="#id59">November</textPath></text><path d="M 81.78341655067845 89.55222093294921 l -0.0185504639776118 -0.010639269968957355 a21.02138489605439,21.02138489605439 0 0,0 0.18272621152430296,-0.3123383270667578 l 0.018364577982983875 0.010957009389606948" fill="#ff0000" stroke="none" /><path d="M 81.96595687620814 89.24020034530311 l -0.030540605832543737 -0.018221693151976 a21.035563446204545,21.035563446204545 0 0,0 0.1882023831280846,-0.30935523337786747 l 0.030222424418242213 0.018744699736917905" fill="#ff0000" stroke="none" /><path d="M 82.15384107792192 88.93136811851018 l -0.01283622757651601 -0.007961347784240149 a21.015104694533083,21.015104694533083 0 0,0 0.1933113470945576,-0.30577212728317216 l 0.012697284235995723 0.008181122781627845" fill="#ff0000" stroke="none" /><path d="M 82.7489923806493 88.02491185347247 l -0.020256346013133798 -0.014061296266644886 a21.02465845912668,21.02465845912668 0 0,0 0.20893242349301797,-0.295520096033778 l 0.020011302716237606 0.014407892632209068" fill="#ff0000" stroke="none" /><path d="M 82.95767976084542 87.72973835380427 l -0.011094027031450045 -0.00798756345823795 a21.013670354998094,21.013670354998094 0 0,0 0.21387652396080967,-0.2917273383232749 l 0.010954890557007003 0.008177345453013546" fill="#ff0000" stroke="none" /><path d="M 83.17141714833178 87.43820079747576 l -0.03070385369848776 -0.022919080489647428 a21.038314630135616,21.038314630135616 0 0,0 0.21912312317837085,-0.2883403447789505 l 0.03030479029600806 0.023444201149624474" fill="#ff0000" stroke="none" /><path d="M 85.05521093208273 85.24692304244772 l -0.013369716129783936 -0.013198209092610417 a21.018786751519176,21.018786751519176 0 0,0 0.2563933661741328,-0.2552923315782376 l 0.01314054978833797 0.01342639132095739" fill="#ff0000" stroke="none" /><path d="M 85.57189188830299 84.74124197986013 l -0.035531568651445 -0.037577179484041 a21.051715923938456,21.051715923938456 0 0,0 0.2654442099642471,-0.24670146400669377 l 0.034879474892341764 0.038183229565382254" fill="#ff0100" stroke="none" /><path d="M 85.83668400450813 84.49514656593479 l -0.012051729705918795 -0.013193259458217109 a21.01786914334926,21.01786914334926 0 0,0 0.269217898271744,-0.2417064872226874 l 0.011822843838203406 0.013398755450183292" fill="#ff0000" stroke="none" /><path d="M 86.10567301691215 84.25364557470407 l -0.03773443623643053 -0.042764202090594255 a21.057032137067853,21.057032137067853 0 0,0 0.2738479075584483,-0.23747820689259344 l 0.03699273003120872 0.043407402402868285" fill="#ff0100" stroke="none" /><path d="M 86.37877921826538 84.01681056812374 l -0.012706579068010055 -0.014909945556969038 a21.01958988586295,21.01958988586295 0 0,0 0.27740099586083,-0.2323153564078818 l 0.012448046248069692 0.015126459358663217" fill="#ff0000" stroke="none" /><path d="M 86.65592168130627 83.78471172551755 l -0.023690515893403756 -0.028787941393044435 a21.037282517524236,21.037282517524236 0 0,0 0.2815956485292625,-0.22769743077928958 l 0.02319146879964079 0.029191469436468335" fill="#ff0000" stroke="none" /><path d="M 86.93701828274178 83.55741782278169 l -0.01041372165040654 -0.013107916531894677 a21.016741059536937,21.016741059536937 0 0,0 0.2851946189815346,-0.22259892379717422 l 0.01018654750944631 0.013285229552290648" fill="#ff0000" stroke="none" /><path d="M 87.22198572758235 83.33499621200491 l -0.015023868923170376 -0.019594032936355803 a21.024690944982556,21.024690944982556 0 0,0 0.28909335125737445,-0.2177391186333423 l 0.014684363907405948 0.019849741075552447" fill="#ff0000" stroke="none" /><path d="M 87.51073957382395 83.11751280151077 l -0.16370650031256065 -0.22129195817261774 a21.275263417468537,21.275263417468537 0 0,0 0.2962881158212249,-0.2152659166866985 l 0.1598730681375541 0.2240771096759841" fill="#ff0400" stroke="none" /><path d="M 87.80319425747018 82.90503203632743 l -0.007294676168562969 -0.010224173282691337 a21.012559698233584,21.012559698233584 0 0,0 0.29624593353744405,-0.20753920827338868 l 0.007117603047458664 0.01034822432002259" fill="#ff0000" stroke="none" /><path d="M 88.39885842347998 82.49532879139004 l -0.020137282100519176 -0.030384639294295423 a21.036451837202538,21.036451837202538 0 0,0 0.30355897938919435,-0.19744320423708317 l 0.019611276927037652 0.030726767690913603" fill="#ff0000" stroke="none" /><path d="M 88.70189139769569 82.29822771554957 l -0.019082303287471635 -0.02989797667449827 a21.03546862427532,21.03546862427532 0 0,0 0.3068983193977417,-0.19217969945196078 l 0.018564831517487668 0.030222017449389283" fill="#ff0000" stroke="none" /><path d="M 89.00827224532344 82.1063720568725 l -0.007041422808947337 -0.011462856681466542 a21.013452833102146,21.013452833102146 0 0,0 0.3098362912797445,-0.18667289871412326 l 0.006843065311553651 0.011582364854209052" fill="#ff0000" stroke="none" /><line stroke="#e1ed5e" stroke-width="0.3" x1="56.762969772571076" x2="54.21961505331055" y1="26.818313649435495" y2="22.513508569990535" /><path d="M 56.25429882871897 25.957352633546506 a86.0,86.0 0 0,1 42.265352541879196,-11.944610805530505" fill="none" id="id60" stroke="none" /><text fill="#e1ed5e" style="font-size:6.75px; font-family:Arial;" text-anchor="middle"><textPath startOffset="22.20632615414155" xlink:href="#id60">December</textPath></text><path d="M 89.3179101791058 81.91981866633112 l -0.020044855883029577 -0.03392731527716139 a21.03940633158881,21.03940633158881 0 0,0 0.3133902403576577,-0.18153585515549575 l 0.01945788306005171 0.03426732782270433" fill="#ff0000" stroke="none" /><path d="M 89.63071344664047 81.73862282372117 l -0.006266820648761424 -0.011036513937021764 a21.012691638228606,21.012691638228606 0 0,0 0.31606681487017485,-0.17589084027697377 l 0.006075916706540995 0.01114275177418012" fill="#ff0000" stroke="none" /><path d="M 89.94658935756843 81.56283822128135 l -0.0068288960744428 -0.01252365651544762 a21.014264494176537,21.014264494176537 0 0,0 0.31907153940631167,-0.17043696620367704 l 0.006612310139825803 0.012639349220874103" fill="#ff0000" stroke="none" /><path d="M 90.26544431104013 81.39251694778311 l -0.006550724824476438 -0.012521629650690905 a21.014131638434204,21.014131638434204 0 0,0 0.3219560222426359,-0.16491837943242518 l 0.006334214993076785 0.012632534395621281" fill="#ff0000" stroke="none" /><path d="M 90.58718382345135 81.22770947309562 l -0.029037290820425027 -0.057910029174191406 a21.064782217754146,21.064782217754146 0 0,0 0.32552986113471727,-0.15973608909814033 l 0.0280361626752818 0.05840127840716139" fill="#ff0100" stroke="none" /><path d="M 90.91171255644093 81.06846463323043 l -0.006461610986368316 -0.013459985467496782 a21.014930627090795,21.014930627090795 0 0,0 0.32745443758149,-0.15374424912914908 l 0.006228962105269818 0.013569217236653441" fill="#ff0000" stroke="none" /><path d="M 91.23893434514133 80.91482961587045 l -0.024665190007985047 -0.05373083280094629 a21.05912168799699,21.05912168799699 0 0,0 0.3307464239088368,-0.14839627938104724 l 0.023736647632373854 0.05414744269852244" fill="#ff0100" stroke="none" /><path d="M 91.56875222667455 80.76684994638697 l -0.9070689298408995 -2.069182795433284 a23.259267908947457,23.259267908947457 0 0,0 0.36806821466904255,-0.15758760082500303 l 0.8713169573815487 2.0844899242210735" fill="#ff2003" stroke="none" /><path d="M 91.90106846888425 80.62456947434976 l -0.1667461115941752 -0.3989140651705414 a21.43236176649036,21.43236176649036 0 0,0 0.34160748552674264,-0.13935027059950383 l 0.15985475647905212 0.4017252219536222" fill="#ff0601" stroke="none" /><path d="M 92.23578459929587 80.48803036053334 l -0.11173944606974755 -0.28080837106167983 a21.30222350184307,21.30222350184307 0 0,0 0.3418670449076506,-0.13263910220095942 l 0.1068892361624206 0.2826901771531907" fill="#ff0400" stroke="none" /><path d="M 92.57280143429618 80.3572730644239 l -0.004400799547543343 -0.011638803385406625 a21.012443021373517,21.012443021373517 0 0,0 0.3394186691212728,-0.1250107603093454 l 0.0041998046537011155 0.011712831501074402" fill="#ff0000" stroke="none" /><path d="M 92.91201910852362 80.23233633223022 l -0.006133887631816381 -0.01710679381591602 a21.01817324880532,21.01817324880532 0 0,0 0.3416133700729952,-0.11918219706411527 l 0.0058385134955358745 0.017209844052241092" fill="#ff0000" stroke="none" /><path d="M 93.94186890950719 79.89281104454417 l -0.004217361082073835 -0.013997596767709777 a21.01461912616294,21.01461912616294 0 0,0 0.3472513527426204,-0.10137219212463709 l 0.003975790616032119 0.014068117811045697" fill="#ff0000" stroke="none" /><path d="M 95.692805502759 79.44645832069477 l -0.00492783556175117 -0.02351518457596782 a21.024025974880647,21.024025974880647 0 0,0 0.3548390958920541,-0.0711773844830466 l 0.004522330202560684 0.023596525136225073" fill="#ff0000" stroke="none" /><path d="M 97.47563105711357 79.15227682838746 l -0.004018144247217673 -0.033184198041122215 a21.03342658347519,21.03342658347519 0 0,0 0.3598051032413392,-0.04042829568038777 l 0.0034463374961605196 0.033248447192108475" fill="#ff0000" stroke="none" /><path d="M 97.83486435360386 79.11191278185805 l -0.004184317113560921 -0.040368085464716826 a21.040584366864515,21.040584366864515 0 0,0 0.36057036309392987,-0.03424050065809522 l 0.0034888269293947088 0.04043413063799258" fill="#ff0000" stroke="none" /><path d="M 98.19473922651362 79.07773832637324 l -0.0012887311788563913 -0.014935887018096962 a21.014991382493577,21.014991382493577 0 0,0 0.36066709831984234,-0.027994708287475443 l 0.0010314434966798795 0.014955857494034594" fill="#ff0000" stroke="none" /><path d="M 98.55514903715128 79.0497635885617 l -0.0016185521840266094 -0.023468891789884736 a21.023524637999717,21.023524637999717 0 0,0 0.3612421693593107,-0.021791114165325285 l 0.0012143339850929195 0.02349327533551643" fill="#ff0000" stroke="none" /><path d="M 98.91598698831166 79.02799685794201 l -0.0028955171881431914 -0.05601851169022756 a21.05609329435659,21.05609329435659 0 0,0 0.3621238632058362,-0.015593815297426263 l 0.0019308215929828825 0.05606005351184626" fill="#ff0100" stroke="none" /><path d="M 99.27714615592234 79.0124445844662 l -0.0005435272500772972 -0.01578093327483833 a21.01579029058936,21.01579029058936 0 0,0 0.3616450881594795,-0.009340225670221455 l 0.00027180389571881253 0.015787951087419427" fill="#ff0000" stroke="none" /><path d="M 99.63851952072746 79.00311137660856 l -0.0023195764299135503 -0.13473448981353733 a21.134754455140186,21.134754455140186 0 0,0 0.3638000557024493,-0.0031313419352075487 l 3.300532243165488e-17 0.13475445514018602" fill="#ff0200" stroke="none" /></svg>