<?xml version="1.0" encoding="utf-8" ?>
<svg baseProfile="full" height="200mm" version="1.1" viewBox="0,0,200,200" width="200mm" xmlns="http://www.w3.org/2000/svg" xmlns:ev="http://www.w3.org/2001/xml-events" xmlns:xlink="http://www.w3.org/1999/xlink"><defs /><rect fill="#1a1a1a" height="200" width="200" x="0" y="0" /><text alignment-baseline="middle" fill="#e1ed5e" style="dominant-baseline: central; font-size:9.0px; font-family:Arial;" text-anchor="middle" x="100.0" y="100.0">2024</text><line stroke="#e1ed5e" stroke-width="0.3" x1="100.0" x2="100.0" y1="15.0" y2="10.0" /><path d="M 100.0 14.0 a86.0,86.0 0 0,1 42.35913384403234,11.155469271406648" fill="none" id="id61" stroke="none" /><text fill="#e1ed5e" style="font-size:6.75px; font-family:Arial;" text-anchor="middle"><textPath startOffset="22.145653131862478" xlink:href="#id61">January</textPath></text><path d="M 101.44090949804482 79.04949213459386 l 0.0028231574733580496 -0.041048090064729634 a21.04114505943709,21.04114505943709 0 0,0 0.36013523427588584,0.02787674478735878 l -0.003527386524477356 0.0409935782823172" fill="#ff0000" stroke="none" /><path d="M 102.87502721639298 79.19773525538626 l 0.0023389376488282994 -0.01692338768643508 a21.017084252401276,21.017084252401276 0 0,0 0.3569650621980798,0.05246157137608739 l -0.002629105454590045 0.016880743011465277" fill="#ff0000" stroke="none" /><path d="M 104.29559338865022 79.4440306129975 l 0.006772333530979963 -0.032408067558074585 a21.033108115988433,21.033108115988433 0 0,0 0.35279291303639254,0.07688957338001322 l -0.007327663186506592 0.0322870360443426" fill="#ff0000" stroke="none" /><path d="M 104.64783097203109 79.52079915486377 l 0.011317696413602798 -0.049867858653466476 a21.051136030143066,21.051136030143066 0 0,0 0.35172222667738123,0.08300548780589008 l -0.012172076830868989 0.04966622720134892" fill="#ff0000" stroke="none" /><path d="M 106.72888874123014 80.10723608172694 l 6.52300753575635 -19.284112716982612 a41.357471124695834,41.357471124695834 0 0,0 0.6705704857511312,0.2332592240480112 l -6.853083793552499 19.16929506036601" fill="#f3ff19" stroke="none" /><path d="M 107.40779381753099 80.34994680014964 l 0.01371194805585899 -0.03637257129559501 a21.038871345000395,21.038871345000395 0 0,0 0.3368501005723463,0.13030085526572252 l -0.014334311121731195 0.036131827891834244" fill="#ff0000" stroke="none" /><path d="M 107.74402155503746 80.48000691201159 l 0.031681874130670584 -0.079859018941253 a21.085913933996128,21.085913933996128 0 0,0 0.33531175666573104,0.13636837232899587 l -0.033048091986841346 0.0793033900329635" fill="#ff0100" stroke="none" /><path d="M 108.73861861582097 80.90454125486305 l 0.02615965685470745 -0.05716357129393683 a21.062864946749624,21.062864946749624 0 0,0 0.32748872015781016,0.15328125690872335 l -0.027137090884022642 0.05670608281467991" fill="#ff0100" stroke="none" /><path d="M 109.06512990194946 81.05736502329252 l 0.01753144960525025 -0.03663398694522641 a21.040612814785046,21.040612814785046 0 0,0 0.3244660385387308,0.158712598649831 l -0.018157737406048115 0.03632763819817426" fill="#ff0000" stroke="none" /><path d="M 109.3889696526874 81.21577127319529 l 0.01529686189127232 -0.030603970744090842 a21.034213988499236,21.034213988499236 0 0,0 0.3215958821123121,0.1642091488679283 l -0.015819965717163237 0.030336870203328616" fill="#ff0000" stroke="none" /><path d="M 109.71004243097381 81.37971332152246 l 0.018771396458908435 -0.035996627811355424 a21.04059707549574,21.04059707549574 0 0,0 0.3188263481881596,0.1697570724447161 l -0.01938656043362756 0.035669087644066164" fill="#ff0000" stroke="none" /><path d="M 110.02825361518725 81.54914285379988 l 0.0308276542574266 -0.05671941164260285 a21.064555680804236,21.064555680804236 0 0,0 0.31622493344204616,0.1754046399808761 l -0.03179677585557304 0.05618185622858069" fill="#ff0100" stroke="none" /><line stroke="#e1ed5e" stroke-width="0.3" x1="143.13028292997686" x2="145.6673583964461" y1="26.7553504044142" y2="22.446841604673864" /><path d="M 143.63769802327073 25.89364864446614 a86.0,86.0 0 0,1 29.32050498858742,28.57503671076993" fill="none" id="id62" stroke="none" /><text fill="#e1ed5e" style="font-size:6.75px; font-family:Arial;" text-anchor="middle"><textPath startOffset="20.669276256404974" xlink:href="#id62">February</textPath></text><path d="M 110.65571695917076 81.90426304109057 l 1.4274472202270492 -2.4241174497154936 a23.813174537164212,23.813174537164212 0 0,0 0.35047010532466855,0.21044722842343694 l -1.468850082109152 2.3992562207561354" fill="#ff2803" stroke="none" /><path d="M 110.96478420261332 82.08984904055464 l 0.026314723259150748 -0.0429831228155944 a21.05039854667732,21.05039854667732 0 0,0 0.3065698561355632,0.19132226403711708 l -0.02704870818442651 0.042525061936931965" fill="#ff0000" stroke="none" /><path d="M 112.7482090630111 83.31218511350987 l 0.10003049510104972 -0.130943129109305 a21.164779255402788,21.164779255402788 0 0,0 0.2868231285751571,0.22303539961422564 l -0.10226356831143285 0.12920667787428852" fill="#ff0200" stroke="none" /><path d="M 113.03279911837588 83.53348406188908 l 0.024150960781723924 -0.03051394999806512 a21.038914907826754,21.038914907826754 0 0,0 0.28126948347302894,0.22657078586382473 l -0.02467121461001237 0.030094870340832133" fill="#ff0000" stroke="none" /><path d="M 113.31354834802062 83.75963576809568 l 0.5733218996772833 -0.6993594967693713 a21.904323894614688,21.904323894614688 0 0,0 0.2887466212790607,0.24088270110044543 l -0.5852428551182368 0.6894146117570555" fill="#ff0d01" stroke="none" /><path d="M 114.13192950727249 84.46653392183569 l 0.022488259328946814 -0.024718536365709438 a21.03341747817698,21.03341747817698 0 0,0 0.2649912415357205,0.24527193707593703 l -0.02290927217863224 0.024328853157397495" fill="#ff0000" stroke="none" /><path d="M 115.8921839302757 86.27271002978787 l 0.03532239762775698 -0.030510645787053935 a21.046675167707427,21.046675167707427 0 0,0 0.23382398746314306,0.2754440692895308 l -0.035840948598012214 0.029899794047971127" fill="#ff0000" stroke="none" /><path d="M 116.1254893667686 86.54754324733833 l 2.024530234171592 -1.688935126258868 a23.636517500375437,23.636517500375437 0 0,0 0.25724767889679284,0.3138003403665838 l -2.0532247323070125 1.6539325041937891" fill="#ff2503" stroke="none" /><path d="M 116.35404254752997 86.82634096563983 l 14.286776550957878 -11.508415881603378 a39.34545230625129,39.34545230625129 0 0,0 0.41918564202380443,0.529627364982546 l -14.482228623623241 11.261468572706155" fill="#fff316" stroke="none" /><line stroke="#e1ed5e" stroke-width="0.3" x1="172.87174338648825" x2="177.1583165268699" y1="56.24261187166439" y2="53.66864786411523" /><path d="M 173.72905801456457 55.72781907015455 a86.0,86.0 0 0,1 12.242430191666344,42.057860355516425" fill="none" id="id63" stroke="none" /><text fill="#e1ed5e" style="font-size:6.75px; font-family:Arial;" text-anchor="middle"><textPath startOffset="22.145653131862474" xlink:href="#id63">March</textPath></text><path d="M 118.36410011445183 89.81374322990088 l 0.015462006363745916 -0.008576514287137661 a21.017681352835968,21.017681352835968 0 0,0 0.1722995992949351,0.3170118561943692 l -0.015606955274022291 0.008309824618165138" fill="#ff0000" stroke="none" /><path d="M 119.16976305983485 91.42560881287824 l 0.03317691384948224 -0.014839611571565724 a21.0363444862967,21.0363444862967 0 0,0 0.1446159709543031,0.33090964271835593 l -0.03342676682075566 0.014267899077360419" fill="#ff0000" stroke="none" /><path d="M 119.4528033332814 92.08871423366111 l 0.024089772257294754 -0.009797100659904386 a21.02600577452699,21.02600577452699 0 0,0 0.13310595561121605,0.33551395938598555 l -0.02425440283463524 0.009382124060353547" fill="#ff0000" stroke="none" /><path d="M 119.58574465831526 92.42381321644754 l 0.01965261164033733 -0.007602052368664963 a21.02107169534,21.02107169534 0 0,0 0.127296919665905,0.3376702031976645 l -0.019780215120682967 0.007263568976842701" fill="#ff0000" stroke="none" /><path d="M 119.71291397450082 92.76114493625339 l 0.05134881583277976 -0.018855996429007003 a21.054701457830294,21.054701457830294 0 0,0 0.12167595184275357,0.34034929279853027 l -0.05166493771947657 0.017971747249559942" fill="#ff0100" stroke="none" /><path d="M 119.83427380445688 93.10060997987247 l 0.03272667943495732 -0.011384037939151569 a21.034650135160465,21.034650135160465 0 0,0 0.115705178225517,0.34206179996091185 l -0.032917279232839304 0.0108205635040781" fill="#ff0000" stroke="none" /><path d="M 119.94978838288452 93.4421083053983 l 0.12487623591002234 -0.041049299100838335 a21.131450063718987,21.131450063718987 0 0,0 0.11032154922735848,0.3455806816612006 l -0.125562500914638 0.0388995837482507" fill="#ff0200" stroke="none" /><path d="M 120.05942366710727 93.78553927170692 l 0.0537946713492299 -0.01666572669480047 a21.056317076556205,21.056317076556205 0 0,0 0.10400184258813681,0.3461883092097794 l -0.05407283394099404 0.015739813894297613" fill="#ff0100" stroke="none" /><path d="M 120.16314734710363 94.1308016681162 l 0.021754493290903936 -0.006332415943599781 a21.022657393275193,21.022657393275193 0 0,0 0.09788700669113737,0.3473664539984871 l -0.021859992056623343 0.005958038042099543" fill="#ff0000" stroke="none" /><path d="M 120.26092885502905 94.47779374421319 l 0.017812518733945792 -0.0048548811896893754 a21.01846227762258,21.01846227762258 0 0,0 0.09189123497117715,0.3489259865754354 l -0.01789323450985323 0.004548390241455435" fill="#ff0000" stroke="none" /><path d="M 120.35273937422433 94.82641323984039 l 0.11161152013487391 -0.028371211964830573 a21.115161005097953,21.115161005097953 0 0,0 0.08628305685020048,0.35206431611415867 l -0.11208210350136559 0.026451071242576972" fill="#ff0100" stroke="none" /><path d="M 120.51834098615036 95.52812308129327 l 0.0319749902398476 -0.006968800300470825 a21.032725589046894,21.032725589046894 0 0,0 0.07385720631139218,0.35343346880967386 l -0.0320899073756066 0.006418880205392564" fill="#ff0000" stroke="none" /><path d="M 120.65975698304385 96.23510406497455 l 0.11350064858149722 -0.02068359907708234 a21.11536987691422,21.11536987691422 0 0,0 0.06192351940898761,0.3571584044161228 l -0.11383898548271915 0.018732161740366904" fill="#ff0100" stroke="none" /><path d="M 120.77682067341334 96.94652285012252 l 0.017563099237686126 -0.0025811707694012092 a21.01775175758548,21.01775175758548 0 0,0 0.0493972047103887,0.35741356609437974 l -0.017604820503287367 0.002279296474935853" fill="#ff0000" stroke="none" /><path d="M 120.82617615685814 97.30363454192243 l 0.07557221742260013 -0.009784336553857714 a21.07620297427245,21.07620297427245 0 0,0 0.04337473914837748,0.35920506242560385 l -0.07572904283064126 0.00848559720484091" fill="#ff0100" stroke="none" /><path d="M 120.86939407059847 97.66154086499901 l 0.03904797339820337 -0.004375406865547081 a21.039292345459973,21.039292345459973 0 0,0 0.03713696338690465,0.35926643283091825 l -0.03911732926677409 0.0037044517516974062" fill="#ff0000" stroke="none" /><path d="M 120.96210409425399 98.7389718711861 l 0.019302831167855142 -0.0011612103898999116 a21.019337727391406,21.019337727391406 0 0,0 0.018575499947422882,0.3603597364953121 l -0.019319920571850693 0.000829680517857171" fill="#ff0000" stroke="none" /><path d="M 120.98066250479742 99.09900007780936 l 0.8890712681094672 -0.03818054569084256 a21.889890708933983,21.889890708933983 0 0,0 0.01289972614894495,0.3755614519907138 l -0.8895956812552603 0.022912829136008835" fill="#ff0d01" stroke="none" /><line stroke="#e1ed5e" stroke-width="0.3" x1="184.99686870605535" x2="189.99668451229388" y1="99.2704041080226" y2="99.22748670261217" /><path d="M 185.99683186730306 99.26182062694052 a86.0,86.0 0 0,1 -10.086455211305974,41.156179273409016" fill="none" id="id64" stroke="none" /><text fill="#e1ed5e" style="font-size:6.75px; font-family:Arial;" text-anchor="middle"><textPath startOffset="21.40746469413373" xlink:href="#id64">April</textPath></text><path d="M 120.9064616781168 101.97986365728391 l 0.017379371923950292 0.001645844590462953 a21.01745712957181,21.01745712957181 0 0,0 -0.037098421519637007,0.35889357522746723 l -0.01734855792264722 -0.0019439421008616109" fill="#ff0000" stroke="none" /><path d="M 120.82617615685814 102.69636545807757 l 0.02543433730377112 0.0032929841771456732 a21.025646622757645,21.025646622757645 0 0,0 -0.04941575970502454,0.3575478207923881 l -0.025374061043536376 -0.0037291131696188477" fill="#ff0000" stroke="none" /><path d="M 120.592083275326 104.11899336999214 l 2.7637093970185287 0.5528192815995718 a23.818456809900905,23.818456809900905 0 0,0 -0.0836394061806237,0.400244836380145 l -2.7538122800135403 -0.600180569265126" fill="#ff2803" stroke="none" /><path d="M 120.51834098615036 104.47187691870673 l 2.667066363427166 0.581274700489648 a23.729674571144688,23.729674571144688 0 0,0 -0.09016048997850676,0.3972637545721359 l -2.656695011890995 -0.626972789000801" fill="#ff2703" stroke="none" /><path d="M 120.43855184770803 104.8234425847677 l 0.04119168579807981 0.009721125689201405 a21.042323223690463,21.042323223690463 0 0,0 -0.08598541922230807,0.35084985302328253 l -0.04101874005947587 -0.010426803320583508" fill="#ff0000" stroke="none" /><path d="M 119.83427380445688 106.89939002012753 l 7.408335947626437 2.577003806981854 a28.843748474683075,28.843748474683075 0 0,0 -0.1666891623896576,0.46625925400457235 l -7.363006615192836 -2.703798017367348" fill="#ff6d0a" stroke="none" /><path d="M 119.71291397450082 107.23885506374661 l 0.039718068833127215 0.014585025028102152 a21.0423113217343,21.0423113217343 0 0,0 -0.1274255400832669,0.3380113841357406 l -0.03946184493541969 -0.015264689358001652" fill="#ff0000" stroke="none" /><path d="M 119.58574465831526 107.57618678355244 l 0.020201932345219095 0.007814541418066001 a21.02166068161567,21.02166068161567 0 0,0 -0.13307844882983386,0.33544462432814404 l -0.020064808549260797 -0.008160182959774206" fill="#ff0000" stroke="none" /><path d="M 119.4528033332814 107.91128576633889 l 0.03241487318034604 0.0131828467298905 a21.034993020035454,21.034993020035454 0 0,0 -0.13890523296353993,0.3333219924379731 l -0.032183795680320586 -0.013737348609141414" fill="#ff0000" stroke="none" /><path d="M 118.70294669586154 109.54985784667822 l 0.03695216984057275 0.018868041215230787 a21.04149055115597,21.04149055115597 0 0,0 -0.16702127102940706,0.32028530977895764 l -0.036622829836216446 -0.019499594098691297" fill="#ff0000" stroke="none" /><line stroke="#e1ed5e" stroke-width="0.3" x1="174.33088141563837" x2="178.70328620479359" y1="141.23008692659167" y2="143.65538615756765" /><path d="M 175.20536237346943 141.71514677278685 a86.0,86.0 0 0,1 -30.301960400862466,31.631185727798858" fill="none" id="id65" stroke="none" /><text fill="#e1ed5e" style="font-size:6.75px; font-family:Arial;" text-anchor="middle"><textPath startOffset="22.145653131862474" xlink:href="#id65">May</textPath></text><path d="M 118.00360718960297 110.81064883170644 l 0.032311566566515 0.01940216733647828 a21.037689274752044,21.037689274752044 0 0,0 -0.18856986073053708,0.30801469592813047 l -0.03197374138057325 -0.01995397938916577" fill="#ff0000" stroke="none" /><path d="M 117.423217284605 111.72311816256416 l 0.0470850471555338 0.031680921065132775 a21.056751056599627,21.056751056599627 0 0,0 -0.20436104641237388,0.298168874119518 l -0.04653426392783958 -0.03248453025469482" fill="#ff0100" stroke="none" /><path d="M 116.79662413953412 112.60449989151573 l 0.05623936305393525 0.042203066498569794 a21.070313332865076,21.070313332865076 0 0,0 -0.2195807814010837,0.28743829149179784 l -0.055506604298547126 -0.04316227123124491" fill="#ff0100" stroke="none" /><path d="M 116.35404254752997 113.17365903436017 l 0.019526023049595637 0.015728781994105854 a21.025073096321584,21.025073096321584 0 0,0 -0.22882606342403122,0.27913059077985053 l -0.019253140386936856 -0.016061654472449265" fill="#ff0000" stroke="none" /><path d="M 116.1254893667686 113.45245675266167 l 0.12575343401163933 0.10490798722837592 a21.163766944008945,21.163766944008945 0 0,0 -0.23512485165265276,0.2769764840337948 l -0.12393401885187205 -0.10705125371172743" fill="#ff0200" stroke="none" /><path d="M 115.89218393027572 113.72728997021213 l 0.1117085152984854 0.09649115492068067 a21.147612111183733,21.147612111183733 0 0,0 -0.23966179553129274,0.2726911292056073 l -0.11003565580860714 -0.0983945619375811" fill="#ff0200" stroke="none" /><path d="M 115.16444852881244 114.52719865689866 l 0.03045392370457075 0.029174170013354282 a21.042173139140594,21.042173139140594 0 0,0 -0.2521184997275108,0.2586957911479946 l -0.029948622826252796 -0.02969265322908625" fill="#ff0000" stroke="none" /><path d="M 114.13192950727249 115.5334660781643 l 0.030418060839517487 0.03343477732258915 a21.045201136709686,21.045201136709686 0 0,0 -0.2693134077604902,0.24082170988831256 l -0.02983962625564938 -0.033952017094288654" fill="#ff0000" stroke="none" /><path d="M 113.86319453409587 115.77377054828091 l 0.05708878968377085 0.06495656301555296 a21.08647823417688,21.08647823417688 0 0,0 -0.273943998181779,0.23662630102565718 l -0.05596531173913628 -0.06592699650592782" fill="#ff0100" stroke="none" /><path d="M 113.59037401385872 116.0094264158162 l 0.02496230536036083 0.02940553294768103 a21.038572037239962,21.038572037239962 0 0,0 -0.2773341291662804,0.2313619942806187 l -0.024453842032185362 -0.029829711140169933" fill="#ff0000" stroke="none" /><path d="M 112.45986205192187 116.90419585922612 l 0.35944317866565373 0.48765370492122 a21.60580981719733,21.60580981719733 0 0,0 -0.30044317870810333,0.21749769186740545 l -0.3510189895835825 -0.49375216816170253" fill="#ff0801" stroke="none" /><path d="M 111.27062007382361 117.71928675628689 l 0.010016647885646775 0.01574783419722855 a21.01866353441255,21.01866353441255 0 0,0 -0.3061076797010911,0.1910338317595843 l -0.009744839394840806 -0.015917462798360538" fill="#ff0000" stroke="none" /><line stroke="#e1ed5e" stroke-width="0.3" x1="143.1302829299769" x2="145.66735839644613" y1="173.24464959558577" y2="177.55315839532614" /><path d="M 143.63769802327073 174.10635135553383 a86.0,86.0 0 0,1 -40.68552437913181,11.842963189579606" fill="none" id="id66" stroke="none" /><text fill="#e1ed5e" style="font-size:6.75px; font-family:Arial;" text-anchor="middle"><textPath startOffset="21.407464694133747" xlink:href="#id66">June</textPath></text><path d="M 110.34350942703117 118.27599006163325 l 0.014669779380272523 0.02592009453383035 a21.02978344720996,21.02978344720996 0 0,0 -0.3157029263596049,0.1751150914517114 l -0.014222664864573163 -0.026168101418685436" fill="#ff0000" stroke="none" /><path d="M 108.73861861582097 119.09545874513695 l 0.03418910737181837 0.07470936975892743 a21.08216072658307,21.08216072658307 0 0,0 -0.3303741206648555,0.1477721419842235 l -0.03290158385133592 -0.0752852626530012" fill="#ff0100" stroke="none" /><path d="M 108.4095320186766 119.2426549942271 l 0.017055883173748218 0.03902719851775163 a21.042591376767845,21.042591376767845 0 0,0 -0.3322373918122554,0.14181238650814645 l -0.016383416191061623 -0.039314234685302" fill="#ff0000" stroke="none" /><path d="M 108.07796709384702 119.3841803445677 l 0.007259417329334258 0.017419958892315842 a21.018872045670022,21.018872045670022 0 0,0 -0.3342456452600217,0.13593479410148998 l -0.006959310878871675 -0.017542009573097112" fill="#ff0000" stroke="none" /><path d="M 107.407793817531 119.65005319985036 l 0.006018446831464884 0.01596464525495833 a21.017061406752664,21.017061406752664 0 0,0 -0.3386857895426893,0.12437011320708145 l -0.005743505634648557 -0.01606560747076168" fill="#ff0000" stroke="none" /><path d="M 107.06938296918513 119.77432235084164 l 0.010343669322443261 0.02893308402785282 a21.030726451900843,21.030726451900843 0 0,0 -0.34099242697963406,0.1186148669135401 l -0.009845470297787382 -0.029106383509983375" fill="#ff0000" stroke="none" /><path d="M 106.72888874123015 119.89276391827305 l 0.009515852600759912 0.028131927357948148 a21.029697757282197,21.029697757282197 0 0,0 -0.34296158647664715,0.1127382855575644 l -0.009031528476378543 -0.028291134317531774" fill="#ff0000" stroke="none" /><path d="M 104.9986988182912 120.39639698878246 l 0.02489234096999802 0.10156924568977635 a21.10457504630148,21.10457504630148 0 0,0 -0.3526150853681377,0.08321620002578138 l -0.023145101861981213 -0.10198158936178288" fill="#ff0100" stroke="none" /><path d="M 104.64783097203109 120.47920084513623 l 0.02428698016082769 0.10701291583718618 a21.109734322622,21.109734322622 0 0,0 -0.3540781811244027,0.07716969157772767 l -0.022446382417289152 -0.10741406554863261" fill="#ff0100" stroke="none" /><path d="M 103.94208987418118 120.62667999033965 l 0.005584814262898262 0.029222108141361145 a21.029750995858567,21.029750995858567 0 0,0 -0.3551677257286238,0.0647233908871935 l -0.005082354983217304 -0.02931367295991827" fill="#ff0000" stroke="none" /><path d="M 101.80034050326958 120.92268563240118 l 2.2802463355839486 26.499918852691547 a47.597842441637646,47.597842441637646 0 0,0 -0.814673350253703,0.06306086966399843 l -1.82500399055501 -26.5351574893506" fill="#acff20" stroke="none" /><path d="M 101.44090949804482 120.95050786540614 l 0.15392626758923347 2.238054148575363 a23.24334118399528,23.24334118399528 0 0,0 -0.39829750477965603,0.023960588827589786 l -0.11548441067711232 -2.240366715227645" fill="#ff2003" stroke="none" /><path d="M 101.08105385017728 120.97215588758144 l 0.05175870949306113 1.0041051367149845 a22.005438257470743,22.005438257470743 0 0,0 -0.37741866604904434,0.016207981452715767 l -0.034514282843187215 -1.0048456865935311" fill="#ff0e01" stroke="none" /><path d="M 100.72087961077811 120.9876233191556 l 0.1261996053537438 3.6741638140265356 a24.676330517335657,24.676330517335657 0 0,0 -0.42347718933512213,0.010907270220267494 l -0.06310910194787783 -3.675788801596848" fill="#ff3404" stroke="none" /><line stroke="#e1ed5e" stroke-width="0.3" x1="101.45913802915013" x2="101.54496967792366" y1="184.9874750549273" y2="189.98673829345242" /><path d="M 101.47630435890484 185.9873277026323 a86.0,86.0 0 0,1 -42.54439059252881,-10.42667462771756" fill="none" id="id67" stroke="none" /><text fill="#e1ed5e" style="font-size:6.75px; font-family:Arial;" text-anchor="middle"><textPath startOffset="22.145653131862474" xlink:href="#id67">July</textPath></text><path d="M 100.36049292484886 120.99690560180557 l 0.006597674018527571 0.3842814352503337 a21.38433806834675,21.38433806834675 0 0,0 -0.36709059886737977,0.003151031290851329 l -4.706783851913242e-17 -0.3843380683467501" fill="#ff0500" stroke="none" /><path d="M 100.0 121.0 l 1.7119019824174857e-16 1.3978740512034804 a22.39787405120348,22.39787405120348 0 0,0 -0.38448929176735963,-0.003300378143963076 l 0.023996366918507296 -1.3976680712539522" fill="#ff1402" stroke="none" /><path d="M 99.63950707515114 120.99690560180557 l -0.0024723044509330078 0.14399933978435125 a21.144020561544618,21.144020561544618 0 0,0 -0.36285826178071967,-0.00934594167660314 l 0.0049438803023965985 -0.1439356807577007" fill="#ff0200" stroke="none" /><path d="M 99.27912038922189 120.98762331915562 l -2.1626388323343173 62.962869957466836 a84.0,84.0 0 0,0 -1.440696957596645,-0.061869726296685634 l 3.2431615505318008 -62.916467662744324" fill="#4dd2ff" stroke="none" /><path d="M 98.91894614982273 120.97215588758144 l -0.13034463040303204 2.528651007970906 a23.532008223285853,23.532008223285853 0 0,0 -0.40324409832453006,-0.02425816361177278 l 0.1737330808600084 -2.5260408665344416" fill="#ff2403" stroke="none" /><path d="M 97.12497278360702 120.80226474461374 l -0.0034412781974445944 0.024899374765892563 a21.025136054968204,21.025136054968204 0 0,0 -0.3571018181899924,-0.052481669797447755 l 0.003868201995121909 -0.024836631669562393" fill="#ff0000" stroke="none" /><path d="M 96.41257539226777 120.69131181640829 l -0.0031655658349151626 0.018258142519405805 a21.018530530896715,21.018530530896715 0 0,0 -0.35497822529074874,-0.06468885759481861 l 0.003478524676721061 -0.018201110993221237" fill="#ff0000" stroke="none" /><path d="M 95.70440661134978 120.55596938700252 l -0.015504704862037378 0.07419562553119065 a21.07579832927462,21.07579832927462 0 0,0 -0.3535089653012444,-0.07704563363839137 l 0.01677608678241827 -0.07391853375908052" fill="#ff0100" stroke="none" /><path d="M 95.35216902796893 120.47920084513623 l -0.08751251802696036 0.38559630157000985 a21.395402261748576,21.395402261748576 0 0,0 -0.3574742243546883,-0.08436294359585755 l 0.09411889612153654 -0.3840372143279248" fill="#ff0500" stroke="none" /><path d="M 95.00130118170881 120.39639698878247 l -0.6893483490960075 2.812776505012654 a23.896016714998826,23.896016714998826 0 0,0 -0.39757817872468876,-0.10106281831444289 l 0.7375318210460751 -2.800528454862948" fill="#ff2904" stroke="none" /><path d="M 94.6519064749342 120.30758222061772 l -0.004343353736268437 0.016492421588946152 a21.017054755687077,21.017054755687077 0 0,0 -0.34810107340961344,-0.09487649549450453 l 0.004625828080577021 -0.016415431950297238" fill="#ff0000" stroke="none" /><path d="M 94.30408787586889 120.21278271476187 l -0.4674987996372743 1.6589883148735711 a22.723600115035197,22.723600115035197 0 0,0 -0.3745498410696953,-0.10902599998751764 l 0.4959086530885764 -1.6507186205835376" fill="#ff1802" stroke="none" /><path d="M 93.95794788825049 120.11202640906438 l -0.256824624370644 0.8548856468476907 a21.892630022388513,21.892630022388513 0 0,0 -0.3589967723469134,-0.11121811774642879 l 0.271462029589191 -0.8503509412946129" fill="#ff0d01" stroke="none" /><path d="M 93.61358852112213 120.00534299687104 l -0.03184147075571441 0.09974295362891797 a21.104702130152674,21.104702130152674 0 0,0 -0.34418479087116777,-0.11314037713797052 l 0.03354899927462572 -0.09918165508892589" fill="#ff0100" stroke="none" /><path d="M 93.27111125876986 119.89276391827306 l -0.04404758781766134 0.1302188666394789 a21.137466880452802,21.137466880452802 0 0,0 -0.34272311744684275,-0.11921689089763507 l 0.04627647730952592 -0.12944354317325338" fill="#ff0200" stroke="none" /><path d="M 92.59220618246901 119.65005319985036 l -7.241040676496465 19.207720681791344 a41.527279504805094,41.527279504805094 0 0,0 -0.6648868206047377,-0.2571925056056098 l 7.569699759594731 -19.080588288047693" fill="#f1ff19" stroke="none" /><path d="M 90.93487009805054 118.94263497670748 l -0.08820284098126341 0.18431001416287954 a21.204327977716922,21.204327977716922 0 0,0 -0.3269906803271036,-0.15994752745993868 l 0.09135377057043642 -0.1827687366057197" fill="#ff0300" stroke="none" /><path d="M 90.6110303473126 118.78422872680471 l -0.11979019922023472 0.23966064271368998 a21.267930803557864,21.267930803557864 0 0,0 -0.32516922054769554,-0.16603372093407895 l 0.1238866414815126 -0.23756897010677477" fill="#ff0400" stroke="none" /><path d="M 90.28995756902619 118.62028667847754 l -0.15798315227063223 0.3029535253383771 a21.341671647808706,21.341671647808706 0 0,0 -0.32338850514969364,-0.17218616406222145 l 0.1631604732068877 -0.30019689355358253" fill="#ff0500" stroke="none" /><path d="M 89.97174638481275 118.45085714620012 l -0.06291779333117326 0.11576165315060628 a21.131755110177274,21.131755110177274 0 0,0 -0.31723374347358874,-0.17596420989987469 l 0.06489572496086461 -0.11466452781758323" fill="#ff0200" stroke="none" /><line stroke="#e1ed5e" stroke-width="0.3" x1="58.13341422392154" x2="55.67067388415222" y1="173.97424548756322" y2="178.32567169271397" /><path d="M 57.64086615596768 174.84453072859336 a86.0,86.0 0 0,1 -31.369924170532247,-30.572349798747897" fill="none" id="id68" stroke="none" /><text fill="#e1ed5e" style="font-size:6.75px; font-family:Arial;" text-anchor="middle"><textPath startOffset="22.145653131862474" xlink:href="#id68">August</textPath></text><path d="M 88.72937992617639 117.7192867562869 l -0.06186489354233784 0.09726188813424837 a21.115269857015804,21.115269857015804 0 0,0 -0.3041748814532266,-0.19716248322132296 l 0.06352540725257406 -0.09618556320903072" fill="#ff0100" stroke="none" /><path d="M 87.83215693770417 117.11559508785305 l -0.019766538163848466 0.027804111358845147 a21.03411428790753,21.03411428790753 0 0,0 -0.29249337152540655,-0.21174264453878267 l 0.02024092006320891 -0.027460695446997085" fill="#ff0000" stroke="none" /><path d="M 87.54013794807813 116.9041958592261 l -0.04242948388957118 0.05756374371452691 a21.071511157825665,21.071511157825665 0 0,0 -0.28932891721392706,-0.2171178133974991 l 0.043411390014264556 -0.05682690305301292" fill="#ff0100" stroke="none" /><path d="M 86.68645165197938 116.24036423190432 l -0.07646184300840383 0.09327101594848565 a21.120606367378777,21.120606367378777 0 0,0 -0.2784155200263904,-0.2322641289971192 l 0.07805169719668695 -0.09194470303949626" fill="#ff0100" stroke="none" /><path d="M 83.4222238831116 112.89097897827486 l -2.3797160534288997 1.8504815967301826 a24.01451996755442,24.01451996755442 0 0,0 -0.2502633433183373,-0.3276027499649464 l 2.411131374101532 -1.809357933524366" fill="#ff2b04" stroke="none" /><path d="M 83.20337586046588 112.60449989151573 l -4.0492567066364344 3.0386377224092556 a26.062588180396332,26.062588180396332 0 0,0 -0.26546357029548134,-0.36015231686068977 l 4.100822296515746 -2.9686790962796863" fill="#ff4706" stroke="none" /><path d="M 82.98947788004972 112.3143062007846 l -1.862557122971657 1.3483477207219579 a23.299382658956215,23.299382658956215 0 0,0 -0.23175663100137203,-0.3259947251814765 l 1.8854288525029899 -1.3161757688309774" fill="#ff2103" stroke="none" /><path d="M 82.78059297857968 112.02048342749411 l -1.4581323249761273 1.0178896070965435 a22.778271387998874,22.778271387998874 0 0,0 -0.22106883268952393,-0.322546033616122 l 1.4753908944809764 -0.9927088384103705" fill="#ff1902" stroke="none" /><line stroke="#e1ed5e" stroke-width="0.3" x1="26.387840678322732" x2="22.057713659400548" y1="142.50000000000003" y2="145.00000000000006" /><path d="M 25.521815274538298 143.00000000000003 a86.0,86.0 0 0,1 -11.493303480769221,-40.785679425670985" fill="none" id="id69" stroke="none" /><text fill="#e1ed5e" style="font-size:6.75px; font-family:Arial;" text-anchor="middle"><textPath startOffset="21.40746469413373" xlink:href="#id69">September</textPath></text><path d="M 81.1358732173502 109.22738970284198 l -18.99828543334061 9.293013421670562 a42.14934863919055,42.14934863919055 0 0,0 -0.312348233892248,-0.6526876773125695 l 19.155012925192768 -8.965513242292886" fill="#eaff1a" stroke="none" /><path d="M 80.68587082218212 108.24405325689762 l -0.15024639086713504 0.0641312500585263 a21.163360935362984,21.163360935362984 0 0,0 -0.13975291449909502,-0.3353561195356742 l 0.15132514990271562 -0.0615426210815708" fill="#ff0200" stroke="none" /><path d="M 80.5471966667186 107.91128576633889 l -0.21103486810066624 0.08582604366074052 a21.227819721105792,21.227819721105792 0 0,0 -0.13438354672876376,-0.33873432358649375 l 0.2124770897955544 -0.08219070286068147" fill="#ff0300" stroke="none" /><path d="M 80.16572619554312 106.89939002012753 l -0.08453349370320275 0.029405137217140515 a21.08950180809586,21.08950180809586 0 0,0 -0.11600690050528527,-0.34295378826851797 l 0.08502581578085533 -0.027949674474460926" fill="#ff0100" stroke="none" /><path d="M 79.94057633289273 106.21446072829308 l -0.022112850281293124 0.006850617542370189 a21.023149710760066,21.023149710760066 0 0,0 -0.10383802157688869,-0.3456430023432385 l 0.022227191861811487 -0.006470011608408189" fill="#ff0000" stroke="none" /><path d="M 79.64726062577567 105.17358676015961 l -0.17738582638948275 0.045090783406328265 a21.18302707491537,21.18302707491537 0 0,0 -0.08656037853194339,-0.3531958832119306 l 0.17813373143771968 -0.042039075586298096" fill="#ff0200" stroke="none" /><path d="M 79.48165901384964 104.47187691870673 l -0.10236286310448295 0.022309509582604782 a21.104765786212692,21.104765786212692 0 0,0 -0.07411017817099552,-0.3546440307347151 l 0.10273075209984528 -0.020549027562480553" fill="#ff0100" stroke="none" /><path d="M 79.34024301695615 103.76489593502545 l -0.028741424523991053 0.005237644975496331 a21.029214763537595,21.029214763537595 0 0,0 -0.06167085853368873,-0.3557011236294136 l 0.028827100549914105 -0.004743488425490077" fill="#ff0000" stroke="none" /><path d="M 79.2786578344484 103.40968896794605 l -0.11677062254887524 0.019214561503984165 a21.118340938243037,21.118340938243037 0 0,0 -0.05579114494138396,-0.35821917239062095 l 0.11708325962852673 -0.017207207181913202" fill="#ff0100" stroke="none" /><path d="M 79.22317932658666 103.0534771498775 l -0.05464947270598294 0.008031590529830485 a21.055236503450896,21.055236503450896 0 0,0 -0.04948530365105502,-0.358051006142603 l 0.0547792929122505 -0.007092276187141855" fill="#ff0100" stroke="none" /><path d="M 79.17382384314188 102.69636545807758 l -0.10177358544460295 0.013176628213968497 a21.102623029702592,21.102623029702592 0 0,0 -0.04342911151393195,-0.3596553436110691 l 0.10198478321819623 -0.011427607679500141" fill="#ff0100" stroke="none" /><path d="M 79.0935383218832 101.97986365728391 l -0.09308437572237481 0.008815187160369435 a21.09350084774106,21.09350084774106 0 0,0 -0.031043985515514738,-0.36077816865105805 l 0.09322198393563035 -0.007215971133649386" fill="#ff0100" stroke="none" /><line stroke="#e1ed5e" stroke-width="0.3" x1="15.003131293944662" x2="10.003315487706104" y1="100.72959589197737" y2="100.7725132973878" /><path d="M 14.003168132696942 100.73817937305945 a86.0,86.0 0 0,1 10.791469493833604,-42.45332614584628" fill="none" id="id70" stroke="none" /><text fill="#e1ed5e" style="font-size:6.75px; font-family:Arial;" text-anchor="middle"><textPath startOffset="22.145653131862435" xlink:href="#id70">October</textPath></text><path d="M 79.00077361379809 100.18025310272382 l -0.11414793823696646 0.0009798227638642928 a21.114152143459503,21.114152143459503 0 0,0 0.0,-0.36246585097536366 l 0.11414793823696646 0.0009798227638642507" fill="#ff0100" stroke="none" /><path d="M 79.00077361379809 99.81974689727619 l -2.4986010369775657 -0.021447484831159255 a23.4986930857132,23.4986930857132 0 0,0 0.006924917595375704,-0.4033417330210489 l 2.497864687783524 0.06433613382126058" fill="#ff2303" stroke="none" /><path d="M 79.00696218219943 99.45929381324524 l -0.2053019767205039 -0.005287850664072623 a21.205370063568164,21.205370063568164 0 0,0 0.012496337708774905,-0.36381723769060786 l 0.20518095201487854 0.008811352918819015" fill="#ff0300" stroke="none" /><path d="M 79.01933749520258 99.09900007780938 l -2.8756800218066143 -0.12349407342596709 a23.8783304838029,23.8783304838029 0 0,0 0.021102088581433597,-0.40937488101151176 l 2.87313634376861 0.17284074781419081" fill="#ff2903" stroke="none" /><path d="M 79.03789590574601 98.7389718711861 l -14.348572296163328 -0.8631744786889864 a35.374512065419324,35.374512065419324 0 0,0 0.041667871629387294,-0.6058417086504873 l 14.331640463368876 1.1093596114937987" fill="#ffc212" stroke="none" /><path d="M 79.0935383218832 98.0201363427161 l -0.11204096385349659 -0.010610395765476994 a21.112542250197517,21.112542250197517 0 0,0 0.037266258564029216,-0.3605172463824651 l 0.11184231280780363 0.012532164430854836" fill="#ff0100" stroke="none" /><path d="M 79.13060592940154 97.66154086499901 l -0.350896232958353 -0.03931865480248541 a21.35309223004739,21.35309223004739 0 0,0 0.04394457609940642,-0.3639241298271907 l 0.3501695705992783 0.045336461553112356" fill="#ff0500" stroke="none" /><path d="M 79.22317932658666 96.9465228501225 l -0.1035306062169078 -0.015215433841657007 a21.104642705673307,21.104642705673307 0 0,0 0.055754956488845306,-0.3579868165654786 l 0.10325415758979496 0.01699043233858561" fill="#ff0100" stroke="none" /><path d="M 79.2786578344484 96.59031103205396 l -0.16674854006879944 -0.02743840881305954 a21.168990952104746,21.168990952104746 0 0,0 0.06208077006145767,-0.35806538439183533 l 0.16625295251510747 0.030296826125487553" fill="#ff0200" stroke="none" /><path d="M 79.407916724674 95.88100663000787 l -0.7509669017358073 -0.15021441240186284 a21.76584310220561,21.76584310220561 0 0,0 0.07643157600925272,-0.36575275974625315 l 0.7482776149021877 0.16308362343352512" fill="#ff0b01" stroke="none" /><path d="M 79.56144815229197 95.17655741523228 l -0.2998216910119023 -0.07075710270667 a21.30805780948497,21.30805780948497 0 0,0 0.08707129265550544,-0.35528058718593686 l 0.29856287184009866 0.07589351450072453" fill="#ff0400" stroke="none" /><path d="M 79.83685265289637 94.1308016681162 l -0.07088330519357963 -0.020633097077492158 a21.0738252507627,21.0738252507627 0 0,0 0.104088319362359,-0.3464761622661263 l 0.07051866582759096 0.02184686293434193" fill="#ff0100" stroke="none" /><path d="M 80.41425534168474 92.42381321644754 l -3.2147243447941327 -1.2435244367108298 a24.446854455544802,24.446854455544802 0 0,0 0.15476177258239332,-0.39010076478003114 l 3.192903897245608 1.2985262187044437" fill="#ff3104" stroke="none" /><path d="M 80.5471966667186 92.08871423366112 l -2.7052564859534023 -1.1002042618198238 a23.920421557330286,23.920421557330286 0 0,0 0.1579592503711519,-0.3790446978447569 l 2.6859713910457717 1.1464814691058445" fill="#ff2904" stroke="none" /><path d="M 80.68587082218212 91.75594674310238 l -0.622908589110298 -0.26588263625688535 a21.67728036044927,21.67728036044927 0 0,0 0.14902213400322284,-0.34099180605519347 l 0.6182525730900977 0.27653651208794566" fill="#ff0901" stroke="none" /><path d="M 80.83023694016515 91.42560881287825 l -0.9998015759220216 -0.44719852794727577 a22.09525783019998,22.09525783019998 0 0,0 0.15783961559824614,-0.3449080455974813 l 0.9919774954687287 0.46429555575942844" fill="#ff0f01" stroke="none" /><path d="M 80.9802524753101 91.09779779509293 l -0.029551534526406954 -0.013831610302811135 a21.03262831035212,21.03262831035212 0 0,0 0.15586253451002413,-0.32569275120182944 l 0.02930974205647784 0.014336863569727786" fill="#ff0000" stroke="none" /><path d="M 81.1358732173502 90.77261029715801 l -0.23620231120443771 -0.11553838665884708 a21.26294609829782,21.26294609829782 0 0,0 0.16319826178560248,-0.3265058457527572 l 0.23418413620709125 0.11957608857537456" fill="#ff0400" stroke="none" /><path d="M 81.29705330413844 90.45014215332179 l -0.4337650701214401 -0.22148353550249697 a21.48703910783031,21.48703910783031 0 0,0 0.1705579067092961,-0.3270672750180371 l 0.42989909443720403 0.22889705362502066" fill="#ff0701" stroke="none" /><path d="M 81.46374523516351 90.13048839642627 l -0.019150332803411486 -0.010196473571031837 a21.021695698185727,21.021695698185727 0 0,0 0.17233250825779295,-0.3170724049794148 l 0.018972474930267925 0.010523712025066245" fill="#ff0000" stroke="none" /><line stroke="#e1ed5e" stroke-width="0.3" x1="26.387840678322718" x2="22.05771365940052" y1="57.49999999999999" y2="54.99999999999999" /><path d="M 25.521815274538284 56.99999999999999 a86.0,86.0 0 0,1 29.574782752854787,-30.34633250058573" fill="none" id="id71" stroke="none" /><text fill="#e1ed5e" style="font-size:6.75px; font-family:Arial;" text-anchor="middle"><textPath startOffset="21.40746469413373" xlink:href="#id71">November</textPath></text><path d="M 81.81346652052679 89.5 l -0.3267357003671274 -0.18864094456082198 a21.377281889121644,21.377281889121644 0 0,0 0.1862127077850897,-0.3162298878054573 l 0.32344928245225835 0.19422200065985207" fill="#ff0500" stroke="none" /><path d="M 81.99639281039701 89.18935116829357 l -0.09626556325797003 -0.0578047048021205 a21.112287321486598,21.112287321486598 0 0,0 0.1892385151202867,-0.3091068926224531 l 0.09525908368229032 0.05944871354911668" fill="#ff0100" stroke="none" /><path d="M 82.18462484594161 88.88188828441811 l -0.3313456037646519 -0.20678416296404067 a21.39057598388393,21.39057598388393 0 0,0 0.1970808580387459,-0.3098438430973478 l 0.3277470541000161 0.21244168074006045" fill="#ff0500" stroke="none" /><path d="M 82.37810715431573 88.57770195909679 l -0.2544631923837063 -0.16493996696604712 a21.3032436462333,21.3032436462333 0 0,0 0.20154447067732456,-0.30516401644916796 l 0.2515942827856527 0.1692838617542761" fill="#ff0400" stroke="none" /><path d="M 82.576782715395 88.27688183743585 l -0.25936884888648 -0.1745149367947737 a21.312614239818313,21.312614239818313 0 0,0 0.20684426273195575,-0.3017919609416059 l 0.25633484933921086 0.17894163280641429" fill="#ff0400" stroke="none" /><path d="M 82.78059297857968 87.97951657250589 l -0.06993173624393434 -0.04881778307060228 a21.085285542022195,21.085285542022195 0 0,0 0.20973322823393836,-0.2950160511227913 l 0.06908340948002367 0.05001106090291385" fill="#ff0100" stroke="none" /><path d="M 82.98947788004972 87.6856937992154 l -0.11664329050620349 -0.08444074705242845 a21.143999642301246,21.143999642301246 0 0,0 0.21536470578136643,-0.29218358538177297 l 0.1151765651410183 0.08643064170306473" fill="#ff0200" stroke="none" /><path d="M 83.2033758604659 87.39550010848427 l -0.616344109817236 -0.4625161104273657 a21.770584981758184,21.770584981758184 0 0,0 0.22687854643322877,-0.29699130018027636 l 0.6083135860297004 0.4730283238485264" fill="#ff0b01" stroke="none" /><path d="M 83.42222388311158 87.10902102172516 l -0.3050611442308624 -0.2372173908997537 a21.38643808335195,21.38643808335195 0 0,0 0.22785067277388435,-0.2878818817555758 l 0.30094404081541637 0.24241921657001234" fill="#ff0500" stroke="none" /><path d="M 83.64595745247003 86.82634096563983 l -0.24518404694268703 -0.19750291254900482 a21.31483744589952,21.31483744589952 0 0,0 0.2319797093177092,-0.28297752599449094 l 0.24175751838634793 0.20168272024198866" fill="#ff0400" stroke="none" /><path d="M 83.8745106332314 86.54754324733833 l -0.25378103718296013 -0.211713167253387 a21.330495506810788,21.330495506810788 0 0,0 0.23697716975362018,-0.27915851009914683 l 0.25010930392222547 0.21603845980209052" fill="#ff0500" stroke="none" /><path d="M 84.10781606972428 86.27271002978789 l -0.4274838739312139 -0.369250388794208 a21.564879024301586,21.564879024301586 0 0,0 0.24439060070739047,-0.2780716414412142 l 0.42108220926523093 0.3765343080467224" fill="#ff0801" stroke="none" /><path d="M 84.34580500576568 86.00192230759919 l -0.23694730243297865 -0.21187973892514186 a21.3178632534554,21.3178632534554 0 0,0 0.2462744113536658,-0.2706987190046064 l 0.233275190237447 0.21591603348740604" fill="#ff0400" stroke="none" /><path d="M 84.58840730492382 85.73525988315684 l -0.3234456445461842 -0.29937645982885486 a21.440730472823873,21.440730472823873 0 0,0 0.25233102175197003,-0.2679668008390755 l 0.3182587890579425 0.3048847206124415" fill="#ff0601" stroke="none" /><path d="M 85.08716467003674 85.21462403516908 l -0.21059498230714932 -0.20879503600914442 a21.296556257116602,21.296556257116602 0 0,0 0.25962335596325503,-0.2574043662545627 l 0.20697970621391779 0.21237941249238054" fill="#ff0400" stroke="none" /><path d="M 85.34317274990677 84.96080404539775 l -0.25605783479621064 -0.2627378959649597 a21.366874388226567,21.366874388226567 0 0,0 0.26487549020549533,-0.253744727890873 l 0.25150985872541487 0.2670947541614012" fill="#ff0500" stroke="none" /><path d="M 85.60350026404147 84.71141617570332 l -0.04434749598253137 -0.04709550391843553 a21.064689155886068,21.064689155886068 0 0,0 0.26538522034158407,-0.24563659797688084 l 0.04353250432699402 0.04784984802768197" fill="#ff0100" stroke="none" /><path d="M 85.86807049272753 84.46653392183569 l -0.26802699678229686 -0.2946086208827696 a21.39828722111384,21.39828722111384 0 0,0 0.2738318163043516,-0.24486209867012163 l 0.26293015365455336 0.29916624943629216" fill="#ff0500" stroke="none" /><path d="M 86.40962598614128 83.9905735841838 l -0.23664202495444092 -0.27876371036842357 a21.365661939765282,21.365661939765282 0 0,0 0.2816458853593849,-0.23495901464982955 l 0.231821805433147 0.28278490893013497" fill="#ff0500" stroke="none" /><path d="M 86.68645165197937 83.75963576809568 l -0.26160173717578217 -0.3191115835069804 a21.412635034409004,21.412635034409004 0 0,0 0.2862657519321242,-0.23059542606718278 l 0.2560852148884124 0.3235553033675621" fill="#ff0600" stroke="none" /><path d="M 86.96720088162412 83.53348406188908 l -0.22393172815809043 -0.2829304232553407 a21.360825502534556,21.360825502534556 0 0,0 0.28947992916205656,-0.22510134382011385 l 0.21904185436078924 0.28673281869625933" fill="#ff0500" stroke="none" /><path d="M 87.54013794807813 83.09580414077388 l -0.2081846104766268 -0.282442407123663 a21.35087682365912,21.35087682365912 0 0,0 0.296898165603562,-0.21493137576333024 l 0.2033054344990969 0.28597455426007257" fill="#ff0500" stroke="none" /><path d="M 87.83215693770416 82.88440491214696 l -0.4529395354067266 -0.6371161797215921 a21.78171046378918,21.78171046378918 0 0,0 0.306608596939421,-0.21403661308736266 l 0.4419358472935402 0.6447976086140814" fill="#ff0b01" stroke="none" /><path d="M 88.12776184653039 82.6780497279521 l -0.012015390245661887 -0.01753081345270855 a21.02125321206475,21.02125321206475 0 0,0 0.29940642212293583,-0.20145400288838403 l 0.011712680025736725 0.017734490398202084" fill="#ff0000" stroke="none" /><path d="M 88.4268655584334 82.4767994020092 l -0.17976876276470877 -0.2721928192473494 a21.326198925374953,21.326198925374953 0 0,0 0.307213408774795,-0.19913201992071694 l 0.17506972173288773 0.2752386808719727" fill="#ff0400" stroke="none" /><path d="M 88.72937992617638 82.28071324371311 l -0.011155433945480776 -0.017538195030624548 a21.020785379271118,21.020785379271118 0 0,0 0.3061385814282928,-0.1910531167228415 l 0.010852723727489404 0.017727108595002088" fill="#ff0000" stroke="none" /><path d="M 89.03521579738668 82.08984904055464 l -0.010465628839748707 -0.017094818187187857 a21.020044006482347,21.020044006482347 0 0,0 0.30936224086309166,-0.1857631369391381 l 0.0101706314192228 0.017271955662249327" fill="#ff0000" stroke="none" /><line stroke="#e1ed5e" stroke-width="0.3" x1="56.869717070023135" x2="54.33264160355391" y1="26.7553504044142" y2="22.446841604673864" /><path d="M 56.362301976729285 25.89364864446614 a86.0,86.0 0 0,1 42.16139366436587,-11.88097634709845" fill="none" id="id72" stroke="none" /><text fill="#e1ed5e" style="font-size:6.75px; font-family:Arial;" text-anchor="middle"><textPath startOffset="22.145653131862474" xlink:href="#id72">December</textPath></text><path d="M 89.34428304082924 81.90426304109057 l -0.1458257634358028 -0.24764402687098008 a21.287389487153774,21.287389487153774 0 0,0 0.3164801589275596,-0.1827199049500011 l 0.14155313664784352 0.25011082909715515" fill="#ff0400" stroke="none" /><path d="M 89.65649057296885 81.72400993836675 l -0.15762175076725765 -0.2785025305812928 a21.320012930762367,21.320012930762367 0 0,0 0.32005990404808954,-0.17753183353000204 l 0.1528176585630655 0.28116727954444093" fill="#ff0400" stroke="none" /><path d="M 89.97174638481275 81.54914285379989 l -0.24285445004184136 -0.4468248348102169 a21.508557486335913,21.508557486335913 0 0,0 0.325917311830941,-0.17353261118438054 l 0.23514832242433847 0.45092791371717295" fill="#ff0701" stroke="none" /><path d="M 90.28995756902619 81.37971332152246 l -0.0395305049346328 -0.07580495550460879 a21.08549299444658,21.08549299444658 0 0,0 0.3223798960602743,-0.16460947197608014 l 0.038223387160776216 0.07647237915352284" fill="#ff0100" stroke="none" /><path d="M 90.93487009805054 81.0573650232925 l -0.15013832187037038 -0.3137313483609584 a21.347805800179405,21.347805800179405 0 0,0 0.33191902513512134,-0.15535486333731613 l 0.1447305828637265 0.3162624432688174" fill="#ff0500" stroke="none" /><path d="M 91.26138138417902 80.90454125486306 l -0.14831213939157925 -0.3240887906502179 a21.356412731136288,21.356412731136288 0 0,0 0.33467186632859913,-0.14969446895449912 l 0.14272687020736133 0.3265870105145626" fill="#ff0500" stroke="none" /><path d="M 91.92203290615298 80.6158196554323 l -0.08993044453352587 -0.21580032885165146 a21.233788936407347,21.233788936407347 0 0,0 0.33766328987319083,-0.13732472041284638 l 0.0862126934698942 0.21731230584378913" fill="#ff0300" stroke="none" /><path d="M 92.25597844496254 80.48000691201159 l -0.1314261746880936 -0.3312798141456014 a21.35639746723776,21.35639746723776 0 0,0 0.341933961985632,-0.13226740207416238 l 0.12571995020893226 0.3334871043578044" fill="#ff0500" stroke="none" /><path d="M 92.592206182469 80.34994680014964 l -0.0650166392452344 -0.17246436003940374 a21.18431255752809,21.18431255752809 0 0,0 0.3413810087722482,-0.12535983504085177 l 0.06204647881885922 0.17355504408897743" fill="#ff0200" stroke="none" /><path d="M 92.93061703081487 80.22567764915836 l -0.10277253223765462 -0.287473063793275 a21.305291591415866,21.305291591415866 0 0,0 0.34544422913215267,-0.12016343479383926 l 0.0978225310604976 0.2891949311557" fill="#ff0400" stroke="none" /><path d="M 93.27111125876988 80.10723608172694 l -0.12277096563009898 -0.3629505449144191 a21.38315246058902,21.38315246058902 0 0,0 0.3487258816744319,-0.11463312388252657 l 0.11652234630790605 0.3650045901989742" fill="#ff0500" stroke="none" /><path d="M 94.30408787586887 79.78721728523814 l -0.06840724115574488 -0.2427531660363014 a21.252207553937602,21.252207553937602 0 0,0 0.351995859926478,-0.09593803687902218 l 0.06422998029458923 0.2438916970594633" fill="#ff0300" stroke="none" /><path d="M 94.6519064749342 79.69241777938228 l -0.10021813727320056 -0.3805445909152517 a21.393519835222275,21.393519835222275 0 0,0 0.35594202808116876,-0.09047907163776041 l 0.09367081596665369 0.3822088943882751" fill="#ff0500" stroke="none" /><path d="M 95.35216902796891 79.52079915486377 l -0.163517515940359 -0.7204883462397081 a21.738810824965725,21.738810824965725 0 0,0 0.3646298185980989,-0.07946937185426907 l 0.15112528072314174 0.7231891762276913" fill="#ff0a01" stroke="none" /><path d="M 96.05791012581881 79.37332000966035 l -0.01600363196225853 -0.08373776491771225 a21.08525332550345,21.08525332550345 0 0,0 0.3561050947063587,-0.06489421074033928 l 0.014563803704861307 0.08400014958941282" fill="#ff0100" stroke="none" /><path d="M 96.41257539226777 79.30868818359171 l -0.029306918700217767 -0.16903451905228054 a21.171556300131872,21.171556300131872 0 0,0 0.358628517682636,-0.05901218611052195 l 0.026400897964508913 0.16951270365847085" fill="#ff0200" stroke="none" /><path d="M 96.76829788921471 79.25015418208739 l -0.12155855341451699 -0.7804931131436502 a21.789902513967956,21.789902513967956 0 0,0 0.37009100847563625,-0.05439063346210159 l 0.1081424393311958 0.7824648199046366" fill="#ff0b01" stroke="none" /><path d="M 97.12497278360702 79.19773525538626 l -0.10025586879558039 -0.7254015241996413 a21.732296804949414,21.732296804949414 0 0,0 0.3699894328105358,-0.04790253952382718 l 0.08778861409425055 0.7270156599238632" fill="#ff0a01" stroke="none" /><path d="M 97.48249496171623 79.15144685158666 l -0.027754896232275145 -0.22985035597853654 a21.231520021614383,21.231520021614383 0 0,0 0.3622138751518217,-0.04058682021660624 l 0.023805119479654174 0.23029293670211365" fill="#ff0300" stroke="none" /><path d="M 97.84075906011542 79.11130261209362 l -0.05487829348244293 -0.5308977078679986 a21.53372652483743,21.53372652483743 0 0,0 0.3680220881767536,-0.034852074381461214 l 0.04575664192067379 0.5317615377546435" fill="#ff0701" stroke="none" /><path d="M 98.5590905019552 79.04949213459386 l -0.03302849631128654 -0.48022708760757116 a21.48136154524498,21.48136154524498 0 0,0 0.368104251235261,-0.022144237670820348 l 0.02477989294354174 0.4807233031030856" fill="#ff0701" stroke="none" /><path d="M 98.9189461498227 79.02784411241856 l -0.008540251762181537 -0.1656786026397201 a21.165898569230755,21.165898569230755 0 0,0 0.3630195913510894,-0.015589623229782345 l 0.005694899810272038 0.165800794295331" fill="#ff0200" stroke="none" /><path d="M 99.63950707515114 79.00309439819443 l -0.009007788640719085 -0.5246585292887326 a21.524735850320532,21.524735850320532 0 0,0 0.3695007134895711,-0.0031717192262342977 l 1.285232158985808e-16 0.5247358503205319" fill="#ff0701" stroke="none" /></svg>