<?xml version="1.0" encoding="utf-8" ?>
<svg baseProfile="full" height="200mm" version="1.1" viewBox="0,0,200,200" width="200mm" xmlns="http://www.w3.org/2000/svg" xmlns:ev="http://www.w3.org/2001/xml-events" xmlns:xlink="http://www.w3.org/1999/xlink"><defs /><rect fill="#1a1a1a" height="200" width="200" x="0" y="0" /><text alignment-baseline="middle" fill="#e1ed5e" style="dominant-baseline: central; font-size:9.0px; font-family:Arial;" text-anchor="middle" x="100.0" y="100.0">2026</text><line stroke="#e1ed5e" stroke-width="0.3" x1="100.0" x2="100.0" y1="15.0" y2="10.0" /><path d="M 100.0 14.0 a86.0,86.0 0 0,1 42.46469731375804,11.215312516191453" fill="none" id="id109" stroke="none" /><text fill="#e1ed5e" style="font-size:6.75px; font-family:Arial;" text-anchor="middle"><textPath startOffset="22.20632615414155" xlink:href="#id109">January</textPath></text><path d="M 102.16513564639614 79.11191278185805 l 0.025736866679195152 -0.2482957207838431 a21.24962602281419,21.24962602281419 0 0,0 0.36350348596957466,0.04084385207224779 l -0.03000705615849507 0.24781591524099447" fill="#ff0000" stroke="none" /><path d="M 103.2404852339499 79.25152402106235 l 6.234129054894309 -39.916453125572694 a61.40034152329804,61.40034152329804 0 0,0 1.0428432644980428,0.17207807406806802 l -6.920301525531227 39.803228788565" fill="#31ff42" stroke="none" /><path d="M 103.59715602781102 79.31037775812273 l 0.16778264187414224 -0.9650288873437058 a21.979505879677145,21.979505879677145 0 0,0 0.37219140602669853,0.06801560046378245 l -0.18436916900374165 0.9619978055291849" fill="#ff0b01" stroke="none" /><path d="M 103.95276090670814 79.375362276772 l 7.431282922363935 -38.774801135191595 a60.48049099170213,60.48049099170213 0 0,0 1.0207770275895318,0.20475826876276482 l -8.097626359420591 38.64113891035162" fill="#30ff37" stroke="none" /><path d="M 105.71112130821622 79.79150937346287 l 0.860699348392597 -3.0455376055899235 a24.164822692566812,24.164822692566812 0 0,0 0.39930618387140937,0.11656842476858348 l -0.9129957499874335 3.0302708519026362" fill="#ff2a04" stroke="none" /><path d="M 106.0581310904928 79.89281104454417 l 0.3419705659078407 -1.1350145256354613 a22.185412097690428,22.185412097690428 0 0,0 0.36470136993158686,0.11331449091304627 l -0.3614573085501458 1.1289598998398944" fill="#ff0d01" stroke="none" /><path d="M 106.40334571778207 80.00007090966166 l 0.7986198909038554 -2.49437433057155 a23.61910233308314,23.61910233308314 0 0,0 0.38613540734103036,0.12730277282960312 l -0.8414381204873032 2.480257833482711" fill="#ff2203" stroke="none" /><path d="M 108.43124777332544 80.76684994638697 l 0.2947115757366464 -0.6722886233533154 a21.73404829947591,21.73404829947591 0 0,0 0.34134656034637245,0.15315225161400908 l -0.3062402545497991 0.6671160412227751" fill="#ff0701" stroke="none" /><path d="M 109.08828744355905 81.06846463323043 l 1.6990871785032942 -3.5393168636910106 a24.926023573765427,24.926023573765427 0 0,0 0.38520051661248583,0.1890162205942704 l -1.7597589621262117 3.509545482961908" fill="#ff3405" stroke="none" /><path d="M 110.36928655335952 81.73862282372117 l 6.6305096985410135 -11.67700765650103 a34.428185531650584,34.428185531650584 0 0,0 0.5128213775995338,0.2970592422351968 l -6.830527808605876 11.561144256875782" fill="#ffb310" stroke="none" /><line stroke="#e1ed5e" stroke-width="0.3" x1="143.23703022742887" x2="145.7803849466894" y1="26.81831364943548" y2="22.513508569990506" /><path d="M 143.74570117128098 25.957352633546492 a86.0,86.0 0 0,1 28.547481713284135,27.462654790039103" fill="none" id="id110" stroke="none" /><text fill="#e1ed5e" style="font-size:6.75px; font-family:Arial;" text-anchor="middle"><textPath startOffset="19.985693538727396" xlink:href="#id110">February</textPath></text><path d="M 110.68208982089419 81.91981866633111 l 6.711908729115552 -11.360373199640991 a34.1949913991294,34.1949913991294 0 0,0 0.5041936420253373,0.3037710278591001 l -6.906464437358527 11.243155562323276" fill="#ffb010" stroke="none" /><path d="M 111.2981086023043 82.29822771554956 l 33.894325806912875 -53.10531685335132 a84.0,84.0 0 0,0 1.2121318968628794,0.7884043033618879 l -34.803424729560035 52.514013625829904" fill="#4dd2ff" stroke="none" /><path d="M 113.34407831869373 83.78471172551755 l 10.41244302770796 -12.652860789896616 a37.38639240265432,37.38639240265432 0 0,0 0.4933979464135505,0.4132065907560273 l -10.628698511080627 12.47175304174677" fill="#ffd914" stroke="none" /><path d="M 113.6212207817346 84.01681056812373 l 0.7259144260603638 -0.8517905971110036 a22.119151006472883,22.119151006472883 0 0,0 0.28766082421601963,0.24945663210329955 l -0.7404690489231476 0.8391689715880327" fill="#ff0d01" stroke="none" /><path d="M 115.9244219780498 86.31012108654704 l 1.0522574511616054 -0.9046028240169237 a22.387642609876373,22.387642609876373 0 0,0 0.24870473380608252,0.294387959315211 l -1.0676727984548051 0.886355915072606" fill="#ff1001" stroke="none" /><path d="M 116.82858285166822 87.43820079747576 l 33.40682837520871 -24.93673256634093 a62.68760982805153,62.68760982805153 0 0,0 0.638032664400612,0.8702758372069047 l -33.831123652122955 24.35799428546253" fill="#33ff51" stroke="none" /><path d="M 117.04232023915458 87.72973835380427 l 12.617666532932192 -9.084565220633696 a36.54782409162853,36.54782409162853 0 0,0 0.36319379340716623,0.5137118639230474 l -12.772172946143241 8.866026856378854" fill="#ffce13" stroke="none" /><path d="M 117.2510076193507 88.02491185347247 l 7.642790615874641 -5.305376551331965 a30.303723380965522,30.303723380965522 0 0,0 0.29376650854795017,0.4310661024108963 l -7.732981590091325 5.173032425650662" fill="#ff7e0b" stroke="none" /><path d="M 117.45458315368197 88.32363383020206 l 1.0088202594644737 -0.6748574082408239 a22.213734253188683,22.213734253188683 0 0,0 0.20987045795702608,0.3196471058530483 l -1.0202873527794247 0.6573922384101016" fill="#ff0e01" stroke="none" /><line stroke="#e1ed5e" stroke-width="0.3" x1="172.23445277983987" x2="176.4835382374775" y1="55.19839476539836" y2="52.563006222186495" /><path d="M 173.08426987136738 54.67131705675599 a86.0,86.0 0 0,1 12.851231095245387,41.99856678651699" fill="none" id="id111" stroke="none" /><text fill="#e1ed5e" style="font-size:6.75px; font-family:Arial;" text-anchor="middle"><textPath startOffset="22.20632615414155" xlink:href="#id111">March</textPath></text><path d="M 117.84615892207809 88.93136811851018 l 0.754762632405836 -0.4681225675777865 a21.888147155347472,21.888147155347472 0 0,0 0.19583033596552943,0.3218935822074784 l -0.7627087666575892 0.45506121216322665" fill="#ff0901" stroke="none" /><path d="M 118.21658344932153 89.55222093294921 l 1.009280928673915 -0.5788541077808775 a22.163494766245073,22.163494766245073 0 0,0 0.18695684476645089,0.3325753656341768 l -1.019095414732799 0.5613952322119068" fill="#ff0d01" stroke="none" /><path d="M 118.56541770881063 90.18545643968196 l 1.172089022161995 -0.6196207887700923 a22.32579131002912,22.32579131002912 0 0,0 0.17668266252203277,0.34129466703058564 l -1.1825811178441443 0.5993533994791618" fill="#ff0f01" stroke="none" /><path d="M 119.61058180528143 92.48833698450437 l 1.346216105610508 -0.5156563855058912 a22.44159609839862,22.44159609839862 0 0,0 0.13507213207321023,0.36192616031716185 l -1.3548928261853435 0.49240708815939616" fill="#ff1101" stroke="none" /><path d="M 119.7369772167798 92.82701384747503 l 12.277752441947113 -4.462088965444176 a34.06343917049706,34.06343917049706 0 0,0 0.1955353642393275,0.5528048057799062 l -12.35274088699625 4.2500865332376545" fill="#ffaf10" stroke="none" /><path d="M 119.85752413597 93.16781622104841 l 1.5127637808704928 -0.5204818130537795 a22.59979860433535,22.59979860433535 0 0,0 0.12339781277076502,0.3689437538145194 l -1.521498887413028 0.49436495631694605" fill="#ff1302" stroke="none" /><path d="M 119.97218684219823 93.5106431181261 l 8.634812740871826 -2.8056207327921037 a30.07917941039802,30.07917941039802 0 0,0 0.15575932445871743,0.49379962360783797 l -8.68182754909875 2.6565709427578463" fill="#ff7b0b" stroke="none" /><path d="M 120.18372546131832 94.20196356495316 l 0.9656154931434522 -0.27738555115710445 a22.00466712128416,22.00466712128416 0 0,0 0.10144489936303286,0.36495127763675733 l -0.9702471630728481 0.26072297010139517" fill="#ff0b01" stroke="none" /><path d="M 120.37134235888165 94.90015583598534 l 10.001418447219894 -2.5037955084822863 a31.310061246408114,31.310061246408114 0 0,0 0.12638410550096446,0.5239437104588721 l -10.043035352981677 2.331266566364008" fill="#ff8b0c" stroke="none" /><line stroke="#e1ed5e" stroke-width="0.3" x1="184.98032266829074" x2="189.97916517819016" y1="98.17113171792111" y2="98.06355123074" /><path d="M 185.9800911702706 98.14961562048488 a86.0,86.0 0 0,1 -9.607161424134198,41.387399972396054" fill="none" id="id112" stroke="none" /><text fill="#e1ed5e" style="font-size:6.75px; font-family:Arial;" text-anchor="middle"><textPath startOffset="21.466115282336823" xlink:href="#id112">April</textPath></text><line stroke="#e1ed5e" stroke-width="0.3" x1="174.80103733775053" x2="179.2010983576182" y1="140.37084112569926" y2="142.7455964860345" /><path d="M 175.68104954172406 140.8457921977663 a86.0,86.0 0 0,1 -30.038265399797805,32.042727171017184" fill="none" id="id113" stroke="none" /><text fill="#e1ed5e" style="font-size:6.75px; font-family:Arial;" text-anchor="middle"><textPath startOffset="22.206326154141568" xlink:href="#id113">May</textPath></text><line stroke="#e1ed5e" stroke-width="0.3" x1="143.8653032363475" x2="146.44561519142675" y1="172.8068346515853" y2="177.08958963109032" /><path d="M 144.38136562736335 173.6633856474863 a86.0,86.0 0 0,1 -40.68145358897372,12.25698825130547" fill="none" id="id114" stroke="none" /><text fill="#e1ed5e" style="font-size:6.75px; font-family:Arial;" text-anchor="middle"><textPath startOffset="21.466115282336833" xlink:href="#id114">June</textPath></text><line stroke="#e1ed5e" stroke-width="0.3" x1="102.19456741930631" x2="102.32365962044197" y1="184.97166512339345" y2="189.96999836594603" /><path d="M 102.22038585953345 185.97133177190398 a86.0,86.0 0 0,1 -42.740103519485714,-10.115201625700543" fill="none" id="id115" stroke="none" /><text fill="#e1ed5e" style="font-size:6.75px; font-family:Arial;" text-anchor="middle"><textPath startOffset="22.20632615414155" xlink:href="#id115">July</textPath></text><line stroke="#e1ed5e" stroke-width="0.3" x1="58.666819895761336" x2="56.23545636021788" y1="174.27360380694188" y2="178.64263932499728" /><path d="M 58.180547188652646 175.14741091055294 a86.0,86.0 0 0,1 -31.652253787137756,-30.449443065178592" fill="none" id="id116" stroke="none" /><text fill="#e1ed5e" style="font-size:6.75px; font-family:Arial;" text-anchor="middle"><textPath startOffset="22.20632615414155" xlink:href="#id116">August</textPath></text><line stroke="#e1ed5e" stroke-width="0.3" x1="26.63291911575756" x2="22.317208475507996" y1="142.92168965132927" y2="145.44649492493687" /><path d="M 25.769776987707644 143.4266507060508 a86.0,86.0 0 0,1 -11.730757126820373,-40.83630448921669" fill="none" id="id117" stroke="none" /><text fill="#e1ed5e" style="font-size:6.75px; font-family:Arial;" text-anchor="middle"><textPath startOffset="21.46611528233685" xlink:href="#id117">September</textPath></text><line stroke="#e1ed5e" stroke-width="0.3" x1="15.007084014347285" x2="10.007500721073583" y1="101.09737516637583" y2="101.16192664675087" /><path d="M 14.007167355692545 101.11028546245083 a86.0,86.0 0 0,1 10.666146001902534,-42.60595125391555" fill="none" id="id118" stroke="none" /><text fill="#e1ed5e" style="font-size:6.75px; font-family:Arial;" text-anchor="middle"><textPath startOffset="22.20632615414155" xlink:href="#id118">October</textPath></text><line stroke="#e1ed5e" stroke-width="0.3" x1="26.266209847984243" x2="21.928928074336255" y1="57.711370442889674" y2="55.22380399835377" /><path d="M 25.398753493254645 57.213857153982495 a86.0,86.0 0 0,1 29.58750427330803,-30.492523968695096" fill="none" id="id119" stroke="none" /><text fill="#e1ed5e" style="font-size:6.75px; font-family:Arial;" text-anchor="middle"><textPath startOffset="21.46611528233685" xlink:href="#id119">November</textPath></text><line stroke="#e1ed5e" stroke-width="0.3" x1="56.762969772571076" x2="54.21961505331055" y1="26.818313649435495" y2="22.513508569990535" /><path d="M 56.25429882871897 25.957352633546506 a86.0,86.0 0 0,1 42.265352541879196,-11.944610805530505" fill="none" id="id120" stroke="none" /><text fill="#e1ed5e" style="font-size:6.75px; font-family:Arial;" text-anchor="middle"><textPath startOffset="22.20632615414155" xlink:href="#id120">December</textPath></text></svg>