<?xml version="1.0" encoding="utf-8" ?>
<svg baseProfile="full" height="200mm" version="1.1" viewBox="0,0,200,200" width="200mm" xmlns="http://www.w3.org/2000/svg" xmlns:ev="http://www.w3.org/2001/xml-events" xmlns:xlink="http://www.w3.org/1999/xlink"><defs /><rect fill="#1a1a1a" height="200" width="200" x="0" y="0" /><text alignment-baseline="middle" fill="#e1ed5e" style="dominant-baseline: central; font-size:9.0px; font-family:Arial;" text-anchor="middle" x="100.0" y="100.0">2025</text><line stroke="#e1ed5e" stroke-width="0.3" x1="100.0" x2="100.0" y1="15.0" y2="10.0" /><path d="M 100.0 14.0 a86.0,86.0 0 0,1 42.46469731375804,11.215312516191453" fill="none" id="id97" stroke="none" /><text fill="#e1ed5e" style="font-size:6.75px; font-family:Arial;" text-anchor="middle"><textPath startOffset="22.20632615414155" xlink:href="#id97">January</textPath></text><path d="M 100.0 79.0 l 0.0 -0.08078496904178678 a21.080784969041787,21.080784969041787 0 0,0 0.3628710597166827,0.00312334577346362 l -0.001390580444154355 0.08077299987688202" fill="#ff0100" stroke="none" /><path d="M 100.72285384407766 79.0124445844662 l 0.007437297175393759 -0.21593671789839686 a21.216064757713994,21.216064757713994 0 0,0 0.36487506132714403,0.01571228767582674 l -0.011153190891869324 0.21577670369837534" fill="#ff0300" stroke="none" /><path d="M 101.08401301168833 79.027996857942 l 0.006399694749069533 -0.12381255292928817 a21.123977838163718,21.123977838163718 0 0,0 0.36296823254668764,0.02189523501046363 l -0.008529976135369065 0.12368404853852046" fill="#ff0200" stroke="none" /><path d="M 101.44485096284872 79.0497635885617 l 0.0025598452790342183 -0.03711757485819412 a21.037205741105456,21.037205741105456 0 0,0 0.3610483494046327,0.028024300709274003 l -0.0031983840460080874 0.0370680119604556" fill="#ff0000" stroke="none" /><path d="M 101.80526077348638 79.07773832637324 l 0.0008670302020433803 -0.010048538711144818 a21.01008587485549,21.01008587485549 0 0,0 0.360047713525556,0.034190868783930094 l -0.001039870817843553 0.010032125412036508" fill="#ff0000" stroke="none" /><path d="M 102.16513564639614 79.11191278185805 l 0.0048435695312042705 -0.04672820522045904 a21.04697856244,21.04697856244 0 0,0 0.360036928102165,0.04045434390464739 l -0.005647201143094522 0.04663790784521083" fill="#ff0100" stroke="none" /><path d="M 102.52436894288641 79.15227682838746 l 0.01236261600870005 -0.10209775276811502 a21.1028434995266,21.1028434995266 0 0,0 0.3602408848182966,0.04676960583203645 l -0.01411822933484273 0.10186982377194186" fill="#ff0100" stroke="none" /><path d="M 102.88285421437855 79.19881850522331 l 1.4361804185221603 -10.362733361930895 a31.46178077217364,31.46178077217364 0 0,0 0.535795654051551,0.07896235165771048 l -1.614345053002367 10.336476526112216" fill="#ff900d" stroke="none" /><path d="M 103.2404852339499 79.25152402106235 l 0.014853083952194259 -0.09510268782172486 a21.096255573001294,21.096255573001294 0 0,0 0.3583056296533119,0.059123498973899805 l -0.01648791974438135 0.09483292590820039" fill="#ff0100" stroke="none" /><path d="M 103.59715602781102 79.31037775812273 l 0.01435480182464468 -0.08256395463880924 a21.083802547342096,21.083802547342096 0 0,0 0.3570239548351398,0.06524384570643328 l -0.01577387776268536 0.08230462758163742" fill="#ff0100" stroke="none" /><path d="M 103.95276090670814 79.375362276772 l 0.014664909862808186 -0.07651827679506691 a21.077910886690955,21.077910886690955 0 0,0 0.35574855411913536,0.07135981324766043 l -0.0159798734490689 0.07625450747019816" fill="#ff0100" stroke="none" /><path d="M 105.01212808612495 79.60689891045804 l 0.021149711538078132 -0.0860529096621987 a21.08861384519066,21.08861384519066 0 0,0 0.3517692371392478,0.08967381101558367 l -0.02262783736235098 0.08567610247774719" fill="#ff0100" stroke="none" /><path d="M 105.71112130821622 79.79150937346287 l 0.004505917101901877 -0.01594394140897314 a21.016568420461287,21.016568420461287 0 0,0 0.34728356341833183,0.10138159530414917 l -0.004779698243660818 0.01586401718612048" fill="#ff0000" stroke="none" /><path d="M 106.40334571778207 80.00007090966166 l 0.42289164148267433 -1.3208412001030931 a22.386888177296818,22.386888177296818 0 0,0 0.36599063180019686,0.12066135705776965 l -0.44556509552528867 1.3133661187860872" fill="#ff1402" stroke="none" /><path d="M 106.74666289553966 80.11325718540242 l 0.008761683989036637 -0.025826302397284926 a21.02727205532848,21.02727205532848 0 0,0 0.3417612551400498,0.11923379126020947 l -0.009204943192360102 0.025671657964867978" fill="#ff0000" stroke="none" /><path d="M 107.4271985657038 80.35727306442388 l 0.06808047083764286 -0.18005255770114853 a21.19249382858731,21.19249382858731 0 0,0 0.3401060569464088,0.1319558662305881 l -0.07116969278371867 0.1788539875800136" fill="#ff0300" stroke="none" /><path d="M 107.76421540070413 80.48803036053334 l 2.693129665919797 -6.768007012248588 a28.284151722424742,28.284151722424742 0 0,0 0.4508172293573788,0.18389966720138398 l -2.8092307648655632 6.720646458863625" fill="#ff6509" stroke="none" /><path d="M 108.09893153111575 80.62456947434976 l 0.0593729950937861 -0.1420406305596886 a21.153950294823364,21.153950294823364 0 0,0 0.3347524414221978,0.1433235253999585 l -0.061809194306299116 0.14099757719693928" fill="#ff0200" stroke="none" /><path d="M 108.43124777332544 80.76684994638697 l 0.23947430971741315 -0.5462827634306116 a21.596466933396997,21.596466933396997 0 0,0 0.33918576059882044,0.15218276375308332 l -0.2488421887830138 0.542079669160997" fill="#ff0801" stroke="none" /><path d="M 108.76106565485865 80.91482961587045 l 0.3440633511398579 -0.7495101552854105 a21.824709077477355,21.824709077477355 0 0,0 0.34007239724752575,0.15966855038071995 l -0.35691395968698164 0.7434766222646877" fill="#ff0c01" stroke="none" /><path d="M 109.41281617654863 81.2277094730956 l 0.07469960564045576 -0.1489758934017549 a21.16665487660939,21.16665487660939 0 0,0 0.3242928199703521,0.16611537799027803 l -0.07725291319956341 0.14766799009897633" fill="#ff0200" stroke="none" /><path d="M 109.73455568895987 81.39251694778311 l 0.4704046551648764 -0.899172692451835 a22.014786711802962,22.014786711802962 0 0,0 0.33426303774671845,0.17855173850221626 l -0.485812739439906 0.8909422274478646" fill="#ff0e01" stroke="none" /><path d="M 110.05341064243156 81.56283822128135 l 0.3633123525751199 -0.6662861847463781 a21.75890259290475,21.75890259290475 0 0,0 0.3272911036822212,0.18213714484859675 l -0.37472754532937624 0.6599336423376014" fill="#ff0b01" stroke="none" /><path d="M 110.36928655335952 81.73862282372117 l 3.764472836930605 -6.6296227798597975 a28.623854270854363,28.623854270854363 0 0,0 0.42636357835045297,0.2469773044453279 l -3.878033147746386 6.56384131802442" fill="#ff6a09" stroke="none" /><line stroke="#e1ed5e" stroke-width="0.3" x1="143.23703022742887" x2="145.7803849466894" y1="26.81831364943548" y2="22.513508569990506" /><path d="M 143.74570117128098 25.957352633546492 a86.0,86.0 0 0,1 28.547481713284135,27.462654790039103" fill="none" id="id98" stroke="none" /><text fill="#e1ed5e" style="font-size:6.75px; font-family:Arial;" text-anchor="middle"><textPath startOffset="19.985693538727396" xlink:href="#id98">February</textPath></text><path d="M 110.68208982089419 81.91981866633111 l 0.0714386431179059 -0.12091488121327873 a21.14044176098778,21.14044176098778 0 0,0 0.3117087002913631,0.18780100419309367 l -0.07350940962690651 0.11966726756157048" fill="#ff0200" stroke="none" /><path d="M 110.99172775467656 82.1063720568725 l 0.04177693814915263 -0.06800941621993291 a21.07981599623944,21.07981599623944 0 0,0 0.30754532822688396,0.19258485632141212 l -0.04294141874829985 0.06728021857557658" fill="#ff0100" stroke="none" /><path d="M 111.60114157652 82.49532879139004 l 1.4432419056814307 -2.1776714702433098 a23.61250841733125,23.61250841733125 0 0,0 0.3368665083389742,0.22745377017016638 l -1.4805131084269467 2.1525057877744733" fill="#ff2503" stroke="none" /><path d="M 111.90073688211348 82.69761687909136 l 1.4455841182378297 -2.1017228172521274 a23.550872839531532,23.550872839531532 0 0,0 0.33203238492430703,0.23260990443133292 l -1.4815476427457877 2.0765280700568587" fill="#ff2403" stroke="none" /><path d="M 112.19680574252982 82.90503203632743 l 1.0152187160899873 -1.4229243126470745 a22.7479652859887,22.7479652859887 0 0,0 0.3167975710147058,0.23016690811098078 l -1.0395616034584818 1.405238169719419" fill="#ff1902" stroke="none" /><path d="M 112.48926042617603 83.11751280151076 l 37.46778127852809 -50.647461595467746 a84.0,84.0 0 0,0 1.1550153849664682,0.8699336419766106 l -38.33404281725294 49.995011363985284" fill="#4dd2ff" stroke="none" /><path d="M 112.77801427241765 83.33499621200491 l 0.04709801460992193 -0.06142492684294784 a21.077403130543008,21.077403130543008 0 0,0 0.2860177959040698,0.22324142644223025 l -0.04814836567342203 0.060605111177493516" fill="#ff0100" stroke="none" /><path d="M 113.06298171725822 83.55741782278167 l 0.06221382314053241 -0.07830952547347195 a21.100014706766764,21.100014706766764 0 0,0 0.28243535353863775,0.22837641383263232 l -0.06355257524366129 0.07722701437670998" fill="#ff0100" stroke="none" /><path d="M 113.34407831869373 83.78471172551755 l 0.1835157499676459 -0.22300234737565028 a21.288804566136406,21.288804566136406 0 0,0 0.28095389203119203,0.2352908047747349 l -0.18732717895795528 0.219810385207096" fill="#ff0400" stroke="none" /><path d="M 113.6212207817346 84.01681056812373 l 0.2933895325658394 -0.3442643322115126 a21.45232217307163,21.45232217307163 0 0,0 0.27898867709016123,0.24193623157251198 l -0.2992720083027648 0.33916310721932935" fill="#ff0601" stroke="none" /><path d="M 113.89432698308785 84.25364557470407 l 0.22221986178511297 -0.25184038840224715 a21.335864925531663,21.335864925531663 0 0,0 0.2732911064335294,0.2453634537276322 l -0.2265219558146324 0.24797792590531748" fill="#ff0500" stroke="none" /><path d="M 114.16331599549186 84.49514656593476 l 0.19641300288284783 -0.2150170781484023 a21.291222271807865,21.291222271807865 0 0,0 0.2684641810450616,0.24950819799797092 l -0.20008506772275625 0.21160429407579087" fill="#ff0400" stroke="none" /><path d="M 114.42810811169701 84.74124197986012 l 0.1824336156213777 -0.19293661885226876 a21.26553071950875,21.26553071950875 0 0,0 0.26381081361461417,0.25378579368022514 l -0.1857276728484101 0.18976773840974173" fill="#ff0400" stroke="none" /><path d="M 114.94478906791727 85.2469230424477 l 0.09577223194774646 -0.09454366347363653 a21.134576464195153,21.134576464195153 0 0,0 0.2533489603589099,0.26109837365219474 l -0.09738545600976545 0.09288109427132746" fill="#ff0200" stroke="none" /><path d="M 115.19652480421416 85.50635884689758 l 42.84993384784346 -40.86799927129364 a80.21410469814619,80.21410469814619 0 0,0 0.9443594247744931,1.0073767907927076 l -43.547060594588416 40.12435306362288" fill="#48f5ff" stroke="none" /><path d="M 115.4437574822437 85.77008943001954 l 6.53340895498893 -6.019896728726357 a29.883951215402966,29.883951215402966 0 0,0 0.3453109907589372,0.3813010206447618 l -6.636063586363902 5.906542920812046" fill="#ff7b0b" stroke="none" /><path d="M 115.68641384162765 86.03803664274999 l 0.048989552234706676 -0.04360399643250059 a21.065584180509042,21.065584180509042 0 0,0 0.23875144921175803,0.27293417881018023 l -0.04973286502431292 0.04275426141937258" fill="#ff0100" stroke="none" /><path d="M 115.9244219780498 86.31012108654704 l 0.06288646544152537 -0.05406212535539441 a21.082930217253246,21.082930217253246 0 0,0 0.23421065982271086,0.27723154738516953 l -0.06380773875135345 0.052971628341118335" fill="#ff0100" stroke="none" /><path d="M 116.15771136456269 86.58626213691792 l 0.009354003210746054 -0.007765465306835644 a21.01215729523777,21.01215729523777 0 0,0 0.22863379174711984,0.28027799471813 l -0.009486287034274761 0.007603300980604809" fill="#ff0000" stroke="none" /><path d="M 116.38621287248628 86.86637796730983 l 0.026228321569558056 -0.021022115648505157 a21.03361330389437,21.03361330389437 0 0,0 0.22400389456097552,0.2844621981407887 l -0.02658629672449762 0.020567523554678058" fill="#ff0000" stroke="none" /><path d="M 116.60985879189232 87.15038557335679 l 0.03930912487418903 -0.030410077798412948 a21.049698894656522,21.049698894656522 0 0,0 0.21924169520472692,0.2884963716667775 l -0.039826760303029445 0.029728930250601904" fill="#ff0100" stroke="none" /><path d="M 117.04232023915458 87.72973835380427 l 0.08227516722953211 -0.05923711177375156 a21.10138164801355,21.10138164801355 0 0,0 0.20969485974487484,0.2965985080418397 l -0.08328264677828986 0.057812103400118706" fill="#ff0100" stroke="none" /><path d="M 117.2510076193507 88.02491185347247 l 0.05446610576769699 -0.03780859831252061 a21.066302690623047,21.066302690623047 0 0,0 0.20421827745846602,0.29966512295842246 l -0.055108848894896395 0.03686545208369169" fill="#ff0100" stroke="none" /><path d="M 117.45458315368197 88.32363383020206 l 0.050239821968652176 -0.03360828227442928 a21.060444655254866,21.060444655254866 0 0,0 0.19897443240289392,0.3030517114007602 l -0.05081088972947102 0.03273850689599512" fill="#ff0100" stroke="none" /><path d="M 117.65298651832404 88.62581576622439 l 0.17329745413836284 -0.11165913306329057 a21.20615472249571,21.20615472249571 0 0,0 0.19506875629165119,0.30855192659024094 l -0.17519380667596973 0.10865955875884346" fill="#ff0300" stroke="none" /><line stroke="#e1ed5e" stroke-width="0.3" x1="172.23445277983987" x2="176.4835382374775" y1="55.19839476539836" y2="52.563006222186495" /><path d="M 173.08426987136738 54.67131705675599 a86.0,86.0 0 0,1 12.851231095245387,41.99856678651699" fill="none" id="id99" stroke="none" /><text fill="#e1ed5e" style="font-size:6.75px; font-family:Arial;" text-anchor="middle"><textPath startOffset="22.20632615414155" xlink:href="#id99">March</textPath></text><path d="M 117.84615892207809 88.93136811851018 l 0.04110747114514861 -0.025495876601306876 a21.048372139787467,21.048372139787467 0 0,0 0.18831698080278347,0.3095436018236472 l -0.04154025023415601 0.024784501570578214" fill="#ff0100" stroke="none" /><path d="M 118.03404312379186 89.2402003453031 l 0.35257370486463846 -0.21035895288799172 a21.4105595041186,21.4105595041186 0 0,0 0.1861090715073446,0.31812073134795127 l -0.3561424508423104 0.20425880918614514" fill="#ff0600" stroke="none" /><path d="M 118.56541770881063 90.18545643968196 l 0.11621449110745466 -0.06143638689976872 a21.131454317459195,21.131454317459195 0 0,0 0.16723087481760238,0.323036821629229 l -0.1172547990851734 0.05942684301019493" fill="#ff0200" stroke="none" /><path d="M 118.73160827565052 90.50648371742162 l 0.21985627289257464 -0.11142711697883668 a21.246480796672742,21.246480796672742 0 0,0 0.16252544761729393,0.3276413849592219 l -0.2217417334632767 0.1076261435206649" fill="#ff0300" stroke="none" /><path d="M 118.89224826269711 90.83032412892265 l 0.08434744943843604 -0.04093947745910707 a21.093757842559405,21.093757842559405 0 0,0 0.15573401497976336,0.3280155526728384 l -0.08503965825995559 0.0394815091457283" fill="#ff0100" stroke="none" /><path d="M 119.196687751892 91.48605970444005 l 0.20474924306021405 -0.09080852142338687 a21.223983124580474,21.223983124580474 0 0,0 0.14524207376878012,0.33523873131918336 l -0.20628202667167492 0.08727064551760073" fill="#ff0300" stroke="none" /><path d="M 119.34039704204932 91.81776055985345 l 0.10979491199966186 -0.04645035245852744 a21.119216433198343,21.119216433198343 0 0,0 0.13876161227323838,0.33602225059200264 l -0.11057821115909766 0.04455353141322166" fill="#ff0200" stroke="none" /><path d="M 119.47837535516314 92.15188598940014 l 0.05367808592427867 -0.021627663012092412 a21.057871346241978,21.057871346241978 0 0,0 0.13257078179688142,0.33737817948665055 l -0.05404241760286052 0.02070047862965746" fill="#ff0100" stroke="none" /><path d="M 119.61058180528143 92.48833698450437 l 0.07468620286706269 -0.02860790125529209 a21.079977752612415,21.079977752612415 0 0,0 0.12687678392466814,0.3399667017498199 l -0.07516757529335609 0.02731806247613892" fill="#ff0100" stroke="none" /><path d="M 119.7369772167798 92.82701384747503 l 0.05796892506771273 -0.0210675774826325 a21.061678514042516,21.061678514042516 0 0,0 0.12090097418295494,0.34180333471548874 l -0.05832298006047721 0.020066616340529225" fill="#ff0100" stroke="none" /><path d="M 119.85752413597 93.16781622104841 l 0.1207107695350995 -0.04153177183194616 a21.127655700825528,21.127655700825528 0 0,0 0.11535972280547357,0.34491088792569996 l -0.12140778611234314 0.0394477809839322" fill="#ff0200" stroke="none" /><path d="M 120.08093135843002 93.85539295169968 l 0.06494334849009956 -0.019872153823431438 a21.06791569046022,21.06791569046022 0 0,0 0.10312654729176904,0.3476914505150097 l -0.06527579289357087 0.01875131656189183" fill="#ff0100" stroke="none" /><path d="M 120.18372546131832 94.20196356495316 l 0.047692028362372116 -0.013700152562829198 a21.04962079956593,21.04962079956593 0 0,0 0.09704198895044913,0.3491116662764827 l -0.04792078787918434 0.012877182867394586" fill="#ff0100" stroke="none" /><path d="M 120.28053869075195 94.5502522615342 l 0.1295342220432791 -0.034808189486416084 a21.134129507326612,21.134129507326612 0 0,0 0.09138364199968234,0.35213845035843305 l -0.13011419591326412 0.03257331357913259" fill="#ff0200" stroke="none" /><path d="M 120.37134235888165 94.90015583598534 l 0.33784570703827344 -0.08457765948964831 a21.34827159265283,21.34827159265283 0 0,0 0.08617300962765127,0.3572427579144845 l -0.33925151692674416 0.07874966991575767" fill="#ff0500" stroke="none" /><path d="M 120.45610955862082 95.25157060432595 l 0.1462659926717607 -0.033952386557166064 a21.150154937198824,21.150154937198824 0 0,0 0.07926837663495784,0.35534458948782655 l -0.1468287563087561 0.03142962751937562" fill="#ff0200" stroke="none" /><path d="M 120.53481517161879 95.60439243477599 l 0.031528456983169355 -0.006748866394794739 a21.032242685951303,21.032242685951303 0 0,0 0.07273220344478287,0.35466805431306603 l -0.031639956342949124 0.0062051559183169125" fill="#ff0000" stroke="none" /><path d="M 120.6074358757038 95.95851677861258 l 0.038984808066300544 -0.007645611450123318 a21.039727454416468,21.039727454416468 0 0,0 0.06664010670306525,0.35599411470318854 l -0.03911063867922509 0.006973419284371992" fill="#ff0000" stroke="none" /><path d="M 120.67395015179393 96.31383870115 l 0.1964975941872461 -0.035035482899590256 a21.19959656706312,21.19959656706312 0 0,0 0.06096210348605773,0.35980178564152726 l -0.19707155919352687 0.03164790894222514" fill="#ff0300" stroke="none" /><path d="M 120.73433829027371 96.67025291283417 l 0.10909395336158294 -0.017519501628057037 a21.110491735425573,21.110491735425573 0 0,0 0.054529512535485894,0.3592813563847959 l -0.10937935933636872 0.015639032851178996" fill="#ff0100" stroke="none" /><path d="M 120.78858239683441 97.02765380044208 l 0.03874527806426381 -0.0055397899581005475 a21.03913931329312,21.03913931329312 0 0,0 0.04817361878870009,0.3589494149856742 l -0.038834895910800096 0.0048720329077619985" fill="#ff0000" stroke="none" /><path d="M 120.83666639777658 97.38593545837742 l 0.041555430377564394 -0.005213337632235079 a21.041881173373394,21.041881173373394 0 0,0 0.04199322914840511,0.359772342510672 l -0.041639012529558414 0.004497256796710338" fill="#ff0000" stroke="none" /><path d="M 120.87857604477298 97.74499172005257 l 0.20153662259231006 -0.021767133528824943 a21.202708703187547,21.202708703187547 0 0,0 0.036067699914299284,0.36319681599440945 l -0.20188144818883802 0.01829478682998054" fill="#ff0300" stroke="none" /><path d="M 120.96714384426684 98.82574320788733 l 0.3591809191856345 -0.020115788639773632 a21.359743766672388,21.359743766672388 0 0,0 0.01739943547165855,0.3672745828344767 l -0.3594739628907895 0.013930099182297146" fill="#ff0500" stroke="none" /><path d="M 120.98425023603335 99.18683210126433 l 0.09349143780640845 -0.0036229188641807015 a21.093561607960776,21.093561607960776 0 0,0 0.010936816371721513,0.36293969076600796 l -0.09353994863377503 0.002013080673173688" fill="#ff0100" stroke="none" /><line stroke="#e1ed5e" stroke-width="0.3" x1="184.98032266829074" x2="189.97916517819016" y1="98.17113171792111" y2="98.06355123074" /><path d="M 185.9800911702706 98.14961562048488 a86.0,86.0 0 0,1 -9.607161424134198,41.387399972396054" fill="none" id="id100" stroke="none" /><text fill="#e1ed5e" style="font-size:6.75px; font-family:Arial;" text-anchor="middle"><textPath startOffset="21.466115282336823" xlink:href="#id100">April</textPath></text><path d="M 120.99513854157772 99.54816195383933 l 0.2427507207907223 -0.005224257566529556 a21.242806930114313,21.242806930114313 0 0,0 0.004720953749646964,0.36564307058372636 l -0.2428046816580848 0.0010449289223404545" fill="#ff0300" stroke="none" /><path d="M 120.99824983174949 100.27111621757518 l 0.049098627855224924 0.0006339306551212297 a21.049102720141978,21.049102720141978 0 0,0 -0.007796123880671589,0.3622552424542527 l -0.04908044128954588 -0.0014789888994887802" fill="#ff0100" stroke="none" /><path d="M 120.9904718944345 100.63252640178507 l 0.043358270435031515 0.0013065571333423008 a21.04337795184953,21.04337795184953 0 0,0 -0.014026781377709976,0.3619689007567548 l -0.04332935620611834 -0.0020527049041032808" fill="#ff0000" stroke="none" /><path d="M 120.9764740272857 100.99374915477107 l 4.493149921801548 0.21286055660459957 a25.49818917302766,25.49818917302766 0 0,0 -0.024543402330808598,0.4382389359416936 l -4.48882016858321 -0.2901712088817165" fill="#ff3f05" stroke="none" /><path d="M 120.95626037817324 101.35467743843564 l 0.22171262647751502 0.014332189402371782 a21.222175382058012,21.222175382058012 0 0,0 -0.02670299553442605,0.3643411584385158 l -0.2214330722787513 -0.01814648433765782" fill="#ff0300" stroke="none" /><path d="M 120.92983693683757 101.71520430193887 l 0.028509840826428993 0.002336387129085398 a21.028605414326055,21.028605414326055 0 0,0 -0.03266984482726033,0.3605090153345561 l -0.028465399722093325 -0.0028267910122120243" fill="#ff0000" stroke="none" /><path d="M 120.8583938346157 102.4346265915055 l 0.06970860321012559 0.008136504679014509 a21.07018185000339,21.07018185000339 0 0,0 -0.045148875387838384,0.3598809592158185 l -0.06955821857543908 -0.009335218182227899" fill="#ff0100" stroke="none" /><path d="M 120.81339534386255 102.79330883721812 l 0.11262879552829796 0.015115602460662333 a21.113638580684132,21.113638580684132 0 0,0 -0.051442826403485804,0.35979100805080666 l -0.11235191810821081 -0.01705208249187834" fill="#ff0100" stroke="none" /><path d="M 120.76222939487914 103.15116336523771 l 0.21116160816538512 0.0320488089761477 a21.213579846707926,21.213579846707926 0 0,0 -0.05790119907285839,0.3605508218976998 l -0.2105786547312383 -0.035678860567052474" fill="#ff0300" stroke="none" /><path d="M 120.64145759157962 103.86396538481128 l 0.26718155395630344 0.05001489218321424 a21.27182250130297,21.27182250130297 0 0,0 -0.07047057700692494,0.3593279539325924 l -0.2662810439737144 -0.054606573183751596" fill="#ff0400" stroke="none" /><path d="M 120.5718875245553 104.21870165774334 l 0.08581792163240183 0.017598784157387505 a21.087603840538662,21.087603840538662 0 0,0 -0.07598161026630874,0.3549607875836637 l -0.08550227264165 -0.019073391157220208" fill="#ff0100" stroke="none" /><path d="M 120.49622156327973 104.57218783832717 l 0.07894422446209103 0.017610456731127617 a21.08088460151475,21.08088460151475 0 0,0 -0.082054265571959,0.3534876285243501 l -0.07862939295957919 -0.01896674260404263" fill="#ff0100" stroke="none" /><path d="M 120.41448212921028 104.9243191809786 l 0.03693223373784644 0.008908680898225538 a21.037991505421783,21.037991505421783 0 0,0 -0.08794750591107868,0.35130656837835655 l -0.0367734135317069 -0.009543088673978016" fill="#ff0000" stroke="none" /><path d="M 120.02730092923936 106.31721596034902 l 0.17012092577295376 0.05366128123202228 a21.178383470336545,21.178383470336545 0 0,0 -0.11265664498028662,0.34672150160922777 l -0.16917202977642018 -0.056581682819045256" fill="#ff0200" stroke="none" /><path d="M 119.26925614724726 108.34839909993367 l 0.08986033047240921 0.038931959609804265 a21.097931488662585,21.097931488662585 0 0,0 -0.1472423787329671,0.33199269319008845 l -0.08917686700816921 -0.0404729892925804" fill="#ff0100" stroke="none" /><path d="M 118.97047184881838 109.00673069616215 l 0.027198882859181487 0.012913385344411837 a21.030108715512966,21.030108715512966 0 0,0 -0.15807305589439216,0.32567731483503487 l -0.02697257035007502 -0.013379656144722139" fill="#ff0000" stroke="none" /><path d="M 118.81262510543309 109.33194174019688 l 0.0511396362510617 0.02536765089588392 a21.0570857259555,21.0570857259555 0 0,0 -0.16386556951239115,0.3233223145785554 l -0.0506953969524015 -0.026244177177133676" fill="#ff0100" stroke="none" /><path d="M 118.64920377521936 109.65438752849418 l 0.3021320269104983 0.1564088047790702 a21.34021680719427,21.34021680719427 0 0,0 -0.17168457635773585,0.324762517446943 l -0.29939494232786934 -0.16158633731214755" fill="#ff0500" stroke="none" /><line stroke="#e1ed5e" stroke-width="0.3" x1="174.80103733775053" x2="179.2010983576182" y1="140.37084112569926" y2="142.7455964860345" /><path d="M 175.68104954172406 140.8457921977663 a86.0,86.0 0 0,1 -30.038265399797805,32.042727171017184" fill="none" id="id101" stroke="none" /><text fill="#e1ed5e" style="font-size:6.75px; font-family:Arial;" text-anchor="middle"><textPath startOffset="22.206326154141568" xlink:href="#id101">May</textPath></text><path d="M 118.48025628344425 109.97397251340804 l 0.08624264511991427 0.046545987172279285 a21.098001646716376,21.098001646716376 0 0,0 -0.17523758098182068,0.3181071106781934 l -0.08542865468658403 -0.048023616248277744" fill="#ff0100" stroke="none" /><path d="M 118.30583269289576 110.29060199501025 l 0.21669760680552677 0.12181630097451461 a21.248590152617428,21.248590152617428 0 0,0 -0.18197697731068807,0.3172921988262505 l -0.21456863334245915 -0.12552834565908022" fill="#ff0300" stroke="none" /><path d="M 117.94076556474637 110.91462005526583 l 0.053729128066939795 0.032687179186138456 a21.06289094438773,21.06289094438773 0 0,0 -0.19110597693920559,0.3081236842937652 l -0.05315851145977132 -0.03360719484517716" fill="#ff0100" stroke="none" /><path d="M 117.75023020441432 111.22182372390056 l 0.1070358131785755 0.06766881408307669 a21.126632277489623,21.126632277489623 0 0,0 -0.19697580253113806,0.30571081978720654 l -0.10585514727038711 -0.06950123379173619" fill="#ff0200" stroke="none" /><path d="M 117.35343817320211 111.8261652097733 l 0.12360851315834097 0.08423775642352943 a21.14958296738762,21.14958296738762 0 0,0 -0.20760742127601997,0.2990739744412541 l -0.1221401847201848 -0.08635299305180312" fill="#ff0200" stroke="none" /><path d="M 117.14729908036423 112.12312394758627 l 0.015230526023204984 0.01076796724084025 a21.018652561256925,21.018652561256925 0 0,0 -0.21140781704636932,0.29362696762720436 l -0.015042916601232869 -0.011028540319175772" fill="#ff0000" stroke="none" /><path d="M 116.71984013943494 112.70617746262583 l 0.059750318722213355 0.04540702224432603 a21.075045974285786,21.075045974285786 0 0,0 -0.22198364268227652,0.28694378186301006 l -0.058959858821868404 -0.04642879822058875" fill="#ff0100" stroke="none" /><path d="M 116.27256486870786 113.27417163493432 l 0.040601311000925955 0.033120087409578364 a21.052396628183615,21.052396628183615 0 0,0 -0.2314801234892989,0.2788327206145375 l -0.0400251876180837 -0.03381406513788636" fill="#ff0100" stroke="none" /><path d="M 116.0416608686014 113.55231037782055 l 0.033964522563892686 0.028693896186355077 a21.044462663790494,21.044462663790494 0 0,0 -0.23615644089430057,0.27470329295167467 l -0.03346557209881335 -0.02927428829955774" fill="#ff0000" stroke="none" /><path d="M 115.56566222782051 114.09645910891815 l 0.06266771643829058 0.056752670672935 a21.084546486101438,21.084546486101438 0 0,0 -0.24593978083579646,0.2669190584006187 l -0.06168152760677215 -0.0578229838748885" fill="#ff0100" stroke="none" /><path d="M 115.32070863581623 114.36230785411682 l 0.14462326624793628 0.13557622705942815 a21.198234211184374,21.198234211184374 0 0,0 -0.25184859800118126,0.2640622481268125 l -0.14226811686779056 -0.13804559176874778" fill="#ff0300" stroke="none" /><path d="M 114.81725581225074 114.88116024355365 l 0.1732895721573005 0.1740369420954156 a21.245597502089055,21.245597502089055 0 0,0 -0.26137148221282924,0.25580700675007995 l -0.170268137568677 -0.17699405176806754" fill="#ff0300" stroke="none" /><path d="M 114.29624159901734 115.38237550388516 l 0.09878005545967951 0.1062847109047061 a21.145099755784475,21.145099755784475 0 0,0 -0.2687446024469991,0.2454918224623111 l -0.09693590354581644 -0.10796929995360018" fill="#ff0200" stroke="none" /><path d="M 113.75828350139079 115.86535959552629 l 0.04902240108763701 0.05653016391273362 a21.074825498597722,21.074825498597722 0 0,0 -0.27611486046564654,0.23531107427279474 l -0.048042064044943246 -0.057365628408475186" fill="#ff0100" stroke="none" /><path d="M 113.20401910651253 116.32954008644616 l 0.09702587680419865 0.11999285459343902 a21.154312364777116,21.154312364777116 0 0,0 -0.2851223624555646,0.22651844873239987 l -0.09494602163128295 -0.1216452173309649" fill="#ff0200" stroke="none" /><path d="M 112.34349029814194 116.9893568818739 l 0.017137631142945364 0.023587925664853727 a21.02915627956997,21.02915627956997 0 0,0 -0.2946812386415459,0.21024723949858976 l -0.01672906465251487 -0.023879427007662758" fill="#ff0000" stroke="none" /><path d="M 112.04921762599082 117.19931262002967 l 0.008651784707095054 0.012349743735853829 a21.01507877809901,21.01507877809901 0 0,0 -0.29805697776974005,0.2050063071386536 l -0.00843792231447175 -0.012496840239601547" fill="#ff0000" stroke="none" /><path d="M 111.7513745106137 117.40417183066458 l 0.09178355344291128 0.13593445889301248 a21.164019504319285,21.164019504319285 0 0,0 -0.30367878823868016,0.20126174174640454 l -0.08943006646426697 -0.13749422173073544" fill="#ff0200" stroke="none" /><line stroke="#e1ed5e" stroke-width="0.3" x1="143.8653032363475" x2="146.44561519142675" y1="172.8068346515853" y2="177.08958963109032" /><path d="M 144.38136562736335 173.6633856474863 a86.0,86.0 0 0,1 -40.68145358897372,12.25698825130547" fill="none" id="id102" stroke="none" /><text fill="#e1ed5e" style="font-size:6.75px; font-family:Arial;" text-anchor="middle"><textPath startOffset="21.466115282336833" xlink:href="#id102">June</textPath></text><path d="M 110.8373102113329 117.98757091392108 l 0.08774832130763455 0.14564307206487903 a21.1700343269249,21.1700343269249 0 0,0 -0.3137521359033842,0.18537029222025153 l -0.08522831437586825 -0.14713193657888005" fill="#ff0200" stroke="none" /><path d="M 109.89434966115114 118.52300852407294 l 0.005439414837190451 0.010183016655540895 a21.011544741745837,21.011544741745837 0 0,0 -0.3204851872739412,0.16766270291635385 l -0.005263325036753606 -0.010275138516611519" fill="#ff0000" stroke="none" /><path d="M 109.57404056367764 118.69057910512821 l 0.01577722890936723 0.030800532233902587 a21.034606267321834,21.034606267321834 0 0,0 -0.3236786104150841,0.16229917471985156 l -0.015244710811522635 -0.03106754786305624" fill="#ff0000" stroke="none" /><path d="M 109.2508944713604 118.85261126421891 l 0.04435281447052924 0.09038762384281614 a21.100683140075226,21.100683140075226 0 0,0 -0.3274497777091232,0.1571957923906002 l -0.04279036876117332 -0.09113769273297637" fill="#ff0100" stroke="none" /><path d="M 107.2578585660854 119.70592522655815 l 0.046580061444298555 0.12647025283174007 a21.134775468745165,21.134775468745165 0 0,0 -0.3424643182141194,0.12279552021475842 l -0.04439618260044436 -0.12725331408645862" fill="#ff0200" stroke="none" /><path d="M 104.13013068566511 120.58985236759428 l 0.021854570471658 0.10895112378173072 a21.111121418384588,21.111121418384588 0 0,0 -0.3569110379159745,0.06840284987202613 l -0.019975917983979144 -0.10931117200222498" fill="#ff0100" stroke="none" /><path d="M 103.7750983002368 120.6578951692458 l 0.04065184286520189 0.22245288507939368 a21.22613681347468,21.22613681347468 0 0,0 -0.3599862122759044,0.06258821733323584 l -0.03681665911724755 -0.22311968093363568" fill="#ff0300" stroke="none" /><path d="M 103.41894727170886 120.7198165907248 l 0.042763478709408755 0.25915914029216586 a21.262663615882186,21.262663615882186 0 0,0 -0.36163147084519837,0.05647939841919128 l -0.038296144255693276 -0.25985684605846293" fill="#ff0400" stroke="none" /><path d="M 102.70371172650421 120.8252237178851 l 0.007906840906013634 0.060902103266149706 a21.061413225899262,21.061413225899262 0 0,0 -0.3599220780265814,0.04358155123944541 l -0.006857339828051929 -0.06102918323094604" fill="#ff0100" stroke="none" /><path d="M 102.34483914955558 120.86867818915974 l 0.008276328164113406 0.07365794326553118 a21.074121455827502,21.074121455827502 0 0,0 -0.3608365300328596,0.03740218170946396 l -0.0070072015256511504 -0.07378949343075354" fill="#ff0100" stroke="none" /><path d="M 101.62511606390274 120.93702456842531 l 0.012614313172391551 0.1625152754751063 a21.163004097063727,21.163004097063727 0 0,0 -0.3634365414852023,0.025064711757267363 l -0.0098150109082589 -0.1627083317486588" fill="#ff0200" stroke="none" /><line stroke="#e1ed5e" stroke-width="0.3" x1="102.19456741930631" x2="102.32365962044197" y1="184.97166512339345" y2="189.96999836594603" /><path d="M 102.22038585953345 185.97133177190398 a86.0,86.0 0 0,1 -42.740103519485714,-10.115201625700543" fill="none" id="id103" stroke="none" /><text fill="#e1ed5e" style="font-size:6.75px; font-family:Arial;" text-anchor="middle"><textPath startOffset="22.20632615414155" xlink:href="#id103">July</textPath></text><path d="M 100.54218724476979 120.99299961872073 l 0.009133666363202304 0.3536472986590451 a21.353765226824336,21.353765226824336 0 0,0 -0.36752912026393103,0.006327347109495467 l -0.003044856206603314 -0.3537521230477002" fill="#ff0500" stroke="none" /><path d="M 98.73552117531835 120.96189622390904 l -0.009142746510050063 0.15156386948071393 a21.151839376795724,21.151839376795724 0 0,0 -0.3632448074902441,-0.025051488658406517 l 0.011750314779224242 -0.15138403630602226" fill="#ff0200" stroke="none" /><path d="M 98.37488393609728 120.93702456842531 l -0.8215396612806849 10.584226231117462 a31.616061997112308,31.616061997112308 0 0,0 -0.5422240180426523,-0.046785369836399957 l 1.003607997064879 -10.5685166090024" fill="#ff920d" stroke="none" /><path d="M 98.01472825383883 120.90594882070398 l -0.041009886953642785 0.43185553788972675 a21.43379835918774,21.43379835918774 0 0,0 -0.36699501051868716,-0.03804053339232411 l 0.04843749407792326 -0.4310856360416419" fill="#ff0601" stroke="none" /><path d="M 97.65516085044442 120.86867818915974 l -0.018303356298866903 0.16289682490800164 a21.163921897307564,21.163921897307564 0 0,0 -0.3616738661726617,-0.04379366838788178 l 0.021104645522917898 -0.1625576277947713" fill="#ff0200" stroke="none" /><path d="M 97.2962882734958 120.8252237178851 l -0.030919749869874173 0.23815804844465888 a21.24015679663708,21.24015679663708 0 0,0 -0.36216632702783075,-0.05019295285896744 l 0.035014668084535946 -0.23759053009308653" fill="#ff0300" stroke="none" /><path d="M 96.93821686468263 120.77559828337769 l -0.025805131586589748 0.1750996147665172 a21.17699090345999,21.17699090345999 0 0,0 -0.3601743651145036,-0.05625182847094963 l 0.028815360309610513 -0.1746294789484618" fill="#ff0200" stroke="none" /><path d="M 96.58105272829116 120.7198165907248 l -0.007195409246920048 0.043606276448034324 a21.04419594166768,21.04419594166768 0 0,0 -0.3569005728175551,-0.062051739361454084 l 0.007944953536525088 -0.04347595856557406" fill="#ff0000" stroke="none" /><path d="M 95.86986931433489 120.58985236759428 l -0.06469097727702817 0.32250254847200055 a21.328926764359473,21.328926764359473 0 0,0 -0.3593503051322697,-0.07530535033804096 l 0.07023274383868464 -0.32134121740741844" fill="#ff0500" stroke="none" /><path d="M 95.51606077576429 120.51570834832081 l -0.02013715673706903 0.09213506560239995 a21.09430999626239,21.09430999626239 0 0,0 -0.3540628207687243,-0.08058354527738207 l 0.02172012689865601 -0.09177478674733115" fill="#ff0100" stroke="none" /><path d="M 95.16358092515715 120.4354850818985 l -0.018044220391527206 0.07624285466567524 a21.07834900622924,21.07834900622924 0 0,0 -0.3523564372225232,-0.08660063947977029 l 0.01935394235726092 -0.075920956871875" fill="#ff0100" stroke="none" /><line stroke="#e1ed5e" stroke-width="0.3" x1="58.666819895761336" x2="56.23545636021788" y1="174.27360380694188" y2="178.64263932499728" /><path d="M 58.180547188652646 175.14741091055294 a86.0,86.0 0 0,1 -31.652253787137756,-30.449443065178592" fill="none" id="id104" stroke="none" /><text fill="#e1ed5e" style="font-size:6.75px; font-family:Arial;" text-anchor="middle"><textPath startOffset="22.20632615414155" xlink:href="#id104">August</textPath></text><line stroke="#e1ed5e" stroke-width="0.3" x1="26.63291911575756" x2="22.317208475507996" y1="142.92168965132927" y2="145.44649492493687" /><path d="M 25.769776987707644 143.4266507060508 a86.0,86.0 0 0,1 -11.730757126820373,-40.83630448921669" fill="none" id="id105" stroke="none" /><text fill="#e1ed5e" style="font-size:6.75px; font-family:Arial;" text-anchor="middle"><textPath startOffset="21.46611528233685" xlink:href="#id105">September</textPath></text><line stroke="#e1ed5e" stroke-width="0.3" x1="15.007084014347285" x2="10.007500721073583" y1="101.09737516637583" y2="101.16192664675087" /><path d="M 14.007167355692545 101.11028546245083 a86.0,86.0 0 0,1 10.666146001902534,-42.60595125391555" fill="none" id="id106" stroke="none" /><text fill="#e1ed5e" style="font-size:6.75px; font-family:Arial;" text-anchor="middle"><textPath startOffset="22.20632615414155" xlink:href="#id106">October</textPath></text><line stroke="#e1ed5e" stroke-width="0.3" x1="26.266209847984243" x2="21.928928074336255" y1="57.711370442889674" y2="55.22380399835377" /><path d="M 25.398753493254645 57.213857153982495 a86.0,86.0 0 0,1 29.58750427330803,-30.492523968695096" fill="none" id="id107" stroke="none" /><text fill="#e1ed5e" style="font-size:6.75px; font-family:Arial;" text-anchor="middle"><textPath startOffset="21.46611528233685" xlink:href="#id107">November</textPath></text><line stroke="#e1ed5e" stroke-width="0.3" x1="56.762969772571076" x2="54.21961505331055" y1="26.818313649435495" y2="22.513508569990535" /><path d="M 56.25429882871897 25.957352633546506 a86.0,86.0 0 0,1 42.265352541879196,-11.944610805530505" fill="none" id="id108" stroke="none" /><text fill="#e1ed5e" style="font-size:6.75px; font-family:Arial;" text-anchor="middle"><textPath startOffset="22.20632615414155" xlink:href="#id108">December</textPath></text></svg>