<?xml version="1.0" encoding="utf-8" ?>
<svg baseProfile="full" height="200mm" version="1.1" viewBox="0,0,200,200" width="200mm" xmlns="http://www.w3.org/2000/svg" xmlns:ev="http://www.w3.org/2001/xml-events" xmlns:xlink="http://www.w3.org/1999/xlink"><defs /><rect fill="#1a1a1a" height="200" width="200" x="0" y="0" /><text alignment-baseline="middle" fill="#e1ed5e" style="dominant-baseline: central; font-size:9.0px; font-family:Arial;" text-anchor="middle" x="100.0" y="100.0">2023</text><line stroke="#e1ed5e" stroke-width="0.3" x1="100.0" x2="100.0" y1="15.0" y2="10.0" /><path d="M 100.0 14.0 a86.0,86.0 0 0,1 42.46469731375804,11.215312516191453" fill="none" id="id73" stroke="none" /><text fill="#e1ed5e" style="font-size:6.75px; font-family:Arial;" text-anchor="middle"><textPath startOffset="22.20632615414155" xlink:href="#id73">January</textPath></text><path d="M 101.80526077348638 79.07773832637324 l 1.3338392132246677 -15.458671378393829 a36.5161093007206,36.5161093007206 0 0,0 0.6257728663693132,0.059424673894112524 l -1.5997372066842253 15.433421159984537" fill="#ffd013" stroke="none" /><path d="M 102.52436894288641 79.15227682838746 l 0.004516610812753518 -0.03730082805983658 a21.03757328235839,21.03757328235839 0 0,0 0.35912667474582527,0.046624949386586484 l -0.005158014066424905 0.0372175555091134" fill="#ff0000" stroke="none" /><path d="M 103.59715602781102 79.31037775812273 l 0.010468931849301902 -0.06021374762823956 a21.061117051119165,21.061117051119165 0 0,0 0.35663980849527904,0.06517364541822533 l -0.011503861447481835 0.06002462085927569" fill="#ff0100" stroke="none" /><path d="M 105.36241919743992 79.69619591428918 l 0.012318902698191608 -0.04664323651803034 a21.04824258364313,21.04824258364313 0 0,0 0.34950317224036825,0.0955324195321113 l -0.013119964162270716 0.046424276159625404" fill="#ff0000" stroke="none" /><path d="M 106.74666289553966 80.11325718540242 l 0.09927496546121874 -0.29262699746870896 a21.309008217390538,21.309008217390538 0 0,0 0.3463403800075701,0.12083135801301359 l -0.10429734953206247 0.2908747862834879" fill="#ff0400" stroke="none" /><path d="M 107.4271985657038 80.35727306442388 l 0.009799838246201257 -0.025917651854876118 a21.02770850965538,21.02770850965538 0 0,0 0.3374615128206488,0.1309298241952513 l -0.010244516066517079 0.025745123769078018" fill="#ff0000" stroke="none" /><line stroke="#e1ed5e" stroke-width="0.3" x1="143.23703022742887" x2="145.7803849466894" y1="26.81831364943548" y2="22.513508569990506" /><path d="M 143.74570117128098 25.957352633546492 a86.0,86.0 0 0,1 28.547481713284135,27.462654790039103" fill="none" id="id74" stroke="none" /><text fill="#e1ed5e" style="font-size:6.75px; font-family:Arial;" text-anchor="middle"><textPath startOffset="19.985693538727396" xlink:href="#id74">February</textPath></text><path d="M 113.89432698308785 84.25364557470407 l 21.012254447835804 -23.813057387583704 a52.75809407261321,52.75809407261321 0 0,0 0.6757784581385752,0.6067205720942259 l -21.419043893570368 23.44783780672018" fill="#75ff27" stroke="none" /><path d="M 114.16331599549186 84.49514656593476 l 11.081310624371206 -12.130923093357055 a37.43029945712328,37.43029945712328 0 0,0 0.4719642001640129,0.43863928753575776 l -11.288482708330067 11.938379219746656" fill="#ffdb14" stroke="none" /><path d="M 114.68862486808459 84.99185889309783 l 0.014241351192256222 -0.014551138051781588 a21.020360542782136,21.020360542782136 0 0,0 0.2564125637445796,0.25531144670821593 l -0.014489715104158356 0.014303840693446953" fill="#ff0000" stroke="none" /><path d="M 115.4437574822437 85.77008943001954 l 0.019457683944351663 -0.017928350839839995 a21.026458027672422,21.026458027672422 0 0,0 0.2429620836064153,0.26828480105279245 l -0.019763408166802623 0.01759076251749853" fill="#ff0000" stroke="none" /><path d="M 115.9244219780498 86.31012108654704 l 0.04279908690750106 -0.0367934433147817 a21.056440404951363,21.056440404951363 0 0,0 0.23391638401029433,0.2768832176426376 l -0.0434260844049126 0.03605127604303751" fill="#ff0100" stroke="none" /><path d="M 116.15771136456269 86.58626213691792 l 1.4869543280337238 -1.234433213998655 a22.93257820889124,22.93257820889124 0 0,0 0.24952993815749214,0.30589419942908286 l -1.5079827582676248 1.2086548449614711" fill="#ff1b02" stroke="none" /><path d="M 116.60985879189232 87.15038557335679 l 0.09980868402048827 -0.07721336599923179 a21.12618905378373,21.12618905378373 0 0,0 0.22003837321126055,0.2895447065378295 l -0.10112299745586231 0.07548388358036871" fill="#ff0200" stroke="none" /><path d="M 117.04232023915458 87.72973835380427 l 0.9043330509939137 -0.6511087102743149 a22.11434322347966,22.11434322347966 0 0,0 0.21976115962217743,0.31083657533992315 l -0.9154068304199741 0.6354456346025986" fill="#ff1001" stroke="none" /><path d="M 117.2510076193507 88.02491185347247 l 1.0611031414638201 -0.7365832728131844 a22.291702285595473,22.291702285595473 0 0,0 0.2160973906639817,0.31709625578193706 l -1.0736249977965353 0.7182089937608409" fill="#ff1202" stroke="none" /><path d="M 117.45458315368197 88.32363383020206 l 0.041437319913985235 -0.02771978661138569 a21.04985416784417,21.04985416784417 0 0,0 0.19887437581549006,0.3028993183536562 l -0.04190833108740019 0.027002404280055528" fill="#ff0000" stroke="none" /><path d="M 117.65298651832404 88.62581576622439 l 0.03725896924432003 -0.02400672430727657 a21.044323285089384,21.044323285089384 0 0,0 0.19358011973132966,0.30619726104865547 l -0.037666685221605364 0.023361815544414903" fill="#ff0000" stroke="none" /><line stroke="#e1ed5e" stroke-width="0.3" x1="172.23445277983987" x2="176.4835382374775" y1="55.19839476539836" y2="52.563006222186495" /><path d="M 173.08426987136738 54.67131705675599 a86.0,86.0 0 0,1 12.851231095245387,41.99856678651699" fill="none" id="id75" stroke="none" /><text fill="#e1ed5e" style="font-size:6.75px; font-family:Arial;" text-anchor="middle"><textPath startOffset="22.20632615414155" xlink:href="#id75">March</textPath></text><path d="M 117.84615892207809 88.93136811851018 l 0.024417514312344214 -0.015144350028733008 a21.02873267030727,21.02873267030727 0 0,0 0.18814126908633733,0.3092547779620948 l -0.024674581684905484 0.01472179885955676" fill="#ff0000" stroke="none" /><path d="M 118.03404312379186 89.2402003453031 l 0.059382564552330624 -0.03542990848914184 a21.06914887843169,21.06914887843169 0 0,0 0.18314139499533616,0.3130480102024535 l -0.05998363401799407 0.034402485932793034" fill="#ff0100" stroke="none" /><path d="M 118.21658344932153 89.55222093294921 l 0.05677885289793033 -0.032564443953415796 a21.065454420373264,21.065454420373264 0 0,0 0.17769448967960302,0.3160986694560287 l -0.05733098386996636 0.03158226456259315" fill="#ff0100" stroke="none" /><path d="M 118.3937258080291 89.86733742301442 l 0.20914590138358172 -0.11521346301434353 a21.238780548046336,21.238780548046336 0 0,0 0.1736441239321891,0.32173618967439066 l -0.21109812453423563 0.11159629000749416" fill="#ff0300" stroke="none" /><path d="M 118.56541770881063 90.18545643968196 l 0.030331722210472138 -0.016034759549356587 a21.03430928279721,21.03430928279721 0 0,0 0.16646208489492834,0.32155176419954035 l -0.030603240265516817 0.015510273089471428" fill="#ff0000" stroke="none" /><path d="M 118.73160827565052 90.50648371742162 l 0.02186545682405158 -0.011081807142795353 a21.024513356597467,21.024513356597467 0 0,0 0.160827502536415,0.3242184312861833 l -0.0220529723138747 0.010703787357662226" fill="#ff0000" stroke="none" /><path d="M 118.89224826269711 90.83032412892265 l 0.06217051378325898 -0.0301755223731876 a21.06910669240073,21.06910669240073 0 0,0 0.15555201693955006,0.32763221838486223 l -0.06268072456456524 0.029100888347784994" fill="#ff0100" stroke="none" /><path d="M 119.04729006885535 91.15688171328212 l 0.06905161616804491 -0.032058713205692146 a21.07613072170828,21.07613072170828 0 0,0 0.14993929034289707,0.330371351064477 l -0.06959322347428898 0.030865353299152333" fill="#ff0100" stroke="none" /><path d="M 119.196687751892 91.48605970444005 l 0.040718042609597924 -0.018058895795500712 a21.044543043354825,21.044543043354825 0 0,0 0.14401411154503205,0.3324044252030882 l -0.04102286399731071 0.017355326005809694" fill="#ff0000" stroke="none" /><path d="M 119.61058180528143 92.48833698450437 l 0.02452549683408471 -0.009394278524446131 a21.02626313888235,21.02626313888235 0 0,0 0.1265534848434354,0.3391004209463066 l -0.024683570179145353 0.008970720548806274" fill="#ff0000" stroke="none" /><path d="M 119.7369772167798 92.82701384747503 l 0.03426817456641156 -0.012454041920269434 a21.036461088138807,21.036461088138807 0 0,0 0.12075621784949785,0.341394089067708 l -0.03447747322571895 0.011862326425946864" fill="#ff0000" stroke="none" /><path d="M 119.85752413597 93.16781622104841 l 0.04358909043410016 -0.014997271289408177 a21.046096929952007,21.046096929952007 0 0,0 0.11491440140618757,0.34357943362341237 l -0.043840785612057794 0.014244734743681792" fill="#ff0000" stroke="none" /><path d="M 119.97218684219823 93.5106431181261 l 0.13155492541601524 -0.04274478640411432 a21.138325034487423,21.138325034487423 0 0,0 0.10946080618217863,0.3470206684601808 l -0.13227121536640005 0.04047395151751438" fill="#ff0200" stroke="none" /><path d="M 120.18372546131832 94.20196356495316 l 0.06912330777353917 -0.0198565650206659 a21.07191880735924,21.07191880735924 0 0,0 0.09714478619542088,0.3494814826608011 l -0.06945486453532315 0.018663778940912906" fill="#ff0100" stroke="none" /><path d="M 120.37134235888165 94.90015583598534 l 0.030646486747379 -0.007672165330726551 a21.031592234343574,21.031592234343574 0 0,0 0.0848947228457905,0.35194343394598476 l -0.030774009853988937 0.00714349972533566" fill="#ff0000" stroke="none" /><path d="M 120.53481517161879 95.60439243477599 l 0.0456700953731549 -0.00977597387894662 a21.04670468152846,21.04670468152846 0 0,0 0.07278221488770131,0.3549119278699388 l -0.04583160617585312 0.008988389845596008" fill="#ff0000" stroke="none" /><path d="M 120.6074358757038 95.95851677861258 l 0.02848623304116712 -0.005586654912858113 a21.029028885372867,21.029028885372867 0 0,0 0.06660622062805881,0.35581309393552324 l -0.028578177579085214 0.005095483514772115" fill="#ff0000" stroke="none" /><path d="M 120.67395015179393 96.31383870115 l 0.0618239724189126 -0.011023202281059482 a21.062799001219634,21.062799001219634 0 0,0 0.060568724897969495,0.3574800429467454 l -0.062004558837105116 0.009957371018476213" fill="#ff0100" stroke="none" /><path d="M 120.73433829027371 96.67025291283417 l 0.10326006959366948 -0.01658263269059082 a21.104583104177685,21.104583104177685 0 0,0 0.05451425022962693,0.3591807968584843 l -0.1035302132625963 0.014802723440024347" fill="#ff0100" stroke="none" /><path d="M 120.78858239683441 97.02765380044208 l 0.03953931364876861 -0.00565332096309471 a21.03994142413244,21.03994142413244 0 0,0 0.048175455393383596,0.3589630998238342 l -0.039630768099988396 0.004971879074596184" fill="#ff0000" stroke="none" /><path d="M 120.83666639777658 97.38593545837742 l 0.061527236625939515 -0.007718901120625168 a21.06200953379388,21.06200953379388 0 0,0 0.04203339926649268,0.36011649555096864 l -0.061650988896021115 0.0066586672448037745" fill="#ff0100" stroke="none" /><path d="M 120.87857604477298 97.74499172005257 l 0.10605962467825696 -0.011455059545474218 a21.106676437773686,21.106676437773686 0 0,0 0.0359043404596407,0.3615518085795879 l -0.10624109082012634 0.009627720261451334" fill="#ff0100" stroke="none" /><path d="M 120.91429891909075 98.10471618934814 l 0.032757494022762706 -0.002968531163250988 a21.032891725280358,21.032891725280358 0 0,0 0.0295717611884562,0.3608503890235426 l -0.03280373903071366 0.00240422493193964" fill="#ff0000" stroke="none" /><path d="M 120.96714384426684 98.82574320788733 l 0.06354074881401457 -0.0035585750937261506 a21.06364031911095,21.06364031911095 0 0,0 0.017158232539401488,0.3621831701580446 l -0.06359258958691252 0.0024642983126817878" fill="#ff0100" stroke="none" /><path d="M 120.98425023603335 99.18683210126433 l 0.03782850503242702 -0.001465905410178003 a21.037856897279887,21.037856897279887 0 0,0 0.01090793399504754,0.3619812252946718 l -0.03784813348311962 0.0008145326905071144" fill="#ff0000" stroke="none" /><line stroke="#e1ed5e" stroke-width="0.3" x1="184.98032266829074" x2="189.97916517819016" y1="98.17113171792111" y2="98.06355123074" /><path d="M 185.9800911702706 98.14961562048488 a86.0,86.0 0 0,1 -9.607161424134198,41.387399972396054" fill="none" id="id76" stroke="none" /><text fill="#e1ed5e" style="font-size:6.75px; font-family:Arial;" text-anchor="middle"><textPath startOffset="21.466115282336823" xlink:href="#id76">April</textPath></text><path d="M 120.99513854157772 99.54816195383933 l 0.04577688636826432 -0.0009851680118706722 a21.045787486080638,21.045787486080638 0 0,0 0.004677168590457593,0.36225186175157115 l -0.045787062076437464 0.00019704819983677692" fill="#ff0000" stroke="none" /><path d="M 120.99980553446 99.90962569577887 l 0.049066749124301694 -0.00021116258934992743 a21.04906720349955,21.04906720349955 0 0,0 -0.0015593376619960704,0.36233515651041714 l -0.04906311417280261 -0.0006334721247519061" fill="#ff0000" stroke="none" /><path d="M 120.99824983174949 100.27111621757518 l 0.057093928267088326 0.0007371609539990065 a21.05709868694847,21.05709868694847 0 0,0 -0.0077990854106046205,0.3623928531131323 l -0.057072780171476246 -0.0017198298572461295" fill="#ff0100" stroke="none" /><path d="M 120.9904718944345 100.63252640178507 l 0.026618129978450013 0.0008021101222588731 a21.026630212620216,21.026630212620216 0 0,0 -0.0140156179191969,0.3616808214962451 l -0.026600379208049918 -0.0012601786325101413" fill="#ff0000" stroke="none" /><path d="M 120.9764740272857 100.99374915477107 l 0.018364985569640002 0.0008700312961784294 a21.018385582651344,21.018385582651344 0 0,0 -0.02023134624182511,0.3612442777974587 l -0.018347288440285592 -0.0011860254290604743" fill="#ff0000" stroke="none" /><path d="M 120.95626037817324 101.35467743843564 l 0.023591455414338193 0.001525024589928776 a21.023640695179427,21.023640695179427 0 0,0 -0.02645318745576746,0.36093272567866186 l -0.023561709294233058 -0.0019308867653609106" fill="#ff0000" stroke="none" /><path d="M 120.92983693683757 101.71520430193887 l 0.026624967958185683 0.002181921422449689 a21.026714222801125,21.026714222801125 0 0,0 -0.032666906689783275,0.3604765932323278 l -0.02658346499132707 -0.0026399032033480327" fill="#ff0000" stroke="none" /><path d="M 120.89721153311464 102.0752229133903 l 0.04348372193944994 0.004318203698385462 a21.043697608136924,21.043697608136924 0 0,0 -0.03889847185979499,0.36015153911945846 l -0.043402948578603065 -0.005066064702635342" fill="#ff0000" stroke="none" /><path d="M 120.8583938346157 102.4346265915055 l 0.13026944736628757 0.015205267631506219 a21.131153837461447,21.131153837461447 0 0,0 -0.04527952526468756,0.3609223672818669 l -0.12998841285475188 -0.017445389200768022" fill="#ff0200" stroke="none" /><path d="M 120.76222939487914 103.15116336523771 l 0.023900260086543574 0.0036274343458966205 a21.024173967654033,21.024173967654033 0 0,0 -0.05738422703947615,0.35733163655234024 l -0.023834278685778996 -0.004038300591441806" fill="#ff0000" stroke="none" /><path d="M 120.70491114924044 103.5080841355445 l 0.03305290511046916 0.005600235191347262 a21.033523979036506,21.033523979036506 0 0,0 -0.06355485364827856,0.3564493709591581 l -0.032951609123001886 -0.006168356883723695" fill="#ff0000" stroke="none" /><path d="M 120.64145759157962 103.86396538481128 l 0.0444916722462595 0.008328592140801401 a21.045264493218376,21.045264493218376 0 0,0 -0.06972002196847993,0.35550088996160006 l -0.04434171730211545 -0.009093209170346398" fill="#ff0000" stroke="none" /><path d="M 120.49622156327973 104.57218783832717 l 0.04150468473342336 0.009258643803487242 a21.042524832038477,21.042524832038477 0 0,0 -0.08190495576967209,0.3528444058038987 l -0.041339163033198435 -0.009971706955950854" fill="#ff0000" stroke="none" /><path d="M 120.32669344350535 105.2749913415812 l 0.022668972132607573 0.005882837366264191 a21.023419864923326,21.023419864923326 0 0,0 -0.09391654568585482,0.3494984043096202 l -0.02256435010497553 -0.0062721748514326285" fill="#ff0000" stroke="none" /><path d="M 120.23288151984713 105.62410040840565 l 0.09045857474185398 0.0251446194972479 a21.093888261428088,21.093888261428088 0 0,0 -0.10025358881868564,0.34899589471308756 l -0.09001234903706894 -0.026697989714917453" fill="#ff0100" stroke="none" /><path d="M 120.13307415673323 105.97154293290107 l 0.0659054153302093 0.019547785603491755 a21.06874328834037,21.06874328834037 0 0,0 -0.10611947508797695,0.3468045846192449 l -0.06555916773609965 -0.02067934277479381" fill="#ff0100" stroke="none" /><path d="M 120.02730092923936 106.31721596034902 l 0.07645280439115403 0.02411552499359099 a21.080166014276553,21.080166014276553 0 0,0 -0.1121341854123165,0.3451135363980464 l -0.07602636796259055 -0.02542796136943265" fill="#ff0100" stroke="none" /><path d="M 119.9155931802556 106.66101706037122 l 0.03547170029689819 0.011863949956171045 a21.03740313931364,21.03740313931364 0 0,0 -0.11781864296794976,0.34243612614915464 l -0.03526222638571764 -0.012472779194626074" fill="#ff0000" stroke="none" /><path d="M 119.67450827220406 107.3425965602758 l 0.021474650552096394 0.008014416070551346 a21.022921419704865,21.022921419704865 0 0,0 -0.12944685710590645,0.337944896552908 l -0.0213335138526832 -0.008382879456603192" fill="#ff0000" stroke="none" /><path d="M 119.54520255179757 107.68017299344265 l 0.023991021509030108 0.00942713154240547 a21.02577673218553,21.02577673218553 0 0,0 -0.13526321284409576,0.3357122014236986 l -0.023825194407541894 -0.009838700808917605" fill="#ff0000" stroke="none" /><line stroke="#e1ed5e" stroke-width="0.3" x1="174.80103733775053" x2="179.2010983576182" y1="140.37084112569926" y2="142.7455964860345" /><path d="M 175.68104954172406 140.8457921977663 a86.0,86.0 0 0,1 -30.038265399797805,32.042727171017184" fill="none" id="id77" stroke="none" /><text fill="#e1ed5e" style="font-size:6.75px; font-family:Arial;" text-anchor="middle"><textPath startOffset="22.206326154141568" xlink:href="#id77">May</textPath></text><path d="M 118.48025628344425 109.97397251340804 l 0.15685567388019522 0.08465651968553684 a21.178242612059176,21.178242612059176 0 0,0 -0.17590405323344774,0.31931695140484817 l -0.15537521119523792 -0.08734398948819007" fill="#ff0200" stroke="none" /><path d="M 118.30583269289576 110.29060199501025 l 0.23180760627039138 0.1303103691355376 a21.26592397152015,21.26592397152015 0 0,0 -0.18212542744062665,0.31755103414069713 l -0.22953018267738517 -0.13428124913454983" fill="#ff0400" stroke="none" /><path d="M 118.12598468904814 110.60418214915192 l 0.025238759154061242 0.014765344000866836 a21.02924055996558,21.02924055996558 0 0,0 -0.18547702482134032,0.31087016221910124 l -0.024980858634493713 -0.015197600106072183" fill="#ff0000" stroke="none" /><path d="M 117.94076556474637 110.91462005526583 l 0.026790699764843173 0.01629865280233913 a21.031359012692704,21.031359012692704 0 0,0 -0.19081988417884954,0.30766241167015324 l -0.02650617591803073 -0.016757395837765872" fill="#ff0000" stroke="none" /><path d="M 111.45004920935366 117.60387380957326 l 0.011266441221588267 0.017321585778495508 a21.020663253172753,21.020663253172753 0 0,0 -0.30501802982310044,0.1946769380616988 l -0.010966609351557348 -0.01751295266400318" fill="#ff0000" stroke="none" /><path d="M 111.1453310114006 117.79835938074945 l 0.06118691025331893 0.09771146473552599 a21.115288196824782,21.115288196824782 0 0,0 -0.30971180781170704,0.19025028824199372 l -0.05949590250930318 -0.09875021980589782" fill="#ff0100" stroke="none" /><line stroke="#e1ed5e" stroke-width="0.3" x1="143.8653032363475" x2="146.44561519142675" y1="172.8068346515853" y2="177.08958963109032" /><path d="M 144.38136562736335 173.6633856474863 a86.0,86.0 0 0,1 -40.68145358897372,12.25698825130547" fill="none" id="id78" stroke="none" /><text fill="#e1ed5e" style="font-size:6.75px; font-family:Arial;" text-anchor="middle"><textPath startOffset="21.466115282336833" xlink:href="#id78">June</textPath></text><path d="M 110.8373102113329 117.98757091392108 l 0.03094693966503695 0.051365169118401006 a21.059967438441152,21.059967438441152 0 0,0 -0.3121208810447138,0.18440651809655742 l -0.03005818759194103 -0.051890259508707945" fill="#ff0100" stroke="none" /><path d="M 110.5260780823613 118.17145234162733 l 0.008542453123273702 0.01474706710282463 a21.01704257883944,21.01704257883944 0 0,0 -0.3146063452537067,0.1786416935563018 l -0.00828734094836795 -0.014891926453754895" fill="#ff0000" stroke="none" /><path d="M 110.21172684928248 118.3499491758327 l 0.029423246567100547 0.05287206434945184 a21.060507707171244,21.060507707171244 0 0,0 -0.3182916531771744,0.17355798749578027 l -0.028508781521277476 -0.05337070360500261" fill="#ff0100" stroke="none" /><path d="M 109.89434966115114 118.52300852407294 l 0.2951010207876928 0.552452552285999 a21.62632933429407,21.62632933429407 0 0,0 -0.32986238241583365,0.17256840822097969 l -0.2855477358453636 -0.5574503794516954" fill="#ff0901" stroke="none" /><path d="M 107.2578585660854 119.70592522655815 l 0.01421733228444499 0.03860170108957003 a21.041136648676027,21.041136648676027 0 0,0 -0.34094701065053656,0.12225146770567498 l -0.01355076100417363 -0.038840709835205135" fill="#ff0000" stroke="none" /><path d="M 106.57524785965236 119.94407469862006 l 0.00853524735468179 0.025889154971258054 a21.027259838453876,21.027259838453876 0 0,0 -0.3447255587431519,0.11037023783521185 l -0.008088343520589472 -0.026032239466176485" fill="#ff0000" stroke="none" /><path d="M 106.2309692047433 120.05430185196036 l 0.024524903977852373 0.07893311796305956 a21.08265535691347,21.08265535691347 0 0,0 -0.34748736306091255,0.1046950920079485 l -0.023162566476694017 -0.07934357907673364" fill="#ff0100" stroke="none" /><path d="M 105.18746579009965 120.34920634021253 l 0.015331177558920208 0.06014059816651048 a21.062063971458237,21.062063971458237 0 0,0 -0.3520842082718463,0.08653373222699151 l -0.014293684543862822 -0.060395588707531936" fill="#ff0100" stroke="none" /><path d="M 104.83641907484287 120.43548508189849 l 0.006184215692905186 0.026130375713918564 a21.026852207706014,21.026852207706014 0 0,0 -0.35293055832907544,0.0803258460324502 l -0.005733507970967678 -0.02623295532405318" fill="#ff0000" stroke="none" /><path d="M 103.06178313531738 120.77559828337769 l 0.0038640607966456135 0.02621941898093844 a21.026502620578693,21.026502620578693 0 0,0 -0.35852330551259115,0.049688063272245155 l -0.0034121640972240162 -0.02628204774578617" fill="#ff0000" stroke="none" /><path d="M 101.26447882468166 120.96189622390904 l 0.004443346759196543 0.07365957565684741 a21.073793471366844,21.073793471366844 0 0,0 -0.3622805184263594,0.018725764687102547 l -0.003174759919357538 -0.07372514710615186" fill="#ff0100" stroke="none" /><line stroke="#e1ed5e" stroke-width="0.3" x1="102.19456741930631" x2="102.32365962044197" y1="184.97166512339345" y2="189.96999836594603" /><path d="M 102.22038585953345 185.97133177190398 a86.0,86.0 0 0,1 -42.740103519485714,-10.115201625700543" fill="none" id="id79" stroke="none" /><text fill="#e1ed5e" style="font-size:6.75px; font-family:Arial;" text-anchor="middle"><textPath startOffset="22.20632615414155" xlink:href="#id79">July</textPath></text><path d="M 100.54218724476979 120.99299961872073 l 0.007701450691693449 0.29819320353610085 a21.298292639831892,21.298292639831892 0 0,0 -0.36657435697607366,0.006310909993640978 l -0.002567403822951836 -0.2982815908089015" fill="#ff0400" stroke="none" /><path d="M 99.81925306533755 120.99922214144158 l -0.1492977811201732 17.345451953704377 a38.346094468372826,38.346094468372826 0 0,0 -0.6599916321930345,-0.011362354480235237 l 0.4478491032058756 -17.34031212194498" fill="#ffe615" stroke="none" /><path d="M 99.09653310690486 120.98055641714683 l -0.002049580129961629 0.04759591289594156 a21.04764002207291,21.04764002207291 0 0,0 -0.361830913319338,-0.018702525238642555 l 0.0028685618627885172 -0.04755358089509711" fill="#ff0000" stroke="none" /><path d="M 98.37488393609728 120.93702456842531 l -0.1381401734700459 1.7797154739109267 a22.785068591288393,22.785068591288393 0 0,0 -0.3907700916095829,-0.03371728777886801 l 0.16875458282117048 -1.7770739338533952" fill="#ff1902" stroke="none" /><path d="M 98.01472825383883 120.90594882070398 l -0.22658319967086624 2.3860394855817924 a23.39677374258158,23.39677374258158 0 0,0 -0.40060558011554726,-0.041524406356366186 l 0.26762137639200684 -2.3817857107696656" fill="#ff2203" stroke="none" /><path d="M 95.86986931433489 120.58985236759428 l -0.009715447333357418 0.048434212257076094 a21.04939901652716,21.04939901652716 0 0,0 -0.35464081446796086,-0.074318430779815 l 0.01054772323070506 -0.048259800750719915" fill="#ff0000" stroke="none" /><path d="M 95.51606077576429 120.51570834832081 l -0.004121145226214001 0.018855789361527816 a21.019300897140337,21.019300897140337 0 0,0 -0.35280381143288064,-0.08029699885152654 l 0.004445106051957313 -0.018782056932314533" fill="#ff0000" stroke="none" /><path d="M 94.11515582081647 120.15858648285463 l -0.01683256804837809 0.057660112723467674 a21.060066829002256,21.060066829002256 0 0,0 -0.3471150556894541,-0.10458291885101204 l 0.017822598178078054 -0.05736182476673007" fill="#ff0100" stroke="none" /><path d="M 93.76903079525671 120.05430185196036 l -0.4659907151152203 1.499785692090658 a22.570510894191266,22.570510894191266 0 0,0 -0.370025958631545,-0.11847062691918019 l 0.4917380188377057 -1.4915422185117713" fill="#ff1602" stroke="none" /><path d="M 93.42475214034765 119.94407469862007 l -12.567795953557216 38.12070155299252 a61.138975846707595,61.138975846707595 0 0,0 -0.9966534252165672,-0.3381189542354485 l 13.22211911171101 -37.89871961185895" fill="#31ff40" stroke="none" /><path d="M 93.08242187328487 119.8279376855182 l -2.309613889757691 6.620074171170784 a28.011397745925144,28.011397745925144 0 0,0 -0.4538919396361378,-0.16274950085181478 l 2.4232253900235556 -6.579337129279011" fill="#ff6209" stroke="none" /><path d="M 92.7421414339146 119.70592522655815 l -1.1804020257152599 3.2049279886379343 a24.415393440684028,24.415393440684028 0 0,0 -0.3931224568642536,-0.1486452750345944 l 1.2353947033397963 -3.1841344634967066" fill="#ff3004" stroke="none" /><path d="M 92.40401165467489 119.57807347666478 l -2.2604302068221402 5.82608433111574 a27.24922422010815,27.24922422010815 0 0,0 -0.435830481416384,-0.1734259430716235 l 2.3603817642803824 -5.78631154363805" fill="#ff5708" stroke="none" /><path d="M 92.06813273071674 119.44442032107085 l -1.3531784517644088 3.317222753766611 a24.582605018757505,24.582605018757505 0 0,0 -0.39042858922174045,-0.16319918195938424 l 1.4100785004836116 -3.2934385287872536" fill="#ff3304" stroke="none" /><path d="M 91.7346041902142 119.30500536409082 l -0.13810769322231806 0.32257012487199394 a21.350892035228963,21.350892035228963 0 0,0 -0.33661137764185556,-0.14756053586166085 l 0.14363974552191694 -0.3201450357158809" fill="#ff0500" stroke="none" /><path d="M 91.40352486487194 119.15986991738527 l -24.81351173120094 55.30448811752907 a81.61597784723398,81.61597784723398 0 0,0 -1.2768314656930322,-0.586130701270983 l 25.76181119266139 -54.86917034592401" fill="#4ae8ff" stroke="none" /><path d="M 90.7491055286396 118.85261126421891 l -16.08124914832532 32.77234863882795 a57.50525180676613,57.50525180676613 0 0,0 -0.8848855909083502,-0.44370000520497965 l 16.642988646916432 -32.49068079271367" fill="#45ff2d" stroke="none" /><path d="M 90.42595943632237 118.69057910512821 l -0.0320607404163811 0.06258943660576799 a21.07032303072731,21.07032303072731 0 0,0 -0.3213817215927361,-0.16813172729911863 l 0.03313336453561281 -0.062028290361932574" fill="#ff0100" stroke="none" /><line stroke="#e1ed5e" stroke-width="0.3" x1="58.666819895761336" x2="56.23545636021788" y1="174.27360380694188" y2="178.64263932499728" /><path d="M 58.180547188652646 175.14741091055294 a86.0,86.0 0 0,1 -31.652253787137756,-30.449443065178592" fill="none" id="id80" stroke="none" /><text fill="#e1ed5e" style="font-size:6.75px; font-family:Arial;" text-anchor="middle"><textPath startOffset="22.20632615414155" xlink:href="#id80">August</textPath></text><path d="M 88.54995079064634 117.60387380957326 l -0.024692726013024212 0.037963822233405255 a21.045287774470864,21.045287774470864 0 0,0 -0.30197512755936345,-0.20013264834592928 l 0.025342552312349442 -0.03753315279615756" fill="#ff0000" stroke="none" /><path d="M 87.65650970185807 116.9893568818739 l -0.009919247830835847 0.01365267337903537 a21.01687563237109,21.01687563237109 0 0,0 -0.29084856826718475,-0.21516281759682898 l 0.010152786516584876 -0.013479907042439685" fill="#ff0000" stroke="none" /><path d="M 87.07902340077011 116.55440617244103 l -0.06368851778103594 0.08159798013494134 a21.103510664471095,21.103510664471095 0 0,0 -0.28443764623513673,-0.22597446875574284 l 0.06508365673353075 -0.08048959737406786" fill="#ff0100" stroke="none" /><path d="M 86.79598089348748 116.32954008644616 l -0.05694430479548357 0.0704235809075755 a21.09056563695181,21.09056563695181 0 0,0 -0.2803336607220077,-0.23069551775575448 l 0.05814809406218008 -0.06943294429464031" fill="#ff0100" stroke="none" /><path d="M 86.51685102203217 116.09983520530335 l -0.04435717227753656 0.05296560655144696 a21.069086280908888,21.069086280908888 0 0,0 -0.27603966727879725,-0.23524699300768373 l 0.04526231613339039 -0.05219422332081173" fill="#ff0100" stroke="none" /><path d="M 86.24171649860922 115.8653595955263 l -0.10797276637303568 0.12450875611472872 a21.16480457708293,21.16480457708293 0 0,0 -0.27318486332647535,-0.24105387922619886 l 0.11009998260609871 -0.12263173511624104" fill="#ff0200" stroke="none" /><path d="M 85.97065885151581 115.62618273729859 l -15.123542271547345 16.84492754643665 a43.637869044677764,43.637869044677764 0 0,0 -0.5546174718252807,-0.5066299106590563 l 15.411259292839482 -16.582104869191017" fill="#d9ff1c" stroke="none" /><path d="M 85.70375840098266 115.38237550388516 l -1.0876714298493366 1.1703055130196034 a22.59769963795282,22.59769963795282 0 0,0 -0.28264790095665787,-0.26726123234697624 l 1.1076551651968114 -1.1514096439266965" fill="#ff1702" stroke="none" /><path d="M 84.9287848128048 114.62390073753433 l -45.21364556158558 43.871702212602976 a84.0,84.0 0 0,0 -0.99797379448417,-1.0463715336699995 l 45.9621259074487 -43.08692356235048" fill="#4dd2ff" stroke="none" /><path d="M 84.67929136418377 114.36230785411682 l -0.6623312696764422 0.6208985382218475 a21.907853350248395,21.907853350248395 0 0,0 -0.2555432081545784,-0.277341682055224 l 0.6729208858267496 -0.6094056013652792" fill="#ff0d01" stroke="none" /><path d="M 84.43433777217949 114.09645910891817 l -0.21990569350143555 0.199149356506069 a21.296679928932054,21.296679928932054 0 0,0 -0.2437365977519369,-0.2738406514082358 l 0.22330114090171074 -0.195334535356969" fill="#ff0400" stroke="none" /><path d="M 83.95833913139862 113.55231037782056 l -0.25620398751434464 0.21644616397705876 a21.335394432152107,21.335394432152107 0 0,0 -0.2345918056301473,-0.282580942206707 l 0.25989179303802834 -0.21200396465659063" fill="#ff0500" stroke="none" /><path d="M 83.50135304334701 112.99209946851258 l -0.11915383533162294 0.09382942036098106 a21.151662772622398,21.151662772622398 0 0,0 -0.22279064808602111,-0.2879869451327731 l 0.12075130063571249 -0.09176448111495526" fill="#ff0200" stroke="none" /><path d="M 83.28015986056508 112.70617746262583 l -0.17232898911106725 0.13096074480016764 a21.216443981590288,21.216443981590288 0 0,0 -0.21846747484827475,-0.2926728840037601 l 0.1745577306544271 -0.1279749812870995" fill="#ff0300" stroke="none" /><path d="M 83.06392112726016 112.41649034213515 l -0.02758344739606788 0.020222485427092447 a21.034202273127683,21.034202273127683 0 0,0 -0.21156421768302375,-0.29384419443233056 l 0.027927457454699087 -0.0197446855436237" fill="#ff0000" stroke="none" /><path d="M 82.85270091963577 112.12312394758628 l -0.035828976067032704 0.025331051598273844 a21.0438791260292,21.0438791260292 0 0,0 -0.2065698168013984,-0.29757922780736684 l 0.03625970003056497 -0.024710561603894406" fill="#ff0000" stroke="none" /><path d="M 82.6465618267979 111.8261652097733 l -0.0358161190064941 0.024408266322566034 a21.04334233318086,21.04334233318086 0 0,0 -0.201411736226108,-0.3010832177548001 l 0.03623096064333249 -0.023788134361945056" fill="#ff0000" stroke="none" /><path d="M 82.44556493220864 111.52570212397912 l -0.035976746790859264 0.02362122536555294 a21.043038222517012,21.043038222517012 0 0,0 -0.19619640684475087,-0.3045011803738229 l 0.036378017012655806 -0.022998445070281783" fill="#ff0000" stroke="none" /><path d="M 82.24976979558568 111.22182372390057 l -0.2478130300660134 0.15666918726467474 a21.29318344446553,21.29318344446553 0 0,0 -0.19319544667655028,-0.311492574812011 l 0.25047311641051956 -0.15238028108739957" fill="#ff0400" stroke="none" /><path d="M 82.05923443525364 110.91462005526583 l -0.09716322532762885 0.059111172484140495 a21.11373136360968,21.11373136360968 0 0,0 -0.18622223018621722,-0.31211916927476824 l 0.09816633121207795 -0.057429909323261134" fill="#ff0100" stroke="none" /><line stroke="#e1ed5e" stroke-width="0.3" x1="26.63291911575756" x2="22.317208475507996" y1="142.92168965132927" y2="145.44649492493687" /><path d="M 25.769776987707644 143.4266507060508 a86.0,86.0 0 0,1 -11.730757126820373,-40.83630448921669" fill="none" id="id81" stroke="none" /><text fill="#e1ed5e" style="font-size:6.75px; font-family:Arial;" text-anchor="middle"><textPath startOffset="21.46611528233685" xlink:href="#id81">September</textPath></text><path d="M 81.87401531095188 110.60418214915194 l -0.06444086031505875 0.03769961369557047 a21.074658458000016,21.074658458000016 0 0,0 -0.18048739311627252,-0.3146949832258657 l 0.06508024958370848 -0.036584784611397796" fill="#ff0100" stroke="none" /><path d="M 81.69416730710424 110.29060199501025 l -3.727650518932808 2.0954942891900155 a25.276268783335304,25.276268783335304 0 0,0 -0.20994178842180433,-0.3811053277002266 l 3.763168716806129 -2.031018443091966" fill="#ff3c05" stroke="none" /><path d="M 81.51974371655577 109.97397251340807 l -3.0735798674124086 1.6588406916628724 a24.49265595810401,24.49265595810401 0 0,0 -0.19704632338249867,-0.3727373849938748 l 3.1016786990197933 -1.6056882915828712" fill="#ff3104" stroke="none" /><path d="M 81.35079622478065 109.6543875284942 l -0.4029260235104373 0.20858820693749275 a21.453716233449203,21.453716233449203 0 0,0 -0.1669521354713444,-0.32941240203816347 l 0.40645682876804845 -0.20162159319664433" fill="#ff0601" stroke="none" /><path d="M 81.18737489456691 109.33194174019688 l -45.44662365707035 22.543650441104692 a71.73077741409159,71.73077741409159 0 0,0 -0.5391652197766109,-1.1108400482027856 l 45.827942133461676 -21.75802143693662" fill="#3effb5" stroke="none" /><path d="M 80.73074385275274 108.34839909993369 l -0.07219561220800366 0.031278726037515546 a21.078680144411525,21.078680144411525 0 0,0 -0.14137673410007487,-0.33417283740045367 l 0.07272332750038513 -0.03003136297090307" fill="#ff0100" stroke="none" /><path d="M 80.45479744820244 107.68017299344265 l -0.033048043181424853 0.012986035220431243 a21.03550789023397,21.03550789023397 0 0,0 -0.12952435723157749,-0.3381472249256261 l 0.03326668000651143 -0.012415243461647288" fill="#ff0000" stroke="none" /><path d="M 80.32549172779594 107.34259656027581 l -0.03253218862753703 0.012141128663036087 a21.034723915420212,21.034723915420212 0 0,0 -0.12367990857179001,-0.3403139899824824 l 0.03273635820455145 -0.011579341674436546" fill="#ff0000" stroke="none" /><path d="M 79.67330655649465 105.27499134158121 l -0.1058020845749871 0.027456756880082832 a21.109306699697616,21.109306699697616 0 0,0 -0.08824563291947472,-0.35249743758124163 l 0.10625903178952037 -0.02563147990144934" fill="#ff0100" stroke="none" /><path d="M 79.58551787078972 104.9243191809786 l -0.07108943855455752 0.01714797777496937 a21.073128389943804,21.073128389943804 0 0,0 -0.08202407565079799,-0.35335757113413285 l 0.07137408013591068 -0.01592174929226229" fill="#ff0100" stroke="none" /><path d="M 79.50377843672027 104.57218783832718 l -0.030988575554670158 0.006912766230629765 a21.031750246485135,21.031750246485135 0 0,0 -0.07578036189084657,-0.35402062217253266 l 0.031102976169957476 -0.006378324641933299" fill="#ff0000" stroke="none" /><path d="M 79.35854240842038 103.8639653848113 l -0.02913857090591531 0.0054545774611021594 a21.029644708292007,21.029644708292007 0 0,0 -0.06354313205161818,-0.3563836300201725 l 0.029228145296722206 -0.004952196707716012" fill="#ff0000" stroke="none" /><path d="M 79.29508885075956 103.50808413554451 l -0.13334448374721672 0.022592884587826132 a21.13524492515363,21.13524492515363 0 0,0 -0.05768738858353517,-0.3592194237765919 l 0.13371362669204265 -0.020294231118020572" fill="#ff0200" stroke="none" /><path d="M 79.23777060512086 103.15116336523772 l -0.08623869993719256 0.013088778990893708 a21.087226311983997,21.087226311983997 0 0,0 -0.05137847360382877,-0.3593409247198815 l 0.08645122455762035 -0.01160238229061163" fill="#ff0100" stroke="none" /><path d="M 79.18660465613746 102.79330883721812 l -0.14186553235097218 0.01903938490888646 a21.143137442505214,21.143137442505214 0 0,0 -0.04530520355710429,-0.3611270485375117 l 0.1421722451549246 -0.01659458208396612" fill="#ff0200" stroke="none" /><path d="M 79.1416061653843 102.43462659150553 l -0.20523953539183057 0.02395590161232555 a21.20663289212977,21.20663289212977 0 0,0 -0.03919965151355093,-0.3629400886605048 l 0.20562148840643338 -0.020419491067038643" fill="#ff0300" stroke="none" /><path d="M 79.10278846688536 102.07522291339032 l -0.038335662524307416 0.0038069694200288245 a21.03852422662874,21.03852422662874 0 0,0 -0.03268525460134734,-0.36067906090753477 l 0.03839551340273009 -0.0031465199639278815" fill="#ff0000" stroke="none" /><path d="M 79.07016306316243 101.71520430193888 l -0.11681695427378039 0.009573172648905505 a21.11720855958661,21.11720855958661 0 0,0 -0.02657092007367773,-0.3625390937110248 l 0.11696443301179346 -0.007560942441120097" fill="#ff0100" stroke="none" /><path d="M 79.04373962182676 101.35467743843564 l -0.13002678814115895 0.00840533344730438 a21.13029817828606,21.13029817828606 0 0,0 -0.020339068238938288,-0.3631677264194865 l 0.13015220726762888 -0.006165890692380225" fill="#ff0200" stroke="none" /><path d="M 79.0235259727143 100.99374915477108 l -0.7778459943659594 0.036850034874200605 a21.778718380431204,21.778718380431204 0 0,0 -0.014516933645732661,-0.3746175528517252 l 0.7783650608628928 -0.023455235008478632" fill="#ff0b01" stroke="none" /><path d="M 79.0095281055655 100.63252640178507 l -0.6320698763999355 0.019046779253304613 a21.632356788887535,21.632356788887535 0 0,0 -0.008012148337120032,-0.3722930500935953 l 0.632304087422063 -0.008163913369580495" fill="#ff0901" stroke="none" /><line stroke="#e1ed5e" stroke-width="0.3" x1="15.007084014347285" x2="10.007500721073583" y1="101.09737516637583" y2="101.16192664675087" /><path d="M 14.007167355692545 101.11028546245083 a86.0,86.0 0 0,1 10.666146001902534,-42.60595125391555" fill="none" id="id82" stroke="none" /><text fill="#e1ed5e" style="font-size:6.75px; font-family:Arial;" text-anchor="middle"><textPath startOffset="22.20632615414155" xlink:href="#id82">October</textPath></text><path d="M 79.00175016825051 100.2711162175752 l -1.9926798527786609 0.025728231107471026 a22.992845939240137,22.992845939240137 0 0,0 -0.001703334892843596,-0.39579504172182955 l 1.9928274849610075 0.008576288818033918" fill="#ff1c02" stroke="none" /><path d="M 79.00019446554 99.90962569577889 l -3.87539878653258 -0.016678081534494644 a24.87543467408004,24.87543467408004 0 0,0 0.005528260788936349,-0.4281698904602502 l 3.874537518625928 0.08338423005521685" fill="#ff3705" stroke="none" /><path d="M 79.00486145842228 99.54816195383935 l -1.2360941511327797 -0.026602080525088542 a22.236380370740708,22.236380370740708 0 0,0 0.011529357317958159,-0.38260324005530894 l 1.2354530993591764 0.047875468005391913" fill="#ff1101" stroke="none" /><path d="M 79.01574976396665 99.18683210126434 l -0.0762325069924445 -0.0029541120997475796 a21.076289723427543,21.076289723427543 0 0,0 0.01716853661872546,-0.3624006729869189 l 0.07617036214022023 0.004265891709675586" fill="#ff0100" stroke="none" /><path d="M 79.03285615573316 98.82574320788736 l -0.1461714986267388 -0.008186278319575002 a21.146400553836084,21.146400553836084 0 0,0 0.02348197920473368,-0.3632558249272123 l 0.14600892841759194 0.010701167499799116" fill="#ff0200" stroke="none" /><path d="M 79.05617556472873 98.46500227214037 l -0.10765131127735846 -0.007889892255474068 a21.107940053824045,21.107940053824045 0 0,0 0.029677277409346073,-0.3621379541812048 l 0.1074995500485153 0.009741763644457245" fill="#ff0100" stroke="none" /><path d="M 79.08570108090925 98.10471618934814 l -0.032717810933492214 -0.0029649350246980146 a21.032851879580633,21.032851879580633 0 0,0 0.035778758297074255,-0.36028721334068897 l 0.032661926954189284 0.0035276790698173114" fill="#ff0000" stroke="none" /><path d="M 79.12142395522702 97.74499172005258 l -0.0785802637847344 -0.008487127910209714 a21.079037264607543,21.079037264607543 0 0,0 0.042067381465899854,-0.36040763428290074 l 0.07842252931524564 0.009838500517972236" fill="#ff0100" stroke="none" /><path d="M 79.16333360222342 97.38593545837743 l -0.04234049923608502 -0.005311828466930655 a21.042672396197343,21.042672396197343 0 0,0 0.048181708539259356,-0.3590096930238005 l 0.042242791638991806 0.006039863555390548" fill="#ff0000" stroke="none" /><path d="M 79.21141760316559 97.0276538004421 l -0.026344659822094232 -0.003766752730228087 a21.02661258212336,21.02661258212336 0 0,0 0.054312848262628964,-0.3578538095351664 l 0.026275918120163052 0.0042196746574865145" fill="#ff0000" stroke="none" /><path d="M 79.26566170972629 96.67025291283419 l -0.02659956105877414 -0.004271648784513639 a21.026940371783954,21.026940371783954 0 0,0 0.06046560890368108,-0.3568714465114033 l 0.026522090634870037 0.004728883611744908" fill="#ff0000" stroke="none" /><path d="M 79.32604984820605 96.31383870115002 l -0.03149021906853758 -0.0056146999470577 a21.03198685280674,21.03198685280674 0 0,0 0.06661558953579752,-0.35586314301529454 l 0.03138890562287843 0.006155920424924946" fill="#ff0000" stroke="none" /><path d="M 79.3925641242962 95.95851677861259 l -0.04818852329172699 -0.009450623043139745 a21.049106497054268,21.049106497054268 0 0,0 0.07279052067506396,-0.35495242983885733 l 0.048018706701668454 0.010278709045399579" fill="#ff0000" stroke="none" /><path d="M 79.46518482838121 95.60439243477599 l -0.058503998173680884 -0.012523152257221452 a21.059829316766645,21.059829316766645 0 0,0 0.078929846476599,-0.3538270251670019 l 0.05827976469504431 0.013528346974182556" fill="#ff0100" stroke="none" /><path d="M 79.54389044137918 95.25157060432595 l -0.06368917134124467 -0.014784020026693533 a21.065382549615965,21.065382549615965 0 0,0 0.08503111857931636,-0.3525088823180704 l 0.06342525250111355 0.015878134004160785" fill="#ff0100" stroke="none" /><path d="M 79.62865764111835 94.90015583598534 l -0.11529169936183971 -0.028862589896706668 a21.118849589975255,21.118849589975255 0 0,0 0.09131757187852423,-0.35188385522991683 l 0.11477779561300813 0.030842870675487324" fill="#ff0100" stroke="none" /><path d="M 79.81627453868168 94.20196356495316 l -0.12741174715801842 -0.036600673829563474 a21.13256456026645,21.13256456026645 0 0,0 0.10344300074769165,-0.34875837425094736 l 0.1267628492986198 0.038788434827050064" fill="#ff0200" stroke="none" /><path d="M 79.91906864156998 93.8553929516997 l -0.01847081415718667 -0.005651923849161928 a21.019316190587848,21.019316190587848 0 0,0 0.10884454146041123,-0.3450669408826539 l 0.01837078892857159 0.005969031158230315" fill="#ff0000" stroke="none" /><path d="M 80.02781315780177 93.51064311812611 l -0.022518845185469996 -0.007316816337178751 a21.02367771504599,21.02367771504599 0 0,0 0.11479198960367876,-0.34321343791477815 l 0.022389561810018846 0.00770335717427907" fill="#ff0000" stroke="none" /><path d="M 80.14247586403 93.16781622104843 l -0.2207112501733811 -0.0759379574684846 a21.233409574220044,21.233409574220044 0 0,0 0.12188676705122475,-0.3445903039023863 l 0.2193714023123468 0.07972588779748199" fill="#ff0300" stroke="none" /><path d="M 80.38941819471856 92.48833698450439 l -0.11104972391322186 -0.04253663212456518 a21.118917644837524,21.118917644837524 0 0,0 0.1329551015316612,-0.338356231291905 l 0.11030107249986953 0.04444186831223361" fill="#ff0100" stroke="none" /><path d="M 80.52162464483688 92.15188598940014 l -0.019512025446567487 -0.007861672110235638 a21.021036278791563,21.021036278791563 0 0,0 0.13811652979293604,-0.33446013219846465 l 0.019373808767431704 0.008196374762011582" fill="#ff0000" stroke="none" /><path d="M 80.65960295795068 91.81776055985345 l -0.2926607421061144 -0.12381443159811516 a21.317774013163547,21.317774013163547 0 0,0 0.14588391291266098,-0.33672018455599584 l 0.2904861193507727 0.1288337607407103" fill="#ff0400" stroke="none" /><path d="M 81.10775173730289 90.83032412892265 l -0.020279009870379304 -0.009842764339748799 a21.02254147846018,21.02254147846018 0 0,0 0.160812418608866,-0.32418802300867594 l 0.020106578308100528 0.010190375847386255" fill="#ff0000" stroke="none" /><path d="M 81.26839172434947 90.50648371742162 l -0.03845291256682064 -0.01948862832243894 a21.043109547883986,21.043109547883986 0 0,0 0.1665317287541265,-0.3216862939683209 l 0.038111750652580115 0.020147644551095318" fill="#ff0000" stroke="none" /><path d="M 81.43458229118936 90.18545643968196 l -0.05445692700452797 -0.028788465233042133 a21.061598154430555,21.061598154430555 0 0,0 0.17219551526813848,-0.31905213782543124 l 0.05395331251791768 0.029721586390946075" fill="#ff0100" stroke="none" /><path d="M 81.6062741919709 89.86733742301443 l -0.07415150609351208 -0.040848287000824594 a21.084658303826842,21.084658303826842 0 0,0 0.17785648116585834,-0.3163868342345863 l 0.07343738363522309 0.04211863117019551" fill="#ff0100" stroke="none" /><line stroke="#e1ed5e" stroke-width="0.3" x1="26.266209847984243" x2="21.928928074336255" y1="57.711370442889674" y2="55.22380399835377" /><path d="M 25.398753493254645 57.213857153982495 a86.0,86.0 0 0,1 29.58750427330803,-30.492523968695096" fill="none" id="id83" stroke="none" /><text fill="#e1ed5e" style="font-size:6.75px; font-family:Arial;" text-anchor="middle"><textPath startOffset="21.46611528233685" xlink:href="#id83">November</textPath></text><path d="M 81.78341655067845 89.55222093294921 l -0.02707596485180378 -0.01552891076341838 a21.031213057238187,21.031213057238187 0 0,0 0.18281164179772433,-0.3124843550966649 l 0.026804648583754496 0.015992678213975077" fill="#ff0000" stroke="none" /><path d="M 81.96595687620814 89.24020034530311 l -0.04244149207412304 -0.025322216911054587 a21.049421603765644,21.049421603765644 0 0,0 0.18832637021716034,-0.309559035552098 l 0.041999323570745754 0.02604902567022704" fill="#ff0000" stroke="none" /><path d="M 82.15384107792192 88.93136811851018 l -0.016937507001649563 -0.010505063347804426 a21.019930767656373,21.019930767656373 0 0,0 0.19335574062531566,-0.3058423471877019 l 0.016754170130371244 0.01079505824972186" fill="#ff0000" stroke="none" /><path d="M 82.7489923806493 88.02491185347247 l -0.02672841381006384 -0.018553995132049278 a21.032537037974624,21.032537037974624 0 0,0 0.20901071682537253,-0.2956308364000142 l 0.02640507718081308 0.019011331863849627" fill="#ff0000" stroke="none" /><path d="M 82.95767976084542 87.72973835380427 l -0.014638659170036003 -0.010539655143502611 a21.018038144939002,21.018038144939002 0 0,0 0.2139209791994315,-0.2917879752187953 l 0.014455067456971114 0.010790074033798606" fill="#ff0000" stroke="none" /><path d="M 83.17141714833178 87.43820079747576 l -0.04051398542880075 -0.030241913673683913 a21.050556467024226,21.050556467024226 0 0,0 0.2192506271909133,-0.28850812511360396 l 0.03998741801377862 0.03093481466831444" fill="#ff0000" stroke="none" /><path d="M 85.05521093208273 85.24692304244772 l -0.017641449499738764 -0.017415144565080788 a21.024789271886736,21.024789271886736 0 0,0 0.2564665866897011,-0.2553652376616427 l 0.017339062642724456 0.01771623287683285" fill="#ff0000" stroke="none" /><path d="M 85.57189188830299 84.74124197986013 l -0.04688419469240264 -0.049583394873546856 a21.06823958352116,21.06823958352116 0 0,0 0.2656525592398832,-0.24689510195167313 l 0.04602375165766334 0.05038308289986749" fill="#ff0100" stroke="none" /><path d="M 85.83668400450813 84.49514656593479 l -0.01590235566167397 -0.017408613482119042 a21.02357848042093,21.02357848042093 0 0,0 0.2692910291736674,-0.24177214486850068 l 0.015600338892035218 0.01767976711989851" fill="#ff0000" stroke="none" /><path d="M 86.10567301691215 84.25364557470407 l -0.04979089644118274 -0.05642771351720626 a21.075254370113612,21.075254370113612 0 0,0 0.2740848887416531,-0.2376837146394173 l 0.04881220905275615 0.05727642157630412" fill="#ff0100" stroke="none" /><path d="M 86.37877921826538 84.01681056812374 l -0.016766434737036554 -0.019673794793679217 a21.025849014205093,21.025849014205093 0 0,0 0.277483599205841,-0.23238453433378348 l 0.0164252985720852 0.019959486521275074" fill="#ff0000" stroke="none" /><path d="M 86.65592168130627 83.78471172551755 l -0.03125982898209609 -0.03798592351227516 a21.04919458601381,21.04919458601381 0 0,0 0.2817550981468095,-0.22782636128103495 l 0.030601332270786145 0.03851838205744442" fill="#ff0000" stroke="none" /><path d="M 86.93701828274178 83.55741782278169 l -0.013740990670006791 -0.017296002794635962 a21.022089964627977,21.022089964627977 0 0,0 0.28526720297279595,-0.2226555767536619 l 0.01344123253778521 0.017529968771519612" fill="#ff0000" stroke="none" /><path d="M 87.22198572758235 83.33499621200491 l -0.01982411760473831 -0.02585448630228497 a21.03257990332646,21.03257990332646 0 0,0 0.28920182587950033,-0.21782081946981272 l 0.019376137966848055 0.026191895277952033" fill="#ff0000" stroke="none" /><path d="M 87.51073957382395 83.11751280151077 l -0.21601206263528977 -0.29199654404805425 a21.363212324873427,21.363212324873427 0 0,0 0.2975129286732309,-0.21615579531252846 l 0.2109538176082771 0.2956715741772506" fill="#ff0500" stroke="none" /><path d="M 87.80319425747018 82.90503203632743 l -0.009625384712390855 -0.013490880052519043 a21.016572624277796,21.016572624277796 0 0,0 0.2963025098441509,-0.2075788435917904 l 0.009391735284579657 0.013654566408252048" fill="#ff0000" stroke="none" /><path d="M 88.39885842347998 82.49532879139004 l -0.026571308006075166 -0.0400927794184004 a21.048098496552868,21.048098496552868 0 0,0 0.3037270423331281,-0.19755251705079258 l 0.02587723988865994 0.04054422062872798" fill="#ff0000" stroke="none" /><path d="M 88.70189139769569 82.29822771554957 l -0.02517925485603293 -0.03945062412152163 a21.046801139074628,21.046801139074628 0 0,0 0.30706365584964485,-0.19228323312297452 l 0.024496446634145838 0.03987819856742638" fill="#ff0000" stroke="none" /><path d="M 89.00827224532344 82.1063720568725 l -0.00929121483840761 -0.015125332902045065 a21.017751123022816,21.017751123022816 0 0,0 0.309899668118308,-0.1867110825502295 l 0.009029480502450423 0.015283024910893799" fill="#ff0000" stroke="none" /><line stroke="#e1ed5e" stroke-width="0.3" x1="56.762969772571076" x2="54.21961505331055" y1="26.818313649435495" y2="22.513508569990535" /><path d="M 56.25429882871897 25.957352633546506 a86.0,86.0 0 0,1 42.265352541879196,-11.944610805530505" fill="none" id="id84" stroke="none" /><text fill="#e1ed5e" style="font-size:6.75px; font-family:Arial;" text-anchor="middle"><textPath startOffset="22.20632615414155" xlink:href="#id84">December</textPath></text><path d="M 89.3179101791058 81.91981866633112 l -0.02644935085811107 -0.04476736927797593 a21.051996975997515,21.051996975997515 0 0,0 0.31357778296296296,-0.1816444919375261 l 0.02567483542982798 0.045216018605549226" fill="#ff0100" stroke="none" /><path d="M 89.63071344664047 81.73862282372117 l -0.008269120969050631 -0.014562770172764285 a21.01674672017756,21.01674672017756 0 0,0 0.31612781023705644,-0.1759247841326051 l 0.008017221659948592 0.014702951865553975" fill="#ff0000" stroke="none" /><path d="M 89.94658935756843 81.56283822128135 l -0.00901078407849333 -0.016525066936697003 a21.01882211643178,21.01882211643178 0 0,0 0.3191407403792706,-0.17047393096685023 l 0.008724997170917398 0.01667772440529669" fill="#ff0000" stroke="none" /><path d="M 90.26544431104013 81.39251694778311 l -0.008643734844918736 -0.016522392472117786 a21.018646812195975,21.018646812195975 0 0,0 0.32202519889999615,-0.164953814403161 l 0.008358048356158887 0.016668732187784006" fill="#ff0000" stroke="none" /><path d="M 90.58718382345135 81.22770947309562 l -0.03831494211582981 -0.0764127559095295 a21.085480664802216,21.085480664802216 0 0,0 0.3258497297440202,-0.15989304723555117 l 0.036993945361383646 0.07706096327991031" fill="#ff0100" stroke="none" /><path d="M 90.91171255644093 81.06846463323043 l -0.008526148408569287 -0.017760560627244473 a21.01970108424628,21.01970108424628 0 0,0 0.32752877079688697,-0.15377914957047753 l 0.008219166312073837 0.0179046928377296" fill="#ff0000" stroke="none" /><path d="M 91.23893434514133 80.91482961587045 l -0.03254591942741159 -0.07089827220228977 a21.07801154961059,21.07801154961059 0 0,0 0.3310431007726394,-0.14852938964191242 l 0.03132070018799783 0.07144799236073113" fill="#ff0100" stroke="none" /><path d="M 91.56875222667455 80.76684994638697 l -1.1968848525453697 -2.730303578401671 a23.981122436346002,23.981122436346002 0 0,0 0.37949126152462054,-0.1624783533440728 l 1.149709833230441 2.75050145970853" fill="#ff2a04" stroke="none" /><path d="M 91.90106846888425 80.62456947434976 l -0.22002285451769804 -0.5263703632243952 a21.570504877973097,21.570504877973097 0 0,0 0.3438093297038151,-0.14024845812434653 l 0.21092965522550242 0.5300797075323187" fill="#ff0801" stroke="none" /><path d="M 92.23578459929587 80.48803036053334 l -0.14744111062887938 -0.37052893637379464 a21.39878637613862,21.39878637613862 0 0,0 0.34341672653972777,-0.1332403545984567 l 0.14104121908947528 0.3730119948628028" fill="#ff0500" stroke="none" /><path d="M 92.57280143429618 80.3572730644239 l -0.005806890903503247 -0.01535749601322074 a21.016418668209123,21.016418668209123 0 0,0 0.33948288862951675,-0.1250344128962024 l 0.005541676501417024 0.015455176715745507" fill="#ff0000" stroke="none" /><path d="M 92.91201910852362 80.23233633223022 l -0.008093714768759716 -0.022572553992647324 a21.023979750051012,21.023979750051012 0 0,0 0.34170774451911823,-0.11921512245527678 l 0.007703966186356153 0.022708529620133904" fill="#ff0000" stroke="none" /><path d="M 93.94186890950719 79.89281104454417 l -0.005564842351874507 -0.01846994312355855 a21.019290056230833,21.019290056230833 0 0,0 0.34732853647718653,-0.1013947241732743 l 0.005246088151266681 0.018562996215531678" fill="#ff0000" stroke="none" /><path d="M 95.692805502759 79.44645832069477 l -0.006502319223665869 -0.031028477878436055 a21.03170246985235,21.03170246985235 0 0,0 0.35496865816231726,-0.07120337345560283 l 0.0059672515942121715 0.031135807411249553" fill="#ff0000" stroke="none" /><path d="M 97.47563105711357 79.15227682838746 l -0.005301974113125412 -0.04378682002287156 a21.04410664958044,21.04410664958044 0 0,0 0.359987800162945,-0.04044882380825488 l 0.004547470440462428 0.043871597301724935" fill="#ff0000" stroke="none" /><path d="M 97.83486435360386 79.11191278185805 l -0.005521240565858323 -0.053266018082495224 a21.053551403153893,21.053551403153893 0 0,0 0.3607925778813897,-0.03426160262973528 l 0.0046035355942322855 0.053353165227411056" fill="#ff0100" stroke="none" /><path d="M 98.19473922651362 79.07773832637324 l -0.0017004913036176971 -0.019708024763262583 a21.019781251495875,21.019781251495875 0 0,0 0.3607493038331803,-0.0280010890174512 l 0.001360998108103207 0.019734375969175974" fill="#ff0000" stroke="none" /><path d="M 98.55514903715128 79.0497635885617 l -0.00213569281052909 -0.030967394169552447 a21.03104095174819,21.03104095174819 0 0,0 0.36137132037137154,-0.021798904907068907 l 0.0016023235995345888 0.030999568456927768" fill="#ff0000" stroke="none" /><path d="M 98.91598698831166 79.02799685794201 l -0.0038206585505923692 -0.07391688315895512 a21.074015559497276,21.074015559497276 0 0,0 0.3624320913182128,-0.015607088248320258 l 0.002547734843055477 0.07397169793146781" fill="#ff0100" stroke="none" /><path d="M 99.27714615592234 79.0124445844662 l -0.0007171886404236948 -0.02082307019268819 a21.020835417245536,21.020835417245536 0 0,0 0.36173190598784183,-0.009342467918590513 l 0.0003586474577028409 0.020832330253638346" fill="#ff0000" stroke="none" /><path d="M 99.63851952072746 79.00311137660856 l -0.003060700021741148 -0.17778325843608678 a21.17780960284747,21.17780960284747 0 0,0 0.3645411792942768,-0.003137721019943477 l 4.355079219696359e-17 0.17780960284747138" fill="#ff0200" stroke="none" /></svg>