<?xml version="1.0" encoding="utf-8" ?>
<svg baseProfile="full" height="200mm" version="1.1" viewBox="0,0,200,200" width="200mm" xmlns="http://www.w3.org/2000/svg" xmlns:ev="http://www.w3.org/2001/xml-events" xmlns:xlink="http://www.w3.org/1999/xlink"><defs /><rect fill="#222222" height="200" width="200" x="0" y="0" /><text alignment-baseline="middle" fill="#e1ed5e" style="dominant-baseline: central; font-size:9.0px; font-family:Arial;" text-anchor="middle" x="100.0" y="100.0">2025</text><line stroke="#e1ed5e" stroke-width="0.3" x1="100.0" x2="100.0" y1="15.0" y2="10.0" /><path d="M 100.0 14.0 a86.0,86.0 0 0,1 42.46469731375804,11.215312516191453" fill="none" id="id97" stroke="none" /><text fill="#e1ed5e" style="font-size:6.75px; font-family:Arial;" text-anchor="middle"><textPath startOffset="22.20632615414155" xlink:href="#id97">January</textPath></text><path d="M 100.0 79.0 l 0.0 -0.0655645277670196 a21.06556452776702,21.06556452776702 0 0,0 0.3626090648401712,0.0031210907008467504 l -0.0011285855676428209 0.06555481367473172" fill="#ff0100" stroke="none" /><path d="M 100.72285384407766 79.0124445844662 l 0.0060360594668973635 -0.17525276180084282 a21.175356678038536,21.175356678038536 0 0,0 0.3641749615094956,0.015682139904979714 l -0.009051853365724494 0.17512289537166834" fill="#ff0200" stroke="none" /><path d="M 101.08401301168833 79.027996857942 l 0.005193948441804498 -0.10048542025483503 a21.100619564619446,21.100619564619446 0 0,0 0.36256687294819434,0.021871023903416994 l -0.006922870229610749 0.10038112697111397" fill="#ff0100" stroke="none" /><path d="M 101.44485096284872 79.0497635885617 l 0.002077552902071362 -0.030124369623458564 a21.030195924746092,21.030195924746092 0 0,0 0.3609280443290763,0.028014962719999707 l -0.0025957865934888883 0.030084144714994338" fill="#ff0000" stroke="none" /><path d="M 101.80526077348638 79.07773832637324 l 0.000703675775716511 -0.008155325219026727 a21.00818562697815,21.00818562697815 0 0,0 0.3600151491701581,0.03418777640600179 l -0.0008439520361188225 0.00814200429784672" fill="#ff0000" stroke="none" /><path d="M 102.16513564639614 79.11191278185805 l 0.003931007869246865 -0.037924291424745134 a21.038127479630013,21.038127479630013 0 0,0 0.35988551840429167,0.04043733126091511 l -0.004583229783263792 0.037851006693229196" fill="#ff0000" stroke="none" /><path d="M 102.52436894288641 79.15227682838746 l 0.010033414510020367 -0.08286183711790249 a21.083467080081213,21.083467080081213 0 0,0 0.35991011524756206,0.04672666244860487 l -0.011458258265428515 0.08267685150516092" fill="#ff0100" stroke="none" /><path d="M 102.88285421437855 79.19881850522331 l 1.195300876857051 -8.62467146495264 a29.707106411695193,29.707106411695193 0 0,0 0.5059134645013794,0.07455849369111342 l -1.3435833217870863 8.602818487100556" fill="#ff780b" stroke="none" /><path d="M 103.2404852339499 79.25152402106235 l 0.012054661241571 -0.0771846903002531 a21.078120364018577,21.078120364018577 0 0,0 0.3579976153968975,0.05907267398242343 l -0.013381482777343667 0.07696575337820499" fill="#ff0100" stroke="none" /><path d="M 103.59715602781102 79.31037775812273 l 0.01165025887842021 -0.06700834029745166 a21.068013573655215,21.068013573655215 0 0,0 0.3567565912124811,0.06519498671333766 l -0.012801971193802187 0.06679787223337547" fill="#ff0100" stroke="none" /><path d="M 103.95276090670814 79.375362276772 l 0.011901940438988987 -0.062101709552176296 a21.06323194220895,21.06323194220895 0 0,0 0.35550080597637396,0.071310117300916 l -0.012969155882488306 0.06188763617405196" fill="#ff0100" stroke="none" /><path d="M 105.01212808612495 79.60689891045804 l 0.017164961079399504 -0.06983995230674174 a21.071918390047784,21.071918390047784 0 0,0 0.3514907481137284,0.08960281796216195 l -0.018364597878152946 0.06953413817571194" fill="#ff0100" stroke="none" /><path d="M 105.71112130821622 79.79150937346287 l 0.0036569714694172 -0.01293999368476264 a21.013446816608024,21.013446816608024 0 0,0 0.3472319811767378,0.10136653703334968 l -0.0038791703695821235 0.01287512773270947" fill="#ff0000" stroke="none" /><path d="M 106.40334571778207 80.00007090966166 l 0.3432159608316443 -1.0719856746517846 a22.12558894914095,22.12558894914095 0 0,0 0.3617187978211156,0.11925300055829828 l -0.36161758089517737 1.0659189498342503" fill="#ff1001" stroke="none" /><path d="M 106.74666289553966 80.11325718540242 l 0.0071109227372228 -0.020960450201701192 a21.02213381338208,21.02213381338208 0 0,0 0.3416777420712982,0.11920465519034414 l -0.0074706688717946605 0.02083494183914959" fill="#ff0000" stroke="none" /><path d="M 107.4271985657038 80.35727306442388 l 0.05525364400792894 -0.1461294230714341 a21.15622667334148,21.15622667334148 0 0,0 0.3395240263809128,0.13173004741356303 l -0.05776083538850875 0.14515667176732425" fill="#ff0200" stroke="none" /><path d="M 107.76421540070413 80.48803036053334 l 2.18742944580469 -5.497150031559628 a26.916376090974055,26.916376090974055 0 0,0 0.42901644047021337,0.17500657802909958 l -2.281729755863291 5.4586825673469495" fill="#ff5307" stroke="none" /><path d="M 108.09893153111575 80.62456947434976 l 0.05713985214147159 -0.13669818434191516 a21.148159901137674,21.148159901137674 0 0,0 0.33466081085693383,0.14328429397391654 l -0.059484420788720654 0.1356943624052078" fill="#ff0200" stroke="none" /><path d="M 108.43124777332544 80.76684994638697 l 0.1954939982933478 -0.44595598478939386 a21.486923652884308,21.486923652884308 0 0,0 0.33746531618382547,0.15141085049382605 l -0.20314143294395348 0.4425248037790366" fill="#ff0701" stroke="none" /><path d="M 108.76106565485865 80.91482961587045 l 0.29141086652375614 -0.6348115923898361 a21.69850272079688,21.69850272079688 0 0,0 0.33810585106760455,0.15874523058074155 l -0.30229492889095866 0.6297013791690916" fill="#ff0a01" stroke="none" /><path d="M 109.41281617654863 81.2277094730956 l 0.06245741941456907 -0.12456089663496607 a21.139342549892106,21.139342549892106 0 0,0 0.3238743697474552,0.1659010315334154 l -0.06459227675077982 0.12346733978905013" fill="#ff0200" stroke="none" /><path d="M 109.73455568895987 81.39251694778311 l 0.3977901863125228 -0.7603710314732768 a21.858138181081745,21.858138181081745 0 0,0 0.3318845539384079,0.17728123482392738 l -0.4108197867792418 0.7534110701475953" fill="#ff0c01" stroke="none" /><path d="M 110.05341064243156 81.56283822128135 l 0.29536014329131705 -0.5416671951967974 a21.616961072189675,21.616961072189675 0 0,0 0.3251560604843938,0.18094899562056804 l -0.30464029284774596 0.5365028020160495" fill="#ff0901" stroke="none" /><path d="M 110.36928655335952 81.73862282372117 l 3.058967877079548 -5.387156183409003 a27.195057402272106,27.195057402272106 0 0,0 0.40508108648684166,0.23464911146812692 l -3.1512456960317183 5.333702914550826" fill="#ff5708" stroke="none" /><line stroke="#e1ed5e" stroke-width="0.3" x1="143.23703022742887" x2="145.7803849466894" y1="26.81831364943548" y2="22.513508569990506" /><path d="M 143.74570117128098 25.957352633546492 a86.0,86.0 0 0,1 28.547481713284135,27.462654790039103" fill="none" id="id98" stroke="none" /><text fill="#e1ed5e" style="font-size:6.75px; font-family:Arial;" text-anchor="middle"><textPath startOffset="19.985693538727396" xlink:href="#id98">February</textPath></text><path d="M 110.68208982089419 81.91981866633111 l 0.05860126993562912 -0.09918673261359648 a21.1152046733628,21.1152046733628 0 0,0 0.3113365879262734,0.18757681065672083 l -0.060299924079540046 0.09816331249826109" fill="#ff0200" stroke="none" /><path d="M 110.99172775467656 82.1063720568725 l 0.03438852104555448 -0.05598168139142276 a21.06570022093655,21.06570022093655 0 0,0 0.30733938521725435,0.19245589482767528 l -0.03534705863507207 0.055381445240803254" fill="#ff0100" stroke="none" /><path d="M 111.60114157652 82.49532879139004 l 1.1733827842932176 -1.770487818411519 a23.124018425913317,23.124018425913317 0 0,0 0.32989749366001225,0.22274826034992007 l -1.2036849723597716 1.7500276457629287" fill="#ff1e03" stroke="none" /><path d="M 111.90073688211348 82.69761687909136 l 1.176110599100705 -1.7099374920881272 a23.075360780241752,23.075360780241752 0 0,0 0.3253283699953472,0.22791331354822653 l -1.2053701086797033 1.689439335775965" fill="#ff1d03" stroke="none" /><path d="M 112.19680574252982 82.90503203632743 l 0.8239445591202805 -1.1548356298640199 a22.418636658382738,22.418636658382738 0 0,0 0.31221120436698474,0.22683471769238608 l -0.8437010798410539 1.1404816773549589" fill="#ff1402" stroke="none" /><path d="M 112.48926042617603 83.11751280151076 l 37.46778127852809 -50.647461595467746 a84.0,84.0 0 0,0 1.1550153849664682,0.8699336419766106 l -38.33404281725294 49.995011363985284" fill="#4dd2ff" stroke="none" /><path d="M 112.77801427241765 83.33499621200491 l 0.03822442619327639 -0.049852050070090054 a21.062819850795716,21.062819850795716 0 0,0 0.28581990257230877,0.22308696755785876 l -0.03907688392501548 0.049186693289007204" fill="#ff0100" stroke="none" /><path d="M 113.06298171725822 83.55741782278167 l 0.05049231290390149 -0.0635554747154983 a21.081171251245117,21.081171251245117 0 0,0 0.2821831234764265,0.2281724613304159 l -0.051578834944819116 0.06267691612095276" fill="#ff0100" stroke="none" /><path d="M 113.34407831869373 83.78471172551755 l 0.14894012620362082 -0.1809871783086123 a21.23439180852936,21.23439180852936 0 0,0 0.2802357927138557,0.23468941724789652 l -0.15203345587659384 0.1783966036668964" fill="#ff0300" stroke="none" /><path d="M 113.6212207817346 84.01681056812373 l 0.24329255114330325 -0.2854803541179122 a21.37508705393429,21.37508705393429 0 0,0 0.27798422994736777,0.24106518490826798 l -0.24817057973743517 0.28125017578997297" fill="#ff0500" stroke="none" /><path d="M 113.89432698308785 84.25364557470407 l 0.18035211836074466 -0.20439193496150745 a21.272585674008223,21.272585674008223 0 0,0 0.2724805624633887,0.24463573934823948 l -0.1838436684201234 0.20125718684397056" fill="#ff0400" stroke="none" /><path d="M 114.16331599549186 84.49514656593476 l 0.17415827987011737 -0.1906544063956902 a21.25822511327408,21.25822511327408 0 0,0 0.26804811497663694,0.24912150993188842 l -0.17741427864160111 0.18762831038916128" fill="#ff0400" stroke="none" /><path d="M 114.42810811169701 84.74124197986012 l 0.14806187337719476 -0.15658603888888367 a21.215502913954488,21.215502913954488 0 0,0 0.2631901906797482,0.253188754908603 l -0.1507353076693612 0.15401419721797877" fill="#ff0300" stroke="none" /><path d="M 114.94478906791727 85.2469230424477 l 0.07772808772878782 -0.07673098996679205 a21.10922133694136,21.10922133694136 0 0,0 0.2530450179004273,0.26078513423143207 l -0.0790373693323242 0.07538166018524567" fill="#ff0100" stroke="none" /><path d="M 115.19652480421416 85.50635884689758 l 34.77672598976419 -33.16820085310797 a69.05777999865633,69.05777999865633 0 0,0 0.8130161851353527,0.8672689803882209 l -35.34250949687 32.56466245584169" fill="#3bff99" stroke="none" /><path d="M 115.4437574822437 85.77008943001954 l 5.302469975832967 -4.885706968842376 a28.21015398101906,28.21015398101906 0 0,0 0.325970155366435,0.35994438713861393 l -5.385783771815437 4.793709794434212" fill="#ff6409" stroke="none" /><path d="M 115.68641384162765 86.03803664274999 l 0.03975958517883407 -0.03538870496283818 a21.05322767186849,21.05322767186849 0 0,0 0.23861140399298558,0.27277408291585936 l -0.04036285274966785 0.03469906584403101" fill="#ff0100" stroke="none" /><path d="M 115.9244219780498 86.31012108654704 l 0.053397600744044975 -0.04590475493945712 a21.07041697445412,21.07041697445412 0 0,0 0.23407164997814445,0.2770670035751649 l -0.05417986420930663 0.044978801735185654" fill="#ff0100" stroke="none" /><path d="M 116.15771136456269 86.58626213691792 l 0.007591644962153615 -0.006302398475520253 a21.009866777578097,21.009866777578097 0 0,0 0.22860886856906457,0.2802474418487839 l -0.007699005607627033 0.0061707870186354565" fill="#ff0000" stroke="none" /><path d="M 116.38621287248628 86.86637796730983 l 0.021286726209427304 -0.017061405129027735 a21.027280327301774,21.027280327301774 0 0,0 0.22393644959085038,0.28437654987787375 l -0.02157725639424173 0.016692461298115618" fill="#ff0000" stroke="none" /><path d="M 116.60985879189232 87.15038557335679 l 0.03190301661164097 -0.024680610933699346 a21.04033528263175,21.04033528263175 0 0,0 0.21914416914585907,0.2883680388051835 l -0.03232312598161357 0.02412779624748223" fill="#ff0000" stroke="none" /><path d="M 117.04232023915458 87.72973835380427 l 0.07765976470911107 -0.05591407854040312 a21.095694426346036,21.095694426346036 0 0,0 0.2096383430119992,0.29651856913122115 l -0.07861072752499319 0.05456900907738879" fill="#ff0100" stroke="none" /><path d="M 117.2510076193507 88.02491185347247 l 0.044204318530102676 -0.03068519952778757 a21.05381080975762,21.05381080975762 0 0,0 0.20409718025265738,0.29948742775150866 l -0.04472596445149343 0.029919748505872486" fill="#ff0100" stroke="none" /><path d="M 117.45458315368197 88.32363383020206 l 0.04077429553473108 -0.02727625178941308 a21.04905646836079,21.04905646836079 0 0,0 0.19886683932684832,0.3028878397644061 l -0.04123777021950432 0.02657034804733303" fill="#ff0100" stroke="none" /><path d="M 117.65298651832404 88.62581576622439 l 0.14304307562847793 -0.0921656114037905 a21.170164101415924,21.170164101415924 0 0,0 0.19473768987324247,0.3080282590220907 l -0.14460836174767608 0.08968970466749364" fill="#ff0200" stroke="none" /><line stroke="#e1ed5e" stroke-width="0.3" x1="172.23445277983987" x2="176.4835382374775" y1="55.19839476539836" y2="52.563006222186495" /><path d="M 173.08426987136738 54.67131705675599 a86.0,86.0 0 0,1 12.851231095245387,41.99856678651699" fill="none" id="id99" stroke="none" /><text fill="#e1ed5e" style="font-size:6.75px; font-family:Arial;" text-anchor="middle"><textPath startOffset="22.20632615414155" xlink:href="#id99">March</textPath></text><path d="M 117.84615892207809 88.93136811851018 l 0.03336254213248636 -0.02069227888799869 a21.03925849746387,21.03925849746387 0 0,0 0.1882354422593228,0.3094095738973143 l -0.03371378267803309 0.02011493178360293" fill="#ff0000" stroke="none" /><path d="M 118.03404312379186 89.2402003453031 l 0.2861464049155166 -0.17072588590746174 a21.333207282580922,21.333207282580922 0 0,0 0.18543669533115742,0.3169714225089076 l -0.2890427747170013 0.16577505104465884" fill="#ff0500" stroke="none" /><path d="M 118.56541770881063 90.18545643968196 l 0.09431888530159017 -0.04986135097374018 a21.106687424026738,21.106687424026738 0 0,0 0.16703487367196415,0.32265820980176757 l -0.09516319213367068 0.04823041891162779" fill="#ff0100" stroke="none" /><path d="M 118.73160827565052 90.50648371742162 l 0.17843384579825178 -0.09043348523633145 a21.200042127009148,21.200042127009148 0 0,0 0.16217021393666436,0.32692525553572577 l -0.17996407268832426 0.08734864120165584" fill="#ff0300" stroke="none" /><path d="M 118.89224826269711 90.83032412892265 l 0.06845581246584594 -0.03322619960708944 a21.076093223093054,21.076093223093054 0 0,0 0.15560359809846996,0.3277408614603831 l -0.06901760440607209 0.032042922506165965" fill="#ff0100" stroke="none" /><path d="M 119.196687751892 91.48605970444005 l 0.166173083819021 -0.07369957425206246 a21.181783170373,21.181783170373 0 0,0 0.1449532868419312,0.3345721712758964 l -0.16741708050363294 0.07082825838956328" fill="#ff0200" stroke="none" /><path d="M 119.34039704204932 91.81776055985345 l 0.08910879885038676 -0.0376987880255256 a21.096755240949275,21.096755240949275 0 0,0 0.1386140333486169,0.33566487652017646 l -0.08974451908520106 0.036159341052046046" fill="#ff0100" stroke="none" /><path d="M 119.47837535516314 92.15188598940014 l 0.043564767020488934 -0.01755286322333807 a21.046967988384502,21.046967988384502 0 0,0 0.1325021392141811,0.3372034916008827 l -0.04386045611637048 0.01680036672667098" fill="#ff0100" stroke="none" /><path d="M 119.61058180528143 92.48833698450437 l 0.06061481089579721 -0.023217976790193835 a21.064909396439678,21.064909396439678 0 0,0 0.12678609006376065,0.3397236872927386 l -0.06100548946118312 0.022171152468121957" fill="#ff0100" stroke="none" /><path d="M 119.7369772167798 92.82701384747503 l 0.047047182691379266 -0.01709830164234418 a21.05005785970503,21.05005785970503 0 0,0 0.12083426779822361,0.3416147467830749 l -0.047334531299412425 0.016285928432654743" fill="#ff0100" stroke="none" /><path d="M 119.85752413597 93.16781622104841 l 0.09796803408897106 -0.033706901664845856 a21.103604492774693,21.103604492774693 0 0,0 0.11522840011008467,0.3445182497815553 l -0.0985337279708258 0.032015548960976546" fill="#ff0100" stroke="none" /><path d="M 120.08093135843002 93.85539295169968 l 0.05270757698947515 -0.016128103985196898 a21.05511990938181,21.05511990938181 0 0,0 0.10306391249002092,0.3474802771009429 l -0.05297738659119835 0.015218440137724085" fill="#ff0100" stroke="none" /><path d="M 120.18372546131832 94.20196356495316 l 0.038706523687752015 -0.011118950019692335 a21.040271901190916,21.040271901190916 0 0,0 0.09699888909124285,0.34895661315126836 l -0.03889218334535797 0.010451033449472099" fill="#ff0000" stroke="none" /><path d="M 120.28053869075195 94.5502522615342 l 0.10512908773342414 -0.028250088267303214 a21.108858589807017,21.108858589807017 0 0,0 0.0912743709516927,0.35171738443606326 l -0.10559979055541953 0.026436278282389557" fill="#ff0100" stroke="none" /><path d="M 120.37134235888165 94.90015583598534 l 0.274193262717249 -0.06864264936723904 a21.282654840099518,21.282654840099518 0 0,0 0.08590814541955971,0.35614472477649484 l -0.2753342083976281 0.06391269293133811" fill="#ff0400" stroke="none" /><path d="M 120.45610955862082 95.25157060432595 l 0.11870847821874038 -0.027555524469316722 a21.12186471897062,21.12186471897062 0 0,0 0.07916234811269608,0.35486928441263105 l -0.11916521333347406 0.025508070506721794" fill="#ff0200" stroke="none" /><path d="M 120.53481517161879 95.60439243477599 l 0.025588279822883194 -0.00547733375881502 a21.026167943163337,21.026167943163337 0 0,0 0.07271119620200205,0.3545656155366963 l -0.02567877193988214 0.005036062058706935" fill="#ff0000" stroke="none" /><path d="M 120.6074358757038 95.95851677861258 l 0.03163980331084637 -0.006205125906010707 a21.032242530003995,21.032242530003995 0 0,0 0.06661639935407072,0.35586746909688916 l -0.03174192657477639 0.005659579346558785" fill="#ff0000" stroke="none" /><path d="M 120.67395015179393 96.31383870115 l 0.1594761020899626 -0.02843455804523456 a21.161991207258406,21.161991207258406 0 0,0 0.06085396454913064,0.3591635435143893 l -0.15994192815931627 0.025685226215007385" fill="#ff0200" stroke="none" /><path d="M 120.73433829027371 96.67025291283417 l 0.08853990561894823 -0.01421870757124309 a21.089674335971942,21.089674335971942 0 0,0 0.054475740095758306,0.3589270631922999 l -0.08877153915400642 0.012692531986861051" fill="#ff0100" stroke="none" /><path d="M 120.78858239683441 97.02765380044208 l 0.0314454024011731 -0.00449605560093067 a21.031765198695087,21.031765198695087 0 0,0 0.048156734172829646,0.35882360498548427 l -0.03151813563183894 0.003954108550782044" fill="#ff0000" stroke="none" /><path d="M 120.83666639777658 97.38593545837742 l 0.0337261027784882 -0.004231109128366725 a21.03399047356365,21.03399047356365 0 0,0 0.041977481698710774,0.35963742797849646 l -0.03379393748078789 0.00364994282501755" fill="#ff0000" stroke="none" /><path d="M 120.87857604477298 97.74499172005257 l 0.16356574304299 -0.01766605653981066 a21.164516995629246,21.164516995629246 0 0,0 0.036002732411009465,0.3625426021023665 l -0.16384560113622812 0.014847923733009178" fill="#ff0200" stroke="none" /><path d="M 120.96714384426684 98.82574320788733 l 0.2915087748210803 -0.016325836334055314 a21.291965577987703,21.291965577987703 0 0,0 0.017344224031236446,0.36610915658936954 l -0.2917466070858132 0.011305573121685978" fill="#ff0400" stroke="none" /><path d="M 120.98425023603335 99.18683210126433 l 0.07587701081950178 -0.0029403361452718314 a21.075933960436355,21.075933960436355 0 0,0 0.01092767659970846,0.3626363862288059 l -0.0759163818748553 0.0016338024914668678" fill="#ff0100" stroke="none" /><line stroke="#e1ed5e" stroke-width="0.3" x1="184.98032266829074" x2="189.97916517819016" y1="98.17113171792111" y2="98.06355123074" /><path d="M 185.9800911702706 98.14961562048488 a86.0,86.0 0 0,1 -9.607161424134198,41.387399972396054" fill="none" id="id100" stroke="none" /><text fill="#e1ed5e" style="font-size:6.75px; font-family:Arial;" text-anchor="middle"><textPath startOffset="21.466115282336823" xlink:href="#id100">April</textPath></text><path d="M 120.99513854157772 99.54816195383933 l 0.2093478278433278 -0.004505391251092968 a21.209396302672815,21.209396302672815 0 0,0 0.004713528646767815,0.3650679881829858 l -0.20939436360781116 0.0009011450076444185" fill="#ff0300" stroke="none" /><path d="M 120.99824983174949 100.27111621757518 l 0.03984811020564114 0.000514493779388111 a21.03985143147755,21.03985143147755 0 0,0 -0.007792697407180407,0.36209602769518656 l -0.03983335011345328 -0.0012003372646895091" fill="#ff0000" stroke="none" /><path d="M 120.9904718944345 100.63252640178507 l 0.03518927542569228 0.0010603928238668398 a21.035205248726946,21.035205248726946 0 0,0 -0.014021333739016812,0.3618283214081226 l -0.03516580883547227 -0.0016659612459956072" fill="#ff0000" stroke="none" /><path d="M 120.9764740272857 100.99374915477107 l 3.6930900314418906 0.1749581503767013 a24.69723198281075,24.69723198281075 0 0,0 -0.023772437207134546,0.42447283575341777 l -3.689531243347227 -0.2385027024655424" fill="#ff3405" stroke="none" /><path d="M 120.95626037817324 101.35467743843564 l 0.1799404496579658 0.011631906791323197 a21.180316018918766,21.180316018918766 0 0,0 -0.026650325609366143,0.36362251915752364 l -0.17971356538426198 -0.014727562445617097" fill="#ff0200" stroke="none" /><path d="M 120.92983693683757 101.71520430193887 l 0.023138391617515193 0.0018961957975151308 a21.023215958415452,21.023215958415452 0 0,0 -0.03266147181893032,0.3604166198853459 l -0.023102323521509538 -0.0022942042314315725" fill="#ff0000" stroke="none" /><path d="M 120.8583938346157 102.4346265915055 l 0.05657502509416447 0.006603531489599088 a21.056959108951418,21.056959108951418 0 0,0 -0.04512054189303084,0.3596551133846281 l -0.05645297395428551 -0.007576399161622109" fill="#ff0100" stroke="none" /><path d="M 120.81339534386255 102.79330883721812 l 0.09140875931958836 0.012267719465668167 a21.092228294038406,21.092228294038406 0 0,0 -0.05139066080185556,0.35942616195450333 l -0.09118404750113146 -0.013839353400580833" fill="#ff0100" stroke="none" /><path d="M 120.76222939487914 103.15116336523771 l 0.17137731543508486 0.02601059393771181 a21.17333994127935,21.17333994127935 0 0,0 -0.05779136665458061,0.3598668953242408 l -0.1709041944192158 -0.028956718955157563" fill="#ff0200" stroke="none" /><path d="M 120.64145759157962 103.86396538481128 l 0.21684271988941806 0.040591744060886364 a21.22060928098098,21.22060928098098 0 0,0 -0.0703009147607186,0.35846284979440807 l -0.21611187215303532 -0.04431832092323939" fill="#ff0300" stroke="none" /><path d="M 120.5718875245553 104.21870165774334 l 0.06964923763064297 0.014283052729227133 a21.071098677187383,21.071098677187383 0 0,0 -0.07592213983530947,0.354682961528761 l -0.06939305907089041 -0.015479833674157166" fill="#ff0100" stroke="none" /><path d="M 120.49622156327973 104.57218783832717 l 0.0640705920690947 0.014292526110156868 a21.06564538879993,21.06564538879993 0 0,0 -0.08199494916134122,0.3532320949798634 l -0.06381507697720065 -0.015393278438585178" fill="#ff0100" stroke="none" /><path d="M 120.41448212921028 104.9243191809786 l 0.02997394803915393 0.007230224422282295 a21.030833645685362,21.030833645685362 0 0,0 -0.0879175830968539,0.35118704160982983 l -0.029845050647239184 -0.007745105429508065" fill="#ff0000" stroke="none" /><path d="M 120.02730092923936 106.31721596034902 l 0.1380689785970273 0.04355112844730969 a21.144774803193997,21.144774803193997 0 0,0 -0.1124778664777705,0.34617127795523306 l -0.13729886110300982 -0.045921306380337985" fill="#ff0200" stroke="none" /><path d="M 119.26925614724726 108.34839909993367 l 0.07293002896818859 0.031596911865388225 a21.07948052569485,21.07948052569485 0 0,0 -0.14711360953686167,0.3317023526469456 l -0.07237533470005404 -0.03284760100502152" fill="#ff0100" stroke="none" /><path d="M 118.97047184881838 109.00673069616215 l 0.022074427106982722 0.010480415131953564 a21.024436027366157,21.024436027366157 0 0,0 -0.1580304170681915,0.3255894662238583 l -0.021890753424076932 -0.010858837321087327" fill="#ff0000" stroke="none" /><path d="M 118.81262510543309 109.33194174019688 l 0.04150457864560848 0.02058821178339328 a21.04633038433887,21.04633038433887 0 0,0 -0.16378187178696768,0.3231571710258897 l -0.04114403707237174 -0.021299594511977275" fill="#ff0100" stroke="none" /><path d="M 118.64920377521936 109.65438752849418 l 0.26679351463969453 0.13811463542712568 a21.30042375400918,21.30042375400918 0 0,0 -0.17136443652317895,0.3241569335278081 l -0.2643765698916225 -0.1426865840410681" fill="#ff0400" stroke="none" /><line stroke="#e1ed5e" stroke-width="0.3" x1="174.80103733775053" x2="179.2010983576182" y1="140.37084112569926" y2="142.7455964860345" /><path d="M 175.68104954172406 140.8457921977663 a86.0,86.0 0 0,1 -30.038265399797805,32.042727171017184" fill="none" id="id101" stroke="none" /><text fill="#e1ed5e" style="font-size:6.75px; font-family:Arial;" text-anchor="middle"><textPath startOffset="22.206326154141568" xlink:href="#id101">May</textPath></text><path d="M 118.48025628344425 109.97397251340804 l 0.06999394030517009 0.037776404504428165 a21.07953746549096,21.07953746549096 0 0,0 -0.17508421961106474,0.31782871524344997 l -0.0693333112425958 -0.038975638145683195" fill="#ff0100" stroke="none" /><path d="M 118.30583269289576 110.29060199501025 l 0.17587029402831825 0.0988652758360024 a21.20175406585181,21.20175406585181 0 0,0 -0.1815758641338866,0.3165928241925669 l -0.1741424337420521 -0.10187794588688438" fill="#ff0300" stroke="none" /><path d="M 117.94076556474637 110.91462005526583 l 0.04360619247400543 0.026528690829436735 a21.051041859872107,21.051041859872107 0 0,0 -0.1909984688635966,0.30795034704456703 l -0.04314308394244594 -0.027275369239277262" fill="#ff0100" stroke="none" /><path d="M 117.75023020441432 111.22182372390056 l 0.08686953313780828 0.05491954620439734 a21.102773889402307,21.102773889402307 0 0,0 -0.19675335699041618,0.30536557936813863 l -0.08591131277034177 -0.056406725493988896" fill="#ff0100" stroke="none" /><path d="M 117.35343817320211 111.8261652097733 l 0.10031982297372821 0.06836678636597825 a21.12140051218793,21.12140051218793 0 0,0 -0.20733077814512435,0.2986754493781793 l -0.09912813766646766 -0.07008349793117714" fill="#ff0200" stroke="none" /><line stroke="#e1ed5e" stroke-width="0.3" x1="143.8653032363475" x2="146.44561519142675" y1="172.8068346515853" y2="177.08958963109032" /><path d="M 144.38136562736335 173.6633856474863 a86.0,86.0 0 0,1 -40.68145358897372,12.25698825130547" fill="none" id="id102" stroke="none" /><text fill="#e1ed5e" style="font-size:6.75px; font-family:Arial;" text-anchor="middle"><textPath startOffset="21.466115282336833" xlink:href="#id102">June</textPath></text><line stroke="#e1ed5e" stroke-width="0.3" x1="102.19456741930631" x2="102.32365962044197" y1="184.97166512339345" y2="189.96999836594603" /><path d="M 102.22038585953345 185.97133177190398 a86.0,86.0 0 0,1 -42.740103519485714,-10.115201625700543" fill="none" id="id103" stroke="none" /><text fill="#e1ed5e" style="font-size:6.75px; font-family:Arial;" text-anchor="middle"><textPath startOffset="22.20632615414155" xlink:href="#id103">July</textPath></text><line stroke="#e1ed5e" stroke-width="0.3" x1="58.666819895761336" x2="56.23545636021788" y1="174.27360380694188" y2="178.64263932499728" /><path d="M 58.180547188652646 175.14741091055294 a86.0,86.0 0 0,1 -31.652253787137756,-30.449443065178592" fill="none" id="id104" stroke="none" /><text fill="#e1ed5e" style="font-size:6.75px; font-family:Arial;" text-anchor="middle"><textPath startOffset="22.20632615414155" xlink:href="#id104">August</textPath></text><line stroke="#e1ed5e" stroke-width="0.3" x1="26.63291911575756" x2="22.317208475507996" y1="142.92168965132927" y2="145.44649492493687" /><path d="M 25.769776987707644 143.4266507060508 a86.0,86.0 0 0,1 -11.730757126820373,-40.83630448921669" fill="none" id="id105" stroke="none" /><text fill="#e1ed5e" style="font-size:6.75px; font-family:Arial;" text-anchor="middle"><textPath startOffset="21.46611528233685" xlink:href="#id105">September</textPath></text><line stroke="#e1ed5e" stroke-width="0.3" x1="15.007084014347285" x2="10.007500721073583" y1="101.09737516637583" y2="101.16192664675087" /><path d="M 14.007167355692545 101.11028546245083 a86.0,86.0 0 0,1 10.666146001902534,-42.60595125391555" fill="none" id="id106" stroke="none" /><text fill="#e1ed5e" style="font-size:6.75px; font-family:Arial;" text-anchor="middle"><textPath startOffset="22.20632615414155" xlink:href="#id106">October</textPath></text><line stroke="#e1ed5e" stroke-width="0.3" x1="26.266209847984243" x2="21.928928074336255" y1="57.711370442889674" y2="55.22380399835377" /><path d="M 25.398753493254645 57.213857153982495 a86.0,86.0 0 0,1 29.58750427330803,-30.492523968695096" fill="none" id="id107" stroke="none" /><text fill="#e1ed5e" style="font-size:6.75px; font-family:Arial;" text-anchor="middle"><textPath startOffset="21.46611528233685" xlink:href="#id107">November</textPath></text><line stroke="#e1ed5e" stroke-width="0.3" x1="56.762969772571076" x2="54.21961505331055" y1="26.818313649435495" y2="22.513508569990535" /><path d="M 56.25429882871897 25.957352633546506 a86.0,86.0 0 0,1 42.265352541879196,-11.944610805530505" fill="none" id="id108" stroke="none" /><text fill="#e1ed5e" style="font-size:6.75px; font-family:Arial;" text-anchor="middle"><textPath startOffset="22.20632615414155" xlink:href="#id108">December</textPath></text></svg>