<?xml version="1.0" encoding="utf-8" ?>
<svg baseProfile="full" height="200mm" version="1.1" viewBox="0,0,200,200" width="200mm" xmlns="http://www.w3.org/2000/svg" xmlns:ev="http://www.w3.org/2001/xml-events" xmlns:xlink="http://www.w3.org/1999/xlink"><defs /><rect fill="#1a1a1a" height="200" width="200" x="0" y="0" /><text alignment-baseline="middle" fill="#e1ed5e" style="dominant-baseline: central; font-size:9.0px; font-family:Arial;" text-anchor="middle" x="100.0" y="100.0">2025</text><line stroke="#e1ed5e" stroke-width="0.3" x1="100.0" x2="100.0" y1="15.0" y2="10.0" /><path d="M 100.0 14.0 a86.0,86.0 0 0,1 42.46469731375804,11.215312516191453" fill="none" id="id37" stroke="none" /><text fill="#e1ed5e" style="font-size:6.75px; font-family:Arial;" text-anchor="middle"><textPath startOffset="22.20632615414155" xlink:href="#id37">January</textPath></text><path d="M 100.0 79.0 l 0.0 -0.019990827391723087 a21.019990827391723,21.019990827391723 0 0,0 0.3618245885042719,0.003114338465355647 l -0.00034410923174354525 0.01998786553492631" fill="#ff0000" stroke="none" /><path d="M 100.72285384407766 79.0124445844662 l 0.00565194691337465 -0.16410032266130073 a21.164197626053042,21.164197626053042 0 0,0 0.3639830475130001,0.015673875684588803 l -0.008475826815706291 0.16397872045251718" fill="#ff0200" stroke="none" /><path d="M 101.08401301168833 79.027996857942 l 0.005307775784543126 -0.10268759621012973 a21.10282468039918,21.10282468039918 0 0,0 0.3626047629224815,0.021873309530139027 l -0.007074587546636556 0.10258101729968662" fill="#ff0100" stroke="none" /><path d="M 101.44485096284872 79.0497635885617 l 0.0020998733242127534 -0.03044801416029251 a21.030520338043395,21.030520338043395 0 0,0 0.36093361203074537,0.028015394880806115 l -0.0026236747172992954 0.030407357091021874" fill="#ff0000" stroke="none" /><path d="M 102.16513564639614 79.11191278185805 l 0.004115860799445563 -0.039707655037526865 a21.03992039802782,21.03992039802782 0 0,0 0.3599161886893575,0.04044077742480237 l -0.004798752998528323 0.03963092414212367" fill="#ff0000" stroke="none" /><path d="M 102.52436894288641 79.15227682838746 l 0.010925859426394055 -0.0902321720346353 a21.090891249712463,21.090891249712463 0 0,0 0.3600368512221269,0.04674311641545022 l -0.012477439156367079 0.09003073245504838" fill="#ff0100" stroke="none" /><path d="M 102.88285421437855 79.19881850522331 l 1.2058114358333143 -8.700510209689142 a29.783670026116155,29.783670026116155 0 0,0 0.5072173465722097,0.07475065201456854 l -1.3553977628341798 8.678465073513603" fill="#ff790b" stroke="none" /><path d="M 103.2404852339499 79.25152402106235 l 0.011924688210154324 -0.07635248705735435 a21.07727807236696,21.07727807236696 0 0,0 0.3579833096429906,0.059070313410452366 l -0.013237203992020061 0.07613591070727732" fill="#ff0100" stroke="none" /><path d="M 103.59715602781102 79.31037775812273 l 0.011274001855677373 -0.06484423743223904 a21.065817005750873,21.065817005750873 0 0,0 0.3567193954856424,0.065188189432007 l -0.012388518444220648 0.06464056664949351" fill="#ff0100" stroke="none" /><path d="M 103.95276090670814 79.375362276772 l 0.011484779208807904 -0.05992505393152904 a21.061015672102926,21.061015672102926 0 0,0 0.355463400234885,0.07130261406106826 l -0.012514588910818211 0.05971848379325246" fill="#ff0100" stroke="none" /><path d="M 105.01212808612495 79.60689891045804 l 0.016346449536781393 -0.06650963266112525 a21.068488960053255,21.068488960053255 0 0,0 0.3514335434068731,0.08958823520866861 l -0.017488881628679565 0.06621840128358879" fill="#ff0100" stroke="none" /><path d="M 106.40334571778207 80.00007090966166 l 0.33888808603595977 -1.0584681803854383 a22.11139552983876,22.11139552983876 0 0,0 0.3614867575993271,0.11917650054540103 l -0.3570576658777044 1.052477955580801" fill="#ff1001" stroke="none" /><path d="M 106.74666289553966 80.11325718540242 l 0.006833107381539896 -0.020141550159716817 a21.021269071425994,21.021269071425994 0 0,0 0.3416636872145623,0.11919975172680332 l -0.007178798659375869 0.020020945260706018" fill="#ff0000" stroke="none" /><path d="M 107.4271985657038 80.35727306442388 l 0.05215376535016573 -0.137931167771107 a21.14746193503037,21.14746193503037 0 0,0 0.3393833661730454,0.1316754734381979 l -0.05452029652287813 0.1370129904423623" fill="#ff0200" stroke="none" /><path d="M 107.76421540070413 80.48803036053334 l 2.1955453035978283 -5.5175457010104765 a26.938327183886862,26.938327183886862 0 0,0 0.42936631594059815,0.17514930101831944 l -2.290195489126814 5.478935513808578" fill="#ff5307" stroke="none" /><path d="M 108.09893153111575 80.62456947434976 l 0.04895147656332131 -0.11710877288401572 a21.126927978571036,21.126927978571036 0 0,0 0.3343248245368275,0.14314044216605754 l -0.05096005889046407 0.11624880275516736" fill="#ff0200" stroke="none" /><path d="M 108.43124777332544 80.76684994638697 l 0.1953228230524381 -0.44556550414140533 a21.48649730080028,21.48649730080028 0 0,0 0.33745862006281874,0.15140784613951758 l -0.20296356158203704 0.4421373274853565" fill="#ff0701" stroke="none" /><path d="M 108.76106565485865 80.91482961587045 l 0.2810558265222142 -0.6122540964698842 a21.673682014207177,21.673682014207177 0 0,0 0.3377190950672669,0.15856364345275123 l -0.2915531328890791 0.60732547037713" fill="#ff0901" stroke="none" /><path d="M 109.41281617654863 81.2277094730956 l 0.06339444649282505 -0.12642964071906096 a21.141433058011494,21.141433058011494 0 0,0 0.3239063982742658,0.16591743778884255 l -0.06556133235584645 0.12531967761771787" fill="#ff0200" stroke="none" /><path d="M 109.73455568895987 81.39251694778311 l 0.38516962950551487 -0.7362469929039281 a21.830912316705856,21.830912316705856 0 0,0 0.3314711681422745,0.17706041844808965 l -0.3977858441761005 0.7295078479540844" fill="#ff0c01" stroke="none" /><path d="M 110.05341064243156 81.56283822128135 l 0.2961902323152631 -0.5431895129623363 a21.61869499813012,21.61869499813012 0 0,0 0.3251821416956281,0.1809635097863824 l -0.3054964630829263 0.5380106056157741" fill="#ff0901" stroke="none" /><path d="M 110.36928655335952 81.73862282372117 l 3.068403883453911 -5.403773958465492 a27.21416731237459,27.21416731237459 0 0,0 0.4053657361212394,0.23481399890923263 l -3.1609663520404787 5.35015580216621" fill="#ff5708" stroke="none" /><line stroke="#e1ed5e" stroke-width="0.3" x1="143.23703022742887" x2="145.7803849466894" y1="26.81831364943548" y2="22.513508569990506" /><path d="M 143.74570117128098 25.957352633546492 a86.0,86.0 0 0,1 28.547481713284135,27.462654790039103" fill="none" id="id38" stroke="none" /><text fill="#e1ed5e" style="font-size:6.75px; font-family:Arial;" text-anchor="middle"><textPath startOffset="19.985693538727396" xlink:href="#id38">February</textPath></text><path d="M 110.68208982089419 81.91981866633111 l 0.058395232296100726 -0.09883799955230467 a21.11479962243151,21.11479962243151 0 0,0 0.3113306155865857,0.18757321238888394 l -0.06008791410032395 0.09781817770480615" fill="#ff0100" stroke="none" /><path d="M 110.99172775467656 82.1063720568725 l 0.034449082536800055 -0.056080270513735056 a21.06581592534122,21.06581592534122 0 0,0 0.3073410732940914,0.19245695190123577 l -0.03540930820315465 0.05547897728955508" fill="#ff0100" stroke="none" /><path d="M 111.60114157652 82.49532879139004 l 1.1789453755777484 -1.778881072718549 a23.134087643343744,23.134087643343744 0 0,0 0.3300411455777816,0.22284525476604625 l -1.2093912155620719 1.7583239056538325" fill="#ff1e03" stroke="none" /><path d="M 111.90073688211348 82.69761687909136 l 1.1813048996047781 -1.717489442715796 a23.084526625320596,23.084526625320596 0 0,0 0.32545759481950176,0.22800384379576127 l -1.2106936340079308 1.6969007561560991" fill="#ff1d03" stroke="none" /><path d="M 112.19680574252982 82.90503203632743 l 0.8301583376938108 -1.163544823721019 a22.42933530791432,22.42933530791432 0 0,0 0.31236019818432764,0.22694296803709557 l -0.850063852231927 1.1490826208672487" fill="#ff1402" stroke="none" /><path d="M 112.48926042617603 83.11751280151076 l 37.46778127852809 -50.647461595467746 a84.0,84.0 0 0,0 1.1550153849664682,0.8699336419766106 l -38.33404281725294 49.995011363985284" fill="#4dd2ff" stroke="none" /><path d="M 112.77801427241765 83.33499621200491 l 0.06022610482167493 -0.07854649741281786 a21.098978462090564,21.098978462090564 0 0,0 0.2863105705280076,0.22346994168012788 l -0.06156923050911289 0.0774981665094659" fill="#ff0100" stroke="none" /><path d="M 113.06298171725822 83.55741782278167 l 0.07810058878312762 -0.09830644924344624 a21.12555421112462,21.12555421112462 0 0,0 0.28277721391374916,0.2286528411478436 l -0.07978120126136795 0.096947510831473" fill="#ff0200" stroke="none" /><path d="M 113.34407831869373 83.78471172551755 l 0.1371288755073446 -0.1666345321124343 a21.21580406805767,21.21580406805767 0 0,0 0.2799904854673467,0.23448397948360397 l -0.13997689793380863 0.16424939523501098" fill="#ff0300" stroke="none" /><path d="M 113.6212207817346 84.01681056812373 l 0.23463778656243872 -0.27532482224592714 a21.36174389922661,21.36174389922661 0 0,0 0.27781070145706854,0.24091470271145865 l -0.23934228666627144 0.27124512611479723" fill="#ff0500" stroke="none" /><path d="M 113.89432698308785 84.25364557470407 l 0.0936695494612231 -0.10615511830616332 a21.141572926927658,21.141572926927658 0 0,0 0.2708024201086488,0.24312908657281976 l -0.09548295716586196 0.10452702296404612" fill="#ff0200" stroke="none" /><path d="M 114.16331599549186 84.49514656593476 l 0.15739091157829072 -0.17229884701097306 a21.23336407548883,21.23336407548883 0 0,0 0.2677346384620554,0.2488301676754896 l -0.1603334338351929 0.16956409326084296" fill="#ff0300" stroke="none" /><path d="M 114.42810811169701 84.74124197986012 l 0.10963552976874244 -0.11594742749361886 a21.15957366740807,21.15957366740807 0 0,0 0.2624963570655828,0.2525212875214995 l -0.11161513044674343 0.11404305320981747" fill="#ff0200" stroke="none" /><path d="M 114.94478906791727 85.2469230424477 l 0.058393316414474636 -0.057644245559733666 a21.082052656556822,21.082052656556822 0 0,0 0.2527193356261027,0.2604494900194604 l -0.05937691574368642 0.05663055999015893" fill="#ff0100" stroke="none" /><path d="M 115.19652480421416 85.50635884689758 l 34.9022232975045 -33.28789354387133 a69.23120408715685,69.23120408715685 0 0,0 0.8150579042703439,0.8694469440066797 l -35.470048523745305 32.68217718298659" fill="#3bff9b" stroke="none" /><path d="M 115.4437574822437 85.77008943001954 l 5.326812770595808 -4.908136471047191 a28.243254649079113,28.243254649079113 0 0,0 0.32635263572856016,0.36036673150748094 l -5.410509046940404 4.8157169522701615" fill="#ff6509" stroke="none" /><path d="M 115.68641384162765 86.03803664274999 l 0.04120167553419239 -0.03667226237134699 a21.055158253183524,21.055158253183524 0 0,0 0.23863328466255712,0.27279909630363586 l -0.04182682377459772 0.03595760986476337" fill="#ff0100" stroke="none" /><path d="M 115.9244219780498 86.31012108654704 l 0.05228398726480668 -0.044947405673771035 a21.068948419859407,21.068948419859407 0 0,0 0.2340553357781225,0.2770476927081025 l -0.053049936530046374 0.044040763336562" fill="#ff0100" stroke="none" /><path d="M 116.38621287248628 86.86637796730983 l 0.012490494354139405 -0.010011186423933404 a21.016007382760012,21.016007382760012 0 0,0 0.22381639492197153,0.28422409264014015 l -0.012660969870074989 0.009794699830754905" fill="#ff0000" stroke="none" /><path d="M 116.60985879189232 87.15038557335679 l 0.028159217076819988 -0.021784356298676335 a21.035601961824135,21.035601961824135 0 0,0 0.21909486956760843,0.2883031663390373 l -0.028530026868541936 0.021296414078605466" fill="#ff0000" stroke="none" /><path d="M 117.04232023915458 87.72973835380427 l 0.06932567164602316 -0.049913633704676545 a21.085424935345465,21.085424935345465 0 0,0 0.20953629000376794,0.29637422238843786 l -0.070174581453674 0.04871291098444554" fill="#ff0100" stroke="none" /><path d="M 117.2510076193507 88.02491185347247 l 0.04594808953483771 -0.03189566861746773 a21.05593353742127,21.05593353742127 0 0,0 0.2041177581297225,0.29951762324692505 l -0.04649031333329358 0.03110002210013626" fill="#ff0100" stroke="none" /><path d="M 117.45458315368197 88.32363383020206 l 0.04240254666862765 -0.02836548183795506 a21.05101545377515,21.05101545377515 0 0,0 0.19888534738863375,0.3029160288122704 l -0.04288452941518633 0.02763138904801066" fill="#ff0100" stroke="none" /><path d="M 117.65298651832404 88.62581576622439 l 0.10678416880402863 -0.06880324799244947 a21.12703049099125,21.12703049099125 0 0,0 0.1943409173395127,0.30740066015886025 l -0.10795268238949703 0.06695494011938302" fill="#ff0200" stroke="none" /><line stroke="#e1ed5e" stroke-width="0.3" x1="172.23445277983987" x2="176.4835382374775" y1="55.19839476539836" y2="52.563006222186495" /><path d="M 173.08426987136738 54.67131705675599 a86.0,86.0 0 0,1 12.851231095245387,41.99856678651699" fill="none" id="id39" stroke="none" /><text fill="#e1ed5e" style="font-size:6.75px; font-family:Arial;" text-anchor="middle"><textPath startOffset="22.20632615414155" xlink:href="#id39">March</textPath></text><path d="M 117.84615892207809 88.93136811851018 l 0.02501279674915138 -0.015513559010189703 a21.029433153320312,21.029433153320312 0 0,0 0.18814753621451444,0.3092650794729876 l -0.025276131249889762 0.015080706330120685" fill="#ff0000" stroke="none" /><path d="M 118.03404312379186 89.2402003453031 l 0.2895636544183172 -0.17276474761849642 a21.33718654774438,21.33718654774438 0 0,0 0.18547128468155297,0.31703054692103627 l -0.29249461357019746 0.16775478834356483" fill="#ff0500" stroke="none" /><path d="M 118.56541770881063 90.18545643968196 l 0.09845078348546689 -0.05204566459105307 a21.111361160067712,21.111361160067712 0 0,0 0.1670718608549122,0.3227296572664394 l -0.09933207750049547 0.0503432850642689" fill="#ff0100" stroke="none" /><path d="M 118.73160827565052 90.50648371742162 l 0.17693066899563828 -0.08967164817241229 a21.198356915980263,21.198356915980263 0 0,0 0.16215732287581433,0.32689926794367524 l -0.17844800482486073 0.08661279172978717" fill="#ff0300" stroke="none" /><path d="M 118.89224826269711 90.83032412892265 l 0.07222650750862393 -0.03505637094880439 a21.080284603324632,21.080284603324632 0 0,0 0.1556345428204414,0.3278060389367429 l -0.0728192441708215 0.03380791637152109" fill="#ff0100" stroke="none" /><path d="M 119.196687751892 91.48605970444005 l 0.1687594003380301 -0.07484663382363328 a21.184612442151607,21.184612442151607 0 0,0 0.14497264839616766,0.33461686041252314 l -0.1700227585768785 0.07193062882450735" fill="#ff0200" stroke="none" /><path d="M 119.34039704204932 91.81776055985345 l 0.08721040838952995 -0.036895646018262306 a21.094693949260623,21.094693949260623 0 0,0 0.13860048984623424,0.3356320798548959 l -0.08783258512196161 0.035388995710063306" fill="#ff0100" stroke="none" /><path d="M 119.47837535516314 92.15188598940014 l 0.04046903168026999 -0.016305547497376286 a21.04363041833776,21.04363041833776 0 0,0 0.13248112739094772,0.33715001880262285 l -0.04074370895291816 0.015606523798969032" fill="#ff0000" stroke="none" /><path d="M 119.61058180528143 92.48833698450437 l 0.06282837191264695 -0.024065862109860132 a21.06727978921106,21.06727978921106 0 0,0 0.12680035705279646,0.3397619157302539 l -0.06323331746706866 0.02298080935027301" fill="#ff0100" stroke="none" /><path d="M 119.7369772167798 92.82701384747503 l 0.04964643910952939 -0.018042946310546034 a21.052823449601682,21.052823449601682 0 0,0 0.12085014319545145,0.341659628668842 l -0.0499496631147904 0.017185691215089494" fill="#ff0100" stroke="none" /><line stroke="#e1ed5e" stroke-width="0.3" x1="184.98032266829074" x2="189.97916517819016" y1="98.17113171792111" y2="98.06355123074" /><path d="M 185.9800911702706 98.14961562048488 a86.0,86.0 0 0,1 -9.607161424134198,41.387399972396054" fill="none" id="id40" stroke="none" /><text fill="#e1ed5e" style="font-size:6.75px; font-family:Arial;" text-anchor="middle"><textPath startOffset="21.466115282336823" xlink:href="#id40">April</textPath></text><line stroke="#e1ed5e" stroke-width="0.3" x1="174.80103733775053" x2="179.2010983576182" y1="140.37084112569926" y2="142.7455964860345" /><path d="M 175.68104954172406 140.8457921977663 a86.0,86.0 0 0,1 -30.038265399797805,32.042727171017184" fill="none" id="id41" stroke="none" /><text fill="#e1ed5e" style="font-size:6.75px; font-family:Arial;" text-anchor="middle"><textPath startOffset="22.206326154141568" xlink:href="#id41">May</textPath></text><line stroke="#e1ed5e" stroke-width="0.3" x1="143.8653032363475" x2="146.44561519142675" y1="172.8068346515853" y2="177.08958963109032" /><path d="M 144.38136562736335 173.6633856474863 a86.0,86.0 0 0,1 -40.68145358897372,12.25698825130547" fill="none" id="id42" stroke="none" /><text fill="#e1ed5e" style="font-size:6.75px; font-family:Arial;" text-anchor="middle"><textPath startOffset="21.466115282336833" xlink:href="#id42">June</textPath></text><line stroke="#e1ed5e" stroke-width="0.3" x1="102.19456741930631" x2="102.32365962044197" y1="184.97166512339345" y2="189.96999836594603" /><path d="M 102.22038585953345 185.97133177190398 a86.0,86.0 0 0,1 -42.740103519485714,-10.115201625700543" fill="none" id="id43" stroke="none" /><text fill="#e1ed5e" style="font-size:6.75px; font-family:Arial;" text-anchor="middle"><textPath startOffset="22.20632615414155" xlink:href="#id43">July</textPath></text><line stroke="#e1ed5e" stroke-width="0.3" x1="58.666819895761336" x2="56.23545636021788" y1="174.27360380694188" y2="178.64263932499728" /><path d="M 58.180547188652646 175.14741091055294 a86.0,86.0 0 0,1 -31.652253787137756,-30.449443065178592" fill="none" id="id44" stroke="none" /><text fill="#e1ed5e" style="font-size:6.75px; font-family:Arial;" text-anchor="middle"><textPath startOffset="22.20632615414155" xlink:href="#id44">August</textPath></text><line stroke="#e1ed5e" stroke-width="0.3" x1="26.63291911575756" x2="22.317208475507996" y1="142.92168965132927" y2="145.44649492493687" /><path d="M 25.769776987707644 143.4266507060508 a86.0,86.0 0 0,1 -11.730757126820373,-40.83630448921669" fill="none" id="id45" stroke="none" /><text fill="#e1ed5e" style="font-size:6.75px; font-family:Arial;" text-anchor="middle"><textPath startOffset="21.46611528233685" xlink:href="#id45">September</textPath></text><line stroke="#e1ed5e" stroke-width="0.3" x1="15.007084014347285" x2="10.007500721073583" y1="101.09737516637583" y2="101.16192664675087" /><path d="M 14.007167355692545 101.11028546245083 a86.0,86.0 0 0,1 10.666146001902534,-42.60595125391555" fill="none" id="id46" stroke="none" /><text fill="#e1ed5e" style="font-size:6.75px; font-family:Arial;" text-anchor="middle"><textPath startOffset="22.20632615414155" xlink:href="#id46">October</textPath></text><line stroke="#e1ed5e" stroke-width="0.3" x1="26.266209847984243" x2="21.928928074336255" y1="57.711370442889674" y2="55.22380399835377" /><path d="M 25.398753493254645 57.213857153982495 a86.0,86.0 0 0,1 29.58750427330803,-30.492523968695096" fill="none" id="id47" stroke="none" /><text fill="#e1ed5e" style="font-size:6.75px; font-family:Arial;" text-anchor="middle"><textPath startOffset="21.46611528233685" xlink:href="#id47">November</textPath></text><line stroke="#e1ed5e" stroke-width="0.3" x1="56.762969772571076" x2="54.21961505331055" y1="26.818313649435495" y2="22.513508569990535" /><path d="M 56.25429882871897 25.957352633546506 a86.0,86.0 0 0,1 42.265352541879196,-11.944610805530505" fill="none" id="id48" stroke="none" /><text fill="#e1ed5e" style="font-size:6.75px; font-family:Arial;" text-anchor="middle"><textPath startOffset="22.20632615414155" xlink:href="#id48">December</textPath></text></svg>