<?xml version="1.0" encoding="utf-8" ?>
<svg baseProfile="full" height="200mm" version="1.1" viewBox="0,0,200,200" width="200mm" xmlns="http://www.w3.org/2000/svg" xmlns:ev="http://www.w3.org/2001/xml-events" xmlns:xlink="http://www.w3.org/1999/xlink"><defs /><rect fill="#1a1a1a" height="200" width="200" x="0" y="0" /><text alignment-baseline="middle" fill="#e1ed5e" style="dominant-baseline: central; font-size:9.0px; font-family:Arial;" text-anchor="middle" x="100.0" y="100.0">2025</text><line stroke="#e1ed5e" stroke-width="0.3" x1="100.0" x2="100.0" y1="15.0" y2="10.0" /><path d="M 100.0 14.0 a86.0,86.0 0 0,1 42.46469731375804,11.215312516191453" fill="none" id="id73" stroke="none" /><text fill="#e1ed5e" style="font-size:6.75px; font-family:Arial;" text-anchor="middle"><textPath startOffset="22.20632615414155" xlink:href="#id73">January</textPath></text><path d="M 100.0 79.0 l 0.0 -0.02856238420942603 a21.028562384209426,21.028562384209426 0 0,0 0.36197213376458504,0.003115608433992863 l -0.0004916544920566389 0.028558152383992032" fill="#ff0000" stroke="none" /><path d="M 100.72285384407766 79.0124445844662 l 0.005933501008596539 -0.17227504874784424 a21.17237719934867,21.17237719934867 0 0,0 0.36412372026932677,0.01567993334938923 l -0.008898053667254822 0.17214738887426023" fill="#ff0200" stroke="none" /><path d="M 101.08401301168833 79.027996857942 l 0.005356886515166222 -0.10363772354793006 a21.103776076122262,21.103776076122262 0 0,0 0.3626211105264558,0.021874295662254125 l -0.007140045881233915 0.10353015850537185" fill="#ff0100" stroke="none" /><path d="M 101.44485096284872 79.0497635885617 l 0.0020909726830380154 -0.030318955494991497 a21.030390972822016,21.030390972822016 0 0,0 0.3609313918167006,0.02801522254946564 l -0.0026125538620797705 0.03027847075706134" fill="#ff0000" stroke="none" /><path d="M 102.16513564639614 79.11191278185805 l 0.004185694068387734 -0.040381369598930905 a21.040597722171565,21.040597722171565 0 0,0 0.35992777523149794,0.040442079307814446 l -0.004880172809610957 0.04030333682051564" fill="#ff0000" stroke="none" /><path d="M 102.52436894288641 79.15227682838746 l 0.01103502860804515 -0.09113375533304617 a21.09179941839404,21.09179941839404 0 0,0 0.3600523543219543,0.046745129162749754 l -0.012602111437845578 0.0909303030061597" fill="#ff0100" stroke="none" /><path d="M 102.88285421437855 79.19881850522331 l 1.2008070137005158 -8.664400893948644 a29.747215576125377,29.747215576125377 0 0,0 0.5065965255189662,0.07465915912926414 l -1.3497725196481378 8.642447250658412" fill="#ff790b" stroke="none" /><path d="M 103.2404852339499 79.25152402106235 l 0.01196623195163299 -0.07661848713447694 a21.077547297037977,21.077547297037977 0 0,0 0.357987882241902,0.059071067928452285 l -0.013283320332410125 0.0764011562664" fill="#ff0100" stroke="none" /><path d="M 103.59715602781102 79.31037775812273 l 0.011339354706729901 -0.06522012488061567 a21.06619853211823,21.06619853211823 0 0,0 0.35672585608743573,0.0651893700656896 l -0.012460331897066492 0.06501527346418753" fill="#ff0100" stroke="none" /><path d="M 103.95276090670814 79.375362276772 l 0.011520916715308761 -0.06011361149860479 a21.06120766136168,21.06120766136168 0 0,0 0.35546664058928135,0.07130326404567651 l -0.012553966771715478 0.05990639137571995" fill="#ff0100" stroke="none" /><path d="M 105.01212808612495 79.60689891045804 l 0.01638471626433478 -0.06666533044656743 a21.068649291406487,21.068649291406487 0 0,0 0.351436217818678,0.08958891697578594 l -0.017529822768037825 0.06637341730191364" fill="#ff0100" stroke="none" /><path d="M 106.40334571778207 80.00007090966166 l 0.3437448090688159 -1.0736374560343844 a22.127323325741884,22.127323325741884 0 0,0 0.36174715216777276,0.1192623485405931 l -0.3621747834790061 1.067561383234555" fill="#ff1001" stroke="none" /><path d="M 106.74666289553966 80.11325718540242 l 0.0068041441882803885 -0.02005617705239555 a21.02117891914362,21.02117891914362 0 0,0 0.3416622219480695,0.11919924052409524 l -0.007148370199623531 0.01993608335609284" fill="#ff0000" stroke="none" /><path d="M 107.4271985657038 80.35727306442388 l 0.0520920808787652 -0.13776803072593885 a21.147287525542332,21.147287525542332 0 0,0 0.33938056717620474,0.1316743874709088 l -0.054455813054636974 0.13685093936448328" fill="#ff0200" stroke="none" /><path d="M 107.76421540070413 80.48803036053334 l 2.189629096267545 -5.50267789378828 a26.922325521449125,26.922325521449125 0 0,0 0.4291112676295833,0.17504526040837476 l -2.284024233485516 5.464171747196326" fill="#ff5307" stroke="none" /><path d="M 108.09893153111575 80.62456947434976 l 0.05524727983043671 -0.13217050026576965 a21.14325258486033,21.14325258486033 0 0,0 0.33458315462338045,0.1432510456274224 l -0.05751419224413239 0.1311999266755564" fill="#ff0200" stroke="none" /><path d="M 108.43124777332544 80.76684994638697 l 0.1952430885864443 -0.445383615885938 a21.48629870341222,21.48629870341222 0 0,0 0.3374555009690184,0.15140644669304873 l -0.20288070802224287 0.441956838676358" fill="#ff0701" stroke="none" /><path d="M 108.76106565485865 80.91482961587045 l 0.29150893851709564 -0.6350252331473115 a21.698737796293546,21.698737796293546 0 0,0 0.33810951401162825,0.1587469503820754 l -0.3023966638283219 0.6299133001252332" fill="#ff0a01" stroke="none" /><path d="M 109.41281617654863 81.2277094730956 l 0.06456043382246966 -0.12875500780285792 a21.144034376624678,21.144034376624678 0 0,0 0.32394625289246737,0.16593785287224713 l -0.06676717430369257 0.12762462961811025" fill="#ff0200" stroke="none" /><path d="M 109.73455568895987 81.39251694778311 l 0.38708804678186604 -0.7399140238499085 a21.835050847943503,21.835050847943503 0 0,0 0.3315340058177612,0.17709398415812813 l -0.3997670991279384 0.7331413131900262" fill="#ff0c01" stroke="none" /><path d="M 110.05341064243156 81.56283822128135 l 0.2978419091957967 -0.5462185580233269 a21.62214509240408,21.62214509240408 0 0,0 0.3252340370133221,0.18099238947449323 l -0.30720003528115386 0.5410107709886538" fill="#ff0901" stroke="none" /><path d="M 110.36928655335952 81.73862282372117 l 3.059482047626248 -5.388061690479128 a27.196098706456837,27.196098706456837 0 0,0 0.4050965971226265,0.23465809622951575 l -3.1517753772142028 5.334599436859562" fill="#ff5708" stroke="none" /><line stroke="#e1ed5e" stroke-width="0.3" x1="143.23703022742887" x2="145.7803849466894" y1="26.81831364943548" y2="22.513508569990506" /><path d="M 143.74570117128098 25.957352633546492 a86.0,86.0 0 0,1 28.547481713284135,27.462654790039103" fill="none" id="id74" stroke="none" /><text fill="#e1ed5e" style="font-size:6.75px; font-family:Arial;" text-anchor="middle"><textPath startOffset="19.985693538727396" xlink:href="#id74">February</textPath></text><path d="M 110.68208982089419 81.91981866633111 l 0.05876676158495762 -0.09946683876129189 a21.11553001462974,21.11553001462974 0 0,0 0.3113413849737815,0.1875797008241699 l -0.06047021277637662 0.09844052847850743" fill="#ff0200" stroke="none" /><path d="M 110.99172775467656 82.1063720568725 l 0.034626989981503646 -0.056369889188331884 a21.06615582243676,21.06615582243676 0 0,0 0.30734603224457885,0.1924600571955761 l -0.03559217459834575 0.05576549066981157" fill="#ff0100" stroke="none" /><path d="M 111.60114157652 82.49532879139004 l 1.1755905793989645 -1.77381910500665 a23.12801490306299,23.12801490306299 0 0,0 0.3299545091739624,0.22278675747945098 l -1.205949782979469 1.753320435228529" fill="#ff1e03" stroke="none" /><path d="M 111.90073688211348 82.69761687909136 l 1.1772338878000628 -1.7115706322561854 a23.07734293167659,23.07734293167659 0 0,0 0.3253563153913703,0.2279328910840133 l -1.2065213427750838 1.6910528984082365" fill="#ff1e03" stroke="none" /><path d="M 112.19680574252982 82.90503203632743 l 0.8268471611913778 -1.1589038990866471 a22.423634249127378,22.423634249127378 0 0,0 0.31228080288223314,0.22688528397360008 l -0.8466732804273996 1.144499380296372" fill="#ff1402" stroke="none" /><path d="M 112.48926042617603 83.11751280151076 l 37.46778127852809 -50.647461595467746 a84.0,84.0 0 0,0 1.1550153849664682,0.8699336419766106 l -38.33404281725294 49.995011363985284" fill="#4dd2ff" stroke="none" /><path d="M 112.77801427241765 83.33499621200491 l 0.03789411600915076 -0.049421261658658316 a21.062277003235934,21.062277003235934 0 0,0 0.2858125361969731,0.22308121798506578 l -0.03873920736555419 0.04876165445036846" fill="#ff0100" stroke="none" /><path d="M 113.06298171725822 83.55741782278167 l 0.050854359717047506 -0.06401118877879586 a21.081753276332545,21.081753276332545 0 0,0 0.2821909142037611,0.22817876089011171 l -0.05194867248529972 0.0631263306245545" fill="#ff0100" stroke="none" /><path d="M 113.34407831869373 83.78471172551755 l 0.14450376137143806 -0.17559625261658884 a21.227410160246816,21.227410160246816 0 0,0 0.2801436540852314,0.23461225379618883 l -0.14750495241578684 0.17308284142658065" fill="#ff0300" stroke="none" /><path d="M 113.6212207817346 84.01681056812373 l 0.24203944081309348 -0.2840099499516688 a21.373155118657998,21.373155118657998 0 0,0 0.2779591050185788,0.24104339681760734 l -0.24689234447843642 0.27980155971439025" fill="#ff0500" stroke="none" /><path d="M 113.89432698308785 84.25364557470407 l 0.17769484775465735 -0.2013804666969199 a21.26856945337402,21.26856945337402 0 0,0 0.27242911869091296,0.24458955262137466 l -0.18113495404156033 0.1982919053062478" fill="#ff0400" stroke="none" /><path d="M 114.16331599549186 84.49514656593476 l 0.17156726082832563 -0.18781796819854488 a21.254383399942615,21.254383399942615 0 0,0 0.2679996742431659,0.24907648954938894 l -0.17477481886633833 0.18483689257451544" fill="#ff0400" stroke="none" /><path d="M 114.42810811169701 84.74124197986012 l 0.13986056763519253 -0.1479125704897287 a21.20356597674493,21.20356597674493 0 0,0 0.2630421062910322,0.2530462978439853 l -0.14238591753864296 0.14548318588344147" fill="#ff0300" stroke="none" /><path d="M 114.94478906791727 85.2469230424477 l 0.07584651821015774 -0.07487355726679323 a21.106577408029974,21.106577408029974 0 0,0 0.25301332402465476,0.2607524709064781 l -0.07712410593792154 0.07355689081020085" fill="#ff0100" stroke="none" /><path d="M 115.19652480421416 85.50635884689758 l 34.773764095295505 -33.16537595490818 a69.05368697182001,69.05368697182001 0 0,0 0.8129679979931627,0.8672175777046839 l -35.33949941525913 32.56188896032544" fill="#3bff99" stroke="none" /><path d="M 115.4437574822437 85.77008943001954 l 5.305139954226588 -4.888167092540167 a28.213784544781184,28.213784544781184 0 0,0 0.326012106765722,0.3599907109215045 l -5.3884957016083455 4.796123594349114" fill="#ff6409" stroke="none" /><path d="M 115.68641384162765 86.03803664274999 l 0.041027035794978184 -0.03651682125751141 a21.05492445630933,21.05492445630933 0 0,0 0.2386306348740653,0.2727960671373274 l -0.04164953424689168 0.03580519791723621" fill="#ff0100" stroke="none" /><path d="M 115.9244219780498 86.31012108654704 l 0.052411804886228736 -0.045057287700427044 a21.069116976687,21.069116976687 0 0,0 0.23405720827902254,0.277049909158551 l -0.05317962665236851 0.044148428912769495" fill="#ff0100" stroke="none" /><path d="M 116.15771136456269 86.58626213691792 l 0.006008603572820687 -0.0049881961269442705 a21.00780931607096,21.00780931607096 0 0,0 0.22858648128064193,0.28021999768028055 l -0.006093576929871477 0.004884028838562835" fill="#ff0000" stroke="none" /><path d="M 116.38621287248628 86.86637796730983 l 0.012804136226781887 -0.010262571770930089 a21.016409335265863,21.016409335265863 0 0,0 0.22382067563805386,0.28422952871485113 l -0.012978892458799778 0.010040649103040585" fill="#ff0000" stroke="none" /><path d="M 116.60985879189232 87.15038557335679 l 0.028411458816267377 -0.021979493965697733 a21.03592087341723,21.03592087341723 0 0,0 0.2190981911694347,0.28830753717768687 l -0.02878559020981557 0.021487180906977314" fill="#ff0000" stroke="none" /><path d="M 117.04232023915458 87.72973835380427 l 0.07955952059756909 -0.05728187949051818 a21.098035356049138,21.098035356049138 0 0,0 0.20966160598756892,0.29655147296040885 l -0.0805337463890209 0.055903906198316144" fill="#ff0100" stroke="none" /><path d="M 117.2510076193507 88.02491185347247 l 0.046139274232933104 -0.032028382813790474 a21.05616627041569,21.05616627041569 0 0,0 0.20412001426037465,0.2995209338402652 l -0.04668375416204114 0.031229425703118846" fill="#ff0100" stroke="none" /><path d="M 117.45458315368197 88.32363383020206 l 0.042222816849481995 -0.02824525031128388 a21.05079921680353,21.05079921680353 0 0,0 0.19888330442945615,0.3029129172452836 l -0.042702756636863064 0.027514269088326337" fill="#ff0100" stroke="none" /><path d="M 117.65298651832404 88.62581576622439 l 0.2122596989680252 -0.13676331304972184 a21.252504224919768,21.252504224919768 0 0,0 0.19549511080574924,0.30922631704228604 l -0.21458240601973014 0.1330893482932296" fill="#ff0400" stroke="none" /><line stroke="#e1ed5e" stroke-width="0.3" x1="172.23445277983987" x2="176.4835382374775" y1="55.19839476539836" y2="52.563006222186495" /><path d="M 173.08426987136738 54.67131705675599 a86.0,86.0 0 0,1 12.851231095245387,41.99856678651699" fill="none" id="id75" stroke="none" /><text fill="#e1ed5e" style="font-size:6.75px; font-family:Arial;" text-anchor="middle"><textPath startOffset="22.20632615414155" xlink:href="#id75">March</textPath></text><path d="M 117.84615892207809 88.93136811851018 l 0.0335785228422448 -0.020826235499068736 a21.039512647106083,21.039512647106083 0 0,0 0.1882377161023058,0.3094133114973116 l -0.03393203723077454 0.020245150794675672" fill="#ff0000" stroke="none" /><path d="M 118.03404312379186 89.2402003453031 l 0.289670259694989 -0.1728283524025844 a21.33731068578679,21.33731068578679 0 0,0 0.1854723637386326,0.3170323913793668 l -0.2926022979039489 0.16781654866932227" fill="#ff0500" stroke="none" /><path d="M 118.56541770881063 90.18545643968196 l 0.09845180457372908 -0.05204620438581479 a21.111362315056727,21.111362315056727 0 0,0 0.16707186999530646,0.3227296749227717 l -0.09933310772915191 0.050343807202698265" fill="#ff0100" stroke="none" /><path d="M 118.73160827565052 90.50648371742162 l 0.1800271611880335 -0.09124100615891226 a21.201828392379053,21.201828392379053 0 0,0 0.16218387801503975,0.3269528014839372 l -0.1815710521564814 0.08812861617602522" fill="#ff0300" stroke="none" /><path d="M 118.89224826269711 90.83032412892265 l 0.07192036417168184 -0.03490777904323475 a21.079944304489555,21.079944304489555 0 0,0 0.15563203041348786,0.3278007471669552 l -0.07251058842692588 0.03366461623573922" fill="#ff0100" stroke="none" /><path d="M 119.196687751892 91.48605970444005 l 0.1680440872522703 -0.07452938467193045 a21.1838299334712,21.1838299334712 0 0,0 0.1449672934548818,0.33460450046972984 l -0.16930209054983283 0.07162573961559786" fill="#ff0300" stroke="none" /><path d="M 119.34039704204932 91.81776055985345 l 0.08764614018795508 -0.037079988764621055 a21.09516707128325,21.09516707128325 0 0,0 0.1386035984452142,0.3356396075738977 l -0.08827142551936669 0.03556581073742025" fill="#ff0100" stroke="none" /><path d="M 119.47837535516314 92.15188598940014 l 0.08566804817212945 -0.03451687303798758 a21.092360321577736,21.092360321577736 0 0,0 0.13278790870151752,0.33793074377578586 l -0.08624950675534741 0.03303712436641736" fill="#ff0100" stroke="none" /><path d="M 119.61058180528143 92.48833698450437 l 0.06398003370912328 -0.02450699615722535 a21.068513046743455,21.068513046743455 0 0,0 0.12680777981914362,0.33978180505369704 l -0.06439240202989216 0.02340205407419507" fill="#ff0100" stroke="none" /><path d="M 119.7369772167798 92.82701384747503 l 0.04987756445841347 -0.018126943921164623 a21.053069365289442,21.053069365289442 0 0,0 0.12085155483252479,0.3416636195569414 l -0.05018220010074781 0.017265697937608675" fill="#ff0100" stroke="none" /><path d="M 119.85752413597 93.16781622104841 l 0.09913095235653391 -0.0341070155596842 a21.104834317976042,21.104834317976042 0 0,0 0.11523511511416916,0.3445383267890661 l -0.09970336124247314 0.032395585848304105" fill="#ff0100" stroke="none" /><path d="M 120.08093135843002 93.85539295169968 l 0.05431352482047434 -0.016619511389834914 a21.05679935859903,21.05679935859903 0 0,0 0.10307213332219381,0.3475079936602353 l -0.054591555254370434 0.015682130983069708" fill="#ff0100" stroke="none" /><path d="M 120.18372546131832 94.20196356495316 l 0.037735142750470504 -0.010839908270067769 a21.03926123545817,21.03926123545817 0 0,0 0.09699422976679213,0.3489398510821856 l -0.03791614308362574 0.010188753768930262" fill="#ff0000" stroke="none" /><path d="M 120.28053869075195 94.5502522615342 l 0.10780841153577622 -0.028970071057461754 a21.11163296383659,21.11163296383659 0 0,0 0.09128636730115218,0.35176361126414957 l -0.10829111070723109 0.027110034244461793" fill="#ff0100" stroke="none" /><path d="M 120.37134235888165 94.90015583598534 l 0.2783109462257741 -0.06967348689577607 a21.286899594920072,21.286899594920072 0 0,0 0.08592527951383198,0.35621575665896754 l -0.2794690260004255 0.06487249857740238" fill="#ff0400" stroke="none" /><path d="M 120.45610955862082 95.25157060432595 l 0.12155565353087817 -0.028216432688841532 a21.124787595453245,21.124787595453245 0 0,0 0.07917330272151905,0.3549183917760015 l -0.12202334325443481 0.02611987136287617" fill="#ff0200" stroke="none" /><path d="M 120.53481517161879 95.60439243477599 l 0.027549375205102016 -0.005897118676583403 a21.028173464161817,21.028173464161817 0 0,0 0.0727181315518576,0.3545994347656314 l -0.02764680267195653 0.005422027747540205" fill="#ff0000" stroke="none" /><path d="M 120.6074358757038 95.95851677861258 l 0.03250625903682377 -0.006375053222525679 a21.033125491394983,21.033125491394983 0 0,0 0.06661919599872487,0.35588240888445927 l -0.03261117894540794 0.0058145668755036385" fill="#ff0000" stroke="none" /><path d="M 120.67395015179393 96.31383870115 l 0.162682710503892 -0.029006295702973257 a21.16524838724569,21.16524838724569 0 0,0 0.060863330979422335,0.3592188247161741 l -0.16315790300353736 0.026201682670961273" fill="#ff0200" stroke="none" /><path d="M 120.73433829027371 96.67025291283417 l 0.09118518258358461 -0.014643515112454894 a21.092353505930475,21.092353505930475 0 0,0 0.054482660532935684,0.35897266022664426 l -0.09142373655582019 0.013071742493728463" fill="#ff0100" stroke="none" /><path d="M 120.78858239683441 97.02765380044208 l 0.03304465333602348 -0.004724716090982451 a21.03338071383656,21.03338071383656 0 0,0 0.04816043324100035,0.35885116733992745 l -0.03312108563486001 0.004155206686390643" fill="#ff0000" stroke="none" /><path d="M 120.83666639777658 97.38593545837742 l 0.037829662259492344 -0.004745921293084048 a21.038126199857675,21.038126199857675 0 0,0 0.04198573535723727,0.3597081402843271 l -0.03790575062031852 0.004094042683904216" fill="#ff0000" stroke="none" /><path d="M 120.87857604477298 97.74499172005257 l 0.16884323137249524 -0.01823605613436346 a21.169825176353925,21.169825176353925 0 0,0 0.036011762100194404,0.36263352984018127 l -0.16913211915491833 0.015326995589747204" fill="#ff0200" stroke="none" /><path d="M 120.96714384426684 98.82574320788733 l 0.2956291322347311 -0.016556595359454678 a21.296092392127452,21.296092392127452 0 0,0 0.017347585693113687,0.3661801159584598 l -0.2958703261613413 0.01146537277799513" fill="#ff0400" stroke="none" /><path d="M 120.98425023603335 99.18683210126433 l 0.07899232257964349 -0.0030610586628460317 a21.079051610398928,21.079051610398928 0 0,0 0.010929293072345263,0.36269002908601333 l -0.07903331010763381 0.0017008821518336068" fill="#ff0100" stroke="none" /><line stroke="#e1ed5e" stroke-width="0.3" x1="184.98032266829074" x2="189.97916517819016" y1="98.17113171792111" y2="98.06355123074" /><path d="M 185.9800911702706 98.14961562048488 a86.0,86.0 0 0,1 -9.607161424134198,41.387399972396054" fill="none" id="id76" stroke="none" /><text fill="#e1ed5e" style="font-size:6.75px; font-family:Arial;" text-anchor="middle"><textPath startOffset="21.466115282336823" xlink:href="#id76">April</textPath></text><path d="M 120.99513854157772 99.54816195383933 l 0.214922012342475 -0.004625353718977902 a21.214971777883434,21.214971777883434 0 0,0 0.004714767727868926,0.3651639563797821 l -0.21496978718805948 0.0009251392787330807" fill="#ff0300" stroke="none" /><path d="M 120.99824983174949 100.27111621757518 l 0.040549315828308334 0.0005235473061193025 a21.04055269554451,21.04055269554451 0 0,0 -0.007792957139940124,0.36210809645593034 l -0.04053429600336076 -0.0012214595521644642" fill="#ff0000" stroke="none" /><path d="M 120.9904718944345 100.63252640178507 l 0.037780921450269955 0.0011384894261190907 a21.03779807116514,21.03779807116514 0 0,0 -0.014023062023970632,0.3618729207633191 l -0.037755726575096134 -0.0017886572034444116" fill="#ff0000" stroke="none" /><path d="M 120.9764740272857 100.99374915477107 l 3.660914816767944 0.17343386691775484 a24.665020682318875,24.665020682318875 0 0,0 -0.023741432067820305,0.4239192181628875 l -3.6573870338125944 -0.23642480141606564" fill="#ff3404" stroke="none" /><path d="M 120.95626037817324 101.35467743843564 l 0.18195598097885704 0.01176219696512327 a21.182335757029236,21.182335757029236 0 0,0 -0.02665286696324592,0.36365719391209816 l -0.18172655535127344 -0.014892527373991717" fill="#ff0300" stroke="none" /><path d="M 120.92983693683757 101.71520430193887 l 0.02594450249559458 0.0021261571423800787 a21.026031476215113,21.026031476215113 0 0,0 -0.03266584598106856,0.3604648884000483 l -0.025904060237450687 -0.002572434090998935" fill="#ff0000" stroke="none" /><path d="M 120.8583938346157 102.4346265915055 l 0.058664613413315116 0.006847431730789313 a21.059062883338367,21.059062883338367 0 0,0 -0.045125049829806925,0.35969104607613206 l -0.05853805433666007 -0.007856232094316315" fill="#ff0100" stroke="none" /><path d="M 120.81339534386255 102.79330883721812 l 0.10024375093637272 0.013453439515289432 a21.101142496689498,21.101142496689498 0 0,0 -0.0514123800227162,0.3595780661346165 l -0.09999731989705518 -0.015176977630315301" fill="#ff0100" stroke="none" /><path d="M 120.76222939487914 103.15116336523771 l 0.17518181154270912 0.026588016936442957 a21.177188006761174,21.177188006761174 0 0,0 -0.05780186971946256,0.35993229791928666 l -0.17469818746195814 -0.029599544548934566" fill="#ff0200" stroke="none" /><path d="M 120.64145759157962 103.86396538481128 l 0.22157367864357105 0.041477353072842685 a21.225422416555173,21.225422416555173 0 0,0 -0.07031686000664689,0.35854415425987024 l -0.22082688566126005 -0.04528523440065788" fill="#ff0300" stroke="none" /><path d="M 120.5718875245553 104.21870165774334 l 0.07301177353942635 0.014972612002564282 a21.074531189347493,21.074531189347493 0 0,0 -0.07593450766065162,0.3547407398912984 l -0.07274322715433165 -0.016227171310031686" fill="#ff0100" stroke="none" /><path d="M 120.49622156327973 104.57218783832717 l 0.0638159336323893 0.014235718263713707 a21.065384471091058,21.065384471091058 0 0,0 -0.08199393357725256,0.35322771987018975 l -0.06356143412458391 -0.015332095482468375" fill="#ff0100" stroke="none" /><path d="M 120.41448212921028 104.9243191809786 l 0.03095534342651326 0.007466953627535193 a21.031843188959794,21.031843188959794 0 0,0 -0.08792180340529315,0.35120389964417587 l -0.030822225726159242 -0.007998692669106999" fill="#ff0000" stroke="none" /><path d="M 120.02730092923936 106.31721596034902 l 0.14101979252993008 0.04448190433862006 a21.147868934190974,21.147868934190974 0 0,0 -0.11249432544961495,0.34622193346191754 l -0.14023321606406816 -0.04690273777833282" fill="#ff0200" stroke="none" /><path d="M 119.26925614724726 108.34839909993367 l 0.0748901046829998 0.032446114045705354 a21.081616653301257,21.081616653301257 0 0,0 -0.14712851756280787,0.3317359663098504 l -0.07432050238891903 -0.03373041684824345" fill="#ff0100" stroke="none" /><path d="M 118.97047184881838 109.00673069616215 l 0.02296586317183701 0.010903647860847928 a21.025422832413028,21.025422832413028 0 0,0 -0.15803783439976316,0.325604748123837 l -0.022774772157359565 -0.011297351949960344" fill="#ff0000" stroke="none" /><path d="M 118.81262510543309 109.33194174019688 l 0.04331940137646255 0.021488448719929273 a21.048356219496608,21.048356219496608 0 0,0 -0.16379763677155204,0.3231882768360991 l -0.04294309481864147 -0.02223093725872266" fill="#ff0100" stroke="none" /><path d="M 118.64920377521936 109.65438752849418 l 0.1691838053811695 0.0875836867022457 a21.19051000545801,21.19051000545801 0 0,0 -0.17048016737416372,0.32248422954340084 l -0.16765112978211272 -0.09048293133178086" fill="#ff0300" stroke="none" /><line stroke="#e1ed5e" stroke-width="0.3" x1="174.80103733775053" x2="179.2010983576182" y1="140.37084112569926" y2="142.7455964860345" /><path d="M 175.68104954172406 140.8457921977663 a86.0,86.0 0 0,1 -30.038265399797805,32.042727171017184" fill="none" id="id77" stroke="none" /><text fill="#e1ed5e" style="font-size:6.75px; font-family:Arial;" text-anchor="middle"><textPath startOffset="22.206326154141568" xlink:href="#id77">May</textPath></text><path d="M 118.48025628344425 109.97397251340804 l 0.07068835830594099 0.038151188595420965 a21.08032656591211,21.08032656591211 0 0,0 -0.17509077378862473,0.31784061297951094 l -0.07002117506580668 -0.03936231997273695" fill="#ff0100" stroke="none" /><path d="M 118.30583269289576 110.29060199501025 l 0.17605692058305825 0.09897018773095677 a21.20196815923479,21.20196815923479 0 0,0 -0.18157769767043738,0.31659602111809243 l -0.17432722676024132 -0.1019860547073643" fill="#ff0300" stroke="none" /><line stroke="#e1ed5e" stroke-width="0.3" x1="143.8653032363475" x2="146.44561519142675" y1="172.8068346515853" y2="177.08958963109032" /><path d="M 144.38136562736335 173.6633856474863 a86.0,86.0 0 0,1 -40.68145358897372,12.25698825130547" fill="none" id="id78" stroke="none" /><text fill="#e1ed5e" style="font-size:6.75px; font-family:Arial;" text-anchor="middle"><textPath startOffset="21.466115282336833" xlink:href="#id78">June</textPath></text><line stroke="#e1ed5e" stroke-width="0.3" x1="102.19456741930631" x2="102.32365962044197" y1="184.97166512339345" y2="189.96999836594603" /><path d="M 102.22038585953345 185.97133177190398 a86.0,86.0 0 0,1 -42.740103519485714,-10.115201625700543" fill="none" id="id79" stroke="none" /><text fill="#e1ed5e" style="font-size:6.75px; font-family:Arial;" text-anchor="middle"><textPath startOffset="22.20632615414155" xlink:href="#id79">July</textPath></text><line stroke="#e1ed5e" stroke-width="0.3" x1="58.666819895761336" x2="56.23545636021788" y1="174.27360380694188" y2="178.64263932499728" /><path d="M 58.180547188652646 175.14741091055294 a86.0,86.0 0 0,1 -31.652253787137756,-30.449443065178592" fill="none" id="id80" stroke="none" /><text fill="#e1ed5e" style="font-size:6.75px; font-family:Arial;" text-anchor="middle"><textPath startOffset="22.20632615414155" xlink:href="#id80">August</textPath></text><line stroke="#e1ed5e" stroke-width="0.3" x1="26.63291911575756" x2="22.317208475507996" y1="142.92168965132927" y2="145.44649492493687" /><path d="M 25.769776987707644 143.4266507060508 a86.0,86.0 0 0,1 -11.730757126820373,-40.83630448921669" fill="none" id="id81" stroke="none" /><text fill="#e1ed5e" style="font-size:6.75px; font-family:Arial;" text-anchor="middle"><textPath startOffset="21.46611528233685" xlink:href="#id81">September</textPath></text><line stroke="#e1ed5e" stroke-width="0.3" x1="15.007084014347285" x2="10.007500721073583" y1="101.09737516637583" y2="101.16192664675087" /><path d="M 14.007167355692545 101.11028546245083 a86.0,86.0 0 0,1 10.666146001902534,-42.60595125391555" fill="none" id="id82" stroke="none" /><text fill="#e1ed5e" style="font-size:6.75px; font-family:Arial;" text-anchor="middle"><textPath startOffset="22.20632615414155" xlink:href="#id82">October</textPath></text><line stroke="#e1ed5e" stroke-width="0.3" x1="26.266209847984243" x2="21.928928074336255" y1="57.711370442889674" y2="55.22380399835377" /><path d="M 25.398753493254645 57.213857153982495 a86.0,86.0 0 0,1 29.58750427330803,-30.492523968695096" fill="none" id="id83" stroke="none" /><text fill="#e1ed5e" style="font-size:6.75px; font-family:Arial;" text-anchor="middle"><textPath startOffset="21.46611528233685" xlink:href="#id83">November</textPath></text><line stroke="#e1ed5e" stroke-width="0.3" x1="56.762969772571076" x2="54.21961505331055" y1="26.818313649435495" y2="22.513508569990535" /><path d="M 56.25429882871897 25.957352633546506 a86.0,86.0 0 0,1 42.265352541879196,-11.944610805530505" fill="none" id="id84" stroke="none" /><text fill="#e1ed5e" style="font-size:6.75px; font-family:Arial;" text-anchor="middle"><textPath startOffset="22.20632615414155" xlink:href="#id84">December</textPath></text></svg>